%TF.GenerationSoftware,KiCad,Pcbnew,5.1.6-c6e7f7d~86~ubuntu19.10.1*%
%TF.CreationDate,2020-05-21T12:21:41+02:00*%
%TF.ProjectId,BioElectricalSensor,42696f45-6c65-4637-9472-6963616c5365,rev?*%
%TF.SameCoordinates,Original*%
%TF.FileFunction,Legend,Top*%
%TF.FilePolarity,Positive*%
%FSLAX46Y46*%
G04 Gerber Fmt 4.6, Leading zero omitted, Abs format (unit mm)*
G04 Created by KiCad (PCBNEW 5.1.6-c6e7f7d~86~ubuntu19.10.1) date 2020-05-21 12:21:41*
%MOMM*%
%LPD*%
G01*
G04 APERTURE LIST*
%ADD10C,0.200000*%
%ADD11C,0.120000*%
%ADD12C,0.250000*%
%ADD13C,0.150000*%
%ADD14C,0.400000*%
%ADD15C,0.010000*%
G04 APERTURE END LIST*
D10*
X50617380Y-33043761D02*
X50141190Y-33377095D01*
X50617380Y-33615190D02*
X49617380Y-33615190D01*
X49617380Y-33234238D01*
X49665000Y-33139000D01*
X49712619Y-33091380D01*
X49807857Y-33043761D01*
X49950714Y-33043761D01*
X50045952Y-33091380D01*
X50093571Y-33139000D01*
X50141190Y-33234238D01*
X50141190Y-33615190D01*
X50617380Y-32472333D02*
X50569761Y-32567571D01*
X50474523Y-32615190D01*
X49617380Y-32615190D01*
X50617380Y-31662809D02*
X49617380Y-31662809D01*
X50569761Y-31662809D02*
X50617380Y-31758047D01*
X50617380Y-31948523D01*
X50569761Y-32043761D01*
X50522142Y-32091380D01*
X50426904Y-32139000D01*
X50141190Y-32139000D01*
X50045952Y-32091380D01*
X49998333Y-32043761D01*
X49950714Y-31948523D01*
X49950714Y-31758047D01*
X49998333Y-31662809D01*
X47005952Y-33408952D02*
X46910714Y-33361333D01*
X46863095Y-33313714D01*
X46815476Y-33218476D01*
X46815476Y-33170857D01*
X46863095Y-33075619D01*
X46910714Y-33028000D01*
X47005952Y-32980380D01*
X47196428Y-32980380D01*
X47291666Y-33028000D01*
X47339285Y-33075619D01*
X47386904Y-33170857D01*
X47386904Y-33218476D01*
X47339285Y-33313714D01*
X47291666Y-33361333D01*
X47196428Y-33408952D01*
X47005952Y-33408952D01*
X46910714Y-33456571D01*
X46863095Y-33504190D01*
X46815476Y-33599428D01*
X46815476Y-33789904D01*
X46863095Y-33885142D01*
X46910714Y-33932761D01*
X47005952Y-33980380D01*
X47196428Y-33980380D01*
X47291666Y-33932761D01*
X47339285Y-33885142D01*
X47386904Y-33789904D01*
X47386904Y-33599428D01*
X47339285Y-33504190D01*
X47291666Y-33456571D01*
X47196428Y-33408952D01*
X47815476Y-33980380D02*
X47815476Y-32980380D01*
X48386904Y-33980380D01*
X48386904Y-32980380D01*
X44227857Y-32980380D02*
X44894523Y-32980380D01*
X44465952Y-33980380D01*
X45275476Y-33980380D02*
X45275476Y-32980380D01*
X45846904Y-33980380D01*
X45846904Y-32980380D01*
X42211666Y-32980380D02*
X42021190Y-32980380D01*
X41925952Y-33028000D01*
X41878333Y-33075619D01*
X41783095Y-33218476D01*
X41735476Y-33408952D01*
X41735476Y-33789904D01*
X41783095Y-33885142D01*
X41830714Y-33932761D01*
X41925952Y-33980380D01*
X42116428Y-33980380D01*
X42211666Y-33932761D01*
X42259285Y-33885142D01*
X42306904Y-33789904D01*
X42306904Y-33551809D01*
X42259285Y-33456571D01*
X42211666Y-33408952D01*
X42116428Y-33361333D01*
X41925952Y-33361333D01*
X41830714Y-33408952D01*
X41783095Y-33456571D01*
X41735476Y-33551809D01*
X42735476Y-33980380D02*
X42735476Y-32980380D01*
X43306904Y-33980380D01*
X43306904Y-32980380D01*
X39719285Y-32980380D02*
X39243095Y-32980380D01*
X39195476Y-33456571D01*
X39243095Y-33408952D01*
X39338333Y-33361333D01*
X39576428Y-33361333D01*
X39671666Y-33408952D01*
X39719285Y-33456571D01*
X39766904Y-33551809D01*
X39766904Y-33789904D01*
X39719285Y-33885142D01*
X39671666Y-33932761D01*
X39576428Y-33980380D01*
X39338333Y-33980380D01*
X39243095Y-33932761D01*
X39195476Y-33885142D01*
X40195476Y-33980380D02*
X40195476Y-32980380D01*
X40766904Y-33980380D01*
X40766904Y-32980380D01*
X37131666Y-33313714D02*
X37131666Y-33980380D01*
X36893571Y-32932761D02*
X36655476Y-33647047D01*
X37274523Y-33647047D01*
X37655476Y-33980380D02*
X37655476Y-32980380D01*
X38226904Y-33980380D01*
X38226904Y-32980380D01*
X34067857Y-32980380D02*
X34686904Y-32980380D01*
X34353571Y-33361333D01*
X34496428Y-33361333D01*
X34591666Y-33408952D01*
X34639285Y-33456571D01*
X34686904Y-33551809D01*
X34686904Y-33789904D01*
X34639285Y-33885142D01*
X34591666Y-33932761D01*
X34496428Y-33980380D01*
X34210714Y-33980380D01*
X34115476Y-33932761D01*
X34067857Y-33885142D01*
X35115476Y-33980380D02*
X35115476Y-32980380D01*
X35686904Y-33980380D01*
X35686904Y-32980380D01*
X31575476Y-33075619D02*
X31623095Y-33028000D01*
X31718333Y-32980380D01*
X31956428Y-32980380D01*
X32051666Y-33028000D01*
X32099285Y-33075619D01*
X32146904Y-33170857D01*
X32146904Y-33266095D01*
X32099285Y-33408952D01*
X31527857Y-33980380D01*
X32146904Y-33980380D01*
X32575476Y-33980380D02*
X32575476Y-32980380D01*
X33146904Y-33980380D01*
X33146904Y-32980380D01*
X29606904Y-33980380D02*
X29035476Y-33980380D01*
X29321190Y-33980380D02*
X29321190Y-32980380D01*
X29225952Y-33123238D01*
X29130714Y-33218476D01*
X29035476Y-33266095D01*
X30035476Y-33980380D02*
X30035476Y-32980380D01*
X30606904Y-33980380D01*
X30606904Y-32980380D01*
D11*
X53975000Y-30988000D02*
X53975000Y-34290000D01*
D12*
X54570380Y-33337380D02*
X55570380Y-33004047D01*
X54570380Y-32670714D01*
X55189428Y-32337380D02*
X55189428Y-31575476D01*
X55570380Y-31956428D02*
X54808476Y-31956428D01*
D10*
X52119000Y-33281857D02*
X52071380Y-33377095D01*
X52071380Y-33519952D01*
X52119000Y-33662809D01*
X52214238Y-33758047D01*
X52309476Y-33805666D01*
X52499952Y-33853285D01*
X52642809Y-33853285D01*
X52833285Y-33805666D01*
X52928523Y-33758047D01*
X53023761Y-33662809D01*
X53071380Y-33519952D01*
X53071380Y-33424714D01*
X53023761Y-33281857D01*
X52976142Y-33234238D01*
X52642809Y-33234238D01*
X52642809Y-33424714D01*
X52404714Y-32805666D02*
X53071380Y-32805666D01*
X52499952Y-32805666D02*
X52452333Y-32758047D01*
X52404714Y-32662809D01*
X52404714Y-32519952D01*
X52452333Y-32424714D01*
X52547571Y-32377095D01*
X53071380Y-32377095D01*
X53071380Y-31472333D02*
X52071380Y-31472333D01*
X53023761Y-31472333D02*
X53071380Y-31567571D01*
X53071380Y-31758047D01*
X53023761Y-31853285D01*
X52976142Y-31900904D01*
X52880904Y-31948523D01*
X52595190Y-31948523D01*
X52499952Y-31900904D01*
X52452333Y-31853285D01*
X52404714Y-31758047D01*
X52404714Y-31567571D01*
X52452333Y-31472333D01*
D11*
X51435000Y-30988000D02*
X51435000Y-34290000D01*
X48768000Y-30988000D02*
X48768000Y-34290000D01*
X46228000Y-30988000D02*
X46228000Y-34290000D01*
X43815000Y-30988000D02*
X43815000Y-34290000D01*
X41275000Y-30988000D02*
X41275000Y-34290000D01*
X38735000Y-30988000D02*
X38735000Y-34290000D01*
X36068000Y-30988000D02*
X36068000Y-34290000D01*
X33655000Y-30988000D02*
X33655000Y-34290000D01*
X31115000Y-30988000D02*
X31115000Y-34290000D01*
X28575000Y-30988000D02*
X28575000Y-34290000D01*
X26035000Y-30988000D02*
X26035000Y-34290000D01*
X26035000Y-32639000D02*
X48768000Y-32639000D01*
D10*
X47029761Y-31757952D02*
X46934523Y-31710333D01*
X46886904Y-31662714D01*
X46839285Y-31567476D01*
X46839285Y-31519857D01*
X46886904Y-31424619D01*
X46934523Y-31377000D01*
X47029761Y-31329380D01*
X47220238Y-31329380D01*
X47315476Y-31377000D01*
X47363095Y-31424619D01*
X47410714Y-31519857D01*
X47410714Y-31567476D01*
X47363095Y-31662714D01*
X47315476Y-31710333D01*
X47220238Y-31757952D01*
X47029761Y-31757952D01*
X46934523Y-31805571D01*
X46886904Y-31853190D01*
X46839285Y-31948428D01*
X46839285Y-32138904D01*
X46886904Y-32234142D01*
X46934523Y-32281761D01*
X47029761Y-32329380D01*
X47220238Y-32329380D01*
X47315476Y-32281761D01*
X47363095Y-32234142D01*
X47410714Y-32138904D01*
X47410714Y-31948428D01*
X47363095Y-31853190D01*
X47315476Y-31805571D01*
X47220238Y-31757952D01*
X47839285Y-32329380D02*
X47839285Y-31329380D01*
X48220238Y-31329380D01*
X48315476Y-31377000D01*
X48363095Y-31424619D01*
X48410714Y-31519857D01*
X48410714Y-31662714D01*
X48363095Y-31757952D01*
X48315476Y-31805571D01*
X48220238Y-31853190D01*
X47839285Y-31853190D01*
X44251666Y-31329380D02*
X44918333Y-31329380D01*
X44489761Y-32329380D01*
X45299285Y-32329380D02*
X45299285Y-31329380D01*
X45680238Y-31329380D01*
X45775476Y-31377000D01*
X45823095Y-31424619D01*
X45870714Y-31519857D01*
X45870714Y-31662714D01*
X45823095Y-31757952D01*
X45775476Y-31805571D01*
X45680238Y-31853190D01*
X45299285Y-31853190D01*
X42235476Y-31329380D02*
X42045000Y-31329380D01*
X41949761Y-31377000D01*
X41902142Y-31424619D01*
X41806904Y-31567476D01*
X41759285Y-31757952D01*
X41759285Y-32138904D01*
X41806904Y-32234142D01*
X41854523Y-32281761D01*
X41949761Y-32329380D01*
X42140238Y-32329380D01*
X42235476Y-32281761D01*
X42283095Y-32234142D01*
X42330714Y-32138904D01*
X42330714Y-31900809D01*
X42283095Y-31805571D01*
X42235476Y-31757952D01*
X42140238Y-31710333D01*
X41949761Y-31710333D01*
X41854523Y-31757952D01*
X41806904Y-31805571D01*
X41759285Y-31900809D01*
X42759285Y-32329380D02*
X42759285Y-31329380D01*
X43140238Y-31329380D01*
X43235476Y-31377000D01*
X43283095Y-31424619D01*
X43330714Y-31519857D01*
X43330714Y-31662714D01*
X43283095Y-31757952D01*
X43235476Y-31805571D01*
X43140238Y-31853190D01*
X42759285Y-31853190D01*
X39743095Y-31329380D02*
X39266904Y-31329380D01*
X39219285Y-31805571D01*
X39266904Y-31757952D01*
X39362142Y-31710333D01*
X39600238Y-31710333D01*
X39695476Y-31757952D01*
X39743095Y-31805571D01*
X39790714Y-31900809D01*
X39790714Y-32138904D01*
X39743095Y-32234142D01*
X39695476Y-32281761D01*
X39600238Y-32329380D01*
X39362142Y-32329380D01*
X39266904Y-32281761D01*
X39219285Y-32234142D01*
X40219285Y-32329380D02*
X40219285Y-31329380D01*
X40600238Y-31329380D01*
X40695476Y-31377000D01*
X40743095Y-31424619D01*
X40790714Y-31519857D01*
X40790714Y-31662714D01*
X40743095Y-31757952D01*
X40695476Y-31805571D01*
X40600238Y-31853190D01*
X40219285Y-31853190D01*
X37155476Y-31662714D02*
X37155476Y-32329380D01*
X36917380Y-31281761D02*
X36679285Y-31996047D01*
X37298333Y-31996047D01*
X37679285Y-32329380D02*
X37679285Y-31329380D01*
X38060238Y-31329380D01*
X38155476Y-31377000D01*
X38203095Y-31424619D01*
X38250714Y-31519857D01*
X38250714Y-31662714D01*
X38203095Y-31757952D01*
X38155476Y-31805571D01*
X38060238Y-31853190D01*
X37679285Y-31853190D01*
X34091666Y-31329380D02*
X34710714Y-31329380D01*
X34377380Y-31710333D01*
X34520238Y-31710333D01*
X34615476Y-31757952D01*
X34663095Y-31805571D01*
X34710714Y-31900809D01*
X34710714Y-32138904D01*
X34663095Y-32234142D01*
X34615476Y-32281761D01*
X34520238Y-32329380D01*
X34234523Y-32329380D01*
X34139285Y-32281761D01*
X34091666Y-32234142D01*
X35139285Y-32329380D02*
X35139285Y-31329380D01*
X35520238Y-31329380D01*
X35615476Y-31377000D01*
X35663095Y-31424619D01*
X35710714Y-31519857D01*
X35710714Y-31662714D01*
X35663095Y-31757952D01*
X35615476Y-31805571D01*
X35520238Y-31853190D01*
X35139285Y-31853190D01*
X31599285Y-31424619D02*
X31646904Y-31377000D01*
X31742142Y-31329380D01*
X31980238Y-31329380D01*
X32075476Y-31377000D01*
X32123095Y-31424619D01*
X32170714Y-31519857D01*
X32170714Y-31615095D01*
X32123095Y-31757952D01*
X31551666Y-32329380D01*
X32170714Y-32329380D01*
X32599285Y-32329380D02*
X32599285Y-31329380D01*
X32980238Y-31329380D01*
X33075476Y-31377000D01*
X33123095Y-31424619D01*
X33170714Y-31519857D01*
X33170714Y-31662714D01*
X33123095Y-31757952D01*
X33075476Y-31805571D01*
X32980238Y-31853190D01*
X32599285Y-31853190D01*
X29630714Y-32329380D02*
X29059285Y-32329380D01*
X29345000Y-32329380D02*
X29345000Y-31329380D01*
X29249761Y-31472238D01*
X29154523Y-31567476D01*
X29059285Y-31615095D01*
X30059285Y-32329380D02*
X30059285Y-31329380D01*
X30440238Y-31329380D01*
X30535476Y-31377000D01*
X30583095Y-31424619D01*
X30630714Y-31519857D01*
X30630714Y-31662714D01*
X30583095Y-31757952D01*
X30535476Y-31805571D01*
X30440238Y-31853190D01*
X30059285Y-31853190D01*
X26543095Y-32980380D02*
X27114523Y-32980380D01*
X26828809Y-33980380D02*
X26828809Y-32980380D01*
X27400238Y-33075619D02*
X27447857Y-33028000D01*
X27543095Y-32980380D01*
X27781190Y-32980380D01*
X27876428Y-33028000D01*
X27924047Y-33075619D01*
X27971666Y-33170857D01*
X27971666Y-33266095D01*
X27924047Y-33408952D01*
X27352619Y-33980380D01*
X27971666Y-33980380D01*
X26543095Y-31329380D02*
X27114523Y-31329380D01*
X26828809Y-32329380D02*
X26828809Y-31329380D01*
X27971666Y-32329380D02*
X27400238Y-32329380D01*
X27685952Y-32329380D02*
X27685952Y-31329380D01*
X27590714Y-31472238D01*
X27495476Y-31567476D01*
X27400238Y-31615095D01*
D12*
X24471380Y-33083380D02*
X25471380Y-32750047D01*
X24471380Y-32416714D01*
X25090428Y-32083380D02*
X25090428Y-31321476D01*
D13*
X57003904Y-85146952D02*
X56470571Y-85146952D01*
X56622952Y-85146952D02*
X56546761Y-85108857D01*
X56508666Y-85070761D01*
X56470571Y-84994571D01*
X56470571Y-84918380D01*
X56965809Y-84346952D02*
X57003904Y-84423142D01*
X57003904Y-84575523D01*
X56965809Y-84651714D01*
X56889619Y-84689809D01*
X56584857Y-84689809D01*
X56508666Y-84651714D01*
X56470571Y-84575523D01*
X56470571Y-84423142D01*
X56508666Y-84346952D01*
X56584857Y-84308857D01*
X56661047Y-84308857D01*
X56737238Y-84689809D01*
X56470571Y-84042190D02*
X57003904Y-83851714D01*
X56470571Y-83661238D01*
X56927714Y-83356476D02*
X56965809Y-83318380D01*
X57003904Y-83356476D01*
X56965809Y-83394571D01*
X56927714Y-83356476D01*
X57003904Y-83356476D01*
X57003904Y-81946952D02*
X57003904Y-82404095D01*
X57003904Y-82175523D02*
X56203904Y-82175523D01*
X56318190Y-82251714D01*
X56394380Y-82327904D01*
X56432476Y-82404095D01*
D10*
X20740714Y-66436238D02*
X21407380Y-66436238D01*
X20835952Y-66436238D02*
X20788333Y-66388619D01*
X20740714Y-66293380D01*
X20740714Y-66150523D01*
X20788333Y-66055285D01*
X20883571Y-66007666D01*
X21407380Y-66007666D01*
X21407380Y-64960047D02*
X20931190Y-65293380D01*
X21407380Y-65531476D02*
X20407380Y-65531476D01*
X20407380Y-65150523D01*
X20455000Y-65055285D01*
X20502619Y-65007666D01*
X20597857Y-64960047D01*
X20740714Y-64960047D01*
X20835952Y-65007666D01*
X20883571Y-65055285D01*
X20931190Y-65150523D01*
X20931190Y-65531476D01*
X20883571Y-64198142D02*
X20883571Y-64531476D01*
X21407380Y-64531476D02*
X20407380Y-64531476D01*
X20407380Y-64055285D01*
X20502619Y-63721952D02*
X20455000Y-63674333D01*
X20407380Y-63579095D01*
X20407380Y-63341000D01*
X20455000Y-63245761D01*
X20502619Y-63198142D01*
X20597857Y-63150523D01*
X20693095Y-63150523D01*
X20835952Y-63198142D01*
X21407380Y-63769571D01*
X21407380Y-63150523D01*
X21407380Y-62198142D02*
X21407380Y-62769571D01*
X21407380Y-62483857D02*
X20407380Y-62483857D01*
X20550238Y-62579095D01*
X20645476Y-62674333D01*
X20693095Y-62769571D01*
X21407380Y-61007666D02*
X20407380Y-61007666D01*
X21121666Y-60674333D01*
X20407380Y-60341000D01*
X21407380Y-60341000D01*
X21407380Y-59721952D02*
X21359761Y-59817190D01*
X21312142Y-59864809D01*
X21216904Y-59912428D01*
X20931190Y-59912428D01*
X20835952Y-59864809D01*
X20788333Y-59817190D01*
X20740714Y-59721952D01*
X20740714Y-59579095D01*
X20788333Y-59483857D01*
X20835952Y-59436238D01*
X20931190Y-59388619D01*
X21216904Y-59388619D01*
X21312142Y-59436238D01*
X21359761Y-59483857D01*
X21407380Y-59579095D01*
X21407380Y-59721952D01*
X21407380Y-58531476D02*
X20407380Y-58531476D01*
X21359761Y-58531476D02*
X21407380Y-58626714D01*
X21407380Y-58817190D01*
X21359761Y-58912428D01*
X21312142Y-58960047D01*
X21216904Y-59007666D01*
X20931190Y-59007666D01*
X20835952Y-58960047D01*
X20788333Y-58912428D01*
X20740714Y-58817190D01*
X20740714Y-58626714D01*
X20788333Y-58531476D01*
X20740714Y-57626714D02*
X21407380Y-57626714D01*
X20740714Y-58055285D02*
X21264523Y-58055285D01*
X21359761Y-58007666D01*
X21407380Y-57912428D01*
X21407380Y-57769571D01*
X21359761Y-57674333D01*
X21312142Y-57626714D01*
X21407380Y-57007666D02*
X21359761Y-57102904D01*
X21264523Y-57150523D01*
X20407380Y-57150523D01*
X21359761Y-56245761D02*
X21407380Y-56341000D01*
X21407380Y-56531476D01*
X21359761Y-56626714D01*
X21264523Y-56674333D01*
X20883571Y-56674333D01*
X20788333Y-56626714D01*
X20740714Y-56531476D01*
X20740714Y-56341000D01*
X20788333Y-56245761D01*
X20883571Y-56198142D01*
X20978809Y-56198142D01*
X21074047Y-56674333D01*
X21994761Y-72350142D02*
X22042380Y-72207285D01*
X22042380Y-71969190D01*
X21994761Y-71873952D01*
X21947142Y-71826333D01*
X21851904Y-71778714D01*
X21756666Y-71778714D01*
X21661428Y-71826333D01*
X21613809Y-71873952D01*
X21566190Y-71969190D01*
X21518571Y-72159666D01*
X21470952Y-72254904D01*
X21423333Y-72302523D01*
X21328095Y-72350142D01*
X21232857Y-72350142D01*
X21137619Y-72302523D01*
X21090000Y-72254904D01*
X21042380Y-72159666D01*
X21042380Y-71921571D01*
X21090000Y-71778714D01*
X21042380Y-71445380D02*
X22042380Y-71207285D01*
X21328095Y-71016809D01*
X22042380Y-70826333D01*
X21042380Y-70588238D01*
X22042380Y-70207285D02*
X21042380Y-70207285D01*
X21042380Y-69969190D01*
X21090000Y-69826333D01*
X21185238Y-69731095D01*
X21280476Y-69683476D01*
X21470952Y-69635857D01*
X21613809Y-69635857D01*
X21804285Y-69683476D01*
X21899523Y-69731095D01*
X21994761Y-69826333D01*
X22042380Y-69969190D01*
X22042380Y-70207285D01*
D14*
X55991142Y-101583285D02*
X56086380Y-101297571D01*
X56181619Y-101202333D01*
X56372095Y-101107095D01*
X56657809Y-101107095D01*
X56848285Y-101202333D01*
X56943523Y-101297571D01*
X57038761Y-101488047D01*
X57038761Y-102249952D01*
X55038761Y-102249952D01*
X55038761Y-101583285D01*
X55134000Y-101392809D01*
X55229238Y-101297571D01*
X55419714Y-101202333D01*
X55610190Y-101202333D01*
X55800666Y-101297571D01*
X55895904Y-101392809D01*
X55991142Y-101583285D01*
X55991142Y-102249952D01*
X57038761Y-100249952D02*
X55705428Y-100249952D01*
X55038761Y-100249952D02*
X55134000Y-100345190D01*
X55229238Y-100249952D01*
X55134000Y-100154714D01*
X55038761Y-100249952D01*
X55229238Y-100249952D01*
X57038761Y-99011857D02*
X56943523Y-99202333D01*
X56848285Y-99297571D01*
X56657809Y-99392809D01*
X56086380Y-99392809D01*
X55895904Y-99297571D01*
X55800666Y-99202333D01*
X55705428Y-99011857D01*
X55705428Y-98726142D01*
X55800666Y-98535666D01*
X55895904Y-98440428D01*
X56086380Y-98345190D01*
X56657809Y-98345190D01*
X56848285Y-98440428D01*
X56943523Y-98535666D01*
X57038761Y-98726142D01*
X57038761Y-99011857D01*
X56943523Y-97583285D02*
X57038761Y-97297571D01*
X57038761Y-96821380D01*
X56943523Y-96630904D01*
X56848285Y-96535666D01*
X56657809Y-96440428D01*
X56467333Y-96440428D01*
X56276857Y-96535666D01*
X56181619Y-96630904D01*
X56086380Y-96821380D01*
X55991142Y-97202333D01*
X55895904Y-97392809D01*
X55800666Y-97488047D01*
X55610190Y-97583285D01*
X55419714Y-97583285D01*
X55229238Y-97488047D01*
X55134000Y-97392809D01*
X55038761Y-97202333D01*
X55038761Y-96726142D01*
X55134000Y-96440428D01*
X57038761Y-95583285D02*
X55705428Y-95583285D01*
X55038761Y-95583285D02*
X55134000Y-95678523D01*
X55229238Y-95583285D01*
X55134000Y-95488047D01*
X55038761Y-95583285D01*
X55229238Y-95583285D01*
X55705428Y-93773761D02*
X57324476Y-93773761D01*
X57514952Y-93869000D01*
X57610190Y-93964238D01*
X57705428Y-94154714D01*
X57705428Y-94440428D01*
X57610190Y-94630904D01*
X56943523Y-93773761D02*
X57038761Y-93964238D01*
X57038761Y-94345190D01*
X56943523Y-94535666D01*
X56848285Y-94630904D01*
X56657809Y-94726142D01*
X56086380Y-94726142D01*
X55895904Y-94630904D01*
X55800666Y-94535666D01*
X55705428Y-94345190D01*
X55705428Y-93964238D01*
X55800666Y-93773761D01*
X55705428Y-92821380D02*
X57038761Y-92821380D01*
X55895904Y-92821380D02*
X55800666Y-92726142D01*
X55705428Y-92535666D01*
X55705428Y-92249952D01*
X55800666Y-92059476D01*
X55991142Y-91964238D01*
X57038761Y-91964238D01*
X57038761Y-90154714D02*
X55991142Y-90154714D01*
X55800666Y-90249952D01*
X55705428Y-90440428D01*
X55705428Y-90821380D01*
X55800666Y-91011857D01*
X56943523Y-90154714D02*
X57038761Y-90345190D01*
X57038761Y-90821380D01*
X56943523Y-91011857D01*
X56753047Y-91107095D01*
X56562571Y-91107095D01*
X56372095Y-91011857D01*
X56276857Y-90821380D01*
X56276857Y-90345190D01*
X56181619Y-90154714D01*
X57038761Y-88916619D02*
X56943523Y-89107095D01*
X56753047Y-89202333D01*
X55038761Y-89202333D01*
X56943523Y-88249952D02*
X57038761Y-88059476D01*
X57038761Y-87678523D01*
X56943523Y-87488047D01*
X56753047Y-87392809D01*
X56657809Y-87392809D01*
X56467333Y-87488047D01*
X56372095Y-87678523D01*
X56372095Y-87964238D01*
X56276857Y-88154714D01*
X56086380Y-88249952D01*
X55991142Y-88249952D01*
X55800666Y-88154714D01*
X55705428Y-87964238D01*
X55705428Y-87678523D01*
X55800666Y-87488047D01*
D13*
X23965476Y-73856904D02*
X24460714Y-73856904D01*
X24194047Y-74161666D01*
X24308333Y-74161666D01*
X24384523Y-74199761D01*
X24422619Y-74237857D01*
X24460714Y-74314047D01*
X24460714Y-74504523D01*
X24422619Y-74580714D01*
X24384523Y-74618809D01*
X24308333Y-74656904D01*
X24079761Y-74656904D01*
X24003571Y-74618809D01*
X23965476Y-74580714D01*
X24803571Y-74580714D02*
X24841666Y-74618809D01*
X24803571Y-74656904D01*
X24765476Y-74618809D01*
X24803571Y-74580714D01*
X24803571Y-74656904D01*
X25108333Y-73856904D02*
X25603571Y-73856904D01*
X25336904Y-74161666D01*
X25451190Y-74161666D01*
X25527380Y-74199761D01*
X25565476Y-74237857D01*
X25603571Y-74314047D01*
X25603571Y-74504523D01*
X25565476Y-74580714D01*
X25527380Y-74618809D01*
X25451190Y-74656904D01*
X25222619Y-74656904D01*
X25146428Y-74618809D01*
X25108333Y-74580714D01*
X26555952Y-74656904D02*
X26555952Y-73856904D01*
X27089285Y-73856904D02*
X27241666Y-73856904D01*
X27317857Y-73895000D01*
X27394047Y-73971190D01*
X27432142Y-74123571D01*
X27432142Y-74390238D01*
X27394047Y-74542619D01*
X27317857Y-74618809D01*
X27241666Y-74656904D01*
X27089285Y-74656904D01*
X27013095Y-74618809D01*
X26936904Y-74542619D01*
X26898809Y-74390238D01*
X26898809Y-74123571D01*
X26936904Y-73971190D01*
X27013095Y-73895000D01*
X27089285Y-73856904D01*
X28841666Y-74580714D02*
X28803571Y-74618809D01*
X28689285Y-74656904D01*
X28613095Y-74656904D01*
X28498809Y-74618809D01*
X28422619Y-74542619D01*
X28384523Y-74466428D01*
X28346428Y-74314047D01*
X28346428Y-74199761D01*
X28384523Y-74047380D01*
X28422619Y-73971190D01*
X28498809Y-73895000D01*
X28613095Y-73856904D01*
X28689285Y-73856904D01*
X28803571Y-73895000D01*
X28841666Y-73933095D01*
X29565476Y-74656904D02*
X29184523Y-74656904D01*
X29184523Y-73856904D01*
X29832142Y-74656904D02*
X29832142Y-73856904D01*
X30289285Y-74656904D02*
X29946428Y-74199761D01*
X30289285Y-73856904D02*
X29832142Y-74314047D01*
X31660714Y-73895000D02*
X31584523Y-73856904D01*
X31470238Y-73856904D01*
X31355952Y-73895000D01*
X31279761Y-73971190D01*
X31241666Y-74047380D01*
X31203571Y-74199761D01*
X31203571Y-74314047D01*
X31241666Y-74466428D01*
X31279761Y-74542619D01*
X31355952Y-74618809D01*
X31470238Y-74656904D01*
X31546428Y-74656904D01*
X31660714Y-74618809D01*
X31698809Y-74580714D01*
X31698809Y-74314047D01*
X31546428Y-74314047D01*
X32041666Y-74123571D02*
X32041666Y-74656904D01*
X32041666Y-74199761D02*
X32079761Y-74161666D01*
X32155952Y-74123571D01*
X32270238Y-74123571D01*
X32346428Y-74161666D01*
X32384523Y-74237857D01*
X32384523Y-74656904D01*
X33108333Y-74656904D02*
X33108333Y-73856904D01*
X33108333Y-74618809D02*
X33032142Y-74656904D01*
X32879761Y-74656904D01*
X32803571Y-74618809D01*
X32765476Y-74580714D01*
X32727380Y-74504523D01*
X32727380Y-74275952D01*
X32765476Y-74199761D01*
X32803571Y-74161666D01*
X32879761Y-74123571D01*
X33032142Y-74123571D01*
X33108333Y-74161666D01*
D10*
X57554761Y-43719190D02*
X57602380Y-43814428D01*
X57602380Y-44004904D01*
X57554761Y-44100142D01*
X57507142Y-44147761D01*
X57411904Y-44195380D01*
X57126190Y-44195380D01*
X57030952Y-44147761D01*
X56983333Y-44100142D01*
X56935714Y-44004904D01*
X56935714Y-43814428D01*
X56983333Y-43719190D01*
X57602380Y-43290619D02*
X56602380Y-43290619D01*
X57602380Y-42862047D02*
X57078571Y-42862047D01*
X56983333Y-42909666D01*
X56935714Y-43004904D01*
X56935714Y-43147761D01*
X56983333Y-43243000D01*
X57030952Y-43290619D01*
X57602380Y-41957285D02*
X57078571Y-41957285D01*
X56983333Y-42004904D01*
X56935714Y-42100142D01*
X56935714Y-42290619D01*
X56983333Y-42385857D01*
X57554761Y-41957285D02*
X57602380Y-42052523D01*
X57602380Y-42290619D01*
X57554761Y-42385857D01*
X57459523Y-42433476D01*
X57364285Y-42433476D01*
X57269047Y-42385857D01*
X57221428Y-42290619D01*
X57221428Y-42052523D01*
X57173809Y-41957285D01*
X57602380Y-41481095D02*
X56935714Y-41481095D01*
X57126190Y-41481095D02*
X57030952Y-41433476D01*
X56983333Y-41385857D01*
X56935714Y-41290619D01*
X56935714Y-41195380D01*
X57602380Y-40719190D02*
X57554761Y-40814428D01*
X57459523Y-40862047D01*
X56602380Y-40862047D01*
X57554761Y-39957285D02*
X57602380Y-40052523D01*
X57602380Y-40243000D01*
X57554761Y-40338238D01*
X57459523Y-40385857D01*
X57078571Y-40385857D01*
X56983333Y-40338238D01*
X56935714Y-40243000D01*
X56935714Y-40052523D01*
X56983333Y-39957285D01*
X57078571Y-39909666D01*
X57173809Y-39909666D01*
X57269047Y-40385857D01*
X57554761Y-39528714D02*
X57602380Y-39433476D01*
X57602380Y-39243000D01*
X57554761Y-39147761D01*
X57459523Y-39100142D01*
X57411904Y-39100142D01*
X57316666Y-39147761D01*
X57269047Y-39243000D01*
X57269047Y-39385857D01*
X57221428Y-39481095D01*
X57126190Y-39528714D01*
X57078571Y-39528714D01*
X56983333Y-39481095D01*
X56935714Y-39385857D01*
X56935714Y-39243000D01*
X56983333Y-39147761D01*
X57602380Y-38528714D02*
X57554761Y-38623952D01*
X57459523Y-38671571D01*
X56602380Y-38671571D01*
X57602380Y-37719190D02*
X57078571Y-37719190D01*
X56983333Y-37766809D01*
X56935714Y-37862047D01*
X56935714Y-38052523D01*
X56983333Y-38147761D01*
X57554761Y-37719190D02*
X57602380Y-37814428D01*
X57602380Y-38052523D01*
X57554761Y-38147761D01*
X57459523Y-38195380D01*
X57364285Y-38195380D01*
X57269047Y-38147761D01*
X57221428Y-38052523D01*
X57221428Y-37814428D01*
X57173809Y-37719190D01*
X57602380Y-37243000D02*
X56602380Y-37243000D01*
X56983333Y-37243000D02*
X56935714Y-37147761D01*
X56935714Y-36957285D01*
X56983333Y-36862047D01*
X57030952Y-36814428D01*
X57126190Y-36766809D01*
X57411904Y-36766809D01*
X57507142Y-36814428D01*
X57554761Y-36862047D01*
X57602380Y-36957285D01*
X57602380Y-37147761D01*
X57554761Y-37243000D01*
X57554761Y-36385857D02*
X57602380Y-36290619D01*
X57602380Y-36100142D01*
X57554761Y-36004904D01*
X57459523Y-35957285D01*
X57411904Y-35957285D01*
X57316666Y-36004904D01*
X57269047Y-36100142D01*
X57269047Y-36243000D01*
X57221428Y-36338238D01*
X57126190Y-36385857D01*
X57078571Y-36385857D01*
X56983333Y-36338238D01*
X56935714Y-36243000D01*
X56935714Y-36100142D01*
X56983333Y-36004904D01*
X57507142Y-35528714D02*
X57554761Y-35481095D01*
X57602380Y-35528714D01*
X57554761Y-35576333D01*
X57507142Y-35528714D01*
X57602380Y-35528714D01*
X56935714Y-35195380D02*
X56935714Y-34814428D01*
X57602380Y-35052523D02*
X56745238Y-35052523D01*
X56650000Y-35004904D01*
X56602380Y-34909666D01*
X56602380Y-34814428D01*
X57602380Y-34481095D02*
X56935714Y-34481095D01*
X57126190Y-34481095D02*
X57030952Y-34433476D01*
X56983333Y-34385857D01*
X56935714Y-34290619D01*
X56935714Y-34195380D01*
D12*
X29146666Y-78684380D02*
X29146666Y-77684380D01*
X29527619Y-77684380D01*
X29622857Y-77732000D01*
X29670476Y-77779619D01*
X29718095Y-77874857D01*
X29718095Y-78017714D01*
X29670476Y-78112952D01*
X29622857Y-78160571D01*
X29527619Y-78208190D01*
X29146666Y-78208190D01*
X30051428Y-77684380D02*
X30289523Y-78684380D01*
X30480000Y-77970095D01*
X30670476Y-78684380D01*
X30908571Y-77684380D01*
X31860952Y-78684380D02*
X31527619Y-78208190D01*
X31289523Y-78684380D02*
X31289523Y-77684380D01*
X31670476Y-77684380D01*
X31765714Y-77732000D01*
X31813333Y-77779619D01*
X31860952Y-77874857D01*
X31860952Y-78017714D01*
X31813333Y-78112952D01*
X31765714Y-78160571D01*
X31670476Y-78208190D01*
X31289523Y-78208190D01*
X30345238Y-102687380D02*
X30011904Y-102211190D01*
X29773809Y-102687380D02*
X29773809Y-101687380D01*
X30154761Y-101687380D01*
X30250000Y-101735000D01*
X30297619Y-101782619D01*
X30345238Y-101877857D01*
X30345238Y-102020714D01*
X30297619Y-102115952D01*
X30250000Y-102163571D01*
X30154761Y-102211190D01*
X29773809Y-102211190D01*
X30678571Y-101687380D02*
X31345238Y-102687380D01*
X31345238Y-101687380D02*
X30678571Y-102687380D01*
X32345238Y-101687380D02*
X32916666Y-101687380D01*
X32630952Y-102687380D02*
X32630952Y-101687380D01*
X33154761Y-101687380D02*
X33821428Y-102687380D01*
X33821428Y-101687380D02*
X33154761Y-102687380D01*
X42196095Y-84764571D02*
X42338952Y-84812190D01*
X42386571Y-84859809D01*
X42434190Y-84955047D01*
X42434190Y-85097904D01*
X42386571Y-85193142D01*
X42338952Y-85240761D01*
X42243714Y-85288380D01*
X41862761Y-85288380D01*
X41862761Y-84288380D01*
X42196095Y-84288380D01*
X42291333Y-84336000D01*
X42338952Y-84383619D01*
X42386571Y-84478857D01*
X42386571Y-84574095D01*
X42338952Y-84669333D01*
X42291333Y-84716952D01*
X42196095Y-84764571D01*
X41862761Y-84764571D01*
X42815142Y-85002666D02*
X43291333Y-85002666D01*
X42719904Y-85288380D02*
X43053238Y-84288380D01*
X43386571Y-85288380D01*
X43577047Y-84288380D02*
X44148476Y-84288380D01*
X43862761Y-85288380D02*
X43862761Y-84288380D01*
X45196095Y-84240761D02*
X44338952Y-85526476D01*
X45529428Y-84288380D02*
X45529428Y-85097904D01*
X45577047Y-85193142D01*
X45624666Y-85240761D01*
X45719904Y-85288380D01*
X45910380Y-85288380D01*
X46005619Y-85240761D01*
X46053238Y-85193142D01*
X46100857Y-85097904D01*
X46100857Y-84288380D01*
X46529428Y-85240761D02*
X46672285Y-85288380D01*
X46910380Y-85288380D01*
X47005619Y-85240761D01*
X47053238Y-85193142D01*
X47100857Y-85097904D01*
X47100857Y-85002666D01*
X47053238Y-84907428D01*
X47005619Y-84859809D01*
X46910380Y-84812190D01*
X46719904Y-84764571D01*
X46624666Y-84716952D01*
X46577047Y-84669333D01*
X46529428Y-84574095D01*
X46529428Y-84478857D01*
X46577047Y-84383619D01*
X46624666Y-84336000D01*
X46719904Y-84288380D01*
X46958000Y-84288380D01*
X47100857Y-84336000D01*
X47862761Y-84764571D02*
X48005619Y-84812190D01*
X48053238Y-84859809D01*
X48100857Y-84955047D01*
X48100857Y-85097904D01*
X48053238Y-85193142D01*
X48005619Y-85240761D01*
X47910380Y-85288380D01*
X47529428Y-85288380D01*
X47529428Y-84288380D01*
X47862761Y-84288380D01*
X47958000Y-84336000D01*
X48005619Y-84383619D01*
X48053238Y-84478857D01*
X48053238Y-84574095D01*
X48005619Y-84669333D01*
X47958000Y-84716952D01*
X47862761Y-84764571D01*
X47529428Y-84764571D01*
D15*
%TO.C,LOGO1*%
G36*
X50939480Y-101766077D02*
G01*
X51003400Y-101766138D01*
X51050391Y-101767808D01*
X51083052Y-101773309D01*
X51103984Y-101784867D01*
X51115785Y-101804708D01*
X51121056Y-101835057D01*
X51122396Y-101878137D01*
X51122384Y-101922627D01*
X51122384Y-102048762D01*
X51215446Y-102123613D01*
X51308507Y-102198464D01*
X51305811Y-102341289D01*
X51303115Y-102484115D01*
X50944096Y-102486678D01*
X50585077Y-102489240D01*
X50585098Y-102340139D01*
X50585120Y-102191038D01*
X50672615Y-102122653D01*
X50760110Y-102054269D01*
X50760516Y-101929711D01*
X50760847Y-101871928D01*
X50763166Y-101829640D01*
X50770116Y-101800431D01*
X50784338Y-101781884D01*
X50808475Y-101771586D01*
X50845168Y-101767120D01*
X50897058Y-101766071D01*
X50939480Y-101766077D01*
G37*
X50939480Y-101766077D02*
X51003400Y-101766138D01*
X51050391Y-101767808D01*
X51083052Y-101773309D01*
X51103984Y-101784867D01*
X51115785Y-101804708D01*
X51121056Y-101835057D01*
X51122396Y-101878137D01*
X51122384Y-101922627D01*
X51122384Y-102048762D01*
X51215446Y-102123613D01*
X51308507Y-102198464D01*
X51305811Y-102341289D01*
X51303115Y-102484115D01*
X50944096Y-102486678D01*
X50585077Y-102489240D01*
X50585098Y-102340139D01*
X50585120Y-102191038D01*
X50672615Y-102122653D01*
X50760110Y-102054269D01*
X50760516Y-101929711D01*
X50760847Y-101871928D01*
X50763166Y-101829640D01*
X50770116Y-101800431D01*
X50784338Y-101781884D01*
X50808475Y-101771586D01*
X50845168Y-101767120D01*
X50897058Y-101766071D01*
X50939480Y-101766077D01*
G36*
X50213137Y-101791817D02*
G01*
X50221829Y-101804898D01*
X50227635Y-101820570D01*
X50231121Y-101842852D01*
X50232851Y-101875761D01*
X50233391Y-101923316D01*
X50233406Y-101935913D01*
X50233428Y-102054269D01*
X50320923Y-102122653D01*
X50408418Y-102191038D01*
X50409230Y-102489000D01*
X49686307Y-102489000D01*
X49686714Y-102340019D01*
X49687120Y-102191038D01*
X49774615Y-102122653D01*
X49862109Y-102054269D01*
X49862131Y-101935913D01*
X49862488Y-101884664D01*
X49863913Y-101848929D01*
X49866972Y-101824690D01*
X49872228Y-101807929D01*
X49880249Y-101794628D01*
X49882401Y-101791817D01*
X49902648Y-101766077D01*
X50192889Y-101766077D01*
X50213137Y-101791817D01*
G37*
X50213137Y-101791817D02*
X50221829Y-101804898D01*
X50227635Y-101820570D01*
X50231121Y-101842852D01*
X50232851Y-101875761D01*
X50233391Y-101923316D01*
X50233406Y-101935913D01*
X50233428Y-102054269D01*
X50320923Y-102122653D01*
X50408418Y-102191038D01*
X50409230Y-102489000D01*
X49686307Y-102489000D01*
X49686714Y-102340019D01*
X49687120Y-102191038D01*
X49774615Y-102122653D01*
X49862109Y-102054269D01*
X49862131Y-101935913D01*
X49862488Y-101884664D01*
X49863913Y-101848929D01*
X49866972Y-101824690D01*
X49872228Y-101807929D01*
X49880249Y-101794628D01*
X49882401Y-101791817D01*
X49902648Y-101766077D01*
X50192889Y-101766077D01*
X50213137Y-101791817D01*
G36*
X49153884Y-101766077D02*
G01*
X49217368Y-101766150D01*
X49263938Y-101767883D01*
X49296210Y-101773542D01*
X49316800Y-101785394D01*
X49328323Y-101805706D01*
X49333395Y-101836745D01*
X49334631Y-101880779D01*
X49334615Y-101922730D01*
X49334615Y-102048968D01*
X49510461Y-102189768D01*
X49510461Y-102489000D01*
X49155512Y-102489000D01*
X49074088Y-102488826D01*
X48998887Y-102488333D01*
X48932132Y-102487560D01*
X48876046Y-102486547D01*
X48832852Y-102485335D01*
X48804774Y-102483962D01*
X48794051Y-102482487D01*
X48791716Y-102470868D01*
X48789752Y-102443399D01*
X48788324Y-102403767D01*
X48787596Y-102355662D01*
X48787538Y-102337015D01*
X48787538Y-102198055D01*
X48880346Y-102123409D01*
X48973153Y-102048762D01*
X48973153Y-101922627D01*
X48973239Y-101867637D01*
X48975240Y-101827298D01*
X48981772Y-101799344D01*
X48995450Y-101781508D01*
X49018890Y-101771527D01*
X49054708Y-101767134D01*
X49105519Y-101766063D01*
X49153884Y-101766077D01*
G37*
X49153884Y-101766077D02*
X49217368Y-101766150D01*
X49263938Y-101767883D01*
X49296210Y-101773542D01*
X49316800Y-101785394D01*
X49328323Y-101805706D01*
X49333395Y-101836745D01*
X49334631Y-101880779D01*
X49334615Y-101922730D01*
X49334615Y-102048968D01*
X49510461Y-102189768D01*
X49510461Y-102489000D01*
X49155512Y-102489000D01*
X49074088Y-102488826D01*
X48998887Y-102488333D01*
X48932132Y-102487560D01*
X48876046Y-102486547D01*
X48832852Y-102485335D01*
X48804774Y-102483962D01*
X48794051Y-102482487D01*
X48791716Y-102470868D01*
X48789752Y-102443399D01*
X48788324Y-102403767D01*
X48787596Y-102355662D01*
X48787538Y-102337015D01*
X48787538Y-102198055D01*
X48880346Y-102123409D01*
X48973153Y-102048762D01*
X48973153Y-101922627D01*
X48973239Y-101867637D01*
X48975240Y-101827298D01*
X48981772Y-101799344D01*
X48995450Y-101781508D01*
X49018890Y-101771527D01*
X49054708Y-101767134D01*
X49105519Y-101766063D01*
X49153884Y-101766077D01*
G36*
X48322037Y-101766168D02*
G01*
X48368731Y-101768037D01*
X48401237Y-101774071D01*
X48422226Y-101786658D01*
X48434369Y-101808189D01*
X48440336Y-101841051D01*
X48442799Y-101887633D01*
X48443925Y-101931943D01*
X48447120Y-102056744D01*
X48534549Y-102126748D01*
X48621979Y-102196753D01*
X48616577Y-102484115D01*
X48257557Y-102486678D01*
X47898538Y-102489240D01*
X47898944Y-102340139D01*
X47899351Y-102191038D01*
X47986845Y-102122653D01*
X48074340Y-102054269D01*
X48074362Y-101929711D01*
X48074477Y-101872692D01*
X48076525Y-101830728D01*
X48083101Y-101801515D01*
X48096796Y-101782748D01*
X48120204Y-101772123D01*
X48155918Y-101767336D01*
X48206529Y-101766083D01*
X48258485Y-101766077D01*
X48322037Y-101766168D01*
G37*
X48322037Y-101766168D02*
X48368731Y-101768037D01*
X48401237Y-101774071D01*
X48422226Y-101786658D01*
X48434369Y-101808189D01*
X48440336Y-101841051D01*
X48442799Y-101887633D01*
X48443925Y-101931943D01*
X48447120Y-102056744D01*
X48534549Y-102126748D01*
X48621979Y-102196753D01*
X48616577Y-102484115D01*
X48257557Y-102486678D01*
X47898538Y-102489240D01*
X47898944Y-102340139D01*
X47899351Y-102191038D01*
X47986845Y-102122653D01*
X48074340Y-102054269D01*
X48074362Y-101929711D01*
X48074477Y-101872692D01*
X48076525Y-101830728D01*
X48083101Y-101801515D01*
X48096796Y-101782748D01*
X48120204Y-101772123D01*
X48155918Y-101767336D01*
X48206529Y-101766083D01*
X48258485Y-101766077D01*
X48322037Y-101766168D01*
G36*
X47364442Y-101766077D02*
G01*
X47428224Y-101766180D01*
X47475090Y-101768050D01*
X47507651Y-101774025D01*
X47528520Y-101786444D01*
X47540311Y-101807646D01*
X47545635Y-101839970D01*
X47547107Y-101885753D01*
X47547252Y-101929711D01*
X47547658Y-102054269D01*
X47635153Y-102122653D01*
X47722648Y-102191038D01*
X47722692Y-102489000D01*
X47367743Y-102489000D01*
X47286319Y-102488826D01*
X47211118Y-102488333D01*
X47144363Y-102487560D01*
X47088277Y-102486547D01*
X47045083Y-102485335D01*
X47017005Y-102483962D01*
X47006282Y-102482487D01*
X47003953Y-102470872D01*
X47001992Y-102443397D01*
X47000564Y-102403737D01*
X46999831Y-102355569D01*
X46999769Y-102336259D01*
X46999769Y-102196545D01*
X47092577Y-102121898D01*
X47185384Y-102047251D01*
X47185384Y-101922832D01*
X47185407Y-101867536D01*
X47187227Y-101827036D01*
X47193468Y-101799033D01*
X47206754Y-101781229D01*
X47229712Y-101771327D01*
X47264965Y-101767028D01*
X47315139Y-101766036D01*
X47364442Y-101766077D01*
G37*
X47364442Y-101766077D02*
X47428224Y-101766180D01*
X47475090Y-101768050D01*
X47507651Y-101774025D01*
X47528520Y-101786444D01*
X47540311Y-101807646D01*
X47545635Y-101839970D01*
X47547107Y-101885753D01*
X47547252Y-101929711D01*
X47547658Y-102054269D01*
X47635153Y-102122653D01*
X47722648Y-102191038D01*
X47722692Y-102489000D01*
X47367743Y-102489000D01*
X47286319Y-102488826D01*
X47211118Y-102488333D01*
X47144363Y-102487560D01*
X47088277Y-102486547D01*
X47045083Y-102485335D01*
X47017005Y-102483962D01*
X47006282Y-102482487D01*
X47003953Y-102470872D01*
X47001992Y-102443397D01*
X47000564Y-102403737D01*
X46999831Y-102355569D01*
X46999769Y-102336259D01*
X46999769Y-102196545D01*
X47092577Y-102121898D01*
X47185384Y-102047251D01*
X47185384Y-101922832D01*
X47185407Y-101867536D01*
X47187227Y-101827036D01*
X47193468Y-101799033D01*
X47206754Y-101781229D01*
X47229712Y-101771327D01*
X47264965Y-101767028D01*
X47315139Y-101766036D01*
X47364442Y-101766077D01*
G36*
X49343075Y-102644617D02*
G01*
X49523348Y-102644731D01*
X49701367Y-102644918D01*
X49876040Y-102645178D01*
X50046279Y-102645510D01*
X50210993Y-102645915D01*
X50369094Y-102646393D01*
X50519492Y-102646944D01*
X50661096Y-102647567D01*
X50792817Y-102648264D01*
X50913566Y-102649032D01*
X51022252Y-102649874D01*
X51117787Y-102650789D01*
X51199080Y-102651776D01*
X51265042Y-102652836D01*
X51314583Y-102653969D01*
X51346613Y-102655174D01*
X51359329Y-102656270D01*
X51436386Y-102681241D01*
X51505983Y-102722413D01*
X51565110Y-102777246D01*
X51610760Y-102843199D01*
X51629476Y-102884467D01*
X51650194Y-102939842D01*
X51645038Y-105620038D01*
X51619390Y-105673769D01*
X51574464Y-105746266D01*
X51516091Y-105805004D01*
X51445762Y-105848812D01*
X51364972Y-105876521D01*
X51358807Y-105877861D01*
X51342679Y-105879189D01*
X51308145Y-105880429D01*
X51256290Y-105881581D01*
X51188198Y-105882646D01*
X51104954Y-105883623D01*
X51007642Y-105884515D01*
X50897347Y-105885322D01*
X50775152Y-105886044D01*
X50642143Y-105886682D01*
X50499403Y-105887238D01*
X50348018Y-105887711D01*
X50189071Y-105888102D01*
X50023647Y-105888413D01*
X49852831Y-105888643D01*
X49677706Y-105888794D01*
X49499357Y-105888866D01*
X49318869Y-105888861D01*
X49137325Y-105888778D01*
X48955811Y-105888618D01*
X48775411Y-105888383D01*
X48597209Y-105888072D01*
X48422289Y-105887688D01*
X48251737Y-105887229D01*
X48086635Y-105886698D01*
X47928070Y-105886094D01*
X47777124Y-105885419D01*
X47634883Y-105884673D01*
X47502431Y-105883857D01*
X47380853Y-105882972D01*
X47271232Y-105882018D01*
X47174653Y-105880997D01*
X47092201Y-105879908D01*
X47024960Y-105878753D01*
X46974014Y-105877532D01*
X46940448Y-105876246D01*
X46925399Y-105874908D01*
X46848887Y-105846815D01*
X46780638Y-105802922D01*
X46723594Y-105745807D01*
X46680696Y-105678046D01*
X46668659Y-105649894D01*
X46665750Y-105641947D01*
X46663129Y-105633781D01*
X46660781Y-105624386D01*
X46658691Y-105612757D01*
X46656843Y-105597884D01*
X46655223Y-105578761D01*
X46653817Y-105554380D01*
X46652608Y-105523732D01*
X46651582Y-105485810D01*
X46650724Y-105439607D01*
X46650019Y-105384115D01*
X46649451Y-105318326D01*
X46649007Y-105241232D01*
X46648670Y-105151826D01*
X46648427Y-105049099D01*
X46648261Y-104932045D01*
X46648158Y-104799655D01*
X46648103Y-104650922D01*
X46648081Y-104484838D01*
X46648077Y-104300395D01*
X46648077Y-104267000D01*
X46648078Y-104122055D01*
X47077923Y-104122055D01*
X47077923Y-104421714D01*
X47199361Y-104424953D01*
X47258284Y-104427386D01*
X47301660Y-104432062D01*
X47333465Y-104440489D01*
X47357676Y-104454176D01*
X47378269Y-104474630D01*
X47396852Y-104499858D01*
X47408004Y-104519561D01*
X47417118Y-104544051D01*
X47424377Y-104575296D01*
X47429966Y-104615265D01*
X47434069Y-104665926D01*
X47436870Y-104729249D01*
X47438553Y-104807201D01*
X47439302Y-104901752D01*
X47439384Y-104954500D01*
X47439611Y-105047595D01*
X47440358Y-105123585D01*
X47441724Y-105184898D01*
X47443811Y-105233966D01*
X47446719Y-105273215D01*
X47450546Y-105305075D01*
X47454819Y-105329238D01*
X47479564Y-105416651D01*
X47515170Y-105489086D01*
X47562679Y-105547404D01*
X47623134Y-105592468D01*
X47697578Y-105625137D01*
X47787051Y-105646275D01*
X47847358Y-105653689D01*
X47886701Y-105656347D01*
X47940071Y-105658772D01*
X48001954Y-105660776D01*
X48066839Y-105662167D01*
X48106134Y-105662637D01*
X48279538Y-105664000D01*
X48279538Y-105361153D01*
X48125673Y-105360920D01*
X48045981Y-105359907D01*
X47983158Y-105356594D01*
X47934592Y-105350168D01*
X47897670Y-105339816D01*
X47869780Y-105324723D01*
X47848308Y-105304077D01*
X47830642Y-105277063D01*
X47825640Y-105267488D01*
X47820295Y-105255446D01*
X47815942Y-105241340D01*
X47812420Y-105222948D01*
X47809570Y-105198048D01*
X47807233Y-105164417D01*
X47805248Y-105119832D01*
X47803456Y-105062071D01*
X47801947Y-104999293D01*
X48731995Y-104999293D01*
X48756615Y-105124742D01*
X48781235Y-105250190D01*
X48833083Y-105242060D01*
X48868658Y-105234883D01*
X48913404Y-105223662D01*
X48958027Y-105210740D01*
X48960792Y-105209868D01*
X49049772Y-105174878D01*
X49130683Y-105127930D01*
X49208295Y-105066039D01*
X49242046Y-105033884D01*
X49314884Y-104950047D01*
X49369496Y-104861236D01*
X49406537Y-104765760D01*
X49426661Y-104661926D01*
X49430522Y-104548042D01*
X49430467Y-104546485D01*
X49425044Y-104473330D01*
X49413682Y-104414997D01*
X49394993Y-104367311D01*
X49367594Y-104326094D01*
X49351211Y-104307663D01*
X49299010Y-104266622D01*
X49237594Y-104240192D01*
X49170847Y-104228486D01*
X49102654Y-104231619D01*
X49036899Y-104249703D01*
X48977465Y-104282854D01*
X48960909Y-104296228D01*
X48917030Y-104342629D01*
X48888828Y-104392727D01*
X48874312Y-104451187D01*
X48871211Y-104506346D01*
X48872585Y-104551070D01*
X48877375Y-104584095D01*
X48887166Y-104613173D01*
X48897440Y-104634551D01*
X48930762Y-104684462D01*
X48973634Y-104727485D01*
X49021764Y-104760492D01*
X49070856Y-104780357D01*
X49103729Y-104784769D01*
X49117567Y-104790815D01*
X49116096Y-104808898D01*
X49099336Y-104838940D01*
X49087942Y-104854836D01*
X49048016Y-104894157D01*
X48992435Y-104928642D01*
X48924853Y-104956431D01*
X48851038Y-104975281D01*
X48811573Y-104982722D01*
X48777531Y-104989345D01*
X48755139Y-104993935D01*
X48752440Y-104994541D01*
X48731995Y-104999293D01*
X47801947Y-104999293D01*
X47801697Y-104988913D01*
X47800085Y-104911769D01*
X47798089Y-104820185D01*
X47796070Y-104745889D01*
X47793886Y-104686627D01*
X47791394Y-104640148D01*
X47788452Y-104604201D01*
X47784919Y-104576534D01*
X47780653Y-104554895D01*
X47776655Y-104540538D01*
X47752868Y-104476225D01*
X47725915Y-104426002D01*
X47692782Y-104384419D01*
X47687029Y-104378526D01*
X47658493Y-104355078D01*
X47621146Y-104331143D01*
X47580789Y-104309750D01*
X47543225Y-104293927D01*
X47514255Y-104286702D01*
X47510788Y-104286546D01*
X47489619Y-104283932D01*
X47486207Y-104277002D01*
X47499607Y-104267092D01*
X47528870Y-104255536D01*
X47533884Y-104253954D01*
X47611539Y-104221119D01*
X47675593Y-104174430D01*
X47726470Y-104113460D01*
X47764594Y-104037783D01*
X47773199Y-104013414D01*
X47779012Y-103994045D01*
X47783737Y-103973874D01*
X47787545Y-103950484D01*
X47790607Y-103921459D01*
X47793096Y-103884384D01*
X47795183Y-103836843D01*
X47797038Y-103776419D01*
X47798833Y-103700696D01*
X47800251Y-103632000D01*
X47801781Y-103559976D01*
X48873781Y-103559976D01*
X48888075Y-103631862D01*
X48918048Y-103694774D01*
X48962656Y-103746909D01*
X49020859Y-103786466D01*
X49062770Y-103803707D01*
X49112115Y-103812962D01*
X49170074Y-103813580D01*
X49227996Y-103806067D01*
X49276653Y-103791185D01*
X49338428Y-103754519D01*
X49387262Y-103705888D01*
X49413394Y-103663635D01*
X49427068Y-103621555D01*
X49434951Y-103568856D01*
X49436828Y-103512675D01*
X49432483Y-103460149D01*
X49421703Y-103418415D01*
X49420828Y-103416366D01*
X49384931Y-103357978D01*
X49335474Y-103311022D01*
X49275658Y-103276885D01*
X49208680Y-103256951D01*
X49137739Y-103252606D01*
X49069517Y-103264199D01*
X49001522Y-103292999D01*
X48946532Y-103335310D01*
X48905946Y-103389565D01*
X48881160Y-103454197D01*
X48876207Y-103480920D01*
X48873781Y-103559976D01*
X47801781Y-103559976D01*
X47802241Y-103538351D01*
X47804319Y-103462114D01*
X47806799Y-103401162D01*
X47809998Y-103353369D01*
X47814231Y-103316609D01*
X47819814Y-103288756D01*
X47827061Y-103267684D01*
X47836290Y-103251266D01*
X47847814Y-103237378D01*
X47860644Y-103225071D01*
X47881164Y-103210199D01*
X47907286Y-103199057D01*
X47941806Y-103191189D01*
X47987519Y-103186138D01*
X48047221Y-103183450D01*
X48120788Y-103182669D01*
X48279538Y-103182615D01*
X48279538Y-103180752D01*
X50028230Y-103180752D01*
X50206519Y-103184333D01*
X50273208Y-103185976D01*
X50323381Y-103188051D01*
X50360059Y-103190856D01*
X50386263Y-103194688D01*
X50405014Y-103199844D01*
X50416465Y-103205007D01*
X50439498Y-103219887D01*
X50458352Y-103238557D01*
X50473425Y-103262964D01*
X50485114Y-103295055D01*
X50493817Y-103336776D01*
X50499931Y-103390076D01*
X50503852Y-103456900D01*
X50505980Y-103539195D01*
X50506709Y-103638910D01*
X50506719Y-103647302D01*
X50507163Y-103740453D01*
X50508537Y-103816770D01*
X50511155Y-103878946D01*
X50515329Y-103929674D01*
X50521369Y-103971649D01*
X50529590Y-104007564D01*
X50540302Y-104040114D01*
X50553818Y-104071991D01*
X50556615Y-104077954D01*
X50596515Y-104140098D01*
X50650795Y-104192052D01*
X50715698Y-104230890D01*
X50780461Y-104252291D01*
X50810140Y-104259671D01*
X50821199Y-104266353D01*
X50813504Y-104273875D01*
X50786917Y-104283776D01*
X50777423Y-104286766D01*
X50696599Y-104319983D01*
X50630822Y-104365237D01*
X50579243Y-104423204D01*
X50555102Y-104463692D01*
X50541495Y-104493648D01*
X50530616Y-104526128D01*
X50522184Y-104563630D01*
X50515917Y-104608656D01*
X50511534Y-104663707D01*
X50508753Y-104731283D01*
X50507294Y-104813884D01*
X50506889Y-104892230D01*
X50506201Y-104993894D01*
X50504195Y-105077973D01*
X50500482Y-105146399D01*
X50494669Y-105201102D01*
X50486365Y-105244015D01*
X50475180Y-105277068D01*
X50460720Y-105302194D01*
X50442596Y-105321324D01*
X50420416Y-105336389D01*
X50416465Y-105338551D01*
X50401144Y-105344921D01*
X50380303Y-105349770D01*
X50350955Y-105353394D01*
X50310110Y-105356089D01*
X50254781Y-105358152D01*
X50206519Y-105359363D01*
X50028230Y-105363296D01*
X50028230Y-105664000D01*
X50186980Y-105663748D01*
X50250506Y-105663022D01*
X50316373Y-105661201D01*
X50378055Y-105658533D01*
X50429028Y-105655266D01*
X50443227Y-105654017D01*
X50533469Y-105641543D01*
X50608080Y-105622576D01*
X50670246Y-105595889D01*
X50723151Y-105560255D01*
X50750004Y-105535850D01*
X50774792Y-105509802D01*
X50795605Y-105484153D01*
X50812822Y-105456933D01*
X50826827Y-105426174D01*
X50838000Y-105389908D01*
X50846723Y-105346166D01*
X50853376Y-105292979D01*
X50858342Y-105228379D01*
X50862002Y-105150397D01*
X50864738Y-105057064D01*
X50866930Y-104946412D01*
X50867189Y-104931008D01*
X50873269Y-104564363D01*
X50897956Y-104515816D01*
X50919671Y-104480615D01*
X50945775Y-104455186D01*
X50979556Y-104438154D01*
X51024305Y-104428148D01*
X51083309Y-104423794D01*
X51119570Y-104423307D01*
X51229846Y-104423307D01*
X51229846Y-104120461D01*
X51119570Y-104120461D01*
X51051961Y-104118440D01*
X51000301Y-104111467D01*
X50961333Y-104098180D01*
X50931801Y-104077218D01*
X50908446Y-104047217D01*
X50897692Y-104027653D01*
X50891447Y-104014853D01*
X50886335Y-104002520D01*
X50882207Y-103988585D01*
X50878911Y-103970976D01*
X50876296Y-103947623D01*
X50874210Y-103916454D01*
X50872504Y-103875398D01*
X50871025Y-103822385D01*
X50869624Y-103755344D01*
X50868148Y-103672203D01*
X50867062Y-103607577D01*
X50865189Y-103503891D01*
X50863193Y-103417581D01*
X50860831Y-103346482D01*
X50857863Y-103288432D01*
X50854048Y-103241268D01*
X50849144Y-103202827D01*
X50842911Y-103170945D01*
X50835107Y-103143460D01*
X50825492Y-103118207D01*
X50813823Y-103093026D01*
X50808531Y-103082497D01*
X50775481Y-103033856D01*
X50729435Y-102987858D01*
X50676643Y-102950502D01*
X50663751Y-102943533D01*
X50628896Y-102927276D01*
X50593662Y-102914338D01*
X50555110Y-102904273D01*
X50510299Y-102896639D01*
X50456288Y-102890990D01*
X50390138Y-102886883D01*
X50308907Y-102883875D01*
X50260250Y-102882609D01*
X50028230Y-102877172D01*
X50028230Y-103180752D01*
X48279538Y-103180752D01*
X48279538Y-102877054D01*
X48042634Y-102882658D01*
X47951495Y-102885309D01*
X47877045Y-102888790D01*
X47816439Y-102893518D01*
X47766833Y-102899914D01*
X47725382Y-102908395D01*
X47689241Y-102919380D01*
X47655565Y-102933288D01*
X47637024Y-102942355D01*
X47578073Y-102983068D01*
X47527497Y-103039290D01*
X47487193Y-103108095D01*
X47459054Y-103186561D01*
X47449658Y-103231461D01*
X47447116Y-103257176D01*
X47444794Y-103299412D01*
X47442774Y-103355154D01*
X47441141Y-103421386D01*
X47439979Y-103495091D01*
X47439372Y-103573252D01*
X47439305Y-103602692D01*
X47438919Y-103706453D01*
X47437678Y-103792686D01*
X47435211Y-103863394D01*
X47431144Y-103920581D01*
X47425105Y-103966250D01*
X47416723Y-104002407D01*
X47405624Y-104031053D01*
X47391436Y-104054194D01*
X47373788Y-104073834D01*
X47352306Y-104091975D01*
X47347738Y-104095434D01*
X47333621Y-104104154D01*
X47316064Y-104110218D01*
X47291104Y-104114249D01*
X47254775Y-104116873D01*
X47203116Y-104118714D01*
X47199361Y-104118816D01*
X47077923Y-104122055D01*
X46648078Y-104122055D01*
X46648079Y-104079322D01*
X46648097Y-103910175D01*
X46648145Y-103758551D01*
X46648239Y-103623442D01*
X46648393Y-103503841D01*
X46648622Y-103398740D01*
X46648942Y-103307131D01*
X46649367Y-103228007D01*
X46649912Y-103160359D01*
X46650593Y-103103180D01*
X46651424Y-103055462D01*
X46652420Y-103016198D01*
X46653597Y-102984380D01*
X46654969Y-102959000D01*
X46656551Y-102939051D01*
X46658358Y-102923524D01*
X46660406Y-102911412D01*
X46662709Y-102901708D01*
X46665283Y-102893403D01*
X46668142Y-102885489D01*
X46668659Y-102884105D01*
X46705258Y-102813236D01*
X46757057Y-102751944D01*
X46821016Y-102702793D01*
X46894101Y-102668344D01*
X46938670Y-102656270D01*
X46954753Y-102655002D01*
X46989285Y-102653807D01*
X47041176Y-102652684D01*
X47109336Y-102651634D01*
X47192675Y-102650657D01*
X47290105Y-102649753D01*
X47400535Y-102648921D01*
X47522875Y-102648162D01*
X47656037Y-102647476D01*
X47798930Y-102646863D01*
X47950464Y-102646322D01*
X48109550Y-102645854D01*
X48275099Y-102645459D01*
X48446020Y-102645137D01*
X48621224Y-102644887D01*
X48799621Y-102644711D01*
X48980122Y-102644607D01*
X49161636Y-102644575D01*
X49343075Y-102644617D01*
G37*
X49343075Y-102644617D02*
X49523348Y-102644731D01*
X49701367Y-102644918D01*
X49876040Y-102645178D01*
X50046279Y-102645510D01*
X50210993Y-102645915D01*
X50369094Y-102646393D01*
X50519492Y-102646944D01*
X50661096Y-102647567D01*
X50792817Y-102648264D01*
X50913566Y-102649032D01*
X51022252Y-102649874D01*
X51117787Y-102650789D01*
X51199080Y-102651776D01*
X51265042Y-102652836D01*
X51314583Y-102653969D01*
X51346613Y-102655174D01*
X51359329Y-102656270D01*
X51436386Y-102681241D01*
X51505983Y-102722413D01*
X51565110Y-102777246D01*
X51610760Y-102843199D01*
X51629476Y-102884467D01*
X51650194Y-102939842D01*
X51645038Y-105620038D01*
X51619390Y-105673769D01*
X51574464Y-105746266D01*
X51516091Y-105805004D01*
X51445762Y-105848812D01*
X51364972Y-105876521D01*
X51358807Y-105877861D01*
X51342679Y-105879189D01*
X51308145Y-105880429D01*
X51256290Y-105881581D01*
X51188198Y-105882646D01*
X51104954Y-105883623D01*
X51007642Y-105884515D01*
X50897347Y-105885322D01*
X50775152Y-105886044D01*
X50642143Y-105886682D01*
X50499403Y-105887238D01*
X50348018Y-105887711D01*
X50189071Y-105888102D01*
X50023647Y-105888413D01*
X49852831Y-105888643D01*
X49677706Y-105888794D01*
X49499357Y-105888866D01*
X49318869Y-105888861D01*
X49137325Y-105888778D01*
X48955811Y-105888618D01*
X48775411Y-105888383D01*
X48597209Y-105888072D01*
X48422289Y-105887688D01*
X48251737Y-105887229D01*
X48086635Y-105886698D01*
X47928070Y-105886094D01*
X47777124Y-105885419D01*
X47634883Y-105884673D01*
X47502431Y-105883857D01*
X47380853Y-105882972D01*
X47271232Y-105882018D01*
X47174653Y-105880997D01*
X47092201Y-105879908D01*
X47024960Y-105878753D01*
X46974014Y-105877532D01*
X46940448Y-105876246D01*
X46925399Y-105874908D01*
X46848887Y-105846815D01*
X46780638Y-105802922D01*
X46723594Y-105745807D01*
X46680696Y-105678046D01*
X46668659Y-105649894D01*
X46665750Y-105641947D01*
X46663129Y-105633781D01*
X46660781Y-105624386D01*
X46658691Y-105612757D01*
X46656843Y-105597884D01*
X46655223Y-105578761D01*
X46653817Y-105554380D01*
X46652608Y-105523732D01*
X46651582Y-105485810D01*
X46650724Y-105439607D01*
X46650019Y-105384115D01*
X46649451Y-105318326D01*
X46649007Y-105241232D01*
X46648670Y-105151826D01*
X46648427Y-105049099D01*
X46648261Y-104932045D01*
X46648158Y-104799655D01*
X46648103Y-104650922D01*
X46648081Y-104484838D01*
X46648077Y-104300395D01*
X46648077Y-104267000D01*
X46648078Y-104122055D01*
X47077923Y-104122055D01*
X47077923Y-104421714D01*
X47199361Y-104424953D01*
X47258284Y-104427386D01*
X47301660Y-104432062D01*
X47333465Y-104440489D01*
X47357676Y-104454176D01*
X47378269Y-104474630D01*
X47396852Y-104499858D01*
X47408004Y-104519561D01*
X47417118Y-104544051D01*
X47424377Y-104575296D01*
X47429966Y-104615265D01*
X47434069Y-104665926D01*
X47436870Y-104729249D01*
X47438553Y-104807201D01*
X47439302Y-104901752D01*
X47439384Y-104954500D01*
X47439611Y-105047595D01*
X47440358Y-105123585D01*
X47441724Y-105184898D01*
X47443811Y-105233966D01*
X47446719Y-105273215D01*
X47450546Y-105305075D01*
X47454819Y-105329238D01*
X47479564Y-105416651D01*
X47515170Y-105489086D01*
X47562679Y-105547404D01*
X47623134Y-105592468D01*
X47697578Y-105625137D01*
X47787051Y-105646275D01*
X47847358Y-105653689D01*
X47886701Y-105656347D01*
X47940071Y-105658772D01*
X48001954Y-105660776D01*
X48066839Y-105662167D01*
X48106134Y-105662637D01*
X48279538Y-105664000D01*
X48279538Y-105361153D01*
X48125673Y-105360920D01*
X48045981Y-105359907D01*
X47983158Y-105356594D01*
X47934592Y-105350168D01*
X47897670Y-105339816D01*
X47869780Y-105324723D01*
X47848308Y-105304077D01*
X47830642Y-105277063D01*
X47825640Y-105267488D01*
X47820295Y-105255446D01*
X47815942Y-105241340D01*
X47812420Y-105222948D01*
X47809570Y-105198048D01*
X47807233Y-105164417D01*
X47805248Y-105119832D01*
X47803456Y-105062071D01*
X47801947Y-104999293D01*
X48731995Y-104999293D01*
X48756615Y-105124742D01*
X48781235Y-105250190D01*
X48833083Y-105242060D01*
X48868658Y-105234883D01*
X48913404Y-105223662D01*
X48958027Y-105210740D01*
X48960792Y-105209868D01*
X49049772Y-105174878D01*
X49130683Y-105127930D01*
X49208295Y-105066039D01*
X49242046Y-105033884D01*
X49314884Y-104950047D01*
X49369496Y-104861236D01*
X49406537Y-104765760D01*
X49426661Y-104661926D01*
X49430522Y-104548042D01*
X49430467Y-104546485D01*
X49425044Y-104473330D01*
X49413682Y-104414997D01*
X49394993Y-104367311D01*
X49367594Y-104326094D01*
X49351211Y-104307663D01*
X49299010Y-104266622D01*
X49237594Y-104240192D01*
X49170847Y-104228486D01*
X49102654Y-104231619D01*
X49036899Y-104249703D01*
X48977465Y-104282854D01*
X48960909Y-104296228D01*
X48917030Y-104342629D01*
X48888828Y-104392727D01*
X48874312Y-104451187D01*
X48871211Y-104506346D01*
X48872585Y-104551070D01*
X48877375Y-104584095D01*
X48887166Y-104613173D01*
X48897440Y-104634551D01*
X48930762Y-104684462D01*
X48973634Y-104727485D01*
X49021764Y-104760492D01*
X49070856Y-104780357D01*
X49103729Y-104784769D01*
X49117567Y-104790815D01*
X49116096Y-104808898D01*
X49099336Y-104838940D01*
X49087942Y-104854836D01*
X49048016Y-104894157D01*
X48992435Y-104928642D01*
X48924853Y-104956431D01*
X48851038Y-104975281D01*
X48811573Y-104982722D01*
X48777531Y-104989345D01*
X48755139Y-104993935D01*
X48752440Y-104994541D01*
X48731995Y-104999293D01*
X47801947Y-104999293D01*
X47801697Y-104988913D01*
X47800085Y-104911769D01*
X47798089Y-104820185D01*
X47796070Y-104745889D01*
X47793886Y-104686627D01*
X47791394Y-104640148D01*
X47788452Y-104604201D01*
X47784919Y-104576534D01*
X47780653Y-104554895D01*
X47776655Y-104540538D01*
X47752868Y-104476225D01*
X47725915Y-104426002D01*
X47692782Y-104384419D01*
X47687029Y-104378526D01*
X47658493Y-104355078D01*
X47621146Y-104331143D01*
X47580789Y-104309750D01*
X47543225Y-104293927D01*
X47514255Y-104286702D01*
X47510788Y-104286546D01*
X47489619Y-104283932D01*
X47486207Y-104277002D01*
X47499607Y-104267092D01*
X47528870Y-104255536D01*
X47533884Y-104253954D01*
X47611539Y-104221119D01*
X47675593Y-104174430D01*
X47726470Y-104113460D01*
X47764594Y-104037783D01*
X47773199Y-104013414D01*
X47779012Y-103994045D01*
X47783737Y-103973874D01*
X47787545Y-103950484D01*
X47790607Y-103921459D01*
X47793096Y-103884384D01*
X47795183Y-103836843D01*
X47797038Y-103776419D01*
X47798833Y-103700696D01*
X47800251Y-103632000D01*
X47801781Y-103559976D01*
X48873781Y-103559976D01*
X48888075Y-103631862D01*
X48918048Y-103694774D01*
X48962656Y-103746909D01*
X49020859Y-103786466D01*
X49062770Y-103803707D01*
X49112115Y-103812962D01*
X49170074Y-103813580D01*
X49227996Y-103806067D01*
X49276653Y-103791185D01*
X49338428Y-103754519D01*
X49387262Y-103705888D01*
X49413394Y-103663635D01*
X49427068Y-103621555D01*
X49434951Y-103568856D01*
X49436828Y-103512675D01*
X49432483Y-103460149D01*
X49421703Y-103418415D01*
X49420828Y-103416366D01*
X49384931Y-103357978D01*
X49335474Y-103311022D01*
X49275658Y-103276885D01*
X49208680Y-103256951D01*
X49137739Y-103252606D01*
X49069517Y-103264199D01*
X49001522Y-103292999D01*
X48946532Y-103335310D01*
X48905946Y-103389565D01*
X48881160Y-103454197D01*
X48876207Y-103480920D01*
X48873781Y-103559976D01*
X47801781Y-103559976D01*
X47802241Y-103538351D01*
X47804319Y-103462114D01*
X47806799Y-103401162D01*
X47809998Y-103353369D01*
X47814231Y-103316609D01*
X47819814Y-103288756D01*
X47827061Y-103267684D01*
X47836290Y-103251266D01*
X47847814Y-103237378D01*
X47860644Y-103225071D01*
X47881164Y-103210199D01*
X47907286Y-103199057D01*
X47941806Y-103191189D01*
X47987519Y-103186138D01*
X48047221Y-103183450D01*
X48120788Y-103182669D01*
X48279538Y-103182615D01*
X48279538Y-103180752D01*
X50028230Y-103180752D01*
X50206519Y-103184333D01*
X50273208Y-103185976D01*
X50323381Y-103188051D01*
X50360059Y-103190856D01*
X50386263Y-103194688D01*
X50405014Y-103199844D01*
X50416465Y-103205007D01*
X50439498Y-103219887D01*
X50458352Y-103238557D01*
X50473425Y-103262964D01*
X50485114Y-103295055D01*
X50493817Y-103336776D01*
X50499931Y-103390076D01*
X50503852Y-103456900D01*
X50505980Y-103539195D01*
X50506709Y-103638910D01*
X50506719Y-103647302D01*
X50507163Y-103740453D01*
X50508537Y-103816770D01*
X50511155Y-103878946D01*
X50515329Y-103929674D01*
X50521369Y-103971649D01*
X50529590Y-104007564D01*
X50540302Y-104040114D01*
X50553818Y-104071991D01*
X50556615Y-104077954D01*
X50596515Y-104140098D01*
X50650795Y-104192052D01*
X50715698Y-104230890D01*
X50780461Y-104252291D01*
X50810140Y-104259671D01*
X50821199Y-104266353D01*
X50813504Y-104273875D01*
X50786917Y-104283776D01*
X50777423Y-104286766D01*
X50696599Y-104319983D01*
X50630822Y-104365237D01*
X50579243Y-104423204D01*
X50555102Y-104463692D01*
X50541495Y-104493648D01*
X50530616Y-104526128D01*
X50522184Y-104563630D01*
X50515917Y-104608656D01*
X50511534Y-104663707D01*
X50508753Y-104731283D01*
X50507294Y-104813884D01*
X50506889Y-104892230D01*
X50506201Y-104993894D01*
X50504195Y-105077973D01*
X50500482Y-105146399D01*
X50494669Y-105201102D01*
X50486365Y-105244015D01*
X50475180Y-105277068D01*
X50460720Y-105302194D01*
X50442596Y-105321324D01*
X50420416Y-105336389D01*
X50416465Y-105338551D01*
X50401144Y-105344921D01*
X50380303Y-105349770D01*
X50350955Y-105353394D01*
X50310110Y-105356089D01*
X50254781Y-105358152D01*
X50206519Y-105359363D01*
X50028230Y-105363296D01*
X50028230Y-105664000D01*
X50186980Y-105663748D01*
X50250506Y-105663022D01*
X50316373Y-105661201D01*
X50378055Y-105658533D01*
X50429028Y-105655266D01*
X50443227Y-105654017D01*
X50533469Y-105641543D01*
X50608080Y-105622576D01*
X50670246Y-105595889D01*
X50723151Y-105560255D01*
X50750004Y-105535850D01*
X50774792Y-105509802D01*
X50795605Y-105484153D01*
X50812822Y-105456933D01*
X50826827Y-105426174D01*
X50838000Y-105389908D01*
X50846723Y-105346166D01*
X50853376Y-105292979D01*
X50858342Y-105228379D01*
X50862002Y-105150397D01*
X50864738Y-105057064D01*
X50866930Y-104946412D01*
X50867189Y-104931008D01*
X50873269Y-104564363D01*
X50897956Y-104515816D01*
X50919671Y-104480615D01*
X50945775Y-104455186D01*
X50979556Y-104438154D01*
X51024305Y-104428148D01*
X51083309Y-104423794D01*
X51119570Y-104423307D01*
X51229846Y-104423307D01*
X51229846Y-104120461D01*
X51119570Y-104120461D01*
X51051961Y-104118440D01*
X51000301Y-104111467D01*
X50961333Y-104098180D01*
X50931801Y-104077218D01*
X50908446Y-104047217D01*
X50897692Y-104027653D01*
X50891447Y-104014853D01*
X50886335Y-104002520D01*
X50882207Y-103988585D01*
X50878911Y-103970976D01*
X50876296Y-103947623D01*
X50874210Y-103916454D01*
X50872504Y-103875398D01*
X50871025Y-103822385D01*
X50869624Y-103755344D01*
X50868148Y-103672203D01*
X50867062Y-103607577D01*
X50865189Y-103503891D01*
X50863193Y-103417581D01*
X50860831Y-103346482D01*
X50857863Y-103288432D01*
X50854048Y-103241268D01*
X50849144Y-103202827D01*
X50842911Y-103170945D01*
X50835107Y-103143460D01*
X50825492Y-103118207D01*
X50813823Y-103093026D01*
X50808531Y-103082497D01*
X50775481Y-103033856D01*
X50729435Y-102987858D01*
X50676643Y-102950502D01*
X50663751Y-102943533D01*
X50628896Y-102927276D01*
X50593662Y-102914338D01*
X50555110Y-102904273D01*
X50510299Y-102896639D01*
X50456288Y-102890990D01*
X50390138Y-102886883D01*
X50308907Y-102883875D01*
X50260250Y-102882609D01*
X50028230Y-102877172D01*
X50028230Y-103180752D01*
X48279538Y-103180752D01*
X48279538Y-102877054D01*
X48042634Y-102882658D01*
X47951495Y-102885309D01*
X47877045Y-102888790D01*
X47816439Y-102893518D01*
X47766833Y-102899914D01*
X47725382Y-102908395D01*
X47689241Y-102919380D01*
X47655565Y-102933288D01*
X47637024Y-102942355D01*
X47578073Y-102983068D01*
X47527497Y-103039290D01*
X47487193Y-103108095D01*
X47459054Y-103186561D01*
X47449658Y-103231461D01*
X47447116Y-103257176D01*
X47444794Y-103299412D01*
X47442774Y-103355154D01*
X47441141Y-103421386D01*
X47439979Y-103495091D01*
X47439372Y-103573252D01*
X47439305Y-103602692D01*
X47438919Y-103706453D01*
X47437678Y-103792686D01*
X47435211Y-103863394D01*
X47431144Y-103920581D01*
X47425105Y-103966250D01*
X47416723Y-104002407D01*
X47405624Y-104031053D01*
X47391436Y-104054194D01*
X47373788Y-104073834D01*
X47352306Y-104091975D01*
X47347738Y-104095434D01*
X47333621Y-104104154D01*
X47316064Y-104110218D01*
X47291104Y-104114249D01*
X47254775Y-104116873D01*
X47203116Y-104118714D01*
X47199361Y-104118816D01*
X47077923Y-104122055D01*
X46648078Y-104122055D01*
X46648079Y-104079322D01*
X46648097Y-103910175D01*
X46648145Y-103758551D01*
X46648239Y-103623442D01*
X46648393Y-103503841D01*
X46648622Y-103398740D01*
X46648942Y-103307131D01*
X46649367Y-103228007D01*
X46649912Y-103160359D01*
X46650593Y-103103180D01*
X46651424Y-103055462D01*
X46652420Y-103016198D01*
X46653597Y-102984380D01*
X46654969Y-102959000D01*
X46656551Y-102939051D01*
X46658358Y-102923524D01*
X46660406Y-102911412D01*
X46662709Y-102901708D01*
X46665283Y-102893403D01*
X46668142Y-102885489D01*
X46668659Y-102884105D01*
X46705258Y-102813236D01*
X46757057Y-102751944D01*
X46821016Y-102702793D01*
X46894101Y-102668344D01*
X46938670Y-102656270D01*
X46954753Y-102655002D01*
X46989285Y-102653807D01*
X47041176Y-102652684D01*
X47109336Y-102651634D01*
X47192675Y-102650657D01*
X47290105Y-102649753D01*
X47400535Y-102648921D01*
X47522875Y-102648162D01*
X47656037Y-102647476D01*
X47798930Y-102646863D01*
X47950464Y-102646322D01*
X48109550Y-102645854D01*
X48275099Y-102645459D01*
X48446020Y-102645137D01*
X48621224Y-102644887D01*
X48799621Y-102644711D01*
X48980122Y-102644607D01*
X49161636Y-102644575D01*
X49343075Y-102644617D01*
G36*
X50934327Y-106047322D02*
G01*
X51293346Y-106049884D01*
X51296046Y-106193462D01*
X51298747Y-106337039D01*
X51205681Y-106411893D01*
X51112615Y-106486748D01*
X51112615Y-106612127D01*
X51112538Y-106666573D01*
X51110573Y-106706598D01*
X51104121Y-106734418D01*
X51090583Y-106752246D01*
X51067357Y-106762299D01*
X51031844Y-106766789D01*
X50981445Y-106767931D01*
X50929710Y-106767923D01*
X50874111Y-106767693D01*
X50834625Y-106766723D01*
X50807829Y-106764593D01*
X50790303Y-106760882D01*
X50778622Y-106755170D01*
X50770692Y-106748384D01*
X50762519Y-106738327D01*
X50756959Y-106725004D01*
X50753504Y-106704736D01*
X50751644Y-106673847D01*
X50750871Y-106628659D01*
X50750747Y-106604288D01*
X50750341Y-106479730D01*
X50662846Y-106411346D01*
X50575351Y-106342961D01*
X50575307Y-106044759D01*
X50934327Y-106047322D01*
G37*
X50934327Y-106047322D02*
X51293346Y-106049884D01*
X51296046Y-106193462D01*
X51298747Y-106337039D01*
X51205681Y-106411893D01*
X51112615Y-106486748D01*
X51112615Y-106612127D01*
X51112538Y-106666573D01*
X51110573Y-106706598D01*
X51104121Y-106734418D01*
X51090583Y-106752246D01*
X51067357Y-106762299D01*
X51031844Y-106766789D01*
X50981445Y-106767931D01*
X50929710Y-106767923D01*
X50874111Y-106767693D01*
X50834625Y-106766723D01*
X50807829Y-106764593D01*
X50790303Y-106760882D01*
X50778622Y-106755170D01*
X50770692Y-106748384D01*
X50762519Y-106738327D01*
X50756959Y-106725004D01*
X50753504Y-106704736D01*
X50751644Y-106673847D01*
X50750871Y-106628659D01*
X50750747Y-106604288D01*
X50750341Y-106479730D01*
X50662846Y-106411346D01*
X50575351Y-106342961D01*
X50575307Y-106044759D01*
X50934327Y-106047322D01*
G36*
X50398649Y-106342961D02*
G01*
X50311154Y-106411346D01*
X50223659Y-106479730D01*
X50223637Y-106604288D01*
X50223523Y-106661307D01*
X50221474Y-106703271D01*
X50214898Y-106732484D01*
X50201203Y-106751251D01*
X50177795Y-106761876D01*
X50142082Y-106766663D01*
X50091470Y-106767916D01*
X50039514Y-106767923D01*
X49983012Y-106767740D01*
X49942724Y-106766916D01*
X49915325Y-106765031D01*
X49897491Y-106761670D01*
X49885899Y-106756414D01*
X49877223Y-106748848D01*
X49875879Y-106747390D01*
X49867918Y-106736013D01*
X49862320Y-106720026D01*
X49858536Y-106695785D01*
X49856022Y-106659645D01*
X49854228Y-106607961D01*
X49854074Y-106602057D01*
X49850879Y-106477256D01*
X49763450Y-106407251D01*
X49676020Y-106337246D01*
X49678722Y-106193565D01*
X49681423Y-106049884D01*
X50040442Y-106047322D01*
X50399461Y-106044759D01*
X50398649Y-106342961D01*
G37*
X50398649Y-106342961D02*
X50311154Y-106411346D01*
X50223659Y-106479730D01*
X50223637Y-106604288D01*
X50223523Y-106661307D01*
X50221474Y-106703271D01*
X50214898Y-106732484D01*
X50201203Y-106751251D01*
X50177795Y-106761876D01*
X50142082Y-106766663D01*
X50091470Y-106767916D01*
X50039514Y-106767923D01*
X49983012Y-106767740D01*
X49942724Y-106766916D01*
X49915325Y-106765031D01*
X49897491Y-106761670D01*
X49885899Y-106756414D01*
X49877223Y-106748848D01*
X49875879Y-106747390D01*
X49867918Y-106736013D01*
X49862320Y-106720026D01*
X49858536Y-106695785D01*
X49856022Y-106659645D01*
X49854228Y-106607961D01*
X49854074Y-106602057D01*
X49850879Y-106477256D01*
X49763450Y-106407251D01*
X49676020Y-106337246D01*
X49678722Y-106193565D01*
X49681423Y-106049884D01*
X50040442Y-106047322D01*
X50399461Y-106044759D01*
X50398649Y-106342961D01*
G36*
X49146557Y-106047322D02*
G01*
X49505577Y-106049884D01*
X49508273Y-106192710D01*
X49510969Y-106335535D01*
X49417907Y-106410386D01*
X49324846Y-106485237D01*
X49324846Y-106611372D01*
X49324760Y-106666362D01*
X49322759Y-106706701D01*
X49316227Y-106734656D01*
X49302549Y-106752491D01*
X49279109Y-106762472D01*
X49243291Y-106766866D01*
X49192480Y-106767937D01*
X49144115Y-106767923D01*
X49085600Y-106767456D01*
X49043421Y-106765855D01*
X49014395Y-106762813D01*
X48995338Y-106758027D01*
X48985096Y-106752715D01*
X48976181Y-106745344D01*
X48970108Y-106735609D01*
X48966335Y-106719972D01*
X48964319Y-106694898D01*
X48963517Y-106656852D01*
X48963384Y-106611269D01*
X48963384Y-106485031D01*
X48787538Y-106344231D01*
X48787538Y-106044759D01*
X49146557Y-106047322D01*
G37*
X49146557Y-106047322D02*
X49505577Y-106049884D01*
X49508273Y-106192710D01*
X49510969Y-106335535D01*
X49417907Y-106410386D01*
X49324846Y-106485237D01*
X49324846Y-106611372D01*
X49324760Y-106666362D01*
X49322759Y-106706701D01*
X49316227Y-106734656D01*
X49302549Y-106752491D01*
X49279109Y-106762472D01*
X49243291Y-106766866D01*
X49192480Y-106767937D01*
X49144115Y-106767923D01*
X49085600Y-106767456D01*
X49043421Y-106765855D01*
X49014395Y-106762813D01*
X48995338Y-106758027D01*
X48985096Y-106752715D01*
X48976181Y-106745344D01*
X48970108Y-106735609D01*
X48966335Y-106719972D01*
X48964319Y-106694898D01*
X48963517Y-106656852D01*
X48963384Y-106611269D01*
X48963384Y-106485031D01*
X48787538Y-106344231D01*
X48787538Y-106044759D01*
X49146557Y-106047322D01*
G36*
X48611286Y-106193980D02*
G01*
X48610879Y-106342961D01*
X48523384Y-106411346D01*
X48435890Y-106479730D01*
X48435868Y-106598086D01*
X48435511Y-106649335D01*
X48434086Y-106685071D01*
X48431028Y-106709310D01*
X48425771Y-106726071D01*
X48417751Y-106739371D01*
X48415598Y-106742182D01*
X48395351Y-106767923D01*
X48105110Y-106767923D01*
X48084862Y-106742182D01*
X48076170Y-106729101D01*
X48070364Y-106713429D01*
X48066878Y-106691147D01*
X48065148Y-106658238D01*
X48064608Y-106610683D01*
X48064593Y-106598086D01*
X48064571Y-106479730D01*
X47977076Y-106411346D01*
X47889581Y-106342961D01*
X47889175Y-106193980D01*
X47888769Y-106045000D01*
X48611692Y-106045000D01*
X48611286Y-106193980D01*
G37*
X48611286Y-106193980D02*
X48610879Y-106342961D01*
X48523384Y-106411346D01*
X48435890Y-106479730D01*
X48435868Y-106598086D01*
X48435511Y-106649335D01*
X48434086Y-106685071D01*
X48431028Y-106709310D01*
X48425771Y-106726071D01*
X48417751Y-106739371D01*
X48415598Y-106742182D01*
X48395351Y-106767923D01*
X48105110Y-106767923D01*
X48084862Y-106742182D01*
X48076170Y-106729101D01*
X48070364Y-106713429D01*
X48066878Y-106691147D01*
X48065148Y-106658238D01*
X48064608Y-106610683D01*
X48064593Y-106598086D01*
X48064571Y-106479730D01*
X47977076Y-106411346D01*
X47889581Y-106342961D01*
X47889175Y-106193980D01*
X47888769Y-106045000D01*
X48611692Y-106045000D01*
X48611286Y-106193980D01*
G36*
X47712879Y-106342961D02*
G01*
X47625384Y-106411346D01*
X47537889Y-106479730D01*
X47537483Y-106604288D01*
X47537153Y-106662071D01*
X47534833Y-106704359D01*
X47527883Y-106733569D01*
X47513661Y-106752115D01*
X47489524Y-106762413D01*
X47452832Y-106766879D01*
X47400941Y-106767929D01*
X47358519Y-106767923D01*
X47299590Y-106767471D01*
X47257022Y-106765916D01*
X47227656Y-106762960D01*
X47208329Y-106758306D01*
X47197327Y-106752715D01*
X47188409Y-106745341D01*
X47182335Y-106735600D01*
X47178562Y-106719955D01*
X47176547Y-106694868D01*
X47175747Y-106656802D01*
X47175615Y-106611372D01*
X47175615Y-106485237D01*
X47082553Y-106410386D01*
X46989492Y-106335535D01*
X46992188Y-106192710D01*
X46994884Y-106049884D01*
X47353903Y-106047322D01*
X47712923Y-106044759D01*
X47712879Y-106342961D01*
G37*
X47712879Y-106342961D02*
X47625384Y-106411346D01*
X47537889Y-106479730D01*
X47537483Y-106604288D01*
X47537153Y-106662071D01*
X47534833Y-106704359D01*
X47527883Y-106733569D01*
X47513661Y-106752115D01*
X47489524Y-106762413D01*
X47452832Y-106766879D01*
X47400941Y-106767929D01*
X47358519Y-106767923D01*
X47299590Y-106767471D01*
X47257022Y-106765916D01*
X47227656Y-106762960D01*
X47208329Y-106758306D01*
X47197327Y-106752715D01*
X47188409Y-106745341D01*
X47182335Y-106735600D01*
X47178562Y-106719955D01*
X47176547Y-106694868D01*
X47175747Y-106656802D01*
X47175615Y-106611372D01*
X47175615Y-106485237D01*
X47082553Y-106410386D01*
X46989492Y-106335535D01*
X46992188Y-106192710D01*
X46994884Y-106049884D01*
X47353903Y-106047322D01*
X47712923Y-106044759D01*
X47712879Y-106342961D01*
D11*
%TO.C,R5*%
X40898578Y-66981000D02*
X40381422Y-66981000D01*
X40898578Y-68401000D02*
X40381422Y-68401000D01*
%TO.C,C20*%
X37536000Y-80726000D02*
X33626000Y-80726000D01*
X37536000Y-82596000D02*
X37536000Y-80726000D01*
X33626000Y-82596000D02*
X37536000Y-82596000D01*
%TO.C,C17*%
X38152000Y-82085922D02*
X38152000Y-82603078D01*
X39572000Y-82085922D02*
X39572000Y-82603078D01*
%TO.C,SW1*%
X47758000Y-82762000D02*
X47758000Y-71162000D01*
X47758000Y-71162000D02*
X42158000Y-71162000D01*
X42158000Y-71162000D02*
X42158000Y-82762000D01*
X42158000Y-82762000D02*
X47758000Y-82762000D01*
%TO.C,C49*%
X53288000Y-87449922D02*
X53288000Y-87967078D01*
X51868000Y-87449922D02*
X51868000Y-87967078D01*
%TO.C,C48*%
X49859000Y-95801922D02*
X49859000Y-96319078D01*
X48439000Y-95801922D02*
X48439000Y-96319078D01*
%TO.C,P1*%
X34769000Y-110434000D02*
X44169000Y-110434000D01*
X44169000Y-104634000D02*
X44169000Y-106634000D01*
X44169000Y-108534000D02*
X44169000Y-110434000D01*
X34769000Y-104634000D02*
X34769000Y-106634000D01*
X34769000Y-108534000D02*
X34769000Y-110434000D01*
%TO.C,RN2*%
X42065000Y-28451000D02*
X42065000Y-27451000D01*
X45425000Y-28451000D02*
X45425000Y-27451000D01*
%TO.C,RN3*%
X36731000Y-28451000D02*
X36731000Y-27451000D01*
X40091000Y-28451000D02*
X40091000Y-27451000D01*
%TO.C,RN1*%
X46891000Y-28429000D02*
X46891000Y-27429000D01*
X50251000Y-28429000D02*
X50251000Y-27429000D01*
%TO.C,RN4*%
X31651000Y-28451000D02*
X31651000Y-27451000D01*
X35011000Y-28451000D02*
X35011000Y-27451000D01*
%TO.C,RN5*%
X25682000Y-28451000D02*
X25682000Y-27451000D01*
X29042000Y-28451000D02*
X29042000Y-27451000D01*
%TO.C,C39*%
X29039078Y-44398000D02*
X28521922Y-44398000D01*
X29039078Y-42978000D02*
X28521922Y-42978000D01*
%TO.C,Y2*%
X43551000Y-56262000D02*
X43551000Y-68862000D01*
X43551000Y-68862000D02*
X48651000Y-68862000D01*
X48651000Y-68862000D02*
X48651000Y-56262000D01*
%TO.C,Y1*%
X21600000Y-94879000D02*
X34200000Y-94879000D01*
X34200000Y-94879000D02*
X34200000Y-89779000D01*
X34200000Y-89779000D02*
X21600000Y-89779000D01*
%TO.C,U15*%
X30680000Y-53741000D02*
X32480000Y-53741000D01*
X32480000Y-50521000D02*
X30030000Y-50521000D01*
%TO.C,U11*%
X48376000Y-53934000D02*
X50176000Y-53934000D01*
X50176000Y-50714000D02*
X47726000Y-50714000D01*
%TO.C,U10*%
X24311000Y-52299000D02*
X22511000Y-52299000D01*
X22511000Y-55519000D02*
X24961000Y-55519000D01*
%TO.C,U8*%
X32863000Y-44927000D02*
X32863000Y-45877000D01*
X32863000Y-45877000D02*
X33813000Y-45877000D01*
X32863000Y-36607000D02*
X32863000Y-35657000D01*
X32863000Y-35657000D02*
X33813000Y-35657000D01*
X43083000Y-44927000D02*
X43083000Y-45877000D01*
X43083000Y-45877000D02*
X42133000Y-45877000D01*
X43083000Y-36607000D02*
X43083000Y-35657000D01*
X43083000Y-35657000D02*
X42133000Y-35657000D01*
X42133000Y-35657000D02*
X42133000Y-34367000D01*
%TO.C,U6*%
X41256000Y-74138000D02*
X39996000Y-74138000D01*
X34436000Y-74138000D02*
X35696000Y-74138000D01*
X41256000Y-77898000D02*
X41256000Y-74138000D01*
X34436000Y-80148000D02*
X34436000Y-74138000D01*
%TO.C,U5*%
X40533000Y-93407000D02*
X40533000Y-91457000D01*
X40533000Y-93407000D02*
X40533000Y-95357000D01*
X35413000Y-93407000D02*
X35413000Y-91457000D01*
X35413000Y-93407000D02*
X35413000Y-96857000D01*
%TO.C,U4*%
X41519000Y-99352000D02*
X41519000Y-87582000D01*
X41519000Y-99352000D02*
X47859000Y-99352000D01*
X47859000Y-99352000D02*
X47859000Y-87582000D01*
X41519000Y-87582000D02*
X47859000Y-87582000D01*
X46859000Y-99552000D02*
X48059000Y-99552000D01*
X48059000Y-99552000D02*
X48059000Y-98352000D01*
%TO.C,U2*%
X35067000Y-57858000D02*
X34617000Y-57858000D01*
X34617000Y-57858000D02*
X34617000Y-58308000D01*
X41387000Y-57858000D02*
X41837000Y-57858000D01*
X41837000Y-57858000D02*
X41837000Y-58308000D01*
X35067000Y-65078000D02*
X34617000Y-65078000D01*
X34617000Y-65078000D02*
X34617000Y-64628000D01*
X41387000Y-65078000D02*
X41837000Y-65078000D01*
X41837000Y-65078000D02*
X41837000Y-64628000D01*
X41837000Y-64628000D02*
X43127000Y-64628000D01*
%TO.C,U1*%
X25908000Y-95270000D02*
X23958000Y-95270000D01*
X25908000Y-95270000D02*
X27858000Y-95270000D01*
X25908000Y-105390000D02*
X23958000Y-105390000D01*
X25908000Y-105390000D02*
X29358000Y-105390000D01*
%TO.C,TP4*%
X35498000Y-51181000D02*
G75*
G03*
X35498000Y-51181000I-700000J0D01*
G01*
%TO.C,TP3*%
X57088000Y-48006000D02*
G75*
G03*
X57088000Y-48006000I-700000J0D01*
G01*
%TO.C,TP2*%
X26989000Y-51181000D02*
G75*
G03*
X26989000Y-51181000I-700000J0D01*
G01*
%TO.C,TP1*%
X39816000Y-70358000D02*
G75*
G03*
X39816000Y-70358000I-700000J0D01*
G01*
%TO.C,R9*%
X51614000Y-52631078D02*
X51614000Y-52113922D01*
X53034000Y-52631078D02*
X53034000Y-52113922D01*
%TO.C,R8*%
X46652922Y-34342000D02*
X47170078Y-34342000D01*
X46652922Y-35762000D02*
X47170078Y-35762000D01*
%TO.C,R7*%
X29770000Y-84459578D02*
X29770000Y-83942422D01*
X31190000Y-84459578D02*
X31190000Y-83942422D01*
%TO.C,R4*%
X31444000Y-107993922D02*
X31444000Y-108511078D01*
X30024000Y-107993922D02*
X30024000Y-108511078D01*
%TO.C,R3*%
X33603000Y-107993922D02*
X33603000Y-108511078D01*
X32183000Y-107993922D02*
X32183000Y-108511078D01*
%TO.C,R2*%
X30279078Y-69417000D02*
X29761922Y-69417000D01*
X30279078Y-67997000D02*
X29761922Y-67997000D01*
%TO.C,R1*%
X26753078Y-69417000D02*
X26235922Y-69417000D01*
X26753078Y-67997000D02*
X26235922Y-67997000D01*
%TO.C,L1*%
X51144000Y-88864064D02*
X51144000Y-87659936D01*
X48424000Y-88864064D02*
X48424000Y-87659936D01*
%TO.C,J6*%
X23435000Y-20785000D02*
X56575000Y-20785000D01*
X56575000Y-20785000D02*
X56575000Y-18125000D01*
X56575000Y-18125000D02*
X23435000Y-18125000D01*
X23435000Y-18125000D02*
X23435000Y-20785000D01*
X24385000Y-18125000D02*
X24385000Y-12125000D01*
X24385000Y-12125000D02*
X25145000Y-12125000D01*
X25145000Y-12125000D02*
X25145000Y-18125000D01*
X24445000Y-18125000D02*
X24445000Y-12125000D01*
X24565000Y-18125000D02*
X24565000Y-12125000D01*
X24685000Y-18125000D02*
X24685000Y-12125000D01*
X24805000Y-18125000D02*
X24805000Y-12125000D01*
X24925000Y-18125000D02*
X24925000Y-12125000D01*
X25045000Y-18125000D02*
X25045000Y-12125000D01*
X24385000Y-21182071D02*
X24385000Y-20785000D01*
X25145000Y-21182071D02*
X25145000Y-20785000D01*
X24385000Y-23655000D02*
X24385000Y-23267929D01*
X25145000Y-23655000D02*
X25145000Y-23267929D01*
X26035000Y-20785000D02*
X26035000Y-18125000D01*
X26925000Y-18125000D02*
X26925000Y-12125000D01*
X26925000Y-12125000D02*
X27685000Y-12125000D01*
X27685000Y-12125000D02*
X27685000Y-18125000D01*
X26925000Y-21182071D02*
X26925000Y-20785000D01*
X27685000Y-21182071D02*
X27685000Y-20785000D01*
X26925000Y-23722071D02*
X26925000Y-23267929D01*
X27685000Y-23722071D02*
X27685000Y-23267929D01*
X28575000Y-20785000D02*
X28575000Y-18125000D01*
X29465000Y-18125000D02*
X29465000Y-12125000D01*
X29465000Y-12125000D02*
X30225000Y-12125000D01*
X30225000Y-12125000D02*
X30225000Y-18125000D01*
X29465000Y-21182071D02*
X29465000Y-20785000D01*
X30225000Y-21182071D02*
X30225000Y-20785000D01*
X29465000Y-23722071D02*
X29465000Y-23267929D01*
X30225000Y-23722071D02*
X30225000Y-23267929D01*
X31115000Y-20785000D02*
X31115000Y-18125000D01*
X32005000Y-18125000D02*
X32005000Y-12125000D01*
X32005000Y-12125000D02*
X32765000Y-12125000D01*
X32765000Y-12125000D02*
X32765000Y-18125000D01*
X32005000Y-21182071D02*
X32005000Y-20785000D01*
X32765000Y-21182071D02*
X32765000Y-20785000D01*
X32005000Y-23722071D02*
X32005000Y-23267929D01*
X32765000Y-23722071D02*
X32765000Y-23267929D01*
X33655000Y-20785000D02*
X33655000Y-18125000D01*
X34545000Y-18125000D02*
X34545000Y-12125000D01*
X34545000Y-12125000D02*
X35305000Y-12125000D01*
X35305000Y-12125000D02*
X35305000Y-18125000D01*
X34545000Y-21182071D02*
X34545000Y-20785000D01*
X35305000Y-21182071D02*
X35305000Y-20785000D01*
X34545000Y-23722071D02*
X34545000Y-23267929D01*
X35305000Y-23722071D02*
X35305000Y-23267929D01*
X36195000Y-20785000D02*
X36195000Y-18125000D01*
X37085000Y-18125000D02*
X37085000Y-12125000D01*
X37085000Y-12125000D02*
X37845000Y-12125000D01*
X37845000Y-12125000D02*
X37845000Y-18125000D01*
X37085000Y-21182071D02*
X37085000Y-20785000D01*
X37845000Y-21182071D02*
X37845000Y-20785000D01*
X37085000Y-23722071D02*
X37085000Y-23267929D01*
X37845000Y-23722071D02*
X37845000Y-23267929D01*
X38735000Y-20785000D02*
X38735000Y-18125000D01*
X39625000Y-18125000D02*
X39625000Y-12125000D01*
X39625000Y-12125000D02*
X40385000Y-12125000D01*
X40385000Y-12125000D02*
X40385000Y-18125000D01*
X39625000Y-21182071D02*
X39625000Y-20785000D01*
X40385000Y-21182071D02*
X40385000Y-20785000D01*
X39625000Y-23722071D02*
X39625000Y-23267929D01*
X40385000Y-23722071D02*
X40385000Y-23267929D01*
X41275000Y-20785000D02*
X41275000Y-18125000D01*
X42165000Y-18125000D02*
X42165000Y-12125000D01*
X42165000Y-12125000D02*
X42925000Y-12125000D01*
X42925000Y-12125000D02*
X42925000Y-18125000D01*
X42165000Y-21182071D02*
X42165000Y-20785000D01*
X42925000Y-21182071D02*
X42925000Y-20785000D01*
X42165000Y-23722071D02*
X42165000Y-23267929D01*
X42925000Y-23722071D02*
X42925000Y-23267929D01*
X43815000Y-20785000D02*
X43815000Y-18125000D01*
X44705000Y-18125000D02*
X44705000Y-12125000D01*
X44705000Y-12125000D02*
X45465000Y-12125000D01*
X45465000Y-12125000D02*
X45465000Y-18125000D01*
X44705000Y-21182071D02*
X44705000Y-20785000D01*
X45465000Y-21182071D02*
X45465000Y-20785000D01*
X44705000Y-23722071D02*
X44705000Y-23267929D01*
X45465000Y-23722071D02*
X45465000Y-23267929D01*
X46355000Y-20785000D02*
X46355000Y-18125000D01*
X47245000Y-18125000D02*
X47245000Y-12125000D01*
X47245000Y-12125000D02*
X48005000Y-12125000D01*
X48005000Y-12125000D02*
X48005000Y-18125000D01*
X47245000Y-21182071D02*
X47245000Y-20785000D01*
X48005000Y-21182071D02*
X48005000Y-20785000D01*
X47245000Y-23722071D02*
X47245000Y-23267929D01*
X48005000Y-23722071D02*
X48005000Y-23267929D01*
X48895000Y-20785000D02*
X48895000Y-18125000D01*
X49785000Y-18125000D02*
X49785000Y-12125000D01*
X49785000Y-12125000D02*
X50545000Y-12125000D01*
X50545000Y-12125000D02*
X50545000Y-18125000D01*
X49785000Y-21182071D02*
X49785000Y-20785000D01*
X50545000Y-21182071D02*
X50545000Y-20785000D01*
X49785000Y-23722071D02*
X49785000Y-23267929D01*
X50545000Y-23722071D02*
X50545000Y-23267929D01*
X51435000Y-20785000D02*
X51435000Y-18125000D01*
X52325000Y-18125000D02*
X52325000Y-12125000D01*
X52325000Y-12125000D02*
X53085000Y-12125000D01*
X53085000Y-12125000D02*
X53085000Y-18125000D01*
X52325000Y-21182071D02*
X52325000Y-20785000D01*
X53085000Y-21182071D02*
X53085000Y-20785000D01*
X52325000Y-23722071D02*
X52325000Y-23267929D01*
X53085000Y-23722071D02*
X53085000Y-23267929D01*
X53975000Y-20785000D02*
X53975000Y-18125000D01*
X54865000Y-18125000D02*
X54865000Y-12125000D01*
X54865000Y-12125000D02*
X55625000Y-12125000D01*
X55625000Y-12125000D02*
X55625000Y-18125000D01*
X54865000Y-21182071D02*
X54865000Y-20785000D01*
X55625000Y-21182071D02*
X55625000Y-20785000D01*
X54865000Y-23722071D02*
X54865000Y-23267929D01*
X55625000Y-23722071D02*
X55625000Y-23267929D01*
X24765000Y-26035000D02*
X23495000Y-26035000D01*
X23495000Y-26035000D02*
X23495000Y-24765000D01*
%TO.C,J4*%
X27111000Y-66862000D02*
X24511000Y-66862000D01*
X27111000Y-66862000D02*
X27111000Y-56582000D01*
X27111000Y-56582000D02*
X21911000Y-56582000D01*
X21911000Y-64262000D02*
X21911000Y-56582000D01*
X24511000Y-64262000D02*
X21911000Y-64262000D01*
X24511000Y-66862000D02*
X24511000Y-64262000D01*
X21911000Y-66862000D02*
X21911000Y-65532000D01*
X23241000Y-66862000D02*
X21911000Y-66862000D01*
%TO.C,J3*%
X33461000Y-73046000D02*
X33461000Y-70386000D01*
X25781000Y-73046000D02*
X33461000Y-73046000D01*
X25781000Y-70386000D02*
X33461000Y-70386000D01*
X25781000Y-73046000D02*
X25781000Y-70386000D01*
X24511000Y-73046000D02*
X23181000Y-73046000D01*
X23181000Y-73046000D02*
X23181000Y-71716000D01*
%TO.C,D10*%
X29520000Y-79693500D02*
X29520000Y-82378500D01*
X29520000Y-82378500D02*
X31440000Y-82378500D01*
X31440000Y-82378500D02*
X31440000Y-79693500D01*
%TO.C,D9*%
X48805000Y-78375000D02*
X48805000Y-80375000D01*
X48805000Y-80375000D02*
X52705000Y-80375000D01*
X48805000Y-78375000D02*
X52705000Y-78375000D01*
%TO.C,D2*%
X31694000Y-105696500D02*
X31694000Y-103011500D01*
X31694000Y-103011500D02*
X29774000Y-103011500D01*
X29774000Y-103011500D02*
X29774000Y-105696500D01*
%TO.C,D1*%
X33853000Y-105696500D02*
X33853000Y-103011500D01*
X33853000Y-103011500D02*
X31933000Y-103011500D01*
X31933000Y-103011500D02*
X31933000Y-105696500D01*
%TO.C,C46*%
X35381000Y-53764922D02*
X35381000Y-54282078D01*
X33961000Y-53764922D02*
X33961000Y-54282078D01*
%TO.C,C45*%
X37413000Y-53764922D02*
X37413000Y-54282078D01*
X35993000Y-53764922D02*
X35993000Y-54282078D01*
%TO.C,C44*%
X31706078Y-55701000D02*
X31188922Y-55701000D01*
X31706078Y-54281000D02*
X31188922Y-54281000D01*
%TO.C,C43*%
X29285000Y-53764922D02*
X29285000Y-54282078D01*
X27865000Y-53764922D02*
X27865000Y-54282078D01*
%TO.C,C42*%
X48693000Y-40850078D02*
X48693000Y-40332922D01*
X50113000Y-40850078D02*
X50113000Y-40332922D01*
%TO.C,C41*%
X29039078Y-42366000D02*
X28521922Y-42366000D01*
X29039078Y-40946000D02*
X28521922Y-40946000D01*
%TO.C,C40*%
X29039078Y-46430000D02*
X28521922Y-46430000D01*
X29039078Y-45010000D02*
X28521922Y-45010000D01*
%TO.C,C38*%
X46661000Y-40850078D02*
X46661000Y-40332922D01*
X48081000Y-40850078D02*
X48081000Y-40332922D01*
%TO.C,C37*%
X31706078Y-49986000D02*
X31188922Y-49986000D01*
X31706078Y-48566000D02*
X31188922Y-48566000D01*
%TO.C,C32*%
X55066000Y-52113922D02*
X55066000Y-52631078D01*
X53646000Y-52113922D02*
X53646000Y-52631078D01*
%TO.C,C29*%
X47795922Y-42597000D02*
X48313078Y-42597000D01*
X47795922Y-44017000D02*
X48313078Y-44017000D01*
%TO.C,C27*%
X46652922Y-45518000D02*
X47170078Y-45518000D01*
X46652922Y-46938000D02*
X47170078Y-46938000D01*
%TO.C,C26*%
X57098000Y-52113922D02*
X57098000Y-52631078D01*
X55678000Y-52113922D02*
X55678000Y-52631078D01*
%TO.C,C25*%
X23236422Y-50344000D02*
X23753578Y-50344000D01*
X23236422Y-51764000D02*
X23753578Y-51764000D01*
%TO.C,C24*%
X25706000Y-54312078D02*
X25706000Y-53794922D01*
X27126000Y-54312078D02*
X27126000Y-53794922D01*
%TO.C,C23*%
X47170078Y-37794000D02*
X46652922Y-37794000D01*
X47170078Y-36374000D02*
X46652922Y-36374000D01*
%TO.C,C22*%
X46938000Y-51986922D02*
X46938000Y-52504078D01*
X45518000Y-51986922D02*
X45518000Y-52504078D01*
%TO.C,C21*%
X44906000Y-51986922D02*
X44906000Y-52504078D01*
X43486000Y-51986922D02*
X43486000Y-52504078D01*
%TO.C,C19*%
X30301000Y-38603422D02*
X30301000Y-39120578D01*
X28881000Y-38603422D02*
X28881000Y-39120578D01*
%TO.C,C18*%
X28269000Y-38603422D02*
X28269000Y-39120578D01*
X26849000Y-38603422D02*
X26849000Y-39120578D01*
%TO.C,C16*%
X41604000Y-82085922D02*
X41604000Y-82603078D01*
X40184000Y-82085922D02*
X40184000Y-82603078D01*
%TO.C,C15*%
X49422000Y-65265000D02*
X51772000Y-65265000D01*
X56242000Y-65265000D02*
X53892000Y-65265000D01*
X56242000Y-59509437D02*
X56242000Y-65265000D01*
X49422000Y-59509437D02*
X49422000Y-65265000D01*
X50486437Y-58445000D02*
X51772000Y-58445000D01*
X55177563Y-58445000D02*
X53892000Y-58445000D01*
X55177563Y-58445000D02*
X56242000Y-59509437D01*
X50486437Y-58445000D02*
X49422000Y-59509437D01*
X54679500Y-57417500D02*
X54679500Y-58205000D01*
X55073250Y-57811250D02*
X54285750Y-57811250D01*
%TO.C,C10*%
X49074000Y-56471078D02*
X49074000Y-55953922D01*
X50494000Y-56471078D02*
X50494000Y-55953922D01*
%TO.C,C9*%
X37762922Y-87809000D02*
X38280078Y-87809000D01*
X37762922Y-89229000D02*
X38280078Y-89229000D01*
%TO.C,C8*%
X50748000Y-67129922D02*
X50748000Y-67647078D01*
X49328000Y-67129922D02*
X49328000Y-67647078D01*
%TO.C,C7*%
X37762922Y-97461000D02*
X38280078Y-97461000D01*
X37762922Y-98881000D02*
X38280078Y-98881000D01*
%TO.C,C5*%
X31285922Y-99747000D02*
X31803078Y-99747000D01*
X31285922Y-101167000D02*
X31803078Y-101167000D01*
%TO.C,C4*%
X23949922Y-87936000D02*
X24467078Y-87936000D01*
X23949922Y-89356000D02*
X24467078Y-89356000D01*
%TO.C,C2*%
X31071078Y-89356000D02*
X30553922Y-89356000D01*
X31071078Y-87936000D02*
X30553922Y-87936000D01*
%TO.C,C1*%
X25727922Y-105970000D02*
X26245078Y-105970000D01*
X25727922Y-107390000D02*
X26245078Y-107390000D01*
%TO.C,BT1*%
X60415000Y-73807000D02*
X60415000Y-77617000D01*
X60415000Y-77617000D02*
X48695000Y-77617000D01*
X48695000Y-77617000D02*
X48695000Y-76197000D01*
X48695000Y-76197000D02*
X53195000Y-76197000D01*
X60415000Y-73807000D02*
X60415000Y-69997000D01*
X60415000Y-69997000D02*
X48695000Y-69997000D01*
X48695000Y-69997000D02*
X48695000Y-71417000D01*
X48695000Y-71417000D02*
X53195000Y-71417000D01*
X54305000Y-75307000D02*
X59805000Y-75307000D01*
X59805000Y-75307000D02*
X59805000Y-74807000D01*
X59805000Y-74807000D02*
X54305000Y-74807000D01*
X54305000Y-74807000D02*
X54305000Y-75307000D01*
X54305000Y-72807000D02*
X59805000Y-72807000D01*
X59805000Y-72807000D02*
X59805000Y-72307000D01*
X59805000Y-72307000D02*
X54305000Y-72307000D01*
X54305000Y-72307000D02*
X54305000Y-72807000D01*
X51205000Y-75057000D02*
X50605000Y-75357000D01*
X50605000Y-75357000D02*
X50605000Y-74757000D01*
X50605000Y-74757000D02*
X51205000Y-75057000D01*
%TO.C,R5*%
D13*
X40473333Y-69793380D02*
X40140000Y-69317190D01*
X39901904Y-69793380D02*
X39901904Y-68793380D01*
X40282857Y-68793380D01*
X40378095Y-68841000D01*
X40425714Y-68888619D01*
X40473333Y-68983857D01*
X40473333Y-69126714D01*
X40425714Y-69221952D01*
X40378095Y-69269571D01*
X40282857Y-69317190D01*
X39901904Y-69317190D01*
X41378095Y-68793380D02*
X40901904Y-68793380D01*
X40854285Y-69269571D01*
X40901904Y-69221952D01*
X40997142Y-69174333D01*
X41235238Y-69174333D01*
X41330476Y-69221952D01*
X41378095Y-69269571D01*
X41425714Y-69364809D01*
X41425714Y-69602904D01*
X41378095Y-69698142D01*
X41330476Y-69745761D01*
X41235238Y-69793380D01*
X40997142Y-69793380D01*
X40901904Y-69745761D01*
X40854285Y-69698142D01*
%TO.C,C20*%
X34028142Y-83796142D02*
X33980523Y-83843761D01*
X33837666Y-83891380D01*
X33742428Y-83891380D01*
X33599571Y-83843761D01*
X33504333Y-83748523D01*
X33456714Y-83653285D01*
X33409095Y-83462809D01*
X33409095Y-83319952D01*
X33456714Y-83129476D01*
X33504333Y-83034238D01*
X33599571Y-82939000D01*
X33742428Y-82891380D01*
X33837666Y-82891380D01*
X33980523Y-82939000D01*
X34028142Y-82986619D01*
X34409095Y-82986619D02*
X34456714Y-82939000D01*
X34551952Y-82891380D01*
X34790047Y-82891380D01*
X34885285Y-82939000D01*
X34932904Y-82986619D01*
X34980523Y-83081857D01*
X34980523Y-83177095D01*
X34932904Y-83319952D01*
X34361476Y-83891380D01*
X34980523Y-83891380D01*
X35599571Y-82891380D02*
X35694809Y-82891380D01*
X35790047Y-82939000D01*
X35837666Y-82986619D01*
X35885285Y-83081857D01*
X35932904Y-83272333D01*
X35932904Y-83510428D01*
X35885285Y-83700904D01*
X35837666Y-83796142D01*
X35790047Y-83843761D01*
X35694809Y-83891380D01*
X35599571Y-83891380D01*
X35504333Y-83843761D01*
X35456714Y-83796142D01*
X35409095Y-83700904D01*
X35361476Y-83510428D01*
X35361476Y-83272333D01*
X35409095Y-83081857D01*
X35456714Y-82986619D01*
X35504333Y-82939000D01*
X35599571Y-82891380D01*
%TO.C,C17*%
X37568142Y-85097857D02*
X37615761Y-85145476D01*
X37663380Y-85288333D01*
X37663380Y-85383571D01*
X37615761Y-85526428D01*
X37520523Y-85621666D01*
X37425285Y-85669285D01*
X37234809Y-85716904D01*
X37091952Y-85716904D01*
X36901476Y-85669285D01*
X36806238Y-85621666D01*
X36711000Y-85526428D01*
X36663380Y-85383571D01*
X36663380Y-85288333D01*
X36711000Y-85145476D01*
X36758619Y-85097857D01*
X37663380Y-84145476D02*
X37663380Y-84716904D01*
X37663380Y-84431190D02*
X36663380Y-84431190D01*
X36806238Y-84526428D01*
X36901476Y-84621666D01*
X36949095Y-84716904D01*
X36663380Y-83812142D02*
X36663380Y-83145476D01*
X37663380Y-83574047D01*
%TO.C,SW1*%
X43624666Y-70127761D02*
X43767523Y-70175380D01*
X44005619Y-70175380D01*
X44100857Y-70127761D01*
X44148476Y-70080142D01*
X44196095Y-69984904D01*
X44196095Y-69889666D01*
X44148476Y-69794428D01*
X44100857Y-69746809D01*
X44005619Y-69699190D01*
X43815142Y-69651571D01*
X43719904Y-69603952D01*
X43672285Y-69556333D01*
X43624666Y-69461095D01*
X43624666Y-69365857D01*
X43672285Y-69270619D01*
X43719904Y-69223000D01*
X43815142Y-69175380D01*
X44053238Y-69175380D01*
X44196095Y-69223000D01*
X44529428Y-69175380D02*
X44767523Y-70175380D01*
X44958000Y-69461095D01*
X45148476Y-70175380D01*
X45386571Y-69175380D01*
X46291333Y-70175380D02*
X45719904Y-70175380D01*
X46005619Y-70175380D02*
X46005619Y-69175380D01*
X45910380Y-69318238D01*
X45815142Y-69413476D01*
X45719904Y-69461095D01*
%TO.C,C49*%
X52935142Y-91701857D02*
X52982761Y-91749476D01*
X53030380Y-91892333D01*
X53030380Y-91987571D01*
X52982761Y-92130428D01*
X52887523Y-92225666D01*
X52792285Y-92273285D01*
X52601809Y-92320904D01*
X52458952Y-92320904D01*
X52268476Y-92273285D01*
X52173238Y-92225666D01*
X52078000Y-92130428D01*
X52030380Y-91987571D01*
X52030380Y-91892333D01*
X52078000Y-91749476D01*
X52125619Y-91701857D01*
X52363714Y-90844714D02*
X53030380Y-90844714D01*
X51982761Y-91082809D02*
X52697047Y-91320904D01*
X52697047Y-90701857D01*
X53030380Y-90273285D02*
X53030380Y-90082809D01*
X52982761Y-89987571D01*
X52935142Y-89939952D01*
X52792285Y-89844714D01*
X52601809Y-89797095D01*
X52220857Y-89797095D01*
X52125619Y-89844714D01*
X52078000Y-89892333D01*
X52030380Y-89987571D01*
X52030380Y-90178047D01*
X52078000Y-90273285D01*
X52125619Y-90320904D01*
X52220857Y-90368523D01*
X52458952Y-90368523D01*
X52554190Y-90320904D01*
X52601809Y-90273285D01*
X52649428Y-90178047D01*
X52649428Y-89987571D01*
X52601809Y-89892333D01*
X52554190Y-89844714D01*
X52458952Y-89797095D01*
%TO.C,C48*%
X49506142Y-99956857D02*
X49553761Y-100004476D01*
X49601380Y-100147333D01*
X49601380Y-100242571D01*
X49553761Y-100385428D01*
X49458523Y-100480666D01*
X49363285Y-100528285D01*
X49172809Y-100575904D01*
X49029952Y-100575904D01*
X48839476Y-100528285D01*
X48744238Y-100480666D01*
X48649000Y-100385428D01*
X48601380Y-100242571D01*
X48601380Y-100147333D01*
X48649000Y-100004476D01*
X48696619Y-99956857D01*
X48934714Y-99099714D02*
X49601380Y-99099714D01*
X48553761Y-99337809D02*
X49268047Y-99575904D01*
X49268047Y-98956857D01*
X49029952Y-98433047D02*
X48982333Y-98528285D01*
X48934714Y-98575904D01*
X48839476Y-98623523D01*
X48791857Y-98623523D01*
X48696619Y-98575904D01*
X48649000Y-98528285D01*
X48601380Y-98433047D01*
X48601380Y-98242571D01*
X48649000Y-98147333D01*
X48696619Y-98099714D01*
X48791857Y-98052095D01*
X48839476Y-98052095D01*
X48934714Y-98099714D01*
X48982333Y-98147333D01*
X49029952Y-98242571D01*
X49029952Y-98433047D01*
X49077571Y-98528285D01*
X49125190Y-98575904D01*
X49220428Y-98623523D01*
X49410904Y-98623523D01*
X49506142Y-98575904D01*
X49553761Y-98528285D01*
X49601380Y-98433047D01*
X49601380Y-98242571D01*
X49553761Y-98147333D01*
X49506142Y-98099714D01*
X49410904Y-98052095D01*
X49220428Y-98052095D01*
X49125190Y-98099714D01*
X49077571Y-98147333D01*
X49029952Y-98242571D01*
%TO.C,P1*%
X44727904Y-106433880D02*
X44727904Y-105433880D01*
X45108857Y-105433880D01*
X45204095Y-105481500D01*
X45251714Y-105529119D01*
X45299333Y-105624357D01*
X45299333Y-105767214D01*
X45251714Y-105862452D01*
X45204095Y-105910071D01*
X45108857Y-105957690D01*
X44727904Y-105957690D01*
X46251714Y-106433880D02*
X45680285Y-106433880D01*
X45966000Y-106433880D02*
X45966000Y-105433880D01*
X45870761Y-105576738D01*
X45775523Y-105671976D01*
X45680285Y-105719595D01*
%TO.C,RN2*%
X46680380Y-28630476D02*
X46204190Y-28963809D01*
X46680380Y-29201904D02*
X45680380Y-29201904D01*
X45680380Y-28820952D01*
X45728000Y-28725714D01*
X45775619Y-28678095D01*
X45870857Y-28630476D01*
X46013714Y-28630476D01*
X46108952Y-28678095D01*
X46156571Y-28725714D01*
X46204190Y-28820952D01*
X46204190Y-29201904D01*
X46680380Y-28201904D02*
X45680380Y-28201904D01*
X46680380Y-27630476D01*
X45680380Y-27630476D01*
X45775619Y-27201904D02*
X45728000Y-27154285D01*
X45680380Y-27059047D01*
X45680380Y-26820952D01*
X45728000Y-26725714D01*
X45775619Y-26678095D01*
X45870857Y-26630476D01*
X45966095Y-26630476D01*
X46108952Y-26678095D01*
X46680380Y-27249523D01*
X46680380Y-26630476D01*
%TO.C,RN3*%
X41663380Y-28641476D02*
X41187190Y-28974809D01*
X41663380Y-29212904D02*
X40663380Y-29212904D01*
X40663380Y-28831952D01*
X40711000Y-28736714D01*
X40758619Y-28689095D01*
X40853857Y-28641476D01*
X40996714Y-28641476D01*
X41091952Y-28689095D01*
X41139571Y-28736714D01*
X41187190Y-28831952D01*
X41187190Y-29212904D01*
X41663380Y-28212904D02*
X40663380Y-28212904D01*
X41663380Y-27641476D01*
X40663380Y-27641476D01*
X40663380Y-27260523D02*
X40663380Y-26641476D01*
X41044333Y-26974809D01*
X41044333Y-26831952D01*
X41091952Y-26736714D01*
X41139571Y-26689095D01*
X41234809Y-26641476D01*
X41472904Y-26641476D01*
X41568142Y-26689095D01*
X41615761Y-26736714D01*
X41663380Y-26831952D01*
X41663380Y-27117666D01*
X41615761Y-27212904D01*
X41568142Y-27260523D01*
%TO.C,RN1*%
X51823380Y-28619476D02*
X51347190Y-28952809D01*
X51823380Y-29190904D02*
X50823380Y-29190904D01*
X50823380Y-28809952D01*
X50871000Y-28714714D01*
X50918619Y-28667095D01*
X51013857Y-28619476D01*
X51156714Y-28619476D01*
X51251952Y-28667095D01*
X51299571Y-28714714D01*
X51347190Y-28809952D01*
X51347190Y-29190904D01*
X51823380Y-28190904D02*
X50823380Y-28190904D01*
X51823380Y-27619476D01*
X50823380Y-27619476D01*
X51823380Y-26619476D02*
X51823380Y-27190904D01*
X51823380Y-26905190D02*
X50823380Y-26905190D01*
X50966238Y-27000428D01*
X51061476Y-27095666D01*
X51109095Y-27190904D01*
%TO.C,RN4*%
X36583380Y-28641476D02*
X36107190Y-28974809D01*
X36583380Y-29212904D02*
X35583380Y-29212904D01*
X35583380Y-28831952D01*
X35631000Y-28736714D01*
X35678619Y-28689095D01*
X35773857Y-28641476D01*
X35916714Y-28641476D01*
X36011952Y-28689095D01*
X36059571Y-28736714D01*
X36107190Y-28831952D01*
X36107190Y-29212904D01*
X36583380Y-28212904D02*
X35583380Y-28212904D01*
X36583380Y-27641476D01*
X35583380Y-27641476D01*
X35916714Y-26736714D02*
X36583380Y-26736714D01*
X35535761Y-26974809D02*
X36250047Y-27212904D01*
X36250047Y-26593857D01*
%TO.C,RN5*%
X30614380Y-28641476D02*
X30138190Y-28974809D01*
X30614380Y-29212904D02*
X29614380Y-29212904D01*
X29614380Y-28831952D01*
X29662000Y-28736714D01*
X29709619Y-28689095D01*
X29804857Y-28641476D01*
X29947714Y-28641476D01*
X30042952Y-28689095D01*
X30090571Y-28736714D01*
X30138190Y-28831952D01*
X30138190Y-29212904D01*
X30614380Y-28212904D02*
X29614380Y-28212904D01*
X30614380Y-27641476D01*
X29614380Y-27641476D01*
X29614380Y-26689095D02*
X29614380Y-27165285D01*
X30090571Y-27212904D01*
X30042952Y-27165285D01*
X29995333Y-27070047D01*
X29995333Y-26831952D01*
X30042952Y-26736714D01*
X30090571Y-26689095D01*
X30185809Y-26641476D01*
X30423904Y-26641476D01*
X30519142Y-26689095D01*
X30566761Y-26736714D01*
X30614380Y-26831952D01*
X30614380Y-27070047D01*
X30566761Y-27165285D01*
X30519142Y-27212904D01*
%TO.C,C39*%
X24947642Y-44108642D02*
X24900023Y-44156261D01*
X24757166Y-44203880D01*
X24661928Y-44203880D01*
X24519071Y-44156261D01*
X24423833Y-44061023D01*
X24376214Y-43965785D01*
X24328595Y-43775309D01*
X24328595Y-43632452D01*
X24376214Y-43441976D01*
X24423833Y-43346738D01*
X24519071Y-43251500D01*
X24661928Y-43203880D01*
X24757166Y-43203880D01*
X24900023Y-43251500D01*
X24947642Y-43299119D01*
X25280976Y-43203880D02*
X25900023Y-43203880D01*
X25566690Y-43584833D01*
X25709547Y-43584833D01*
X25804785Y-43632452D01*
X25852404Y-43680071D01*
X25900023Y-43775309D01*
X25900023Y-44013404D01*
X25852404Y-44108642D01*
X25804785Y-44156261D01*
X25709547Y-44203880D01*
X25423833Y-44203880D01*
X25328595Y-44156261D01*
X25280976Y-44108642D01*
X26376214Y-44203880D02*
X26566690Y-44203880D01*
X26661928Y-44156261D01*
X26709547Y-44108642D01*
X26804785Y-43965785D01*
X26852404Y-43775309D01*
X26852404Y-43394357D01*
X26804785Y-43299119D01*
X26757166Y-43251500D01*
X26661928Y-43203880D01*
X26471452Y-43203880D01*
X26376214Y-43251500D01*
X26328595Y-43299119D01*
X26280976Y-43394357D01*
X26280976Y-43632452D01*
X26328595Y-43727690D01*
X26376214Y-43775309D01*
X26471452Y-43822928D01*
X26661928Y-43822928D01*
X26757166Y-43775309D01*
X26804785Y-43727690D01*
X26852404Y-43632452D01*
%TO.C,Y2*%
X42902190Y-55911690D02*
X43378380Y-55911690D01*
X42378380Y-56245023D02*
X42902190Y-55911690D01*
X42378380Y-55578357D01*
X42473619Y-55292642D02*
X42426000Y-55245023D01*
X42378380Y-55149785D01*
X42378380Y-54911690D01*
X42426000Y-54816452D01*
X42473619Y-54768833D01*
X42568857Y-54721214D01*
X42664095Y-54721214D01*
X42806952Y-54768833D01*
X43378380Y-55340261D01*
X43378380Y-54721214D01*
%TO.C,Y1*%
X27019309Y-89003190D02*
X27019309Y-89479380D01*
X26685976Y-88479380D02*
X27019309Y-89003190D01*
X27352642Y-88479380D01*
X28209785Y-89479380D02*
X27638357Y-89479380D01*
X27924071Y-89479380D02*
X27924071Y-88479380D01*
X27828833Y-88622238D01*
X27733595Y-88717476D01*
X27638357Y-88765095D01*
%TO.C,U15*%
X27209904Y-50379380D02*
X27209904Y-51188904D01*
X27257523Y-51284142D01*
X27305142Y-51331761D01*
X27400380Y-51379380D01*
X27590857Y-51379380D01*
X27686095Y-51331761D01*
X27733714Y-51284142D01*
X27781333Y-51188904D01*
X27781333Y-50379380D01*
X28781333Y-51379380D02*
X28209904Y-51379380D01*
X28495619Y-51379380D02*
X28495619Y-50379380D01*
X28400380Y-50522238D01*
X28305142Y-50617476D01*
X28209904Y-50665095D01*
X29686095Y-50379380D02*
X29209904Y-50379380D01*
X29162285Y-50855571D01*
X29209904Y-50807952D01*
X29305142Y-50760333D01*
X29543238Y-50760333D01*
X29638476Y-50807952D01*
X29686095Y-50855571D01*
X29733714Y-50950809D01*
X29733714Y-51188904D01*
X29686095Y-51284142D01*
X29638476Y-51331761D01*
X29543238Y-51379380D01*
X29305142Y-51379380D01*
X29209904Y-51331761D01*
X29162285Y-51284142D01*
%TO.C,U11*%
X48037904Y-48876380D02*
X48037904Y-49685904D01*
X48085523Y-49781142D01*
X48133142Y-49828761D01*
X48228380Y-49876380D01*
X48418857Y-49876380D01*
X48514095Y-49828761D01*
X48561714Y-49781142D01*
X48609333Y-49685904D01*
X48609333Y-48876380D01*
X49609333Y-49876380D02*
X49037904Y-49876380D01*
X49323619Y-49876380D02*
X49323619Y-48876380D01*
X49228380Y-49019238D01*
X49133142Y-49114476D01*
X49037904Y-49162095D01*
X50561714Y-49876380D02*
X49990285Y-49876380D01*
X50276000Y-49876380D02*
X50276000Y-48876380D01*
X50180761Y-49019238D01*
X50085523Y-49114476D01*
X49990285Y-49162095D01*
%TO.C,U10*%
X20280380Y-55594095D02*
X21089904Y-55594095D01*
X21185142Y-55546476D01*
X21232761Y-55498857D01*
X21280380Y-55403619D01*
X21280380Y-55213142D01*
X21232761Y-55117904D01*
X21185142Y-55070285D01*
X21089904Y-55022666D01*
X20280380Y-55022666D01*
X21280380Y-54022666D02*
X21280380Y-54594095D01*
X21280380Y-54308380D02*
X20280380Y-54308380D01*
X20423238Y-54403619D01*
X20518476Y-54498857D01*
X20566095Y-54594095D01*
X20280380Y-53403619D02*
X20280380Y-53308380D01*
X20328000Y-53213142D01*
X20375619Y-53165523D01*
X20470857Y-53117904D01*
X20661333Y-53070285D01*
X20899428Y-53070285D01*
X21089904Y-53117904D01*
X21185142Y-53165523D01*
X21232761Y-53213142D01*
X21280380Y-53308380D01*
X21280380Y-53403619D01*
X21232761Y-53498857D01*
X21185142Y-53546476D01*
X21089904Y-53594095D01*
X20899428Y-53641714D01*
X20661333Y-53641714D01*
X20470857Y-53594095D01*
X20375619Y-53546476D01*
X20328000Y-53498857D01*
X20280380Y-53403619D01*
%TO.C,U8*%
X30861095Y-35139380D02*
X30861095Y-35948904D01*
X30908714Y-36044142D01*
X30956333Y-36091761D01*
X31051571Y-36139380D01*
X31242047Y-36139380D01*
X31337285Y-36091761D01*
X31384904Y-36044142D01*
X31432523Y-35948904D01*
X31432523Y-35139380D01*
X32051571Y-35567952D02*
X31956333Y-35520333D01*
X31908714Y-35472714D01*
X31861095Y-35377476D01*
X31861095Y-35329857D01*
X31908714Y-35234619D01*
X31956333Y-35187000D01*
X32051571Y-35139380D01*
X32242047Y-35139380D01*
X32337285Y-35187000D01*
X32384904Y-35234619D01*
X32432523Y-35329857D01*
X32432523Y-35377476D01*
X32384904Y-35472714D01*
X32337285Y-35520333D01*
X32242047Y-35567952D01*
X32051571Y-35567952D01*
X31956333Y-35615571D01*
X31908714Y-35663190D01*
X31861095Y-35758428D01*
X31861095Y-35948904D01*
X31908714Y-36044142D01*
X31956333Y-36091761D01*
X32051571Y-36139380D01*
X32242047Y-36139380D01*
X32337285Y-36091761D01*
X32384904Y-36044142D01*
X32432523Y-35948904D01*
X32432523Y-35758428D01*
X32384904Y-35663190D01*
X32337285Y-35615571D01*
X32242047Y-35567952D01*
%TO.C,U6*%
X34861595Y-70445380D02*
X34861595Y-71254904D01*
X34909214Y-71350142D01*
X34956833Y-71397761D01*
X35052071Y-71445380D01*
X35242547Y-71445380D01*
X35337785Y-71397761D01*
X35385404Y-71350142D01*
X35433023Y-71254904D01*
X35433023Y-70445380D01*
X36337785Y-70445380D02*
X36147309Y-70445380D01*
X36052071Y-70493000D01*
X36004452Y-70540619D01*
X35909214Y-70683476D01*
X35861595Y-70873952D01*
X35861595Y-71254904D01*
X35909214Y-71350142D01*
X35956833Y-71397761D01*
X36052071Y-71445380D01*
X36242547Y-71445380D01*
X36337785Y-71397761D01*
X36385404Y-71350142D01*
X36433023Y-71254904D01*
X36433023Y-71016809D01*
X36385404Y-70921571D01*
X36337785Y-70873952D01*
X36242547Y-70826333D01*
X36052071Y-70826333D01*
X35956833Y-70873952D01*
X35909214Y-70921571D01*
X35861595Y-71016809D01*
%TO.C,U5*%
X34250380Y-96646904D02*
X35059904Y-96646904D01*
X35155142Y-96599285D01*
X35202761Y-96551666D01*
X35250380Y-96456428D01*
X35250380Y-96265952D01*
X35202761Y-96170714D01*
X35155142Y-96123095D01*
X35059904Y-96075476D01*
X34250380Y-96075476D01*
X34250380Y-95123095D02*
X34250380Y-95599285D01*
X34726571Y-95646904D01*
X34678952Y-95599285D01*
X34631333Y-95504047D01*
X34631333Y-95265952D01*
X34678952Y-95170714D01*
X34726571Y-95123095D01*
X34821809Y-95075476D01*
X35059904Y-95075476D01*
X35155142Y-95123095D01*
X35202761Y-95170714D01*
X35250380Y-95265952D01*
X35250380Y-95504047D01*
X35202761Y-95599285D01*
X35155142Y-95646904D01*
%TO.C,U4*%
X45402595Y-99718880D02*
X45402595Y-100528404D01*
X45450214Y-100623642D01*
X45497833Y-100671261D01*
X45593071Y-100718880D01*
X45783547Y-100718880D01*
X45878785Y-100671261D01*
X45926404Y-100623642D01*
X45974023Y-100528404D01*
X45974023Y-99718880D01*
X46878785Y-100052214D02*
X46878785Y-100718880D01*
X46640690Y-99671261D02*
X46402595Y-100385547D01*
X47021642Y-100385547D01*
%TO.C,U2*%
X37465095Y-66770380D02*
X37465095Y-67579904D01*
X37512714Y-67675142D01*
X37560333Y-67722761D01*
X37655571Y-67770380D01*
X37846047Y-67770380D01*
X37941285Y-67722761D01*
X37988904Y-67675142D01*
X38036523Y-67579904D01*
X38036523Y-66770380D01*
X38465095Y-66865619D02*
X38512714Y-66818000D01*
X38607952Y-66770380D01*
X38846047Y-66770380D01*
X38941285Y-66818000D01*
X38988904Y-66865619D01*
X39036523Y-66960857D01*
X39036523Y-67056095D01*
X38988904Y-67198952D01*
X38417476Y-67770380D01*
X39036523Y-67770380D01*
%TO.C,U1*%
X20383595Y-95337380D02*
X20383595Y-96146904D01*
X20431214Y-96242142D01*
X20478833Y-96289761D01*
X20574071Y-96337380D01*
X20764547Y-96337380D01*
X20859785Y-96289761D01*
X20907404Y-96242142D01*
X20955023Y-96146904D01*
X20955023Y-95337380D01*
X21955023Y-96337380D02*
X21383595Y-96337380D01*
X21669309Y-96337380D02*
X21669309Y-95337380D01*
X21574071Y-95480238D01*
X21478833Y-95575476D01*
X21383595Y-95623095D01*
%TO.C,TP4*%
X33536095Y-49185380D02*
X34107523Y-49185380D01*
X33821809Y-50185380D02*
X33821809Y-49185380D01*
X34440857Y-50185380D02*
X34440857Y-49185380D01*
X34821809Y-49185380D01*
X34917047Y-49233000D01*
X34964666Y-49280619D01*
X35012285Y-49375857D01*
X35012285Y-49518714D01*
X34964666Y-49613952D01*
X34917047Y-49661571D01*
X34821809Y-49709190D01*
X34440857Y-49709190D01*
X35869428Y-49518714D02*
X35869428Y-50185380D01*
X35631333Y-49137761D02*
X35393238Y-49852047D01*
X36012285Y-49852047D01*
%TO.C,TP3*%
X55126095Y-46010380D02*
X55697523Y-46010380D01*
X55411809Y-47010380D02*
X55411809Y-46010380D01*
X56030857Y-47010380D02*
X56030857Y-46010380D01*
X56411809Y-46010380D01*
X56507047Y-46058000D01*
X56554666Y-46105619D01*
X56602285Y-46200857D01*
X56602285Y-46343714D01*
X56554666Y-46438952D01*
X56507047Y-46486571D01*
X56411809Y-46534190D01*
X56030857Y-46534190D01*
X56935619Y-46010380D02*
X57554666Y-46010380D01*
X57221333Y-46391333D01*
X57364190Y-46391333D01*
X57459428Y-46438952D01*
X57507047Y-46486571D01*
X57554666Y-46581809D01*
X57554666Y-46819904D01*
X57507047Y-46915142D01*
X57459428Y-46962761D01*
X57364190Y-47010380D01*
X57078476Y-47010380D01*
X56983238Y-46962761D01*
X56935619Y-46915142D01*
%TO.C,TP2*%
X25027095Y-49185380D02*
X25598523Y-49185380D01*
X25312809Y-50185380D02*
X25312809Y-49185380D01*
X25931857Y-50185380D02*
X25931857Y-49185380D01*
X26312809Y-49185380D01*
X26408047Y-49233000D01*
X26455666Y-49280619D01*
X26503285Y-49375857D01*
X26503285Y-49518714D01*
X26455666Y-49613952D01*
X26408047Y-49661571D01*
X26312809Y-49709190D01*
X25931857Y-49709190D01*
X26884238Y-49280619D02*
X26931857Y-49233000D01*
X27027095Y-49185380D01*
X27265190Y-49185380D01*
X27360428Y-49233000D01*
X27408047Y-49280619D01*
X27455666Y-49375857D01*
X27455666Y-49471095D01*
X27408047Y-49613952D01*
X26836619Y-50185380D01*
X27455666Y-50185380D01*
%TO.C,TP1*%
X36076095Y-68667380D02*
X36647523Y-68667380D01*
X36361809Y-69667380D02*
X36361809Y-68667380D01*
X36980857Y-69667380D02*
X36980857Y-68667380D01*
X37361809Y-68667380D01*
X37457047Y-68715000D01*
X37504666Y-68762619D01*
X37552285Y-68857857D01*
X37552285Y-69000714D01*
X37504666Y-69095952D01*
X37457047Y-69143571D01*
X37361809Y-69191190D01*
X36980857Y-69191190D01*
X38504666Y-69667380D02*
X37933238Y-69667380D01*
X38218952Y-69667380D02*
X38218952Y-68667380D01*
X38123714Y-68810238D01*
X38028476Y-68905476D01*
X37933238Y-68953095D01*
%TO.C,R9*%
X52776380Y-49760166D02*
X52300190Y-50093500D01*
X52776380Y-50331595D02*
X51776380Y-50331595D01*
X51776380Y-49950642D01*
X51824000Y-49855404D01*
X51871619Y-49807785D01*
X51966857Y-49760166D01*
X52109714Y-49760166D01*
X52204952Y-49807785D01*
X52252571Y-49855404D01*
X52300190Y-49950642D01*
X52300190Y-50331595D01*
X52776380Y-49283976D02*
X52776380Y-49093500D01*
X52728761Y-48998261D01*
X52681142Y-48950642D01*
X52538285Y-48855404D01*
X52347809Y-48807785D01*
X51966857Y-48807785D01*
X51871619Y-48855404D01*
X51824000Y-48903023D01*
X51776380Y-48998261D01*
X51776380Y-49188738D01*
X51824000Y-49283976D01*
X51871619Y-49331595D01*
X51966857Y-49379214D01*
X52204952Y-49379214D01*
X52300190Y-49331595D01*
X52347809Y-49283976D01*
X52395428Y-49188738D01*
X52395428Y-48998261D01*
X52347809Y-48903023D01*
X52300190Y-48855404D01*
X52204952Y-48807785D01*
%TO.C,R8*%
X50379333Y-35567880D02*
X50046000Y-35091690D01*
X49807904Y-35567880D02*
X49807904Y-34567880D01*
X50188857Y-34567880D01*
X50284095Y-34615500D01*
X50331714Y-34663119D01*
X50379333Y-34758357D01*
X50379333Y-34901214D01*
X50331714Y-34996452D01*
X50284095Y-35044071D01*
X50188857Y-35091690D01*
X49807904Y-35091690D01*
X50950761Y-34996452D02*
X50855523Y-34948833D01*
X50807904Y-34901214D01*
X50760285Y-34805976D01*
X50760285Y-34758357D01*
X50807904Y-34663119D01*
X50855523Y-34615500D01*
X50950761Y-34567880D01*
X51141238Y-34567880D01*
X51236476Y-34615500D01*
X51284095Y-34663119D01*
X51331714Y-34758357D01*
X51331714Y-34805976D01*
X51284095Y-34901214D01*
X51236476Y-34948833D01*
X51141238Y-34996452D01*
X50950761Y-34996452D01*
X50855523Y-35044071D01*
X50807904Y-35091690D01*
X50760285Y-35186928D01*
X50760285Y-35377404D01*
X50807904Y-35472642D01*
X50855523Y-35520261D01*
X50950761Y-35567880D01*
X51141238Y-35567880D01*
X51236476Y-35520261D01*
X51284095Y-35472642D01*
X51331714Y-35377404D01*
X51331714Y-35186928D01*
X51284095Y-35091690D01*
X51236476Y-35044071D01*
X51141238Y-34996452D01*
%TO.C,R7*%
X29282380Y-84367666D02*
X28806190Y-84701000D01*
X29282380Y-84939095D02*
X28282380Y-84939095D01*
X28282380Y-84558142D01*
X28330000Y-84462904D01*
X28377619Y-84415285D01*
X28472857Y-84367666D01*
X28615714Y-84367666D01*
X28710952Y-84415285D01*
X28758571Y-84462904D01*
X28806190Y-84558142D01*
X28806190Y-84939095D01*
X28282380Y-84034333D02*
X28282380Y-83367666D01*
X29282380Y-83796238D01*
%TO.C,R4*%
X28773380Y-109386666D02*
X28297190Y-109720000D01*
X28773380Y-109958095D02*
X27773380Y-109958095D01*
X27773380Y-109577142D01*
X27821000Y-109481904D01*
X27868619Y-109434285D01*
X27963857Y-109386666D01*
X28106714Y-109386666D01*
X28201952Y-109434285D01*
X28249571Y-109481904D01*
X28297190Y-109577142D01*
X28297190Y-109958095D01*
X28106714Y-108529523D02*
X28773380Y-108529523D01*
X27725761Y-108767619D02*
X28440047Y-109005714D01*
X28440047Y-108386666D01*
%TO.C,R3*%
X34869380Y-109513666D02*
X34393190Y-109847000D01*
X34869380Y-110085095D02*
X33869380Y-110085095D01*
X33869380Y-109704142D01*
X33917000Y-109608904D01*
X33964619Y-109561285D01*
X34059857Y-109513666D01*
X34202714Y-109513666D01*
X34297952Y-109561285D01*
X34345571Y-109608904D01*
X34393190Y-109704142D01*
X34393190Y-110085095D01*
X33869380Y-109180333D02*
X33869380Y-108561285D01*
X34250333Y-108894619D01*
X34250333Y-108751761D01*
X34297952Y-108656523D01*
X34345571Y-108608904D01*
X34440809Y-108561285D01*
X34678904Y-108561285D01*
X34774142Y-108608904D01*
X34821761Y-108656523D01*
X34869380Y-108751761D01*
X34869380Y-109037476D01*
X34821761Y-109132714D01*
X34774142Y-109180333D01*
%TO.C,R2*%
X32662833Y-69159380D02*
X32329500Y-68683190D01*
X32091404Y-69159380D02*
X32091404Y-68159380D01*
X32472357Y-68159380D01*
X32567595Y-68207000D01*
X32615214Y-68254619D01*
X32662833Y-68349857D01*
X32662833Y-68492714D01*
X32615214Y-68587952D01*
X32567595Y-68635571D01*
X32472357Y-68683190D01*
X32091404Y-68683190D01*
X33043785Y-68254619D02*
X33091404Y-68207000D01*
X33186642Y-68159380D01*
X33424738Y-68159380D01*
X33519976Y-68207000D01*
X33567595Y-68254619D01*
X33615214Y-68349857D01*
X33615214Y-68445095D01*
X33567595Y-68587952D01*
X32996166Y-69159380D01*
X33615214Y-69159380D01*
%TO.C,R1*%
X22883833Y-69159380D02*
X22550500Y-68683190D01*
X22312404Y-69159380D02*
X22312404Y-68159380D01*
X22693357Y-68159380D01*
X22788595Y-68207000D01*
X22836214Y-68254619D01*
X22883833Y-68349857D01*
X22883833Y-68492714D01*
X22836214Y-68587952D01*
X22788595Y-68635571D01*
X22693357Y-68683190D01*
X22312404Y-68683190D01*
X23836214Y-69159380D02*
X23264785Y-69159380D01*
X23550500Y-69159380D02*
X23550500Y-68159380D01*
X23455261Y-68302238D01*
X23360023Y-68397476D01*
X23264785Y-68445095D01*
%TO.C,L1*%
X50299880Y-91606666D02*
X50299880Y-92082857D01*
X49299880Y-92082857D01*
X50299880Y-90749523D02*
X50299880Y-91320952D01*
X50299880Y-91035238D02*
X49299880Y-91035238D01*
X49442738Y-91130476D01*
X49537976Y-91225714D01*
X49585595Y-91320952D01*
%TO.C,J6*%
X21383666Y-22566380D02*
X21383666Y-23280666D01*
X21336047Y-23423523D01*
X21240809Y-23518761D01*
X21097952Y-23566380D01*
X21002714Y-23566380D01*
X22288428Y-22566380D02*
X22097952Y-22566380D01*
X22002714Y-22614000D01*
X21955095Y-22661619D01*
X21859857Y-22804476D01*
X21812238Y-22994952D01*
X21812238Y-23375904D01*
X21859857Y-23471142D01*
X21907476Y-23518761D01*
X22002714Y-23566380D01*
X22193190Y-23566380D01*
X22288428Y-23518761D01*
X22336047Y-23471142D01*
X22383666Y-23375904D01*
X22383666Y-23137809D01*
X22336047Y-23042571D01*
X22288428Y-22994952D01*
X22193190Y-22947333D01*
X22002714Y-22947333D01*
X21907476Y-22994952D01*
X21859857Y-23042571D01*
X21812238Y-23137809D01*
%TO.C,J4*%
X20407380Y-68151333D02*
X21121666Y-68151333D01*
X21264523Y-68198952D01*
X21359761Y-68294190D01*
X21407380Y-68437047D01*
X21407380Y-68532285D01*
X20740714Y-67246571D02*
X21407380Y-67246571D01*
X20359761Y-67484666D02*
X21074047Y-67722761D01*
X21074047Y-67103714D01*
%TO.C,J3*%
X20661380Y-74120333D02*
X21375666Y-74120333D01*
X21518523Y-74167952D01*
X21613761Y-74263190D01*
X21661380Y-74406047D01*
X21661380Y-74501285D01*
X20661380Y-73739380D02*
X20661380Y-73120333D01*
X21042333Y-73453666D01*
X21042333Y-73310809D01*
X21089952Y-73215571D01*
X21137571Y-73167952D01*
X21232809Y-73120333D01*
X21470904Y-73120333D01*
X21566142Y-73167952D01*
X21613761Y-73215571D01*
X21661380Y-73310809D01*
X21661380Y-73596523D01*
X21613761Y-73691761D01*
X21566142Y-73739380D01*
%TO.C,D10*%
X29282380Y-81907785D02*
X28282380Y-81907785D01*
X28282380Y-81669690D01*
X28330000Y-81526833D01*
X28425238Y-81431595D01*
X28520476Y-81383976D01*
X28710952Y-81336357D01*
X28853809Y-81336357D01*
X29044285Y-81383976D01*
X29139523Y-81431595D01*
X29234761Y-81526833D01*
X29282380Y-81669690D01*
X29282380Y-81907785D01*
X29282380Y-80383976D02*
X29282380Y-80955404D01*
X29282380Y-80669690D02*
X28282380Y-80669690D01*
X28425238Y-80764928D01*
X28520476Y-80860166D01*
X28568095Y-80955404D01*
X28282380Y-79764928D02*
X28282380Y-79669690D01*
X28330000Y-79574452D01*
X28377619Y-79526833D01*
X28472857Y-79479214D01*
X28663333Y-79431595D01*
X28901428Y-79431595D01*
X29091904Y-79479214D01*
X29187142Y-79526833D01*
X29234761Y-79574452D01*
X29282380Y-79669690D01*
X29282380Y-79764928D01*
X29234761Y-79860166D01*
X29187142Y-79907785D01*
X29091904Y-79955404D01*
X28901428Y-80003023D01*
X28663333Y-80003023D01*
X28472857Y-79955404D01*
X28377619Y-79907785D01*
X28330000Y-79860166D01*
X28282380Y-79764928D01*
%TO.C,D9*%
X53871904Y-79827380D02*
X53871904Y-78827380D01*
X54110000Y-78827380D01*
X54252857Y-78875000D01*
X54348095Y-78970238D01*
X54395714Y-79065476D01*
X54443333Y-79255952D01*
X54443333Y-79398809D01*
X54395714Y-79589285D01*
X54348095Y-79684523D01*
X54252857Y-79779761D01*
X54110000Y-79827380D01*
X53871904Y-79827380D01*
X54919523Y-79827380D02*
X55110000Y-79827380D01*
X55205238Y-79779761D01*
X55252857Y-79732142D01*
X55348095Y-79589285D01*
X55395714Y-79398809D01*
X55395714Y-79017857D01*
X55348095Y-78922619D01*
X55300476Y-78875000D01*
X55205238Y-78827380D01*
X55014761Y-78827380D01*
X54919523Y-78875000D01*
X54871904Y-78922619D01*
X54824285Y-79017857D01*
X54824285Y-79255952D01*
X54871904Y-79351190D01*
X54919523Y-79398809D01*
X55014761Y-79446428D01*
X55205238Y-79446428D01*
X55300476Y-79398809D01*
X55348095Y-79351190D01*
X55395714Y-79255952D01*
%TO.C,D2*%
X29535380Y-107291095D02*
X28535380Y-107291095D01*
X28535380Y-107053000D01*
X28583000Y-106910142D01*
X28678238Y-106814904D01*
X28773476Y-106767285D01*
X28963952Y-106719666D01*
X29106809Y-106719666D01*
X29297285Y-106767285D01*
X29392523Y-106814904D01*
X29487761Y-106910142D01*
X29535380Y-107053000D01*
X29535380Y-107291095D01*
X28630619Y-106338714D02*
X28583000Y-106291095D01*
X28535380Y-106195857D01*
X28535380Y-105957761D01*
X28583000Y-105862523D01*
X28630619Y-105814904D01*
X28725857Y-105767285D01*
X28821095Y-105767285D01*
X28963952Y-105814904D01*
X29535380Y-106386333D01*
X29535380Y-105767285D01*
%TO.C,D1*%
X34995380Y-106021095D02*
X33995380Y-106021095D01*
X33995380Y-105783000D01*
X34043000Y-105640142D01*
X34138238Y-105544904D01*
X34233476Y-105497285D01*
X34423952Y-105449666D01*
X34566809Y-105449666D01*
X34757285Y-105497285D01*
X34852523Y-105544904D01*
X34947761Y-105640142D01*
X34995380Y-105783000D01*
X34995380Y-106021095D01*
X34995380Y-104497285D02*
X34995380Y-105068714D01*
X34995380Y-104783000D02*
X33995380Y-104783000D01*
X34138238Y-104878238D01*
X34233476Y-104973476D01*
X34281095Y-105068714D01*
%TO.C,C46*%
X34774142Y-57538857D02*
X34821761Y-57586476D01*
X34869380Y-57729333D01*
X34869380Y-57824571D01*
X34821761Y-57967428D01*
X34726523Y-58062666D01*
X34631285Y-58110285D01*
X34440809Y-58157904D01*
X34297952Y-58157904D01*
X34107476Y-58110285D01*
X34012238Y-58062666D01*
X33917000Y-57967428D01*
X33869380Y-57824571D01*
X33869380Y-57729333D01*
X33917000Y-57586476D01*
X33964619Y-57538857D01*
X34202714Y-56681714D02*
X34869380Y-56681714D01*
X33821761Y-56919809D02*
X34536047Y-57157904D01*
X34536047Y-56538857D01*
X33869380Y-55729333D02*
X33869380Y-55919809D01*
X33917000Y-56015047D01*
X33964619Y-56062666D01*
X34107476Y-56157904D01*
X34297952Y-56205523D01*
X34678904Y-56205523D01*
X34774142Y-56157904D01*
X34821761Y-56110285D01*
X34869380Y-56015047D01*
X34869380Y-55824571D01*
X34821761Y-55729333D01*
X34774142Y-55681714D01*
X34678904Y-55634095D01*
X34440809Y-55634095D01*
X34345571Y-55681714D01*
X34297952Y-55729333D01*
X34250333Y-55824571D01*
X34250333Y-56015047D01*
X34297952Y-56110285D01*
X34345571Y-56157904D01*
X34440809Y-56205523D01*
%TO.C,C45*%
X36933142Y-51823857D02*
X36980761Y-51871476D01*
X37028380Y-52014333D01*
X37028380Y-52109571D01*
X36980761Y-52252428D01*
X36885523Y-52347666D01*
X36790285Y-52395285D01*
X36599809Y-52442904D01*
X36456952Y-52442904D01*
X36266476Y-52395285D01*
X36171238Y-52347666D01*
X36076000Y-52252428D01*
X36028380Y-52109571D01*
X36028380Y-52014333D01*
X36076000Y-51871476D01*
X36123619Y-51823857D01*
X36361714Y-50966714D02*
X37028380Y-50966714D01*
X35980761Y-51204809D02*
X36695047Y-51442904D01*
X36695047Y-50823857D01*
X36028380Y-49966714D02*
X36028380Y-50442904D01*
X36504571Y-50490523D01*
X36456952Y-50442904D01*
X36409333Y-50347666D01*
X36409333Y-50109571D01*
X36456952Y-50014333D01*
X36504571Y-49966714D01*
X36599809Y-49919095D01*
X36837904Y-49919095D01*
X36933142Y-49966714D01*
X36980761Y-50014333D01*
X37028380Y-50109571D01*
X37028380Y-50347666D01*
X36980761Y-50442904D01*
X36933142Y-50490523D01*
%TO.C,C44*%
X31488142Y-56999142D02*
X31440523Y-57046761D01*
X31297666Y-57094380D01*
X31202428Y-57094380D01*
X31059571Y-57046761D01*
X30964333Y-56951523D01*
X30916714Y-56856285D01*
X30869095Y-56665809D01*
X30869095Y-56522952D01*
X30916714Y-56332476D01*
X30964333Y-56237238D01*
X31059571Y-56142000D01*
X31202428Y-56094380D01*
X31297666Y-56094380D01*
X31440523Y-56142000D01*
X31488142Y-56189619D01*
X32345285Y-56427714D02*
X32345285Y-57094380D01*
X32107190Y-56046761D02*
X31869095Y-56761047D01*
X32488142Y-56761047D01*
X33297666Y-56427714D02*
X33297666Y-57094380D01*
X33059571Y-56046761D02*
X32821476Y-56761047D01*
X33440523Y-56761047D01*
%TO.C,C43*%
X29948142Y-58173857D02*
X29995761Y-58221476D01*
X30043380Y-58364333D01*
X30043380Y-58459571D01*
X29995761Y-58602428D01*
X29900523Y-58697666D01*
X29805285Y-58745285D01*
X29614809Y-58792904D01*
X29471952Y-58792904D01*
X29281476Y-58745285D01*
X29186238Y-58697666D01*
X29091000Y-58602428D01*
X29043380Y-58459571D01*
X29043380Y-58364333D01*
X29091000Y-58221476D01*
X29138619Y-58173857D01*
X29376714Y-57316714D02*
X30043380Y-57316714D01*
X28995761Y-57554809D02*
X29710047Y-57792904D01*
X29710047Y-57173857D01*
X29043380Y-56888142D02*
X29043380Y-56269095D01*
X29424333Y-56602428D01*
X29424333Y-56459571D01*
X29471952Y-56364333D01*
X29519571Y-56316714D01*
X29614809Y-56269095D01*
X29852904Y-56269095D01*
X29948142Y-56316714D01*
X29995761Y-56364333D01*
X30043380Y-56459571D01*
X30043380Y-56745285D01*
X29995761Y-56840523D01*
X29948142Y-56888142D01*
%TO.C,C42*%
X46140642Y-41282857D02*
X46188261Y-41330476D01*
X46235880Y-41473333D01*
X46235880Y-41568571D01*
X46188261Y-41711428D01*
X46093023Y-41806666D01*
X45997785Y-41854285D01*
X45807309Y-41901904D01*
X45664452Y-41901904D01*
X45473976Y-41854285D01*
X45378738Y-41806666D01*
X45283500Y-41711428D01*
X45235880Y-41568571D01*
X45235880Y-41473333D01*
X45283500Y-41330476D01*
X45331119Y-41282857D01*
X45569214Y-40425714D02*
X46235880Y-40425714D01*
X45188261Y-40663809D02*
X45902547Y-40901904D01*
X45902547Y-40282857D01*
X45331119Y-39949523D02*
X45283500Y-39901904D01*
X45235880Y-39806666D01*
X45235880Y-39568571D01*
X45283500Y-39473333D01*
X45331119Y-39425714D01*
X45426357Y-39378095D01*
X45521595Y-39378095D01*
X45664452Y-39425714D01*
X46235880Y-39997142D01*
X46235880Y-39378095D01*
%TO.C,C41*%
X24947642Y-41949642D02*
X24900023Y-41997261D01*
X24757166Y-42044880D01*
X24661928Y-42044880D01*
X24519071Y-41997261D01*
X24423833Y-41902023D01*
X24376214Y-41806785D01*
X24328595Y-41616309D01*
X24328595Y-41473452D01*
X24376214Y-41282976D01*
X24423833Y-41187738D01*
X24519071Y-41092500D01*
X24661928Y-41044880D01*
X24757166Y-41044880D01*
X24900023Y-41092500D01*
X24947642Y-41140119D01*
X25804785Y-41378214D02*
X25804785Y-42044880D01*
X25566690Y-40997261D02*
X25328595Y-41711547D01*
X25947642Y-41711547D01*
X26852404Y-42044880D02*
X26280976Y-42044880D01*
X26566690Y-42044880D02*
X26566690Y-41044880D01*
X26471452Y-41187738D01*
X26376214Y-41282976D01*
X26280976Y-41330595D01*
%TO.C,C40*%
X24947642Y-46140642D02*
X24900023Y-46188261D01*
X24757166Y-46235880D01*
X24661928Y-46235880D01*
X24519071Y-46188261D01*
X24423833Y-46093023D01*
X24376214Y-45997785D01*
X24328595Y-45807309D01*
X24328595Y-45664452D01*
X24376214Y-45473976D01*
X24423833Y-45378738D01*
X24519071Y-45283500D01*
X24661928Y-45235880D01*
X24757166Y-45235880D01*
X24900023Y-45283500D01*
X24947642Y-45331119D01*
X25804785Y-45569214D02*
X25804785Y-46235880D01*
X25566690Y-45188261D02*
X25328595Y-45902547D01*
X25947642Y-45902547D01*
X26519071Y-45235880D02*
X26614309Y-45235880D01*
X26709547Y-45283500D01*
X26757166Y-45331119D01*
X26804785Y-45426357D01*
X26852404Y-45616833D01*
X26852404Y-45854928D01*
X26804785Y-46045404D01*
X26757166Y-46140642D01*
X26709547Y-46188261D01*
X26614309Y-46235880D01*
X26519071Y-46235880D01*
X26423833Y-46188261D01*
X26376214Y-46140642D01*
X26328595Y-46045404D01*
X26280976Y-45854928D01*
X26280976Y-45616833D01*
X26328595Y-45426357D01*
X26376214Y-45331119D01*
X26423833Y-45283500D01*
X26519071Y-45235880D01*
%TO.C,C38*%
X51728642Y-40139857D02*
X51776261Y-40187476D01*
X51823880Y-40330333D01*
X51823880Y-40425571D01*
X51776261Y-40568428D01*
X51681023Y-40663666D01*
X51585785Y-40711285D01*
X51395309Y-40758904D01*
X51252452Y-40758904D01*
X51061976Y-40711285D01*
X50966738Y-40663666D01*
X50871500Y-40568428D01*
X50823880Y-40425571D01*
X50823880Y-40330333D01*
X50871500Y-40187476D01*
X50919119Y-40139857D01*
X50823880Y-39806523D02*
X50823880Y-39187476D01*
X51204833Y-39520809D01*
X51204833Y-39377952D01*
X51252452Y-39282714D01*
X51300071Y-39235095D01*
X51395309Y-39187476D01*
X51633404Y-39187476D01*
X51728642Y-39235095D01*
X51776261Y-39282714D01*
X51823880Y-39377952D01*
X51823880Y-39663666D01*
X51776261Y-39758904D01*
X51728642Y-39806523D01*
X51252452Y-38616047D02*
X51204833Y-38711285D01*
X51157214Y-38758904D01*
X51061976Y-38806523D01*
X51014357Y-38806523D01*
X50919119Y-38758904D01*
X50871500Y-38711285D01*
X50823880Y-38616047D01*
X50823880Y-38425571D01*
X50871500Y-38330333D01*
X50919119Y-38282714D01*
X51014357Y-38235095D01*
X51061976Y-38235095D01*
X51157214Y-38282714D01*
X51204833Y-38330333D01*
X51252452Y-38425571D01*
X51252452Y-38616047D01*
X51300071Y-38711285D01*
X51347690Y-38758904D01*
X51442928Y-38806523D01*
X51633404Y-38806523D01*
X51728642Y-38758904D01*
X51776261Y-38711285D01*
X51823880Y-38616047D01*
X51823880Y-38425571D01*
X51776261Y-38330333D01*
X51728642Y-38282714D01*
X51633404Y-38235095D01*
X51442928Y-38235095D01*
X51347690Y-38282714D01*
X51300071Y-38330333D01*
X51252452Y-38425571D01*
%TO.C,C37*%
X30726142Y-48109142D02*
X30678523Y-48156761D01*
X30535666Y-48204380D01*
X30440428Y-48204380D01*
X30297571Y-48156761D01*
X30202333Y-48061523D01*
X30154714Y-47966285D01*
X30107095Y-47775809D01*
X30107095Y-47632952D01*
X30154714Y-47442476D01*
X30202333Y-47347238D01*
X30297571Y-47252000D01*
X30440428Y-47204380D01*
X30535666Y-47204380D01*
X30678523Y-47252000D01*
X30726142Y-47299619D01*
X31059476Y-47204380D02*
X31678523Y-47204380D01*
X31345190Y-47585333D01*
X31488047Y-47585333D01*
X31583285Y-47632952D01*
X31630904Y-47680571D01*
X31678523Y-47775809D01*
X31678523Y-48013904D01*
X31630904Y-48109142D01*
X31583285Y-48156761D01*
X31488047Y-48204380D01*
X31202333Y-48204380D01*
X31107095Y-48156761D01*
X31059476Y-48109142D01*
X32011857Y-47204380D02*
X32678523Y-47204380D01*
X32249952Y-48204380D01*
%TO.C,C32*%
X54713142Y-49855357D02*
X54760761Y-49902976D01*
X54808380Y-50045833D01*
X54808380Y-50141071D01*
X54760761Y-50283928D01*
X54665523Y-50379166D01*
X54570285Y-50426785D01*
X54379809Y-50474404D01*
X54236952Y-50474404D01*
X54046476Y-50426785D01*
X53951238Y-50379166D01*
X53856000Y-50283928D01*
X53808380Y-50141071D01*
X53808380Y-50045833D01*
X53856000Y-49902976D01*
X53903619Y-49855357D01*
X53808380Y-49522023D02*
X53808380Y-48902976D01*
X54189333Y-49236309D01*
X54189333Y-49093452D01*
X54236952Y-48998214D01*
X54284571Y-48950595D01*
X54379809Y-48902976D01*
X54617904Y-48902976D01*
X54713142Y-48950595D01*
X54760761Y-48998214D01*
X54808380Y-49093452D01*
X54808380Y-49379166D01*
X54760761Y-49474404D01*
X54713142Y-49522023D01*
X53903619Y-48522023D02*
X53856000Y-48474404D01*
X53808380Y-48379166D01*
X53808380Y-48141071D01*
X53856000Y-48045833D01*
X53903619Y-47998214D01*
X53998857Y-47950595D01*
X54094095Y-47950595D01*
X54236952Y-47998214D01*
X54808380Y-48569642D01*
X54808380Y-47950595D01*
%TO.C,C29*%
X50919142Y-42902142D02*
X50871523Y-42949761D01*
X50728666Y-42997380D01*
X50633428Y-42997380D01*
X50490571Y-42949761D01*
X50395333Y-42854523D01*
X50347714Y-42759285D01*
X50300095Y-42568809D01*
X50300095Y-42425952D01*
X50347714Y-42235476D01*
X50395333Y-42140238D01*
X50490571Y-42045000D01*
X50633428Y-41997380D01*
X50728666Y-41997380D01*
X50871523Y-42045000D01*
X50919142Y-42092619D01*
X51300095Y-42092619D02*
X51347714Y-42045000D01*
X51442952Y-41997380D01*
X51681047Y-41997380D01*
X51776285Y-42045000D01*
X51823904Y-42092619D01*
X51871523Y-42187857D01*
X51871523Y-42283095D01*
X51823904Y-42425952D01*
X51252476Y-42997380D01*
X51871523Y-42997380D01*
X52347714Y-42997380D02*
X52538190Y-42997380D01*
X52633428Y-42949761D01*
X52681047Y-42902142D01*
X52776285Y-42759285D01*
X52823904Y-42568809D01*
X52823904Y-42187857D01*
X52776285Y-42092619D01*
X52728666Y-42045000D01*
X52633428Y-41997380D01*
X52442952Y-41997380D01*
X52347714Y-42045000D01*
X52300095Y-42092619D01*
X52252476Y-42187857D01*
X52252476Y-42425952D01*
X52300095Y-42521190D01*
X52347714Y-42568809D01*
X52442952Y-42616428D01*
X52633428Y-42616428D01*
X52728666Y-42568809D01*
X52776285Y-42521190D01*
X52823904Y-42425952D01*
%TO.C,C27*%
X50601642Y-46648642D02*
X50554023Y-46696261D01*
X50411166Y-46743880D01*
X50315928Y-46743880D01*
X50173071Y-46696261D01*
X50077833Y-46601023D01*
X50030214Y-46505785D01*
X49982595Y-46315309D01*
X49982595Y-46172452D01*
X50030214Y-45981976D01*
X50077833Y-45886738D01*
X50173071Y-45791500D01*
X50315928Y-45743880D01*
X50411166Y-45743880D01*
X50554023Y-45791500D01*
X50601642Y-45839119D01*
X50982595Y-45839119D02*
X51030214Y-45791500D01*
X51125452Y-45743880D01*
X51363547Y-45743880D01*
X51458785Y-45791500D01*
X51506404Y-45839119D01*
X51554023Y-45934357D01*
X51554023Y-46029595D01*
X51506404Y-46172452D01*
X50934976Y-46743880D01*
X51554023Y-46743880D01*
X51887357Y-45743880D02*
X52554023Y-45743880D01*
X52125452Y-46743880D01*
%TO.C,C26*%
X58015142Y-50172857D02*
X58062761Y-50220476D01*
X58110380Y-50363333D01*
X58110380Y-50458571D01*
X58062761Y-50601428D01*
X57967523Y-50696666D01*
X57872285Y-50744285D01*
X57681809Y-50791904D01*
X57538952Y-50791904D01*
X57348476Y-50744285D01*
X57253238Y-50696666D01*
X57158000Y-50601428D01*
X57110380Y-50458571D01*
X57110380Y-50363333D01*
X57158000Y-50220476D01*
X57205619Y-50172857D01*
X57205619Y-49791904D02*
X57158000Y-49744285D01*
X57110380Y-49649047D01*
X57110380Y-49410952D01*
X57158000Y-49315714D01*
X57205619Y-49268095D01*
X57300857Y-49220476D01*
X57396095Y-49220476D01*
X57538952Y-49268095D01*
X58110380Y-49839523D01*
X58110380Y-49220476D01*
X57110380Y-48363333D02*
X57110380Y-48553809D01*
X57158000Y-48649047D01*
X57205619Y-48696666D01*
X57348476Y-48791904D01*
X57538952Y-48839523D01*
X57919904Y-48839523D01*
X58015142Y-48791904D01*
X58062761Y-48744285D01*
X58110380Y-48649047D01*
X58110380Y-48458571D01*
X58062761Y-48363333D01*
X58015142Y-48315714D01*
X57919904Y-48268095D01*
X57681809Y-48268095D01*
X57586571Y-48315714D01*
X57538952Y-48363333D01*
X57491333Y-48458571D01*
X57491333Y-48649047D01*
X57538952Y-48744285D01*
X57586571Y-48791904D01*
X57681809Y-48839523D01*
%TO.C,C25*%
X22852142Y-49696642D02*
X22804523Y-49744261D01*
X22661666Y-49791880D01*
X22566428Y-49791880D01*
X22423571Y-49744261D01*
X22328333Y-49649023D01*
X22280714Y-49553785D01*
X22233095Y-49363309D01*
X22233095Y-49220452D01*
X22280714Y-49029976D01*
X22328333Y-48934738D01*
X22423571Y-48839500D01*
X22566428Y-48791880D01*
X22661666Y-48791880D01*
X22804523Y-48839500D01*
X22852142Y-48887119D01*
X23233095Y-48887119D02*
X23280714Y-48839500D01*
X23375952Y-48791880D01*
X23614047Y-48791880D01*
X23709285Y-48839500D01*
X23756904Y-48887119D01*
X23804523Y-48982357D01*
X23804523Y-49077595D01*
X23756904Y-49220452D01*
X23185476Y-49791880D01*
X23804523Y-49791880D01*
X24709285Y-48791880D02*
X24233095Y-48791880D01*
X24185476Y-49268071D01*
X24233095Y-49220452D01*
X24328333Y-49172833D01*
X24566428Y-49172833D01*
X24661666Y-49220452D01*
X24709285Y-49268071D01*
X24756904Y-49363309D01*
X24756904Y-49601404D01*
X24709285Y-49696642D01*
X24661666Y-49744261D01*
X24566428Y-49791880D01*
X24328333Y-49791880D01*
X24233095Y-49744261D01*
X24185476Y-49696642D01*
%TO.C,C24*%
X28170142Y-57665857D02*
X28217761Y-57713476D01*
X28265380Y-57856333D01*
X28265380Y-57951571D01*
X28217761Y-58094428D01*
X28122523Y-58189666D01*
X28027285Y-58237285D01*
X27836809Y-58284904D01*
X27693952Y-58284904D01*
X27503476Y-58237285D01*
X27408238Y-58189666D01*
X27313000Y-58094428D01*
X27265380Y-57951571D01*
X27265380Y-57856333D01*
X27313000Y-57713476D01*
X27360619Y-57665857D01*
X27360619Y-57284904D02*
X27313000Y-57237285D01*
X27265380Y-57142047D01*
X27265380Y-56903952D01*
X27313000Y-56808714D01*
X27360619Y-56761095D01*
X27455857Y-56713476D01*
X27551095Y-56713476D01*
X27693952Y-56761095D01*
X28265380Y-57332523D01*
X28265380Y-56713476D01*
X27598714Y-55856333D02*
X28265380Y-55856333D01*
X27217761Y-56094428D02*
X27932047Y-56332523D01*
X27932047Y-55713476D01*
%TO.C,C23*%
X49522142Y-37441142D02*
X49474523Y-37488761D01*
X49331666Y-37536380D01*
X49236428Y-37536380D01*
X49093571Y-37488761D01*
X48998333Y-37393523D01*
X48950714Y-37298285D01*
X48903095Y-37107809D01*
X48903095Y-36964952D01*
X48950714Y-36774476D01*
X48998333Y-36679238D01*
X49093571Y-36584000D01*
X49236428Y-36536380D01*
X49331666Y-36536380D01*
X49474523Y-36584000D01*
X49522142Y-36631619D01*
X49903095Y-36631619D02*
X49950714Y-36584000D01*
X50045952Y-36536380D01*
X50284047Y-36536380D01*
X50379285Y-36584000D01*
X50426904Y-36631619D01*
X50474523Y-36726857D01*
X50474523Y-36822095D01*
X50426904Y-36964952D01*
X49855476Y-37536380D01*
X50474523Y-37536380D01*
X50807857Y-36536380D02*
X51426904Y-36536380D01*
X51093571Y-36917333D01*
X51236428Y-36917333D01*
X51331666Y-36964952D01*
X51379285Y-37012571D01*
X51426904Y-37107809D01*
X51426904Y-37345904D01*
X51379285Y-37441142D01*
X51331666Y-37488761D01*
X51236428Y-37536380D01*
X50950714Y-37536380D01*
X50855476Y-37488761D01*
X50807857Y-37441142D01*
%TO.C,C22*%
X46585142Y-49791857D02*
X46632761Y-49839476D01*
X46680380Y-49982333D01*
X46680380Y-50077571D01*
X46632761Y-50220428D01*
X46537523Y-50315666D01*
X46442285Y-50363285D01*
X46251809Y-50410904D01*
X46108952Y-50410904D01*
X45918476Y-50363285D01*
X45823238Y-50315666D01*
X45728000Y-50220428D01*
X45680380Y-50077571D01*
X45680380Y-49982333D01*
X45728000Y-49839476D01*
X45775619Y-49791857D01*
X45775619Y-49410904D02*
X45728000Y-49363285D01*
X45680380Y-49268047D01*
X45680380Y-49029952D01*
X45728000Y-48934714D01*
X45775619Y-48887095D01*
X45870857Y-48839476D01*
X45966095Y-48839476D01*
X46108952Y-48887095D01*
X46680380Y-49458523D01*
X46680380Y-48839476D01*
X45775619Y-48458523D02*
X45728000Y-48410904D01*
X45680380Y-48315666D01*
X45680380Y-48077571D01*
X45728000Y-47982333D01*
X45775619Y-47934714D01*
X45870857Y-47887095D01*
X45966095Y-47887095D01*
X46108952Y-47934714D01*
X46680380Y-48506142D01*
X46680380Y-47887095D01*
%TO.C,C21*%
X44553142Y-49791857D02*
X44600761Y-49839476D01*
X44648380Y-49982333D01*
X44648380Y-50077571D01*
X44600761Y-50220428D01*
X44505523Y-50315666D01*
X44410285Y-50363285D01*
X44219809Y-50410904D01*
X44076952Y-50410904D01*
X43886476Y-50363285D01*
X43791238Y-50315666D01*
X43696000Y-50220428D01*
X43648380Y-50077571D01*
X43648380Y-49982333D01*
X43696000Y-49839476D01*
X43743619Y-49791857D01*
X43743619Y-49410904D02*
X43696000Y-49363285D01*
X43648380Y-49268047D01*
X43648380Y-49029952D01*
X43696000Y-48934714D01*
X43743619Y-48887095D01*
X43838857Y-48839476D01*
X43934095Y-48839476D01*
X44076952Y-48887095D01*
X44648380Y-49458523D01*
X44648380Y-48839476D01*
X44648380Y-47887095D02*
X44648380Y-48458523D01*
X44648380Y-48172809D02*
X43648380Y-48172809D01*
X43791238Y-48268047D01*
X43886476Y-48363285D01*
X43934095Y-48458523D01*
%TO.C,C19*%
X29122642Y-36710857D02*
X29170261Y-36758476D01*
X29217880Y-36901333D01*
X29217880Y-36996571D01*
X29170261Y-37139428D01*
X29075023Y-37234666D01*
X28979785Y-37282285D01*
X28789309Y-37329904D01*
X28646452Y-37329904D01*
X28455976Y-37282285D01*
X28360738Y-37234666D01*
X28265500Y-37139428D01*
X28217880Y-36996571D01*
X28217880Y-36901333D01*
X28265500Y-36758476D01*
X28313119Y-36710857D01*
X29217880Y-35758476D02*
X29217880Y-36329904D01*
X29217880Y-36044190D02*
X28217880Y-36044190D01*
X28360738Y-36139428D01*
X28455976Y-36234666D01*
X28503595Y-36329904D01*
X29217880Y-35282285D02*
X29217880Y-35091809D01*
X29170261Y-34996571D01*
X29122642Y-34948952D01*
X28979785Y-34853714D01*
X28789309Y-34806095D01*
X28408357Y-34806095D01*
X28313119Y-34853714D01*
X28265500Y-34901333D01*
X28217880Y-34996571D01*
X28217880Y-35187047D01*
X28265500Y-35282285D01*
X28313119Y-35329904D01*
X28408357Y-35377523D01*
X28646452Y-35377523D01*
X28741690Y-35329904D01*
X28789309Y-35282285D01*
X28836928Y-35187047D01*
X28836928Y-34996571D01*
X28789309Y-34901333D01*
X28741690Y-34853714D01*
X28646452Y-34806095D01*
%TO.C,C18*%
X27662142Y-36710857D02*
X27709761Y-36758476D01*
X27757380Y-36901333D01*
X27757380Y-36996571D01*
X27709761Y-37139428D01*
X27614523Y-37234666D01*
X27519285Y-37282285D01*
X27328809Y-37329904D01*
X27185952Y-37329904D01*
X26995476Y-37282285D01*
X26900238Y-37234666D01*
X26805000Y-37139428D01*
X26757380Y-36996571D01*
X26757380Y-36901333D01*
X26805000Y-36758476D01*
X26852619Y-36710857D01*
X27757380Y-35758476D02*
X27757380Y-36329904D01*
X27757380Y-36044190D02*
X26757380Y-36044190D01*
X26900238Y-36139428D01*
X26995476Y-36234666D01*
X27043095Y-36329904D01*
X27185952Y-35187047D02*
X27138333Y-35282285D01*
X27090714Y-35329904D01*
X26995476Y-35377523D01*
X26947857Y-35377523D01*
X26852619Y-35329904D01*
X26805000Y-35282285D01*
X26757380Y-35187047D01*
X26757380Y-34996571D01*
X26805000Y-34901333D01*
X26852619Y-34853714D01*
X26947857Y-34806095D01*
X26995476Y-34806095D01*
X27090714Y-34853714D01*
X27138333Y-34901333D01*
X27185952Y-34996571D01*
X27185952Y-35187047D01*
X27233571Y-35282285D01*
X27281190Y-35329904D01*
X27376428Y-35377523D01*
X27566904Y-35377523D01*
X27662142Y-35329904D01*
X27709761Y-35282285D01*
X27757380Y-35187047D01*
X27757380Y-34996571D01*
X27709761Y-34901333D01*
X27662142Y-34853714D01*
X27566904Y-34806095D01*
X27376428Y-34806095D01*
X27281190Y-34853714D01*
X27233571Y-34901333D01*
X27185952Y-34996571D01*
%TO.C,C16*%
X41378142Y-86494857D02*
X41425761Y-86542476D01*
X41473380Y-86685333D01*
X41473380Y-86780571D01*
X41425761Y-86923428D01*
X41330523Y-87018666D01*
X41235285Y-87066285D01*
X41044809Y-87113904D01*
X40901952Y-87113904D01*
X40711476Y-87066285D01*
X40616238Y-87018666D01*
X40521000Y-86923428D01*
X40473380Y-86780571D01*
X40473380Y-86685333D01*
X40521000Y-86542476D01*
X40568619Y-86494857D01*
X41473380Y-85542476D02*
X41473380Y-86113904D01*
X41473380Y-85828190D02*
X40473380Y-85828190D01*
X40616238Y-85923428D01*
X40711476Y-86018666D01*
X40759095Y-86113904D01*
X40473380Y-84685333D02*
X40473380Y-84875809D01*
X40521000Y-84971047D01*
X40568619Y-85018666D01*
X40711476Y-85113904D01*
X40901952Y-85161523D01*
X41282904Y-85161523D01*
X41378142Y-85113904D01*
X41425761Y-85066285D01*
X41473380Y-84971047D01*
X41473380Y-84780571D01*
X41425761Y-84685333D01*
X41378142Y-84637714D01*
X41282904Y-84590095D01*
X41044809Y-84590095D01*
X40949571Y-84637714D01*
X40901952Y-84685333D01*
X40854333Y-84780571D01*
X40854333Y-84971047D01*
X40901952Y-85066285D01*
X40949571Y-85113904D01*
X41044809Y-85161523D01*
%TO.C,C15*%
X57539142Y-62497857D02*
X57586761Y-62545476D01*
X57634380Y-62688333D01*
X57634380Y-62783571D01*
X57586761Y-62926428D01*
X57491523Y-63021666D01*
X57396285Y-63069285D01*
X57205809Y-63116904D01*
X57062952Y-63116904D01*
X56872476Y-63069285D01*
X56777238Y-63021666D01*
X56682000Y-62926428D01*
X56634380Y-62783571D01*
X56634380Y-62688333D01*
X56682000Y-62545476D01*
X56729619Y-62497857D01*
X57634380Y-61545476D02*
X57634380Y-62116904D01*
X57634380Y-61831190D02*
X56634380Y-61831190D01*
X56777238Y-61926428D01*
X56872476Y-62021666D01*
X56920095Y-62116904D01*
X56634380Y-60640714D02*
X56634380Y-61116904D01*
X57110571Y-61164523D01*
X57062952Y-61116904D01*
X57015333Y-61021666D01*
X57015333Y-60783571D01*
X57062952Y-60688333D01*
X57110571Y-60640714D01*
X57205809Y-60593095D01*
X57443904Y-60593095D01*
X57539142Y-60640714D01*
X57586761Y-60688333D01*
X57634380Y-60783571D01*
X57634380Y-61021666D01*
X57586761Y-61116904D01*
X57539142Y-61164523D01*
%TO.C,C10*%
X51919142Y-56395857D02*
X51966761Y-56443476D01*
X52014380Y-56586333D01*
X52014380Y-56681571D01*
X51966761Y-56824428D01*
X51871523Y-56919666D01*
X51776285Y-56967285D01*
X51585809Y-57014904D01*
X51442952Y-57014904D01*
X51252476Y-56967285D01*
X51157238Y-56919666D01*
X51062000Y-56824428D01*
X51014380Y-56681571D01*
X51014380Y-56586333D01*
X51062000Y-56443476D01*
X51109619Y-56395857D01*
X52014380Y-55443476D02*
X52014380Y-56014904D01*
X52014380Y-55729190D02*
X51014380Y-55729190D01*
X51157238Y-55824428D01*
X51252476Y-55919666D01*
X51300095Y-56014904D01*
X51014380Y-54824428D02*
X51014380Y-54729190D01*
X51062000Y-54633952D01*
X51109619Y-54586333D01*
X51204857Y-54538714D01*
X51395333Y-54491095D01*
X51633428Y-54491095D01*
X51823904Y-54538714D01*
X51919142Y-54586333D01*
X51966761Y-54633952D01*
X52014380Y-54729190D01*
X52014380Y-54824428D01*
X51966761Y-54919666D01*
X51919142Y-54967285D01*
X51823904Y-55014904D01*
X51633428Y-55062523D01*
X51395333Y-55062523D01*
X51204857Y-55014904D01*
X51109619Y-54967285D01*
X51062000Y-54919666D01*
X51014380Y-54824428D01*
%TO.C,C9*%
X37854833Y-87226142D02*
X37807214Y-87273761D01*
X37664357Y-87321380D01*
X37569119Y-87321380D01*
X37426261Y-87273761D01*
X37331023Y-87178523D01*
X37283404Y-87083285D01*
X37235785Y-86892809D01*
X37235785Y-86749952D01*
X37283404Y-86559476D01*
X37331023Y-86464238D01*
X37426261Y-86369000D01*
X37569119Y-86321380D01*
X37664357Y-86321380D01*
X37807214Y-86369000D01*
X37854833Y-86416619D01*
X38331023Y-87321380D02*
X38521500Y-87321380D01*
X38616738Y-87273761D01*
X38664357Y-87226142D01*
X38759595Y-87083285D01*
X38807214Y-86892809D01*
X38807214Y-86511857D01*
X38759595Y-86416619D01*
X38711976Y-86369000D01*
X38616738Y-86321380D01*
X38426261Y-86321380D01*
X38331023Y-86369000D01*
X38283404Y-86416619D01*
X38235785Y-86511857D01*
X38235785Y-86749952D01*
X38283404Y-86845190D01*
X38331023Y-86892809D01*
X38426261Y-86940428D01*
X38616738Y-86940428D01*
X38711976Y-86892809D01*
X38759595Y-86845190D01*
X38807214Y-86749952D01*
%TO.C,C8*%
X52046142Y-67555166D02*
X52093761Y-67602785D01*
X52141380Y-67745642D01*
X52141380Y-67840880D01*
X52093761Y-67983738D01*
X51998523Y-68078976D01*
X51903285Y-68126595D01*
X51712809Y-68174214D01*
X51569952Y-68174214D01*
X51379476Y-68126595D01*
X51284238Y-68078976D01*
X51189000Y-67983738D01*
X51141380Y-67840880D01*
X51141380Y-67745642D01*
X51189000Y-67602785D01*
X51236619Y-67555166D01*
X51569952Y-66983738D02*
X51522333Y-67078976D01*
X51474714Y-67126595D01*
X51379476Y-67174214D01*
X51331857Y-67174214D01*
X51236619Y-67126595D01*
X51189000Y-67078976D01*
X51141380Y-66983738D01*
X51141380Y-66793261D01*
X51189000Y-66698023D01*
X51236619Y-66650404D01*
X51331857Y-66602785D01*
X51379476Y-66602785D01*
X51474714Y-66650404D01*
X51522333Y-66698023D01*
X51569952Y-66793261D01*
X51569952Y-66983738D01*
X51617571Y-67078976D01*
X51665190Y-67126595D01*
X51760428Y-67174214D01*
X51950904Y-67174214D01*
X52046142Y-67126595D01*
X52093761Y-67078976D01*
X52141380Y-66983738D01*
X52141380Y-66793261D01*
X52093761Y-66698023D01*
X52046142Y-66650404D01*
X51950904Y-66602785D01*
X51760428Y-66602785D01*
X51665190Y-66650404D01*
X51617571Y-66698023D01*
X51569952Y-66793261D01*
%TO.C,C7*%
X40536833Y-98528142D02*
X40489214Y-98575761D01*
X40346357Y-98623380D01*
X40251119Y-98623380D01*
X40108261Y-98575761D01*
X40013023Y-98480523D01*
X39965404Y-98385285D01*
X39917785Y-98194809D01*
X39917785Y-98051952D01*
X39965404Y-97861476D01*
X40013023Y-97766238D01*
X40108261Y-97671000D01*
X40251119Y-97623380D01*
X40346357Y-97623380D01*
X40489214Y-97671000D01*
X40536833Y-97718619D01*
X40870166Y-97623380D02*
X41536833Y-97623380D01*
X41108261Y-98623380D01*
%TO.C,C5*%
X30694333Y-99163142D02*
X30646714Y-99210761D01*
X30503857Y-99258380D01*
X30408619Y-99258380D01*
X30265761Y-99210761D01*
X30170523Y-99115523D01*
X30122904Y-99020285D01*
X30075285Y-98829809D01*
X30075285Y-98686952D01*
X30122904Y-98496476D01*
X30170523Y-98401238D01*
X30265761Y-98306000D01*
X30408619Y-98258380D01*
X30503857Y-98258380D01*
X30646714Y-98306000D01*
X30694333Y-98353619D01*
X31599095Y-98258380D02*
X31122904Y-98258380D01*
X31075285Y-98734571D01*
X31122904Y-98686952D01*
X31218142Y-98639333D01*
X31456238Y-98639333D01*
X31551476Y-98686952D01*
X31599095Y-98734571D01*
X31646714Y-98829809D01*
X31646714Y-99067904D01*
X31599095Y-99163142D01*
X31551476Y-99210761D01*
X31456238Y-99258380D01*
X31218142Y-99258380D01*
X31122904Y-99210761D01*
X31075285Y-99163142D01*
%TO.C,C4*%
X21105833Y-88939642D02*
X21058214Y-88987261D01*
X20915357Y-89034880D01*
X20820119Y-89034880D01*
X20677261Y-88987261D01*
X20582023Y-88892023D01*
X20534404Y-88796785D01*
X20486785Y-88606309D01*
X20486785Y-88463452D01*
X20534404Y-88272976D01*
X20582023Y-88177738D01*
X20677261Y-88082500D01*
X20820119Y-88034880D01*
X20915357Y-88034880D01*
X21058214Y-88082500D01*
X21105833Y-88130119D01*
X21962976Y-88368214D02*
X21962976Y-89034880D01*
X21724880Y-87987261D02*
X21486785Y-88701547D01*
X22105833Y-88701547D01*
%TO.C,C2*%
X33424833Y-89003142D02*
X33377214Y-89050761D01*
X33234357Y-89098380D01*
X33139119Y-89098380D01*
X32996261Y-89050761D01*
X32901023Y-88955523D01*
X32853404Y-88860285D01*
X32805785Y-88669809D01*
X32805785Y-88526952D01*
X32853404Y-88336476D01*
X32901023Y-88241238D01*
X32996261Y-88146000D01*
X33139119Y-88098380D01*
X33234357Y-88098380D01*
X33377214Y-88146000D01*
X33424833Y-88193619D01*
X33805785Y-88193619D02*
X33853404Y-88146000D01*
X33948642Y-88098380D01*
X34186738Y-88098380D01*
X34281976Y-88146000D01*
X34329595Y-88193619D01*
X34377214Y-88288857D01*
X34377214Y-88384095D01*
X34329595Y-88526952D01*
X33758166Y-89098380D01*
X34377214Y-89098380D01*
%TO.C,C1*%
X25741333Y-108688142D02*
X25693714Y-108735761D01*
X25550857Y-108783380D01*
X25455619Y-108783380D01*
X25312761Y-108735761D01*
X25217523Y-108640523D01*
X25169904Y-108545285D01*
X25122285Y-108354809D01*
X25122285Y-108211952D01*
X25169904Y-108021476D01*
X25217523Y-107926238D01*
X25312761Y-107831000D01*
X25455619Y-107783380D01*
X25550857Y-107783380D01*
X25693714Y-107831000D01*
X25741333Y-107878619D01*
X26693714Y-108783380D02*
X26122285Y-108783380D01*
X26408000Y-108783380D02*
X26408000Y-107783380D01*
X26312761Y-107926238D01*
X26217523Y-108021476D01*
X26122285Y-108069095D01*
%TO.C,BT1*%
X55665785Y-69080071D02*
X55808642Y-69127690D01*
X55856261Y-69175309D01*
X55903880Y-69270547D01*
X55903880Y-69413404D01*
X55856261Y-69508642D01*
X55808642Y-69556261D01*
X55713404Y-69603880D01*
X55332452Y-69603880D01*
X55332452Y-68603880D01*
X55665785Y-68603880D01*
X55761023Y-68651500D01*
X55808642Y-68699119D01*
X55856261Y-68794357D01*
X55856261Y-68889595D01*
X55808642Y-68984833D01*
X55761023Y-69032452D01*
X55665785Y-69080071D01*
X55332452Y-69080071D01*
X56189595Y-68603880D02*
X56761023Y-68603880D01*
X56475309Y-69603880D02*
X56475309Y-68603880D01*
X57618166Y-69603880D02*
X57046738Y-69603880D01*
X57332452Y-69603880D02*
X57332452Y-68603880D01*
X57237214Y-68746738D01*
X57141976Y-68841976D01*
X57046738Y-68889595D01*
%TD*%
M02*
