%TF.GenerationSoftware,KiCad,Pcbnew,5.1.6-c6e7f7d~86~ubuntu19.10.1*%
%TF.CreationDate,2020-05-21T12:21:41+02:00*%
%TF.ProjectId,BioElectricalSensor,42696f45-6c65-4637-9472-6963616c5365,rev?*%
%TF.SameCoordinates,Original*%
%TF.FileFunction,Soldermask,Bot*%
%TF.FilePolarity,Negative*%
%FSLAX46Y46*%
G04 Gerber Fmt 4.6, Leading zero omitted, Abs format (unit mm)*
G04 Created by KiCad (PCBNEW 5.1.6-c6e7f7d~86~ubuntu19.10.1) date 2020-05-21 12:21:41*
%MOMM*%
%LPD*%
G01*
G04 APERTURE LIST*
%ADD10C,5.700000*%
%ADD11C,3.300000*%
%ADD12O,2.100000X1.624000*%
%ADD13C,1.624000*%
%ADD14O,1.100000X2.200000*%
%ADD15C,0.750000*%
%ADD16O,1.100000X1.700000*%
%ADD17R,0.600000X0.900000*%
%ADD18R,0.500000X0.900000*%
%ADD19R,1.160000X0.750000*%
%ADD20R,2.100000X1.600000*%
%ADD21O,2.100000X1.600000*%
%ADD22O,1.800000X1.800000*%
%ADD23R,1.800000X1.800000*%
%ADD24C,1.100000*%
%ADD25R,1.700000X0.800000*%
%ADD26R,2.300000X1.300000*%
%ADD27R,1.600000X1.300000*%
%ADD28R,1.600000X1.700000*%
%ADD29O,2.100000X1.800000*%
G04 APERTURE END LIST*
D10*
%TO.C,H3*%
X23241000Y-36195000D03*
%TD*%
%TO.C,H2*%
X24638000Y-80645000D03*
%TD*%
D11*
%TO.C,H1*%
X54737000Y-106934000D03*
%TD*%
D12*
%TO.C,SW1*%
X44958000Y-82762000D03*
X44958000Y-71162000D03*
D13*
X44958000Y-79962000D03*
X44958000Y-73962000D03*
X44958000Y-76962000D03*
%TD*%
%TO.C,C33*%
G36*
G01*
X36516500Y-44931250D02*
X36516500Y-43968750D01*
G75*
G02*
X36785250Y-43700000I268750J0D01*
G01*
X37322750Y-43700000D01*
G75*
G02*
X37591500Y-43968750I0J-268750D01*
G01*
X37591500Y-44931250D01*
G75*
G02*
X37322750Y-45200000I-268750J0D01*
G01*
X36785250Y-45200000D01*
G75*
G02*
X36516500Y-44931250I0J268750D01*
G01*
G37*
G36*
G01*
X34641500Y-44931250D02*
X34641500Y-43968750D01*
G75*
G02*
X34910250Y-43700000I268750J0D01*
G01*
X35447750Y-43700000D01*
G75*
G02*
X35716500Y-43968750I0J-268750D01*
G01*
X35716500Y-44931250D01*
G75*
G02*
X35447750Y-45200000I-268750J0D01*
G01*
X34910250Y-45200000D01*
G75*
G02*
X34641500Y-44931250I0J268750D01*
G01*
G37*
%TD*%
%TO.C,R11*%
G36*
G01*
X41080500Y-108484750D02*
X41080500Y-109447250D01*
G75*
G02*
X40811750Y-109716000I-268750J0D01*
G01*
X40274250Y-109716000D01*
G75*
G02*
X40005500Y-109447250I0J268750D01*
G01*
X40005500Y-108484750D01*
G75*
G02*
X40274250Y-108216000I268750J0D01*
G01*
X40811750Y-108216000D01*
G75*
G02*
X41080500Y-108484750I0J-268750D01*
G01*
G37*
G36*
G01*
X42955500Y-108484750D02*
X42955500Y-109447250D01*
G75*
G02*
X42686750Y-109716000I-268750J0D01*
G01*
X42149250Y-109716000D01*
G75*
G02*
X41880500Y-109447250I0J268750D01*
G01*
X41880500Y-108484750D01*
G75*
G02*
X42149250Y-108216000I268750J0D01*
G01*
X42686750Y-108216000D01*
G75*
G02*
X42955500Y-108484750I0J-268750D01*
G01*
G37*
%TD*%
%TO.C,R10*%
G36*
G01*
X37943500Y-109447250D02*
X37943500Y-108484750D01*
G75*
G02*
X38212250Y-108216000I268750J0D01*
G01*
X38749750Y-108216000D01*
G75*
G02*
X39018500Y-108484750I0J-268750D01*
G01*
X39018500Y-109447250D01*
G75*
G02*
X38749750Y-109716000I-268750J0D01*
G01*
X38212250Y-109716000D01*
G75*
G02*
X37943500Y-109447250I0J268750D01*
G01*
G37*
G36*
G01*
X36068500Y-109447250D02*
X36068500Y-108484750D01*
G75*
G02*
X36337250Y-108216000I268750J0D01*
G01*
X36874750Y-108216000D01*
G75*
G02*
X37143500Y-108484750I0J-268750D01*
G01*
X37143500Y-109447250D01*
G75*
G02*
X36874750Y-109716000I-268750J0D01*
G01*
X36337250Y-109716000D01*
G75*
G02*
X36068500Y-109447250I0J268750D01*
G01*
G37*
%TD*%
D14*
%TO.C,P1*%
X43789000Y-103404000D03*
X35149000Y-103404000D03*
D15*
X36579000Y-103934000D03*
D16*
X35149000Y-107584000D03*
D15*
X42359000Y-103934000D03*
D16*
X43789000Y-107584000D03*
%TD*%
D17*
%TO.C,CN3*%
X39611000Y-33296000D03*
D18*
X38811000Y-33296000D03*
D17*
X37211000Y-33296000D03*
D18*
X38011000Y-33296000D03*
D17*
X39611000Y-31496000D03*
D18*
X38011000Y-31496000D03*
X38811000Y-31496000D03*
D17*
X37211000Y-31496000D03*
%TD*%
%TO.C,CN2*%
X44945000Y-33296000D03*
D18*
X44145000Y-33296000D03*
D17*
X42545000Y-33296000D03*
D18*
X43345000Y-33296000D03*
D17*
X44945000Y-31496000D03*
D18*
X43345000Y-31496000D03*
X44145000Y-31496000D03*
D17*
X42545000Y-31496000D03*
%TD*%
D19*
%TO.C,U12*%
X37125000Y-27874000D03*
X37125000Y-28824000D03*
X37125000Y-26924000D03*
X34925000Y-26924000D03*
X34925000Y-27874000D03*
X34925000Y-28824000D03*
%TD*%
%TO.C,U7*%
X47285000Y-27874000D03*
X47285000Y-28824000D03*
X47285000Y-26924000D03*
X45085000Y-26924000D03*
X45085000Y-27874000D03*
X45085000Y-28824000D03*
%TD*%
%TO.C,U14*%
X52365000Y-27874000D03*
X52365000Y-28824000D03*
X52365000Y-26924000D03*
X50165000Y-26924000D03*
X50165000Y-27874000D03*
X50165000Y-28824000D03*
%TD*%
%TO.C,U16*%
X27305000Y-27874000D03*
X27305000Y-28824000D03*
X27305000Y-26924000D03*
X25105000Y-26924000D03*
X25105000Y-27874000D03*
X25105000Y-28824000D03*
%TD*%
%TO.C,U13*%
X32172000Y-27874000D03*
X32172000Y-28824000D03*
X32172000Y-26924000D03*
X29972000Y-26924000D03*
X29972000Y-27874000D03*
X29972000Y-28824000D03*
%TD*%
%TO.C,U9*%
X42205000Y-27874000D03*
X42205000Y-28824000D03*
X42205000Y-26924000D03*
X40005000Y-26924000D03*
X40005000Y-27874000D03*
X40005000Y-28824000D03*
%TD*%
%TO.C,C47*%
G36*
G01*
X43150500Y-35660250D02*
X43150500Y-34697750D01*
G75*
G02*
X43419250Y-34429000I268750J0D01*
G01*
X43956750Y-34429000D01*
G75*
G02*
X44225500Y-34697750I0J-268750D01*
G01*
X44225500Y-35660250D01*
G75*
G02*
X43956750Y-35929000I-268750J0D01*
G01*
X43419250Y-35929000D01*
G75*
G02*
X43150500Y-35660250I0J268750D01*
G01*
G37*
G36*
G01*
X41275500Y-35660250D02*
X41275500Y-34697750D01*
G75*
G02*
X41544250Y-34429000I268750J0D01*
G01*
X42081750Y-34429000D01*
G75*
G02*
X42350500Y-34697750I0J-268750D01*
G01*
X42350500Y-35660250D01*
G75*
G02*
X42081750Y-35929000I-268750J0D01*
G01*
X41544250Y-35929000D01*
G75*
G02*
X41275500Y-35660250I0J268750D01*
G01*
G37*
%TD*%
D20*
%TO.C,U4*%
X46609000Y-97282000D03*
D21*
X46609000Y-94742000D03*
X46609000Y-92202000D03*
X46609000Y-89662000D03*
%TD*%
D19*
%TO.C,U3*%
X38397000Y-106106000D03*
X38397000Y-105156000D03*
X38397000Y-107056000D03*
X40597000Y-107056000D03*
X40597000Y-106106000D03*
X40597000Y-105156000D03*
%TD*%
%TO.C,R6*%
G36*
G01*
X42190750Y-63186500D02*
X43153250Y-63186500D01*
G75*
G02*
X43422000Y-63455250I0J-268750D01*
G01*
X43422000Y-63992750D01*
G75*
G02*
X43153250Y-64261500I-268750J0D01*
G01*
X42190750Y-64261500D01*
G75*
G02*
X41922000Y-63992750I0J268750D01*
G01*
X41922000Y-63455250D01*
G75*
G02*
X42190750Y-63186500I268750J0D01*
G01*
G37*
G36*
G01*
X42190750Y-61311500D02*
X43153250Y-61311500D01*
G75*
G02*
X43422000Y-61580250I0J-268750D01*
G01*
X43422000Y-62117750D01*
G75*
G02*
X43153250Y-62386500I-268750J0D01*
G01*
X42190750Y-62386500D01*
G75*
G02*
X41922000Y-62117750I0J268750D01*
G01*
X41922000Y-61580250D01*
G75*
G02*
X42190750Y-61311500I268750J0D01*
G01*
G37*
%TD*%
D22*
%TO.C,J6*%
X55245000Y-22225000D03*
X55245000Y-24765000D03*
X52705000Y-22225000D03*
X52705000Y-24765000D03*
X50165000Y-22225000D03*
X50165000Y-24765000D03*
X47625000Y-22225000D03*
X47625000Y-24765000D03*
X45085000Y-22225000D03*
X45085000Y-24765000D03*
X42545000Y-22225000D03*
X42545000Y-24765000D03*
X40005000Y-22225000D03*
X40005000Y-24765000D03*
X37465000Y-22225000D03*
X37465000Y-24765000D03*
X34925000Y-22225000D03*
X34925000Y-24765000D03*
X32385000Y-22225000D03*
X32385000Y-24765000D03*
X29845000Y-22225000D03*
X29845000Y-24765000D03*
X27305000Y-22225000D03*
X27305000Y-24765000D03*
X24765000Y-22225000D03*
D23*
X24765000Y-24765000D03*
%TD*%
D24*
%TO.C,J5*%
X55753000Y-55118000D03*
X55753000Y-63118000D03*
D25*
X44753000Y-53518000D03*
D26*
X55353000Y-67818000D03*
X55353000Y-52318000D03*
D27*
X45753000Y-52318000D03*
D28*
X45753000Y-66918000D03*
D25*
X44753000Y-54618000D03*
X44753000Y-55718000D03*
X44753000Y-56818000D03*
X44753000Y-57918000D03*
X44753000Y-59018000D03*
X44753000Y-60118000D03*
X44753000Y-61218000D03*
X44753000Y-62318000D03*
%TD*%
D22*
%TO.C,J4*%
X25781000Y-57912000D03*
X23241000Y-57912000D03*
X25781000Y-60452000D03*
X23241000Y-60452000D03*
X25781000Y-62992000D03*
X23241000Y-62992000D03*
X25781000Y-65532000D03*
D23*
X23241000Y-65532000D03*
%TD*%
D22*
%TO.C,J3*%
X32131000Y-71716000D03*
X29591000Y-71716000D03*
X27051000Y-71716000D03*
D23*
X24511000Y-71716000D03*
%TD*%
D17*
%TO.C,CN5*%
X28562000Y-33296000D03*
D18*
X27762000Y-33296000D03*
D17*
X26162000Y-33296000D03*
D18*
X26962000Y-33296000D03*
D17*
X28562000Y-31496000D03*
D18*
X26962000Y-31496000D03*
X27762000Y-31496000D03*
D17*
X26162000Y-31496000D03*
%TD*%
%TO.C,CN4*%
X34531000Y-33296000D03*
D18*
X33731000Y-33296000D03*
D17*
X32131000Y-33296000D03*
D18*
X32931000Y-33296000D03*
D17*
X34531000Y-31496000D03*
D18*
X32931000Y-31496000D03*
X33731000Y-31496000D03*
D17*
X32131000Y-31496000D03*
%TD*%
%TO.C,CN1*%
X49771000Y-33296000D03*
D18*
X48971000Y-33296000D03*
D17*
X47371000Y-33296000D03*
D18*
X48171000Y-33296000D03*
D17*
X49771000Y-31496000D03*
D18*
X48171000Y-31496000D03*
X48971000Y-31496000D03*
D17*
X47371000Y-31496000D03*
%TD*%
%TO.C,C36*%
G36*
G01*
X36348750Y-42104500D02*
X37311250Y-42104500D01*
G75*
G02*
X37580000Y-42373250I0J-268750D01*
G01*
X37580000Y-42910750D01*
G75*
G02*
X37311250Y-43179500I-268750J0D01*
G01*
X36348750Y-43179500D01*
G75*
G02*
X36080000Y-42910750I0J268750D01*
G01*
X36080000Y-42373250D01*
G75*
G02*
X36348750Y-42104500I268750J0D01*
G01*
G37*
G36*
G01*
X36348750Y-40229500D02*
X37311250Y-40229500D01*
G75*
G02*
X37580000Y-40498250I0J-268750D01*
G01*
X37580000Y-41035750D01*
G75*
G02*
X37311250Y-41304500I-268750J0D01*
G01*
X36348750Y-41304500D01*
G75*
G02*
X36080000Y-41035750I0J268750D01*
G01*
X36080000Y-40498250D01*
G75*
G02*
X36348750Y-40229500I268750J0D01*
G01*
G37*
%TD*%
%TO.C,C35*%
G36*
G01*
X40539750Y-39945500D02*
X41502250Y-39945500D01*
G75*
G02*
X41771000Y-40214250I0J-268750D01*
G01*
X41771000Y-40751750D01*
G75*
G02*
X41502250Y-41020500I-268750J0D01*
G01*
X40539750Y-41020500D01*
G75*
G02*
X40271000Y-40751750I0J268750D01*
G01*
X40271000Y-40214250D01*
G75*
G02*
X40539750Y-39945500I268750J0D01*
G01*
G37*
G36*
G01*
X40539750Y-38070500D02*
X41502250Y-38070500D01*
G75*
G02*
X41771000Y-38339250I0J-268750D01*
G01*
X41771000Y-38876750D01*
G75*
G02*
X41502250Y-39145500I-268750J0D01*
G01*
X40539750Y-39145500D01*
G75*
G02*
X40271000Y-38876750I0J268750D01*
G01*
X40271000Y-38339250D01*
G75*
G02*
X40539750Y-38070500I268750J0D01*
G01*
G37*
%TD*%
%TO.C,C34*%
G36*
G01*
X34316750Y-42104500D02*
X35279250Y-42104500D01*
G75*
G02*
X35548000Y-42373250I0J-268750D01*
G01*
X35548000Y-42910750D01*
G75*
G02*
X35279250Y-43179500I-268750J0D01*
G01*
X34316750Y-43179500D01*
G75*
G02*
X34048000Y-42910750I0J268750D01*
G01*
X34048000Y-42373250D01*
G75*
G02*
X34316750Y-42104500I268750J0D01*
G01*
G37*
G36*
G01*
X34316750Y-40229500D02*
X35279250Y-40229500D01*
G75*
G02*
X35548000Y-40498250I0J-268750D01*
G01*
X35548000Y-41035750D01*
G75*
G02*
X35279250Y-41304500I-268750J0D01*
G01*
X34316750Y-41304500D01*
G75*
G02*
X34048000Y-41035750I0J268750D01*
G01*
X34048000Y-40498250D01*
G75*
G02*
X34316750Y-40229500I268750J0D01*
G01*
G37*
%TD*%
%TO.C,C31*%
G36*
G01*
X35205750Y-38294500D02*
X36168250Y-38294500D01*
G75*
G02*
X36437000Y-38563250I0J-268750D01*
G01*
X36437000Y-39100750D01*
G75*
G02*
X36168250Y-39369500I-268750J0D01*
G01*
X35205750Y-39369500D01*
G75*
G02*
X34937000Y-39100750I0J268750D01*
G01*
X34937000Y-38563250D01*
G75*
G02*
X35205750Y-38294500I268750J0D01*
G01*
G37*
G36*
G01*
X35205750Y-36419500D02*
X36168250Y-36419500D01*
G75*
G02*
X36437000Y-36688250I0J-268750D01*
G01*
X36437000Y-37225750D01*
G75*
G02*
X36168250Y-37494500I-268750J0D01*
G01*
X35205750Y-37494500D01*
G75*
G02*
X34937000Y-37225750I0J268750D01*
G01*
X34937000Y-36688250D01*
G75*
G02*
X35205750Y-36419500I268750J0D01*
G01*
G37*
%TD*%
%TO.C,C30*%
G36*
G01*
X40920750Y-43658500D02*
X41883250Y-43658500D01*
G75*
G02*
X42152000Y-43927250I0J-268750D01*
G01*
X42152000Y-44464750D01*
G75*
G02*
X41883250Y-44733500I-268750J0D01*
G01*
X40920750Y-44733500D01*
G75*
G02*
X40652000Y-44464750I0J268750D01*
G01*
X40652000Y-43927250D01*
G75*
G02*
X40920750Y-43658500I268750J0D01*
G01*
G37*
G36*
G01*
X40920750Y-41783500D02*
X41883250Y-41783500D01*
G75*
G02*
X42152000Y-42052250I0J-268750D01*
G01*
X42152000Y-42589750D01*
G75*
G02*
X41883250Y-42858500I-268750J0D01*
G01*
X40920750Y-42858500D01*
G75*
G02*
X40652000Y-42589750I0J268750D01*
G01*
X40652000Y-42052250D01*
G75*
G02*
X40920750Y-41783500I268750J0D01*
G01*
G37*
%TD*%
%TO.C,C28*%
G36*
G01*
X38888750Y-43658500D02*
X39851250Y-43658500D01*
G75*
G02*
X40120000Y-43927250I0J-268750D01*
G01*
X40120000Y-44464750D01*
G75*
G02*
X39851250Y-44733500I-268750J0D01*
G01*
X38888750Y-44733500D01*
G75*
G02*
X38620000Y-44464750I0J268750D01*
G01*
X38620000Y-43927250D01*
G75*
G02*
X38888750Y-43658500I268750J0D01*
G01*
G37*
G36*
G01*
X38888750Y-41783500D02*
X39851250Y-41783500D01*
G75*
G02*
X40120000Y-42052250I0J-268750D01*
G01*
X40120000Y-42589750D01*
G75*
G02*
X39851250Y-42858500I-268750J0D01*
G01*
X38888750Y-42858500D01*
G75*
G02*
X38620000Y-42589750I0J268750D01*
G01*
X38620000Y-42052250D01*
G75*
G02*
X38888750Y-41783500I268750J0D01*
G01*
G37*
%TD*%
%TO.C,C14*%
G36*
G01*
X32094250Y-66361500D02*
X33056750Y-66361500D01*
G75*
G02*
X33325500Y-66630250I0J-268750D01*
G01*
X33325500Y-67167750D01*
G75*
G02*
X33056750Y-67436500I-268750J0D01*
G01*
X32094250Y-67436500D01*
G75*
G02*
X31825500Y-67167750I0J268750D01*
G01*
X31825500Y-66630250D01*
G75*
G02*
X32094250Y-66361500I268750J0D01*
G01*
G37*
G36*
G01*
X32094250Y-64486500D02*
X33056750Y-64486500D01*
G75*
G02*
X33325500Y-64755250I0J-268750D01*
G01*
X33325500Y-65292750D01*
G75*
G02*
X33056750Y-65561500I-268750J0D01*
G01*
X32094250Y-65561500D01*
G75*
G02*
X31825500Y-65292750I0J268750D01*
G01*
X31825500Y-64755250D01*
G75*
G02*
X32094250Y-64486500I268750J0D01*
G01*
G37*
%TD*%
%TO.C,C13*%
G36*
G01*
X35904250Y-60837000D02*
X36866750Y-60837000D01*
G75*
G02*
X37135500Y-61105750I0J-268750D01*
G01*
X37135500Y-61643250D01*
G75*
G02*
X36866750Y-61912000I-268750J0D01*
G01*
X35904250Y-61912000D01*
G75*
G02*
X35635500Y-61643250I0J268750D01*
G01*
X35635500Y-61105750D01*
G75*
G02*
X35904250Y-60837000I268750J0D01*
G01*
G37*
G36*
G01*
X35904250Y-58962000D02*
X36866750Y-58962000D01*
G75*
G02*
X37135500Y-59230750I0J-268750D01*
G01*
X37135500Y-59768250D01*
G75*
G02*
X36866750Y-60037000I-268750J0D01*
G01*
X35904250Y-60037000D01*
G75*
G02*
X35635500Y-59768250I0J268750D01*
G01*
X35635500Y-59230750D01*
G75*
G02*
X35904250Y-58962000I268750J0D01*
G01*
G37*
%TD*%
%TO.C,C12*%
G36*
G01*
X39841250Y-60837000D02*
X40803750Y-60837000D01*
G75*
G02*
X41072500Y-61105750I0J-268750D01*
G01*
X41072500Y-61643250D01*
G75*
G02*
X40803750Y-61912000I-268750J0D01*
G01*
X39841250Y-61912000D01*
G75*
G02*
X39572500Y-61643250I0J268750D01*
G01*
X39572500Y-61105750D01*
G75*
G02*
X39841250Y-60837000I268750J0D01*
G01*
G37*
G36*
G01*
X39841250Y-58962000D02*
X40803750Y-58962000D01*
G75*
G02*
X41072500Y-59230750I0J-268750D01*
G01*
X41072500Y-59768250D01*
G75*
G02*
X40803750Y-60037000I-268750J0D01*
G01*
X39841250Y-60037000D01*
G75*
G02*
X39572500Y-59768250I0J268750D01*
G01*
X39572500Y-59230750D01*
G75*
G02*
X39841250Y-58962000I268750J0D01*
G01*
G37*
%TD*%
%TO.C,C11*%
G36*
G01*
X39239000Y-62701250D02*
X39239000Y-63663750D01*
G75*
G02*
X38970250Y-63932500I-268750J0D01*
G01*
X38432750Y-63932500D01*
G75*
G02*
X38164000Y-63663750I0J268750D01*
G01*
X38164000Y-62701250D01*
G75*
G02*
X38432750Y-62432500I268750J0D01*
G01*
X38970250Y-62432500D01*
G75*
G02*
X39239000Y-62701250I0J-268750D01*
G01*
G37*
G36*
G01*
X41114000Y-62701250D02*
X41114000Y-63663750D01*
G75*
G02*
X40845250Y-63932500I-268750J0D01*
G01*
X40307750Y-63932500D01*
G75*
G02*
X40039000Y-63663750I0J268750D01*
G01*
X40039000Y-62701250D01*
G75*
G02*
X40307750Y-62432500I268750J0D01*
G01*
X40845250Y-62432500D01*
G75*
G02*
X41114000Y-62701250I0J-268750D01*
G01*
G37*
%TD*%
%TO.C,C3*%
G36*
G01*
X38835250Y-60037000D02*
X37872750Y-60037000D01*
G75*
G02*
X37604000Y-59768250I0J268750D01*
G01*
X37604000Y-59230750D01*
G75*
G02*
X37872750Y-58962000I268750J0D01*
G01*
X38835250Y-58962000D01*
G75*
G02*
X39104000Y-59230750I0J-268750D01*
G01*
X39104000Y-59768250D01*
G75*
G02*
X38835250Y-60037000I-268750J0D01*
G01*
G37*
G36*
G01*
X38835250Y-61912000D02*
X37872750Y-61912000D01*
G75*
G02*
X37604000Y-61643250I0J268750D01*
G01*
X37604000Y-61105750D01*
G75*
G02*
X37872750Y-60837000I268750J0D01*
G01*
X38835250Y-60837000D01*
G75*
G02*
X39104000Y-61105750I0J-268750D01*
G01*
X39104000Y-61643250D01*
G75*
G02*
X38835250Y-61912000I-268750J0D01*
G01*
G37*
%TD*%
D29*
%TO.C,BT1*%
X52705000Y-72557000D03*
G36*
G01*
X53490294Y-75957000D02*
X51919706Y-75957000D01*
G75*
G02*
X51655000Y-75692294I0J264706D01*
G01*
X51655000Y-74421706D01*
G75*
G02*
X51919706Y-74157000I264706J0D01*
G01*
X53490294Y-74157000D01*
G75*
G02*
X53755000Y-74421706I0J-264706D01*
G01*
X53755000Y-75692294D01*
G75*
G02*
X53490294Y-75957000I-264706J0D01*
G01*
G37*
%TD*%
M02*
