M48
; DRILL file {KiCad 5.1.6-c6e7f7d~86~ubuntu19.10.1} date Thu May 21 12:21:43 2020
; FORMAT={-:-/ absolute / inch / decimal}
; #@! TF.CreationDate,2020-05-21T12:21:43+02:00
; #@! TF.GenerationSoftware,Kicad,Pcbnew,5.1.6-c6e7f7d~86~ubuntu19.10.1
; #@! TF.FileFunction,Plated,1,2,PTH
FMAT,2
INCH
T1C0.0157
T2C0.0236
T3C0.0276
T4C0.0300
T5C0.0394
T6C0.1260
%
G90
G05
T1
X0.84Y-2.055
X0.935Y-4.2
X0.965Y-2.705
X1.015Y-1.205
X1.0544Y-1.205
X1.0937Y-1.205
X1.0975Y-2.3025
X1.0975Y-2.5085
X1.125Y-2.04
X1.125Y-2.22
X1.135Y-1.205
X1.15Y-1.92
X1.155Y-4.3
X1.17Y-1.425
X1.17Y-2.3623
X1.21Y-2.4925
X1.21Y-3.715
X1.25Y-4.12
X1.255Y-1.205
X1.255Y-3.14
X1.265Y-3.765
X1.266Y-1.4106
X1.2707Y-2.4277
X1.2725Y-2.3796
X1.2783Y-3.9037
X1.2944Y-1.205
X1.315Y-1.845
X1.33Y-1.515
X1.33Y-1.725
X1.3337Y-1.205
X1.335Y-2.555
X1.3394Y-3.9744
X1.345Y-1.775
X1.35Y-1.56
X1.36Y-2.61
X1.3731Y-1.205
X1.405Y-2.515
X1.4071Y-1.8898
X1.41Y-3.865
X1.415Y-3.485
X1.4275Y-2.3125
X1.4373Y-1.9577
X1.455Y-1.205
X1.455Y-4.18
X1.4574Y-1.8918
X1.46Y-3.99
X1.465Y-3.715
X1.47Y-2.04
X1.476Y-2.6506
X1.4944Y-1.205
X1.505Y-1.78
X1.51Y-2.31
X1.515Y-2.645
X1.52Y-3.715
X1.5337Y-1.205
X1.5345Y-2.1705
X1.5379Y-4.1071
X1.545Y-1.9
X1.545Y-3.64
X1.5465Y-1.9902
X1.5465Y-2.9375
X1.5465Y-3.045
X1.548Y-2.38
X1.555Y-2.135
X1.555Y-4.29
X1.5731Y-1.205
X1.575Y-2.09
X1.575Y-3.4
X1.59Y-1.905
X1.6Y-4.0872
X1.6175Y-2.3725
X1.6225Y-2.5375
X1.6335Y-2.935
X1.6335Y-3.055
X1.64Y-4.18
X1.6423Y-2.2877
X1.645Y-1.44
X1.65Y-3.99
X1.655Y-2.04
X1.66Y-2.135
X1.665Y-1.21
X1.665Y-1.535
X1.665Y-1.59
X1.665Y-1.775
X1.67Y-1.655
X1.6794Y-4.18
X1.685Y-2.245
X1.705Y-1.205
X1.7444Y-1.205
X1.745Y-1.42
X1.745Y-2.635
X1.7837Y-1.205
X1.8065Y-1.759
X1.82Y-1.325
X1.83Y-2.135
X1.85Y-1.21
X1.878Y-2.235
X1.8921Y-1.2081
X1.9Y-2.145
X1.9327Y-1.2078
X1.935Y-1.82
X1.9371Y-1.3671
X2.01Y-1.19
X2.015Y-1.715
X2.016Y-1.7759
X2.02Y-1.025
X2.14Y-2.145
X2.145Y-2.325
X2.18Y-2.615
T3
X1.835Y-3.53
X1.835Y-3.63
X1.835Y-3.73
X1.835Y-3.83
T4
X1.77Y-2.9119
X1.77Y-3.03
X1.77Y-3.1481
T5
X2.075Y-2.8566
X2.075Y-2.955
X0.915Y-2.28
X0.915Y-2.38
X0.915Y-2.48
X0.915Y-2.58
X1.015Y-2.28
X1.015Y-2.38
X1.015Y-2.48
X1.015Y-2.58
X0.975Y-0.875
X0.975Y-0.975
X1.075Y-0.875
X1.075Y-0.975
X1.175Y-0.875
X1.175Y-0.975
X1.275Y-0.875
X1.275Y-0.975
X1.375Y-0.875
X1.375Y-0.975
X1.475Y-0.875
X1.475Y-0.975
X1.575Y-0.875
X1.575Y-0.975
X1.675Y-0.875
X1.675Y-0.975
X1.775Y-0.875
X1.775Y-0.975
X1.875Y-0.875
X1.875Y-0.975
X1.975Y-0.875
X1.975Y-0.975
X2.075Y-0.875
X2.075Y-0.975
X2.175Y-0.875
X2.175Y-0.975
X0.965Y-2.8235
X1.065Y-2.8235
X1.165Y-2.8235
X1.265Y-2.8235
T6
X0.97Y-3.175
X0.915Y-1.425
T2
G00X1.3838Y-4.0494
M15
G01X1.3838Y-4.0927
M16
G05
G00X1.3838Y-4.2238
M15
G01X1.3838Y-4.2474
M16
G05
G00X1.724Y-4.0494
M15
G01X1.724Y-4.0927
M16
G05
G00X1.724Y-4.2238
M15
G01X1.724Y-4.2474
M16
G05
T5
G00X1.7798Y-2.8017
M15
G01X1.7602Y-2.8017
M16
G05
G00X1.7798Y-3.2583
M15
G01X1.7602Y-3.2583
M16
G05
T0
M30
