%TF.GenerationSoftware,KiCad,Pcbnew,5.1.6-c6e7f7d~86~ubuntu19.10.1*%
%TF.CreationDate,2020-05-21T12:21:41+02:00*%
%TF.ProjectId,BioElectricalSensor,42696f45-6c65-4637-9472-6963616c5365,rev?*%
%TF.SameCoordinates,Original*%
%TF.FileFunction,Soldermask,Top*%
%TF.FilePolarity,Negative*%
%FSLAX46Y46*%
G04 Gerber Fmt 4.6, Leading zero omitted, Abs format (unit mm)*
G04 Created by KiCad (PCBNEW 5.1.6-c6e7f7d~86~ubuntu19.10.1) date 2020-05-21 12:21:41*
%MOMM*%
%LPD*%
G01*
G04 APERTURE LIST*
%ADD10C,5.700000*%
%ADD11C,3.300000*%
%ADD12O,2.100000X1.624000*%
%ADD13C,1.624000*%
%ADD14R,0.700000X1.550000*%
%ADD15R,0.400000X1.550000*%
%ADD16O,1.100000X2.200000*%
%ADD17C,0.750000*%
%ADD18O,1.100000X1.700000*%
%ADD19R,0.600000X0.900000*%
%ADD20R,0.500000X0.900000*%
%ADD21R,2.100000X4.600000*%
%ADD22R,4.600000X2.100000*%
%ADD23R,1.160000X0.750000*%
%ADD24R,1.600000X2.100000*%
%ADD25R,3.900000X2.100000*%
%ADD26R,2.100000X1.600000*%
%ADD27O,2.100000X1.600000*%
%ADD28C,1.100000*%
%ADD29O,1.800000X1.800000*%
%ADD30R,1.800000X1.800000*%
%ADD31R,1.000000X1.300000*%
%ADD32O,2.100000X1.800000*%
G04 APERTURE END LIST*
D10*
%TO.C,H3*%
X23241000Y-36195000D03*
%TD*%
%TO.C,H2*%
X24638000Y-80645000D03*
%TD*%
D11*
%TO.C,H1*%
X54737000Y-106934000D03*
%TD*%
%TO.C,R5*%
G36*
G01*
X40240000Y-67209750D02*
X40240000Y-68172250D01*
G75*
G02*
X39971250Y-68441000I-268750J0D01*
G01*
X39433750Y-68441000D01*
G75*
G02*
X39165000Y-68172250I0J268750D01*
G01*
X39165000Y-67209750D01*
G75*
G02*
X39433750Y-66941000I268750J0D01*
G01*
X39971250Y-66941000D01*
G75*
G02*
X40240000Y-67209750I0J-268750D01*
G01*
G37*
G36*
G01*
X42115000Y-67209750D02*
X42115000Y-68172250D01*
G75*
G02*
X41846250Y-68441000I-268750J0D01*
G01*
X41308750Y-68441000D01*
G75*
G02*
X41040000Y-68172250I0J268750D01*
G01*
X41040000Y-67209750D01*
G75*
G02*
X41308750Y-66941000I268750J0D01*
G01*
X41846250Y-66941000D01*
G75*
G02*
X42115000Y-67209750I0J-268750D01*
G01*
G37*
%TD*%
%TO.C,C20*%
G36*
G01*
X34626000Y-81204518D02*
X34626000Y-82117482D01*
G75*
G02*
X34357482Y-82386000I-268518J0D01*
G01*
X33394518Y-82386000D01*
G75*
G02*
X33126000Y-82117482I0J268518D01*
G01*
X33126000Y-81204518D01*
G75*
G02*
X33394518Y-80936000I268518J0D01*
G01*
X34357482Y-80936000D01*
G75*
G02*
X34626000Y-81204518I0J-268518D01*
G01*
G37*
G36*
G01*
X37326000Y-81204518D02*
X37326000Y-82117482D01*
G75*
G02*
X37057482Y-82386000I-268518J0D01*
G01*
X36094518Y-82386000D01*
G75*
G02*
X35826000Y-82117482I0J268518D01*
G01*
X35826000Y-81204518D01*
G75*
G02*
X36094518Y-80936000I268518J0D01*
G01*
X37057482Y-80936000D01*
G75*
G02*
X37326000Y-81204518I0J-268518D01*
G01*
G37*
%TD*%
%TO.C,C17*%
G36*
G01*
X38380750Y-82744500D02*
X39343250Y-82744500D01*
G75*
G02*
X39612000Y-83013250I0J-268750D01*
G01*
X39612000Y-83550750D01*
G75*
G02*
X39343250Y-83819500I-268750J0D01*
G01*
X38380750Y-83819500D01*
G75*
G02*
X38112000Y-83550750I0J268750D01*
G01*
X38112000Y-83013250D01*
G75*
G02*
X38380750Y-82744500I268750J0D01*
G01*
G37*
G36*
G01*
X38380750Y-80869500D02*
X39343250Y-80869500D01*
G75*
G02*
X39612000Y-81138250I0J-268750D01*
G01*
X39612000Y-81675750D01*
G75*
G02*
X39343250Y-81944500I-268750J0D01*
G01*
X38380750Y-81944500D01*
G75*
G02*
X38112000Y-81675750I0J268750D01*
G01*
X38112000Y-81138250D01*
G75*
G02*
X38380750Y-80869500I268750J0D01*
G01*
G37*
%TD*%
D12*
%TO.C,SW1*%
X44958000Y-82762000D03*
X44958000Y-71162000D03*
D13*
X44958000Y-79962000D03*
X44958000Y-73962000D03*
X44958000Y-76962000D03*
%TD*%
%TO.C,C49*%
G36*
G01*
X52096750Y-88108500D02*
X53059250Y-88108500D01*
G75*
G02*
X53328000Y-88377250I0J-268750D01*
G01*
X53328000Y-88914750D01*
G75*
G02*
X53059250Y-89183500I-268750J0D01*
G01*
X52096750Y-89183500D01*
G75*
G02*
X51828000Y-88914750I0J268750D01*
G01*
X51828000Y-88377250D01*
G75*
G02*
X52096750Y-88108500I268750J0D01*
G01*
G37*
G36*
G01*
X52096750Y-86233500D02*
X53059250Y-86233500D01*
G75*
G02*
X53328000Y-86502250I0J-268750D01*
G01*
X53328000Y-87039750D01*
G75*
G02*
X53059250Y-87308500I-268750J0D01*
G01*
X52096750Y-87308500D01*
G75*
G02*
X51828000Y-87039750I0J268750D01*
G01*
X51828000Y-86502250D01*
G75*
G02*
X52096750Y-86233500I268750J0D01*
G01*
G37*
%TD*%
%TO.C,C48*%
G36*
G01*
X48667750Y-96460500D02*
X49630250Y-96460500D01*
G75*
G02*
X49899000Y-96729250I0J-268750D01*
G01*
X49899000Y-97266750D01*
G75*
G02*
X49630250Y-97535500I-268750J0D01*
G01*
X48667750Y-97535500D01*
G75*
G02*
X48399000Y-97266750I0J268750D01*
G01*
X48399000Y-96729250D01*
G75*
G02*
X48667750Y-96460500I268750J0D01*
G01*
G37*
G36*
G01*
X48667750Y-94585500D02*
X49630250Y-94585500D01*
G75*
G02*
X49899000Y-94854250I0J-268750D01*
G01*
X49899000Y-95391750D01*
G75*
G02*
X49630250Y-95660500I-268750J0D01*
G01*
X48667750Y-95660500D01*
G75*
G02*
X48399000Y-95391750I0J268750D01*
G01*
X48399000Y-94854250D01*
G75*
G02*
X48667750Y-94585500I268750J0D01*
G01*
G37*
%TD*%
D14*
%TO.C,P1*%
X42719000Y-102489000D03*
X41919000Y-102489000D03*
X37019000Y-102489000D03*
X36219000Y-102489000D03*
X36219000Y-102489000D03*
X37019000Y-102489000D03*
X41919000Y-102489000D03*
X42719000Y-102489000D03*
D15*
X37719000Y-102489000D03*
X38219000Y-102489000D03*
X38719000Y-102489000D03*
X39719000Y-102489000D03*
X40219000Y-102489000D03*
X40719000Y-102489000D03*
X41219000Y-102489000D03*
X39219000Y-102489000D03*
D16*
X43789000Y-103404000D03*
X35149000Y-103404000D03*
D17*
X36579000Y-103934000D03*
D18*
X35149000Y-107584000D03*
D17*
X42359000Y-103934000D03*
D18*
X43789000Y-107584000D03*
%TD*%
D19*
%TO.C,RN2*%
X42545000Y-28851000D03*
D20*
X43345000Y-28851000D03*
D19*
X44945000Y-28851000D03*
D20*
X44145000Y-28851000D03*
D19*
X42545000Y-27051000D03*
D20*
X44145000Y-27051000D03*
X43345000Y-27051000D03*
D19*
X44945000Y-27051000D03*
%TD*%
%TO.C,RN3*%
X37211000Y-28851000D03*
D20*
X38011000Y-28851000D03*
D19*
X39611000Y-28851000D03*
D20*
X38811000Y-28851000D03*
D19*
X37211000Y-27051000D03*
D20*
X38811000Y-27051000D03*
X38011000Y-27051000D03*
D19*
X39611000Y-27051000D03*
%TD*%
%TO.C,RN1*%
X47371000Y-28829000D03*
D20*
X48171000Y-28829000D03*
D19*
X49771000Y-28829000D03*
D20*
X48971000Y-28829000D03*
D19*
X47371000Y-27029000D03*
D20*
X48971000Y-27029000D03*
X48171000Y-27029000D03*
D19*
X49771000Y-27029000D03*
%TD*%
%TO.C,RN4*%
X32131000Y-28851000D03*
D20*
X32931000Y-28851000D03*
D19*
X34531000Y-28851000D03*
D20*
X33731000Y-28851000D03*
D19*
X32131000Y-27051000D03*
D20*
X33731000Y-27051000D03*
X32931000Y-27051000D03*
D19*
X34531000Y-27051000D03*
%TD*%
%TO.C,RN5*%
X26162000Y-28851000D03*
D20*
X26962000Y-28851000D03*
D19*
X28562000Y-28851000D03*
D20*
X27762000Y-28851000D03*
D19*
X26162000Y-27051000D03*
D20*
X27762000Y-27051000D03*
X26962000Y-27051000D03*
D19*
X28562000Y-27051000D03*
%TD*%
%TO.C,C39*%
G36*
G01*
X28380500Y-43206750D02*
X28380500Y-44169250D01*
G75*
G02*
X28111750Y-44438000I-268750J0D01*
G01*
X27574250Y-44438000D01*
G75*
G02*
X27305500Y-44169250I0J268750D01*
G01*
X27305500Y-43206750D01*
G75*
G02*
X27574250Y-42938000I268750J0D01*
G01*
X28111750Y-42938000D01*
G75*
G02*
X28380500Y-43206750I0J-268750D01*
G01*
G37*
G36*
G01*
X30255500Y-43206750D02*
X30255500Y-44169250D01*
G75*
G02*
X29986750Y-44438000I-268750J0D01*
G01*
X29449250Y-44438000D01*
G75*
G02*
X29180500Y-44169250I0J268750D01*
G01*
X29180500Y-43206750D01*
G75*
G02*
X29449250Y-42938000I268750J0D01*
G01*
X29986750Y-42938000D01*
G75*
G02*
X30255500Y-43206750I0J-268750D01*
G01*
G37*
%TD*%
D21*
%TO.C,Y2*%
X46101000Y-57912000D03*
X46101000Y-66412000D03*
%TD*%
D22*
%TO.C,Y1*%
X23250000Y-92329000D03*
X31750000Y-92329000D03*
%TD*%
D23*
%TO.C,U15*%
X32680000Y-51181000D03*
X32680000Y-53081000D03*
X30480000Y-53081000D03*
X30480000Y-52131000D03*
X30480000Y-51181000D03*
%TD*%
%TO.C,U11*%
X50376000Y-51374000D03*
X50376000Y-53274000D03*
X48176000Y-53274000D03*
X48176000Y-52324000D03*
X48176000Y-51374000D03*
%TD*%
%TO.C,U10*%
X22311000Y-53909000D03*
X22311000Y-54859000D03*
X22311000Y-52959000D03*
X24511000Y-52959000D03*
X24511000Y-53909000D03*
X24511000Y-54859000D03*
%TD*%
%TO.C,U8*%
G36*
G01*
X42948000Y-36817000D02*
X44323000Y-36817000D01*
G75*
G02*
X44423000Y-36917000I0J-100000D01*
G01*
X44423000Y-37117000D01*
G75*
G02*
X44323000Y-37217000I-100000J0D01*
G01*
X42948000Y-37217000D01*
G75*
G02*
X42848000Y-37117000I0J100000D01*
G01*
X42848000Y-36917000D01*
G75*
G02*
X42948000Y-36817000I100000J0D01*
G01*
G37*
G36*
G01*
X42948000Y-37317000D02*
X44323000Y-37317000D01*
G75*
G02*
X44423000Y-37417000I0J-100000D01*
G01*
X44423000Y-37617000D01*
G75*
G02*
X44323000Y-37717000I-100000J0D01*
G01*
X42948000Y-37717000D01*
G75*
G02*
X42848000Y-37617000I0J100000D01*
G01*
X42848000Y-37417000D01*
G75*
G02*
X42948000Y-37317000I100000J0D01*
G01*
G37*
G36*
G01*
X42948000Y-37817000D02*
X44323000Y-37817000D01*
G75*
G02*
X44423000Y-37917000I0J-100000D01*
G01*
X44423000Y-38117000D01*
G75*
G02*
X44323000Y-38217000I-100000J0D01*
G01*
X42948000Y-38217000D01*
G75*
G02*
X42848000Y-38117000I0J100000D01*
G01*
X42848000Y-37917000D01*
G75*
G02*
X42948000Y-37817000I100000J0D01*
G01*
G37*
G36*
G01*
X42948000Y-38317000D02*
X44323000Y-38317000D01*
G75*
G02*
X44423000Y-38417000I0J-100000D01*
G01*
X44423000Y-38617000D01*
G75*
G02*
X44323000Y-38717000I-100000J0D01*
G01*
X42948000Y-38717000D01*
G75*
G02*
X42848000Y-38617000I0J100000D01*
G01*
X42848000Y-38417000D01*
G75*
G02*
X42948000Y-38317000I100000J0D01*
G01*
G37*
G36*
G01*
X42948000Y-38817000D02*
X44323000Y-38817000D01*
G75*
G02*
X44423000Y-38917000I0J-100000D01*
G01*
X44423000Y-39117000D01*
G75*
G02*
X44323000Y-39217000I-100000J0D01*
G01*
X42948000Y-39217000D01*
G75*
G02*
X42848000Y-39117000I0J100000D01*
G01*
X42848000Y-38917000D01*
G75*
G02*
X42948000Y-38817000I100000J0D01*
G01*
G37*
G36*
G01*
X42948000Y-39317000D02*
X44323000Y-39317000D01*
G75*
G02*
X44423000Y-39417000I0J-100000D01*
G01*
X44423000Y-39617000D01*
G75*
G02*
X44323000Y-39717000I-100000J0D01*
G01*
X42948000Y-39717000D01*
G75*
G02*
X42848000Y-39617000I0J100000D01*
G01*
X42848000Y-39417000D01*
G75*
G02*
X42948000Y-39317000I100000J0D01*
G01*
G37*
G36*
G01*
X42948000Y-39817000D02*
X44323000Y-39817000D01*
G75*
G02*
X44423000Y-39917000I0J-100000D01*
G01*
X44423000Y-40117000D01*
G75*
G02*
X44323000Y-40217000I-100000J0D01*
G01*
X42948000Y-40217000D01*
G75*
G02*
X42848000Y-40117000I0J100000D01*
G01*
X42848000Y-39917000D01*
G75*
G02*
X42948000Y-39817000I100000J0D01*
G01*
G37*
G36*
G01*
X42948000Y-40317000D02*
X44323000Y-40317000D01*
G75*
G02*
X44423000Y-40417000I0J-100000D01*
G01*
X44423000Y-40617000D01*
G75*
G02*
X44323000Y-40717000I-100000J0D01*
G01*
X42948000Y-40717000D01*
G75*
G02*
X42848000Y-40617000I0J100000D01*
G01*
X42848000Y-40417000D01*
G75*
G02*
X42948000Y-40317000I100000J0D01*
G01*
G37*
G36*
G01*
X42948000Y-40817000D02*
X44323000Y-40817000D01*
G75*
G02*
X44423000Y-40917000I0J-100000D01*
G01*
X44423000Y-41117000D01*
G75*
G02*
X44323000Y-41217000I-100000J0D01*
G01*
X42948000Y-41217000D01*
G75*
G02*
X42848000Y-41117000I0J100000D01*
G01*
X42848000Y-40917000D01*
G75*
G02*
X42948000Y-40817000I100000J0D01*
G01*
G37*
G36*
G01*
X42948000Y-41317000D02*
X44323000Y-41317000D01*
G75*
G02*
X44423000Y-41417000I0J-100000D01*
G01*
X44423000Y-41617000D01*
G75*
G02*
X44323000Y-41717000I-100000J0D01*
G01*
X42948000Y-41717000D01*
G75*
G02*
X42848000Y-41617000I0J100000D01*
G01*
X42848000Y-41417000D01*
G75*
G02*
X42948000Y-41317000I100000J0D01*
G01*
G37*
G36*
G01*
X42948000Y-41817000D02*
X44323000Y-41817000D01*
G75*
G02*
X44423000Y-41917000I0J-100000D01*
G01*
X44423000Y-42117000D01*
G75*
G02*
X44323000Y-42217000I-100000J0D01*
G01*
X42948000Y-42217000D01*
G75*
G02*
X42848000Y-42117000I0J100000D01*
G01*
X42848000Y-41917000D01*
G75*
G02*
X42948000Y-41817000I100000J0D01*
G01*
G37*
G36*
G01*
X42948000Y-42317000D02*
X44323000Y-42317000D01*
G75*
G02*
X44423000Y-42417000I0J-100000D01*
G01*
X44423000Y-42617000D01*
G75*
G02*
X44323000Y-42717000I-100000J0D01*
G01*
X42948000Y-42717000D01*
G75*
G02*
X42848000Y-42617000I0J100000D01*
G01*
X42848000Y-42417000D01*
G75*
G02*
X42948000Y-42317000I100000J0D01*
G01*
G37*
G36*
G01*
X42948000Y-42817000D02*
X44323000Y-42817000D01*
G75*
G02*
X44423000Y-42917000I0J-100000D01*
G01*
X44423000Y-43117000D01*
G75*
G02*
X44323000Y-43217000I-100000J0D01*
G01*
X42948000Y-43217000D01*
G75*
G02*
X42848000Y-43117000I0J100000D01*
G01*
X42848000Y-42917000D01*
G75*
G02*
X42948000Y-42817000I100000J0D01*
G01*
G37*
G36*
G01*
X42948000Y-43317000D02*
X44323000Y-43317000D01*
G75*
G02*
X44423000Y-43417000I0J-100000D01*
G01*
X44423000Y-43617000D01*
G75*
G02*
X44323000Y-43717000I-100000J0D01*
G01*
X42948000Y-43717000D01*
G75*
G02*
X42848000Y-43617000I0J100000D01*
G01*
X42848000Y-43417000D01*
G75*
G02*
X42948000Y-43317000I100000J0D01*
G01*
G37*
G36*
G01*
X42948000Y-43817000D02*
X44323000Y-43817000D01*
G75*
G02*
X44423000Y-43917000I0J-100000D01*
G01*
X44423000Y-44117000D01*
G75*
G02*
X44323000Y-44217000I-100000J0D01*
G01*
X42948000Y-44217000D01*
G75*
G02*
X42848000Y-44117000I0J100000D01*
G01*
X42848000Y-43917000D01*
G75*
G02*
X42948000Y-43817000I100000J0D01*
G01*
G37*
G36*
G01*
X42948000Y-44317000D02*
X44323000Y-44317000D01*
G75*
G02*
X44423000Y-44417000I0J-100000D01*
G01*
X44423000Y-44617000D01*
G75*
G02*
X44323000Y-44717000I-100000J0D01*
G01*
X42948000Y-44717000D01*
G75*
G02*
X42848000Y-44617000I0J100000D01*
G01*
X42848000Y-44417000D01*
G75*
G02*
X42948000Y-44317000I100000J0D01*
G01*
G37*
G36*
G01*
X41623000Y-45642000D02*
X41823000Y-45642000D01*
G75*
G02*
X41923000Y-45742000I0J-100000D01*
G01*
X41923000Y-47117000D01*
G75*
G02*
X41823000Y-47217000I-100000J0D01*
G01*
X41623000Y-47217000D01*
G75*
G02*
X41523000Y-47117000I0J100000D01*
G01*
X41523000Y-45742000D01*
G75*
G02*
X41623000Y-45642000I100000J0D01*
G01*
G37*
G36*
G01*
X41123000Y-45642000D02*
X41323000Y-45642000D01*
G75*
G02*
X41423000Y-45742000I0J-100000D01*
G01*
X41423000Y-47117000D01*
G75*
G02*
X41323000Y-47217000I-100000J0D01*
G01*
X41123000Y-47217000D01*
G75*
G02*
X41023000Y-47117000I0J100000D01*
G01*
X41023000Y-45742000D01*
G75*
G02*
X41123000Y-45642000I100000J0D01*
G01*
G37*
G36*
G01*
X40623000Y-45642000D02*
X40823000Y-45642000D01*
G75*
G02*
X40923000Y-45742000I0J-100000D01*
G01*
X40923000Y-47117000D01*
G75*
G02*
X40823000Y-47217000I-100000J0D01*
G01*
X40623000Y-47217000D01*
G75*
G02*
X40523000Y-47117000I0J100000D01*
G01*
X40523000Y-45742000D01*
G75*
G02*
X40623000Y-45642000I100000J0D01*
G01*
G37*
G36*
G01*
X40123000Y-45642000D02*
X40323000Y-45642000D01*
G75*
G02*
X40423000Y-45742000I0J-100000D01*
G01*
X40423000Y-47117000D01*
G75*
G02*
X40323000Y-47217000I-100000J0D01*
G01*
X40123000Y-47217000D01*
G75*
G02*
X40023000Y-47117000I0J100000D01*
G01*
X40023000Y-45742000D01*
G75*
G02*
X40123000Y-45642000I100000J0D01*
G01*
G37*
G36*
G01*
X39623000Y-45642000D02*
X39823000Y-45642000D01*
G75*
G02*
X39923000Y-45742000I0J-100000D01*
G01*
X39923000Y-47117000D01*
G75*
G02*
X39823000Y-47217000I-100000J0D01*
G01*
X39623000Y-47217000D01*
G75*
G02*
X39523000Y-47117000I0J100000D01*
G01*
X39523000Y-45742000D01*
G75*
G02*
X39623000Y-45642000I100000J0D01*
G01*
G37*
G36*
G01*
X39123000Y-45642000D02*
X39323000Y-45642000D01*
G75*
G02*
X39423000Y-45742000I0J-100000D01*
G01*
X39423000Y-47117000D01*
G75*
G02*
X39323000Y-47217000I-100000J0D01*
G01*
X39123000Y-47217000D01*
G75*
G02*
X39023000Y-47117000I0J100000D01*
G01*
X39023000Y-45742000D01*
G75*
G02*
X39123000Y-45642000I100000J0D01*
G01*
G37*
G36*
G01*
X38623000Y-45642000D02*
X38823000Y-45642000D01*
G75*
G02*
X38923000Y-45742000I0J-100000D01*
G01*
X38923000Y-47117000D01*
G75*
G02*
X38823000Y-47217000I-100000J0D01*
G01*
X38623000Y-47217000D01*
G75*
G02*
X38523000Y-47117000I0J100000D01*
G01*
X38523000Y-45742000D01*
G75*
G02*
X38623000Y-45642000I100000J0D01*
G01*
G37*
G36*
G01*
X38123000Y-45642000D02*
X38323000Y-45642000D01*
G75*
G02*
X38423000Y-45742000I0J-100000D01*
G01*
X38423000Y-47117000D01*
G75*
G02*
X38323000Y-47217000I-100000J0D01*
G01*
X38123000Y-47217000D01*
G75*
G02*
X38023000Y-47117000I0J100000D01*
G01*
X38023000Y-45742000D01*
G75*
G02*
X38123000Y-45642000I100000J0D01*
G01*
G37*
G36*
G01*
X37623000Y-45642000D02*
X37823000Y-45642000D01*
G75*
G02*
X37923000Y-45742000I0J-100000D01*
G01*
X37923000Y-47117000D01*
G75*
G02*
X37823000Y-47217000I-100000J0D01*
G01*
X37623000Y-47217000D01*
G75*
G02*
X37523000Y-47117000I0J100000D01*
G01*
X37523000Y-45742000D01*
G75*
G02*
X37623000Y-45642000I100000J0D01*
G01*
G37*
G36*
G01*
X37123000Y-45642000D02*
X37323000Y-45642000D01*
G75*
G02*
X37423000Y-45742000I0J-100000D01*
G01*
X37423000Y-47117000D01*
G75*
G02*
X37323000Y-47217000I-100000J0D01*
G01*
X37123000Y-47217000D01*
G75*
G02*
X37023000Y-47117000I0J100000D01*
G01*
X37023000Y-45742000D01*
G75*
G02*
X37123000Y-45642000I100000J0D01*
G01*
G37*
G36*
G01*
X36623000Y-45642000D02*
X36823000Y-45642000D01*
G75*
G02*
X36923000Y-45742000I0J-100000D01*
G01*
X36923000Y-47117000D01*
G75*
G02*
X36823000Y-47217000I-100000J0D01*
G01*
X36623000Y-47217000D01*
G75*
G02*
X36523000Y-47117000I0J100000D01*
G01*
X36523000Y-45742000D01*
G75*
G02*
X36623000Y-45642000I100000J0D01*
G01*
G37*
G36*
G01*
X36123000Y-45642000D02*
X36323000Y-45642000D01*
G75*
G02*
X36423000Y-45742000I0J-100000D01*
G01*
X36423000Y-47117000D01*
G75*
G02*
X36323000Y-47217000I-100000J0D01*
G01*
X36123000Y-47217000D01*
G75*
G02*
X36023000Y-47117000I0J100000D01*
G01*
X36023000Y-45742000D01*
G75*
G02*
X36123000Y-45642000I100000J0D01*
G01*
G37*
G36*
G01*
X35623000Y-45642000D02*
X35823000Y-45642000D01*
G75*
G02*
X35923000Y-45742000I0J-100000D01*
G01*
X35923000Y-47117000D01*
G75*
G02*
X35823000Y-47217000I-100000J0D01*
G01*
X35623000Y-47217000D01*
G75*
G02*
X35523000Y-47117000I0J100000D01*
G01*
X35523000Y-45742000D01*
G75*
G02*
X35623000Y-45642000I100000J0D01*
G01*
G37*
G36*
G01*
X35123000Y-45642000D02*
X35323000Y-45642000D01*
G75*
G02*
X35423000Y-45742000I0J-100000D01*
G01*
X35423000Y-47117000D01*
G75*
G02*
X35323000Y-47217000I-100000J0D01*
G01*
X35123000Y-47217000D01*
G75*
G02*
X35023000Y-47117000I0J100000D01*
G01*
X35023000Y-45742000D01*
G75*
G02*
X35123000Y-45642000I100000J0D01*
G01*
G37*
G36*
G01*
X34623000Y-45642000D02*
X34823000Y-45642000D01*
G75*
G02*
X34923000Y-45742000I0J-100000D01*
G01*
X34923000Y-47117000D01*
G75*
G02*
X34823000Y-47217000I-100000J0D01*
G01*
X34623000Y-47217000D01*
G75*
G02*
X34523000Y-47117000I0J100000D01*
G01*
X34523000Y-45742000D01*
G75*
G02*
X34623000Y-45642000I100000J0D01*
G01*
G37*
G36*
G01*
X34123000Y-45642000D02*
X34323000Y-45642000D01*
G75*
G02*
X34423000Y-45742000I0J-100000D01*
G01*
X34423000Y-47117000D01*
G75*
G02*
X34323000Y-47217000I-100000J0D01*
G01*
X34123000Y-47217000D01*
G75*
G02*
X34023000Y-47117000I0J100000D01*
G01*
X34023000Y-45742000D01*
G75*
G02*
X34123000Y-45642000I100000J0D01*
G01*
G37*
G36*
G01*
X31623000Y-44317000D02*
X32998000Y-44317000D01*
G75*
G02*
X33098000Y-44417000I0J-100000D01*
G01*
X33098000Y-44617000D01*
G75*
G02*
X32998000Y-44717000I-100000J0D01*
G01*
X31623000Y-44717000D01*
G75*
G02*
X31523000Y-44617000I0J100000D01*
G01*
X31523000Y-44417000D01*
G75*
G02*
X31623000Y-44317000I100000J0D01*
G01*
G37*
G36*
G01*
X31623000Y-43817000D02*
X32998000Y-43817000D01*
G75*
G02*
X33098000Y-43917000I0J-100000D01*
G01*
X33098000Y-44117000D01*
G75*
G02*
X32998000Y-44217000I-100000J0D01*
G01*
X31623000Y-44217000D01*
G75*
G02*
X31523000Y-44117000I0J100000D01*
G01*
X31523000Y-43917000D01*
G75*
G02*
X31623000Y-43817000I100000J0D01*
G01*
G37*
G36*
G01*
X31623000Y-43317000D02*
X32998000Y-43317000D01*
G75*
G02*
X33098000Y-43417000I0J-100000D01*
G01*
X33098000Y-43617000D01*
G75*
G02*
X32998000Y-43717000I-100000J0D01*
G01*
X31623000Y-43717000D01*
G75*
G02*
X31523000Y-43617000I0J100000D01*
G01*
X31523000Y-43417000D01*
G75*
G02*
X31623000Y-43317000I100000J0D01*
G01*
G37*
G36*
G01*
X31623000Y-42817000D02*
X32998000Y-42817000D01*
G75*
G02*
X33098000Y-42917000I0J-100000D01*
G01*
X33098000Y-43117000D01*
G75*
G02*
X32998000Y-43217000I-100000J0D01*
G01*
X31623000Y-43217000D01*
G75*
G02*
X31523000Y-43117000I0J100000D01*
G01*
X31523000Y-42917000D01*
G75*
G02*
X31623000Y-42817000I100000J0D01*
G01*
G37*
G36*
G01*
X31623000Y-42317000D02*
X32998000Y-42317000D01*
G75*
G02*
X33098000Y-42417000I0J-100000D01*
G01*
X33098000Y-42617000D01*
G75*
G02*
X32998000Y-42717000I-100000J0D01*
G01*
X31623000Y-42717000D01*
G75*
G02*
X31523000Y-42617000I0J100000D01*
G01*
X31523000Y-42417000D01*
G75*
G02*
X31623000Y-42317000I100000J0D01*
G01*
G37*
G36*
G01*
X31623000Y-41817000D02*
X32998000Y-41817000D01*
G75*
G02*
X33098000Y-41917000I0J-100000D01*
G01*
X33098000Y-42117000D01*
G75*
G02*
X32998000Y-42217000I-100000J0D01*
G01*
X31623000Y-42217000D01*
G75*
G02*
X31523000Y-42117000I0J100000D01*
G01*
X31523000Y-41917000D01*
G75*
G02*
X31623000Y-41817000I100000J0D01*
G01*
G37*
G36*
G01*
X31623000Y-41317000D02*
X32998000Y-41317000D01*
G75*
G02*
X33098000Y-41417000I0J-100000D01*
G01*
X33098000Y-41617000D01*
G75*
G02*
X32998000Y-41717000I-100000J0D01*
G01*
X31623000Y-41717000D01*
G75*
G02*
X31523000Y-41617000I0J100000D01*
G01*
X31523000Y-41417000D01*
G75*
G02*
X31623000Y-41317000I100000J0D01*
G01*
G37*
G36*
G01*
X31623000Y-40817000D02*
X32998000Y-40817000D01*
G75*
G02*
X33098000Y-40917000I0J-100000D01*
G01*
X33098000Y-41117000D01*
G75*
G02*
X32998000Y-41217000I-100000J0D01*
G01*
X31623000Y-41217000D01*
G75*
G02*
X31523000Y-41117000I0J100000D01*
G01*
X31523000Y-40917000D01*
G75*
G02*
X31623000Y-40817000I100000J0D01*
G01*
G37*
G36*
G01*
X31623000Y-40317000D02*
X32998000Y-40317000D01*
G75*
G02*
X33098000Y-40417000I0J-100000D01*
G01*
X33098000Y-40617000D01*
G75*
G02*
X32998000Y-40717000I-100000J0D01*
G01*
X31623000Y-40717000D01*
G75*
G02*
X31523000Y-40617000I0J100000D01*
G01*
X31523000Y-40417000D01*
G75*
G02*
X31623000Y-40317000I100000J0D01*
G01*
G37*
G36*
G01*
X31623000Y-39817000D02*
X32998000Y-39817000D01*
G75*
G02*
X33098000Y-39917000I0J-100000D01*
G01*
X33098000Y-40117000D01*
G75*
G02*
X32998000Y-40217000I-100000J0D01*
G01*
X31623000Y-40217000D01*
G75*
G02*
X31523000Y-40117000I0J100000D01*
G01*
X31523000Y-39917000D01*
G75*
G02*
X31623000Y-39817000I100000J0D01*
G01*
G37*
G36*
G01*
X31623000Y-39317000D02*
X32998000Y-39317000D01*
G75*
G02*
X33098000Y-39417000I0J-100000D01*
G01*
X33098000Y-39617000D01*
G75*
G02*
X32998000Y-39717000I-100000J0D01*
G01*
X31623000Y-39717000D01*
G75*
G02*
X31523000Y-39617000I0J100000D01*
G01*
X31523000Y-39417000D01*
G75*
G02*
X31623000Y-39317000I100000J0D01*
G01*
G37*
G36*
G01*
X31623000Y-38817000D02*
X32998000Y-38817000D01*
G75*
G02*
X33098000Y-38917000I0J-100000D01*
G01*
X33098000Y-39117000D01*
G75*
G02*
X32998000Y-39217000I-100000J0D01*
G01*
X31623000Y-39217000D01*
G75*
G02*
X31523000Y-39117000I0J100000D01*
G01*
X31523000Y-38917000D01*
G75*
G02*
X31623000Y-38817000I100000J0D01*
G01*
G37*
G36*
G01*
X31623000Y-38317000D02*
X32998000Y-38317000D01*
G75*
G02*
X33098000Y-38417000I0J-100000D01*
G01*
X33098000Y-38617000D01*
G75*
G02*
X32998000Y-38717000I-100000J0D01*
G01*
X31623000Y-38717000D01*
G75*
G02*
X31523000Y-38617000I0J100000D01*
G01*
X31523000Y-38417000D01*
G75*
G02*
X31623000Y-38317000I100000J0D01*
G01*
G37*
G36*
G01*
X31623000Y-37817000D02*
X32998000Y-37817000D01*
G75*
G02*
X33098000Y-37917000I0J-100000D01*
G01*
X33098000Y-38117000D01*
G75*
G02*
X32998000Y-38217000I-100000J0D01*
G01*
X31623000Y-38217000D01*
G75*
G02*
X31523000Y-38117000I0J100000D01*
G01*
X31523000Y-37917000D01*
G75*
G02*
X31623000Y-37817000I100000J0D01*
G01*
G37*
G36*
G01*
X31623000Y-37317000D02*
X32998000Y-37317000D01*
G75*
G02*
X33098000Y-37417000I0J-100000D01*
G01*
X33098000Y-37617000D01*
G75*
G02*
X32998000Y-37717000I-100000J0D01*
G01*
X31623000Y-37717000D01*
G75*
G02*
X31523000Y-37617000I0J100000D01*
G01*
X31523000Y-37417000D01*
G75*
G02*
X31623000Y-37317000I100000J0D01*
G01*
G37*
G36*
G01*
X31623000Y-36817000D02*
X32998000Y-36817000D01*
G75*
G02*
X33098000Y-36917000I0J-100000D01*
G01*
X33098000Y-37117000D01*
G75*
G02*
X32998000Y-37217000I-100000J0D01*
G01*
X31623000Y-37217000D01*
G75*
G02*
X31523000Y-37117000I0J100000D01*
G01*
X31523000Y-36917000D01*
G75*
G02*
X31623000Y-36817000I100000J0D01*
G01*
G37*
G36*
G01*
X34123000Y-34317000D02*
X34323000Y-34317000D01*
G75*
G02*
X34423000Y-34417000I0J-100000D01*
G01*
X34423000Y-35792000D01*
G75*
G02*
X34323000Y-35892000I-100000J0D01*
G01*
X34123000Y-35892000D01*
G75*
G02*
X34023000Y-35792000I0J100000D01*
G01*
X34023000Y-34417000D01*
G75*
G02*
X34123000Y-34317000I100000J0D01*
G01*
G37*
G36*
G01*
X34623000Y-34317000D02*
X34823000Y-34317000D01*
G75*
G02*
X34923000Y-34417000I0J-100000D01*
G01*
X34923000Y-35792000D01*
G75*
G02*
X34823000Y-35892000I-100000J0D01*
G01*
X34623000Y-35892000D01*
G75*
G02*
X34523000Y-35792000I0J100000D01*
G01*
X34523000Y-34417000D01*
G75*
G02*
X34623000Y-34317000I100000J0D01*
G01*
G37*
G36*
G01*
X35123000Y-34317000D02*
X35323000Y-34317000D01*
G75*
G02*
X35423000Y-34417000I0J-100000D01*
G01*
X35423000Y-35792000D01*
G75*
G02*
X35323000Y-35892000I-100000J0D01*
G01*
X35123000Y-35892000D01*
G75*
G02*
X35023000Y-35792000I0J100000D01*
G01*
X35023000Y-34417000D01*
G75*
G02*
X35123000Y-34317000I100000J0D01*
G01*
G37*
G36*
G01*
X35623000Y-34317000D02*
X35823000Y-34317000D01*
G75*
G02*
X35923000Y-34417000I0J-100000D01*
G01*
X35923000Y-35792000D01*
G75*
G02*
X35823000Y-35892000I-100000J0D01*
G01*
X35623000Y-35892000D01*
G75*
G02*
X35523000Y-35792000I0J100000D01*
G01*
X35523000Y-34417000D01*
G75*
G02*
X35623000Y-34317000I100000J0D01*
G01*
G37*
G36*
G01*
X36123000Y-34317000D02*
X36323000Y-34317000D01*
G75*
G02*
X36423000Y-34417000I0J-100000D01*
G01*
X36423000Y-35792000D01*
G75*
G02*
X36323000Y-35892000I-100000J0D01*
G01*
X36123000Y-35892000D01*
G75*
G02*
X36023000Y-35792000I0J100000D01*
G01*
X36023000Y-34417000D01*
G75*
G02*
X36123000Y-34317000I100000J0D01*
G01*
G37*
G36*
G01*
X36623000Y-34317000D02*
X36823000Y-34317000D01*
G75*
G02*
X36923000Y-34417000I0J-100000D01*
G01*
X36923000Y-35792000D01*
G75*
G02*
X36823000Y-35892000I-100000J0D01*
G01*
X36623000Y-35892000D01*
G75*
G02*
X36523000Y-35792000I0J100000D01*
G01*
X36523000Y-34417000D01*
G75*
G02*
X36623000Y-34317000I100000J0D01*
G01*
G37*
G36*
G01*
X37123000Y-34317000D02*
X37323000Y-34317000D01*
G75*
G02*
X37423000Y-34417000I0J-100000D01*
G01*
X37423000Y-35792000D01*
G75*
G02*
X37323000Y-35892000I-100000J0D01*
G01*
X37123000Y-35892000D01*
G75*
G02*
X37023000Y-35792000I0J100000D01*
G01*
X37023000Y-34417000D01*
G75*
G02*
X37123000Y-34317000I100000J0D01*
G01*
G37*
G36*
G01*
X37623000Y-34317000D02*
X37823000Y-34317000D01*
G75*
G02*
X37923000Y-34417000I0J-100000D01*
G01*
X37923000Y-35792000D01*
G75*
G02*
X37823000Y-35892000I-100000J0D01*
G01*
X37623000Y-35892000D01*
G75*
G02*
X37523000Y-35792000I0J100000D01*
G01*
X37523000Y-34417000D01*
G75*
G02*
X37623000Y-34317000I100000J0D01*
G01*
G37*
G36*
G01*
X38123000Y-34317000D02*
X38323000Y-34317000D01*
G75*
G02*
X38423000Y-34417000I0J-100000D01*
G01*
X38423000Y-35792000D01*
G75*
G02*
X38323000Y-35892000I-100000J0D01*
G01*
X38123000Y-35892000D01*
G75*
G02*
X38023000Y-35792000I0J100000D01*
G01*
X38023000Y-34417000D01*
G75*
G02*
X38123000Y-34317000I100000J0D01*
G01*
G37*
G36*
G01*
X38623000Y-34317000D02*
X38823000Y-34317000D01*
G75*
G02*
X38923000Y-34417000I0J-100000D01*
G01*
X38923000Y-35792000D01*
G75*
G02*
X38823000Y-35892000I-100000J0D01*
G01*
X38623000Y-35892000D01*
G75*
G02*
X38523000Y-35792000I0J100000D01*
G01*
X38523000Y-34417000D01*
G75*
G02*
X38623000Y-34317000I100000J0D01*
G01*
G37*
G36*
G01*
X39123000Y-34317000D02*
X39323000Y-34317000D01*
G75*
G02*
X39423000Y-34417000I0J-100000D01*
G01*
X39423000Y-35792000D01*
G75*
G02*
X39323000Y-35892000I-100000J0D01*
G01*
X39123000Y-35892000D01*
G75*
G02*
X39023000Y-35792000I0J100000D01*
G01*
X39023000Y-34417000D01*
G75*
G02*
X39123000Y-34317000I100000J0D01*
G01*
G37*
G36*
G01*
X39623000Y-34317000D02*
X39823000Y-34317000D01*
G75*
G02*
X39923000Y-34417000I0J-100000D01*
G01*
X39923000Y-35792000D01*
G75*
G02*
X39823000Y-35892000I-100000J0D01*
G01*
X39623000Y-35892000D01*
G75*
G02*
X39523000Y-35792000I0J100000D01*
G01*
X39523000Y-34417000D01*
G75*
G02*
X39623000Y-34317000I100000J0D01*
G01*
G37*
G36*
G01*
X40123000Y-34317000D02*
X40323000Y-34317000D01*
G75*
G02*
X40423000Y-34417000I0J-100000D01*
G01*
X40423000Y-35792000D01*
G75*
G02*
X40323000Y-35892000I-100000J0D01*
G01*
X40123000Y-35892000D01*
G75*
G02*
X40023000Y-35792000I0J100000D01*
G01*
X40023000Y-34417000D01*
G75*
G02*
X40123000Y-34317000I100000J0D01*
G01*
G37*
G36*
G01*
X40623000Y-34317000D02*
X40823000Y-34317000D01*
G75*
G02*
X40923000Y-34417000I0J-100000D01*
G01*
X40923000Y-35792000D01*
G75*
G02*
X40823000Y-35892000I-100000J0D01*
G01*
X40623000Y-35892000D01*
G75*
G02*
X40523000Y-35792000I0J100000D01*
G01*
X40523000Y-34417000D01*
G75*
G02*
X40623000Y-34317000I100000J0D01*
G01*
G37*
G36*
G01*
X41123000Y-34317000D02*
X41323000Y-34317000D01*
G75*
G02*
X41423000Y-34417000I0J-100000D01*
G01*
X41423000Y-35792000D01*
G75*
G02*
X41323000Y-35892000I-100000J0D01*
G01*
X41123000Y-35892000D01*
G75*
G02*
X41023000Y-35792000I0J100000D01*
G01*
X41023000Y-34417000D01*
G75*
G02*
X41123000Y-34317000I100000J0D01*
G01*
G37*
G36*
G01*
X41623000Y-34317000D02*
X41823000Y-34317000D01*
G75*
G02*
X41923000Y-34417000I0J-100000D01*
G01*
X41923000Y-35792000D01*
G75*
G02*
X41823000Y-35892000I-100000J0D01*
G01*
X41623000Y-35892000D01*
G75*
G02*
X41523000Y-35792000I0J100000D01*
G01*
X41523000Y-34417000D01*
G75*
G02*
X41623000Y-34317000I100000J0D01*
G01*
G37*
%TD*%
D24*
%TO.C,U6*%
X35546000Y-79198000D03*
X40146000Y-79198000D03*
X37846000Y-79198000D03*
D25*
X37846000Y-72898000D03*
%TD*%
%TO.C,U5*%
G36*
G01*
X36243000Y-91957000D02*
X35893000Y-91957000D01*
G75*
G02*
X35718000Y-91782000I0J175000D01*
G01*
X35718000Y-90082000D01*
G75*
G02*
X35893000Y-89907000I175000J0D01*
G01*
X36243000Y-89907000D01*
G75*
G02*
X36418000Y-90082000I0J-175000D01*
G01*
X36418000Y-91782000D01*
G75*
G02*
X36243000Y-91957000I-175000J0D01*
G01*
G37*
G36*
G01*
X37513000Y-91957000D02*
X37163000Y-91957000D01*
G75*
G02*
X36988000Y-91782000I0J175000D01*
G01*
X36988000Y-90082000D01*
G75*
G02*
X37163000Y-89907000I175000J0D01*
G01*
X37513000Y-89907000D01*
G75*
G02*
X37688000Y-90082000I0J-175000D01*
G01*
X37688000Y-91782000D01*
G75*
G02*
X37513000Y-91957000I-175000J0D01*
G01*
G37*
G36*
G01*
X38783000Y-91957000D02*
X38433000Y-91957000D01*
G75*
G02*
X38258000Y-91782000I0J175000D01*
G01*
X38258000Y-90082000D01*
G75*
G02*
X38433000Y-89907000I175000J0D01*
G01*
X38783000Y-89907000D01*
G75*
G02*
X38958000Y-90082000I0J-175000D01*
G01*
X38958000Y-91782000D01*
G75*
G02*
X38783000Y-91957000I-175000J0D01*
G01*
G37*
G36*
G01*
X40053000Y-91957000D02*
X39703000Y-91957000D01*
G75*
G02*
X39528000Y-91782000I0J175000D01*
G01*
X39528000Y-90082000D01*
G75*
G02*
X39703000Y-89907000I175000J0D01*
G01*
X40053000Y-89907000D01*
G75*
G02*
X40228000Y-90082000I0J-175000D01*
G01*
X40228000Y-91782000D01*
G75*
G02*
X40053000Y-91957000I-175000J0D01*
G01*
G37*
G36*
G01*
X40053000Y-96907000D02*
X39703000Y-96907000D01*
G75*
G02*
X39528000Y-96732000I0J175000D01*
G01*
X39528000Y-95032000D01*
G75*
G02*
X39703000Y-94857000I175000J0D01*
G01*
X40053000Y-94857000D01*
G75*
G02*
X40228000Y-95032000I0J-175000D01*
G01*
X40228000Y-96732000D01*
G75*
G02*
X40053000Y-96907000I-175000J0D01*
G01*
G37*
G36*
G01*
X38783000Y-96907000D02*
X38433000Y-96907000D01*
G75*
G02*
X38258000Y-96732000I0J175000D01*
G01*
X38258000Y-95032000D01*
G75*
G02*
X38433000Y-94857000I175000J0D01*
G01*
X38783000Y-94857000D01*
G75*
G02*
X38958000Y-95032000I0J-175000D01*
G01*
X38958000Y-96732000D01*
G75*
G02*
X38783000Y-96907000I-175000J0D01*
G01*
G37*
G36*
G01*
X37513000Y-96907000D02*
X37163000Y-96907000D01*
G75*
G02*
X36988000Y-96732000I0J175000D01*
G01*
X36988000Y-95032000D01*
G75*
G02*
X37163000Y-94857000I175000J0D01*
G01*
X37513000Y-94857000D01*
G75*
G02*
X37688000Y-95032000I0J-175000D01*
G01*
X37688000Y-96732000D01*
G75*
G02*
X37513000Y-96907000I-175000J0D01*
G01*
G37*
G36*
G01*
X36243000Y-96907000D02*
X35893000Y-96907000D01*
G75*
G02*
X35718000Y-96732000I0J175000D01*
G01*
X35718000Y-95032000D01*
G75*
G02*
X35893000Y-94857000I175000J0D01*
G01*
X36243000Y-94857000D01*
G75*
G02*
X36418000Y-95032000I0J-175000D01*
G01*
X36418000Y-96732000D01*
G75*
G02*
X36243000Y-96907000I-175000J0D01*
G01*
G37*
%TD*%
D26*
%TO.C,U4*%
X46609000Y-97282000D03*
D27*
X46609000Y-94742000D03*
X46609000Y-92202000D03*
X46609000Y-89662000D03*
%TD*%
%TO.C,U2*%
G36*
G01*
X41177000Y-64943000D02*
X41177000Y-66318000D01*
G75*
G02*
X41077000Y-66418000I-100000J0D01*
G01*
X40877000Y-66418000D01*
G75*
G02*
X40777000Y-66318000I0J100000D01*
G01*
X40777000Y-64943000D01*
G75*
G02*
X40877000Y-64843000I100000J0D01*
G01*
X41077000Y-64843000D01*
G75*
G02*
X41177000Y-64943000I0J-100000D01*
G01*
G37*
G36*
G01*
X40677000Y-64943000D02*
X40677000Y-66318000D01*
G75*
G02*
X40577000Y-66418000I-100000J0D01*
G01*
X40377000Y-66418000D01*
G75*
G02*
X40277000Y-66318000I0J100000D01*
G01*
X40277000Y-64943000D01*
G75*
G02*
X40377000Y-64843000I100000J0D01*
G01*
X40577000Y-64843000D01*
G75*
G02*
X40677000Y-64943000I0J-100000D01*
G01*
G37*
G36*
G01*
X40177000Y-64943000D02*
X40177000Y-66318000D01*
G75*
G02*
X40077000Y-66418000I-100000J0D01*
G01*
X39877000Y-66418000D01*
G75*
G02*
X39777000Y-66318000I0J100000D01*
G01*
X39777000Y-64943000D01*
G75*
G02*
X39877000Y-64843000I100000J0D01*
G01*
X40077000Y-64843000D01*
G75*
G02*
X40177000Y-64943000I0J-100000D01*
G01*
G37*
G36*
G01*
X39677000Y-64943000D02*
X39677000Y-66318000D01*
G75*
G02*
X39577000Y-66418000I-100000J0D01*
G01*
X39377000Y-66418000D01*
G75*
G02*
X39277000Y-66318000I0J100000D01*
G01*
X39277000Y-64943000D01*
G75*
G02*
X39377000Y-64843000I100000J0D01*
G01*
X39577000Y-64843000D01*
G75*
G02*
X39677000Y-64943000I0J-100000D01*
G01*
G37*
G36*
G01*
X39177000Y-64943000D02*
X39177000Y-66318000D01*
G75*
G02*
X39077000Y-66418000I-100000J0D01*
G01*
X38877000Y-66418000D01*
G75*
G02*
X38777000Y-66318000I0J100000D01*
G01*
X38777000Y-64943000D01*
G75*
G02*
X38877000Y-64843000I100000J0D01*
G01*
X39077000Y-64843000D01*
G75*
G02*
X39177000Y-64943000I0J-100000D01*
G01*
G37*
G36*
G01*
X38677000Y-64943000D02*
X38677000Y-66318000D01*
G75*
G02*
X38577000Y-66418000I-100000J0D01*
G01*
X38377000Y-66418000D01*
G75*
G02*
X38277000Y-66318000I0J100000D01*
G01*
X38277000Y-64943000D01*
G75*
G02*
X38377000Y-64843000I100000J0D01*
G01*
X38577000Y-64843000D01*
G75*
G02*
X38677000Y-64943000I0J-100000D01*
G01*
G37*
G36*
G01*
X38177000Y-64943000D02*
X38177000Y-66318000D01*
G75*
G02*
X38077000Y-66418000I-100000J0D01*
G01*
X37877000Y-66418000D01*
G75*
G02*
X37777000Y-66318000I0J100000D01*
G01*
X37777000Y-64943000D01*
G75*
G02*
X37877000Y-64843000I100000J0D01*
G01*
X38077000Y-64843000D01*
G75*
G02*
X38177000Y-64943000I0J-100000D01*
G01*
G37*
G36*
G01*
X37677000Y-64943000D02*
X37677000Y-66318000D01*
G75*
G02*
X37577000Y-66418000I-100000J0D01*
G01*
X37377000Y-66418000D01*
G75*
G02*
X37277000Y-66318000I0J100000D01*
G01*
X37277000Y-64943000D01*
G75*
G02*
X37377000Y-64843000I100000J0D01*
G01*
X37577000Y-64843000D01*
G75*
G02*
X37677000Y-64943000I0J-100000D01*
G01*
G37*
G36*
G01*
X37177000Y-64943000D02*
X37177000Y-66318000D01*
G75*
G02*
X37077000Y-66418000I-100000J0D01*
G01*
X36877000Y-66418000D01*
G75*
G02*
X36777000Y-66318000I0J100000D01*
G01*
X36777000Y-64943000D01*
G75*
G02*
X36877000Y-64843000I100000J0D01*
G01*
X37077000Y-64843000D01*
G75*
G02*
X37177000Y-64943000I0J-100000D01*
G01*
G37*
G36*
G01*
X36677000Y-64943000D02*
X36677000Y-66318000D01*
G75*
G02*
X36577000Y-66418000I-100000J0D01*
G01*
X36377000Y-66418000D01*
G75*
G02*
X36277000Y-66318000I0J100000D01*
G01*
X36277000Y-64943000D01*
G75*
G02*
X36377000Y-64843000I100000J0D01*
G01*
X36577000Y-64843000D01*
G75*
G02*
X36677000Y-64943000I0J-100000D01*
G01*
G37*
G36*
G01*
X36177000Y-64943000D02*
X36177000Y-66318000D01*
G75*
G02*
X36077000Y-66418000I-100000J0D01*
G01*
X35877000Y-66418000D01*
G75*
G02*
X35777000Y-66318000I0J100000D01*
G01*
X35777000Y-64943000D01*
G75*
G02*
X35877000Y-64843000I100000J0D01*
G01*
X36077000Y-64843000D01*
G75*
G02*
X36177000Y-64943000I0J-100000D01*
G01*
G37*
G36*
G01*
X35677000Y-64943000D02*
X35677000Y-66318000D01*
G75*
G02*
X35577000Y-66418000I-100000J0D01*
G01*
X35377000Y-66418000D01*
G75*
G02*
X35277000Y-66318000I0J100000D01*
G01*
X35277000Y-64943000D01*
G75*
G02*
X35377000Y-64843000I100000J0D01*
G01*
X35577000Y-64843000D01*
G75*
G02*
X35677000Y-64943000I0J-100000D01*
G01*
G37*
G36*
G01*
X34852000Y-64118000D02*
X34852000Y-64318000D01*
G75*
G02*
X34752000Y-64418000I-100000J0D01*
G01*
X33377000Y-64418000D01*
G75*
G02*
X33277000Y-64318000I0J100000D01*
G01*
X33277000Y-64118000D01*
G75*
G02*
X33377000Y-64018000I100000J0D01*
G01*
X34752000Y-64018000D01*
G75*
G02*
X34852000Y-64118000I0J-100000D01*
G01*
G37*
G36*
G01*
X34852000Y-63618000D02*
X34852000Y-63818000D01*
G75*
G02*
X34752000Y-63918000I-100000J0D01*
G01*
X33377000Y-63918000D01*
G75*
G02*
X33277000Y-63818000I0J100000D01*
G01*
X33277000Y-63618000D01*
G75*
G02*
X33377000Y-63518000I100000J0D01*
G01*
X34752000Y-63518000D01*
G75*
G02*
X34852000Y-63618000I0J-100000D01*
G01*
G37*
G36*
G01*
X34852000Y-63118000D02*
X34852000Y-63318000D01*
G75*
G02*
X34752000Y-63418000I-100000J0D01*
G01*
X33377000Y-63418000D01*
G75*
G02*
X33277000Y-63318000I0J100000D01*
G01*
X33277000Y-63118000D01*
G75*
G02*
X33377000Y-63018000I100000J0D01*
G01*
X34752000Y-63018000D01*
G75*
G02*
X34852000Y-63118000I0J-100000D01*
G01*
G37*
G36*
G01*
X34852000Y-62618000D02*
X34852000Y-62818000D01*
G75*
G02*
X34752000Y-62918000I-100000J0D01*
G01*
X33377000Y-62918000D01*
G75*
G02*
X33277000Y-62818000I0J100000D01*
G01*
X33277000Y-62618000D01*
G75*
G02*
X33377000Y-62518000I100000J0D01*
G01*
X34752000Y-62518000D01*
G75*
G02*
X34852000Y-62618000I0J-100000D01*
G01*
G37*
G36*
G01*
X34852000Y-62118000D02*
X34852000Y-62318000D01*
G75*
G02*
X34752000Y-62418000I-100000J0D01*
G01*
X33377000Y-62418000D01*
G75*
G02*
X33277000Y-62318000I0J100000D01*
G01*
X33277000Y-62118000D01*
G75*
G02*
X33377000Y-62018000I100000J0D01*
G01*
X34752000Y-62018000D01*
G75*
G02*
X34852000Y-62118000I0J-100000D01*
G01*
G37*
G36*
G01*
X34852000Y-61618000D02*
X34852000Y-61818000D01*
G75*
G02*
X34752000Y-61918000I-100000J0D01*
G01*
X33377000Y-61918000D01*
G75*
G02*
X33277000Y-61818000I0J100000D01*
G01*
X33277000Y-61618000D01*
G75*
G02*
X33377000Y-61518000I100000J0D01*
G01*
X34752000Y-61518000D01*
G75*
G02*
X34852000Y-61618000I0J-100000D01*
G01*
G37*
G36*
G01*
X34852000Y-61118000D02*
X34852000Y-61318000D01*
G75*
G02*
X34752000Y-61418000I-100000J0D01*
G01*
X33377000Y-61418000D01*
G75*
G02*
X33277000Y-61318000I0J100000D01*
G01*
X33277000Y-61118000D01*
G75*
G02*
X33377000Y-61018000I100000J0D01*
G01*
X34752000Y-61018000D01*
G75*
G02*
X34852000Y-61118000I0J-100000D01*
G01*
G37*
G36*
G01*
X34852000Y-60618000D02*
X34852000Y-60818000D01*
G75*
G02*
X34752000Y-60918000I-100000J0D01*
G01*
X33377000Y-60918000D01*
G75*
G02*
X33277000Y-60818000I0J100000D01*
G01*
X33277000Y-60618000D01*
G75*
G02*
X33377000Y-60518000I100000J0D01*
G01*
X34752000Y-60518000D01*
G75*
G02*
X34852000Y-60618000I0J-100000D01*
G01*
G37*
G36*
G01*
X34852000Y-60118000D02*
X34852000Y-60318000D01*
G75*
G02*
X34752000Y-60418000I-100000J0D01*
G01*
X33377000Y-60418000D01*
G75*
G02*
X33277000Y-60318000I0J100000D01*
G01*
X33277000Y-60118000D01*
G75*
G02*
X33377000Y-60018000I100000J0D01*
G01*
X34752000Y-60018000D01*
G75*
G02*
X34852000Y-60118000I0J-100000D01*
G01*
G37*
G36*
G01*
X34852000Y-59618000D02*
X34852000Y-59818000D01*
G75*
G02*
X34752000Y-59918000I-100000J0D01*
G01*
X33377000Y-59918000D01*
G75*
G02*
X33277000Y-59818000I0J100000D01*
G01*
X33277000Y-59618000D01*
G75*
G02*
X33377000Y-59518000I100000J0D01*
G01*
X34752000Y-59518000D01*
G75*
G02*
X34852000Y-59618000I0J-100000D01*
G01*
G37*
G36*
G01*
X34852000Y-59118000D02*
X34852000Y-59318000D01*
G75*
G02*
X34752000Y-59418000I-100000J0D01*
G01*
X33377000Y-59418000D01*
G75*
G02*
X33277000Y-59318000I0J100000D01*
G01*
X33277000Y-59118000D01*
G75*
G02*
X33377000Y-59018000I100000J0D01*
G01*
X34752000Y-59018000D01*
G75*
G02*
X34852000Y-59118000I0J-100000D01*
G01*
G37*
G36*
G01*
X34852000Y-58618000D02*
X34852000Y-58818000D01*
G75*
G02*
X34752000Y-58918000I-100000J0D01*
G01*
X33377000Y-58918000D01*
G75*
G02*
X33277000Y-58818000I0J100000D01*
G01*
X33277000Y-58618000D01*
G75*
G02*
X33377000Y-58518000I100000J0D01*
G01*
X34752000Y-58518000D01*
G75*
G02*
X34852000Y-58618000I0J-100000D01*
G01*
G37*
G36*
G01*
X35677000Y-56618000D02*
X35677000Y-57993000D01*
G75*
G02*
X35577000Y-58093000I-100000J0D01*
G01*
X35377000Y-58093000D01*
G75*
G02*
X35277000Y-57993000I0J100000D01*
G01*
X35277000Y-56618000D01*
G75*
G02*
X35377000Y-56518000I100000J0D01*
G01*
X35577000Y-56518000D01*
G75*
G02*
X35677000Y-56618000I0J-100000D01*
G01*
G37*
G36*
G01*
X36177000Y-56618000D02*
X36177000Y-57993000D01*
G75*
G02*
X36077000Y-58093000I-100000J0D01*
G01*
X35877000Y-58093000D01*
G75*
G02*
X35777000Y-57993000I0J100000D01*
G01*
X35777000Y-56618000D01*
G75*
G02*
X35877000Y-56518000I100000J0D01*
G01*
X36077000Y-56518000D01*
G75*
G02*
X36177000Y-56618000I0J-100000D01*
G01*
G37*
G36*
G01*
X36677000Y-56618000D02*
X36677000Y-57993000D01*
G75*
G02*
X36577000Y-58093000I-100000J0D01*
G01*
X36377000Y-58093000D01*
G75*
G02*
X36277000Y-57993000I0J100000D01*
G01*
X36277000Y-56618000D01*
G75*
G02*
X36377000Y-56518000I100000J0D01*
G01*
X36577000Y-56518000D01*
G75*
G02*
X36677000Y-56618000I0J-100000D01*
G01*
G37*
G36*
G01*
X37177000Y-56618000D02*
X37177000Y-57993000D01*
G75*
G02*
X37077000Y-58093000I-100000J0D01*
G01*
X36877000Y-58093000D01*
G75*
G02*
X36777000Y-57993000I0J100000D01*
G01*
X36777000Y-56618000D01*
G75*
G02*
X36877000Y-56518000I100000J0D01*
G01*
X37077000Y-56518000D01*
G75*
G02*
X37177000Y-56618000I0J-100000D01*
G01*
G37*
G36*
G01*
X37677000Y-56618000D02*
X37677000Y-57993000D01*
G75*
G02*
X37577000Y-58093000I-100000J0D01*
G01*
X37377000Y-58093000D01*
G75*
G02*
X37277000Y-57993000I0J100000D01*
G01*
X37277000Y-56618000D01*
G75*
G02*
X37377000Y-56518000I100000J0D01*
G01*
X37577000Y-56518000D01*
G75*
G02*
X37677000Y-56618000I0J-100000D01*
G01*
G37*
G36*
G01*
X38177000Y-56618000D02*
X38177000Y-57993000D01*
G75*
G02*
X38077000Y-58093000I-100000J0D01*
G01*
X37877000Y-58093000D01*
G75*
G02*
X37777000Y-57993000I0J100000D01*
G01*
X37777000Y-56618000D01*
G75*
G02*
X37877000Y-56518000I100000J0D01*
G01*
X38077000Y-56518000D01*
G75*
G02*
X38177000Y-56618000I0J-100000D01*
G01*
G37*
G36*
G01*
X38677000Y-56618000D02*
X38677000Y-57993000D01*
G75*
G02*
X38577000Y-58093000I-100000J0D01*
G01*
X38377000Y-58093000D01*
G75*
G02*
X38277000Y-57993000I0J100000D01*
G01*
X38277000Y-56618000D01*
G75*
G02*
X38377000Y-56518000I100000J0D01*
G01*
X38577000Y-56518000D01*
G75*
G02*
X38677000Y-56618000I0J-100000D01*
G01*
G37*
G36*
G01*
X39177000Y-56618000D02*
X39177000Y-57993000D01*
G75*
G02*
X39077000Y-58093000I-100000J0D01*
G01*
X38877000Y-58093000D01*
G75*
G02*
X38777000Y-57993000I0J100000D01*
G01*
X38777000Y-56618000D01*
G75*
G02*
X38877000Y-56518000I100000J0D01*
G01*
X39077000Y-56518000D01*
G75*
G02*
X39177000Y-56618000I0J-100000D01*
G01*
G37*
G36*
G01*
X39677000Y-56618000D02*
X39677000Y-57993000D01*
G75*
G02*
X39577000Y-58093000I-100000J0D01*
G01*
X39377000Y-58093000D01*
G75*
G02*
X39277000Y-57993000I0J100000D01*
G01*
X39277000Y-56618000D01*
G75*
G02*
X39377000Y-56518000I100000J0D01*
G01*
X39577000Y-56518000D01*
G75*
G02*
X39677000Y-56618000I0J-100000D01*
G01*
G37*
G36*
G01*
X40177000Y-56618000D02*
X40177000Y-57993000D01*
G75*
G02*
X40077000Y-58093000I-100000J0D01*
G01*
X39877000Y-58093000D01*
G75*
G02*
X39777000Y-57993000I0J100000D01*
G01*
X39777000Y-56618000D01*
G75*
G02*
X39877000Y-56518000I100000J0D01*
G01*
X40077000Y-56518000D01*
G75*
G02*
X40177000Y-56618000I0J-100000D01*
G01*
G37*
G36*
G01*
X40677000Y-56618000D02*
X40677000Y-57993000D01*
G75*
G02*
X40577000Y-58093000I-100000J0D01*
G01*
X40377000Y-58093000D01*
G75*
G02*
X40277000Y-57993000I0J100000D01*
G01*
X40277000Y-56618000D01*
G75*
G02*
X40377000Y-56518000I100000J0D01*
G01*
X40577000Y-56518000D01*
G75*
G02*
X40677000Y-56618000I0J-100000D01*
G01*
G37*
G36*
G01*
X41177000Y-56618000D02*
X41177000Y-57993000D01*
G75*
G02*
X41077000Y-58093000I-100000J0D01*
G01*
X40877000Y-58093000D01*
G75*
G02*
X40777000Y-57993000I0J100000D01*
G01*
X40777000Y-56618000D01*
G75*
G02*
X40877000Y-56518000I100000J0D01*
G01*
X41077000Y-56518000D01*
G75*
G02*
X41177000Y-56618000I0J-100000D01*
G01*
G37*
G36*
G01*
X43177000Y-58618000D02*
X43177000Y-58818000D01*
G75*
G02*
X43077000Y-58918000I-100000J0D01*
G01*
X41702000Y-58918000D01*
G75*
G02*
X41602000Y-58818000I0J100000D01*
G01*
X41602000Y-58618000D01*
G75*
G02*
X41702000Y-58518000I100000J0D01*
G01*
X43077000Y-58518000D01*
G75*
G02*
X43177000Y-58618000I0J-100000D01*
G01*
G37*
G36*
G01*
X43177000Y-59118000D02*
X43177000Y-59318000D01*
G75*
G02*
X43077000Y-59418000I-100000J0D01*
G01*
X41702000Y-59418000D01*
G75*
G02*
X41602000Y-59318000I0J100000D01*
G01*
X41602000Y-59118000D01*
G75*
G02*
X41702000Y-59018000I100000J0D01*
G01*
X43077000Y-59018000D01*
G75*
G02*
X43177000Y-59118000I0J-100000D01*
G01*
G37*
G36*
G01*
X43177000Y-59618000D02*
X43177000Y-59818000D01*
G75*
G02*
X43077000Y-59918000I-100000J0D01*
G01*
X41702000Y-59918000D01*
G75*
G02*
X41602000Y-59818000I0J100000D01*
G01*
X41602000Y-59618000D01*
G75*
G02*
X41702000Y-59518000I100000J0D01*
G01*
X43077000Y-59518000D01*
G75*
G02*
X43177000Y-59618000I0J-100000D01*
G01*
G37*
G36*
G01*
X43177000Y-60118000D02*
X43177000Y-60318000D01*
G75*
G02*
X43077000Y-60418000I-100000J0D01*
G01*
X41702000Y-60418000D01*
G75*
G02*
X41602000Y-60318000I0J100000D01*
G01*
X41602000Y-60118000D01*
G75*
G02*
X41702000Y-60018000I100000J0D01*
G01*
X43077000Y-60018000D01*
G75*
G02*
X43177000Y-60118000I0J-100000D01*
G01*
G37*
G36*
G01*
X43177000Y-60618000D02*
X43177000Y-60818000D01*
G75*
G02*
X43077000Y-60918000I-100000J0D01*
G01*
X41702000Y-60918000D01*
G75*
G02*
X41602000Y-60818000I0J100000D01*
G01*
X41602000Y-60618000D01*
G75*
G02*
X41702000Y-60518000I100000J0D01*
G01*
X43077000Y-60518000D01*
G75*
G02*
X43177000Y-60618000I0J-100000D01*
G01*
G37*
G36*
G01*
X43177000Y-61118000D02*
X43177000Y-61318000D01*
G75*
G02*
X43077000Y-61418000I-100000J0D01*
G01*
X41702000Y-61418000D01*
G75*
G02*
X41602000Y-61318000I0J100000D01*
G01*
X41602000Y-61118000D01*
G75*
G02*
X41702000Y-61018000I100000J0D01*
G01*
X43077000Y-61018000D01*
G75*
G02*
X43177000Y-61118000I0J-100000D01*
G01*
G37*
G36*
G01*
X43177000Y-61618000D02*
X43177000Y-61818000D01*
G75*
G02*
X43077000Y-61918000I-100000J0D01*
G01*
X41702000Y-61918000D01*
G75*
G02*
X41602000Y-61818000I0J100000D01*
G01*
X41602000Y-61618000D01*
G75*
G02*
X41702000Y-61518000I100000J0D01*
G01*
X43077000Y-61518000D01*
G75*
G02*
X43177000Y-61618000I0J-100000D01*
G01*
G37*
G36*
G01*
X43177000Y-62118000D02*
X43177000Y-62318000D01*
G75*
G02*
X43077000Y-62418000I-100000J0D01*
G01*
X41702000Y-62418000D01*
G75*
G02*
X41602000Y-62318000I0J100000D01*
G01*
X41602000Y-62118000D01*
G75*
G02*
X41702000Y-62018000I100000J0D01*
G01*
X43077000Y-62018000D01*
G75*
G02*
X43177000Y-62118000I0J-100000D01*
G01*
G37*
G36*
G01*
X43177000Y-62618000D02*
X43177000Y-62818000D01*
G75*
G02*
X43077000Y-62918000I-100000J0D01*
G01*
X41702000Y-62918000D01*
G75*
G02*
X41602000Y-62818000I0J100000D01*
G01*
X41602000Y-62618000D01*
G75*
G02*
X41702000Y-62518000I100000J0D01*
G01*
X43077000Y-62518000D01*
G75*
G02*
X43177000Y-62618000I0J-100000D01*
G01*
G37*
G36*
G01*
X43177000Y-63118000D02*
X43177000Y-63318000D01*
G75*
G02*
X43077000Y-63418000I-100000J0D01*
G01*
X41702000Y-63418000D01*
G75*
G02*
X41602000Y-63318000I0J100000D01*
G01*
X41602000Y-63118000D01*
G75*
G02*
X41702000Y-63018000I100000J0D01*
G01*
X43077000Y-63018000D01*
G75*
G02*
X43177000Y-63118000I0J-100000D01*
G01*
G37*
G36*
G01*
X43177000Y-63618000D02*
X43177000Y-63818000D01*
G75*
G02*
X43077000Y-63918000I-100000J0D01*
G01*
X41702000Y-63918000D01*
G75*
G02*
X41602000Y-63818000I0J100000D01*
G01*
X41602000Y-63618000D01*
G75*
G02*
X41702000Y-63518000I100000J0D01*
G01*
X43077000Y-63518000D01*
G75*
G02*
X43177000Y-63618000I0J-100000D01*
G01*
G37*
G36*
G01*
X43177000Y-64118000D02*
X43177000Y-64318000D01*
G75*
G02*
X43077000Y-64418000I-100000J0D01*
G01*
X41702000Y-64418000D01*
G75*
G02*
X41602000Y-64318000I0J100000D01*
G01*
X41602000Y-64118000D01*
G75*
G02*
X41702000Y-64018000I100000J0D01*
G01*
X43077000Y-64018000D01*
G75*
G02*
X43177000Y-64118000I0J-100000D01*
G01*
G37*
%TD*%
%TO.C,U1*%
G36*
G01*
X24458000Y-104600000D02*
X24458000Y-104950000D01*
G75*
G02*
X24283000Y-105125000I-175000J0D01*
G01*
X22583000Y-105125000D01*
G75*
G02*
X22408000Y-104950000I0J175000D01*
G01*
X22408000Y-104600000D01*
G75*
G02*
X22583000Y-104425000I175000J0D01*
G01*
X24283000Y-104425000D01*
G75*
G02*
X24458000Y-104600000I0J-175000D01*
G01*
G37*
G36*
G01*
X24458000Y-103330000D02*
X24458000Y-103680000D01*
G75*
G02*
X24283000Y-103855000I-175000J0D01*
G01*
X22583000Y-103855000D01*
G75*
G02*
X22408000Y-103680000I0J175000D01*
G01*
X22408000Y-103330000D01*
G75*
G02*
X22583000Y-103155000I175000J0D01*
G01*
X24283000Y-103155000D01*
G75*
G02*
X24458000Y-103330000I0J-175000D01*
G01*
G37*
G36*
G01*
X24458000Y-102060000D02*
X24458000Y-102410000D01*
G75*
G02*
X24283000Y-102585000I-175000J0D01*
G01*
X22583000Y-102585000D01*
G75*
G02*
X22408000Y-102410000I0J175000D01*
G01*
X22408000Y-102060000D01*
G75*
G02*
X22583000Y-101885000I175000J0D01*
G01*
X24283000Y-101885000D01*
G75*
G02*
X24458000Y-102060000I0J-175000D01*
G01*
G37*
G36*
G01*
X24458000Y-100790000D02*
X24458000Y-101140000D01*
G75*
G02*
X24283000Y-101315000I-175000J0D01*
G01*
X22583000Y-101315000D01*
G75*
G02*
X22408000Y-101140000I0J175000D01*
G01*
X22408000Y-100790000D01*
G75*
G02*
X22583000Y-100615000I175000J0D01*
G01*
X24283000Y-100615000D01*
G75*
G02*
X24458000Y-100790000I0J-175000D01*
G01*
G37*
G36*
G01*
X24458000Y-99520000D02*
X24458000Y-99870000D01*
G75*
G02*
X24283000Y-100045000I-175000J0D01*
G01*
X22583000Y-100045000D01*
G75*
G02*
X22408000Y-99870000I0J175000D01*
G01*
X22408000Y-99520000D01*
G75*
G02*
X22583000Y-99345000I175000J0D01*
G01*
X24283000Y-99345000D01*
G75*
G02*
X24458000Y-99520000I0J-175000D01*
G01*
G37*
G36*
G01*
X24458000Y-98250000D02*
X24458000Y-98600000D01*
G75*
G02*
X24283000Y-98775000I-175000J0D01*
G01*
X22583000Y-98775000D01*
G75*
G02*
X22408000Y-98600000I0J175000D01*
G01*
X22408000Y-98250000D01*
G75*
G02*
X22583000Y-98075000I175000J0D01*
G01*
X24283000Y-98075000D01*
G75*
G02*
X24458000Y-98250000I0J-175000D01*
G01*
G37*
G36*
G01*
X24458000Y-96980000D02*
X24458000Y-97330000D01*
G75*
G02*
X24283000Y-97505000I-175000J0D01*
G01*
X22583000Y-97505000D01*
G75*
G02*
X22408000Y-97330000I0J175000D01*
G01*
X22408000Y-96980000D01*
G75*
G02*
X22583000Y-96805000I175000J0D01*
G01*
X24283000Y-96805000D01*
G75*
G02*
X24458000Y-96980000I0J-175000D01*
G01*
G37*
G36*
G01*
X24458000Y-95710000D02*
X24458000Y-96060000D01*
G75*
G02*
X24283000Y-96235000I-175000J0D01*
G01*
X22583000Y-96235000D01*
G75*
G02*
X22408000Y-96060000I0J175000D01*
G01*
X22408000Y-95710000D01*
G75*
G02*
X22583000Y-95535000I175000J0D01*
G01*
X24283000Y-95535000D01*
G75*
G02*
X24458000Y-95710000I0J-175000D01*
G01*
G37*
G36*
G01*
X29408000Y-95710000D02*
X29408000Y-96060000D01*
G75*
G02*
X29233000Y-96235000I-175000J0D01*
G01*
X27533000Y-96235000D01*
G75*
G02*
X27358000Y-96060000I0J175000D01*
G01*
X27358000Y-95710000D01*
G75*
G02*
X27533000Y-95535000I175000J0D01*
G01*
X29233000Y-95535000D01*
G75*
G02*
X29408000Y-95710000I0J-175000D01*
G01*
G37*
G36*
G01*
X29408000Y-96980000D02*
X29408000Y-97330000D01*
G75*
G02*
X29233000Y-97505000I-175000J0D01*
G01*
X27533000Y-97505000D01*
G75*
G02*
X27358000Y-97330000I0J175000D01*
G01*
X27358000Y-96980000D01*
G75*
G02*
X27533000Y-96805000I175000J0D01*
G01*
X29233000Y-96805000D01*
G75*
G02*
X29408000Y-96980000I0J-175000D01*
G01*
G37*
G36*
G01*
X29408000Y-98250000D02*
X29408000Y-98600000D01*
G75*
G02*
X29233000Y-98775000I-175000J0D01*
G01*
X27533000Y-98775000D01*
G75*
G02*
X27358000Y-98600000I0J175000D01*
G01*
X27358000Y-98250000D01*
G75*
G02*
X27533000Y-98075000I175000J0D01*
G01*
X29233000Y-98075000D01*
G75*
G02*
X29408000Y-98250000I0J-175000D01*
G01*
G37*
G36*
G01*
X29408000Y-99520000D02*
X29408000Y-99870000D01*
G75*
G02*
X29233000Y-100045000I-175000J0D01*
G01*
X27533000Y-100045000D01*
G75*
G02*
X27358000Y-99870000I0J175000D01*
G01*
X27358000Y-99520000D01*
G75*
G02*
X27533000Y-99345000I175000J0D01*
G01*
X29233000Y-99345000D01*
G75*
G02*
X29408000Y-99520000I0J-175000D01*
G01*
G37*
G36*
G01*
X29408000Y-100790000D02*
X29408000Y-101140000D01*
G75*
G02*
X29233000Y-101315000I-175000J0D01*
G01*
X27533000Y-101315000D01*
G75*
G02*
X27358000Y-101140000I0J175000D01*
G01*
X27358000Y-100790000D01*
G75*
G02*
X27533000Y-100615000I175000J0D01*
G01*
X29233000Y-100615000D01*
G75*
G02*
X29408000Y-100790000I0J-175000D01*
G01*
G37*
G36*
G01*
X29408000Y-102060000D02*
X29408000Y-102410000D01*
G75*
G02*
X29233000Y-102585000I-175000J0D01*
G01*
X27533000Y-102585000D01*
G75*
G02*
X27358000Y-102410000I0J175000D01*
G01*
X27358000Y-102060000D01*
G75*
G02*
X27533000Y-101885000I175000J0D01*
G01*
X29233000Y-101885000D01*
G75*
G02*
X29408000Y-102060000I0J-175000D01*
G01*
G37*
G36*
G01*
X29408000Y-103330000D02*
X29408000Y-103680000D01*
G75*
G02*
X29233000Y-103855000I-175000J0D01*
G01*
X27533000Y-103855000D01*
G75*
G02*
X27358000Y-103680000I0J175000D01*
G01*
X27358000Y-103330000D01*
G75*
G02*
X27533000Y-103155000I175000J0D01*
G01*
X29233000Y-103155000D01*
G75*
G02*
X29408000Y-103330000I0J-175000D01*
G01*
G37*
G36*
G01*
X29408000Y-104600000D02*
X29408000Y-104950000D01*
G75*
G02*
X29233000Y-105125000I-175000J0D01*
G01*
X27533000Y-105125000D01*
G75*
G02*
X27358000Y-104950000I0J175000D01*
G01*
X27358000Y-104600000D01*
G75*
G02*
X27533000Y-104425000I175000J0D01*
G01*
X29233000Y-104425000D01*
G75*
G02*
X29408000Y-104600000I0J-175000D01*
G01*
G37*
%TD*%
D28*
%TO.C,TP4*%
X34798000Y-51181000D03*
%TD*%
%TO.C,TP3*%
X56388000Y-48006000D03*
%TD*%
%TO.C,TP2*%
X26289000Y-51181000D03*
%TD*%
%TO.C,TP1*%
X39116000Y-70358000D03*
%TD*%
%TO.C,R9*%
G36*
G01*
X52805250Y-51972500D02*
X51842750Y-51972500D01*
G75*
G02*
X51574000Y-51703750I0J268750D01*
G01*
X51574000Y-51166250D01*
G75*
G02*
X51842750Y-50897500I268750J0D01*
G01*
X52805250Y-50897500D01*
G75*
G02*
X53074000Y-51166250I0J-268750D01*
G01*
X53074000Y-51703750D01*
G75*
G02*
X52805250Y-51972500I-268750J0D01*
G01*
G37*
G36*
G01*
X52805250Y-53847500D02*
X51842750Y-53847500D01*
G75*
G02*
X51574000Y-53578750I0J268750D01*
G01*
X51574000Y-53041250D01*
G75*
G02*
X51842750Y-52772500I268750J0D01*
G01*
X52805250Y-52772500D01*
G75*
G02*
X53074000Y-53041250I0J-268750D01*
G01*
X53074000Y-53578750D01*
G75*
G02*
X52805250Y-53847500I-268750J0D01*
G01*
G37*
%TD*%
%TO.C,R8*%
G36*
G01*
X47311500Y-35533250D02*
X47311500Y-34570750D01*
G75*
G02*
X47580250Y-34302000I268750J0D01*
G01*
X48117750Y-34302000D01*
G75*
G02*
X48386500Y-34570750I0J-268750D01*
G01*
X48386500Y-35533250D01*
G75*
G02*
X48117750Y-35802000I-268750J0D01*
G01*
X47580250Y-35802000D01*
G75*
G02*
X47311500Y-35533250I0J268750D01*
G01*
G37*
G36*
G01*
X45436500Y-35533250D02*
X45436500Y-34570750D01*
G75*
G02*
X45705250Y-34302000I268750J0D01*
G01*
X46242750Y-34302000D01*
G75*
G02*
X46511500Y-34570750I0J-268750D01*
G01*
X46511500Y-35533250D01*
G75*
G02*
X46242750Y-35802000I-268750J0D01*
G01*
X45705250Y-35802000D01*
G75*
G02*
X45436500Y-35533250I0J268750D01*
G01*
G37*
%TD*%
%TO.C,R7*%
G36*
G01*
X30961250Y-83801000D02*
X29998750Y-83801000D01*
G75*
G02*
X29730000Y-83532250I0J268750D01*
G01*
X29730000Y-82994750D01*
G75*
G02*
X29998750Y-82726000I268750J0D01*
G01*
X30961250Y-82726000D01*
G75*
G02*
X31230000Y-82994750I0J-268750D01*
G01*
X31230000Y-83532250D01*
G75*
G02*
X30961250Y-83801000I-268750J0D01*
G01*
G37*
G36*
G01*
X30961250Y-85676000D02*
X29998750Y-85676000D01*
G75*
G02*
X29730000Y-85407250I0J268750D01*
G01*
X29730000Y-84869750D01*
G75*
G02*
X29998750Y-84601000I268750J0D01*
G01*
X30961250Y-84601000D01*
G75*
G02*
X31230000Y-84869750I0J-268750D01*
G01*
X31230000Y-85407250D01*
G75*
G02*
X30961250Y-85676000I-268750J0D01*
G01*
G37*
%TD*%
%TO.C,R4*%
G36*
G01*
X30252750Y-108652500D02*
X31215250Y-108652500D01*
G75*
G02*
X31484000Y-108921250I0J-268750D01*
G01*
X31484000Y-109458750D01*
G75*
G02*
X31215250Y-109727500I-268750J0D01*
G01*
X30252750Y-109727500D01*
G75*
G02*
X29984000Y-109458750I0J268750D01*
G01*
X29984000Y-108921250D01*
G75*
G02*
X30252750Y-108652500I268750J0D01*
G01*
G37*
G36*
G01*
X30252750Y-106777500D02*
X31215250Y-106777500D01*
G75*
G02*
X31484000Y-107046250I0J-268750D01*
G01*
X31484000Y-107583750D01*
G75*
G02*
X31215250Y-107852500I-268750J0D01*
G01*
X30252750Y-107852500D01*
G75*
G02*
X29984000Y-107583750I0J268750D01*
G01*
X29984000Y-107046250D01*
G75*
G02*
X30252750Y-106777500I268750J0D01*
G01*
G37*
%TD*%
%TO.C,R3*%
G36*
G01*
X32411750Y-108652500D02*
X33374250Y-108652500D01*
G75*
G02*
X33643000Y-108921250I0J-268750D01*
G01*
X33643000Y-109458750D01*
G75*
G02*
X33374250Y-109727500I-268750J0D01*
G01*
X32411750Y-109727500D01*
G75*
G02*
X32143000Y-109458750I0J268750D01*
G01*
X32143000Y-108921250D01*
G75*
G02*
X32411750Y-108652500I268750J0D01*
G01*
G37*
G36*
G01*
X32411750Y-106777500D02*
X33374250Y-106777500D01*
G75*
G02*
X33643000Y-107046250I0J-268750D01*
G01*
X33643000Y-107583750D01*
G75*
G02*
X33374250Y-107852500I-268750J0D01*
G01*
X32411750Y-107852500D01*
G75*
G02*
X32143000Y-107583750I0J268750D01*
G01*
X32143000Y-107046250D01*
G75*
G02*
X32411750Y-106777500I268750J0D01*
G01*
G37*
%TD*%
%TO.C,R2*%
G36*
G01*
X29620500Y-68225750D02*
X29620500Y-69188250D01*
G75*
G02*
X29351750Y-69457000I-268750J0D01*
G01*
X28814250Y-69457000D01*
G75*
G02*
X28545500Y-69188250I0J268750D01*
G01*
X28545500Y-68225750D01*
G75*
G02*
X28814250Y-67957000I268750J0D01*
G01*
X29351750Y-67957000D01*
G75*
G02*
X29620500Y-68225750I0J-268750D01*
G01*
G37*
G36*
G01*
X31495500Y-68225750D02*
X31495500Y-69188250D01*
G75*
G02*
X31226750Y-69457000I-268750J0D01*
G01*
X30689250Y-69457000D01*
G75*
G02*
X30420500Y-69188250I0J268750D01*
G01*
X30420500Y-68225750D01*
G75*
G02*
X30689250Y-67957000I268750J0D01*
G01*
X31226750Y-67957000D01*
G75*
G02*
X31495500Y-68225750I0J-268750D01*
G01*
G37*
%TD*%
%TO.C,R1*%
G36*
G01*
X26094500Y-68225750D02*
X26094500Y-69188250D01*
G75*
G02*
X25825750Y-69457000I-268750J0D01*
G01*
X25288250Y-69457000D01*
G75*
G02*
X25019500Y-69188250I0J268750D01*
G01*
X25019500Y-68225750D01*
G75*
G02*
X25288250Y-67957000I268750J0D01*
G01*
X25825750Y-67957000D01*
G75*
G02*
X26094500Y-68225750I0J-268750D01*
G01*
G37*
G36*
G01*
X27969500Y-68225750D02*
X27969500Y-69188250D01*
G75*
G02*
X27700750Y-69457000I-268750J0D01*
G01*
X27163250Y-69457000D01*
G75*
G02*
X26894500Y-69188250I0J268750D01*
G01*
X26894500Y-68225750D01*
G75*
G02*
X27163250Y-67957000I268750J0D01*
G01*
X27700750Y-67957000D01*
G75*
G02*
X27969500Y-68225750I0J-268750D01*
G01*
G37*
%TD*%
%TO.C,L1*%
G36*
G01*
X50889000Y-90337000D02*
X48679000Y-90337000D01*
G75*
G02*
X48409000Y-90067000I0J270000D01*
G01*
X48409000Y-89257000D01*
G75*
G02*
X48679000Y-88987000I270000J0D01*
G01*
X50889000Y-88987000D01*
G75*
G02*
X51159000Y-89257000I0J-270000D01*
G01*
X51159000Y-90067000D01*
G75*
G02*
X50889000Y-90337000I-270000J0D01*
G01*
G37*
G36*
G01*
X50889000Y-87537000D02*
X48679000Y-87537000D01*
G75*
G02*
X48409000Y-87267000I0J270000D01*
G01*
X48409000Y-86457000D01*
G75*
G02*
X48679000Y-86187000I270000J0D01*
G01*
X50889000Y-86187000D01*
G75*
G02*
X51159000Y-86457000I0J-270000D01*
G01*
X51159000Y-87267000D01*
G75*
G02*
X50889000Y-87537000I-270000J0D01*
G01*
G37*
%TD*%
D29*
%TO.C,J6*%
X55245000Y-22225000D03*
X55245000Y-24765000D03*
X52705000Y-22225000D03*
X52705000Y-24765000D03*
X50165000Y-22225000D03*
X50165000Y-24765000D03*
X47625000Y-22225000D03*
X47625000Y-24765000D03*
X45085000Y-22225000D03*
X45085000Y-24765000D03*
X42545000Y-22225000D03*
X42545000Y-24765000D03*
X40005000Y-22225000D03*
X40005000Y-24765000D03*
X37465000Y-22225000D03*
X37465000Y-24765000D03*
X34925000Y-22225000D03*
X34925000Y-24765000D03*
X32385000Y-22225000D03*
X32385000Y-24765000D03*
X29845000Y-22225000D03*
X29845000Y-24765000D03*
X27305000Y-22225000D03*
X27305000Y-24765000D03*
X24765000Y-22225000D03*
D30*
X24765000Y-24765000D03*
%TD*%
D28*
%TO.C,J5*%
X55753000Y-55118000D03*
X55753000Y-63118000D03*
%TD*%
D29*
%TO.C,J4*%
X25781000Y-57912000D03*
X23241000Y-57912000D03*
X25781000Y-60452000D03*
X23241000Y-60452000D03*
X25781000Y-62992000D03*
X23241000Y-62992000D03*
X25781000Y-65532000D03*
D30*
X23241000Y-65532000D03*
%TD*%
D29*
%TO.C,J3*%
X32131000Y-71716000D03*
X29591000Y-71716000D03*
X27051000Y-71716000D03*
D30*
X24511000Y-71716000D03*
%TD*%
%TO.C,D10*%
G36*
G01*
X30961250Y-80293500D02*
X29998750Y-80293500D01*
G75*
G02*
X29730000Y-80024750I0J268750D01*
G01*
X29730000Y-79487250D01*
G75*
G02*
X29998750Y-79218500I268750J0D01*
G01*
X30961250Y-79218500D01*
G75*
G02*
X31230000Y-79487250I0J-268750D01*
G01*
X31230000Y-80024750D01*
G75*
G02*
X30961250Y-80293500I-268750J0D01*
G01*
G37*
G36*
G01*
X30961250Y-82168500D02*
X29998750Y-82168500D01*
G75*
G02*
X29730000Y-81899750I0J268750D01*
G01*
X29730000Y-81362250D01*
G75*
G02*
X29998750Y-81093500I268750J0D01*
G01*
X30961250Y-81093500D01*
G75*
G02*
X31230000Y-81362250I0J-268750D01*
G01*
X31230000Y-81899750D01*
G75*
G02*
X30961250Y-82168500I-268750J0D01*
G01*
G37*
%TD*%
D31*
%TO.C,D9*%
X52705000Y-79375000D03*
X49405000Y-79375000D03*
%TD*%
%TO.C,D2*%
G36*
G01*
X30252750Y-105096500D02*
X31215250Y-105096500D01*
G75*
G02*
X31484000Y-105365250I0J-268750D01*
G01*
X31484000Y-105902750D01*
G75*
G02*
X31215250Y-106171500I-268750J0D01*
G01*
X30252750Y-106171500D01*
G75*
G02*
X29984000Y-105902750I0J268750D01*
G01*
X29984000Y-105365250D01*
G75*
G02*
X30252750Y-105096500I268750J0D01*
G01*
G37*
G36*
G01*
X30252750Y-103221500D02*
X31215250Y-103221500D01*
G75*
G02*
X31484000Y-103490250I0J-268750D01*
G01*
X31484000Y-104027750D01*
G75*
G02*
X31215250Y-104296500I-268750J0D01*
G01*
X30252750Y-104296500D01*
G75*
G02*
X29984000Y-104027750I0J268750D01*
G01*
X29984000Y-103490250D01*
G75*
G02*
X30252750Y-103221500I268750J0D01*
G01*
G37*
%TD*%
%TO.C,D1*%
G36*
G01*
X32411750Y-105096500D02*
X33374250Y-105096500D01*
G75*
G02*
X33643000Y-105365250I0J-268750D01*
G01*
X33643000Y-105902750D01*
G75*
G02*
X33374250Y-106171500I-268750J0D01*
G01*
X32411750Y-106171500D01*
G75*
G02*
X32143000Y-105902750I0J268750D01*
G01*
X32143000Y-105365250D01*
G75*
G02*
X32411750Y-105096500I268750J0D01*
G01*
G37*
G36*
G01*
X32411750Y-103221500D02*
X33374250Y-103221500D01*
G75*
G02*
X33643000Y-103490250I0J-268750D01*
G01*
X33643000Y-104027750D01*
G75*
G02*
X33374250Y-104296500I-268750J0D01*
G01*
X32411750Y-104296500D01*
G75*
G02*
X32143000Y-104027750I0J268750D01*
G01*
X32143000Y-103490250D01*
G75*
G02*
X32411750Y-103221500I268750J0D01*
G01*
G37*
%TD*%
%TO.C,C46*%
G36*
G01*
X34189750Y-54423500D02*
X35152250Y-54423500D01*
G75*
G02*
X35421000Y-54692250I0J-268750D01*
G01*
X35421000Y-55229750D01*
G75*
G02*
X35152250Y-55498500I-268750J0D01*
G01*
X34189750Y-55498500D01*
G75*
G02*
X33921000Y-55229750I0J268750D01*
G01*
X33921000Y-54692250D01*
G75*
G02*
X34189750Y-54423500I268750J0D01*
G01*
G37*
G36*
G01*
X34189750Y-52548500D02*
X35152250Y-52548500D01*
G75*
G02*
X35421000Y-52817250I0J-268750D01*
G01*
X35421000Y-53354750D01*
G75*
G02*
X35152250Y-53623500I-268750J0D01*
G01*
X34189750Y-53623500D01*
G75*
G02*
X33921000Y-53354750I0J268750D01*
G01*
X33921000Y-52817250D01*
G75*
G02*
X34189750Y-52548500I268750J0D01*
G01*
G37*
%TD*%
%TO.C,C45*%
G36*
G01*
X36221750Y-54423500D02*
X37184250Y-54423500D01*
G75*
G02*
X37453000Y-54692250I0J-268750D01*
G01*
X37453000Y-55229750D01*
G75*
G02*
X37184250Y-55498500I-268750J0D01*
G01*
X36221750Y-55498500D01*
G75*
G02*
X35953000Y-55229750I0J268750D01*
G01*
X35953000Y-54692250D01*
G75*
G02*
X36221750Y-54423500I268750J0D01*
G01*
G37*
G36*
G01*
X36221750Y-52548500D02*
X37184250Y-52548500D01*
G75*
G02*
X37453000Y-52817250I0J-268750D01*
G01*
X37453000Y-53354750D01*
G75*
G02*
X37184250Y-53623500I-268750J0D01*
G01*
X36221750Y-53623500D01*
G75*
G02*
X35953000Y-53354750I0J268750D01*
G01*
X35953000Y-52817250D01*
G75*
G02*
X36221750Y-52548500I268750J0D01*
G01*
G37*
%TD*%
%TO.C,C44*%
G36*
G01*
X31047500Y-54509750D02*
X31047500Y-55472250D01*
G75*
G02*
X30778750Y-55741000I-268750J0D01*
G01*
X30241250Y-55741000D01*
G75*
G02*
X29972500Y-55472250I0J268750D01*
G01*
X29972500Y-54509750D01*
G75*
G02*
X30241250Y-54241000I268750J0D01*
G01*
X30778750Y-54241000D01*
G75*
G02*
X31047500Y-54509750I0J-268750D01*
G01*
G37*
G36*
G01*
X32922500Y-54509750D02*
X32922500Y-55472250D01*
G75*
G02*
X32653750Y-55741000I-268750J0D01*
G01*
X32116250Y-55741000D01*
G75*
G02*
X31847500Y-55472250I0J268750D01*
G01*
X31847500Y-54509750D01*
G75*
G02*
X32116250Y-54241000I268750J0D01*
G01*
X32653750Y-54241000D01*
G75*
G02*
X32922500Y-54509750I0J-268750D01*
G01*
G37*
%TD*%
%TO.C,C43*%
G36*
G01*
X28093750Y-54423500D02*
X29056250Y-54423500D01*
G75*
G02*
X29325000Y-54692250I0J-268750D01*
G01*
X29325000Y-55229750D01*
G75*
G02*
X29056250Y-55498500I-268750J0D01*
G01*
X28093750Y-55498500D01*
G75*
G02*
X27825000Y-55229750I0J268750D01*
G01*
X27825000Y-54692250D01*
G75*
G02*
X28093750Y-54423500I268750J0D01*
G01*
G37*
G36*
G01*
X28093750Y-52548500D02*
X29056250Y-52548500D01*
G75*
G02*
X29325000Y-52817250I0J-268750D01*
G01*
X29325000Y-53354750D01*
G75*
G02*
X29056250Y-53623500I-268750J0D01*
G01*
X28093750Y-53623500D01*
G75*
G02*
X27825000Y-53354750I0J268750D01*
G01*
X27825000Y-52817250D01*
G75*
G02*
X28093750Y-52548500I268750J0D01*
G01*
G37*
%TD*%
%TO.C,C42*%
G36*
G01*
X49884250Y-40191500D02*
X48921750Y-40191500D01*
G75*
G02*
X48653000Y-39922750I0J268750D01*
G01*
X48653000Y-39385250D01*
G75*
G02*
X48921750Y-39116500I268750J0D01*
G01*
X49884250Y-39116500D01*
G75*
G02*
X50153000Y-39385250I0J-268750D01*
G01*
X50153000Y-39922750D01*
G75*
G02*
X49884250Y-40191500I-268750J0D01*
G01*
G37*
G36*
G01*
X49884250Y-42066500D02*
X48921750Y-42066500D01*
G75*
G02*
X48653000Y-41797750I0J268750D01*
G01*
X48653000Y-41260250D01*
G75*
G02*
X48921750Y-40991500I268750J0D01*
G01*
X49884250Y-40991500D01*
G75*
G02*
X50153000Y-41260250I0J-268750D01*
G01*
X50153000Y-41797750D01*
G75*
G02*
X49884250Y-42066500I-268750J0D01*
G01*
G37*
%TD*%
%TO.C,C41*%
G36*
G01*
X28380500Y-41174750D02*
X28380500Y-42137250D01*
G75*
G02*
X28111750Y-42406000I-268750J0D01*
G01*
X27574250Y-42406000D01*
G75*
G02*
X27305500Y-42137250I0J268750D01*
G01*
X27305500Y-41174750D01*
G75*
G02*
X27574250Y-40906000I268750J0D01*
G01*
X28111750Y-40906000D01*
G75*
G02*
X28380500Y-41174750I0J-268750D01*
G01*
G37*
G36*
G01*
X30255500Y-41174750D02*
X30255500Y-42137250D01*
G75*
G02*
X29986750Y-42406000I-268750J0D01*
G01*
X29449250Y-42406000D01*
G75*
G02*
X29180500Y-42137250I0J268750D01*
G01*
X29180500Y-41174750D01*
G75*
G02*
X29449250Y-40906000I268750J0D01*
G01*
X29986750Y-40906000D01*
G75*
G02*
X30255500Y-41174750I0J-268750D01*
G01*
G37*
%TD*%
%TO.C,C40*%
G36*
G01*
X28380500Y-45238750D02*
X28380500Y-46201250D01*
G75*
G02*
X28111750Y-46470000I-268750J0D01*
G01*
X27574250Y-46470000D01*
G75*
G02*
X27305500Y-46201250I0J268750D01*
G01*
X27305500Y-45238750D01*
G75*
G02*
X27574250Y-44970000I268750J0D01*
G01*
X28111750Y-44970000D01*
G75*
G02*
X28380500Y-45238750I0J-268750D01*
G01*
G37*
G36*
G01*
X30255500Y-45238750D02*
X30255500Y-46201250D01*
G75*
G02*
X29986750Y-46470000I-268750J0D01*
G01*
X29449250Y-46470000D01*
G75*
G02*
X29180500Y-46201250I0J268750D01*
G01*
X29180500Y-45238750D01*
G75*
G02*
X29449250Y-44970000I268750J0D01*
G01*
X29986750Y-44970000D01*
G75*
G02*
X30255500Y-45238750I0J-268750D01*
G01*
G37*
%TD*%
%TO.C,C38*%
G36*
G01*
X47852250Y-40191500D02*
X46889750Y-40191500D01*
G75*
G02*
X46621000Y-39922750I0J268750D01*
G01*
X46621000Y-39385250D01*
G75*
G02*
X46889750Y-39116500I268750J0D01*
G01*
X47852250Y-39116500D01*
G75*
G02*
X48121000Y-39385250I0J-268750D01*
G01*
X48121000Y-39922750D01*
G75*
G02*
X47852250Y-40191500I-268750J0D01*
G01*
G37*
G36*
G01*
X47852250Y-42066500D02*
X46889750Y-42066500D01*
G75*
G02*
X46621000Y-41797750I0J268750D01*
G01*
X46621000Y-41260250D01*
G75*
G02*
X46889750Y-40991500I268750J0D01*
G01*
X47852250Y-40991500D01*
G75*
G02*
X48121000Y-41260250I0J-268750D01*
G01*
X48121000Y-41797750D01*
G75*
G02*
X47852250Y-42066500I-268750J0D01*
G01*
G37*
%TD*%
%TO.C,C37*%
G36*
G01*
X31047500Y-48794750D02*
X31047500Y-49757250D01*
G75*
G02*
X30778750Y-50026000I-268750J0D01*
G01*
X30241250Y-50026000D01*
G75*
G02*
X29972500Y-49757250I0J268750D01*
G01*
X29972500Y-48794750D01*
G75*
G02*
X30241250Y-48526000I268750J0D01*
G01*
X30778750Y-48526000D01*
G75*
G02*
X31047500Y-48794750I0J-268750D01*
G01*
G37*
G36*
G01*
X32922500Y-48794750D02*
X32922500Y-49757250D01*
G75*
G02*
X32653750Y-50026000I-268750J0D01*
G01*
X32116250Y-50026000D01*
G75*
G02*
X31847500Y-49757250I0J268750D01*
G01*
X31847500Y-48794750D01*
G75*
G02*
X32116250Y-48526000I268750J0D01*
G01*
X32653750Y-48526000D01*
G75*
G02*
X32922500Y-48794750I0J-268750D01*
G01*
G37*
%TD*%
%TO.C,C32*%
G36*
G01*
X53874750Y-52772500D02*
X54837250Y-52772500D01*
G75*
G02*
X55106000Y-53041250I0J-268750D01*
G01*
X55106000Y-53578750D01*
G75*
G02*
X54837250Y-53847500I-268750J0D01*
G01*
X53874750Y-53847500D01*
G75*
G02*
X53606000Y-53578750I0J268750D01*
G01*
X53606000Y-53041250D01*
G75*
G02*
X53874750Y-52772500I268750J0D01*
G01*
G37*
G36*
G01*
X53874750Y-50897500D02*
X54837250Y-50897500D01*
G75*
G02*
X55106000Y-51166250I0J-268750D01*
G01*
X55106000Y-51703750D01*
G75*
G02*
X54837250Y-51972500I-268750J0D01*
G01*
X53874750Y-51972500D01*
G75*
G02*
X53606000Y-51703750I0J268750D01*
G01*
X53606000Y-51166250D01*
G75*
G02*
X53874750Y-50897500I268750J0D01*
G01*
G37*
%TD*%
%TO.C,C29*%
G36*
G01*
X48454500Y-43788250D02*
X48454500Y-42825750D01*
G75*
G02*
X48723250Y-42557000I268750J0D01*
G01*
X49260750Y-42557000D01*
G75*
G02*
X49529500Y-42825750I0J-268750D01*
G01*
X49529500Y-43788250D01*
G75*
G02*
X49260750Y-44057000I-268750J0D01*
G01*
X48723250Y-44057000D01*
G75*
G02*
X48454500Y-43788250I0J268750D01*
G01*
G37*
G36*
G01*
X46579500Y-43788250D02*
X46579500Y-42825750D01*
G75*
G02*
X46848250Y-42557000I268750J0D01*
G01*
X47385750Y-42557000D01*
G75*
G02*
X47654500Y-42825750I0J-268750D01*
G01*
X47654500Y-43788250D01*
G75*
G02*
X47385750Y-44057000I-268750J0D01*
G01*
X46848250Y-44057000D01*
G75*
G02*
X46579500Y-43788250I0J268750D01*
G01*
G37*
%TD*%
%TO.C,C27*%
G36*
G01*
X47311500Y-46709250D02*
X47311500Y-45746750D01*
G75*
G02*
X47580250Y-45478000I268750J0D01*
G01*
X48117750Y-45478000D01*
G75*
G02*
X48386500Y-45746750I0J-268750D01*
G01*
X48386500Y-46709250D01*
G75*
G02*
X48117750Y-46978000I-268750J0D01*
G01*
X47580250Y-46978000D01*
G75*
G02*
X47311500Y-46709250I0J268750D01*
G01*
G37*
G36*
G01*
X45436500Y-46709250D02*
X45436500Y-45746750D01*
G75*
G02*
X45705250Y-45478000I268750J0D01*
G01*
X46242750Y-45478000D01*
G75*
G02*
X46511500Y-45746750I0J-268750D01*
G01*
X46511500Y-46709250D01*
G75*
G02*
X46242750Y-46978000I-268750J0D01*
G01*
X45705250Y-46978000D01*
G75*
G02*
X45436500Y-46709250I0J268750D01*
G01*
G37*
%TD*%
%TO.C,C26*%
G36*
G01*
X55906750Y-52772500D02*
X56869250Y-52772500D01*
G75*
G02*
X57138000Y-53041250I0J-268750D01*
G01*
X57138000Y-53578750D01*
G75*
G02*
X56869250Y-53847500I-268750J0D01*
G01*
X55906750Y-53847500D01*
G75*
G02*
X55638000Y-53578750I0J268750D01*
G01*
X55638000Y-53041250D01*
G75*
G02*
X55906750Y-52772500I268750J0D01*
G01*
G37*
G36*
G01*
X55906750Y-50897500D02*
X56869250Y-50897500D01*
G75*
G02*
X57138000Y-51166250I0J-268750D01*
G01*
X57138000Y-51703750D01*
G75*
G02*
X56869250Y-51972500I-268750J0D01*
G01*
X55906750Y-51972500D01*
G75*
G02*
X55638000Y-51703750I0J268750D01*
G01*
X55638000Y-51166250D01*
G75*
G02*
X55906750Y-50897500I268750J0D01*
G01*
G37*
%TD*%
%TO.C,C25*%
G36*
G01*
X23895000Y-51535250D02*
X23895000Y-50572750D01*
G75*
G02*
X24163750Y-50304000I268750J0D01*
G01*
X24701250Y-50304000D01*
G75*
G02*
X24970000Y-50572750I0J-268750D01*
G01*
X24970000Y-51535250D01*
G75*
G02*
X24701250Y-51804000I-268750J0D01*
G01*
X24163750Y-51804000D01*
G75*
G02*
X23895000Y-51535250I0J268750D01*
G01*
G37*
G36*
G01*
X22020000Y-51535250D02*
X22020000Y-50572750D01*
G75*
G02*
X22288750Y-50304000I268750J0D01*
G01*
X22826250Y-50304000D01*
G75*
G02*
X23095000Y-50572750I0J-268750D01*
G01*
X23095000Y-51535250D01*
G75*
G02*
X22826250Y-51804000I-268750J0D01*
G01*
X22288750Y-51804000D01*
G75*
G02*
X22020000Y-51535250I0J268750D01*
G01*
G37*
%TD*%
%TO.C,C24*%
G36*
G01*
X26897250Y-53653500D02*
X25934750Y-53653500D01*
G75*
G02*
X25666000Y-53384750I0J268750D01*
G01*
X25666000Y-52847250D01*
G75*
G02*
X25934750Y-52578500I268750J0D01*
G01*
X26897250Y-52578500D01*
G75*
G02*
X27166000Y-52847250I0J-268750D01*
G01*
X27166000Y-53384750D01*
G75*
G02*
X26897250Y-53653500I-268750J0D01*
G01*
G37*
G36*
G01*
X26897250Y-55528500D02*
X25934750Y-55528500D01*
G75*
G02*
X25666000Y-55259750I0J268750D01*
G01*
X25666000Y-54722250D01*
G75*
G02*
X25934750Y-54453500I268750J0D01*
G01*
X26897250Y-54453500D01*
G75*
G02*
X27166000Y-54722250I0J-268750D01*
G01*
X27166000Y-55259750D01*
G75*
G02*
X26897250Y-55528500I-268750J0D01*
G01*
G37*
%TD*%
%TO.C,C23*%
G36*
G01*
X46511500Y-36602750D02*
X46511500Y-37565250D01*
G75*
G02*
X46242750Y-37834000I-268750J0D01*
G01*
X45705250Y-37834000D01*
G75*
G02*
X45436500Y-37565250I0J268750D01*
G01*
X45436500Y-36602750D01*
G75*
G02*
X45705250Y-36334000I268750J0D01*
G01*
X46242750Y-36334000D01*
G75*
G02*
X46511500Y-36602750I0J-268750D01*
G01*
G37*
G36*
G01*
X48386500Y-36602750D02*
X48386500Y-37565250D01*
G75*
G02*
X48117750Y-37834000I-268750J0D01*
G01*
X47580250Y-37834000D01*
G75*
G02*
X47311500Y-37565250I0J268750D01*
G01*
X47311500Y-36602750D01*
G75*
G02*
X47580250Y-36334000I268750J0D01*
G01*
X48117750Y-36334000D01*
G75*
G02*
X48386500Y-36602750I0J-268750D01*
G01*
G37*
%TD*%
%TO.C,C22*%
G36*
G01*
X45746750Y-52645500D02*
X46709250Y-52645500D01*
G75*
G02*
X46978000Y-52914250I0J-268750D01*
G01*
X46978000Y-53451750D01*
G75*
G02*
X46709250Y-53720500I-268750J0D01*
G01*
X45746750Y-53720500D01*
G75*
G02*
X45478000Y-53451750I0J268750D01*
G01*
X45478000Y-52914250D01*
G75*
G02*
X45746750Y-52645500I268750J0D01*
G01*
G37*
G36*
G01*
X45746750Y-50770500D02*
X46709250Y-50770500D01*
G75*
G02*
X46978000Y-51039250I0J-268750D01*
G01*
X46978000Y-51576750D01*
G75*
G02*
X46709250Y-51845500I-268750J0D01*
G01*
X45746750Y-51845500D01*
G75*
G02*
X45478000Y-51576750I0J268750D01*
G01*
X45478000Y-51039250D01*
G75*
G02*
X45746750Y-50770500I268750J0D01*
G01*
G37*
%TD*%
%TO.C,C21*%
G36*
G01*
X43714750Y-52645500D02*
X44677250Y-52645500D01*
G75*
G02*
X44946000Y-52914250I0J-268750D01*
G01*
X44946000Y-53451750D01*
G75*
G02*
X44677250Y-53720500I-268750J0D01*
G01*
X43714750Y-53720500D01*
G75*
G02*
X43446000Y-53451750I0J268750D01*
G01*
X43446000Y-52914250D01*
G75*
G02*
X43714750Y-52645500I268750J0D01*
G01*
G37*
G36*
G01*
X43714750Y-50770500D02*
X44677250Y-50770500D01*
G75*
G02*
X44946000Y-51039250I0J-268750D01*
G01*
X44946000Y-51576750D01*
G75*
G02*
X44677250Y-51845500I-268750J0D01*
G01*
X43714750Y-51845500D01*
G75*
G02*
X43446000Y-51576750I0J268750D01*
G01*
X43446000Y-51039250D01*
G75*
G02*
X43714750Y-50770500I268750J0D01*
G01*
G37*
%TD*%
%TO.C,C19*%
G36*
G01*
X29109750Y-39262000D02*
X30072250Y-39262000D01*
G75*
G02*
X30341000Y-39530750I0J-268750D01*
G01*
X30341000Y-40068250D01*
G75*
G02*
X30072250Y-40337000I-268750J0D01*
G01*
X29109750Y-40337000D01*
G75*
G02*
X28841000Y-40068250I0J268750D01*
G01*
X28841000Y-39530750D01*
G75*
G02*
X29109750Y-39262000I268750J0D01*
G01*
G37*
G36*
G01*
X29109750Y-37387000D02*
X30072250Y-37387000D01*
G75*
G02*
X30341000Y-37655750I0J-268750D01*
G01*
X30341000Y-38193250D01*
G75*
G02*
X30072250Y-38462000I-268750J0D01*
G01*
X29109750Y-38462000D01*
G75*
G02*
X28841000Y-38193250I0J268750D01*
G01*
X28841000Y-37655750D01*
G75*
G02*
X29109750Y-37387000I268750J0D01*
G01*
G37*
%TD*%
%TO.C,C18*%
G36*
G01*
X27077750Y-39262000D02*
X28040250Y-39262000D01*
G75*
G02*
X28309000Y-39530750I0J-268750D01*
G01*
X28309000Y-40068250D01*
G75*
G02*
X28040250Y-40337000I-268750J0D01*
G01*
X27077750Y-40337000D01*
G75*
G02*
X26809000Y-40068250I0J268750D01*
G01*
X26809000Y-39530750D01*
G75*
G02*
X27077750Y-39262000I268750J0D01*
G01*
G37*
G36*
G01*
X27077750Y-37387000D02*
X28040250Y-37387000D01*
G75*
G02*
X28309000Y-37655750I0J-268750D01*
G01*
X28309000Y-38193250D01*
G75*
G02*
X28040250Y-38462000I-268750J0D01*
G01*
X27077750Y-38462000D01*
G75*
G02*
X26809000Y-38193250I0J268750D01*
G01*
X26809000Y-37655750D01*
G75*
G02*
X27077750Y-37387000I268750J0D01*
G01*
G37*
%TD*%
%TO.C,C16*%
G36*
G01*
X40412750Y-82744500D02*
X41375250Y-82744500D01*
G75*
G02*
X41644000Y-83013250I0J-268750D01*
G01*
X41644000Y-83550750D01*
G75*
G02*
X41375250Y-83819500I-268750J0D01*
G01*
X40412750Y-83819500D01*
G75*
G02*
X40144000Y-83550750I0J268750D01*
G01*
X40144000Y-83013250D01*
G75*
G02*
X40412750Y-82744500I268750J0D01*
G01*
G37*
G36*
G01*
X40412750Y-80869500D02*
X41375250Y-80869500D01*
G75*
G02*
X41644000Y-81138250I0J-268750D01*
G01*
X41644000Y-81675750D01*
G75*
G02*
X41375250Y-81944500I-268750J0D01*
G01*
X40412750Y-81944500D01*
G75*
G02*
X40144000Y-81675750I0J268750D01*
G01*
X40144000Y-81138250D01*
G75*
G02*
X40412750Y-80869500I268750J0D01*
G01*
G37*
%TD*%
%TO.C,C15*%
G36*
G01*
X52247625Y-62855000D02*
X53416375Y-62855000D01*
G75*
G02*
X53682000Y-63120625I0J-265625D01*
G01*
X53682000Y-66189375D01*
G75*
G02*
X53416375Y-66455000I-265625J0D01*
G01*
X52247625Y-66455000D01*
G75*
G02*
X51982000Y-66189375I0J265625D01*
G01*
X51982000Y-63120625D01*
G75*
G02*
X52247625Y-62855000I265625J0D01*
G01*
G37*
G36*
G01*
X52247625Y-57255000D02*
X53416375Y-57255000D01*
G75*
G02*
X53682000Y-57520625I0J-265625D01*
G01*
X53682000Y-60589375D01*
G75*
G02*
X53416375Y-60855000I-265625J0D01*
G01*
X52247625Y-60855000D01*
G75*
G02*
X51982000Y-60589375I0J265625D01*
G01*
X51982000Y-57520625D01*
G75*
G02*
X52247625Y-57255000I265625J0D01*
G01*
G37*
%TD*%
%TO.C,C10*%
G36*
G01*
X50265250Y-55812500D02*
X49302750Y-55812500D01*
G75*
G02*
X49034000Y-55543750I0J268750D01*
G01*
X49034000Y-55006250D01*
G75*
G02*
X49302750Y-54737500I268750J0D01*
G01*
X50265250Y-54737500D01*
G75*
G02*
X50534000Y-55006250I0J-268750D01*
G01*
X50534000Y-55543750D01*
G75*
G02*
X50265250Y-55812500I-268750J0D01*
G01*
G37*
G36*
G01*
X50265250Y-57687500D02*
X49302750Y-57687500D01*
G75*
G02*
X49034000Y-57418750I0J268750D01*
G01*
X49034000Y-56881250D01*
G75*
G02*
X49302750Y-56612500I268750J0D01*
G01*
X50265250Y-56612500D01*
G75*
G02*
X50534000Y-56881250I0J-268750D01*
G01*
X50534000Y-57418750D01*
G75*
G02*
X50265250Y-57687500I-268750J0D01*
G01*
G37*
%TD*%
%TO.C,C9*%
G36*
G01*
X38421500Y-89000250D02*
X38421500Y-88037750D01*
G75*
G02*
X38690250Y-87769000I268750J0D01*
G01*
X39227750Y-87769000D01*
G75*
G02*
X39496500Y-88037750I0J-268750D01*
G01*
X39496500Y-89000250D01*
G75*
G02*
X39227750Y-89269000I-268750J0D01*
G01*
X38690250Y-89269000D01*
G75*
G02*
X38421500Y-89000250I0J268750D01*
G01*
G37*
G36*
G01*
X36546500Y-89000250D02*
X36546500Y-88037750D01*
G75*
G02*
X36815250Y-87769000I268750J0D01*
G01*
X37352750Y-87769000D01*
G75*
G02*
X37621500Y-88037750I0J-268750D01*
G01*
X37621500Y-89000250D01*
G75*
G02*
X37352750Y-89269000I-268750J0D01*
G01*
X36815250Y-89269000D01*
G75*
G02*
X36546500Y-89000250I0J268750D01*
G01*
G37*
%TD*%
%TO.C,C8*%
G36*
G01*
X49556750Y-67788500D02*
X50519250Y-67788500D01*
G75*
G02*
X50788000Y-68057250I0J-268750D01*
G01*
X50788000Y-68594750D01*
G75*
G02*
X50519250Y-68863500I-268750J0D01*
G01*
X49556750Y-68863500D01*
G75*
G02*
X49288000Y-68594750I0J268750D01*
G01*
X49288000Y-68057250D01*
G75*
G02*
X49556750Y-67788500I268750J0D01*
G01*
G37*
G36*
G01*
X49556750Y-65913500D02*
X50519250Y-65913500D01*
G75*
G02*
X50788000Y-66182250I0J-268750D01*
G01*
X50788000Y-66719750D01*
G75*
G02*
X50519250Y-66988500I-268750J0D01*
G01*
X49556750Y-66988500D01*
G75*
G02*
X49288000Y-66719750I0J268750D01*
G01*
X49288000Y-66182250D01*
G75*
G02*
X49556750Y-65913500I268750J0D01*
G01*
G37*
%TD*%
%TO.C,C7*%
G36*
G01*
X38421500Y-98652250D02*
X38421500Y-97689750D01*
G75*
G02*
X38690250Y-97421000I268750J0D01*
G01*
X39227750Y-97421000D01*
G75*
G02*
X39496500Y-97689750I0J-268750D01*
G01*
X39496500Y-98652250D01*
G75*
G02*
X39227750Y-98921000I-268750J0D01*
G01*
X38690250Y-98921000D01*
G75*
G02*
X38421500Y-98652250I0J268750D01*
G01*
G37*
G36*
G01*
X36546500Y-98652250D02*
X36546500Y-97689750D01*
G75*
G02*
X36815250Y-97421000I268750J0D01*
G01*
X37352750Y-97421000D01*
G75*
G02*
X37621500Y-97689750I0J-268750D01*
G01*
X37621500Y-98652250D01*
G75*
G02*
X37352750Y-98921000I-268750J0D01*
G01*
X36815250Y-98921000D01*
G75*
G02*
X36546500Y-98652250I0J268750D01*
G01*
G37*
%TD*%
%TO.C,C5*%
G36*
G01*
X31944500Y-100938250D02*
X31944500Y-99975750D01*
G75*
G02*
X32213250Y-99707000I268750J0D01*
G01*
X32750750Y-99707000D01*
G75*
G02*
X33019500Y-99975750I0J-268750D01*
G01*
X33019500Y-100938250D01*
G75*
G02*
X32750750Y-101207000I-268750J0D01*
G01*
X32213250Y-101207000D01*
G75*
G02*
X31944500Y-100938250I0J268750D01*
G01*
G37*
G36*
G01*
X30069500Y-100938250D02*
X30069500Y-99975750D01*
G75*
G02*
X30338250Y-99707000I268750J0D01*
G01*
X30875750Y-99707000D01*
G75*
G02*
X31144500Y-99975750I0J-268750D01*
G01*
X31144500Y-100938250D01*
G75*
G02*
X30875750Y-101207000I-268750J0D01*
G01*
X30338250Y-101207000D01*
G75*
G02*
X30069500Y-100938250I0J268750D01*
G01*
G37*
%TD*%
%TO.C,C4*%
G36*
G01*
X24608500Y-89127250D02*
X24608500Y-88164750D01*
G75*
G02*
X24877250Y-87896000I268750J0D01*
G01*
X25414750Y-87896000D01*
G75*
G02*
X25683500Y-88164750I0J-268750D01*
G01*
X25683500Y-89127250D01*
G75*
G02*
X25414750Y-89396000I-268750J0D01*
G01*
X24877250Y-89396000D01*
G75*
G02*
X24608500Y-89127250I0J268750D01*
G01*
G37*
G36*
G01*
X22733500Y-89127250D02*
X22733500Y-88164750D01*
G75*
G02*
X23002250Y-87896000I268750J0D01*
G01*
X23539750Y-87896000D01*
G75*
G02*
X23808500Y-88164750I0J-268750D01*
G01*
X23808500Y-89127250D01*
G75*
G02*
X23539750Y-89396000I-268750J0D01*
G01*
X23002250Y-89396000D01*
G75*
G02*
X22733500Y-89127250I0J268750D01*
G01*
G37*
%TD*%
%TO.C,C2*%
G36*
G01*
X30412500Y-88164750D02*
X30412500Y-89127250D01*
G75*
G02*
X30143750Y-89396000I-268750J0D01*
G01*
X29606250Y-89396000D01*
G75*
G02*
X29337500Y-89127250I0J268750D01*
G01*
X29337500Y-88164750D01*
G75*
G02*
X29606250Y-87896000I268750J0D01*
G01*
X30143750Y-87896000D01*
G75*
G02*
X30412500Y-88164750I0J-268750D01*
G01*
G37*
G36*
G01*
X32287500Y-88164750D02*
X32287500Y-89127250D01*
G75*
G02*
X32018750Y-89396000I-268750J0D01*
G01*
X31481250Y-89396000D01*
G75*
G02*
X31212500Y-89127250I0J268750D01*
G01*
X31212500Y-88164750D01*
G75*
G02*
X31481250Y-87896000I268750J0D01*
G01*
X32018750Y-87896000D01*
G75*
G02*
X32287500Y-88164750I0J-268750D01*
G01*
G37*
%TD*%
%TO.C,C1*%
G36*
G01*
X26386500Y-107161250D02*
X26386500Y-106198750D01*
G75*
G02*
X26655250Y-105930000I268750J0D01*
G01*
X27192750Y-105930000D01*
G75*
G02*
X27461500Y-106198750I0J-268750D01*
G01*
X27461500Y-107161250D01*
G75*
G02*
X27192750Y-107430000I-268750J0D01*
G01*
X26655250Y-107430000D01*
G75*
G02*
X26386500Y-107161250I0J268750D01*
G01*
G37*
G36*
G01*
X24511500Y-107161250D02*
X24511500Y-106198750D01*
G75*
G02*
X24780250Y-105930000I268750J0D01*
G01*
X25317750Y-105930000D01*
G75*
G02*
X25586500Y-106198750I0J-268750D01*
G01*
X25586500Y-107161250D01*
G75*
G02*
X25317750Y-107430000I-268750J0D01*
G01*
X24780250Y-107430000D01*
G75*
G02*
X24511500Y-107161250I0J268750D01*
G01*
G37*
%TD*%
D32*
%TO.C,BT1*%
X52705000Y-72557000D03*
G36*
G01*
X53490294Y-75957000D02*
X51919706Y-75957000D01*
G75*
G02*
X51655000Y-75692294I0J264706D01*
G01*
X51655000Y-74421706D01*
G75*
G02*
X51919706Y-74157000I264706J0D01*
G01*
X53490294Y-74157000D01*
G75*
G02*
X53755000Y-74421706I0J-264706D01*
G01*
X53755000Y-75692294D01*
G75*
G02*
X53490294Y-75957000I-264706J0D01*
G01*
G37*
%TD*%
M02*
