%TF.GenerationSoftware,KiCad,Pcbnew,5.1.6-c6e7f7d~86~ubuntu19.10.1*%
%TF.CreationDate,2020-05-21T12:21:41+02:00*%
%TF.ProjectId,BioElectricalSensor,42696f45-6c65-4637-9472-6963616c5365,rev?*%
%TF.SameCoordinates,Original*%
%TF.FileFunction,Paste,Top*%
%TF.FilePolarity,Positive*%
%FSLAX46Y46*%
G04 Gerber Fmt 4.6, Leading zero omitted, Abs format (unit mm)*
G04 Created by KiCad (PCBNEW 5.1.6-c6e7f7d~86~ubuntu19.10.1) date 2020-05-21 12:21:41*
%MOMM*%
%LPD*%
G01*
G04 APERTURE LIST*
%ADD10R,0.600000X1.450000*%
%ADD11R,0.300000X1.450000*%
%ADD12R,0.500000X0.800000*%
%ADD13R,0.400000X0.800000*%
%ADD14R,2.000000X4.500000*%
%ADD15R,4.500000X2.000000*%
%ADD16R,1.060000X0.650000*%
%ADD17R,1.500000X2.000000*%
%ADD18R,3.800000X2.000000*%
%ADD19R,0.900000X1.200000*%
G04 APERTURE END LIST*
%TO.C,R5*%
G36*
G01*
X40190000Y-67234750D02*
X40190000Y-68147250D01*
G75*
G02*
X39946250Y-68391000I-243750J0D01*
G01*
X39458750Y-68391000D01*
G75*
G02*
X39215000Y-68147250I0J243750D01*
G01*
X39215000Y-67234750D01*
G75*
G02*
X39458750Y-66991000I243750J0D01*
G01*
X39946250Y-66991000D01*
G75*
G02*
X40190000Y-67234750I0J-243750D01*
G01*
G37*
G36*
G01*
X42065000Y-67234750D02*
X42065000Y-68147250D01*
G75*
G02*
X41821250Y-68391000I-243750J0D01*
G01*
X41333750Y-68391000D01*
G75*
G02*
X41090000Y-68147250I0J243750D01*
G01*
X41090000Y-67234750D01*
G75*
G02*
X41333750Y-66991000I243750J0D01*
G01*
X41821250Y-66991000D01*
G75*
G02*
X42065000Y-67234750I0J-243750D01*
G01*
G37*
%TD*%
%TO.C,C20*%
G36*
G01*
X34576000Y-81235999D02*
X34576000Y-82086001D01*
G75*
G02*
X34326001Y-82336000I-249999J0D01*
G01*
X33425999Y-82336000D01*
G75*
G02*
X33176000Y-82086001I0J249999D01*
G01*
X33176000Y-81235999D01*
G75*
G02*
X33425999Y-80986000I249999J0D01*
G01*
X34326001Y-80986000D01*
G75*
G02*
X34576000Y-81235999I0J-249999D01*
G01*
G37*
G36*
G01*
X37276000Y-81235999D02*
X37276000Y-82086001D01*
G75*
G02*
X37026001Y-82336000I-249999J0D01*
G01*
X36125999Y-82336000D01*
G75*
G02*
X35876000Y-82086001I0J249999D01*
G01*
X35876000Y-81235999D01*
G75*
G02*
X36125999Y-80986000I249999J0D01*
G01*
X37026001Y-80986000D01*
G75*
G02*
X37276000Y-81235999I0J-249999D01*
G01*
G37*
%TD*%
%TO.C,C17*%
G36*
G01*
X38405750Y-82794500D02*
X39318250Y-82794500D01*
G75*
G02*
X39562000Y-83038250I0J-243750D01*
G01*
X39562000Y-83525750D01*
G75*
G02*
X39318250Y-83769500I-243750J0D01*
G01*
X38405750Y-83769500D01*
G75*
G02*
X38162000Y-83525750I0J243750D01*
G01*
X38162000Y-83038250D01*
G75*
G02*
X38405750Y-82794500I243750J0D01*
G01*
G37*
G36*
G01*
X38405750Y-80919500D02*
X39318250Y-80919500D01*
G75*
G02*
X39562000Y-81163250I0J-243750D01*
G01*
X39562000Y-81650750D01*
G75*
G02*
X39318250Y-81894500I-243750J0D01*
G01*
X38405750Y-81894500D01*
G75*
G02*
X38162000Y-81650750I0J243750D01*
G01*
X38162000Y-81163250D01*
G75*
G02*
X38405750Y-80919500I243750J0D01*
G01*
G37*
%TD*%
%TO.C,C49*%
G36*
G01*
X52121750Y-88158500D02*
X53034250Y-88158500D01*
G75*
G02*
X53278000Y-88402250I0J-243750D01*
G01*
X53278000Y-88889750D01*
G75*
G02*
X53034250Y-89133500I-243750J0D01*
G01*
X52121750Y-89133500D01*
G75*
G02*
X51878000Y-88889750I0J243750D01*
G01*
X51878000Y-88402250D01*
G75*
G02*
X52121750Y-88158500I243750J0D01*
G01*
G37*
G36*
G01*
X52121750Y-86283500D02*
X53034250Y-86283500D01*
G75*
G02*
X53278000Y-86527250I0J-243750D01*
G01*
X53278000Y-87014750D01*
G75*
G02*
X53034250Y-87258500I-243750J0D01*
G01*
X52121750Y-87258500D01*
G75*
G02*
X51878000Y-87014750I0J243750D01*
G01*
X51878000Y-86527250D01*
G75*
G02*
X52121750Y-86283500I243750J0D01*
G01*
G37*
%TD*%
%TO.C,C48*%
G36*
G01*
X48692750Y-96510500D02*
X49605250Y-96510500D01*
G75*
G02*
X49849000Y-96754250I0J-243750D01*
G01*
X49849000Y-97241750D01*
G75*
G02*
X49605250Y-97485500I-243750J0D01*
G01*
X48692750Y-97485500D01*
G75*
G02*
X48449000Y-97241750I0J243750D01*
G01*
X48449000Y-96754250D01*
G75*
G02*
X48692750Y-96510500I243750J0D01*
G01*
G37*
G36*
G01*
X48692750Y-94635500D02*
X49605250Y-94635500D01*
G75*
G02*
X49849000Y-94879250I0J-243750D01*
G01*
X49849000Y-95366750D01*
G75*
G02*
X49605250Y-95610500I-243750J0D01*
G01*
X48692750Y-95610500D01*
G75*
G02*
X48449000Y-95366750I0J243750D01*
G01*
X48449000Y-94879250D01*
G75*
G02*
X48692750Y-94635500I243750J0D01*
G01*
G37*
%TD*%
D10*
%TO.C,P1*%
X42719000Y-102489000D03*
X41919000Y-102489000D03*
X37019000Y-102489000D03*
X36219000Y-102489000D03*
X36219000Y-102489000D03*
X37019000Y-102489000D03*
X41919000Y-102489000D03*
X42719000Y-102489000D03*
D11*
X37719000Y-102489000D03*
X38219000Y-102489000D03*
X38719000Y-102489000D03*
X39719000Y-102489000D03*
X40219000Y-102489000D03*
X40719000Y-102489000D03*
X41219000Y-102489000D03*
X39219000Y-102489000D03*
%TD*%
D12*
%TO.C,RN2*%
X42545000Y-28851000D03*
D13*
X43345000Y-28851000D03*
D12*
X44945000Y-28851000D03*
D13*
X44145000Y-28851000D03*
D12*
X42545000Y-27051000D03*
D13*
X44145000Y-27051000D03*
X43345000Y-27051000D03*
D12*
X44945000Y-27051000D03*
%TD*%
%TO.C,RN3*%
X37211000Y-28851000D03*
D13*
X38011000Y-28851000D03*
D12*
X39611000Y-28851000D03*
D13*
X38811000Y-28851000D03*
D12*
X37211000Y-27051000D03*
D13*
X38811000Y-27051000D03*
X38011000Y-27051000D03*
D12*
X39611000Y-27051000D03*
%TD*%
%TO.C,RN1*%
X47371000Y-28829000D03*
D13*
X48171000Y-28829000D03*
D12*
X49771000Y-28829000D03*
D13*
X48971000Y-28829000D03*
D12*
X47371000Y-27029000D03*
D13*
X48971000Y-27029000D03*
X48171000Y-27029000D03*
D12*
X49771000Y-27029000D03*
%TD*%
%TO.C,RN4*%
X32131000Y-28851000D03*
D13*
X32931000Y-28851000D03*
D12*
X34531000Y-28851000D03*
D13*
X33731000Y-28851000D03*
D12*
X32131000Y-27051000D03*
D13*
X33731000Y-27051000D03*
X32931000Y-27051000D03*
D12*
X34531000Y-27051000D03*
%TD*%
%TO.C,RN5*%
X26162000Y-28851000D03*
D13*
X26962000Y-28851000D03*
D12*
X28562000Y-28851000D03*
D13*
X27762000Y-28851000D03*
D12*
X26162000Y-27051000D03*
D13*
X27762000Y-27051000D03*
X26962000Y-27051000D03*
D12*
X28562000Y-27051000D03*
%TD*%
%TO.C,C39*%
G36*
G01*
X28330500Y-43231750D02*
X28330500Y-44144250D01*
G75*
G02*
X28086750Y-44388000I-243750J0D01*
G01*
X27599250Y-44388000D01*
G75*
G02*
X27355500Y-44144250I0J243750D01*
G01*
X27355500Y-43231750D01*
G75*
G02*
X27599250Y-42988000I243750J0D01*
G01*
X28086750Y-42988000D01*
G75*
G02*
X28330500Y-43231750I0J-243750D01*
G01*
G37*
G36*
G01*
X30205500Y-43231750D02*
X30205500Y-44144250D01*
G75*
G02*
X29961750Y-44388000I-243750J0D01*
G01*
X29474250Y-44388000D01*
G75*
G02*
X29230500Y-44144250I0J243750D01*
G01*
X29230500Y-43231750D01*
G75*
G02*
X29474250Y-42988000I243750J0D01*
G01*
X29961750Y-42988000D01*
G75*
G02*
X30205500Y-43231750I0J-243750D01*
G01*
G37*
%TD*%
D14*
%TO.C,Y2*%
X46101000Y-57912000D03*
X46101000Y-66412000D03*
%TD*%
D15*
%TO.C,Y1*%
X23250000Y-92329000D03*
X31750000Y-92329000D03*
%TD*%
D16*
%TO.C,U15*%
X32680000Y-51181000D03*
X32680000Y-53081000D03*
X30480000Y-53081000D03*
X30480000Y-52131000D03*
X30480000Y-51181000D03*
%TD*%
%TO.C,U11*%
X50376000Y-51374000D03*
X50376000Y-53274000D03*
X48176000Y-53274000D03*
X48176000Y-52324000D03*
X48176000Y-51374000D03*
%TD*%
%TO.C,U10*%
X22311000Y-53909000D03*
X22311000Y-54859000D03*
X22311000Y-52959000D03*
X24511000Y-52959000D03*
X24511000Y-53909000D03*
X24511000Y-54859000D03*
%TD*%
%TO.C,U8*%
G36*
G01*
X42973000Y-36867000D02*
X44298000Y-36867000D01*
G75*
G02*
X44373000Y-36942000I0J-75000D01*
G01*
X44373000Y-37092000D01*
G75*
G02*
X44298000Y-37167000I-75000J0D01*
G01*
X42973000Y-37167000D01*
G75*
G02*
X42898000Y-37092000I0J75000D01*
G01*
X42898000Y-36942000D01*
G75*
G02*
X42973000Y-36867000I75000J0D01*
G01*
G37*
G36*
G01*
X42973000Y-37367000D02*
X44298000Y-37367000D01*
G75*
G02*
X44373000Y-37442000I0J-75000D01*
G01*
X44373000Y-37592000D01*
G75*
G02*
X44298000Y-37667000I-75000J0D01*
G01*
X42973000Y-37667000D01*
G75*
G02*
X42898000Y-37592000I0J75000D01*
G01*
X42898000Y-37442000D01*
G75*
G02*
X42973000Y-37367000I75000J0D01*
G01*
G37*
G36*
G01*
X42973000Y-37867000D02*
X44298000Y-37867000D01*
G75*
G02*
X44373000Y-37942000I0J-75000D01*
G01*
X44373000Y-38092000D01*
G75*
G02*
X44298000Y-38167000I-75000J0D01*
G01*
X42973000Y-38167000D01*
G75*
G02*
X42898000Y-38092000I0J75000D01*
G01*
X42898000Y-37942000D01*
G75*
G02*
X42973000Y-37867000I75000J0D01*
G01*
G37*
G36*
G01*
X42973000Y-38367000D02*
X44298000Y-38367000D01*
G75*
G02*
X44373000Y-38442000I0J-75000D01*
G01*
X44373000Y-38592000D01*
G75*
G02*
X44298000Y-38667000I-75000J0D01*
G01*
X42973000Y-38667000D01*
G75*
G02*
X42898000Y-38592000I0J75000D01*
G01*
X42898000Y-38442000D01*
G75*
G02*
X42973000Y-38367000I75000J0D01*
G01*
G37*
G36*
G01*
X42973000Y-38867000D02*
X44298000Y-38867000D01*
G75*
G02*
X44373000Y-38942000I0J-75000D01*
G01*
X44373000Y-39092000D01*
G75*
G02*
X44298000Y-39167000I-75000J0D01*
G01*
X42973000Y-39167000D01*
G75*
G02*
X42898000Y-39092000I0J75000D01*
G01*
X42898000Y-38942000D01*
G75*
G02*
X42973000Y-38867000I75000J0D01*
G01*
G37*
G36*
G01*
X42973000Y-39367000D02*
X44298000Y-39367000D01*
G75*
G02*
X44373000Y-39442000I0J-75000D01*
G01*
X44373000Y-39592000D01*
G75*
G02*
X44298000Y-39667000I-75000J0D01*
G01*
X42973000Y-39667000D01*
G75*
G02*
X42898000Y-39592000I0J75000D01*
G01*
X42898000Y-39442000D01*
G75*
G02*
X42973000Y-39367000I75000J0D01*
G01*
G37*
G36*
G01*
X42973000Y-39867000D02*
X44298000Y-39867000D01*
G75*
G02*
X44373000Y-39942000I0J-75000D01*
G01*
X44373000Y-40092000D01*
G75*
G02*
X44298000Y-40167000I-75000J0D01*
G01*
X42973000Y-40167000D01*
G75*
G02*
X42898000Y-40092000I0J75000D01*
G01*
X42898000Y-39942000D01*
G75*
G02*
X42973000Y-39867000I75000J0D01*
G01*
G37*
G36*
G01*
X42973000Y-40367000D02*
X44298000Y-40367000D01*
G75*
G02*
X44373000Y-40442000I0J-75000D01*
G01*
X44373000Y-40592000D01*
G75*
G02*
X44298000Y-40667000I-75000J0D01*
G01*
X42973000Y-40667000D01*
G75*
G02*
X42898000Y-40592000I0J75000D01*
G01*
X42898000Y-40442000D01*
G75*
G02*
X42973000Y-40367000I75000J0D01*
G01*
G37*
G36*
G01*
X42973000Y-40867000D02*
X44298000Y-40867000D01*
G75*
G02*
X44373000Y-40942000I0J-75000D01*
G01*
X44373000Y-41092000D01*
G75*
G02*
X44298000Y-41167000I-75000J0D01*
G01*
X42973000Y-41167000D01*
G75*
G02*
X42898000Y-41092000I0J75000D01*
G01*
X42898000Y-40942000D01*
G75*
G02*
X42973000Y-40867000I75000J0D01*
G01*
G37*
G36*
G01*
X42973000Y-41367000D02*
X44298000Y-41367000D01*
G75*
G02*
X44373000Y-41442000I0J-75000D01*
G01*
X44373000Y-41592000D01*
G75*
G02*
X44298000Y-41667000I-75000J0D01*
G01*
X42973000Y-41667000D01*
G75*
G02*
X42898000Y-41592000I0J75000D01*
G01*
X42898000Y-41442000D01*
G75*
G02*
X42973000Y-41367000I75000J0D01*
G01*
G37*
G36*
G01*
X42973000Y-41867000D02*
X44298000Y-41867000D01*
G75*
G02*
X44373000Y-41942000I0J-75000D01*
G01*
X44373000Y-42092000D01*
G75*
G02*
X44298000Y-42167000I-75000J0D01*
G01*
X42973000Y-42167000D01*
G75*
G02*
X42898000Y-42092000I0J75000D01*
G01*
X42898000Y-41942000D01*
G75*
G02*
X42973000Y-41867000I75000J0D01*
G01*
G37*
G36*
G01*
X42973000Y-42367000D02*
X44298000Y-42367000D01*
G75*
G02*
X44373000Y-42442000I0J-75000D01*
G01*
X44373000Y-42592000D01*
G75*
G02*
X44298000Y-42667000I-75000J0D01*
G01*
X42973000Y-42667000D01*
G75*
G02*
X42898000Y-42592000I0J75000D01*
G01*
X42898000Y-42442000D01*
G75*
G02*
X42973000Y-42367000I75000J0D01*
G01*
G37*
G36*
G01*
X42973000Y-42867000D02*
X44298000Y-42867000D01*
G75*
G02*
X44373000Y-42942000I0J-75000D01*
G01*
X44373000Y-43092000D01*
G75*
G02*
X44298000Y-43167000I-75000J0D01*
G01*
X42973000Y-43167000D01*
G75*
G02*
X42898000Y-43092000I0J75000D01*
G01*
X42898000Y-42942000D01*
G75*
G02*
X42973000Y-42867000I75000J0D01*
G01*
G37*
G36*
G01*
X42973000Y-43367000D02*
X44298000Y-43367000D01*
G75*
G02*
X44373000Y-43442000I0J-75000D01*
G01*
X44373000Y-43592000D01*
G75*
G02*
X44298000Y-43667000I-75000J0D01*
G01*
X42973000Y-43667000D01*
G75*
G02*
X42898000Y-43592000I0J75000D01*
G01*
X42898000Y-43442000D01*
G75*
G02*
X42973000Y-43367000I75000J0D01*
G01*
G37*
G36*
G01*
X42973000Y-43867000D02*
X44298000Y-43867000D01*
G75*
G02*
X44373000Y-43942000I0J-75000D01*
G01*
X44373000Y-44092000D01*
G75*
G02*
X44298000Y-44167000I-75000J0D01*
G01*
X42973000Y-44167000D01*
G75*
G02*
X42898000Y-44092000I0J75000D01*
G01*
X42898000Y-43942000D01*
G75*
G02*
X42973000Y-43867000I75000J0D01*
G01*
G37*
G36*
G01*
X42973000Y-44367000D02*
X44298000Y-44367000D01*
G75*
G02*
X44373000Y-44442000I0J-75000D01*
G01*
X44373000Y-44592000D01*
G75*
G02*
X44298000Y-44667000I-75000J0D01*
G01*
X42973000Y-44667000D01*
G75*
G02*
X42898000Y-44592000I0J75000D01*
G01*
X42898000Y-44442000D01*
G75*
G02*
X42973000Y-44367000I75000J0D01*
G01*
G37*
G36*
G01*
X41648000Y-45692000D02*
X41798000Y-45692000D01*
G75*
G02*
X41873000Y-45767000I0J-75000D01*
G01*
X41873000Y-47092000D01*
G75*
G02*
X41798000Y-47167000I-75000J0D01*
G01*
X41648000Y-47167000D01*
G75*
G02*
X41573000Y-47092000I0J75000D01*
G01*
X41573000Y-45767000D01*
G75*
G02*
X41648000Y-45692000I75000J0D01*
G01*
G37*
G36*
G01*
X41148000Y-45692000D02*
X41298000Y-45692000D01*
G75*
G02*
X41373000Y-45767000I0J-75000D01*
G01*
X41373000Y-47092000D01*
G75*
G02*
X41298000Y-47167000I-75000J0D01*
G01*
X41148000Y-47167000D01*
G75*
G02*
X41073000Y-47092000I0J75000D01*
G01*
X41073000Y-45767000D01*
G75*
G02*
X41148000Y-45692000I75000J0D01*
G01*
G37*
G36*
G01*
X40648000Y-45692000D02*
X40798000Y-45692000D01*
G75*
G02*
X40873000Y-45767000I0J-75000D01*
G01*
X40873000Y-47092000D01*
G75*
G02*
X40798000Y-47167000I-75000J0D01*
G01*
X40648000Y-47167000D01*
G75*
G02*
X40573000Y-47092000I0J75000D01*
G01*
X40573000Y-45767000D01*
G75*
G02*
X40648000Y-45692000I75000J0D01*
G01*
G37*
G36*
G01*
X40148000Y-45692000D02*
X40298000Y-45692000D01*
G75*
G02*
X40373000Y-45767000I0J-75000D01*
G01*
X40373000Y-47092000D01*
G75*
G02*
X40298000Y-47167000I-75000J0D01*
G01*
X40148000Y-47167000D01*
G75*
G02*
X40073000Y-47092000I0J75000D01*
G01*
X40073000Y-45767000D01*
G75*
G02*
X40148000Y-45692000I75000J0D01*
G01*
G37*
G36*
G01*
X39648000Y-45692000D02*
X39798000Y-45692000D01*
G75*
G02*
X39873000Y-45767000I0J-75000D01*
G01*
X39873000Y-47092000D01*
G75*
G02*
X39798000Y-47167000I-75000J0D01*
G01*
X39648000Y-47167000D01*
G75*
G02*
X39573000Y-47092000I0J75000D01*
G01*
X39573000Y-45767000D01*
G75*
G02*
X39648000Y-45692000I75000J0D01*
G01*
G37*
G36*
G01*
X39148000Y-45692000D02*
X39298000Y-45692000D01*
G75*
G02*
X39373000Y-45767000I0J-75000D01*
G01*
X39373000Y-47092000D01*
G75*
G02*
X39298000Y-47167000I-75000J0D01*
G01*
X39148000Y-47167000D01*
G75*
G02*
X39073000Y-47092000I0J75000D01*
G01*
X39073000Y-45767000D01*
G75*
G02*
X39148000Y-45692000I75000J0D01*
G01*
G37*
G36*
G01*
X38648000Y-45692000D02*
X38798000Y-45692000D01*
G75*
G02*
X38873000Y-45767000I0J-75000D01*
G01*
X38873000Y-47092000D01*
G75*
G02*
X38798000Y-47167000I-75000J0D01*
G01*
X38648000Y-47167000D01*
G75*
G02*
X38573000Y-47092000I0J75000D01*
G01*
X38573000Y-45767000D01*
G75*
G02*
X38648000Y-45692000I75000J0D01*
G01*
G37*
G36*
G01*
X38148000Y-45692000D02*
X38298000Y-45692000D01*
G75*
G02*
X38373000Y-45767000I0J-75000D01*
G01*
X38373000Y-47092000D01*
G75*
G02*
X38298000Y-47167000I-75000J0D01*
G01*
X38148000Y-47167000D01*
G75*
G02*
X38073000Y-47092000I0J75000D01*
G01*
X38073000Y-45767000D01*
G75*
G02*
X38148000Y-45692000I75000J0D01*
G01*
G37*
G36*
G01*
X37648000Y-45692000D02*
X37798000Y-45692000D01*
G75*
G02*
X37873000Y-45767000I0J-75000D01*
G01*
X37873000Y-47092000D01*
G75*
G02*
X37798000Y-47167000I-75000J0D01*
G01*
X37648000Y-47167000D01*
G75*
G02*
X37573000Y-47092000I0J75000D01*
G01*
X37573000Y-45767000D01*
G75*
G02*
X37648000Y-45692000I75000J0D01*
G01*
G37*
G36*
G01*
X37148000Y-45692000D02*
X37298000Y-45692000D01*
G75*
G02*
X37373000Y-45767000I0J-75000D01*
G01*
X37373000Y-47092000D01*
G75*
G02*
X37298000Y-47167000I-75000J0D01*
G01*
X37148000Y-47167000D01*
G75*
G02*
X37073000Y-47092000I0J75000D01*
G01*
X37073000Y-45767000D01*
G75*
G02*
X37148000Y-45692000I75000J0D01*
G01*
G37*
G36*
G01*
X36648000Y-45692000D02*
X36798000Y-45692000D01*
G75*
G02*
X36873000Y-45767000I0J-75000D01*
G01*
X36873000Y-47092000D01*
G75*
G02*
X36798000Y-47167000I-75000J0D01*
G01*
X36648000Y-47167000D01*
G75*
G02*
X36573000Y-47092000I0J75000D01*
G01*
X36573000Y-45767000D01*
G75*
G02*
X36648000Y-45692000I75000J0D01*
G01*
G37*
G36*
G01*
X36148000Y-45692000D02*
X36298000Y-45692000D01*
G75*
G02*
X36373000Y-45767000I0J-75000D01*
G01*
X36373000Y-47092000D01*
G75*
G02*
X36298000Y-47167000I-75000J0D01*
G01*
X36148000Y-47167000D01*
G75*
G02*
X36073000Y-47092000I0J75000D01*
G01*
X36073000Y-45767000D01*
G75*
G02*
X36148000Y-45692000I75000J0D01*
G01*
G37*
G36*
G01*
X35648000Y-45692000D02*
X35798000Y-45692000D01*
G75*
G02*
X35873000Y-45767000I0J-75000D01*
G01*
X35873000Y-47092000D01*
G75*
G02*
X35798000Y-47167000I-75000J0D01*
G01*
X35648000Y-47167000D01*
G75*
G02*
X35573000Y-47092000I0J75000D01*
G01*
X35573000Y-45767000D01*
G75*
G02*
X35648000Y-45692000I75000J0D01*
G01*
G37*
G36*
G01*
X35148000Y-45692000D02*
X35298000Y-45692000D01*
G75*
G02*
X35373000Y-45767000I0J-75000D01*
G01*
X35373000Y-47092000D01*
G75*
G02*
X35298000Y-47167000I-75000J0D01*
G01*
X35148000Y-47167000D01*
G75*
G02*
X35073000Y-47092000I0J75000D01*
G01*
X35073000Y-45767000D01*
G75*
G02*
X35148000Y-45692000I75000J0D01*
G01*
G37*
G36*
G01*
X34648000Y-45692000D02*
X34798000Y-45692000D01*
G75*
G02*
X34873000Y-45767000I0J-75000D01*
G01*
X34873000Y-47092000D01*
G75*
G02*
X34798000Y-47167000I-75000J0D01*
G01*
X34648000Y-47167000D01*
G75*
G02*
X34573000Y-47092000I0J75000D01*
G01*
X34573000Y-45767000D01*
G75*
G02*
X34648000Y-45692000I75000J0D01*
G01*
G37*
G36*
G01*
X34148000Y-45692000D02*
X34298000Y-45692000D01*
G75*
G02*
X34373000Y-45767000I0J-75000D01*
G01*
X34373000Y-47092000D01*
G75*
G02*
X34298000Y-47167000I-75000J0D01*
G01*
X34148000Y-47167000D01*
G75*
G02*
X34073000Y-47092000I0J75000D01*
G01*
X34073000Y-45767000D01*
G75*
G02*
X34148000Y-45692000I75000J0D01*
G01*
G37*
G36*
G01*
X31648000Y-44367000D02*
X32973000Y-44367000D01*
G75*
G02*
X33048000Y-44442000I0J-75000D01*
G01*
X33048000Y-44592000D01*
G75*
G02*
X32973000Y-44667000I-75000J0D01*
G01*
X31648000Y-44667000D01*
G75*
G02*
X31573000Y-44592000I0J75000D01*
G01*
X31573000Y-44442000D01*
G75*
G02*
X31648000Y-44367000I75000J0D01*
G01*
G37*
G36*
G01*
X31648000Y-43867000D02*
X32973000Y-43867000D01*
G75*
G02*
X33048000Y-43942000I0J-75000D01*
G01*
X33048000Y-44092000D01*
G75*
G02*
X32973000Y-44167000I-75000J0D01*
G01*
X31648000Y-44167000D01*
G75*
G02*
X31573000Y-44092000I0J75000D01*
G01*
X31573000Y-43942000D01*
G75*
G02*
X31648000Y-43867000I75000J0D01*
G01*
G37*
G36*
G01*
X31648000Y-43367000D02*
X32973000Y-43367000D01*
G75*
G02*
X33048000Y-43442000I0J-75000D01*
G01*
X33048000Y-43592000D01*
G75*
G02*
X32973000Y-43667000I-75000J0D01*
G01*
X31648000Y-43667000D01*
G75*
G02*
X31573000Y-43592000I0J75000D01*
G01*
X31573000Y-43442000D01*
G75*
G02*
X31648000Y-43367000I75000J0D01*
G01*
G37*
G36*
G01*
X31648000Y-42867000D02*
X32973000Y-42867000D01*
G75*
G02*
X33048000Y-42942000I0J-75000D01*
G01*
X33048000Y-43092000D01*
G75*
G02*
X32973000Y-43167000I-75000J0D01*
G01*
X31648000Y-43167000D01*
G75*
G02*
X31573000Y-43092000I0J75000D01*
G01*
X31573000Y-42942000D01*
G75*
G02*
X31648000Y-42867000I75000J0D01*
G01*
G37*
G36*
G01*
X31648000Y-42367000D02*
X32973000Y-42367000D01*
G75*
G02*
X33048000Y-42442000I0J-75000D01*
G01*
X33048000Y-42592000D01*
G75*
G02*
X32973000Y-42667000I-75000J0D01*
G01*
X31648000Y-42667000D01*
G75*
G02*
X31573000Y-42592000I0J75000D01*
G01*
X31573000Y-42442000D01*
G75*
G02*
X31648000Y-42367000I75000J0D01*
G01*
G37*
G36*
G01*
X31648000Y-41867000D02*
X32973000Y-41867000D01*
G75*
G02*
X33048000Y-41942000I0J-75000D01*
G01*
X33048000Y-42092000D01*
G75*
G02*
X32973000Y-42167000I-75000J0D01*
G01*
X31648000Y-42167000D01*
G75*
G02*
X31573000Y-42092000I0J75000D01*
G01*
X31573000Y-41942000D01*
G75*
G02*
X31648000Y-41867000I75000J0D01*
G01*
G37*
G36*
G01*
X31648000Y-41367000D02*
X32973000Y-41367000D01*
G75*
G02*
X33048000Y-41442000I0J-75000D01*
G01*
X33048000Y-41592000D01*
G75*
G02*
X32973000Y-41667000I-75000J0D01*
G01*
X31648000Y-41667000D01*
G75*
G02*
X31573000Y-41592000I0J75000D01*
G01*
X31573000Y-41442000D01*
G75*
G02*
X31648000Y-41367000I75000J0D01*
G01*
G37*
G36*
G01*
X31648000Y-40867000D02*
X32973000Y-40867000D01*
G75*
G02*
X33048000Y-40942000I0J-75000D01*
G01*
X33048000Y-41092000D01*
G75*
G02*
X32973000Y-41167000I-75000J0D01*
G01*
X31648000Y-41167000D01*
G75*
G02*
X31573000Y-41092000I0J75000D01*
G01*
X31573000Y-40942000D01*
G75*
G02*
X31648000Y-40867000I75000J0D01*
G01*
G37*
G36*
G01*
X31648000Y-40367000D02*
X32973000Y-40367000D01*
G75*
G02*
X33048000Y-40442000I0J-75000D01*
G01*
X33048000Y-40592000D01*
G75*
G02*
X32973000Y-40667000I-75000J0D01*
G01*
X31648000Y-40667000D01*
G75*
G02*
X31573000Y-40592000I0J75000D01*
G01*
X31573000Y-40442000D01*
G75*
G02*
X31648000Y-40367000I75000J0D01*
G01*
G37*
G36*
G01*
X31648000Y-39867000D02*
X32973000Y-39867000D01*
G75*
G02*
X33048000Y-39942000I0J-75000D01*
G01*
X33048000Y-40092000D01*
G75*
G02*
X32973000Y-40167000I-75000J0D01*
G01*
X31648000Y-40167000D01*
G75*
G02*
X31573000Y-40092000I0J75000D01*
G01*
X31573000Y-39942000D01*
G75*
G02*
X31648000Y-39867000I75000J0D01*
G01*
G37*
G36*
G01*
X31648000Y-39367000D02*
X32973000Y-39367000D01*
G75*
G02*
X33048000Y-39442000I0J-75000D01*
G01*
X33048000Y-39592000D01*
G75*
G02*
X32973000Y-39667000I-75000J0D01*
G01*
X31648000Y-39667000D01*
G75*
G02*
X31573000Y-39592000I0J75000D01*
G01*
X31573000Y-39442000D01*
G75*
G02*
X31648000Y-39367000I75000J0D01*
G01*
G37*
G36*
G01*
X31648000Y-38867000D02*
X32973000Y-38867000D01*
G75*
G02*
X33048000Y-38942000I0J-75000D01*
G01*
X33048000Y-39092000D01*
G75*
G02*
X32973000Y-39167000I-75000J0D01*
G01*
X31648000Y-39167000D01*
G75*
G02*
X31573000Y-39092000I0J75000D01*
G01*
X31573000Y-38942000D01*
G75*
G02*
X31648000Y-38867000I75000J0D01*
G01*
G37*
G36*
G01*
X31648000Y-38367000D02*
X32973000Y-38367000D01*
G75*
G02*
X33048000Y-38442000I0J-75000D01*
G01*
X33048000Y-38592000D01*
G75*
G02*
X32973000Y-38667000I-75000J0D01*
G01*
X31648000Y-38667000D01*
G75*
G02*
X31573000Y-38592000I0J75000D01*
G01*
X31573000Y-38442000D01*
G75*
G02*
X31648000Y-38367000I75000J0D01*
G01*
G37*
G36*
G01*
X31648000Y-37867000D02*
X32973000Y-37867000D01*
G75*
G02*
X33048000Y-37942000I0J-75000D01*
G01*
X33048000Y-38092000D01*
G75*
G02*
X32973000Y-38167000I-75000J0D01*
G01*
X31648000Y-38167000D01*
G75*
G02*
X31573000Y-38092000I0J75000D01*
G01*
X31573000Y-37942000D01*
G75*
G02*
X31648000Y-37867000I75000J0D01*
G01*
G37*
G36*
G01*
X31648000Y-37367000D02*
X32973000Y-37367000D01*
G75*
G02*
X33048000Y-37442000I0J-75000D01*
G01*
X33048000Y-37592000D01*
G75*
G02*
X32973000Y-37667000I-75000J0D01*
G01*
X31648000Y-37667000D01*
G75*
G02*
X31573000Y-37592000I0J75000D01*
G01*
X31573000Y-37442000D01*
G75*
G02*
X31648000Y-37367000I75000J0D01*
G01*
G37*
G36*
G01*
X31648000Y-36867000D02*
X32973000Y-36867000D01*
G75*
G02*
X33048000Y-36942000I0J-75000D01*
G01*
X33048000Y-37092000D01*
G75*
G02*
X32973000Y-37167000I-75000J0D01*
G01*
X31648000Y-37167000D01*
G75*
G02*
X31573000Y-37092000I0J75000D01*
G01*
X31573000Y-36942000D01*
G75*
G02*
X31648000Y-36867000I75000J0D01*
G01*
G37*
G36*
G01*
X34148000Y-34367000D02*
X34298000Y-34367000D01*
G75*
G02*
X34373000Y-34442000I0J-75000D01*
G01*
X34373000Y-35767000D01*
G75*
G02*
X34298000Y-35842000I-75000J0D01*
G01*
X34148000Y-35842000D01*
G75*
G02*
X34073000Y-35767000I0J75000D01*
G01*
X34073000Y-34442000D01*
G75*
G02*
X34148000Y-34367000I75000J0D01*
G01*
G37*
G36*
G01*
X34648000Y-34367000D02*
X34798000Y-34367000D01*
G75*
G02*
X34873000Y-34442000I0J-75000D01*
G01*
X34873000Y-35767000D01*
G75*
G02*
X34798000Y-35842000I-75000J0D01*
G01*
X34648000Y-35842000D01*
G75*
G02*
X34573000Y-35767000I0J75000D01*
G01*
X34573000Y-34442000D01*
G75*
G02*
X34648000Y-34367000I75000J0D01*
G01*
G37*
G36*
G01*
X35148000Y-34367000D02*
X35298000Y-34367000D01*
G75*
G02*
X35373000Y-34442000I0J-75000D01*
G01*
X35373000Y-35767000D01*
G75*
G02*
X35298000Y-35842000I-75000J0D01*
G01*
X35148000Y-35842000D01*
G75*
G02*
X35073000Y-35767000I0J75000D01*
G01*
X35073000Y-34442000D01*
G75*
G02*
X35148000Y-34367000I75000J0D01*
G01*
G37*
G36*
G01*
X35648000Y-34367000D02*
X35798000Y-34367000D01*
G75*
G02*
X35873000Y-34442000I0J-75000D01*
G01*
X35873000Y-35767000D01*
G75*
G02*
X35798000Y-35842000I-75000J0D01*
G01*
X35648000Y-35842000D01*
G75*
G02*
X35573000Y-35767000I0J75000D01*
G01*
X35573000Y-34442000D01*
G75*
G02*
X35648000Y-34367000I75000J0D01*
G01*
G37*
G36*
G01*
X36148000Y-34367000D02*
X36298000Y-34367000D01*
G75*
G02*
X36373000Y-34442000I0J-75000D01*
G01*
X36373000Y-35767000D01*
G75*
G02*
X36298000Y-35842000I-75000J0D01*
G01*
X36148000Y-35842000D01*
G75*
G02*
X36073000Y-35767000I0J75000D01*
G01*
X36073000Y-34442000D01*
G75*
G02*
X36148000Y-34367000I75000J0D01*
G01*
G37*
G36*
G01*
X36648000Y-34367000D02*
X36798000Y-34367000D01*
G75*
G02*
X36873000Y-34442000I0J-75000D01*
G01*
X36873000Y-35767000D01*
G75*
G02*
X36798000Y-35842000I-75000J0D01*
G01*
X36648000Y-35842000D01*
G75*
G02*
X36573000Y-35767000I0J75000D01*
G01*
X36573000Y-34442000D01*
G75*
G02*
X36648000Y-34367000I75000J0D01*
G01*
G37*
G36*
G01*
X37148000Y-34367000D02*
X37298000Y-34367000D01*
G75*
G02*
X37373000Y-34442000I0J-75000D01*
G01*
X37373000Y-35767000D01*
G75*
G02*
X37298000Y-35842000I-75000J0D01*
G01*
X37148000Y-35842000D01*
G75*
G02*
X37073000Y-35767000I0J75000D01*
G01*
X37073000Y-34442000D01*
G75*
G02*
X37148000Y-34367000I75000J0D01*
G01*
G37*
G36*
G01*
X37648000Y-34367000D02*
X37798000Y-34367000D01*
G75*
G02*
X37873000Y-34442000I0J-75000D01*
G01*
X37873000Y-35767000D01*
G75*
G02*
X37798000Y-35842000I-75000J0D01*
G01*
X37648000Y-35842000D01*
G75*
G02*
X37573000Y-35767000I0J75000D01*
G01*
X37573000Y-34442000D01*
G75*
G02*
X37648000Y-34367000I75000J0D01*
G01*
G37*
G36*
G01*
X38148000Y-34367000D02*
X38298000Y-34367000D01*
G75*
G02*
X38373000Y-34442000I0J-75000D01*
G01*
X38373000Y-35767000D01*
G75*
G02*
X38298000Y-35842000I-75000J0D01*
G01*
X38148000Y-35842000D01*
G75*
G02*
X38073000Y-35767000I0J75000D01*
G01*
X38073000Y-34442000D01*
G75*
G02*
X38148000Y-34367000I75000J0D01*
G01*
G37*
G36*
G01*
X38648000Y-34367000D02*
X38798000Y-34367000D01*
G75*
G02*
X38873000Y-34442000I0J-75000D01*
G01*
X38873000Y-35767000D01*
G75*
G02*
X38798000Y-35842000I-75000J0D01*
G01*
X38648000Y-35842000D01*
G75*
G02*
X38573000Y-35767000I0J75000D01*
G01*
X38573000Y-34442000D01*
G75*
G02*
X38648000Y-34367000I75000J0D01*
G01*
G37*
G36*
G01*
X39148000Y-34367000D02*
X39298000Y-34367000D01*
G75*
G02*
X39373000Y-34442000I0J-75000D01*
G01*
X39373000Y-35767000D01*
G75*
G02*
X39298000Y-35842000I-75000J0D01*
G01*
X39148000Y-35842000D01*
G75*
G02*
X39073000Y-35767000I0J75000D01*
G01*
X39073000Y-34442000D01*
G75*
G02*
X39148000Y-34367000I75000J0D01*
G01*
G37*
G36*
G01*
X39648000Y-34367000D02*
X39798000Y-34367000D01*
G75*
G02*
X39873000Y-34442000I0J-75000D01*
G01*
X39873000Y-35767000D01*
G75*
G02*
X39798000Y-35842000I-75000J0D01*
G01*
X39648000Y-35842000D01*
G75*
G02*
X39573000Y-35767000I0J75000D01*
G01*
X39573000Y-34442000D01*
G75*
G02*
X39648000Y-34367000I75000J0D01*
G01*
G37*
G36*
G01*
X40148000Y-34367000D02*
X40298000Y-34367000D01*
G75*
G02*
X40373000Y-34442000I0J-75000D01*
G01*
X40373000Y-35767000D01*
G75*
G02*
X40298000Y-35842000I-75000J0D01*
G01*
X40148000Y-35842000D01*
G75*
G02*
X40073000Y-35767000I0J75000D01*
G01*
X40073000Y-34442000D01*
G75*
G02*
X40148000Y-34367000I75000J0D01*
G01*
G37*
G36*
G01*
X40648000Y-34367000D02*
X40798000Y-34367000D01*
G75*
G02*
X40873000Y-34442000I0J-75000D01*
G01*
X40873000Y-35767000D01*
G75*
G02*
X40798000Y-35842000I-75000J0D01*
G01*
X40648000Y-35842000D01*
G75*
G02*
X40573000Y-35767000I0J75000D01*
G01*
X40573000Y-34442000D01*
G75*
G02*
X40648000Y-34367000I75000J0D01*
G01*
G37*
G36*
G01*
X41148000Y-34367000D02*
X41298000Y-34367000D01*
G75*
G02*
X41373000Y-34442000I0J-75000D01*
G01*
X41373000Y-35767000D01*
G75*
G02*
X41298000Y-35842000I-75000J0D01*
G01*
X41148000Y-35842000D01*
G75*
G02*
X41073000Y-35767000I0J75000D01*
G01*
X41073000Y-34442000D01*
G75*
G02*
X41148000Y-34367000I75000J0D01*
G01*
G37*
G36*
G01*
X41648000Y-34367000D02*
X41798000Y-34367000D01*
G75*
G02*
X41873000Y-34442000I0J-75000D01*
G01*
X41873000Y-35767000D01*
G75*
G02*
X41798000Y-35842000I-75000J0D01*
G01*
X41648000Y-35842000D01*
G75*
G02*
X41573000Y-35767000I0J75000D01*
G01*
X41573000Y-34442000D01*
G75*
G02*
X41648000Y-34367000I75000J0D01*
G01*
G37*
%TD*%
D17*
%TO.C,U6*%
X35546000Y-79198000D03*
X40146000Y-79198000D03*
X37846000Y-79198000D03*
D18*
X37846000Y-72898000D03*
%TD*%
%TO.C,U5*%
G36*
G01*
X36218000Y-91907000D02*
X35918000Y-91907000D01*
G75*
G02*
X35768000Y-91757000I0J150000D01*
G01*
X35768000Y-90107000D01*
G75*
G02*
X35918000Y-89957000I150000J0D01*
G01*
X36218000Y-89957000D01*
G75*
G02*
X36368000Y-90107000I0J-150000D01*
G01*
X36368000Y-91757000D01*
G75*
G02*
X36218000Y-91907000I-150000J0D01*
G01*
G37*
G36*
G01*
X37488000Y-91907000D02*
X37188000Y-91907000D01*
G75*
G02*
X37038000Y-91757000I0J150000D01*
G01*
X37038000Y-90107000D01*
G75*
G02*
X37188000Y-89957000I150000J0D01*
G01*
X37488000Y-89957000D01*
G75*
G02*
X37638000Y-90107000I0J-150000D01*
G01*
X37638000Y-91757000D01*
G75*
G02*
X37488000Y-91907000I-150000J0D01*
G01*
G37*
G36*
G01*
X38758000Y-91907000D02*
X38458000Y-91907000D01*
G75*
G02*
X38308000Y-91757000I0J150000D01*
G01*
X38308000Y-90107000D01*
G75*
G02*
X38458000Y-89957000I150000J0D01*
G01*
X38758000Y-89957000D01*
G75*
G02*
X38908000Y-90107000I0J-150000D01*
G01*
X38908000Y-91757000D01*
G75*
G02*
X38758000Y-91907000I-150000J0D01*
G01*
G37*
G36*
G01*
X40028000Y-91907000D02*
X39728000Y-91907000D01*
G75*
G02*
X39578000Y-91757000I0J150000D01*
G01*
X39578000Y-90107000D01*
G75*
G02*
X39728000Y-89957000I150000J0D01*
G01*
X40028000Y-89957000D01*
G75*
G02*
X40178000Y-90107000I0J-150000D01*
G01*
X40178000Y-91757000D01*
G75*
G02*
X40028000Y-91907000I-150000J0D01*
G01*
G37*
G36*
G01*
X40028000Y-96857000D02*
X39728000Y-96857000D01*
G75*
G02*
X39578000Y-96707000I0J150000D01*
G01*
X39578000Y-95057000D01*
G75*
G02*
X39728000Y-94907000I150000J0D01*
G01*
X40028000Y-94907000D01*
G75*
G02*
X40178000Y-95057000I0J-150000D01*
G01*
X40178000Y-96707000D01*
G75*
G02*
X40028000Y-96857000I-150000J0D01*
G01*
G37*
G36*
G01*
X38758000Y-96857000D02*
X38458000Y-96857000D01*
G75*
G02*
X38308000Y-96707000I0J150000D01*
G01*
X38308000Y-95057000D01*
G75*
G02*
X38458000Y-94907000I150000J0D01*
G01*
X38758000Y-94907000D01*
G75*
G02*
X38908000Y-95057000I0J-150000D01*
G01*
X38908000Y-96707000D01*
G75*
G02*
X38758000Y-96857000I-150000J0D01*
G01*
G37*
G36*
G01*
X37488000Y-96857000D02*
X37188000Y-96857000D01*
G75*
G02*
X37038000Y-96707000I0J150000D01*
G01*
X37038000Y-95057000D01*
G75*
G02*
X37188000Y-94907000I150000J0D01*
G01*
X37488000Y-94907000D01*
G75*
G02*
X37638000Y-95057000I0J-150000D01*
G01*
X37638000Y-96707000D01*
G75*
G02*
X37488000Y-96857000I-150000J0D01*
G01*
G37*
G36*
G01*
X36218000Y-96857000D02*
X35918000Y-96857000D01*
G75*
G02*
X35768000Y-96707000I0J150000D01*
G01*
X35768000Y-95057000D01*
G75*
G02*
X35918000Y-94907000I150000J0D01*
G01*
X36218000Y-94907000D01*
G75*
G02*
X36368000Y-95057000I0J-150000D01*
G01*
X36368000Y-96707000D01*
G75*
G02*
X36218000Y-96857000I-150000J0D01*
G01*
G37*
%TD*%
%TO.C,U2*%
G36*
G01*
X41127000Y-64968000D02*
X41127000Y-66293000D01*
G75*
G02*
X41052000Y-66368000I-75000J0D01*
G01*
X40902000Y-66368000D01*
G75*
G02*
X40827000Y-66293000I0J75000D01*
G01*
X40827000Y-64968000D01*
G75*
G02*
X40902000Y-64893000I75000J0D01*
G01*
X41052000Y-64893000D01*
G75*
G02*
X41127000Y-64968000I0J-75000D01*
G01*
G37*
G36*
G01*
X40627000Y-64968000D02*
X40627000Y-66293000D01*
G75*
G02*
X40552000Y-66368000I-75000J0D01*
G01*
X40402000Y-66368000D01*
G75*
G02*
X40327000Y-66293000I0J75000D01*
G01*
X40327000Y-64968000D01*
G75*
G02*
X40402000Y-64893000I75000J0D01*
G01*
X40552000Y-64893000D01*
G75*
G02*
X40627000Y-64968000I0J-75000D01*
G01*
G37*
G36*
G01*
X40127000Y-64968000D02*
X40127000Y-66293000D01*
G75*
G02*
X40052000Y-66368000I-75000J0D01*
G01*
X39902000Y-66368000D01*
G75*
G02*
X39827000Y-66293000I0J75000D01*
G01*
X39827000Y-64968000D01*
G75*
G02*
X39902000Y-64893000I75000J0D01*
G01*
X40052000Y-64893000D01*
G75*
G02*
X40127000Y-64968000I0J-75000D01*
G01*
G37*
G36*
G01*
X39627000Y-64968000D02*
X39627000Y-66293000D01*
G75*
G02*
X39552000Y-66368000I-75000J0D01*
G01*
X39402000Y-66368000D01*
G75*
G02*
X39327000Y-66293000I0J75000D01*
G01*
X39327000Y-64968000D01*
G75*
G02*
X39402000Y-64893000I75000J0D01*
G01*
X39552000Y-64893000D01*
G75*
G02*
X39627000Y-64968000I0J-75000D01*
G01*
G37*
G36*
G01*
X39127000Y-64968000D02*
X39127000Y-66293000D01*
G75*
G02*
X39052000Y-66368000I-75000J0D01*
G01*
X38902000Y-66368000D01*
G75*
G02*
X38827000Y-66293000I0J75000D01*
G01*
X38827000Y-64968000D01*
G75*
G02*
X38902000Y-64893000I75000J0D01*
G01*
X39052000Y-64893000D01*
G75*
G02*
X39127000Y-64968000I0J-75000D01*
G01*
G37*
G36*
G01*
X38627000Y-64968000D02*
X38627000Y-66293000D01*
G75*
G02*
X38552000Y-66368000I-75000J0D01*
G01*
X38402000Y-66368000D01*
G75*
G02*
X38327000Y-66293000I0J75000D01*
G01*
X38327000Y-64968000D01*
G75*
G02*
X38402000Y-64893000I75000J0D01*
G01*
X38552000Y-64893000D01*
G75*
G02*
X38627000Y-64968000I0J-75000D01*
G01*
G37*
G36*
G01*
X38127000Y-64968000D02*
X38127000Y-66293000D01*
G75*
G02*
X38052000Y-66368000I-75000J0D01*
G01*
X37902000Y-66368000D01*
G75*
G02*
X37827000Y-66293000I0J75000D01*
G01*
X37827000Y-64968000D01*
G75*
G02*
X37902000Y-64893000I75000J0D01*
G01*
X38052000Y-64893000D01*
G75*
G02*
X38127000Y-64968000I0J-75000D01*
G01*
G37*
G36*
G01*
X37627000Y-64968000D02*
X37627000Y-66293000D01*
G75*
G02*
X37552000Y-66368000I-75000J0D01*
G01*
X37402000Y-66368000D01*
G75*
G02*
X37327000Y-66293000I0J75000D01*
G01*
X37327000Y-64968000D01*
G75*
G02*
X37402000Y-64893000I75000J0D01*
G01*
X37552000Y-64893000D01*
G75*
G02*
X37627000Y-64968000I0J-75000D01*
G01*
G37*
G36*
G01*
X37127000Y-64968000D02*
X37127000Y-66293000D01*
G75*
G02*
X37052000Y-66368000I-75000J0D01*
G01*
X36902000Y-66368000D01*
G75*
G02*
X36827000Y-66293000I0J75000D01*
G01*
X36827000Y-64968000D01*
G75*
G02*
X36902000Y-64893000I75000J0D01*
G01*
X37052000Y-64893000D01*
G75*
G02*
X37127000Y-64968000I0J-75000D01*
G01*
G37*
G36*
G01*
X36627000Y-64968000D02*
X36627000Y-66293000D01*
G75*
G02*
X36552000Y-66368000I-75000J0D01*
G01*
X36402000Y-66368000D01*
G75*
G02*
X36327000Y-66293000I0J75000D01*
G01*
X36327000Y-64968000D01*
G75*
G02*
X36402000Y-64893000I75000J0D01*
G01*
X36552000Y-64893000D01*
G75*
G02*
X36627000Y-64968000I0J-75000D01*
G01*
G37*
G36*
G01*
X36127000Y-64968000D02*
X36127000Y-66293000D01*
G75*
G02*
X36052000Y-66368000I-75000J0D01*
G01*
X35902000Y-66368000D01*
G75*
G02*
X35827000Y-66293000I0J75000D01*
G01*
X35827000Y-64968000D01*
G75*
G02*
X35902000Y-64893000I75000J0D01*
G01*
X36052000Y-64893000D01*
G75*
G02*
X36127000Y-64968000I0J-75000D01*
G01*
G37*
G36*
G01*
X35627000Y-64968000D02*
X35627000Y-66293000D01*
G75*
G02*
X35552000Y-66368000I-75000J0D01*
G01*
X35402000Y-66368000D01*
G75*
G02*
X35327000Y-66293000I0J75000D01*
G01*
X35327000Y-64968000D01*
G75*
G02*
X35402000Y-64893000I75000J0D01*
G01*
X35552000Y-64893000D01*
G75*
G02*
X35627000Y-64968000I0J-75000D01*
G01*
G37*
G36*
G01*
X34802000Y-64143000D02*
X34802000Y-64293000D01*
G75*
G02*
X34727000Y-64368000I-75000J0D01*
G01*
X33402000Y-64368000D01*
G75*
G02*
X33327000Y-64293000I0J75000D01*
G01*
X33327000Y-64143000D01*
G75*
G02*
X33402000Y-64068000I75000J0D01*
G01*
X34727000Y-64068000D01*
G75*
G02*
X34802000Y-64143000I0J-75000D01*
G01*
G37*
G36*
G01*
X34802000Y-63643000D02*
X34802000Y-63793000D01*
G75*
G02*
X34727000Y-63868000I-75000J0D01*
G01*
X33402000Y-63868000D01*
G75*
G02*
X33327000Y-63793000I0J75000D01*
G01*
X33327000Y-63643000D01*
G75*
G02*
X33402000Y-63568000I75000J0D01*
G01*
X34727000Y-63568000D01*
G75*
G02*
X34802000Y-63643000I0J-75000D01*
G01*
G37*
G36*
G01*
X34802000Y-63143000D02*
X34802000Y-63293000D01*
G75*
G02*
X34727000Y-63368000I-75000J0D01*
G01*
X33402000Y-63368000D01*
G75*
G02*
X33327000Y-63293000I0J75000D01*
G01*
X33327000Y-63143000D01*
G75*
G02*
X33402000Y-63068000I75000J0D01*
G01*
X34727000Y-63068000D01*
G75*
G02*
X34802000Y-63143000I0J-75000D01*
G01*
G37*
G36*
G01*
X34802000Y-62643000D02*
X34802000Y-62793000D01*
G75*
G02*
X34727000Y-62868000I-75000J0D01*
G01*
X33402000Y-62868000D01*
G75*
G02*
X33327000Y-62793000I0J75000D01*
G01*
X33327000Y-62643000D01*
G75*
G02*
X33402000Y-62568000I75000J0D01*
G01*
X34727000Y-62568000D01*
G75*
G02*
X34802000Y-62643000I0J-75000D01*
G01*
G37*
G36*
G01*
X34802000Y-62143000D02*
X34802000Y-62293000D01*
G75*
G02*
X34727000Y-62368000I-75000J0D01*
G01*
X33402000Y-62368000D01*
G75*
G02*
X33327000Y-62293000I0J75000D01*
G01*
X33327000Y-62143000D01*
G75*
G02*
X33402000Y-62068000I75000J0D01*
G01*
X34727000Y-62068000D01*
G75*
G02*
X34802000Y-62143000I0J-75000D01*
G01*
G37*
G36*
G01*
X34802000Y-61643000D02*
X34802000Y-61793000D01*
G75*
G02*
X34727000Y-61868000I-75000J0D01*
G01*
X33402000Y-61868000D01*
G75*
G02*
X33327000Y-61793000I0J75000D01*
G01*
X33327000Y-61643000D01*
G75*
G02*
X33402000Y-61568000I75000J0D01*
G01*
X34727000Y-61568000D01*
G75*
G02*
X34802000Y-61643000I0J-75000D01*
G01*
G37*
G36*
G01*
X34802000Y-61143000D02*
X34802000Y-61293000D01*
G75*
G02*
X34727000Y-61368000I-75000J0D01*
G01*
X33402000Y-61368000D01*
G75*
G02*
X33327000Y-61293000I0J75000D01*
G01*
X33327000Y-61143000D01*
G75*
G02*
X33402000Y-61068000I75000J0D01*
G01*
X34727000Y-61068000D01*
G75*
G02*
X34802000Y-61143000I0J-75000D01*
G01*
G37*
G36*
G01*
X34802000Y-60643000D02*
X34802000Y-60793000D01*
G75*
G02*
X34727000Y-60868000I-75000J0D01*
G01*
X33402000Y-60868000D01*
G75*
G02*
X33327000Y-60793000I0J75000D01*
G01*
X33327000Y-60643000D01*
G75*
G02*
X33402000Y-60568000I75000J0D01*
G01*
X34727000Y-60568000D01*
G75*
G02*
X34802000Y-60643000I0J-75000D01*
G01*
G37*
G36*
G01*
X34802000Y-60143000D02*
X34802000Y-60293000D01*
G75*
G02*
X34727000Y-60368000I-75000J0D01*
G01*
X33402000Y-60368000D01*
G75*
G02*
X33327000Y-60293000I0J75000D01*
G01*
X33327000Y-60143000D01*
G75*
G02*
X33402000Y-60068000I75000J0D01*
G01*
X34727000Y-60068000D01*
G75*
G02*
X34802000Y-60143000I0J-75000D01*
G01*
G37*
G36*
G01*
X34802000Y-59643000D02*
X34802000Y-59793000D01*
G75*
G02*
X34727000Y-59868000I-75000J0D01*
G01*
X33402000Y-59868000D01*
G75*
G02*
X33327000Y-59793000I0J75000D01*
G01*
X33327000Y-59643000D01*
G75*
G02*
X33402000Y-59568000I75000J0D01*
G01*
X34727000Y-59568000D01*
G75*
G02*
X34802000Y-59643000I0J-75000D01*
G01*
G37*
G36*
G01*
X34802000Y-59143000D02*
X34802000Y-59293000D01*
G75*
G02*
X34727000Y-59368000I-75000J0D01*
G01*
X33402000Y-59368000D01*
G75*
G02*
X33327000Y-59293000I0J75000D01*
G01*
X33327000Y-59143000D01*
G75*
G02*
X33402000Y-59068000I75000J0D01*
G01*
X34727000Y-59068000D01*
G75*
G02*
X34802000Y-59143000I0J-75000D01*
G01*
G37*
G36*
G01*
X34802000Y-58643000D02*
X34802000Y-58793000D01*
G75*
G02*
X34727000Y-58868000I-75000J0D01*
G01*
X33402000Y-58868000D01*
G75*
G02*
X33327000Y-58793000I0J75000D01*
G01*
X33327000Y-58643000D01*
G75*
G02*
X33402000Y-58568000I75000J0D01*
G01*
X34727000Y-58568000D01*
G75*
G02*
X34802000Y-58643000I0J-75000D01*
G01*
G37*
G36*
G01*
X35627000Y-56643000D02*
X35627000Y-57968000D01*
G75*
G02*
X35552000Y-58043000I-75000J0D01*
G01*
X35402000Y-58043000D01*
G75*
G02*
X35327000Y-57968000I0J75000D01*
G01*
X35327000Y-56643000D01*
G75*
G02*
X35402000Y-56568000I75000J0D01*
G01*
X35552000Y-56568000D01*
G75*
G02*
X35627000Y-56643000I0J-75000D01*
G01*
G37*
G36*
G01*
X36127000Y-56643000D02*
X36127000Y-57968000D01*
G75*
G02*
X36052000Y-58043000I-75000J0D01*
G01*
X35902000Y-58043000D01*
G75*
G02*
X35827000Y-57968000I0J75000D01*
G01*
X35827000Y-56643000D01*
G75*
G02*
X35902000Y-56568000I75000J0D01*
G01*
X36052000Y-56568000D01*
G75*
G02*
X36127000Y-56643000I0J-75000D01*
G01*
G37*
G36*
G01*
X36627000Y-56643000D02*
X36627000Y-57968000D01*
G75*
G02*
X36552000Y-58043000I-75000J0D01*
G01*
X36402000Y-58043000D01*
G75*
G02*
X36327000Y-57968000I0J75000D01*
G01*
X36327000Y-56643000D01*
G75*
G02*
X36402000Y-56568000I75000J0D01*
G01*
X36552000Y-56568000D01*
G75*
G02*
X36627000Y-56643000I0J-75000D01*
G01*
G37*
G36*
G01*
X37127000Y-56643000D02*
X37127000Y-57968000D01*
G75*
G02*
X37052000Y-58043000I-75000J0D01*
G01*
X36902000Y-58043000D01*
G75*
G02*
X36827000Y-57968000I0J75000D01*
G01*
X36827000Y-56643000D01*
G75*
G02*
X36902000Y-56568000I75000J0D01*
G01*
X37052000Y-56568000D01*
G75*
G02*
X37127000Y-56643000I0J-75000D01*
G01*
G37*
G36*
G01*
X37627000Y-56643000D02*
X37627000Y-57968000D01*
G75*
G02*
X37552000Y-58043000I-75000J0D01*
G01*
X37402000Y-58043000D01*
G75*
G02*
X37327000Y-57968000I0J75000D01*
G01*
X37327000Y-56643000D01*
G75*
G02*
X37402000Y-56568000I75000J0D01*
G01*
X37552000Y-56568000D01*
G75*
G02*
X37627000Y-56643000I0J-75000D01*
G01*
G37*
G36*
G01*
X38127000Y-56643000D02*
X38127000Y-57968000D01*
G75*
G02*
X38052000Y-58043000I-75000J0D01*
G01*
X37902000Y-58043000D01*
G75*
G02*
X37827000Y-57968000I0J75000D01*
G01*
X37827000Y-56643000D01*
G75*
G02*
X37902000Y-56568000I75000J0D01*
G01*
X38052000Y-56568000D01*
G75*
G02*
X38127000Y-56643000I0J-75000D01*
G01*
G37*
G36*
G01*
X38627000Y-56643000D02*
X38627000Y-57968000D01*
G75*
G02*
X38552000Y-58043000I-75000J0D01*
G01*
X38402000Y-58043000D01*
G75*
G02*
X38327000Y-57968000I0J75000D01*
G01*
X38327000Y-56643000D01*
G75*
G02*
X38402000Y-56568000I75000J0D01*
G01*
X38552000Y-56568000D01*
G75*
G02*
X38627000Y-56643000I0J-75000D01*
G01*
G37*
G36*
G01*
X39127000Y-56643000D02*
X39127000Y-57968000D01*
G75*
G02*
X39052000Y-58043000I-75000J0D01*
G01*
X38902000Y-58043000D01*
G75*
G02*
X38827000Y-57968000I0J75000D01*
G01*
X38827000Y-56643000D01*
G75*
G02*
X38902000Y-56568000I75000J0D01*
G01*
X39052000Y-56568000D01*
G75*
G02*
X39127000Y-56643000I0J-75000D01*
G01*
G37*
G36*
G01*
X39627000Y-56643000D02*
X39627000Y-57968000D01*
G75*
G02*
X39552000Y-58043000I-75000J0D01*
G01*
X39402000Y-58043000D01*
G75*
G02*
X39327000Y-57968000I0J75000D01*
G01*
X39327000Y-56643000D01*
G75*
G02*
X39402000Y-56568000I75000J0D01*
G01*
X39552000Y-56568000D01*
G75*
G02*
X39627000Y-56643000I0J-75000D01*
G01*
G37*
G36*
G01*
X40127000Y-56643000D02*
X40127000Y-57968000D01*
G75*
G02*
X40052000Y-58043000I-75000J0D01*
G01*
X39902000Y-58043000D01*
G75*
G02*
X39827000Y-57968000I0J75000D01*
G01*
X39827000Y-56643000D01*
G75*
G02*
X39902000Y-56568000I75000J0D01*
G01*
X40052000Y-56568000D01*
G75*
G02*
X40127000Y-56643000I0J-75000D01*
G01*
G37*
G36*
G01*
X40627000Y-56643000D02*
X40627000Y-57968000D01*
G75*
G02*
X40552000Y-58043000I-75000J0D01*
G01*
X40402000Y-58043000D01*
G75*
G02*
X40327000Y-57968000I0J75000D01*
G01*
X40327000Y-56643000D01*
G75*
G02*
X40402000Y-56568000I75000J0D01*
G01*
X40552000Y-56568000D01*
G75*
G02*
X40627000Y-56643000I0J-75000D01*
G01*
G37*
G36*
G01*
X41127000Y-56643000D02*
X41127000Y-57968000D01*
G75*
G02*
X41052000Y-58043000I-75000J0D01*
G01*
X40902000Y-58043000D01*
G75*
G02*
X40827000Y-57968000I0J75000D01*
G01*
X40827000Y-56643000D01*
G75*
G02*
X40902000Y-56568000I75000J0D01*
G01*
X41052000Y-56568000D01*
G75*
G02*
X41127000Y-56643000I0J-75000D01*
G01*
G37*
G36*
G01*
X43127000Y-58643000D02*
X43127000Y-58793000D01*
G75*
G02*
X43052000Y-58868000I-75000J0D01*
G01*
X41727000Y-58868000D01*
G75*
G02*
X41652000Y-58793000I0J75000D01*
G01*
X41652000Y-58643000D01*
G75*
G02*
X41727000Y-58568000I75000J0D01*
G01*
X43052000Y-58568000D01*
G75*
G02*
X43127000Y-58643000I0J-75000D01*
G01*
G37*
G36*
G01*
X43127000Y-59143000D02*
X43127000Y-59293000D01*
G75*
G02*
X43052000Y-59368000I-75000J0D01*
G01*
X41727000Y-59368000D01*
G75*
G02*
X41652000Y-59293000I0J75000D01*
G01*
X41652000Y-59143000D01*
G75*
G02*
X41727000Y-59068000I75000J0D01*
G01*
X43052000Y-59068000D01*
G75*
G02*
X43127000Y-59143000I0J-75000D01*
G01*
G37*
G36*
G01*
X43127000Y-59643000D02*
X43127000Y-59793000D01*
G75*
G02*
X43052000Y-59868000I-75000J0D01*
G01*
X41727000Y-59868000D01*
G75*
G02*
X41652000Y-59793000I0J75000D01*
G01*
X41652000Y-59643000D01*
G75*
G02*
X41727000Y-59568000I75000J0D01*
G01*
X43052000Y-59568000D01*
G75*
G02*
X43127000Y-59643000I0J-75000D01*
G01*
G37*
G36*
G01*
X43127000Y-60143000D02*
X43127000Y-60293000D01*
G75*
G02*
X43052000Y-60368000I-75000J0D01*
G01*
X41727000Y-60368000D01*
G75*
G02*
X41652000Y-60293000I0J75000D01*
G01*
X41652000Y-60143000D01*
G75*
G02*
X41727000Y-60068000I75000J0D01*
G01*
X43052000Y-60068000D01*
G75*
G02*
X43127000Y-60143000I0J-75000D01*
G01*
G37*
G36*
G01*
X43127000Y-60643000D02*
X43127000Y-60793000D01*
G75*
G02*
X43052000Y-60868000I-75000J0D01*
G01*
X41727000Y-60868000D01*
G75*
G02*
X41652000Y-60793000I0J75000D01*
G01*
X41652000Y-60643000D01*
G75*
G02*
X41727000Y-60568000I75000J0D01*
G01*
X43052000Y-60568000D01*
G75*
G02*
X43127000Y-60643000I0J-75000D01*
G01*
G37*
G36*
G01*
X43127000Y-61143000D02*
X43127000Y-61293000D01*
G75*
G02*
X43052000Y-61368000I-75000J0D01*
G01*
X41727000Y-61368000D01*
G75*
G02*
X41652000Y-61293000I0J75000D01*
G01*
X41652000Y-61143000D01*
G75*
G02*
X41727000Y-61068000I75000J0D01*
G01*
X43052000Y-61068000D01*
G75*
G02*
X43127000Y-61143000I0J-75000D01*
G01*
G37*
G36*
G01*
X43127000Y-61643000D02*
X43127000Y-61793000D01*
G75*
G02*
X43052000Y-61868000I-75000J0D01*
G01*
X41727000Y-61868000D01*
G75*
G02*
X41652000Y-61793000I0J75000D01*
G01*
X41652000Y-61643000D01*
G75*
G02*
X41727000Y-61568000I75000J0D01*
G01*
X43052000Y-61568000D01*
G75*
G02*
X43127000Y-61643000I0J-75000D01*
G01*
G37*
G36*
G01*
X43127000Y-62143000D02*
X43127000Y-62293000D01*
G75*
G02*
X43052000Y-62368000I-75000J0D01*
G01*
X41727000Y-62368000D01*
G75*
G02*
X41652000Y-62293000I0J75000D01*
G01*
X41652000Y-62143000D01*
G75*
G02*
X41727000Y-62068000I75000J0D01*
G01*
X43052000Y-62068000D01*
G75*
G02*
X43127000Y-62143000I0J-75000D01*
G01*
G37*
G36*
G01*
X43127000Y-62643000D02*
X43127000Y-62793000D01*
G75*
G02*
X43052000Y-62868000I-75000J0D01*
G01*
X41727000Y-62868000D01*
G75*
G02*
X41652000Y-62793000I0J75000D01*
G01*
X41652000Y-62643000D01*
G75*
G02*
X41727000Y-62568000I75000J0D01*
G01*
X43052000Y-62568000D01*
G75*
G02*
X43127000Y-62643000I0J-75000D01*
G01*
G37*
G36*
G01*
X43127000Y-63143000D02*
X43127000Y-63293000D01*
G75*
G02*
X43052000Y-63368000I-75000J0D01*
G01*
X41727000Y-63368000D01*
G75*
G02*
X41652000Y-63293000I0J75000D01*
G01*
X41652000Y-63143000D01*
G75*
G02*
X41727000Y-63068000I75000J0D01*
G01*
X43052000Y-63068000D01*
G75*
G02*
X43127000Y-63143000I0J-75000D01*
G01*
G37*
G36*
G01*
X43127000Y-63643000D02*
X43127000Y-63793000D01*
G75*
G02*
X43052000Y-63868000I-75000J0D01*
G01*
X41727000Y-63868000D01*
G75*
G02*
X41652000Y-63793000I0J75000D01*
G01*
X41652000Y-63643000D01*
G75*
G02*
X41727000Y-63568000I75000J0D01*
G01*
X43052000Y-63568000D01*
G75*
G02*
X43127000Y-63643000I0J-75000D01*
G01*
G37*
G36*
G01*
X43127000Y-64143000D02*
X43127000Y-64293000D01*
G75*
G02*
X43052000Y-64368000I-75000J0D01*
G01*
X41727000Y-64368000D01*
G75*
G02*
X41652000Y-64293000I0J75000D01*
G01*
X41652000Y-64143000D01*
G75*
G02*
X41727000Y-64068000I75000J0D01*
G01*
X43052000Y-64068000D01*
G75*
G02*
X43127000Y-64143000I0J-75000D01*
G01*
G37*
%TD*%
%TO.C,U1*%
G36*
G01*
X24408000Y-104625000D02*
X24408000Y-104925000D01*
G75*
G02*
X24258000Y-105075000I-150000J0D01*
G01*
X22608000Y-105075000D01*
G75*
G02*
X22458000Y-104925000I0J150000D01*
G01*
X22458000Y-104625000D01*
G75*
G02*
X22608000Y-104475000I150000J0D01*
G01*
X24258000Y-104475000D01*
G75*
G02*
X24408000Y-104625000I0J-150000D01*
G01*
G37*
G36*
G01*
X24408000Y-103355000D02*
X24408000Y-103655000D01*
G75*
G02*
X24258000Y-103805000I-150000J0D01*
G01*
X22608000Y-103805000D01*
G75*
G02*
X22458000Y-103655000I0J150000D01*
G01*
X22458000Y-103355000D01*
G75*
G02*
X22608000Y-103205000I150000J0D01*
G01*
X24258000Y-103205000D01*
G75*
G02*
X24408000Y-103355000I0J-150000D01*
G01*
G37*
G36*
G01*
X24408000Y-102085000D02*
X24408000Y-102385000D01*
G75*
G02*
X24258000Y-102535000I-150000J0D01*
G01*
X22608000Y-102535000D01*
G75*
G02*
X22458000Y-102385000I0J150000D01*
G01*
X22458000Y-102085000D01*
G75*
G02*
X22608000Y-101935000I150000J0D01*
G01*
X24258000Y-101935000D01*
G75*
G02*
X24408000Y-102085000I0J-150000D01*
G01*
G37*
G36*
G01*
X24408000Y-100815000D02*
X24408000Y-101115000D01*
G75*
G02*
X24258000Y-101265000I-150000J0D01*
G01*
X22608000Y-101265000D01*
G75*
G02*
X22458000Y-101115000I0J150000D01*
G01*
X22458000Y-100815000D01*
G75*
G02*
X22608000Y-100665000I150000J0D01*
G01*
X24258000Y-100665000D01*
G75*
G02*
X24408000Y-100815000I0J-150000D01*
G01*
G37*
G36*
G01*
X24408000Y-99545000D02*
X24408000Y-99845000D01*
G75*
G02*
X24258000Y-99995000I-150000J0D01*
G01*
X22608000Y-99995000D01*
G75*
G02*
X22458000Y-99845000I0J150000D01*
G01*
X22458000Y-99545000D01*
G75*
G02*
X22608000Y-99395000I150000J0D01*
G01*
X24258000Y-99395000D01*
G75*
G02*
X24408000Y-99545000I0J-150000D01*
G01*
G37*
G36*
G01*
X24408000Y-98275000D02*
X24408000Y-98575000D01*
G75*
G02*
X24258000Y-98725000I-150000J0D01*
G01*
X22608000Y-98725000D01*
G75*
G02*
X22458000Y-98575000I0J150000D01*
G01*
X22458000Y-98275000D01*
G75*
G02*
X22608000Y-98125000I150000J0D01*
G01*
X24258000Y-98125000D01*
G75*
G02*
X24408000Y-98275000I0J-150000D01*
G01*
G37*
G36*
G01*
X24408000Y-97005000D02*
X24408000Y-97305000D01*
G75*
G02*
X24258000Y-97455000I-150000J0D01*
G01*
X22608000Y-97455000D01*
G75*
G02*
X22458000Y-97305000I0J150000D01*
G01*
X22458000Y-97005000D01*
G75*
G02*
X22608000Y-96855000I150000J0D01*
G01*
X24258000Y-96855000D01*
G75*
G02*
X24408000Y-97005000I0J-150000D01*
G01*
G37*
G36*
G01*
X24408000Y-95735000D02*
X24408000Y-96035000D01*
G75*
G02*
X24258000Y-96185000I-150000J0D01*
G01*
X22608000Y-96185000D01*
G75*
G02*
X22458000Y-96035000I0J150000D01*
G01*
X22458000Y-95735000D01*
G75*
G02*
X22608000Y-95585000I150000J0D01*
G01*
X24258000Y-95585000D01*
G75*
G02*
X24408000Y-95735000I0J-150000D01*
G01*
G37*
G36*
G01*
X29358000Y-95735000D02*
X29358000Y-96035000D01*
G75*
G02*
X29208000Y-96185000I-150000J0D01*
G01*
X27558000Y-96185000D01*
G75*
G02*
X27408000Y-96035000I0J150000D01*
G01*
X27408000Y-95735000D01*
G75*
G02*
X27558000Y-95585000I150000J0D01*
G01*
X29208000Y-95585000D01*
G75*
G02*
X29358000Y-95735000I0J-150000D01*
G01*
G37*
G36*
G01*
X29358000Y-97005000D02*
X29358000Y-97305000D01*
G75*
G02*
X29208000Y-97455000I-150000J0D01*
G01*
X27558000Y-97455000D01*
G75*
G02*
X27408000Y-97305000I0J150000D01*
G01*
X27408000Y-97005000D01*
G75*
G02*
X27558000Y-96855000I150000J0D01*
G01*
X29208000Y-96855000D01*
G75*
G02*
X29358000Y-97005000I0J-150000D01*
G01*
G37*
G36*
G01*
X29358000Y-98275000D02*
X29358000Y-98575000D01*
G75*
G02*
X29208000Y-98725000I-150000J0D01*
G01*
X27558000Y-98725000D01*
G75*
G02*
X27408000Y-98575000I0J150000D01*
G01*
X27408000Y-98275000D01*
G75*
G02*
X27558000Y-98125000I150000J0D01*
G01*
X29208000Y-98125000D01*
G75*
G02*
X29358000Y-98275000I0J-150000D01*
G01*
G37*
G36*
G01*
X29358000Y-99545000D02*
X29358000Y-99845000D01*
G75*
G02*
X29208000Y-99995000I-150000J0D01*
G01*
X27558000Y-99995000D01*
G75*
G02*
X27408000Y-99845000I0J150000D01*
G01*
X27408000Y-99545000D01*
G75*
G02*
X27558000Y-99395000I150000J0D01*
G01*
X29208000Y-99395000D01*
G75*
G02*
X29358000Y-99545000I0J-150000D01*
G01*
G37*
G36*
G01*
X29358000Y-100815000D02*
X29358000Y-101115000D01*
G75*
G02*
X29208000Y-101265000I-150000J0D01*
G01*
X27558000Y-101265000D01*
G75*
G02*
X27408000Y-101115000I0J150000D01*
G01*
X27408000Y-100815000D01*
G75*
G02*
X27558000Y-100665000I150000J0D01*
G01*
X29208000Y-100665000D01*
G75*
G02*
X29358000Y-100815000I0J-150000D01*
G01*
G37*
G36*
G01*
X29358000Y-102085000D02*
X29358000Y-102385000D01*
G75*
G02*
X29208000Y-102535000I-150000J0D01*
G01*
X27558000Y-102535000D01*
G75*
G02*
X27408000Y-102385000I0J150000D01*
G01*
X27408000Y-102085000D01*
G75*
G02*
X27558000Y-101935000I150000J0D01*
G01*
X29208000Y-101935000D01*
G75*
G02*
X29358000Y-102085000I0J-150000D01*
G01*
G37*
G36*
G01*
X29358000Y-103355000D02*
X29358000Y-103655000D01*
G75*
G02*
X29208000Y-103805000I-150000J0D01*
G01*
X27558000Y-103805000D01*
G75*
G02*
X27408000Y-103655000I0J150000D01*
G01*
X27408000Y-103355000D01*
G75*
G02*
X27558000Y-103205000I150000J0D01*
G01*
X29208000Y-103205000D01*
G75*
G02*
X29358000Y-103355000I0J-150000D01*
G01*
G37*
G36*
G01*
X29358000Y-104625000D02*
X29358000Y-104925000D01*
G75*
G02*
X29208000Y-105075000I-150000J0D01*
G01*
X27558000Y-105075000D01*
G75*
G02*
X27408000Y-104925000I0J150000D01*
G01*
X27408000Y-104625000D01*
G75*
G02*
X27558000Y-104475000I150000J0D01*
G01*
X29208000Y-104475000D01*
G75*
G02*
X29358000Y-104625000I0J-150000D01*
G01*
G37*
%TD*%
%TO.C,R9*%
G36*
G01*
X52780250Y-51922500D02*
X51867750Y-51922500D01*
G75*
G02*
X51624000Y-51678750I0J243750D01*
G01*
X51624000Y-51191250D01*
G75*
G02*
X51867750Y-50947500I243750J0D01*
G01*
X52780250Y-50947500D01*
G75*
G02*
X53024000Y-51191250I0J-243750D01*
G01*
X53024000Y-51678750D01*
G75*
G02*
X52780250Y-51922500I-243750J0D01*
G01*
G37*
G36*
G01*
X52780250Y-53797500D02*
X51867750Y-53797500D01*
G75*
G02*
X51624000Y-53553750I0J243750D01*
G01*
X51624000Y-53066250D01*
G75*
G02*
X51867750Y-52822500I243750J0D01*
G01*
X52780250Y-52822500D01*
G75*
G02*
X53024000Y-53066250I0J-243750D01*
G01*
X53024000Y-53553750D01*
G75*
G02*
X52780250Y-53797500I-243750J0D01*
G01*
G37*
%TD*%
%TO.C,R8*%
G36*
G01*
X47361500Y-35508250D02*
X47361500Y-34595750D01*
G75*
G02*
X47605250Y-34352000I243750J0D01*
G01*
X48092750Y-34352000D01*
G75*
G02*
X48336500Y-34595750I0J-243750D01*
G01*
X48336500Y-35508250D01*
G75*
G02*
X48092750Y-35752000I-243750J0D01*
G01*
X47605250Y-35752000D01*
G75*
G02*
X47361500Y-35508250I0J243750D01*
G01*
G37*
G36*
G01*
X45486500Y-35508250D02*
X45486500Y-34595750D01*
G75*
G02*
X45730250Y-34352000I243750J0D01*
G01*
X46217750Y-34352000D01*
G75*
G02*
X46461500Y-34595750I0J-243750D01*
G01*
X46461500Y-35508250D01*
G75*
G02*
X46217750Y-35752000I-243750J0D01*
G01*
X45730250Y-35752000D01*
G75*
G02*
X45486500Y-35508250I0J243750D01*
G01*
G37*
%TD*%
%TO.C,R7*%
G36*
G01*
X30936250Y-83751000D02*
X30023750Y-83751000D01*
G75*
G02*
X29780000Y-83507250I0J243750D01*
G01*
X29780000Y-83019750D01*
G75*
G02*
X30023750Y-82776000I243750J0D01*
G01*
X30936250Y-82776000D01*
G75*
G02*
X31180000Y-83019750I0J-243750D01*
G01*
X31180000Y-83507250D01*
G75*
G02*
X30936250Y-83751000I-243750J0D01*
G01*
G37*
G36*
G01*
X30936250Y-85626000D02*
X30023750Y-85626000D01*
G75*
G02*
X29780000Y-85382250I0J243750D01*
G01*
X29780000Y-84894750D01*
G75*
G02*
X30023750Y-84651000I243750J0D01*
G01*
X30936250Y-84651000D01*
G75*
G02*
X31180000Y-84894750I0J-243750D01*
G01*
X31180000Y-85382250D01*
G75*
G02*
X30936250Y-85626000I-243750J0D01*
G01*
G37*
%TD*%
%TO.C,R4*%
G36*
G01*
X30277750Y-108702500D02*
X31190250Y-108702500D01*
G75*
G02*
X31434000Y-108946250I0J-243750D01*
G01*
X31434000Y-109433750D01*
G75*
G02*
X31190250Y-109677500I-243750J0D01*
G01*
X30277750Y-109677500D01*
G75*
G02*
X30034000Y-109433750I0J243750D01*
G01*
X30034000Y-108946250D01*
G75*
G02*
X30277750Y-108702500I243750J0D01*
G01*
G37*
G36*
G01*
X30277750Y-106827500D02*
X31190250Y-106827500D01*
G75*
G02*
X31434000Y-107071250I0J-243750D01*
G01*
X31434000Y-107558750D01*
G75*
G02*
X31190250Y-107802500I-243750J0D01*
G01*
X30277750Y-107802500D01*
G75*
G02*
X30034000Y-107558750I0J243750D01*
G01*
X30034000Y-107071250D01*
G75*
G02*
X30277750Y-106827500I243750J0D01*
G01*
G37*
%TD*%
%TO.C,R3*%
G36*
G01*
X32436750Y-108702500D02*
X33349250Y-108702500D01*
G75*
G02*
X33593000Y-108946250I0J-243750D01*
G01*
X33593000Y-109433750D01*
G75*
G02*
X33349250Y-109677500I-243750J0D01*
G01*
X32436750Y-109677500D01*
G75*
G02*
X32193000Y-109433750I0J243750D01*
G01*
X32193000Y-108946250D01*
G75*
G02*
X32436750Y-108702500I243750J0D01*
G01*
G37*
G36*
G01*
X32436750Y-106827500D02*
X33349250Y-106827500D01*
G75*
G02*
X33593000Y-107071250I0J-243750D01*
G01*
X33593000Y-107558750D01*
G75*
G02*
X33349250Y-107802500I-243750J0D01*
G01*
X32436750Y-107802500D01*
G75*
G02*
X32193000Y-107558750I0J243750D01*
G01*
X32193000Y-107071250D01*
G75*
G02*
X32436750Y-106827500I243750J0D01*
G01*
G37*
%TD*%
%TO.C,R2*%
G36*
G01*
X29570500Y-68250750D02*
X29570500Y-69163250D01*
G75*
G02*
X29326750Y-69407000I-243750J0D01*
G01*
X28839250Y-69407000D01*
G75*
G02*
X28595500Y-69163250I0J243750D01*
G01*
X28595500Y-68250750D01*
G75*
G02*
X28839250Y-68007000I243750J0D01*
G01*
X29326750Y-68007000D01*
G75*
G02*
X29570500Y-68250750I0J-243750D01*
G01*
G37*
G36*
G01*
X31445500Y-68250750D02*
X31445500Y-69163250D01*
G75*
G02*
X31201750Y-69407000I-243750J0D01*
G01*
X30714250Y-69407000D01*
G75*
G02*
X30470500Y-69163250I0J243750D01*
G01*
X30470500Y-68250750D01*
G75*
G02*
X30714250Y-68007000I243750J0D01*
G01*
X31201750Y-68007000D01*
G75*
G02*
X31445500Y-68250750I0J-243750D01*
G01*
G37*
%TD*%
%TO.C,R1*%
G36*
G01*
X26044500Y-68250750D02*
X26044500Y-69163250D01*
G75*
G02*
X25800750Y-69407000I-243750J0D01*
G01*
X25313250Y-69407000D01*
G75*
G02*
X25069500Y-69163250I0J243750D01*
G01*
X25069500Y-68250750D01*
G75*
G02*
X25313250Y-68007000I243750J0D01*
G01*
X25800750Y-68007000D01*
G75*
G02*
X26044500Y-68250750I0J-243750D01*
G01*
G37*
G36*
G01*
X27919500Y-68250750D02*
X27919500Y-69163250D01*
G75*
G02*
X27675750Y-69407000I-243750J0D01*
G01*
X27188250Y-69407000D01*
G75*
G02*
X26944500Y-69163250I0J243750D01*
G01*
X26944500Y-68250750D01*
G75*
G02*
X27188250Y-68007000I243750J0D01*
G01*
X27675750Y-68007000D01*
G75*
G02*
X27919500Y-68250750I0J-243750D01*
G01*
G37*
%TD*%
%TO.C,L1*%
G36*
G01*
X50859000Y-90287000D02*
X48709000Y-90287000D01*
G75*
G02*
X48459000Y-90037000I0J250000D01*
G01*
X48459000Y-89287000D01*
G75*
G02*
X48709000Y-89037000I250000J0D01*
G01*
X50859000Y-89037000D01*
G75*
G02*
X51109000Y-89287000I0J-250000D01*
G01*
X51109000Y-90037000D01*
G75*
G02*
X50859000Y-90287000I-250000J0D01*
G01*
G37*
G36*
G01*
X50859000Y-87487000D02*
X48709000Y-87487000D01*
G75*
G02*
X48459000Y-87237000I0J250000D01*
G01*
X48459000Y-86487000D01*
G75*
G02*
X48709000Y-86237000I250000J0D01*
G01*
X50859000Y-86237000D01*
G75*
G02*
X51109000Y-86487000I0J-250000D01*
G01*
X51109000Y-87237000D01*
G75*
G02*
X50859000Y-87487000I-250000J0D01*
G01*
G37*
%TD*%
%TO.C,D10*%
G36*
G01*
X30936250Y-80243500D02*
X30023750Y-80243500D01*
G75*
G02*
X29780000Y-79999750I0J243750D01*
G01*
X29780000Y-79512250D01*
G75*
G02*
X30023750Y-79268500I243750J0D01*
G01*
X30936250Y-79268500D01*
G75*
G02*
X31180000Y-79512250I0J-243750D01*
G01*
X31180000Y-79999750D01*
G75*
G02*
X30936250Y-80243500I-243750J0D01*
G01*
G37*
G36*
G01*
X30936250Y-82118500D02*
X30023750Y-82118500D01*
G75*
G02*
X29780000Y-81874750I0J243750D01*
G01*
X29780000Y-81387250D01*
G75*
G02*
X30023750Y-81143500I243750J0D01*
G01*
X30936250Y-81143500D01*
G75*
G02*
X31180000Y-81387250I0J-243750D01*
G01*
X31180000Y-81874750D01*
G75*
G02*
X30936250Y-82118500I-243750J0D01*
G01*
G37*
%TD*%
D19*
%TO.C,D9*%
X52705000Y-79375000D03*
X49405000Y-79375000D03*
%TD*%
%TO.C,D2*%
G36*
G01*
X30277750Y-105146500D02*
X31190250Y-105146500D01*
G75*
G02*
X31434000Y-105390250I0J-243750D01*
G01*
X31434000Y-105877750D01*
G75*
G02*
X31190250Y-106121500I-243750J0D01*
G01*
X30277750Y-106121500D01*
G75*
G02*
X30034000Y-105877750I0J243750D01*
G01*
X30034000Y-105390250D01*
G75*
G02*
X30277750Y-105146500I243750J0D01*
G01*
G37*
G36*
G01*
X30277750Y-103271500D02*
X31190250Y-103271500D01*
G75*
G02*
X31434000Y-103515250I0J-243750D01*
G01*
X31434000Y-104002750D01*
G75*
G02*
X31190250Y-104246500I-243750J0D01*
G01*
X30277750Y-104246500D01*
G75*
G02*
X30034000Y-104002750I0J243750D01*
G01*
X30034000Y-103515250D01*
G75*
G02*
X30277750Y-103271500I243750J0D01*
G01*
G37*
%TD*%
%TO.C,D1*%
G36*
G01*
X32436750Y-105146500D02*
X33349250Y-105146500D01*
G75*
G02*
X33593000Y-105390250I0J-243750D01*
G01*
X33593000Y-105877750D01*
G75*
G02*
X33349250Y-106121500I-243750J0D01*
G01*
X32436750Y-106121500D01*
G75*
G02*
X32193000Y-105877750I0J243750D01*
G01*
X32193000Y-105390250D01*
G75*
G02*
X32436750Y-105146500I243750J0D01*
G01*
G37*
G36*
G01*
X32436750Y-103271500D02*
X33349250Y-103271500D01*
G75*
G02*
X33593000Y-103515250I0J-243750D01*
G01*
X33593000Y-104002750D01*
G75*
G02*
X33349250Y-104246500I-243750J0D01*
G01*
X32436750Y-104246500D01*
G75*
G02*
X32193000Y-104002750I0J243750D01*
G01*
X32193000Y-103515250D01*
G75*
G02*
X32436750Y-103271500I243750J0D01*
G01*
G37*
%TD*%
%TO.C,C46*%
G36*
G01*
X34214750Y-54473500D02*
X35127250Y-54473500D01*
G75*
G02*
X35371000Y-54717250I0J-243750D01*
G01*
X35371000Y-55204750D01*
G75*
G02*
X35127250Y-55448500I-243750J0D01*
G01*
X34214750Y-55448500D01*
G75*
G02*
X33971000Y-55204750I0J243750D01*
G01*
X33971000Y-54717250D01*
G75*
G02*
X34214750Y-54473500I243750J0D01*
G01*
G37*
G36*
G01*
X34214750Y-52598500D02*
X35127250Y-52598500D01*
G75*
G02*
X35371000Y-52842250I0J-243750D01*
G01*
X35371000Y-53329750D01*
G75*
G02*
X35127250Y-53573500I-243750J0D01*
G01*
X34214750Y-53573500D01*
G75*
G02*
X33971000Y-53329750I0J243750D01*
G01*
X33971000Y-52842250D01*
G75*
G02*
X34214750Y-52598500I243750J0D01*
G01*
G37*
%TD*%
%TO.C,C45*%
G36*
G01*
X36246750Y-54473500D02*
X37159250Y-54473500D01*
G75*
G02*
X37403000Y-54717250I0J-243750D01*
G01*
X37403000Y-55204750D01*
G75*
G02*
X37159250Y-55448500I-243750J0D01*
G01*
X36246750Y-55448500D01*
G75*
G02*
X36003000Y-55204750I0J243750D01*
G01*
X36003000Y-54717250D01*
G75*
G02*
X36246750Y-54473500I243750J0D01*
G01*
G37*
G36*
G01*
X36246750Y-52598500D02*
X37159250Y-52598500D01*
G75*
G02*
X37403000Y-52842250I0J-243750D01*
G01*
X37403000Y-53329750D01*
G75*
G02*
X37159250Y-53573500I-243750J0D01*
G01*
X36246750Y-53573500D01*
G75*
G02*
X36003000Y-53329750I0J243750D01*
G01*
X36003000Y-52842250D01*
G75*
G02*
X36246750Y-52598500I243750J0D01*
G01*
G37*
%TD*%
%TO.C,C44*%
G36*
G01*
X30997500Y-54534750D02*
X30997500Y-55447250D01*
G75*
G02*
X30753750Y-55691000I-243750J0D01*
G01*
X30266250Y-55691000D01*
G75*
G02*
X30022500Y-55447250I0J243750D01*
G01*
X30022500Y-54534750D01*
G75*
G02*
X30266250Y-54291000I243750J0D01*
G01*
X30753750Y-54291000D01*
G75*
G02*
X30997500Y-54534750I0J-243750D01*
G01*
G37*
G36*
G01*
X32872500Y-54534750D02*
X32872500Y-55447250D01*
G75*
G02*
X32628750Y-55691000I-243750J0D01*
G01*
X32141250Y-55691000D01*
G75*
G02*
X31897500Y-55447250I0J243750D01*
G01*
X31897500Y-54534750D01*
G75*
G02*
X32141250Y-54291000I243750J0D01*
G01*
X32628750Y-54291000D01*
G75*
G02*
X32872500Y-54534750I0J-243750D01*
G01*
G37*
%TD*%
%TO.C,C43*%
G36*
G01*
X28118750Y-54473500D02*
X29031250Y-54473500D01*
G75*
G02*
X29275000Y-54717250I0J-243750D01*
G01*
X29275000Y-55204750D01*
G75*
G02*
X29031250Y-55448500I-243750J0D01*
G01*
X28118750Y-55448500D01*
G75*
G02*
X27875000Y-55204750I0J243750D01*
G01*
X27875000Y-54717250D01*
G75*
G02*
X28118750Y-54473500I243750J0D01*
G01*
G37*
G36*
G01*
X28118750Y-52598500D02*
X29031250Y-52598500D01*
G75*
G02*
X29275000Y-52842250I0J-243750D01*
G01*
X29275000Y-53329750D01*
G75*
G02*
X29031250Y-53573500I-243750J0D01*
G01*
X28118750Y-53573500D01*
G75*
G02*
X27875000Y-53329750I0J243750D01*
G01*
X27875000Y-52842250D01*
G75*
G02*
X28118750Y-52598500I243750J0D01*
G01*
G37*
%TD*%
%TO.C,C42*%
G36*
G01*
X49859250Y-40141500D02*
X48946750Y-40141500D01*
G75*
G02*
X48703000Y-39897750I0J243750D01*
G01*
X48703000Y-39410250D01*
G75*
G02*
X48946750Y-39166500I243750J0D01*
G01*
X49859250Y-39166500D01*
G75*
G02*
X50103000Y-39410250I0J-243750D01*
G01*
X50103000Y-39897750D01*
G75*
G02*
X49859250Y-40141500I-243750J0D01*
G01*
G37*
G36*
G01*
X49859250Y-42016500D02*
X48946750Y-42016500D01*
G75*
G02*
X48703000Y-41772750I0J243750D01*
G01*
X48703000Y-41285250D01*
G75*
G02*
X48946750Y-41041500I243750J0D01*
G01*
X49859250Y-41041500D01*
G75*
G02*
X50103000Y-41285250I0J-243750D01*
G01*
X50103000Y-41772750D01*
G75*
G02*
X49859250Y-42016500I-243750J0D01*
G01*
G37*
%TD*%
%TO.C,C41*%
G36*
G01*
X28330500Y-41199750D02*
X28330500Y-42112250D01*
G75*
G02*
X28086750Y-42356000I-243750J0D01*
G01*
X27599250Y-42356000D01*
G75*
G02*
X27355500Y-42112250I0J243750D01*
G01*
X27355500Y-41199750D01*
G75*
G02*
X27599250Y-40956000I243750J0D01*
G01*
X28086750Y-40956000D01*
G75*
G02*
X28330500Y-41199750I0J-243750D01*
G01*
G37*
G36*
G01*
X30205500Y-41199750D02*
X30205500Y-42112250D01*
G75*
G02*
X29961750Y-42356000I-243750J0D01*
G01*
X29474250Y-42356000D01*
G75*
G02*
X29230500Y-42112250I0J243750D01*
G01*
X29230500Y-41199750D01*
G75*
G02*
X29474250Y-40956000I243750J0D01*
G01*
X29961750Y-40956000D01*
G75*
G02*
X30205500Y-41199750I0J-243750D01*
G01*
G37*
%TD*%
%TO.C,C40*%
G36*
G01*
X28330500Y-45263750D02*
X28330500Y-46176250D01*
G75*
G02*
X28086750Y-46420000I-243750J0D01*
G01*
X27599250Y-46420000D01*
G75*
G02*
X27355500Y-46176250I0J243750D01*
G01*
X27355500Y-45263750D01*
G75*
G02*
X27599250Y-45020000I243750J0D01*
G01*
X28086750Y-45020000D01*
G75*
G02*
X28330500Y-45263750I0J-243750D01*
G01*
G37*
G36*
G01*
X30205500Y-45263750D02*
X30205500Y-46176250D01*
G75*
G02*
X29961750Y-46420000I-243750J0D01*
G01*
X29474250Y-46420000D01*
G75*
G02*
X29230500Y-46176250I0J243750D01*
G01*
X29230500Y-45263750D01*
G75*
G02*
X29474250Y-45020000I243750J0D01*
G01*
X29961750Y-45020000D01*
G75*
G02*
X30205500Y-45263750I0J-243750D01*
G01*
G37*
%TD*%
%TO.C,C38*%
G36*
G01*
X47827250Y-40141500D02*
X46914750Y-40141500D01*
G75*
G02*
X46671000Y-39897750I0J243750D01*
G01*
X46671000Y-39410250D01*
G75*
G02*
X46914750Y-39166500I243750J0D01*
G01*
X47827250Y-39166500D01*
G75*
G02*
X48071000Y-39410250I0J-243750D01*
G01*
X48071000Y-39897750D01*
G75*
G02*
X47827250Y-40141500I-243750J0D01*
G01*
G37*
G36*
G01*
X47827250Y-42016500D02*
X46914750Y-42016500D01*
G75*
G02*
X46671000Y-41772750I0J243750D01*
G01*
X46671000Y-41285250D01*
G75*
G02*
X46914750Y-41041500I243750J0D01*
G01*
X47827250Y-41041500D01*
G75*
G02*
X48071000Y-41285250I0J-243750D01*
G01*
X48071000Y-41772750D01*
G75*
G02*
X47827250Y-42016500I-243750J0D01*
G01*
G37*
%TD*%
%TO.C,C37*%
G36*
G01*
X30997500Y-48819750D02*
X30997500Y-49732250D01*
G75*
G02*
X30753750Y-49976000I-243750J0D01*
G01*
X30266250Y-49976000D01*
G75*
G02*
X30022500Y-49732250I0J243750D01*
G01*
X30022500Y-48819750D01*
G75*
G02*
X30266250Y-48576000I243750J0D01*
G01*
X30753750Y-48576000D01*
G75*
G02*
X30997500Y-48819750I0J-243750D01*
G01*
G37*
G36*
G01*
X32872500Y-48819750D02*
X32872500Y-49732250D01*
G75*
G02*
X32628750Y-49976000I-243750J0D01*
G01*
X32141250Y-49976000D01*
G75*
G02*
X31897500Y-49732250I0J243750D01*
G01*
X31897500Y-48819750D01*
G75*
G02*
X32141250Y-48576000I243750J0D01*
G01*
X32628750Y-48576000D01*
G75*
G02*
X32872500Y-48819750I0J-243750D01*
G01*
G37*
%TD*%
%TO.C,C32*%
G36*
G01*
X53899750Y-52822500D02*
X54812250Y-52822500D01*
G75*
G02*
X55056000Y-53066250I0J-243750D01*
G01*
X55056000Y-53553750D01*
G75*
G02*
X54812250Y-53797500I-243750J0D01*
G01*
X53899750Y-53797500D01*
G75*
G02*
X53656000Y-53553750I0J243750D01*
G01*
X53656000Y-53066250D01*
G75*
G02*
X53899750Y-52822500I243750J0D01*
G01*
G37*
G36*
G01*
X53899750Y-50947500D02*
X54812250Y-50947500D01*
G75*
G02*
X55056000Y-51191250I0J-243750D01*
G01*
X55056000Y-51678750D01*
G75*
G02*
X54812250Y-51922500I-243750J0D01*
G01*
X53899750Y-51922500D01*
G75*
G02*
X53656000Y-51678750I0J243750D01*
G01*
X53656000Y-51191250D01*
G75*
G02*
X53899750Y-50947500I243750J0D01*
G01*
G37*
%TD*%
%TO.C,C29*%
G36*
G01*
X48504500Y-43763250D02*
X48504500Y-42850750D01*
G75*
G02*
X48748250Y-42607000I243750J0D01*
G01*
X49235750Y-42607000D01*
G75*
G02*
X49479500Y-42850750I0J-243750D01*
G01*
X49479500Y-43763250D01*
G75*
G02*
X49235750Y-44007000I-243750J0D01*
G01*
X48748250Y-44007000D01*
G75*
G02*
X48504500Y-43763250I0J243750D01*
G01*
G37*
G36*
G01*
X46629500Y-43763250D02*
X46629500Y-42850750D01*
G75*
G02*
X46873250Y-42607000I243750J0D01*
G01*
X47360750Y-42607000D01*
G75*
G02*
X47604500Y-42850750I0J-243750D01*
G01*
X47604500Y-43763250D01*
G75*
G02*
X47360750Y-44007000I-243750J0D01*
G01*
X46873250Y-44007000D01*
G75*
G02*
X46629500Y-43763250I0J243750D01*
G01*
G37*
%TD*%
%TO.C,C27*%
G36*
G01*
X47361500Y-46684250D02*
X47361500Y-45771750D01*
G75*
G02*
X47605250Y-45528000I243750J0D01*
G01*
X48092750Y-45528000D01*
G75*
G02*
X48336500Y-45771750I0J-243750D01*
G01*
X48336500Y-46684250D01*
G75*
G02*
X48092750Y-46928000I-243750J0D01*
G01*
X47605250Y-46928000D01*
G75*
G02*
X47361500Y-46684250I0J243750D01*
G01*
G37*
G36*
G01*
X45486500Y-46684250D02*
X45486500Y-45771750D01*
G75*
G02*
X45730250Y-45528000I243750J0D01*
G01*
X46217750Y-45528000D01*
G75*
G02*
X46461500Y-45771750I0J-243750D01*
G01*
X46461500Y-46684250D01*
G75*
G02*
X46217750Y-46928000I-243750J0D01*
G01*
X45730250Y-46928000D01*
G75*
G02*
X45486500Y-46684250I0J243750D01*
G01*
G37*
%TD*%
%TO.C,C26*%
G36*
G01*
X55931750Y-52822500D02*
X56844250Y-52822500D01*
G75*
G02*
X57088000Y-53066250I0J-243750D01*
G01*
X57088000Y-53553750D01*
G75*
G02*
X56844250Y-53797500I-243750J0D01*
G01*
X55931750Y-53797500D01*
G75*
G02*
X55688000Y-53553750I0J243750D01*
G01*
X55688000Y-53066250D01*
G75*
G02*
X55931750Y-52822500I243750J0D01*
G01*
G37*
G36*
G01*
X55931750Y-50947500D02*
X56844250Y-50947500D01*
G75*
G02*
X57088000Y-51191250I0J-243750D01*
G01*
X57088000Y-51678750D01*
G75*
G02*
X56844250Y-51922500I-243750J0D01*
G01*
X55931750Y-51922500D01*
G75*
G02*
X55688000Y-51678750I0J243750D01*
G01*
X55688000Y-51191250D01*
G75*
G02*
X55931750Y-50947500I243750J0D01*
G01*
G37*
%TD*%
%TO.C,C25*%
G36*
G01*
X23945000Y-51510250D02*
X23945000Y-50597750D01*
G75*
G02*
X24188750Y-50354000I243750J0D01*
G01*
X24676250Y-50354000D01*
G75*
G02*
X24920000Y-50597750I0J-243750D01*
G01*
X24920000Y-51510250D01*
G75*
G02*
X24676250Y-51754000I-243750J0D01*
G01*
X24188750Y-51754000D01*
G75*
G02*
X23945000Y-51510250I0J243750D01*
G01*
G37*
G36*
G01*
X22070000Y-51510250D02*
X22070000Y-50597750D01*
G75*
G02*
X22313750Y-50354000I243750J0D01*
G01*
X22801250Y-50354000D01*
G75*
G02*
X23045000Y-50597750I0J-243750D01*
G01*
X23045000Y-51510250D01*
G75*
G02*
X22801250Y-51754000I-243750J0D01*
G01*
X22313750Y-51754000D01*
G75*
G02*
X22070000Y-51510250I0J243750D01*
G01*
G37*
%TD*%
%TO.C,C24*%
G36*
G01*
X26872250Y-53603500D02*
X25959750Y-53603500D01*
G75*
G02*
X25716000Y-53359750I0J243750D01*
G01*
X25716000Y-52872250D01*
G75*
G02*
X25959750Y-52628500I243750J0D01*
G01*
X26872250Y-52628500D01*
G75*
G02*
X27116000Y-52872250I0J-243750D01*
G01*
X27116000Y-53359750D01*
G75*
G02*
X26872250Y-53603500I-243750J0D01*
G01*
G37*
G36*
G01*
X26872250Y-55478500D02*
X25959750Y-55478500D01*
G75*
G02*
X25716000Y-55234750I0J243750D01*
G01*
X25716000Y-54747250D01*
G75*
G02*
X25959750Y-54503500I243750J0D01*
G01*
X26872250Y-54503500D01*
G75*
G02*
X27116000Y-54747250I0J-243750D01*
G01*
X27116000Y-55234750D01*
G75*
G02*
X26872250Y-55478500I-243750J0D01*
G01*
G37*
%TD*%
%TO.C,C23*%
G36*
G01*
X46461500Y-36627750D02*
X46461500Y-37540250D01*
G75*
G02*
X46217750Y-37784000I-243750J0D01*
G01*
X45730250Y-37784000D01*
G75*
G02*
X45486500Y-37540250I0J243750D01*
G01*
X45486500Y-36627750D01*
G75*
G02*
X45730250Y-36384000I243750J0D01*
G01*
X46217750Y-36384000D01*
G75*
G02*
X46461500Y-36627750I0J-243750D01*
G01*
G37*
G36*
G01*
X48336500Y-36627750D02*
X48336500Y-37540250D01*
G75*
G02*
X48092750Y-37784000I-243750J0D01*
G01*
X47605250Y-37784000D01*
G75*
G02*
X47361500Y-37540250I0J243750D01*
G01*
X47361500Y-36627750D01*
G75*
G02*
X47605250Y-36384000I243750J0D01*
G01*
X48092750Y-36384000D01*
G75*
G02*
X48336500Y-36627750I0J-243750D01*
G01*
G37*
%TD*%
%TO.C,C22*%
G36*
G01*
X45771750Y-52695500D02*
X46684250Y-52695500D01*
G75*
G02*
X46928000Y-52939250I0J-243750D01*
G01*
X46928000Y-53426750D01*
G75*
G02*
X46684250Y-53670500I-243750J0D01*
G01*
X45771750Y-53670500D01*
G75*
G02*
X45528000Y-53426750I0J243750D01*
G01*
X45528000Y-52939250D01*
G75*
G02*
X45771750Y-52695500I243750J0D01*
G01*
G37*
G36*
G01*
X45771750Y-50820500D02*
X46684250Y-50820500D01*
G75*
G02*
X46928000Y-51064250I0J-243750D01*
G01*
X46928000Y-51551750D01*
G75*
G02*
X46684250Y-51795500I-243750J0D01*
G01*
X45771750Y-51795500D01*
G75*
G02*
X45528000Y-51551750I0J243750D01*
G01*
X45528000Y-51064250D01*
G75*
G02*
X45771750Y-50820500I243750J0D01*
G01*
G37*
%TD*%
%TO.C,C21*%
G36*
G01*
X43739750Y-52695500D02*
X44652250Y-52695500D01*
G75*
G02*
X44896000Y-52939250I0J-243750D01*
G01*
X44896000Y-53426750D01*
G75*
G02*
X44652250Y-53670500I-243750J0D01*
G01*
X43739750Y-53670500D01*
G75*
G02*
X43496000Y-53426750I0J243750D01*
G01*
X43496000Y-52939250D01*
G75*
G02*
X43739750Y-52695500I243750J0D01*
G01*
G37*
G36*
G01*
X43739750Y-50820500D02*
X44652250Y-50820500D01*
G75*
G02*
X44896000Y-51064250I0J-243750D01*
G01*
X44896000Y-51551750D01*
G75*
G02*
X44652250Y-51795500I-243750J0D01*
G01*
X43739750Y-51795500D01*
G75*
G02*
X43496000Y-51551750I0J243750D01*
G01*
X43496000Y-51064250D01*
G75*
G02*
X43739750Y-50820500I243750J0D01*
G01*
G37*
%TD*%
%TO.C,C19*%
G36*
G01*
X29134750Y-39312000D02*
X30047250Y-39312000D01*
G75*
G02*
X30291000Y-39555750I0J-243750D01*
G01*
X30291000Y-40043250D01*
G75*
G02*
X30047250Y-40287000I-243750J0D01*
G01*
X29134750Y-40287000D01*
G75*
G02*
X28891000Y-40043250I0J243750D01*
G01*
X28891000Y-39555750D01*
G75*
G02*
X29134750Y-39312000I243750J0D01*
G01*
G37*
G36*
G01*
X29134750Y-37437000D02*
X30047250Y-37437000D01*
G75*
G02*
X30291000Y-37680750I0J-243750D01*
G01*
X30291000Y-38168250D01*
G75*
G02*
X30047250Y-38412000I-243750J0D01*
G01*
X29134750Y-38412000D01*
G75*
G02*
X28891000Y-38168250I0J243750D01*
G01*
X28891000Y-37680750D01*
G75*
G02*
X29134750Y-37437000I243750J0D01*
G01*
G37*
%TD*%
%TO.C,C18*%
G36*
G01*
X27102750Y-39312000D02*
X28015250Y-39312000D01*
G75*
G02*
X28259000Y-39555750I0J-243750D01*
G01*
X28259000Y-40043250D01*
G75*
G02*
X28015250Y-40287000I-243750J0D01*
G01*
X27102750Y-40287000D01*
G75*
G02*
X26859000Y-40043250I0J243750D01*
G01*
X26859000Y-39555750D01*
G75*
G02*
X27102750Y-39312000I243750J0D01*
G01*
G37*
G36*
G01*
X27102750Y-37437000D02*
X28015250Y-37437000D01*
G75*
G02*
X28259000Y-37680750I0J-243750D01*
G01*
X28259000Y-38168250D01*
G75*
G02*
X28015250Y-38412000I-243750J0D01*
G01*
X27102750Y-38412000D01*
G75*
G02*
X26859000Y-38168250I0J243750D01*
G01*
X26859000Y-37680750D01*
G75*
G02*
X27102750Y-37437000I243750J0D01*
G01*
G37*
%TD*%
%TO.C,C16*%
G36*
G01*
X40437750Y-82794500D02*
X41350250Y-82794500D01*
G75*
G02*
X41594000Y-83038250I0J-243750D01*
G01*
X41594000Y-83525750D01*
G75*
G02*
X41350250Y-83769500I-243750J0D01*
G01*
X40437750Y-83769500D01*
G75*
G02*
X40194000Y-83525750I0J243750D01*
G01*
X40194000Y-83038250D01*
G75*
G02*
X40437750Y-82794500I243750J0D01*
G01*
G37*
G36*
G01*
X40437750Y-80919500D02*
X41350250Y-80919500D01*
G75*
G02*
X41594000Y-81163250I0J-243750D01*
G01*
X41594000Y-81650750D01*
G75*
G02*
X41350250Y-81894500I-243750J0D01*
G01*
X40437750Y-81894500D01*
G75*
G02*
X40194000Y-81650750I0J243750D01*
G01*
X40194000Y-81163250D01*
G75*
G02*
X40437750Y-80919500I243750J0D01*
G01*
G37*
%TD*%
%TO.C,C15*%
G36*
G01*
X52282000Y-62905000D02*
X53382000Y-62905000D01*
G75*
G02*
X53632000Y-63155000I0J-250000D01*
G01*
X53632000Y-66155000D01*
G75*
G02*
X53382000Y-66405000I-250000J0D01*
G01*
X52282000Y-66405000D01*
G75*
G02*
X52032000Y-66155000I0J250000D01*
G01*
X52032000Y-63155000D01*
G75*
G02*
X52282000Y-62905000I250000J0D01*
G01*
G37*
G36*
G01*
X52282000Y-57305000D02*
X53382000Y-57305000D01*
G75*
G02*
X53632000Y-57555000I0J-250000D01*
G01*
X53632000Y-60555000D01*
G75*
G02*
X53382000Y-60805000I-250000J0D01*
G01*
X52282000Y-60805000D01*
G75*
G02*
X52032000Y-60555000I0J250000D01*
G01*
X52032000Y-57555000D01*
G75*
G02*
X52282000Y-57305000I250000J0D01*
G01*
G37*
%TD*%
%TO.C,C10*%
G36*
G01*
X50240250Y-55762500D02*
X49327750Y-55762500D01*
G75*
G02*
X49084000Y-55518750I0J243750D01*
G01*
X49084000Y-55031250D01*
G75*
G02*
X49327750Y-54787500I243750J0D01*
G01*
X50240250Y-54787500D01*
G75*
G02*
X50484000Y-55031250I0J-243750D01*
G01*
X50484000Y-55518750D01*
G75*
G02*
X50240250Y-55762500I-243750J0D01*
G01*
G37*
G36*
G01*
X50240250Y-57637500D02*
X49327750Y-57637500D01*
G75*
G02*
X49084000Y-57393750I0J243750D01*
G01*
X49084000Y-56906250D01*
G75*
G02*
X49327750Y-56662500I243750J0D01*
G01*
X50240250Y-56662500D01*
G75*
G02*
X50484000Y-56906250I0J-243750D01*
G01*
X50484000Y-57393750D01*
G75*
G02*
X50240250Y-57637500I-243750J0D01*
G01*
G37*
%TD*%
%TO.C,C9*%
G36*
G01*
X38471500Y-88975250D02*
X38471500Y-88062750D01*
G75*
G02*
X38715250Y-87819000I243750J0D01*
G01*
X39202750Y-87819000D01*
G75*
G02*
X39446500Y-88062750I0J-243750D01*
G01*
X39446500Y-88975250D01*
G75*
G02*
X39202750Y-89219000I-243750J0D01*
G01*
X38715250Y-89219000D01*
G75*
G02*
X38471500Y-88975250I0J243750D01*
G01*
G37*
G36*
G01*
X36596500Y-88975250D02*
X36596500Y-88062750D01*
G75*
G02*
X36840250Y-87819000I243750J0D01*
G01*
X37327750Y-87819000D01*
G75*
G02*
X37571500Y-88062750I0J-243750D01*
G01*
X37571500Y-88975250D01*
G75*
G02*
X37327750Y-89219000I-243750J0D01*
G01*
X36840250Y-89219000D01*
G75*
G02*
X36596500Y-88975250I0J243750D01*
G01*
G37*
%TD*%
%TO.C,C8*%
G36*
G01*
X49581750Y-67838500D02*
X50494250Y-67838500D01*
G75*
G02*
X50738000Y-68082250I0J-243750D01*
G01*
X50738000Y-68569750D01*
G75*
G02*
X50494250Y-68813500I-243750J0D01*
G01*
X49581750Y-68813500D01*
G75*
G02*
X49338000Y-68569750I0J243750D01*
G01*
X49338000Y-68082250D01*
G75*
G02*
X49581750Y-67838500I243750J0D01*
G01*
G37*
G36*
G01*
X49581750Y-65963500D02*
X50494250Y-65963500D01*
G75*
G02*
X50738000Y-66207250I0J-243750D01*
G01*
X50738000Y-66694750D01*
G75*
G02*
X50494250Y-66938500I-243750J0D01*
G01*
X49581750Y-66938500D01*
G75*
G02*
X49338000Y-66694750I0J243750D01*
G01*
X49338000Y-66207250D01*
G75*
G02*
X49581750Y-65963500I243750J0D01*
G01*
G37*
%TD*%
%TO.C,C7*%
G36*
G01*
X38471500Y-98627250D02*
X38471500Y-97714750D01*
G75*
G02*
X38715250Y-97471000I243750J0D01*
G01*
X39202750Y-97471000D01*
G75*
G02*
X39446500Y-97714750I0J-243750D01*
G01*
X39446500Y-98627250D01*
G75*
G02*
X39202750Y-98871000I-243750J0D01*
G01*
X38715250Y-98871000D01*
G75*
G02*
X38471500Y-98627250I0J243750D01*
G01*
G37*
G36*
G01*
X36596500Y-98627250D02*
X36596500Y-97714750D01*
G75*
G02*
X36840250Y-97471000I243750J0D01*
G01*
X37327750Y-97471000D01*
G75*
G02*
X37571500Y-97714750I0J-243750D01*
G01*
X37571500Y-98627250D01*
G75*
G02*
X37327750Y-98871000I-243750J0D01*
G01*
X36840250Y-98871000D01*
G75*
G02*
X36596500Y-98627250I0J243750D01*
G01*
G37*
%TD*%
%TO.C,C5*%
G36*
G01*
X31994500Y-100913250D02*
X31994500Y-100000750D01*
G75*
G02*
X32238250Y-99757000I243750J0D01*
G01*
X32725750Y-99757000D01*
G75*
G02*
X32969500Y-100000750I0J-243750D01*
G01*
X32969500Y-100913250D01*
G75*
G02*
X32725750Y-101157000I-243750J0D01*
G01*
X32238250Y-101157000D01*
G75*
G02*
X31994500Y-100913250I0J243750D01*
G01*
G37*
G36*
G01*
X30119500Y-100913250D02*
X30119500Y-100000750D01*
G75*
G02*
X30363250Y-99757000I243750J0D01*
G01*
X30850750Y-99757000D01*
G75*
G02*
X31094500Y-100000750I0J-243750D01*
G01*
X31094500Y-100913250D01*
G75*
G02*
X30850750Y-101157000I-243750J0D01*
G01*
X30363250Y-101157000D01*
G75*
G02*
X30119500Y-100913250I0J243750D01*
G01*
G37*
%TD*%
%TO.C,C4*%
G36*
G01*
X24658500Y-89102250D02*
X24658500Y-88189750D01*
G75*
G02*
X24902250Y-87946000I243750J0D01*
G01*
X25389750Y-87946000D01*
G75*
G02*
X25633500Y-88189750I0J-243750D01*
G01*
X25633500Y-89102250D01*
G75*
G02*
X25389750Y-89346000I-243750J0D01*
G01*
X24902250Y-89346000D01*
G75*
G02*
X24658500Y-89102250I0J243750D01*
G01*
G37*
G36*
G01*
X22783500Y-89102250D02*
X22783500Y-88189750D01*
G75*
G02*
X23027250Y-87946000I243750J0D01*
G01*
X23514750Y-87946000D01*
G75*
G02*
X23758500Y-88189750I0J-243750D01*
G01*
X23758500Y-89102250D01*
G75*
G02*
X23514750Y-89346000I-243750J0D01*
G01*
X23027250Y-89346000D01*
G75*
G02*
X22783500Y-89102250I0J243750D01*
G01*
G37*
%TD*%
%TO.C,C2*%
G36*
G01*
X30362500Y-88189750D02*
X30362500Y-89102250D01*
G75*
G02*
X30118750Y-89346000I-243750J0D01*
G01*
X29631250Y-89346000D01*
G75*
G02*
X29387500Y-89102250I0J243750D01*
G01*
X29387500Y-88189750D01*
G75*
G02*
X29631250Y-87946000I243750J0D01*
G01*
X30118750Y-87946000D01*
G75*
G02*
X30362500Y-88189750I0J-243750D01*
G01*
G37*
G36*
G01*
X32237500Y-88189750D02*
X32237500Y-89102250D01*
G75*
G02*
X31993750Y-89346000I-243750J0D01*
G01*
X31506250Y-89346000D01*
G75*
G02*
X31262500Y-89102250I0J243750D01*
G01*
X31262500Y-88189750D01*
G75*
G02*
X31506250Y-87946000I243750J0D01*
G01*
X31993750Y-87946000D01*
G75*
G02*
X32237500Y-88189750I0J-243750D01*
G01*
G37*
%TD*%
%TO.C,C1*%
G36*
G01*
X26436500Y-107136250D02*
X26436500Y-106223750D01*
G75*
G02*
X26680250Y-105980000I243750J0D01*
G01*
X27167750Y-105980000D01*
G75*
G02*
X27411500Y-106223750I0J-243750D01*
G01*
X27411500Y-107136250D01*
G75*
G02*
X27167750Y-107380000I-243750J0D01*
G01*
X26680250Y-107380000D01*
G75*
G02*
X26436500Y-107136250I0J243750D01*
G01*
G37*
G36*
G01*
X24561500Y-107136250D02*
X24561500Y-106223750D01*
G75*
G02*
X24805250Y-105980000I243750J0D01*
G01*
X25292750Y-105980000D01*
G75*
G02*
X25536500Y-106223750I0J-243750D01*
G01*
X25536500Y-107136250D01*
G75*
G02*
X25292750Y-107380000I-243750J0D01*
G01*
X24805250Y-107380000D01*
G75*
G02*
X24561500Y-107136250I0J243750D01*
G01*
G37*
%TD*%
M02*
