%TF.GenerationSoftware,KiCad,Pcbnew,5.1.6-c6e7f7d~86~ubuntu19.10.1*%
%TF.CreationDate,2020-05-21T12:21:41+02:00*%
%TF.ProjectId,BioElectricalSensor,42696f45-6c65-4637-9472-6963616c5365,rev?*%
%TF.SameCoordinates,Original*%
%TF.FileFunction,Legend,Bot*%
%TF.FilePolarity,Positive*%
%FSLAX46Y46*%
G04 Gerber Fmt 4.6, Leading zero omitted, Abs format (unit mm)*
G04 Created by KiCad (PCBNEW 5.1.6-c6e7f7d~86~ubuntu19.10.1) date 2020-05-21 12:21:41*
%MOMM*%
%LPD*%
G01*
G04 APERTURE LIST*
%ADD10C,0.120000*%
%ADD11C,0.100000*%
%ADD12C,0.200000*%
%ADD13C,0.150000*%
%ADD14C,0.254000*%
G04 APERTURE END LIST*
D10*
%TO.C,C33*%
X35857922Y-45160000D02*
X36375078Y-45160000D01*
X35857922Y-43740000D02*
X36375078Y-43740000D01*
%TO.C,R11*%
X41739078Y-109676000D02*
X41221922Y-109676000D01*
X41739078Y-108256000D02*
X41221922Y-108256000D01*
%TO.C,R10*%
X37284922Y-108256000D02*
X37802078Y-108256000D01*
X37284922Y-109676000D02*
X37802078Y-109676000D01*
%TO.C,CN3*%
X40091000Y-32896000D02*
X40091000Y-31896000D01*
X36731000Y-32896000D02*
X36731000Y-31896000D01*
%TO.C,CN2*%
X45425000Y-32896000D02*
X45425000Y-31896000D01*
X42065000Y-32896000D02*
X42065000Y-31896000D01*
%TO.C,U12*%
X35125000Y-26264000D02*
X36925000Y-26264000D01*
X36925000Y-29484000D02*
X34475000Y-29484000D01*
%TO.C,U7*%
X45285000Y-26264000D02*
X47085000Y-26264000D01*
X47085000Y-29484000D02*
X44635000Y-29484000D01*
%TO.C,U14*%
X50365000Y-26264000D02*
X52165000Y-26264000D01*
X52165000Y-29484000D02*
X49715000Y-29484000D01*
%TO.C,U16*%
X25305000Y-26264000D02*
X27105000Y-26264000D01*
X27105000Y-29484000D02*
X24655000Y-29484000D01*
%TO.C,U13*%
X30172000Y-26264000D02*
X31972000Y-26264000D01*
X31972000Y-29484000D02*
X29522000Y-29484000D01*
%TO.C,U9*%
X40205000Y-26264000D02*
X42005000Y-26264000D01*
X42005000Y-29484000D02*
X39555000Y-29484000D01*
%TO.C,C47*%
X42491922Y-35889000D02*
X43009078Y-35889000D01*
X42491922Y-34469000D02*
X43009078Y-34469000D01*
%TO.C,U3*%
X40397000Y-107716000D02*
X38597000Y-107716000D01*
X38597000Y-104496000D02*
X41047000Y-104496000D01*
%TO.C,R6*%
X41962000Y-62527922D02*
X41962000Y-63045078D01*
X43382000Y-62527922D02*
X43382000Y-63045078D01*
D11*
%TO.C,J5*%
X45253000Y-63268000D02*
X45253000Y-65518000D01*
X45253000Y-65518000D02*
X45253000Y-65518000D01*
X45253000Y-65518000D02*
X45253000Y-63268000D01*
X45253000Y-63268000D02*
X45253000Y-63268000D01*
X47253000Y-67443000D02*
X47253000Y-67443000D01*
X47253000Y-67443000D02*
X53503000Y-67443000D01*
X53503000Y-67443000D02*
X53503000Y-67443000D01*
X53503000Y-67443000D02*
X47253000Y-67443000D01*
X57003000Y-67443000D02*
X57003000Y-67443000D01*
X57003000Y-67443000D02*
X59753000Y-67443000D01*
X59753000Y-67443000D02*
X59753000Y-67443000D01*
X59753000Y-67443000D02*
X57003000Y-67443000D01*
X59753000Y-67443000D02*
X59753000Y-52693000D01*
X59753000Y-52693000D02*
X59753000Y-52693000D01*
X59753000Y-52693000D02*
X59753000Y-67443000D01*
X59753000Y-67443000D02*
X59753000Y-67443000D01*
X59753000Y-52693000D02*
X59753000Y-52693000D01*
X59753000Y-52693000D02*
X57003000Y-52693000D01*
X57003000Y-52693000D02*
X57003000Y-52693000D01*
X57003000Y-52693000D02*
X59753000Y-52693000D01*
X53753000Y-52693000D02*
X53753000Y-52693000D01*
X53753000Y-52693000D02*
X47253000Y-52693000D01*
X47253000Y-52693000D02*
X47253000Y-52693000D01*
X47253000Y-52693000D02*
X53753000Y-52693000D01*
D12*
X43103000Y-62268000D02*
X43103000Y-62268000D01*
X43103000Y-62368000D02*
X43103000Y-62368000D01*
X43103000Y-62268000D02*
X43103000Y-62268000D01*
X43103000Y-62368000D02*
G75*
G03*
X43103000Y-62268000I0J50000D01*
G01*
X43103000Y-62268000D02*
G75*
G03*
X43103000Y-62368000I0J-50000D01*
G01*
X43103000Y-62368000D02*
G75*
G03*
X43103000Y-62268000I0J50000D01*
G01*
D10*
%TO.C,CN5*%
X29042000Y-32896000D02*
X29042000Y-31896000D01*
X25682000Y-32896000D02*
X25682000Y-31896000D01*
%TO.C,CN4*%
X35011000Y-32896000D02*
X35011000Y-31896000D01*
X31651000Y-32896000D02*
X31651000Y-31896000D01*
%TO.C,CN1*%
X50251000Y-32896000D02*
X50251000Y-31896000D01*
X46891000Y-32896000D02*
X46891000Y-31896000D01*
%TO.C,C36*%
X36120000Y-41445922D02*
X36120000Y-41963078D01*
X37540000Y-41445922D02*
X37540000Y-41963078D01*
%TO.C,C35*%
X40311000Y-39286922D02*
X40311000Y-39804078D01*
X41731000Y-39286922D02*
X41731000Y-39804078D01*
%TO.C,C34*%
X34088000Y-41445922D02*
X34088000Y-41963078D01*
X35508000Y-41445922D02*
X35508000Y-41963078D01*
%TO.C,C31*%
X34977000Y-37635922D02*
X34977000Y-38153078D01*
X36397000Y-37635922D02*
X36397000Y-38153078D01*
%TO.C,C30*%
X40692000Y-42999922D02*
X40692000Y-43517078D01*
X42112000Y-42999922D02*
X42112000Y-43517078D01*
%TO.C,C28*%
X38660000Y-42999922D02*
X38660000Y-43517078D01*
X40080000Y-42999922D02*
X40080000Y-43517078D01*
%TO.C,C14*%
X31865500Y-65702922D02*
X31865500Y-66220078D01*
X33285500Y-65702922D02*
X33285500Y-66220078D01*
%TO.C,C13*%
X35675500Y-60178422D02*
X35675500Y-60695578D01*
X37095500Y-60178422D02*
X37095500Y-60695578D01*
%TO.C,C12*%
X39612500Y-60178422D02*
X39612500Y-60695578D01*
X41032500Y-60178422D02*
X41032500Y-60695578D01*
%TO.C,C11*%
X39897578Y-62472500D02*
X39380422Y-62472500D01*
X39897578Y-63892500D02*
X39380422Y-63892500D01*
%TO.C,C3*%
X39064000Y-60695578D02*
X39064000Y-60178422D01*
X37644000Y-60695578D02*
X37644000Y-60178422D01*
%TO.C,C33*%
D13*
X36759357Y-46457142D02*
X36806976Y-46504761D01*
X36949833Y-46552380D01*
X37045071Y-46552380D01*
X37187928Y-46504761D01*
X37283166Y-46409523D01*
X37330785Y-46314285D01*
X37378404Y-46123809D01*
X37378404Y-45980952D01*
X37330785Y-45790476D01*
X37283166Y-45695238D01*
X37187928Y-45600000D01*
X37045071Y-45552380D01*
X36949833Y-45552380D01*
X36806976Y-45600000D01*
X36759357Y-45647619D01*
X36426023Y-45552380D02*
X35806976Y-45552380D01*
X36140309Y-45933333D01*
X35997452Y-45933333D01*
X35902214Y-45980952D01*
X35854595Y-46028571D01*
X35806976Y-46123809D01*
X35806976Y-46361904D01*
X35854595Y-46457142D01*
X35902214Y-46504761D01*
X35997452Y-46552380D01*
X36283166Y-46552380D01*
X36378404Y-46504761D01*
X36426023Y-46457142D01*
X35473642Y-45552380D02*
X34854595Y-45552380D01*
X35187928Y-45933333D01*
X35045071Y-45933333D01*
X34949833Y-45980952D01*
X34902214Y-46028571D01*
X34854595Y-46123809D01*
X34854595Y-46361904D01*
X34902214Y-46457142D01*
X34949833Y-46504761D01*
X35045071Y-46552380D01*
X35330785Y-46552380D01*
X35426023Y-46504761D01*
X35473642Y-46457142D01*
%TO.C,R11*%
X45283357Y-109735880D02*
X45616690Y-109259690D01*
X45854785Y-109735880D02*
X45854785Y-108735880D01*
X45473833Y-108735880D01*
X45378595Y-108783500D01*
X45330976Y-108831119D01*
X45283357Y-108926357D01*
X45283357Y-109069214D01*
X45330976Y-109164452D01*
X45378595Y-109212071D01*
X45473833Y-109259690D01*
X45854785Y-109259690D01*
X44330976Y-109735880D02*
X44902404Y-109735880D01*
X44616690Y-109735880D02*
X44616690Y-108735880D01*
X44711928Y-108878738D01*
X44807166Y-108973976D01*
X44902404Y-109021595D01*
X43378595Y-109735880D02*
X43950023Y-109735880D01*
X43664309Y-109735880D02*
X43664309Y-108735880D01*
X43759547Y-108878738D01*
X43854785Y-108973976D01*
X43950023Y-109021595D01*
%TO.C,R10*%
X35186857Y-109799380D02*
X35520190Y-109323190D01*
X35758285Y-109799380D02*
X35758285Y-108799380D01*
X35377333Y-108799380D01*
X35282095Y-108847000D01*
X35234476Y-108894619D01*
X35186857Y-108989857D01*
X35186857Y-109132714D01*
X35234476Y-109227952D01*
X35282095Y-109275571D01*
X35377333Y-109323190D01*
X35758285Y-109323190D01*
X34234476Y-109799380D02*
X34805904Y-109799380D01*
X34520190Y-109799380D02*
X34520190Y-108799380D01*
X34615428Y-108942238D01*
X34710666Y-109037476D01*
X34805904Y-109085095D01*
X33615428Y-108799380D02*
X33520190Y-108799380D01*
X33424952Y-108847000D01*
X33377333Y-108894619D01*
X33329714Y-108989857D01*
X33282095Y-109180333D01*
X33282095Y-109418428D01*
X33329714Y-109608904D01*
X33377333Y-109704142D01*
X33424952Y-109751761D01*
X33520190Y-109799380D01*
X33615428Y-109799380D01*
X33710666Y-109751761D01*
X33758285Y-109704142D01*
X33805904Y-109608904D01*
X33853523Y-109418428D01*
X33853523Y-109180333D01*
X33805904Y-108989857D01*
X33758285Y-108894619D01*
X33710666Y-108847000D01*
X33615428Y-108799380D01*
%TO.C,CN3*%
X36298142Y-31705523D02*
X36345761Y-31657904D01*
X36393380Y-31515047D01*
X36393380Y-31419809D01*
X36345761Y-31276952D01*
X36250523Y-31181714D01*
X36155285Y-31134095D01*
X35964809Y-31086476D01*
X35821952Y-31086476D01*
X35631476Y-31134095D01*
X35536238Y-31181714D01*
X35441000Y-31276952D01*
X35393380Y-31419809D01*
X35393380Y-31515047D01*
X35441000Y-31657904D01*
X35488619Y-31705523D01*
X36393380Y-32134095D02*
X35393380Y-32134095D01*
X36393380Y-32705523D01*
X35393380Y-32705523D01*
X35393380Y-33086476D02*
X35393380Y-33705523D01*
X35774333Y-33372190D01*
X35774333Y-33515047D01*
X35821952Y-33610285D01*
X35869571Y-33657904D01*
X35964809Y-33705523D01*
X36202904Y-33705523D01*
X36298142Y-33657904D01*
X36345761Y-33610285D01*
X36393380Y-33515047D01*
X36393380Y-33229333D01*
X36345761Y-33134095D01*
X36298142Y-33086476D01*
%TO.C,CN2*%
X41505142Y-31705523D02*
X41552761Y-31657904D01*
X41600380Y-31515047D01*
X41600380Y-31419809D01*
X41552761Y-31276952D01*
X41457523Y-31181714D01*
X41362285Y-31134095D01*
X41171809Y-31086476D01*
X41028952Y-31086476D01*
X40838476Y-31134095D01*
X40743238Y-31181714D01*
X40648000Y-31276952D01*
X40600380Y-31419809D01*
X40600380Y-31515047D01*
X40648000Y-31657904D01*
X40695619Y-31705523D01*
X41600380Y-32134095D02*
X40600380Y-32134095D01*
X41600380Y-32705523D01*
X40600380Y-32705523D01*
X40695619Y-33134095D02*
X40648000Y-33181714D01*
X40600380Y-33276952D01*
X40600380Y-33515047D01*
X40648000Y-33610285D01*
X40695619Y-33657904D01*
X40790857Y-33705523D01*
X40886095Y-33705523D01*
X41028952Y-33657904D01*
X41600380Y-33086476D01*
X41600380Y-33705523D01*
%TO.C,U12*%
X33043880Y-26638404D02*
X33853404Y-26638404D01*
X33948642Y-26686023D01*
X33996261Y-26733642D01*
X34043880Y-26828880D01*
X34043880Y-27019357D01*
X33996261Y-27114595D01*
X33948642Y-27162214D01*
X33853404Y-27209833D01*
X33043880Y-27209833D01*
X34043880Y-28209833D02*
X34043880Y-27638404D01*
X34043880Y-27924119D02*
X33043880Y-27924119D01*
X33186738Y-27828880D01*
X33281976Y-27733642D01*
X33329595Y-27638404D01*
X33139119Y-28590785D02*
X33091500Y-28638404D01*
X33043880Y-28733642D01*
X33043880Y-28971738D01*
X33091500Y-29066976D01*
X33139119Y-29114595D01*
X33234357Y-29162214D01*
X33329595Y-29162214D01*
X33472452Y-29114595D01*
X34043880Y-28543166D01*
X34043880Y-29162214D01*
%TO.C,U7*%
X43203880Y-27114595D02*
X44013404Y-27114595D01*
X44108642Y-27162214D01*
X44156261Y-27209833D01*
X44203880Y-27305071D01*
X44203880Y-27495547D01*
X44156261Y-27590785D01*
X44108642Y-27638404D01*
X44013404Y-27686023D01*
X43203880Y-27686023D01*
X43203880Y-28066976D02*
X43203880Y-28733642D01*
X44203880Y-28305071D01*
%TO.C,U14*%
X48220380Y-26638404D02*
X49029904Y-26638404D01*
X49125142Y-26686023D01*
X49172761Y-26733642D01*
X49220380Y-26828880D01*
X49220380Y-27019357D01*
X49172761Y-27114595D01*
X49125142Y-27162214D01*
X49029904Y-27209833D01*
X48220380Y-27209833D01*
X49220380Y-28209833D02*
X49220380Y-27638404D01*
X49220380Y-27924119D02*
X48220380Y-27924119D01*
X48363238Y-27828880D01*
X48458476Y-27733642D01*
X48506095Y-27638404D01*
X48553714Y-29066976D02*
X49220380Y-29066976D01*
X48172761Y-28828880D02*
X48887047Y-28590785D01*
X48887047Y-29209833D01*
%TO.C,U16*%
X23010880Y-26638404D02*
X23820404Y-26638404D01*
X23915642Y-26686023D01*
X23963261Y-26733642D01*
X24010880Y-26828880D01*
X24010880Y-27019357D01*
X23963261Y-27114595D01*
X23915642Y-27162214D01*
X23820404Y-27209833D01*
X23010880Y-27209833D01*
X24010880Y-28209833D02*
X24010880Y-27638404D01*
X24010880Y-27924119D02*
X23010880Y-27924119D01*
X23153738Y-27828880D01*
X23248976Y-27733642D01*
X23296595Y-27638404D01*
X23010880Y-29066976D02*
X23010880Y-28876500D01*
X23058500Y-28781261D01*
X23106119Y-28733642D01*
X23248976Y-28638404D01*
X23439452Y-28590785D01*
X23820404Y-28590785D01*
X23915642Y-28638404D01*
X23963261Y-28686023D01*
X24010880Y-28781261D01*
X24010880Y-28971738D01*
X23963261Y-29066976D01*
X23915642Y-29114595D01*
X23820404Y-29162214D01*
X23582309Y-29162214D01*
X23487071Y-29114595D01*
X23439452Y-29066976D01*
X23391833Y-28971738D01*
X23391833Y-28781261D01*
X23439452Y-28686023D01*
X23487071Y-28638404D01*
X23582309Y-28590785D01*
%TO.C,U13*%
X28090880Y-26511404D02*
X28900404Y-26511404D01*
X28995642Y-26559023D01*
X29043261Y-26606642D01*
X29090880Y-26701880D01*
X29090880Y-26892357D01*
X29043261Y-26987595D01*
X28995642Y-27035214D01*
X28900404Y-27082833D01*
X28090880Y-27082833D01*
X29090880Y-28082833D02*
X29090880Y-27511404D01*
X29090880Y-27797119D02*
X28090880Y-27797119D01*
X28233738Y-27701880D01*
X28328976Y-27606642D01*
X28376595Y-27511404D01*
X28090880Y-28416166D02*
X28090880Y-29035214D01*
X28471833Y-28701880D01*
X28471833Y-28844738D01*
X28519452Y-28939976D01*
X28567071Y-28987595D01*
X28662309Y-29035214D01*
X28900404Y-29035214D01*
X28995642Y-28987595D01*
X29043261Y-28939976D01*
X29090880Y-28844738D01*
X29090880Y-28559023D01*
X29043261Y-28463785D01*
X28995642Y-28416166D01*
%TO.C,U9*%
X38060380Y-27114595D02*
X38869904Y-27114595D01*
X38965142Y-27162214D01*
X39012761Y-27209833D01*
X39060380Y-27305071D01*
X39060380Y-27495547D01*
X39012761Y-27590785D01*
X38965142Y-27638404D01*
X38869904Y-27686023D01*
X38060380Y-27686023D01*
X39060380Y-28209833D02*
X39060380Y-28400309D01*
X39012761Y-28495547D01*
X38965142Y-28543166D01*
X38822285Y-28638404D01*
X38631809Y-28686023D01*
X38250857Y-28686023D01*
X38155619Y-28638404D01*
X38108000Y-28590785D01*
X38060380Y-28495547D01*
X38060380Y-28305071D01*
X38108000Y-28209833D01*
X38155619Y-28162214D01*
X38250857Y-28114595D01*
X38488952Y-28114595D01*
X38584190Y-28162214D01*
X38631809Y-28209833D01*
X38679428Y-28305071D01*
X38679428Y-28495547D01*
X38631809Y-28590785D01*
X38584190Y-28638404D01*
X38488952Y-28686023D01*
%TO.C,C47*%
X43393357Y-37186142D02*
X43440976Y-37233761D01*
X43583833Y-37281380D01*
X43679071Y-37281380D01*
X43821928Y-37233761D01*
X43917166Y-37138523D01*
X43964785Y-37043285D01*
X44012404Y-36852809D01*
X44012404Y-36709952D01*
X43964785Y-36519476D01*
X43917166Y-36424238D01*
X43821928Y-36329000D01*
X43679071Y-36281380D01*
X43583833Y-36281380D01*
X43440976Y-36329000D01*
X43393357Y-36376619D01*
X42536214Y-36614714D02*
X42536214Y-37281380D01*
X42774309Y-36233761D02*
X43012404Y-36948047D01*
X42393357Y-36948047D01*
X42107642Y-36281380D02*
X41440976Y-36281380D01*
X41869547Y-37281380D01*
%TO.C,U3*%
X37528404Y-104544880D02*
X37528404Y-105354404D01*
X37480785Y-105449642D01*
X37433166Y-105497261D01*
X37337928Y-105544880D01*
X37147452Y-105544880D01*
X37052214Y-105497261D01*
X37004595Y-105449642D01*
X36956976Y-105354404D01*
X36956976Y-104544880D01*
X36576023Y-104544880D02*
X35956976Y-104544880D01*
X36290309Y-104925833D01*
X36147452Y-104925833D01*
X36052214Y-104973452D01*
X36004595Y-105021071D01*
X35956976Y-105116309D01*
X35956976Y-105354404D01*
X36004595Y-105449642D01*
X36052214Y-105497261D01*
X36147452Y-105544880D01*
X36433166Y-105544880D01*
X36528404Y-105497261D01*
X36576023Y-105449642D01*
%TO.C,R6*%
X43124380Y-59777333D02*
X42648190Y-59444000D01*
X43124380Y-59205904D02*
X42124380Y-59205904D01*
X42124380Y-59586857D01*
X42172000Y-59682095D01*
X42219619Y-59729714D01*
X42314857Y-59777333D01*
X42457714Y-59777333D01*
X42552952Y-59729714D01*
X42600571Y-59682095D01*
X42648190Y-59586857D01*
X42648190Y-59205904D01*
X42124380Y-60634476D02*
X42124380Y-60444000D01*
X42172000Y-60348761D01*
X42219619Y-60301142D01*
X42362476Y-60205904D01*
X42552952Y-60158285D01*
X42933904Y-60158285D01*
X43029142Y-60205904D01*
X43076761Y-60253523D01*
X43124380Y-60348761D01*
X43124380Y-60539238D01*
X43076761Y-60634476D01*
X43029142Y-60682095D01*
X42933904Y-60729714D01*
X42695809Y-60729714D01*
X42600571Y-60682095D01*
X42552952Y-60634476D01*
X42505333Y-60539238D01*
X42505333Y-60348761D01*
X42552952Y-60253523D01*
X42600571Y-60205904D01*
X42695809Y-60158285D01*
%TO.C,J5*%
D14*
X50707523Y-59644666D02*
X51614666Y-59644666D01*
X51796095Y-59584190D01*
X51917047Y-59463238D01*
X51977523Y-59281809D01*
X51977523Y-59160857D01*
X50707523Y-60854190D02*
X50707523Y-60249428D01*
X51312285Y-60188952D01*
X51251809Y-60249428D01*
X51191333Y-60370380D01*
X51191333Y-60672761D01*
X51251809Y-60793714D01*
X51312285Y-60854190D01*
X51433238Y-60914666D01*
X51735619Y-60914666D01*
X51856571Y-60854190D01*
X51917047Y-60793714D01*
X51977523Y-60672761D01*
X51977523Y-60370380D01*
X51917047Y-60249428D01*
X51856571Y-60188952D01*
%TO.C,CN5*%
D13*
X24919142Y-31705523D02*
X24966761Y-31657904D01*
X25014380Y-31515047D01*
X25014380Y-31419809D01*
X24966761Y-31276952D01*
X24871523Y-31181714D01*
X24776285Y-31134095D01*
X24585809Y-31086476D01*
X24442952Y-31086476D01*
X24252476Y-31134095D01*
X24157238Y-31181714D01*
X24062000Y-31276952D01*
X24014380Y-31419809D01*
X24014380Y-31515047D01*
X24062000Y-31657904D01*
X24109619Y-31705523D01*
X25014380Y-32134095D02*
X24014380Y-32134095D01*
X25014380Y-32705523D01*
X24014380Y-32705523D01*
X24014380Y-33657904D02*
X24014380Y-33181714D01*
X24490571Y-33134095D01*
X24442952Y-33181714D01*
X24395333Y-33276952D01*
X24395333Y-33515047D01*
X24442952Y-33610285D01*
X24490571Y-33657904D01*
X24585809Y-33705523D01*
X24823904Y-33705523D01*
X24919142Y-33657904D01*
X24966761Y-33610285D01*
X25014380Y-33515047D01*
X25014380Y-33276952D01*
X24966761Y-33181714D01*
X24919142Y-33134095D01*
%TO.C,CN4*%
X30888142Y-31705523D02*
X30935761Y-31657904D01*
X30983380Y-31515047D01*
X30983380Y-31419809D01*
X30935761Y-31276952D01*
X30840523Y-31181714D01*
X30745285Y-31134095D01*
X30554809Y-31086476D01*
X30411952Y-31086476D01*
X30221476Y-31134095D01*
X30126238Y-31181714D01*
X30031000Y-31276952D01*
X29983380Y-31419809D01*
X29983380Y-31515047D01*
X30031000Y-31657904D01*
X30078619Y-31705523D01*
X30983380Y-32134095D02*
X29983380Y-32134095D01*
X30983380Y-32705523D01*
X29983380Y-32705523D01*
X30316714Y-33610285D02*
X30983380Y-33610285D01*
X29935761Y-33372190D02*
X30650047Y-33134095D01*
X30650047Y-33753142D01*
%TO.C,CN1*%
X46521642Y-31313523D02*
X46569261Y-31265904D01*
X46616880Y-31123047D01*
X46616880Y-31027809D01*
X46569261Y-30884952D01*
X46474023Y-30789714D01*
X46378785Y-30742095D01*
X46188309Y-30694476D01*
X46045452Y-30694476D01*
X45854976Y-30742095D01*
X45759738Y-30789714D01*
X45664500Y-30884952D01*
X45616880Y-31027809D01*
X45616880Y-31123047D01*
X45664500Y-31265904D01*
X45712119Y-31313523D01*
X46616880Y-31742095D02*
X45616880Y-31742095D01*
X46616880Y-32313523D01*
X45616880Y-32313523D01*
X46616880Y-33313523D02*
X46616880Y-32742095D01*
X46616880Y-33027809D02*
X45616880Y-33027809D01*
X45759738Y-32932571D01*
X45854976Y-32837333D01*
X45902595Y-32742095D01*
%TO.C,C36*%
X37885642Y-37901642D02*
X37933261Y-37854023D01*
X37980880Y-37711166D01*
X37980880Y-37615928D01*
X37933261Y-37473071D01*
X37838023Y-37377833D01*
X37742785Y-37330214D01*
X37552309Y-37282595D01*
X37409452Y-37282595D01*
X37218976Y-37330214D01*
X37123738Y-37377833D01*
X37028500Y-37473071D01*
X36980880Y-37615928D01*
X36980880Y-37711166D01*
X37028500Y-37854023D01*
X37076119Y-37901642D01*
X36980880Y-38234976D02*
X36980880Y-38854023D01*
X37361833Y-38520690D01*
X37361833Y-38663547D01*
X37409452Y-38758785D01*
X37457071Y-38806404D01*
X37552309Y-38854023D01*
X37790404Y-38854023D01*
X37885642Y-38806404D01*
X37933261Y-38758785D01*
X37980880Y-38663547D01*
X37980880Y-38377833D01*
X37933261Y-38282595D01*
X37885642Y-38234976D01*
X36980880Y-39711166D02*
X36980880Y-39520690D01*
X37028500Y-39425452D01*
X37076119Y-39377833D01*
X37218976Y-39282595D01*
X37409452Y-39234976D01*
X37790404Y-39234976D01*
X37885642Y-39282595D01*
X37933261Y-39330214D01*
X37980880Y-39425452D01*
X37980880Y-39615928D01*
X37933261Y-39711166D01*
X37885642Y-39758785D01*
X37790404Y-39806404D01*
X37552309Y-39806404D01*
X37457071Y-39758785D01*
X37409452Y-39711166D01*
X37361833Y-39615928D01*
X37361833Y-39425452D01*
X37409452Y-39330214D01*
X37457071Y-39282595D01*
X37552309Y-39234976D01*
%TO.C,C35*%
X39728142Y-38902642D02*
X39775761Y-38855023D01*
X39823380Y-38712166D01*
X39823380Y-38616928D01*
X39775761Y-38474071D01*
X39680523Y-38378833D01*
X39585285Y-38331214D01*
X39394809Y-38283595D01*
X39251952Y-38283595D01*
X39061476Y-38331214D01*
X38966238Y-38378833D01*
X38871000Y-38474071D01*
X38823380Y-38616928D01*
X38823380Y-38712166D01*
X38871000Y-38855023D01*
X38918619Y-38902642D01*
X38823380Y-39235976D02*
X38823380Y-39855023D01*
X39204333Y-39521690D01*
X39204333Y-39664547D01*
X39251952Y-39759785D01*
X39299571Y-39807404D01*
X39394809Y-39855023D01*
X39632904Y-39855023D01*
X39728142Y-39807404D01*
X39775761Y-39759785D01*
X39823380Y-39664547D01*
X39823380Y-39378833D01*
X39775761Y-39283595D01*
X39728142Y-39235976D01*
X38823380Y-40759785D02*
X38823380Y-40283595D01*
X39299571Y-40235976D01*
X39251952Y-40283595D01*
X39204333Y-40378833D01*
X39204333Y-40616928D01*
X39251952Y-40712166D01*
X39299571Y-40759785D01*
X39394809Y-40807404D01*
X39632904Y-40807404D01*
X39728142Y-40759785D01*
X39775761Y-40712166D01*
X39823380Y-40616928D01*
X39823380Y-40378833D01*
X39775761Y-40283595D01*
X39728142Y-40235976D01*
%TO.C,C34*%
X33505142Y-41061642D02*
X33552761Y-41014023D01*
X33600380Y-40871166D01*
X33600380Y-40775928D01*
X33552761Y-40633071D01*
X33457523Y-40537833D01*
X33362285Y-40490214D01*
X33171809Y-40442595D01*
X33028952Y-40442595D01*
X32838476Y-40490214D01*
X32743238Y-40537833D01*
X32648000Y-40633071D01*
X32600380Y-40775928D01*
X32600380Y-40871166D01*
X32648000Y-41014023D01*
X32695619Y-41061642D01*
X32600380Y-41394976D02*
X32600380Y-42014023D01*
X32981333Y-41680690D01*
X32981333Y-41823547D01*
X33028952Y-41918785D01*
X33076571Y-41966404D01*
X33171809Y-42014023D01*
X33409904Y-42014023D01*
X33505142Y-41966404D01*
X33552761Y-41918785D01*
X33600380Y-41823547D01*
X33600380Y-41537833D01*
X33552761Y-41442595D01*
X33505142Y-41394976D01*
X32933714Y-42871166D02*
X33600380Y-42871166D01*
X32552761Y-42633071D02*
X33267047Y-42394976D01*
X33267047Y-43014023D01*
%TO.C,C31*%
X34456642Y-35933142D02*
X34504261Y-35885523D01*
X34551880Y-35742666D01*
X34551880Y-35647428D01*
X34504261Y-35504571D01*
X34409023Y-35409333D01*
X34313785Y-35361714D01*
X34123309Y-35314095D01*
X33980452Y-35314095D01*
X33789976Y-35361714D01*
X33694738Y-35409333D01*
X33599500Y-35504571D01*
X33551880Y-35647428D01*
X33551880Y-35742666D01*
X33599500Y-35885523D01*
X33647119Y-35933142D01*
X33551880Y-36266476D02*
X33551880Y-36885523D01*
X33932833Y-36552190D01*
X33932833Y-36695047D01*
X33980452Y-36790285D01*
X34028071Y-36837904D01*
X34123309Y-36885523D01*
X34361404Y-36885523D01*
X34456642Y-36837904D01*
X34504261Y-36790285D01*
X34551880Y-36695047D01*
X34551880Y-36409333D01*
X34504261Y-36314095D01*
X34456642Y-36266476D01*
X34551880Y-37837904D02*
X34551880Y-37266476D01*
X34551880Y-37552190D02*
X33551880Y-37552190D01*
X33694738Y-37456952D01*
X33789976Y-37361714D01*
X33837595Y-37266476D01*
%TO.C,C30*%
X43918142Y-42600642D02*
X43965761Y-42553023D01*
X44013380Y-42410166D01*
X44013380Y-42314928D01*
X43965761Y-42172071D01*
X43870523Y-42076833D01*
X43775285Y-42029214D01*
X43584809Y-41981595D01*
X43441952Y-41981595D01*
X43251476Y-42029214D01*
X43156238Y-42076833D01*
X43061000Y-42172071D01*
X43013380Y-42314928D01*
X43013380Y-42410166D01*
X43061000Y-42553023D01*
X43108619Y-42600642D01*
X43013380Y-42933976D02*
X43013380Y-43553023D01*
X43394333Y-43219690D01*
X43394333Y-43362547D01*
X43441952Y-43457785D01*
X43489571Y-43505404D01*
X43584809Y-43553023D01*
X43822904Y-43553023D01*
X43918142Y-43505404D01*
X43965761Y-43457785D01*
X44013380Y-43362547D01*
X44013380Y-43076833D01*
X43965761Y-42981595D01*
X43918142Y-42933976D01*
X43013380Y-44172071D02*
X43013380Y-44267309D01*
X43061000Y-44362547D01*
X43108619Y-44410166D01*
X43203857Y-44457785D01*
X43394333Y-44505404D01*
X43632428Y-44505404D01*
X43822904Y-44457785D01*
X43918142Y-44410166D01*
X43965761Y-44362547D01*
X44013380Y-44267309D01*
X44013380Y-44172071D01*
X43965761Y-44076833D01*
X43918142Y-44029214D01*
X43822904Y-43981595D01*
X43632428Y-43933976D01*
X43394333Y-43933976D01*
X43203857Y-43981595D01*
X43108619Y-44029214D01*
X43061000Y-44076833D01*
X43013380Y-44172071D01*
%TO.C,C28*%
X39790642Y-45775642D02*
X39838261Y-45728023D01*
X39885880Y-45585166D01*
X39885880Y-45489928D01*
X39838261Y-45347071D01*
X39743023Y-45251833D01*
X39647785Y-45204214D01*
X39457309Y-45156595D01*
X39314452Y-45156595D01*
X39123976Y-45204214D01*
X39028738Y-45251833D01*
X38933500Y-45347071D01*
X38885880Y-45489928D01*
X38885880Y-45585166D01*
X38933500Y-45728023D01*
X38981119Y-45775642D01*
X38981119Y-46156595D02*
X38933500Y-46204214D01*
X38885880Y-46299452D01*
X38885880Y-46537547D01*
X38933500Y-46632785D01*
X38981119Y-46680404D01*
X39076357Y-46728023D01*
X39171595Y-46728023D01*
X39314452Y-46680404D01*
X39885880Y-46108976D01*
X39885880Y-46728023D01*
X39314452Y-47299452D02*
X39266833Y-47204214D01*
X39219214Y-47156595D01*
X39123976Y-47108976D01*
X39076357Y-47108976D01*
X38981119Y-47156595D01*
X38933500Y-47204214D01*
X38885880Y-47299452D01*
X38885880Y-47489928D01*
X38933500Y-47585166D01*
X38981119Y-47632785D01*
X39076357Y-47680404D01*
X39123976Y-47680404D01*
X39219214Y-47632785D01*
X39266833Y-47585166D01*
X39314452Y-47489928D01*
X39314452Y-47299452D01*
X39362071Y-47204214D01*
X39409690Y-47156595D01*
X39504928Y-47108976D01*
X39695404Y-47108976D01*
X39790642Y-47156595D01*
X39838261Y-47204214D01*
X39885880Y-47299452D01*
X39885880Y-47489928D01*
X39838261Y-47585166D01*
X39790642Y-47632785D01*
X39695404Y-47680404D01*
X39504928Y-47680404D01*
X39409690Y-47632785D01*
X39362071Y-47585166D01*
X39314452Y-47489928D01*
%TO.C,C14*%
X31282642Y-65318642D02*
X31330261Y-65271023D01*
X31377880Y-65128166D01*
X31377880Y-65032928D01*
X31330261Y-64890071D01*
X31235023Y-64794833D01*
X31139785Y-64747214D01*
X30949309Y-64699595D01*
X30806452Y-64699595D01*
X30615976Y-64747214D01*
X30520738Y-64794833D01*
X30425500Y-64890071D01*
X30377880Y-65032928D01*
X30377880Y-65128166D01*
X30425500Y-65271023D01*
X30473119Y-65318642D01*
X31377880Y-66271023D02*
X31377880Y-65699595D01*
X31377880Y-65985309D02*
X30377880Y-65985309D01*
X30520738Y-65890071D01*
X30615976Y-65794833D01*
X30663595Y-65699595D01*
X30711214Y-67128166D02*
X31377880Y-67128166D01*
X30330261Y-66890071D02*
X31044547Y-66651976D01*
X31044547Y-67271023D01*
%TO.C,C13*%
X35092642Y-59794142D02*
X35140261Y-59746523D01*
X35187880Y-59603666D01*
X35187880Y-59508428D01*
X35140261Y-59365571D01*
X35045023Y-59270333D01*
X34949785Y-59222714D01*
X34759309Y-59175095D01*
X34616452Y-59175095D01*
X34425976Y-59222714D01*
X34330738Y-59270333D01*
X34235500Y-59365571D01*
X34187880Y-59508428D01*
X34187880Y-59603666D01*
X34235500Y-59746523D01*
X34283119Y-59794142D01*
X35187880Y-60746523D02*
X35187880Y-60175095D01*
X35187880Y-60460809D02*
X34187880Y-60460809D01*
X34330738Y-60365571D01*
X34425976Y-60270333D01*
X34473595Y-60175095D01*
X34187880Y-61079857D02*
X34187880Y-61698904D01*
X34568833Y-61365571D01*
X34568833Y-61508428D01*
X34616452Y-61603666D01*
X34664071Y-61651285D01*
X34759309Y-61698904D01*
X34997404Y-61698904D01*
X35092642Y-61651285D01*
X35140261Y-61603666D01*
X35187880Y-61508428D01*
X35187880Y-61222714D01*
X35140261Y-61127476D01*
X35092642Y-61079857D01*
%TO.C,C12*%
X40679642Y-56380142D02*
X40727261Y-56332523D01*
X40774880Y-56189666D01*
X40774880Y-56094428D01*
X40727261Y-55951571D01*
X40632023Y-55856333D01*
X40536785Y-55808714D01*
X40346309Y-55761095D01*
X40203452Y-55761095D01*
X40012976Y-55808714D01*
X39917738Y-55856333D01*
X39822500Y-55951571D01*
X39774880Y-56094428D01*
X39774880Y-56189666D01*
X39822500Y-56332523D01*
X39870119Y-56380142D01*
X40774880Y-57332523D02*
X40774880Y-56761095D01*
X40774880Y-57046809D02*
X39774880Y-57046809D01*
X39917738Y-56951571D01*
X40012976Y-56856333D01*
X40060595Y-56761095D01*
X39870119Y-57713476D02*
X39822500Y-57761095D01*
X39774880Y-57856333D01*
X39774880Y-58094428D01*
X39822500Y-58189666D01*
X39870119Y-58237285D01*
X39965357Y-58284904D01*
X40060595Y-58284904D01*
X40203452Y-58237285D01*
X40774880Y-57665857D01*
X40774880Y-58284904D01*
%TO.C,C11*%
X37218857Y-63539642D02*
X37266476Y-63587261D01*
X37409333Y-63634880D01*
X37504571Y-63634880D01*
X37647428Y-63587261D01*
X37742666Y-63492023D01*
X37790285Y-63396785D01*
X37837904Y-63206309D01*
X37837904Y-63063452D01*
X37790285Y-62872976D01*
X37742666Y-62777738D01*
X37647428Y-62682500D01*
X37504571Y-62634880D01*
X37409333Y-62634880D01*
X37266476Y-62682500D01*
X37218857Y-62730119D01*
X36266476Y-63634880D02*
X36837904Y-63634880D01*
X36552190Y-63634880D02*
X36552190Y-62634880D01*
X36647428Y-62777738D01*
X36742666Y-62872976D01*
X36837904Y-62920595D01*
X35314095Y-63634880D02*
X35885523Y-63634880D01*
X35599809Y-63634880D02*
X35599809Y-62634880D01*
X35695047Y-62777738D01*
X35790285Y-62872976D01*
X35885523Y-62920595D01*
%TO.C,C3*%
X38711142Y-56919833D02*
X38758761Y-56872214D01*
X38806380Y-56729357D01*
X38806380Y-56634119D01*
X38758761Y-56491261D01*
X38663523Y-56396023D01*
X38568285Y-56348404D01*
X38377809Y-56300785D01*
X38234952Y-56300785D01*
X38044476Y-56348404D01*
X37949238Y-56396023D01*
X37854000Y-56491261D01*
X37806380Y-56634119D01*
X37806380Y-56729357D01*
X37854000Y-56872214D01*
X37901619Y-56919833D01*
X37806380Y-57253166D02*
X37806380Y-57872214D01*
X38187333Y-57538880D01*
X38187333Y-57681738D01*
X38234952Y-57776976D01*
X38282571Y-57824595D01*
X38377809Y-57872214D01*
X38615904Y-57872214D01*
X38711142Y-57824595D01*
X38758761Y-57776976D01*
X38806380Y-57681738D01*
X38806380Y-57396023D01*
X38758761Y-57300785D01*
X38711142Y-57253166D01*
%TD*%
M02*
