%TF.GenerationSoftware,KiCad,Pcbnew,5.1.6-c6e7f7d~86~ubuntu19.10.1*%
%TF.CreationDate,2020-05-21T12:21:41+02:00*%
%TF.ProjectId,BioElectricalSensor,42696f45-6c65-4637-9472-6963616c5365,rev?*%
%TF.SameCoordinates,Original*%
%TF.FileFunction,Paste,Bot*%
%TF.FilePolarity,Positive*%
%FSLAX46Y46*%
G04 Gerber Fmt 4.6, Leading zero omitted, Abs format (unit mm)*
G04 Created by KiCad (PCBNEW 5.1.6-c6e7f7d~86~ubuntu19.10.1) date 2020-05-21 12:21:41*
%MOMM*%
%LPD*%
G01*
G04 APERTURE LIST*
%ADD10R,0.500000X0.800000*%
%ADD11R,0.400000X0.800000*%
%ADD12R,1.060000X0.650000*%
%ADD13R,1.600000X0.700000*%
%ADD14R,2.200000X1.200000*%
%ADD15R,1.500000X1.200000*%
%ADD16R,1.500000X1.600000*%
G04 APERTURE END LIST*
%TO.C,C33*%
G36*
G01*
X36566500Y-44906250D02*
X36566500Y-43993750D01*
G75*
G02*
X36810250Y-43750000I243750J0D01*
G01*
X37297750Y-43750000D01*
G75*
G02*
X37541500Y-43993750I0J-243750D01*
G01*
X37541500Y-44906250D01*
G75*
G02*
X37297750Y-45150000I-243750J0D01*
G01*
X36810250Y-45150000D01*
G75*
G02*
X36566500Y-44906250I0J243750D01*
G01*
G37*
G36*
G01*
X34691500Y-44906250D02*
X34691500Y-43993750D01*
G75*
G02*
X34935250Y-43750000I243750J0D01*
G01*
X35422750Y-43750000D01*
G75*
G02*
X35666500Y-43993750I0J-243750D01*
G01*
X35666500Y-44906250D01*
G75*
G02*
X35422750Y-45150000I-243750J0D01*
G01*
X34935250Y-45150000D01*
G75*
G02*
X34691500Y-44906250I0J243750D01*
G01*
G37*
%TD*%
%TO.C,R11*%
G36*
G01*
X41030500Y-108509750D02*
X41030500Y-109422250D01*
G75*
G02*
X40786750Y-109666000I-243750J0D01*
G01*
X40299250Y-109666000D01*
G75*
G02*
X40055500Y-109422250I0J243750D01*
G01*
X40055500Y-108509750D01*
G75*
G02*
X40299250Y-108266000I243750J0D01*
G01*
X40786750Y-108266000D01*
G75*
G02*
X41030500Y-108509750I0J-243750D01*
G01*
G37*
G36*
G01*
X42905500Y-108509750D02*
X42905500Y-109422250D01*
G75*
G02*
X42661750Y-109666000I-243750J0D01*
G01*
X42174250Y-109666000D01*
G75*
G02*
X41930500Y-109422250I0J243750D01*
G01*
X41930500Y-108509750D01*
G75*
G02*
X42174250Y-108266000I243750J0D01*
G01*
X42661750Y-108266000D01*
G75*
G02*
X42905500Y-108509750I0J-243750D01*
G01*
G37*
%TD*%
%TO.C,R10*%
G36*
G01*
X37993500Y-109422250D02*
X37993500Y-108509750D01*
G75*
G02*
X38237250Y-108266000I243750J0D01*
G01*
X38724750Y-108266000D01*
G75*
G02*
X38968500Y-108509750I0J-243750D01*
G01*
X38968500Y-109422250D01*
G75*
G02*
X38724750Y-109666000I-243750J0D01*
G01*
X38237250Y-109666000D01*
G75*
G02*
X37993500Y-109422250I0J243750D01*
G01*
G37*
G36*
G01*
X36118500Y-109422250D02*
X36118500Y-108509750D01*
G75*
G02*
X36362250Y-108266000I243750J0D01*
G01*
X36849750Y-108266000D01*
G75*
G02*
X37093500Y-108509750I0J-243750D01*
G01*
X37093500Y-109422250D01*
G75*
G02*
X36849750Y-109666000I-243750J0D01*
G01*
X36362250Y-109666000D01*
G75*
G02*
X36118500Y-109422250I0J243750D01*
G01*
G37*
%TD*%
D10*
%TO.C,CN3*%
X39611000Y-33296000D03*
D11*
X38811000Y-33296000D03*
D10*
X37211000Y-33296000D03*
D11*
X38011000Y-33296000D03*
D10*
X39611000Y-31496000D03*
D11*
X38011000Y-31496000D03*
X38811000Y-31496000D03*
D10*
X37211000Y-31496000D03*
%TD*%
%TO.C,CN2*%
X44945000Y-33296000D03*
D11*
X44145000Y-33296000D03*
D10*
X42545000Y-33296000D03*
D11*
X43345000Y-33296000D03*
D10*
X44945000Y-31496000D03*
D11*
X43345000Y-31496000D03*
X44145000Y-31496000D03*
D10*
X42545000Y-31496000D03*
%TD*%
D12*
%TO.C,U12*%
X37125000Y-27874000D03*
X37125000Y-28824000D03*
X37125000Y-26924000D03*
X34925000Y-26924000D03*
X34925000Y-27874000D03*
X34925000Y-28824000D03*
%TD*%
%TO.C,U7*%
X47285000Y-27874000D03*
X47285000Y-28824000D03*
X47285000Y-26924000D03*
X45085000Y-26924000D03*
X45085000Y-27874000D03*
X45085000Y-28824000D03*
%TD*%
%TO.C,U14*%
X52365000Y-27874000D03*
X52365000Y-28824000D03*
X52365000Y-26924000D03*
X50165000Y-26924000D03*
X50165000Y-27874000D03*
X50165000Y-28824000D03*
%TD*%
%TO.C,U16*%
X27305000Y-27874000D03*
X27305000Y-28824000D03*
X27305000Y-26924000D03*
X25105000Y-26924000D03*
X25105000Y-27874000D03*
X25105000Y-28824000D03*
%TD*%
%TO.C,U13*%
X32172000Y-27874000D03*
X32172000Y-28824000D03*
X32172000Y-26924000D03*
X29972000Y-26924000D03*
X29972000Y-27874000D03*
X29972000Y-28824000D03*
%TD*%
%TO.C,U9*%
X42205000Y-27874000D03*
X42205000Y-28824000D03*
X42205000Y-26924000D03*
X40005000Y-26924000D03*
X40005000Y-27874000D03*
X40005000Y-28824000D03*
%TD*%
%TO.C,C47*%
G36*
G01*
X43200500Y-35635250D02*
X43200500Y-34722750D01*
G75*
G02*
X43444250Y-34479000I243750J0D01*
G01*
X43931750Y-34479000D01*
G75*
G02*
X44175500Y-34722750I0J-243750D01*
G01*
X44175500Y-35635250D01*
G75*
G02*
X43931750Y-35879000I-243750J0D01*
G01*
X43444250Y-35879000D01*
G75*
G02*
X43200500Y-35635250I0J243750D01*
G01*
G37*
G36*
G01*
X41325500Y-35635250D02*
X41325500Y-34722750D01*
G75*
G02*
X41569250Y-34479000I243750J0D01*
G01*
X42056750Y-34479000D01*
G75*
G02*
X42300500Y-34722750I0J-243750D01*
G01*
X42300500Y-35635250D01*
G75*
G02*
X42056750Y-35879000I-243750J0D01*
G01*
X41569250Y-35879000D01*
G75*
G02*
X41325500Y-35635250I0J243750D01*
G01*
G37*
%TD*%
%TO.C,U3*%
X38397000Y-106106000D03*
X38397000Y-105156000D03*
X38397000Y-107056000D03*
X40597000Y-107056000D03*
X40597000Y-106106000D03*
X40597000Y-105156000D03*
%TD*%
%TO.C,R6*%
G36*
G01*
X42215750Y-63236500D02*
X43128250Y-63236500D01*
G75*
G02*
X43372000Y-63480250I0J-243750D01*
G01*
X43372000Y-63967750D01*
G75*
G02*
X43128250Y-64211500I-243750J0D01*
G01*
X42215750Y-64211500D01*
G75*
G02*
X41972000Y-63967750I0J243750D01*
G01*
X41972000Y-63480250D01*
G75*
G02*
X42215750Y-63236500I243750J0D01*
G01*
G37*
G36*
G01*
X42215750Y-61361500D02*
X43128250Y-61361500D01*
G75*
G02*
X43372000Y-61605250I0J-243750D01*
G01*
X43372000Y-62092750D01*
G75*
G02*
X43128250Y-62336500I-243750J0D01*
G01*
X42215750Y-62336500D01*
G75*
G02*
X41972000Y-62092750I0J243750D01*
G01*
X41972000Y-61605250D01*
G75*
G02*
X42215750Y-61361500I243750J0D01*
G01*
G37*
%TD*%
D13*
%TO.C,J5*%
X44753000Y-53518000D03*
D14*
X55353000Y-67818000D03*
X55353000Y-52318000D03*
D15*
X45753000Y-52318000D03*
D16*
X45753000Y-66918000D03*
D13*
X44753000Y-54618000D03*
X44753000Y-55718000D03*
X44753000Y-56818000D03*
X44753000Y-57918000D03*
X44753000Y-59018000D03*
X44753000Y-60118000D03*
X44753000Y-61218000D03*
X44753000Y-62318000D03*
%TD*%
D10*
%TO.C,CN5*%
X28562000Y-33296000D03*
D11*
X27762000Y-33296000D03*
D10*
X26162000Y-33296000D03*
D11*
X26962000Y-33296000D03*
D10*
X28562000Y-31496000D03*
D11*
X26962000Y-31496000D03*
X27762000Y-31496000D03*
D10*
X26162000Y-31496000D03*
%TD*%
%TO.C,CN4*%
X34531000Y-33296000D03*
D11*
X33731000Y-33296000D03*
D10*
X32131000Y-33296000D03*
D11*
X32931000Y-33296000D03*
D10*
X34531000Y-31496000D03*
D11*
X32931000Y-31496000D03*
X33731000Y-31496000D03*
D10*
X32131000Y-31496000D03*
%TD*%
%TO.C,CN1*%
X49771000Y-33296000D03*
D11*
X48971000Y-33296000D03*
D10*
X47371000Y-33296000D03*
D11*
X48171000Y-33296000D03*
D10*
X49771000Y-31496000D03*
D11*
X48171000Y-31496000D03*
X48971000Y-31496000D03*
D10*
X47371000Y-31496000D03*
%TD*%
%TO.C,C36*%
G36*
G01*
X36373750Y-42154500D02*
X37286250Y-42154500D01*
G75*
G02*
X37530000Y-42398250I0J-243750D01*
G01*
X37530000Y-42885750D01*
G75*
G02*
X37286250Y-43129500I-243750J0D01*
G01*
X36373750Y-43129500D01*
G75*
G02*
X36130000Y-42885750I0J243750D01*
G01*
X36130000Y-42398250D01*
G75*
G02*
X36373750Y-42154500I243750J0D01*
G01*
G37*
G36*
G01*
X36373750Y-40279500D02*
X37286250Y-40279500D01*
G75*
G02*
X37530000Y-40523250I0J-243750D01*
G01*
X37530000Y-41010750D01*
G75*
G02*
X37286250Y-41254500I-243750J0D01*
G01*
X36373750Y-41254500D01*
G75*
G02*
X36130000Y-41010750I0J243750D01*
G01*
X36130000Y-40523250D01*
G75*
G02*
X36373750Y-40279500I243750J0D01*
G01*
G37*
%TD*%
%TO.C,C35*%
G36*
G01*
X40564750Y-39995500D02*
X41477250Y-39995500D01*
G75*
G02*
X41721000Y-40239250I0J-243750D01*
G01*
X41721000Y-40726750D01*
G75*
G02*
X41477250Y-40970500I-243750J0D01*
G01*
X40564750Y-40970500D01*
G75*
G02*
X40321000Y-40726750I0J243750D01*
G01*
X40321000Y-40239250D01*
G75*
G02*
X40564750Y-39995500I243750J0D01*
G01*
G37*
G36*
G01*
X40564750Y-38120500D02*
X41477250Y-38120500D01*
G75*
G02*
X41721000Y-38364250I0J-243750D01*
G01*
X41721000Y-38851750D01*
G75*
G02*
X41477250Y-39095500I-243750J0D01*
G01*
X40564750Y-39095500D01*
G75*
G02*
X40321000Y-38851750I0J243750D01*
G01*
X40321000Y-38364250D01*
G75*
G02*
X40564750Y-38120500I243750J0D01*
G01*
G37*
%TD*%
%TO.C,C34*%
G36*
G01*
X34341750Y-42154500D02*
X35254250Y-42154500D01*
G75*
G02*
X35498000Y-42398250I0J-243750D01*
G01*
X35498000Y-42885750D01*
G75*
G02*
X35254250Y-43129500I-243750J0D01*
G01*
X34341750Y-43129500D01*
G75*
G02*
X34098000Y-42885750I0J243750D01*
G01*
X34098000Y-42398250D01*
G75*
G02*
X34341750Y-42154500I243750J0D01*
G01*
G37*
G36*
G01*
X34341750Y-40279500D02*
X35254250Y-40279500D01*
G75*
G02*
X35498000Y-40523250I0J-243750D01*
G01*
X35498000Y-41010750D01*
G75*
G02*
X35254250Y-41254500I-243750J0D01*
G01*
X34341750Y-41254500D01*
G75*
G02*
X34098000Y-41010750I0J243750D01*
G01*
X34098000Y-40523250D01*
G75*
G02*
X34341750Y-40279500I243750J0D01*
G01*
G37*
%TD*%
%TO.C,C31*%
G36*
G01*
X35230750Y-38344500D02*
X36143250Y-38344500D01*
G75*
G02*
X36387000Y-38588250I0J-243750D01*
G01*
X36387000Y-39075750D01*
G75*
G02*
X36143250Y-39319500I-243750J0D01*
G01*
X35230750Y-39319500D01*
G75*
G02*
X34987000Y-39075750I0J243750D01*
G01*
X34987000Y-38588250D01*
G75*
G02*
X35230750Y-38344500I243750J0D01*
G01*
G37*
G36*
G01*
X35230750Y-36469500D02*
X36143250Y-36469500D01*
G75*
G02*
X36387000Y-36713250I0J-243750D01*
G01*
X36387000Y-37200750D01*
G75*
G02*
X36143250Y-37444500I-243750J0D01*
G01*
X35230750Y-37444500D01*
G75*
G02*
X34987000Y-37200750I0J243750D01*
G01*
X34987000Y-36713250D01*
G75*
G02*
X35230750Y-36469500I243750J0D01*
G01*
G37*
%TD*%
%TO.C,C30*%
G36*
G01*
X40945750Y-43708500D02*
X41858250Y-43708500D01*
G75*
G02*
X42102000Y-43952250I0J-243750D01*
G01*
X42102000Y-44439750D01*
G75*
G02*
X41858250Y-44683500I-243750J0D01*
G01*
X40945750Y-44683500D01*
G75*
G02*
X40702000Y-44439750I0J243750D01*
G01*
X40702000Y-43952250D01*
G75*
G02*
X40945750Y-43708500I243750J0D01*
G01*
G37*
G36*
G01*
X40945750Y-41833500D02*
X41858250Y-41833500D01*
G75*
G02*
X42102000Y-42077250I0J-243750D01*
G01*
X42102000Y-42564750D01*
G75*
G02*
X41858250Y-42808500I-243750J0D01*
G01*
X40945750Y-42808500D01*
G75*
G02*
X40702000Y-42564750I0J243750D01*
G01*
X40702000Y-42077250D01*
G75*
G02*
X40945750Y-41833500I243750J0D01*
G01*
G37*
%TD*%
%TO.C,C28*%
G36*
G01*
X38913750Y-43708500D02*
X39826250Y-43708500D01*
G75*
G02*
X40070000Y-43952250I0J-243750D01*
G01*
X40070000Y-44439750D01*
G75*
G02*
X39826250Y-44683500I-243750J0D01*
G01*
X38913750Y-44683500D01*
G75*
G02*
X38670000Y-44439750I0J243750D01*
G01*
X38670000Y-43952250D01*
G75*
G02*
X38913750Y-43708500I243750J0D01*
G01*
G37*
G36*
G01*
X38913750Y-41833500D02*
X39826250Y-41833500D01*
G75*
G02*
X40070000Y-42077250I0J-243750D01*
G01*
X40070000Y-42564750D01*
G75*
G02*
X39826250Y-42808500I-243750J0D01*
G01*
X38913750Y-42808500D01*
G75*
G02*
X38670000Y-42564750I0J243750D01*
G01*
X38670000Y-42077250D01*
G75*
G02*
X38913750Y-41833500I243750J0D01*
G01*
G37*
%TD*%
%TO.C,C14*%
G36*
G01*
X32119250Y-66411500D02*
X33031750Y-66411500D01*
G75*
G02*
X33275500Y-66655250I0J-243750D01*
G01*
X33275500Y-67142750D01*
G75*
G02*
X33031750Y-67386500I-243750J0D01*
G01*
X32119250Y-67386500D01*
G75*
G02*
X31875500Y-67142750I0J243750D01*
G01*
X31875500Y-66655250D01*
G75*
G02*
X32119250Y-66411500I243750J0D01*
G01*
G37*
G36*
G01*
X32119250Y-64536500D02*
X33031750Y-64536500D01*
G75*
G02*
X33275500Y-64780250I0J-243750D01*
G01*
X33275500Y-65267750D01*
G75*
G02*
X33031750Y-65511500I-243750J0D01*
G01*
X32119250Y-65511500D01*
G75*
G02*
X31875500Y-65267750I0J243750D01*
G01*
X31875500Y-64780250D01*
G75*
G02*
X32119250Y-64536500I243750J0D01*
G01*
G37*
%TD*%
%TO.C,C13*%
G36*
G01*
X35929250Y-60887000D02*
X36841750Y-60887000D01*
G75*
G02*
X37085500Y-61130750I0J-243750D01*
G01*
X37085500Y-61618250D01*
G75*
G02*
X36841750Y-61862000I-243750J0D01*
G01*
X35929250Y-61862000D01*
G75*
G02*
X35685500Y-61618250I0J243750D01*
G01*
X35685500Y-61130750D01*
G75*
G02*
X35929250Y-60887000I243750J0D01*
G01*
G37*
G36*
G01*
X35929250Y-59012000D02*
X36841750Y-59012000D01*
G75*
G02*
X37085500Y-59255750I0J-243750D01*
G01*
X37085500Y-59743250D01*
G75*
G02*
X36841750Y-59987000I-243750J0D01*
G01*
X35929250Y-59987000D01*
G75*
G02*
X35685500Y-59743250I0J243750D01*
G01*
X35685500Y-59255750D01*
G75*
G02*
X35929250Y-59012000I243750J0D01*
G01*
G37*
%TD*%
%TO.C,C12*%
G36*
G01*
X39866250Y-60887000D02*
X40778750Y-60887000D01*
G75*
G02*
X41022500Y-61130750I0J-243750D01*
G01*
X41022500Y-61618250D01*
G75*
G02*
X40778750Y-61862000I-243750J0D01*
G01*
X39866250Y-61862000D01*
G75*
G02*
X39622500Y-61618250I0J243750D01*
G01*
X39622500Y-61130750D01*
G75*
G02*
X39866250Y-60887000I243750J0D01*
G01*
G37*
G36*
G01*
X39866250Y-59012000D02*
X40778750Y-59012000D01*
G75*
G02*
X41022500Y-59255750I0J-243750D01*
G01*
X41022500Y-59743250D01*
G75*
G02*
X40778750Y-59987000I-243750J0D01*
G01*
X39866250Y-59987000D01*
G75*
G02*
X39622500Y-59743250I0J243750D01*
G01*
X39622500Y-59255750D01*
G75*
G02*
X39866250Y-59012000I243750J0D01*
G01*
G37*
%TD*%
%TO.C,C11*%
G36*
G01*
X39189000Y-62726250D02*
X39189000Y-63638750D01*
G75*
G02*
X38945250Y-63882500I-243750J0D01*
G01*
X38457750Y-63882500D01*
G75*
G02*
X38214000Y-63638750I0J243750D01*
G01*
X38214000Y-62726250D01*
G75*
G02*
X38457750Y-62482500I243750J0D01*
G01*
X38945250Y-62482500D01*
G75*
G02*
X39189000Y-62726250I0J-243750D01*
G01*
G37*
G36*
G01*
X41064000Y-62726250D02*
X41064000Y-63638750D01*
G75*
G02*
X40820250Y-63882500I-243750J0D01*
G01*
X40332750Y-63882500D01*
G75*
G02*
X40089000Y-63638750I0J243750D01*
G01*
X40089000Y-62726250D01*
G75*
G02*
X40332750Y-62482500I243750J0D01*
G01*
X40820250Y-62482500D01*
G75*
G02*
X41064000Y-62726250I0J-243750D01*
G01*
G37*
%TD*%
%TO.C,C3*%
G36*
G01*
X38810250Y-59987000D02*
X37897750Y-59987000D01*
G75*
G02*
X37654000Y-59743250I0J243750D01*
G01*
X37654000Y-59255750D01*
G75*
G02*
X37897750Y-59012000I243750J0D01*
G01*
X38810250Y-59012000D01*
G75*
G02*
X39054000Y-59255750I0J-243750D01*
G01*
X39054000Y-59743250D01*
G75*
G02*
X38810250Y-59987000I-243750J0D01*
G01*
G37*
G36*
G01*
X38810250Y-61862000D02*
X37897750Y-61862000D01*
G75*
G02*
X37654000Y-61618250I0J243750D01*
G01*
X37654000Y-61130750D01*
G75*
G02*
X37897750Y-60887000I243750J0D01*
G01*
X38810250Y-60887000D01*
G75*
G02*
X39054000Y-61130750I0J-243750D01*
G01*
X39054000Y-61618250D01*
G75*
G02*
X38810250Y-61862000I-243750J0D01*
G01*
G37*
%TD*%
M02*
