%TF.GenerationSoftware,KiCad,Pcbnew,5.1.7-a382d34a8~88~ubuntu20.04.1*%
%TF.CreationDate,2021-01-11T19:53:58+01:00*%
%TF.ProjectId,BioElectricalSensor,42696f45-6c65-4637-9472-6963616c5365,rev?*%
%TF.SameCoordinates,Original*%
%TF.FileFunction,Paste,Top*%
%TF.FilePolarity,Positive*%
%FSLAX46Y46*%
G04 Gerber Fmt 4.6, Leading zero omitted, Abs format (unit mm)*
G04 Created by KiCad (PCBNEW 5.1.7-a382d34a8~88~ubuntu20.04.1) date 2021-01-11 19:53:58*
%MOMM*%
%LPD*%
G01*
G04 APERTURE LIST*
%ADD10R,0.650000X1.060000*%
%ADD11R,1.200000X0.900000*%
%ADD12R,2.400000X2.000000*%
%ADD13R,0.700000X1.600000*%
%ADD14R,1.200000X2.200000*%
%ADD15R,1.200000X1.500000*%
%ADD16R,1.600000X1.500000*%
%ADD17R,1.500000X1.500000*%
%ADD18R,0.600000X1.450000*%
%ADD19R,0.300000X1.450000*%
%ADD20R,0.500000X0.800000*%
%ADD21R,0.400000X0.800000*%
%ADD22R,1.500000X2.000000*%
%ADD23R,3.800000X2.000000*%
G04 APERTURE END LIST*
%TO.C,C15*%
G36*
G01*
X103640800Y-46044080D02*
X104740800Y-46044080D01*
G75*
G02*
X104990800Y-46294080I0J-250000D01*
G01*
X104990800Y-48794080D01*
G75*
G02*
X104740800Y-49044080I-250000J0D01*
G01*
X103640800Y-49044080D01*
G75*
G02*
X103390800Y-48794080I0J250000D01*
G01*
X103390800Y-46294080D01*
G75*
G02*
X103640800Y-46044080I250000J0D01*
G01*
G37*
G36*
G01*
X103640800Y-41644080D02*
X104740800Y-41644080D01*
G75*
G02*
X104990800Y-41894080I0J-250000D01*
G01*
X104990800Y-44394080D01*
G75*
G02*
X104740800Y-44644080I-250000J0D01*
G01*
X103640800Y-44644080D01*
G75*
G02*
X103390800Y-44394080I0J250000D01*
G01*
X103390800Y-41894080D01*
G75*
G02*
X103640800Y-41644080I250000J0D01*
G01*
G37*
%TD*%
%TO.C,C25*%
G36*
G01*
X105123160Y-36084830D02*
X105123160Y-35172330D01*
G75*
G02*
X105366910Y-34928580I243750J0D01*
G01*
X105854410Y-34928580D01*
G75*
G02*
X106098160Y-35172330I0J-243750D01*
G01*
X106098160Y-36084830D01*
G75*
G02*
X105854410Y-36328580I-243750J0D01*
G01*
X105366910Y-36328580D01*
G75*
G02*
X105123160Y-36084830I0J243750D01*
G01*
G37*
G36*
G01*
X103248160Y-36084830D02*
X103248160Y-35172330D01*
G75*
G02*
X103491910Y-34928580I243750J0D01*
G01*
X103979410Y-34928580D01*
G75*
G02*
X104223160Y-35172330I0J-243750D01*
G01*
X104223160Y-36084830D01*
G75*
G02*
X103979410Y-36328580I-243750J0D01*
G01*
X103491910Y-36328580D01*
G75*
G02*
X103248160Y-36084830I0J243750D01*
G01*
G37*
%TD*%
%TO.C,C43*%
G36*
G01*
X104521660Y-27893330D02*
X104521660Y-26980830D01*
G75*
G02*
X104765410Y-26737080I243750J0D01*
G01*
X105252910Y-26737080D01*
G75*
G02*
X105496660Y-26980830I0J-243750D01*
G01*
X105496660Y-27893330D01*
G75*
G02*
X105252910Y-28137080I-243750J0D01*
G01*
X104765410Y-28137080D01*
G75*
G02*
X104521660Y-27893330I0J243750D01*
G01*
G37*
G36*
G01*
X102646660Y-27893330D02*
X102646660Y-26980830D01*
G75*
G02*
X102890410Y-26737080I243750J0D01*
G01*
X103377910Y-26737080D01*
G75*
G02*
X103621660Y-26980830I0J-243750D01*
G01*
X103621660Y-27893330D01*
G75*
G02*
X103377910Y-28137080I-243750J0D01*
G01*
X102890410Y-28137080D01*
G75*
G02*
X102646660Y-27893330I0J243750D01*
G01*
G37*
%TD*%
%TO.C,C24*%
G36*
G01*
X103651660Y-29139830D02*
X103651660Y-30052330D01*
G75*
G02*
X103407910Y-30296080I-243750J0D01*
G01*
X102920410Y-30296080D01*
G75*
G02*
X102676660Y-30052330I0J243750D01*
G01*
X102676660Y-29139830D01*
G75*
G02*
X102920410Y-28896080I243750J0D01*
G01*
X103407910Y-28896080D01*
G75*
G02*
X103651660Y-29139830I0J-243750D01*
G01*
G37*
G36*
G01*
X105526660Y-29139830D02*
X105526660Y-30052330D01*
G75*
G02*
X105282910Y-30296080I-243750J0D01*
G01*
X104795410Y-30296080D01*
G75*
G02*
X104551660Y-30052330I0J243750D01*
G01*
X104551660Y-29139830D01*
G75*
G02*
X104795410Y-28896080I243750J0D01*
G01*
X105282910Y-28896080D01*
G75*
G02*
X105526660Y-29139830I0J-243750D01*
G01*
G37*
%TD*%
D10*
%TO.C,U10*%
X103957160Y-33701080D03*
X104907160Y-33701080D03*
X103007160Y-33701080D03*
X103007160Y-31501080D03*
X103957160Y-31501080D03*
X104907160Y-31501080D03*
%TD*%
D11*
%TO.C,D4*%
X97355660Y-57089580D03*
X97355660Y-53789580D03*
%TD*%
D12*
%TO.C,Y2*%
X78750160Y-58552080D03*
X78750160Y-62252080D03*
%TD*%
D13*
%TO.C,J5*%
X63564160Y-67439080D03*
D14*
X77864160Y-78039080D03*
X62364160Y-78039080D03*
D15*
X62364160Y-68439080D03*
D16*
X76964160Y-68439080D03*
D13*
X64664160Y-67439080D03*
X65764160Y-67439080D03*
X66864160Y-67439080D03*
X67964160Y-67439080D03*
X69064160Y-67439080D03*
X70164160Y-67439080D03*
X71264160Y-67439080D03*
X72364160Y-67439080D03*
%TD*%
D11*
%TO.C,D9*%
X99832160Y-57089580D03*
X99832160Y-53789580D03*
%TD*%
%TO.C,C10*%
G36*
G01*
X81323160Y-59507580D02*
X82273160Y-59507580D01*
G75*
G02*
X82523160Y-59757580I0J-250000D01*
G01*
X82523160Y-60257580D01*
G75*
G02*
X82273160Y-60507580I-250000J0D01*
G01*
X81323160Y-60507580D01*
G75*
G02*
X81073160Y-60257580I0J250000D01*
G01*
X81073160Y-59757580D01*
G75*
G02*
X81323160Y-59507580I250000J0D01*
G01*
G37*
G36*
G01*
X81323160Y-57607580D02*
X82273160Y-57607580D01*
G75*
G02*
X82523160Y-57857580I0J-250000D01*
G01*
X82523160Y-58357580D01*
G75*
G02*
X82273160Y-58607580I-250000J0D01*
G01*
X81323160Y-58607580D01*
G75*
G02*
X81073160Y-58357580I0J250000D01*
G01*
X81073160Y-57857580D01*
G75*
G02*
X81323160Y-57607580I250000J0D01*
G01*
G37*
%TD*%
%TO.C,C8*%
G36*
G01*
X82273160Y-62100080D02*
X81323160Y-62100080D01*
G75*
G02*
X81073160Y-61850080I0J250000D01*
G01*
X81073160Y-61350080D01*
G75*
G02*
X81323160Y-61100080I250000J0D01*
G01*
X82273160Y-61100080D01*
G75*
G02*
X82523160Y-61350080I0J-250000D01*
G01*
X82523160Y-61850080D01*
G75*
G02*
X82273160Y-62100080I-250000J0D01*
G01*
G37*
G36*
G01*
X82273160Y-64000080D02*
X81323160Y-64000080D01*
G75*
G02*
X81073160Y-63750080I0J250000D01*
G01*
X81073160Y-63250080D01*
G75*
G02*
X81323160Y-63000080I250000J0D01*
G01*
X82273160Y-63000080D01*
G75*
G02*
X82523160Y-63250080I0J-250000D01*
G01*
X82523160Y-63750080D01*
G75*
G02*
X82273160Y-64000080I-250000J0D01*
G01*
G37*
%TD*%
%TO.C,C1*%
G36*
G01*
X87914660Y-81804830D02*
X87914660Y-80892330D01*
G75*
G02*
X88158410Y-80648580I243750J0D01*
G01*
X88645910Y-80648580D01*
G75*
G02*
X88889660Y-80892330I0J-243750D01*
G01*
X88889660Y-81804830D01*
G75*
G02*
X88645910Y-82048580I-243750J0D01*
G01*
X88158410Y-82048580D01*
G75*
G02*
X87914660Y-81804830I0J243750D01*
G01*
G37*
G36*
G01*
X86039660Y-81804830D02*
X86039660Y-80892330D01*
G75*
G02*
X86283410Y-80648580I243750J0D01*
G01*
X86770910Y-80648580D01*
G75*
G02*
X87014660Y-80892330I0J-243750D01*
G01*
X87014660Y-81804830D01*
G75*
G02*
X86770910Y-82048580I-243750J0D01*
G01*
X86283410Y-82048580D01*
G75*
G02*
X86039660Y-81804830I0J243750D01*
G01*
G37*
%TD*%
D12*
%TO.C,Y1*%
X93291660Y-67679080D03*
X93291660Y-71379080D03*
%TD*%
D17*
%TO.C,SW2*%
X84147660Y-58234580D03*
X91947660Y-58234580D03*
%TD*%
%TO.C,R13*%
G36*
G01*
X81743500Y-79571001D02*
X81743500Y-78670999D01*
G75*
G02*
X81993499Y-78421000I249999J0D01*
G01*
X82518501Y-78421000D01*
G75*
G02*
X82768500Y-78670999I0J-249999D01*
G01*
X82768500Y-79571001D01*
G75*
G02*
X82518501Y-79821000I-249999J0D01*
G01*
X81993499Y-79821000D01*
G75*
G02*
X81743500Y-79571001I0J249999D01*
G01*
G37*
G36*
G01*
X79918500Y-79571001D02*
X79918500Y-78670999D01*
G75*
G02*
X80168499Y-78421000I249999J0D01*
G01*
X80693501Y-78421000D01*
G75*
G02*
X80943500Y-78670999I0J-249999D01*
G01*
X80943500Y-79571001D01*
G75*
G02*
X80693501Y-79821000I-249999J0D01*
G01*
X80168499Y-79821000D01*
G75*
G02*
X79918500Y-79571001I0J249999D01*
G01*
G37*
%TD*%
%TO.C,R12*%
G36*
G01*
X85222660Y-55573081D02*
X85222660Y-54673079D01*
G75*
G02*
X85472659Y-54423080I249999J0D01*
G01*
X85997661Y-54423080D01*
G75*
G02*
X86247660Y-54673079I0J-249999D01*
G01*
X86247660Y-55573081D01*
G75*
G02*
X85997661Y-55823080I-249999J0D01*
G01*
X85472659Y-55823080D01*
G75*
G02*
X85222660Y-55573081I0J249999D01*
G01*
G37*
G36*
G01*
X83397660Y-55573081D02*
X83397660Y-54673079D01*
G75*
G02*
X83647659Y-54423080I249999J0D01*
G01*
X84172661Y-54423080D01*
G75*
G02*
X84422660Y-54673079I0J-249999D01*
G01*
X84422660Y-55573081D01*
G75*
G02*
X84172661Y-55823080I-249999J0D01*
G01*
X83647659Y-55823080D01*
G75*
G02*
X83397660Y-55573081I0J249999D01*
G01*
G37*
%TD*%
%TO.C,D3*%
G36*
G01*
X80893500Y-76632750D02*
X80893500Y-77545250D01*
G75*
G02*
X80649750Y-77789000I-243750J0D01*
G01*
X80162250Y-77789000D01*
G75*
G02*
X79918500Y-77545250I0J243750D01*
G01*
X79918500Y-76632750D01*
G75*
G02*
X80162250Y-76389000I243750J0D01*
G01*
X80649750Y-76389000D01*
G75*
G02*
X80893500Y-76632750I0J-243750D01*
G01*
G37*
G36*
G01*
X82768500Y-76632750D02*
X82768500Y-77545250D01*
G75*
G02*
X82524750Y-77789000I-243750J0D01*
G01*
X82037250Y-77789000D01*
G75*
G02*
X81793500Y-77545250I0J243750D01*
G01*
X81793500Y-76632750D01*
G75*
G02*
X82037250Y-76389000I243750J0D01*
G01*
X82524750Y-76389000D01*
G75*
G02*
X82768500Y-76632750I0J-243750D01*
G01*
G37*
%TD*%
%TO.C,R5*%
G36*
G01*
X76634160Y-66033330D02*
X76634160Y-66945830D01*
G75*
G02*
X76390410Y-67189580I-243750J0D01*
G01*
X75902910Y-67189580D01*
G75*
G02*
X75659160Y-66945830I0J243750D01*
G01*
X75659160Y-66033330D01*
G75*
G02*
X75902910Y-65789580I243750J0D01*
G01*
X76390410Y-65789580D01*
G75*
G02*
X76634160Y-66033330I0J-243750D01*
G01*
G37*
G36*
G01*
X78509160Y-66033330D02*
X78509160Y-66945830D01*
G75*
G02*
X78265410Y-67189580I-243750J0D01*
G01*
X77777910Y-67189580D01*
G75*
G02*
X77534160Y-66945830I0J243750D01*
G01*
X77534160Y-66033330D01*
G75*
G02*
X77777910Y-65789580I243750J0D01*
G01*
X78265410Y-65789580D01*
G75*
G02*
X78509160Y-66033330I0J-243750D01*
G01*
G37*
%TD*%
%TO.C,C20*%
G36*
G01*
X104352320Y-39224399D02*
X104352320Y-40074401D01*
G75*
G02*
X104102321Y-40324400I-249999J0D01*
G01*
X103202319Y-40324400D01*
G75*
G02*
X102952320Y-40074401I0J249999D01*
G01*
X102952320Y-39224399D01*
G75*
G02*
X103202319Y-38974400I249999J0D01*
G01*
X104102321Y-38974400D01*
G75*
G02*
X104352320Y-39224399I0J-249999D01*
G01*
G37*
G36*
G01*
X107052320Y-39224399D02*
X107052320Y-40074401D01*
G75*
G02*
X106802321Y-40324400I-249999J0D01*
G01*
X105902319Y-40324400D01*
G75*
G02*
X105652320Y-40074401I0J249999D01*
G01*
X105652320Y-39224399D01*
G75*
G02*
X105902319Y-38974400I249999J0D01*
G01*
X106802321Y-38974400D01*
G75*
G02*
X107052320Y-39224399I0J-249999D01*
G01*
G37*
%TD*%
%TO.C,C17*%
G36*
G01*
X94646430Y-58636320D02*
X95558930Y-58636320D01*
G75*
G02*
X95802680Y-58880070I0J-243750D01*
G01*
X95802680Y-59367570D01*
G75*
G02*
X95558930Y-59611320I-243750J0D01*
G01*
X94646430Y-59611320D01*
G75*
G02*
X94402680Y-59367570I0J243750D01*
G01*
X94402680Y-58880070D01*
G75*
G02*
X94646430Y-58636320I243750J0D01*
G01*
G37*
G36*
G01*
X94646430Y-56761320D02*
X95558930Y-56761320D01*
G75*
G02*
X95802680Y-57005070I0J-243750D01*
G01*
X95802680Y-57492570D01*
G75*
G02*
X95558930Y-57736320I-243750J0D01*
G01*
X94646430Y-57736320D01*
G75*
G02*
X94402680Y-57492570I0J243750D01*
G01*
X94402680Y-57005070D01*
G75*
G02*
X94646430Y-56761320I243750J0D01*
G01*
G37*
%TD*%
%TO.C,C49*%
G36*
G01*
X104638790Y-61857040D02*
X105551290Y-61857040D01*
G75*
G02*
X105795040Y-62100790I0J-243750D01*
G01*
X105795040Y-62588290D01*
G75*
G02*
X105551290Y-62832040I-243750J0D01*
G01*
X104638790Y-62832040D01*
G75*
G02*
X104395040Y-62588290I0J243750D01*
G01*
X104395040Y-62100790D01*
G75*
G02*
X104638790Y-61857040I243750J0D01*
G01*
G37*
G36*
G01*
X104638790Y-59982040D02*
X105551290Y-59982040D01*
G75*
G02*
X105795040Y-60225790I0J-243750D01*
G01*
X105795040Y-60713290D01*
G75*
G02*
X105551290Y-60957040I-243750J0D01*
G01*
X104638790Y-60957040D01*
G75*
G02*
X104395040Y-60713290I0J243750D01*
G01*
X104395040Y-60225790D01*
G75*
G02*
X104638790Y-59982040I243750J0D01*
G01*
G37*
%TD*%
%TO.C,C48*%
G36*
G01*
X104654030Y-66982760D02*
X105566530Y-66982760D01*
G75*
G02*
X105810280Y-67226510I0J-243750D01*
G01*
X105810280Y-67714010D01*
G75*
G02*
X105566530Y-67957760I-243750J0D01*
G01*
X104654030Y-67957760D01*
G75*
G02*
X104410280Y-67714010I0J243750D01*
G01*
X104410280Y-67226510D01*
G75*
G02*
X104654030Y-66982760I243750J0D01*
G01*
G37*
G36*
G01*
X104654030Y-65107760D02*
X105566530Y-65107760D01*
G75*
G02*
X105810280Y-65351510I0J-243750D01*
G01*
X105810280Y-65839010D01*
G75*
G02*
X105566530Y-66082760I-243750J0D01*
G01*
X104654030Y-66082760D01*
G75*
G02*
X104410280Y-65839010I0J243750D01*
G01*
X104410280Y-65351510D01*
G75*
G02*
X104654030Y-65107760I243750J0D01*
G01*
G37*
%TD*%
%TO.C,R11*%
G36*
G01*
X103590410Y-71231580D02*
X102677910Y-71231580D01*
G75*
G02*
X102434160Y-70987830I0J243750D01*
G01*
X102434160Y-70500330D01*
G75*
G02*
X102677910Y-70256580I243750J0D01*
G01*
X103590410Y-70256580D01*
G75*
G02*
X103834160Y-70500330I0J-243750D01*
G01*
X103834160Y-70987830D01*
G75*
G02*
X103590410Y-71231580I-243750J0D01*
G01*
G37*
G36*
G01*
X103590410Y-73106580D02*
X102677910Y-73106580D01*
G75*
G02*
X102434160Y-72862830I0J243750D01*
G01*
X102434160Y-72375330D01*
G75*
G02*
X102677910Y-72131580I243750J0D01*
G01*
X103590410Y-72131580D01*
G75*
G02*
X103834160Y-72375330I0J-243750D01*
G01*
X103834160Y-72862830D01*
G75*
G02*
X103590410Y-73106580I-243750J0D01*
G01*
G37*
%TD*%
%TO.C,R10*%
G36*
G01*
X100605910Y-71231580D02*
X99693410Y-71231580D01*
G75*
G02*
X99449660Y-70987830I0J243750D01*
G01*
X99449660Y-70500330D01*
G75*
G02*
X99693410Y-70256580I243750J0D01*
G01*
X100605910Y-70256580D01*
G75*
G02*
X100849660Y-70500330I0J-243750D01*
G01*
X100849660Y-70987830D01*
G75*
G02*
X100605910Y-71231580I-243750J0D01*
G01*
G37*
G36*
G01*
X100605910Y-73106580D02*
X99693410Y-73106580D01*
G75*
G02*
X99449660Y-72862830I0J243750D01*
G01*
X99449660Y-72375330D01*
G75*
G02*
X99693410Y-72131580I243750J0D01*
G01*
X100605910Y-72131580D01*
G75*
G02*
X100849660Y-72375330I0J-243750D01*
G01*
X100849660Y-72862830D01*
G75*
G02*
X100605910Y-73106580I-243750J0D01*
G01*
G37*
%TD*%
D18*
%TO.C,P1*%
X104641660Y-74617580D03*
X103841660Y-74617580D03*
X98941660Y-74617580D03*
X98141660Y-74617580D03*
X98141660Y-74617580D03*
X98941660Y-74617580D03*
X103841660Y-74617580D03*
X104641660Y-74617580D03*
D19*
X99641660Y-74617580D03*
X100141660Y-74617580D03*
X100641660Y-74617580D03*
X101641660Y-74617580D03*
X102141660Y-74617580D03*
X102641660Y-74617580D03*
X103141660Y-74617580D03*
X101141660Y-74617580D03*
%TD*%
D20*
%TO.C,RN2*%
X81607660Y-34126580D03*
D21*
X82407660Y-34126580D03*
D20*
X84007660Y-34126580D03*
D21*
X83207660Y-34126580D03*
D20*
X81607660Y-32326580D03*
D21*
X83207660Y-32326580D03*
X82407660Y-32326580D03*
D20*
X84007660Y-32326580D03*
%TD*%
%TO.C,RN3*%
X76273660Y-34126580D03*
D21*
X77073660Y-34126580D03*
D20*
X78673660Y-34126580D03*
D21*
X77873660Y-34126580D03*
D20*
X76273660Y-32326580D03*
D21*
X77873660Y-32326580D03*
X77073660Y-32326580D03*
D20*
X78673660Y-32326580D03*
%TD*%
%TO.C,RN1*%
X86433660Y-34104580D03*
D21*
X87233660Y-34104580D03*
D20*
X88833660Y-34104580D03*
D21*
X88033660Y-34104580D03*
D20*
X86433660Y-32304580D03*
D21*
X88033660Y-32304580D03*
X87233660Y-32304580D03*
D20*
X88833660Y-32304580D03*
%TD*%
%TO.C,RN4*%
X71193660Y-34126580D03*
D21*
X71993660Y-34126580D03*
D20*
X73593660Y-34126580D03*
D21*
X72793660Y-34126580D03*
D20*
X71193660Y-32326580D03*
D21*
X72793660Y-32326580D03*
X71993660Y-32326580D03*
D20*
X73593660Y-32326580D03*
%TD*%
%TO.C,RN5*%
X65224660Y-34126580D03*
D21*
X66024660Y-34126580D03*
D20*
X67624660Y-34126580D03*
D21*
X66824660Y-34126580D03*
D20*
X65224660Y-32326580D03*
D21*
X66824660Y-32326580D03*
X66024660Y-32326580D03*
D20*
X67624660Y-32326580D03*
%TD*%
%TO.C,C39*%
G36*
G01*
X67393160Y-48507330D02*
X67393160Y-49419830D01*
G75*
G02*
X67149410Y-49663580I-243750J0D01*
G01*
X66661910Y-49663580D01*
G75*
G02*
X66418160Y-49419830I0J243750D01*
G01*
X66418160Y-48507330D01*
G75*
G02*
X66661910Y-48263580I243750J0D01*
G01*
X67149410Y-48263580D01*
G75*
G02*
X67393160Y-48507330I0J-243750D01*
G01*
G37*
G36*
G01*
X69268160Y-48507330D02*
X69268160Y-49419830D01*
G75*
G02*
X69024410Y-49663580I-243750J0D01*
G01*
X68536910Y-49663580D01*
G75*
G02*
X68293160Y-49419830I0J243750D01*
G01*
X68293160Y-48507330D01*
G75*
G02*
X68536910Y-48263580I243750J0D01*
G01*
X69024410Y-48263580D01*
G75*
G02*
X69268160Y-48507330I0J-243750D01*
G01*
G37*
%TD*%
D10*
%TO.C,U15*%
X101038660Y-29446580D03*
X99138660Y-29446580D03*
X99138660Y-27246580D03*
X100088660Y-27246580D03*
X101038660Y-27246580D03*
%TD*%
%TO.C,U11*%
X100025160Y-35481080D03*
X101925160Y-35481080D03*
X101925160Y-37681080D03*
X100975160Y-37681080D03*
X100025160Y-37681080D03*
%TD*%
%TO.C,U8*%
G36*
G01*
X82035660Y-42142580D02*
X83360660Y-42142580D01*
G75*
G02*
X83435660Y-42217580I0J-75000D01*
G01*
X83435660Y-42367580D01*
G75*
G02*
X83360660Y-42442580I-75000J0D01*
G01*
X82035660Y-42442580D01*
G75*
G02*
X81960660Y-42367580I0J75000D01*
G01*
X81960660Y-42217580D01*
G75*
G02*
X82035660Y-42142580I75000J0D01*
G01*
G37*
G36*
G01*
X82035660Y-42642580D02*
X83360660Y-42642580D01*
G75*
G02*
X83435660Y-42717580I0J-75000D01*
G01*
X83435660Y-42867580D01*
G75*
G02*
X83360660Y-42942580I-75000J0D01*
G01*
X82035660Y-42942580D01*
G75*
G02*
X81960660Y-42867580I0J75000D01*
G01*
X81960660Y-42717580D01*
G75*
G02*
X82035660Y-42642580I75000J0D01*
G01*
G37*
G36*
G01*
X82035660Y-43142580D02*
X83360660Y-43142580D01*
G75*
G02*
X83435660Y-43217580I0J-75000D01*
G01*
X83435660Y-43367580D01*
G75*
G02*
X83360660Y-43442580I-75000J0D01*
G01*
X82035660Y-43442580D01*
G75*
G02*
X81960660Y-43367580I0J75000D01*
G01*
X81960660Y-43217580D01*
G75*
G02*
X82035660Y-43142580I75000J0D01*
G01*
G37*
G36*
G01*
X82035660Y-43642580D02*
X83360660Y-43642580D01*
G75*
G02*
X83435660Y-43717580I0J-75000D01*
G01*
X83435660Y-43867580D01*
G75*
G02*
X83360660Y-43942580I-75000J0D01*
G01*
X82035660Y-43942580D01*
G75*
G02*
X81960660Y-43867580I0J75000D01*
G01*
X81960660Y-43717580D01*
G75*
G02*
X82035660Y-43642580I75000J0D01*
G01*
G37*
G36*
G01*
X82035660Y-44142580D02*
X83360660Y-44142580D01*
G75*
G02*
X83435660Y-44217580I0J-75000D01*
G01*
X83435660Y-44367580D01*
G75*
G02*
X83360660Y-44442580I-75000J0D01*
G01*
X82035660Y-44442580D01*
G75*
G02*
X81960660Y-44367580I0J75000D01*
G01*
X81960660Y-44217580D01*
G75*
G02*
X82035660Y-44142580I75000J0D01*
G01*
G37*
G36*
G01*
X82035660Y-44642580D02*
X83360660Y-44642580D01*
G75*
G02*
X83435660Y-44717580I0J-75000D01*
G01*
X83435660Y-44867580D01*
G75*
G02*
X83360660Y-44942580I-75000J0D01*
G01*
X82035660Y-44942580D01*
G75*
G02*
X81960660Y-44867580I0J75000D01*
G01*
X81960660Y-44717580D01*
G75*
G02*
X82035660Y-44642580I75000J0D01*
G01*
G37*
G36*
G01*
X82035660Y-45142580D02*
X83360660Y-45142580D01*
G75*
G02*
X83435660Y-45217580I0J-75000D01*
G01*
X83435660Y-45367580D01*
G75*
G02*
X83360660Y-45442580I-75000J0D01*
G01*
X82035660Y-45442580D01*
G75*
G02*
X81960660Y-45367580I0J75000D01*
G01*
X81960660Y-45217580D01*
G75*
G02*
X82035660Y-45142580I75000J0D01*
G01*
G37*
G36*
G01*
X82035660Y-45642580D02*
X83360660Y-45642580D01*
G75*
G02*
X83435660Y-45717580I0J-75000D01*
G01*
X83435660Y-45867580D01*
G75*
G02*
X83360660Y-45942580I-75000J0D01*
G01*
X82035660Y-45942580D01*
G75*
G02*
X81960660Y-45867580I0J75000D01*
G01*
X81960660Y-45717580D01*
G75*
G02*
X82035660Y-45642580I75000J0D01*
G01*
G37*
G36*
G01*
X82035660Y-46142580D02*
X83360660Y-46142580D01*
G75*
G02*
X83435660Y-46217580I0J-75000D01*
G01*
X83435660Y-46367580D01*
G75*
G02*
X83360660Y-46442580I-75000J0D01*
G01*
X82035660Y-46442580D01*
G75*
G02*
X81960660Y-46367580I0J75000D01*
G01*
X81960660Y-46217580D01*
G75*
G02*
X82035660Y-46142580I75000J0D01*
G01*
G37*
G36*
G01*
X82035660Y-46642580D02*
X83360660Y-46642580D01*
G75*
G02*
X83435660Y-46717580I0J-75000D01*
G01*
X83435660Y-46867580D01*
G75*
G02*
X83360660Y-46942580I-75000J0D01*
G01*
X82035660Y-46942580D01*
G75*
G02*
X81960660Y-46867580I0J75000D01*
G01*
X81960660Y-46717580D01*
G75*
G02*
X82035660Y-46642580I75000J0D01*
G01*
G37*
G36*
G01*
X82035660Y-47142580D02*
X83360660Y-47142580D01*
G75*
G02*
X83435660Y-47217580I0J-75000D01*
G01*
X83435660Y-47367580D01*
G75*
G02*
X83360660Y-47442580I-75000J0D01*
G01*
X82035660Y-47442580D01*
G75*
G02*
X81960660Y-47367580I0J75000D01*
G01*
X81960660Y-47217580D01*
G75*
G02*
X82035660Y-47142580I75000J0D01*
G01*
G37*
G36*
G01*
X82035660Y-47642580D02*
X83360660Y-47642580D01*
G75*
G02*
X83435660Y-47717580I0J-75000D01*
G01*
X83435660Y-47867580D01*
G75*
G02*
X83360660Y-47942580I-75000J0D01*
G01*
X82035660Y-47942580D01*
G75*
G02*
X81960660Y-47867580I0J75000D01*
G01*
X81960660Y-47717580D01*
G75*
G02*
X82035660Y-47642580I75000J0D01*
G01*
G37*
G36*
G01*
X82035660Y-48142580D02*
X83360660Y-48142580D01*
G75*
G02*
X83435660Y-48217580I0J-75000D01*
G01*
X83435660Y-48367580D01*
G75*
G02*
X83360660Y-48442580I-75000J0D01*
G01*
X82035660Y-48442580D01*
G75*
G02*
X81960660Y-48367580I0J75000D01*
G01*
X81960660Y-48217580D01*
G75*
G02*
X82035660Y-48142580I75000J0D01*
G01*
G37*
G36*
G01*
X82035660Y-48642580D02*
X83360660Y-48642580D01*
G75*
G02*
X83435660Y-48717580I0J-75000D01*
G01*
X83435660Y-48867580D01*
G75*
G02*
X83360660Y-48942580I-75000J0D01*
G01*
X82035660Y-48942580D01*
G75*
G02*
X81960660Y-48867580I0J75000D01*
G01*
X81960660Y-48717580D01*
G75*
G02*
X82035660Y-48642580I75000J0D01*
G01*
G37*
G36*
G01*
X82035660Y-49142580D02*
X83360660Y-49142580D01*
G75*
G02*
X83435660Y-49217580I0J-75000D01*
G01*
X83435660Y-49367580D01*
G75*
G02*
X83360660Y-49442580I-75000J0D01*
G01*
X82035660Y-49442580D01*
G75*
G02*
X81960660Y-49367580I0J75000D01*
G01*
X81960660Y-49217580D01*
G75*
G02*
X82035660Y-49142580I75000J0D01*
G01*
G37*
G36*
G01*
X82035660Y-49642580D02*
X83360660Y-49642580D01*
G75*
G02*
X83435660Y-49717580I0J-75000D01*
G01*
X83435660Y-49867580D01*
G75*
G02*
X83360660Y-49942580I-75000J0D01*
G01*
X82035660Y-49942580D01*
G75*
G02*
X81960660Y-49867580I0J75000D01*
G01*
X81960660Y-49717580D01*
G75*
G02*
X82035660Y-49642580I75000J0D01*
G01*
G37*
G36*
G01*
X80710660Y-50967580D02*
X80860660Y-50967580D01*
G75*
G02*
X80935660Y-51042580I0J-75000D01*
G01*
X80935660Y-52367580D01*
G75*
G02*
X80860660Y-52442580I-75000J0D01*
G01*
X80710660Y-52442580D01*
G75*
G02*
X80635660Y-52367580I0J75000D01*
G01*
X80635660Y-51042580D01*
G75*
G02*
X80710660Y-50967580I75000J0D01*
G01*
G37*
G36*
G01*
X80210660Y-50967580D02*
X80360660Y-50967580D01*
G75*
G02*
X80435660Y-51042580I0J-75000D01*
G01*
X80435660Y-52367580D01*
G75*
G02*
X80360660Y-52442580I-75000J0D01*
G01*
X80210660Y-52442580D01*
G75*
G02*
X80135660Y-52367580I0J75000D01*
G01*
X80135660Y-51042580D01*
G75*
G02*
X80210660Y-50967580I75000J0D01*
G01*
G37*
G36*
G01*
X79710660Y-50967580D02*
X79860660Y-50967580D01*
G75*
G02*
X79935660Y-51042580I0J-75000D01*
G01*
X79935660Y-52367580D01*
G75*
G02*
X79860660Y-52442580I-75000J0D01*
G01*
X79710660Y-52442580D01*
G75*
G02*
X79635660Y-52367580I0J75000D01*
G01*
X79635660Y-51042580D01*
G75*
G02*
X79710660Y-50967580I75000J0D01*
G01*
G37*
G36*
G01*
X79210660Y-50967580D02*
X79360660Y-50967580D01*
G75*
G02*
X79435660Y-51042580I0J-75000D01*
G01*
X79435660Y-52367580D01*
G75*
G02*
X79360660Y-52442580I-75000J0D01*
G01*
X79210660Y-52442580D01*
G75*
G02*
X79135660Y-52367580I0J75000D01*
G01*
X79135660Y-51042580D01*
G75*
G02*
X79210660Y-50967580I75000J0D01*
G01*
G37*
G36*
G01*
X78710660Y-50967580D02*
X78860660Y-50967580D01*
G75*
G02*
X78935660Y-51042580I0J-75000D01*
G01*
X78935660Y-52367580D01*
G75*
G02*
X78860660Y-52442580I-75000J0D01*
G01*
X78710660Y-52442580D01*
G75*
G02*
X78635660Y-52367580I0J75000D01*
G01*
X78635660Y-51042580D01*
G75*
G02*
X78710660Y-50967580I75000J0D01*
G01*
G37*
G36*
G01*
X78210660Y-50967580D02*
X78360660Y-50967580D01*
G75*
G02*
X78435660Y-51042580I0J-75000D01*
G01*
X78435660Y-52367580D01*
G75*
G02*
X78360660Y-52442580I-75000J0D01*
G01*
X78210660Y-52442580D01*
G75*
G02*
X78135660Y-52367580I0J75000D01*
G01*
X78135660Y-51042580D01*
G75*
G02*
X78210660Y-50967580I75000J0D01*
G01*
G37*
G36*
G01*
X77710660Y-50967580D02*
X77860660Y-50967580D01*
G75*
G02*
X77935660Y-51042580I0J-75000D01*
G01*
X77935660Y-52367580D01*
G75*
G02*
X77860660Y-52442580I-75000J0D01*
G01*
X77710660Y-52442580D01*
G75*
G02*
X77635660Y-52367580I0J75000D01*
G01*
X77635660Y-51042580D01*
G75*
G02*
X77710660Y-50967580I75000J0D01*
G01*
G37*
G36*
G01*
X77210660Y-50967580D02*
X77360660Y-50967580D01*
G75*
G02*
X77435660Y-51042580I0J-75000D01*
G01*
X77435660Y-52367580D01*
G75*
G02*
X77360660Y-52442580I-75000J0D01*
G01*
X77210660Y-52442580D01*
G75*
G02*
X77135660Y-52367580I0J75000D01*
G01*
X77135660Y-51042580D01*
G75*
G02*
X77210660Y-50967580I75000J0D01*
G01*
G37*
G36*
G01*
X76710660Y-50967580D02*
X76860660Y-50967580D01*
G75*
G02*
X76935660Y-51042580I0J-75000D01*
G01*
X76935660Y-52367580D01*
G75*
G02*
X76860660Y-52442580I-75000J0D01*
G01*
X76710660Y-52442580D01*
G75*
G02*
X76635660Y-52367580I0J75000D01*
G01*
X76635660Y-51042580D01*
G75*
G02*
X76710660Y-50967580I75000J0D01*
G01*
G37*
G36*
G01*
X76210660Y-50967580D02*
X76360660Y-50967580D01*
G75*
G02*
X76435660Y-51042580I0J-75000D01*
G01*
X76435660Y-52367580D01*
G75*
G02*
X76360660Y-52442580I-75000J0D01*
G01*
X76210660Y-52442580D01*
G75*
G02*
X76135660Y-52367580I0J75000D01*
G01*
X76135660Y-51042580D01*
G75*
G02*
X76210660Y-50967580I75000J0D01*
G01*
G37*
G36*
G01*
X75710660Y-50967580D02*
X75860660Y-50967580D01*
G75*
G02*
X75935660Y-51042580I0J-75000D01*
G01*
X75935660Y-52367580D01*
G75*
G02*
X75860660Y-52442580I-75000J0D01*
G01*
X75710660Y-52442580D01*
G75*
G02*
X75635660Y-52367580I0J75000D01*
G01*
X75635660Y-51042580D01*
G75*
G02*
X75710660Y-50967580I75000J0D01*
G01*
G37*
G36*
G01*
X75210660Y-50967580D02*
X75360660Y-50967580D01*
G75*
G02*
X75435660Y-51042580I0J-75000D01*
G01*
X75435660Y-52367580D01*
G75*
G02*
X75360660Y-52442580I-75000J0D01*
G01*
X75210660Y-52442580D01*
G75*
G02*
X75135660Y-52367580I0J75000D01*
G01*
X75135660Y-51042580D01*
G75*
G02*
X75210660Y-50967580I75000J0D01*
G01*
G37*
G36*
G01*
X74710660Y-50967580D02*
X74860660Y-50967580D01*
G75*
G02*
X74935660Y-51042580I0J-75000D01*
G01*
X74935660Y-52367580D01*
G75*
G02*
X74860660Y-52442580I-75000J0D01*
G01*
X74710660Y-52442580D01*
G75*
G02*
X74635660Y-52367580I0J75000D01*
G01*
X74635660Y-51042580D01*
G75*
G02*
X74710660Y-50967580I75000J0D01*
G01*
G37*
G36*
G01*
X74210660Y-50967580D02*
X74360660Y-50967580D01*
G75*
G02*
X74435660Y-51042580I0J-75000D01*
G01*
X74435660Y-52367580D01*
G75*
G02*
X74360660Y-52442580I-75000J0D01*
G01*
X74210660Y-52442580D01*
G75*
G02*
X74135660Y-52367580I0J75000D01*
G01*
X74135660Y-51042580D01*
G75*
G02*
X74210660Y-50967580I75000J0D01*
G01*
G37*
G36*
G01*
X73710660Y-50967580D02*
X73860660Y-50967580D01*
G75*
G02*
X73935660Y-51042580I0J-75000D01*
G01*
X73935660Y-52367580D01*
G75*
G02*
X73860660Y-52442580I-75000J0D01*
G01*
X73710660Y-52442580D01*
G75*
G02*
X73635660Y-52367580I0J75000D01*
G01*
X73635660Y-51042580D01*
G75*
G02*
X73710660Y-50967580I75000J0D01*
G01*
G37*
G36*
G01*
X73210660Y-50967580D02*
X73360660Y-50967580D01*
G75*
G02*
X73435660Y-51042580I0J-75000D01*
G01*
X73435660Y-52367580D01*
G75*
G02*
X73360660Y-52442580I-75000J0D01*
G01*
X73210660Y-52442580D01*
G75*
G02*
X73135660Y-52367580I0J75000D01*
G01*
X73135660Y-51042580D01*
G75*
G02*
X73210660Y-50967580I75000J0D01*
G01*
G37*
G36*
G01*
X70710660Y-49642580D02*
X72035660Y-49642580D01*
G75*
G02*
X72110660Y-49717580I0J-75000D01*
G01*
X72110660Y-49867580D01*
G75*
G02*
X72035660Y-49942580I-75000J0D01*
G01*
X70710660Y-49942580D01*
G75*
G02*
X70635660Y-49867580I0J75000D01*
G01*
X70635660Y-49717580D01*
G75*
G02*
X70710660Y-49642580I75000J0D01*
G01*
G37*
G36*
G01*
X70710660Y-49142580D02*
X72035660Y-49142580D01*
G75*
G02*
X72110660Y-49217580I0J-75000D01*
G01*
X72110660Y-49367580D01*
G75*
G02*
X72035660Y-49442580I-75000J0D01*
G01*
X70710660Y-49442580D01*
G75*
G02*
X70635660Y-49367580I0J75000D01*
G01*
X70635660Y-49217580D01*
G75*
G02*
X70710660Y-49142580I75000J0D01*
G01*
G37*
G36*
G01*
X70710660Y-48642580D02*
X72035660Y-48642580D01*
G75*
G02*
X72110660Y-48717580I0J-75000D01*
G01*
X72110660Y-48867580D01*
G75*
G02*
X72035660Y-48942580I-75000J0D01*
G01*
X70710660Y-48942580D01*
G75*
G02*
X70635660Y-48867580I0J75000D01*
G01*
X70635660Y-48717580D01*
G75*
G02*
X70710660Y-48642580I75000J0D01*
G01*
G37*
G36*
G01*
X70710660Y-48142580D02*
X72035660Y-48142580D01*
G75*
G02*
X72110660Y-48217580I0J-75000D01*
G01*
X72110660Y-48367580D01*
G75*
G02*
X72035660Y-48442580I-75000J0D01*
G01*
X70710660Y-48442580D01*
G75*
G02*
X70635660Y-48367580I0J75000D01*
G01*
X70635660Y-48217580D01*
G75*
G02*
X70710660Y-48142580I75000J0D01*
G01*
G37*
G36*
G01*
X70710660Y-47642580D02*
X72035660Y-47642580D01*
G75*
G02*
X72110660Y-47717580I0J-75000D01*
G01*
X72110660Y-47867580D01*
G75*
G02*
X72035660Y-47942580I-75000J0D01*
G01*
X70710660Y-47942580D01*
G75*
G02*
X70635660Y-47867580I0J75000D01*
G01*
X70635660Y-47717580D01*
G75*
G02*
X70710660Y-47642580I75000J0D01*
G01*
G37*
G36*
G01*
X70710660Y-47142580D02*
X72035660Y-47142580D01*
G75*
G02*
X72110660Y-47217580I0J-75000D01*
G01*
X72110660Y-47367580D01*
G75*
G02*
X72035660Y-47442580I-75000J0D01*
G01*
X70710660Y-47442580D01*
G75*
G02*
X70635660Y-47367580I0J75000D01*
G01*
X70635660Y-47217580D01*
G75*
G02*
X70710660Y-47142580I75000J0D01*
G01*
G37*
G36*
G01*
X70710660Y-46642580D02*
X72035660Y-46642580D01*
G75*
G02*
X72110660Y-46717580I0J-75000D01*
G01*
X72110660Y-46867580D01*
G75*
G02*
X72035660Y-46942580I-75000J0D01*
G01*
X70710660Y-46942580D01*
G75*
G02*
X70635660Y-46867580I0J75000D01*
G01*
X70635660Y-46717580D01*
G75*
G02*
X70710660Y-46642580I75000J0D01*
G01*
G37*
G36*
G01*
X70710660Y-46142580D02*
X72035660Y-46142580D01*
G75*
G02*
X72110660Y-46217580I0J-75000D01*
G01*
X72110660Y-46367580D01*
G75*
G02*
X72035660Y-46442580I-75000J0D01*
G01*
X70710660Y-46442580D01*
G75*
G02*
X70635660Y-46367580I0J75000D01*
G01*
X70635660Y-46217580D01*
G75*
G02*
X70710660Y-46142580I75000J0D01*
G01*
G37*
G36*
G01*
X70710660Y-45642580D02*
X72035660Y-45642580D01*
G75*
G02*
X72110660Y-45717580I0J-75000D01*
G01*
X72110660Y-45867580D01*
G75*
G02*
X72035660Y-45942580I-75000J0D01*
G01*
X70710660Y-45942580D01*
G75*
G02*
X70635660Y-45867580I0J75000D01*
G01*
X70635660Y-45717580D01*
G75*
G02*
X70710660Y-45642580I75000J0D01*
G01*
G37*
G36*
G01*
X70710660Y-45142580D02*
X72035660Y-45142580D01*
G75*
G02*
X72110660Y-45217580I0J-75000D01*
G01*
X72110660Y-45367580D01*
G75*
G02*
X72035660Y-45442580I-75000J0D01*
G01*
X70710660Y-45442580D01*
G75*
G02*
X70635660Y-45367580I0J75000D01*
G01*
X70635660Y-45217580D01*
G75*
G02*
X70710660Y-45142580I75000J0D01*
G01*
G37*
G36*
G01*
X70710660Y-44642580D02*
X72035660Y-44642580D01*
G75*
G02*
X72110660Y-44717580I0J-75000D01*
G01*
X72110660Y-44867580D01*
G75*
G02*
X72035660Y-44942580I-75000J0D01*
G01*
X70710660Y-44942580D01*
G75*
G02*
X70635660Y-44867580I0J75000D01*
G01*
X70635660Y-44717580D01*
G75*
G02*
X70710660Y-44642580I75000J0D01*
G01*
G37*
G36*
G01*
X70710660Y-44142580D02*
X72035660Y-44142580D01*
G75*
G02*
X72110660Y-44217580I0J-75000D01*
G01*
X72110660Y-44367580D01*
G75*
G02*
X72035660Y-44442580I-75000J0D01*
G01*
X70710660Y-44442580D01*
G75*
G02*
X70635660Y-44367580I0J75000D01*
G01*
X70635660Y-44217580D01*
G75*
G02*
X70710660Y-44142580I75000J0D01*
G01*
G37*
G36*
G01*
X70710660Y-43642580D02*
X72035660Y-43642580D01*
G75*
G02*
X72110660Y-43717580I0J-75000D01*
G01*
X72110660Y-43867580D01*
G75*
G02*
X72035660Y-43942580I-75000J0D01*
G01*
X70710660Y-43942580D01*
G75*
G02*
X70635660Y-43867580I0J75000D01*
G01*
X70635660Y-43717580D01*
G75*
G02*
X70710660Y-43642580I75000J0D01*
G01*
G37*
G36*
G01*
X70710660Y-43142580D02*
X72035660Y-43142580D01*
G75*
G02*
X72110660Y-43217580I0J-75000D01*
G01*
X72110660Y-43367580D01*
G75*
G02*
X72035660Y-43442580I-75000J0D01*
G01*
X70710660Y-43442580D01*
G75*
G02*
X70635660Y-43367580I0J75000D01*
G01*
X70635660Y-43217580D01*
G75*
G02*
X70710660Y-43142580I75000J0D01*
G01*
G37*
G36*
G01*
X70710660Y-42642580D02*
X72035660Y-42642580D01*
G75*
G02*
X72110660Y-42717580I0J-75000D01*
G01*
X72110660Y-42867580D01*
G75*
G02*
X72035660Y-42942580I-75000J0D01*
G01*
X70710660Y-42942580D01*
G75*
G02*
X70635660Y-42867580I0J75000D01*
G01*
X70635660Y-42717580D01*
G75*
G02*
X70710660Y-42642580I75000J0D01*
G01*
G37*
G36*
G01*
X70710660Y-42142580D02*
X72035660Y-42142580D01*
G75*
G02*
X72110660Y-42217580I0J-75000D01*
G01*
X72110660Y-42367580D01*
G75*
G02*
X72035660Y-42442580I-75000J0D01*
G01*
X70710660Y-42442580D01*
G75*
G02*
X70635660Y-42367580I0J75000D01*
G01*
X70635660Y-42217580D01*
G75*
G02*
X70710660Y-42142580I75000J0D01*
G01*
G37*
G36*
G01*
X73210660Y-39642580D02*
X73360660Y-39642580D01*
G75*
G02*
X73435660Y-39717580I0J-75000D01*
G01*
X73435660Y-41042580D01*
G75*
G02*
X73360660Y-41117580I-75000J0D01*
G01*
X73210660Y-41117580D01*
G75*
G02*
X73135660Y-41042580I0J75000D01*
G01*
X73135660Y-39717580D01*
G75*
G02*
X73210660Y-39642580I75000J0D01*
G01*
G37*
G36*
G01*
X73710660Y-39642580D02*
X73860660Y-39642580D01*
G75*
G02*
X73935660Y-39717580I0J-75000D01*
G01*
X73935660Y-41042580D01*
G75*
G02*
X73860660Y-41117580I-75000J0D01*
G01*
X73710660Y-41117580D01*
G75*
G02*
X73635660Y-41042580I0J75000D01*
G01*
X73635660Y-39717580D01*
G75*
G02*
X73710660Y-39642580I75000J0D01*
G01*
G37*
G36*
G01*
X74210660Y-39642580D02*
X74360660Y-39642580D01*
G75*
G02*
X74435660Y-39717580I0J-75000D01*
G01*
X74435660Y-41042580D01*
G75*
G02*
X74360660Y-41117580I-75000J0D01*
G01*
X74210660Y-41117580D01*
G75*
G02*
X74135660Y-41042580I0J75000D01*
G01*
X74135660Y-39717580D01*
G75*
G02*
X74210660Y-39642580I75000J0D01*
G01*
G37*
G36*
G01*
X74710660Y-39642580D02*
X74860660Y-39642580D01*
G75*
G02*
X74935660Y-39717580I0J-75000D01*
G01*
X74935660Y-41042580D01*
G75*
G02*
X74860660Y-41117580I-75000J0D01*
G01*
X74710660Y-41117580D01*
G75*
G02*
X74635660Y-41042580I0J75000D01*
G01*
X74635660Y-39717580D01*
G75*
G02*
X74710660Y-39642580I75000J0D01*
G01*
G37*
G36*
G01*
X75210660Y-39642580D02*
X75360660Y-39642580D01*
G75*
G02*
X75435660Y-39717580I0J-75000D01*
G01*
X75435660Y-41042580D01*
G75*
G02*
X75360660Y-41117580I-75000J0D01*
G01*
X75210660Y-41117580D01*
G75*
G02*
X75135660Y-41042580I0J75000D01*
G01*
X75135660Y-39717580D01*
G75*
G02*
X75210660Y-39642580I75000J0D01*
G01*
G37*
G36*
G01*
X75710660Y-39642580D02*
X75860660Y-39642580D01*
G75*
G02*
X75935660Y-39717580I0J-75000D01*
G01*
X75935660Y-41042580D01*
G75*
G02*
X75860660Y-41117580I-75000J0D01*
G01*
X75710660Y-41117580D01*
G75*
G02*
X75635660Y-41042580I0J75000D01*
G01*
X75635660Y-39717580D01*
G75*
G02*
X75710660Y-39642580I75000J0D01*
G01*
G37*
G36*
G01*
X76210660Y-39642580D02*
X76360660Y-39642580D01*
G75*
G02*
X76435660Y-39717580I0J-75000D01*
G01*
X76435660Y-41042580D01*
G75*
G02*
X76360660Y-41117580I-75000J0D01*
G01*
X76210660Y-41117580D01*
G75*
G02*
X76135660Y-41042580I0J75000D01*
G01*
X76135660Y-39717580D01*
G75*
G02*
X76210660Y-39642580I75000J0D01*
G01*
G37*
G36*
G01*
X76710660Y-39642580D02*
X76860660Y-39642580D01*
G75*
G02*
X76935660Y-39717580I0J-75000D01*
G01*
X76935660Y-41042580D01*
G75*
G02*
X76860660Y-41117580I-75000J0D01*
G01*
X76710660Y-41117580D01*
G75*
G02*
X76635660Y-41042580I0J75000D01*
G01*
X76635660Y-39717580D01*
G75*
G02*
X76710660Y-39642580I75000J0D01*
G01*
G37*
G36*
G01*
X77210660Y-39642580D02*
X77360660Y-39642580D01*
G75*
G02*
X77435660Y-39717580I0J-75000D01*
G01*
X77435660Y-41042580D01*
G75*
G02*
X77360660Y-41117580I-75000J0D01*
G01*
X77210660Y-41117580D01*
G75*
G02*
X77135660Y-41042580I0J75000D01*
G01*
X77135660Y-39717580D01*
G75*
G02*
X77210660Y-39642580I75000J0D01*
G01*
G37*
G36*
G01*
X77710660Y-39642580D02*
X77860660Y-39642580D01*
G75*
G02*
X77935660Y-39717580I0J-75000D01*
G01*
X77935660Y-41042580D01*
G75*
G02*
X77860660Y-41117580I-75000J0D01*
G01*
X77710660Y-41117580D01*
G75*
G02*
X77635660Y-41042580I0J75000D01*
G01*
X77635660Y-39717580D01*
G75*
G02*
X77710660Y-39642580I75000J0D01*
G01*
G37*
G36*
G01*
X78210660Y-39642580D02*
X78360660Y-39642580D01*
G75*
G02*
X78435660Y-39717580I0J-75000D01*
G01*
X78435660Y-41042580D01*
G75*
G02*
X78360660Y-41117580I-75000J0D01*
G01*
X78210660Y-41117580D01*
G75*
G02*
X78135660Y-41042580I0J75000D01*
G01*
X78135660Y-39717580D01*
G75*
G02*
X78210660Y-39642580I75000J0D01*
G01*
G37*
G36*
G01*
X78710660Y-39642580D02*
X78860660Y-39642580D01*
G75*
G02*
X78935660Y-39717580I0J-75000D01*
G01*
X78935660Y-41042580D01*
G75*
G02*
X78860660Y-41117580I-75000J0D01*
G01*
X78710660Y-41117580D01*
G75*
G02*
X78635660Y-41042580I0J75000D01*
G01*
X78635660Y-39717580D01*
G75*
G02*
X78710660Y-39642580I75000J0D01*
G01*
G37*
G36*
G01*
X79210660Y-39642580D02*
X79360660Y-39642580D01*
G75*
G02*
X79435660Y-39717580I0J-75000D01*
G01*
X79435660Y-41042580D01*
G75*
G02*
X79360660Y-41117580I-75000J0D01*
G01*
X79210660Y-41117580D01*
G75*
G02*
X79135660Y-41042580I0J75000D01*
G01*
X79135660Y-39717580D01*
G75*
G02*
X79210660Y-39642580I75000J0D01*
G01*
G37*
G36*
G01*
X79710660Y-39642580D02*
X79860660Y-39642580D01*
G75*
G02*
X79935660Y-39717580I0J-75000D01*
G01*
X79935660Y-41042580D01*
G75*
G02*
X79860660Y-41117580I-75000J0D01*
G01*
X79710660Y-41117580D01*
G75*
G02*
X79635660Y-41042580I0J75000D01*
G01*
X79635660Y-39717580D01*
G75*
G02*
X79710660Y-39642580I75000J0D01*
G01*
G37*
G36*
G01*
X80210660Y-39642580D02*
X80360660Y-39642580D01*
G75*
G02*
X80435660Y-39717580I0J-75000D01*
G01*
X80435660Y-41042580D01*
G75*
G02*
X80360660Y-41117580I-75000J0D01*
G01*
X80210660Y-41117580D01*
G75*
G02*
X80135660Y-41042580I0J75000D01*
G01*
X80135660Y-39717580D01*
G75*
G02*
X80210660Y-39642580I75000J0D01*
G01*
G37*
G36*
G01*
X80710660Y-39642580D02*
X80860660Y-39642580D01*
G75*
G02*
X80935660Y-39717580I0J-75000D01*
G01*
X80935660Y-41042580D01*
G75*
G02*
X80860660Y-41117580I-75000J0D01*
G01*
X80710660Y-41117580D01*
G75*
G02*
X80635660Y-41042580I0J75000D01*
G01*
X80635660Y-39717580D01*
G75*
G02*
X80710660Y-39642580I75000J0D01*
G01*
G37*
%TD*%
D22*
%TO.C,U6*%
X95083600Y-51674160D03*
X99683600Y-51674160D03*
X97383600Y-51674160D03*
D23*
X97383600Y-45374160D03*
%TD*%
%TO.C,U5*%
G36*
G01*
X86329660Y-62576580D02*
X86029660Y-62576580D01*
G75*
G02*
X85879660Y-62426580I0J150000D01*
G01*
X85879660Y-60776580D01*
G75*
G02*
X86029660Y-60626580I150000J0D01*
G01*
X86329660Y-60626580D01*
G75*
G02*
X86479660Y-60776580I0J-150000D01*
G01*
X86479660Y-62426580D01*
G75*
G02*
X86329660Y-62576580I-150000J0D01*
G01*
G37*
G36*
G01*
X87599660Y-62576580D02*
X87299660Y-62576580D01*
G75*
G02*
X87149660Y-62426580I0J150000D01*
G01*
X87149660Y-60776580D01*
G75*
G02*
X87299660Y-60626580I150000J0D01*
G01*
X87599660Y-60626580D01*
G75*
G02*
X87749660Y-60776580I0J-150000D01*
G01*
X87749660Y-62426580D01*
G75*
G02*
X87599660Y-62576580I-150000J0D01*
G01*
G37*
G36*
G01*
X88869660Y-62576580D02*
X88569660Y-62576580D01*
G75*
G02*
X88419660Y-62426580I0J150000D01*
G01*
X88419660Y-60776580D01*
G75*
G02*
X88569660Y-60626580I150000J0D01*
G01*
X88869660Y-60626580D01*
G75*
G02*
X89019660Y-60776580I0J-150000D01*
G01*
X89019660Y-62426580D01*
G75*
G02*
X88869660Y-62576580I-150000J0D01*
G01*
G37*
G36*
G01*
X90139660Y-62576580D02*
X89839660Y-62576580D01*
G75*
G02*
X89689660Y-62426580I0J150000D01*
G01*
X89689660Y-60776580D01*
G75*
G02*
X89839660Y-60626580I150000J0D01*
G01*
X90139660Y-60626580D01*
G75*
G02*
X90289660Y-60776580I0J-150000D01*
G01*
X90289660Y-62426580D01*
G75*
G02*
X90139660Y-62576580I-150000J0D01*
G01*
G37*
G36*
G01*
X90139660Y-67526580D02*
X89839660Y-67526580D01*
G75*
G02*
X89689660Y-67376580I0J150000D01*
G01*
X89689660Y-65726580D01*
G75*
G02*
X89839660Y-65576580I150000J0D01*
G01*
X90139660Y-65576580D01*
G75*
G02*
X90289660Y-65726580I0J-150000D01*
G01*
X90289660Y-67376580D01*
G75*
G02*
X90139660Y-67526580I-150000J0D01*
G01*
G37*
G36*
G01*
X88869660Y-67526580D02*
X88569660Y-67526580D01*
G75*
G02*
X88419660Y-67376580I0J150000D01*
G01*
X88419660Y-65726580D01*
G75*
G02*
X88569660Y-65576580I150000J0D01*
G01*
X88869660Y-65576580D01*
G75*
G02*
X89019660Y-65726580I0J-150000D01*
G01*
X89019660Y-67376580D01*
G75*
G02*
X88869660Y-67526580I-150000J0D01*
G01*
G37*
G36*
G01*
X87599660Y-67526580D02*
X87299660Y-67526580D01*
G75*
G02*
X87149660Y-67376580I0J150000D01*
G01*
X87149660Y-65726580D01*
G75*
G02*
X87299660Y-65576580I150000J0D01*
G01*
X87599660Y-65576580D01*
G75*
G02*
X87749660Y-65726580I0J-150000D01*
G01*
X87749660Y-67376580D01*
G75*
G02*
X87599660Y-67526580I-150000J0D01*
G01*
G37*
G36*
G01*
X86329660Y-67526580D02*
X86029660Y-67526580D01*
G75*
G02*
X85879660Y-67376580I0J150000D01*
G01*
X85879660Y-65726580D01*
G75*
G02*
X86029660Y-65576580I150000J0D01*
G01*
X86329660Y-65576580D01*
G75*
G02*
X86479660Y-65726580I0J-150000D01*
G01*
X86479660Y-67376580D01*
G75*
G02*
X86329660Y-67526580I-150000J0D01*
G01*
G37*
%TD*%
%TO.C,U2*%
G36*
G01*
X74474660Y-63322080D02*
X74474660Y-64647080D01*
G75*
G02*
X74399660Y-64722080I-75000J0D01*
G01*
X74249660Y-64722080D01*
G75*
G02*
X74174660Y-64647080I0J75000D01*
G01*
X74174660Y-63322080D01*
G75*
G02*
X74249660Y-63247080I75000J0D01*
G01*
X74399660Y-63247080D01*
G75*
G02*
X74474660Y-63322080I0J-75000D01*
G01*
G37*
G36*
G01*
X73974660Y-63322080D02*
X73974660Y-64647080D01*
G75*
G02*
X73899660Y-64722080I-75000J0D01*
G01*
X73749660Y-64722080D01*
G75*
G02*
X73674660Y-64647080I0J75000D01*
G01*
X73674660Y-63322080D01*
G75*
G02*
X73749660Y-63247080I75000J0D01*
G01*
X73899660Y-63247080D01*
G75*
G02*
X73974660Y-63322080I0J-75000D01*
G01*
G37*
G36*
G01*
X73474660Y-63322080D02*
X73474660Y-64647080D01*
G75*
G02*
X73399660Y-64722080I-75000J0D01*
G01*
X73249660Y-64722080D01*
G75*
G02*
X73174660Y-64647080I0J75000D01*
G01*
X73174660Y-63322080D01*
G75*
G02*
X73249660Y-63247080I75000J0D01*
G01*
X73399660Y-63247080D01*
G75*
G02*
X73474660Y-63322080I0J-75000D01*
G01*
G37*
G36*
G01*
X72974660Y-63322080D02*
X72974660Y-64647080D01*
G75*
G02*
X72899660Y-64722080I-75000J0D01*
G01*
X72749660Y-64722080D01*
G75*
G02*
X72674660Y-64647080I0J75000D01*
G01*
X72674660Y-63322080D01*
G75*
G02*
X72749660Y-63247080I75000J0D01*
G01*
X72899660Y-63247080D01*
G75*
G02*
X72974660Y-63322080I0J-75000D01*
G01*
G37*
G36*
G01*
X72474660Y-63322080D02*
X72474660Y-64647080D01*
G75*
G02*
X72399660Y-64722080I-75000J0D01*
G01*
X72249660Y-64722080D01*
G75*
G02*
X72174660Y-64647080I0J75000D01*
G01*
X72174660Y-63322080D01*
G75*
G02*
X72249660Y-63247080I75000J0D01*
G01*
X72399660Y-63247080D01*
G75*
G02*
X72474660Y-63322080I0J-75000D01*
G01*
G37*
G36*
G01*
X71974660Y-63322080D02*
X71974660Y-64647080D01*
G75*
G02*
X71899660Y-64722080I-75000J0D01*
G01*
X71749660Y-64722080D01*
G75*
G02*
X71674660Y-64647080I0J75000D01*
G01*
X71674660Y-63322080D01*
G75*
G02*
X71749660Y-63247080I75000J0D01*
G01*
X71899660Y-63247080D01*
G75*
G02*
X71974660Y-63322080I0J-75000D01*
G01*
G37*
G36*
G01*
X71474660Y-63322080D02*
X71474660Y-64647080D01*
G75*
G02*
X71399660Y-64722080I-75000J0D01*
G01*
X71249660Y-64722080D01*
G75*
G02*
X71174660Y-64647080I0J75000D01*
G01*
X71174660Y-63322080D01*
G75*
G02*
X71249660Y-63247080I75000J0D01*
G01*
X71399660Y-63247080D01*
G75*
G02*
X71474660Y-63322080I0J-75000D01*
G01*
G37*
G36*
G01*
X70974660Y-63322080D02*
X70974660Y-64647080D01*
G75*
G02*
X70899660Y-64722080I-75000J0D01*
G01*
X70749660Y-64722080D01*
G75*
G02*
X70674660Y-64647080I0J75000D01*
G01*
X70674660Y-63322080D01*
G75*
G02*
X70749660Y-63247080I75000J0D01*
G01*
X70899660Y-63247080D01*
G75*
G02*
X70974660Y-63322080I0J-75000D01*
G01*
G37*
G36*
G01*
X70474660Y-63322080D02*
X70474660Y-64647080D01*
G75*
G02*
X70399660Y-64722080I-75000J0D01*
G01*
X70249660Y-64722080D01*
G75*
G02*
X70174660Y-64647080I0J75000D01*
G01*
X70174660Y-63322080D01*
G75*
G02*
X70249660Y-63247080I75000J0D01*
G01*
X70399660Y-63247080D01*
G75*
G02*
X70474660Y-63322080I0J-75000D01*
G01*
G37*
G36*
G01*
X69974660Y-63322080D02*
X69974660Y-64647080D01*
G75*
G02*
X69899660Y-64722080I-75000J0D01*
G01*
X69749660Y-64722080D01*
G75*
G02*
X69674660Y-64647080I0J75000D01*
G01*
X69674660Y-63322080D01*
G75*
G02*
X69749660Y-63247080I75000J0D01*
G01*
X69899660Y-63247080D01*
G75*
G02*
X69974660Y-63322080I0J-75000D01*
G01*
G37*
G36*
G01*
X69474660Y-63322080D02*
X69474660Y-64647080D01*
G75*
G02*
X69399660Y-64722080I-75000J0D01*
G01*
X69249660Y-64722080D01*
G75*
G02*
X69174660Y-64647080I0J75000D01*
G01*
X69174660Y-63322080D01*
G75*
G02*
X69249660Y-63247080I75000J0D01*
G01*
X69399660Y-63247080D01*
G75*
G02*
X69474660Y-63322080I0J-75000D01*
G01*
G37*
G36*
G01*
X68974660Y-63322080D02*
X68974660Y-64647080D01*
G75*
G02*
X68899660Y-64722080I-75000J0D01*
G01*
X68749660Y-64722080D01*
G75*
G02*
X68674660Y-64647080I0J75000D01*
G01*
X68674660Y-63322080D01*
G75*
G02*
X68749660Y-63247080I75000J0D01*
G01*
X68899660Y-63247080D01*
G75*
G02*
X68974660Y-63322080I0J-75000D01*
G01*
G37*
G36*
G01*
X68149660Y-62497080D02*
X68149660Y-62647080D01*
G75*
G02*
X68074660Y-62722080I-75000J0D01*
G01*
X66749660Y-62722080D01*
G75*
G02*
X66674660Y-62647080I0J75000D01*
G01*
X66674660Y-62497080D01*
G75*
G02*
X66749660Y-62422080I75000J0D01*
G01*
X68074660Y-62422080D01*
G75*
G02*
X68149660Y-62497080I0J-75000D01*
G01*
G37*
G36*
G01*
X68149660Y-61997080D02*
X68149660Y-62147080D01*
G75*
G02*
X68074660Y-62222080I-75000J0D01*
G01*
X66749660Y-62222080D01*
G75*
G02*
X66674660Y-62147080I0J75000D01*
G01*
X66674660Y-61997080D01*
G75*
G02*
X66749660Y-61922080I75000J0D01*
G01*
X68074660Y-61922080D01*
G75*
G02*
X68149660Y-61997080I0J-75000D01*
G01*
G37*
G36*
G01*
X68149660Y-61497080D02*
X68149660Y-61647080D01*
G75*
G02*
X68074660Y-61722080I-75000J0D01*
G01*
X66749660Y-61722080D01*
G75*
G02*
X66674660Y-61647080I0J75000D01*
G01*
X66674660Y-61497080D01*
G75*
G02*
X66749660Y-61422080I75000J0D01*
G01*
X68074660Y-61422080D01*
G75*
G02*
X68149660Y-61497080I0J-75000D01*
G01*
G37*
G36*
G01*
X68149660Y-60997080D02*
X68149660Y-61147080D01*
G75*
G02*
X68074660Y-61222080I-75000J0D01*
G01*
X66749660Y-61222080D01*
G75*
G02*
X66674660Y-61147080I0J75000D01*
G01*
X66674660Y-60997080D01*
G75*
G02*
X66749660Y-60922080I75000J0D01*
G01*
X68074660Y-60922080D01*
G75*
G02*
X68149660Y-60997080I0J-75000D01*
G01*
G37*
G36*
G01*
X68149660Y-60497080D02*
X68149660Y-60647080D01*
G75*
G02*
X68074660Y-60722080I-75000J0D01*
G01*
X66749660Y-60722080D01*
G75*
G02*
X66674660Y-60647080I0J75000D01*
G01*
X66674660Y-60497080D01*
G75*
G02*
X66749660Y-60422080I75000J0D01*
G01*
X68074660Y-60422080D01*
G75*
G02*
X68149660Y-60497080I0J-75000D01*
G01*
G37*
G36*
G01*
X68149660Y-59997080D02*
X68149660Y-60147080D01*
G75*
G02*
X68074660Y-60222080I-75000J0D01*
G01*
X66749660Y-60222080D01*
G75*
G02*
X66674660Y-60147080I0J75000D01*
G01*
X66674660Y-59997080D01*
G75*
G02*
X66749660Y-59922080I75000J0D01*
G01*
X68074660Y-59922080D01*
G75*
G02*
X68149660Y-59997080I0J-75000D01*
G01*
G37*
G36*
G01*
X68149660Y-59497080D02*
X68149660Y-59647080D01*
G75*
G02*
X68074660Y-59722080I-75000J0D01*
G01*
X66749660Y-59722080D01*
G75*
G02*
X66674660Y-59647080I0J75000D01*
G01*
X66674660Y-59497080D01*
G75*
G02*
X66749660Y-59422080I75000J0D01*
G01*
X68074660Y-59422080D01*
G75*
G02*
X68149660Y-59497080I0J-75000D01*
G01*
G37*
G36*
G01*
X68149660Y-58997080D02*
X68149660Y-59147080D01*
G75*
G02*
X68074660Y-59222080I-75000J0D01*
G01*
X66749660Y-59222080D01*
G75*
G02*
X66674660Y-59147080I0J75000D01*
G01*
X66674660Y-58997080D01*
G75*
G02*
X66749660Y-58922080I75000J0D01*
G01*
X68074660Y-58922080D01*
G75*
G02*
X68149660Y-58997080I0J-75000D01*
G01*
G37*
G36*
G01*
X68149660Y-58497080D02*
X68149660Y-58647080D01*
G75*
G02*
X68074660Y-58722080I-75000J0D01*
G01*
X66749660Y-58722080D01*
G75*
G02*
X66674660Y-58647080I0J75000D01*
G01*
X66674660Y-58497080D01*
G75*
G02*
X66749660Y-58422080I75000J0D01*
G01*
X68074660Y-58422080D01*
G75*
G02*
X68149660Y-58497080I0J-75000D01*
G01*
G37*
G36*
G01*
X68149660Y-57997080D02*
X68149660Y-58147080D01*
G75*
G02*
X68074660Y-58222080I-75000J0D01*
G01*
X66749660Y-58222080D01*
G75*
G02*
X66674660Y-58147080I0J75000D01*
G01*
X66674660Y-57997080D01*
G75*
G02*
X66749660Y-57922080I75000J0D01*
G01*
X68074660Y-57922080D01*
G75*
G02*
X68149660Y-57997080I0J-75000D01*
G01*
G37*
G36*
G01*
X68149660Y-57497080D02*
X68149660Y-57647080D01*
G75*
G02*
X68074660Y-57722080I-75000J0D01*
G01*
X66749660Y-57722080D01*
G75*
G02*
X66674660Y-57647080I0J75000D01*
G01*
X66674660Y-57497080D01*
G75*
G02*
X66749660Y-57422080I75000J0D01*
G01*
X68074660Y-57422080D01*
G75*
G02*
X68149660Y-57497080I0J-75000D01*
G01*
G37*
G36*
G01*
X68149660Y-56997080D02*
X68149660Y-57147080D01*
G75*
G02*
X68074660Y-57222080I-75000J0D01*
G01*
X66749660Y-57222080D01*
G75*
G02*
X66674660Y-57147080I0J75000D01*
G01*
X66674660Y-56997080D01*
G75*
G02*
X66749660Y-56922080I75000J0D01*
G01*
X68074660Y-56922080D01*
G75*
G02*
X68149660Y-56997080I0J-75000D01*
G01*
G37*
G36*
G01*
X68974660Y-54997080D02*
X68974660Y-56322080D01*
G75*
G02*
X68899660Y-56397080I-75000J0D01*
G01*
X68749660Y-56397080D01*
G75*
G02*
X68674660Y-56322080I0J75000D01*
G01*
X68674660Y-54997080D01*
G75*
G02*
X68749660Y-54922080I75000J0D01*
G01*
X68899660Y-54922080D01*
G75*
G02*
X68974660Y-54997080I0J-75000D01*
G01*
G37*
G36*
G01*
X69474660Y-54997080D02*
X69474660Y-56322080D01*
G75*
G02*
X69399660Y-56397080I-75000J0D01*
G01*
X69249660Y-56397080D01*
G75*
G02*
X69174660Y-56322080I0J75000D01*
G01*
X69174660Y-54997080D01*
G75*
G02*
X69249660Y-54922080I75000J0D01*
G01*
X69399660Y-54922080D01*
G75*
G02*
X69474660Y-54997080I0J-75000D01*
G01*
G37*
G36*
G01*
X69974660Y-54997080D02*
X69974660Y-56322080D01*
G75*
G02*
X69899660Y-56397080I-75000J0D01*
G01*
X69749660Y-56397080D01*
G75*
G02*
X69674660Y-56322080I0J75000D01*
G01*
X69674660Y-54997080D01*
G75*
G02*
X69749660Y-54922080I75000J0D01*
G01*
X69899660Y-54922080D01*
G75*
G02*
X69974660Y-54997080I0J-75000D01*
G01*
G37*
G36*
G01*
X70474660Y-54997080D02*
X70474660Y-56322080D01*
G75*
G02*
X70399660Y-56397080I-75000J0D01*
G01*
X70249660Y-56397080D01*
G75*
G02*
X70174660Y-56322080I0J75000D01*
G01*
X70174660Y-54997080D01*
G75*
G02*
X70249660Y-54922080I75000J0D01*
G01*
X70399660Y-54922080D01*
G75*
G02*
X70474660Y-54997080I0J-75000D01*
G01*
G37*
G36*
G01*
X70974660Y-54997080D02*
X70974660Y-56322080D01*
G75*
G02*
X70899660Y-56397080I-75000J0D01*
G01*
X70749660Y-56397080D01*
G75*
G02*
X70674660Y-56322080I0J75000D01*
G01*
X70674660Y-54997080D01*
G75*
G02*
X70749660Y-54922080I75000J0D01*
G01*
X70899660Y-54922080D01*
G75*
G02*
X70974660Y-54997080I0J-75000D01*
G01*
G37*
G36*
G01*
X71474660Y-54997080D02*
X71474660Y-56322080D01*
G75*
G02*
X71399660Y-56397080I-75000J0D01*
G01*
X71249660Y-56397080D01*
G75*
G02*
X71174660Y-56322080I0J75000D01*
G01*
X71174660Y-54997080D01*
G75*
G02*
X71249660Y-54922080I75000J0D01*
G01*
X71399660Y-54922080D01*
G75*
G02*
X71474660Y-54997080I0J-75000D01*
G01*
G37*
G36*
G01*
X71974660Y-54997080D02*
X71974660Y-56322080D01*
G75*
G02*
X71899660Y-56397080I-75000J0D01*
G01*
X71749660Y-56397080D01*
G75*
G02*
X71674660Y-56322080I0J75000D01*
G01*
X71674660Y-54997080D01*
G75*
G02*
X71749660Y-54922080I75000J0D01*
G01*
X71899660Y-54922080D01*
G75*
G02*
X71974660Y-54997080I0J-75000D01*
G01*
G37*
G36*
G01*
X72474660Y-54997080D02*
X72474660Y-56322080D01*
G75*
G02*
X72399660Y-56397080I-75000J0D01*
G01*
X72249660Y-56397080D01*
G75*
G02*
X72174660Y-56322080I0J75000D01*
G01*
X72174660Y-54997080D01*
G75*
G02*
X72249660Y-54922080I75000J0D01*
G01*
X72399660Y-54922080D01*
G75*
G02*
X72474660Y-54997080I0J-75000D01*
G01*
G37*
G36*
G01*
X72974660Y-54997080D02*
X72974660Y-56322080D01*
G75*
G02*
X72899660Y-56397080I-75000J0D01*
G01*
X72749660Y-56397080D01*
G75*
G02*
X72674660Y-56322080I0J75000D01*
G01*
X72674660Y-54997080D01*
G75*
G02*
X72749660Y-54922080I75000J0D01*
G01*
X72899660Y-54922080D01*
G75*
G02*
X72974660Y-54997080I0J-75000D01*
G01*
G37*
G36*
G01*
X73474660Y-54997080D02*
X73474660Y-56322080D01*
G75*
G02*
X73399660Y-56397080I-75000J0D01*
G01*
X73249660Y-56397080D01*
G75*
G02*
X73174660Y-56322080I0J75000D01*
G01*
X73174660Y-54997080D01*
G75*
G02*
X73249660Y-54922080I75000J0D01*
G01*
X73399660Y-54922080D01*
G75*
G02*
X73474660Y-54997080I0J-75000D01*
G01*
G37*
G36*
G01*
X73974660Y-54997080D02*
X73974660Y-56322080D01*
G75*
G02*
X73899660Y-56397080I-75000J0D01*
G01*
X73749660Y-56397080D01*
G75*
G02*
X73674660Y-56322080I0J75000D01*
G01*
X73674660Y-54997080D01*
G75*
G02*
X73749660Y-54922080I75000J0D01*
G01*
X73899660Y-54922080D01*
G75*
G02*
X73974660Y-54997080I0J-75000D01*
G01*
G37*
G36*
G01*
X74474660Y-54997080D02*
X74474660Y-56322080D01*
G75*
G02*
X74399660Y-56397080I-75000J0D01*
G01*
X74249660Y-56397080D01*
G75*
G02*
X74174660Y-56322080I0J75000D01*
G01*
X74174660Y-54997080D01*
G75*
G02*
X74249660Y-54922080I75000J0D01*
G01*
X74399660Y-54922080D01*
G75*
G02*
X74474660Y-54997080I0J-75000D01*
G01*
G37*
G36*
G01*
X76474660Y-56997080D02*
X76474660Y-57147080D01*
G75*
G02*
X76399660Y-57222080I-75000J0D01*
G01*
X75074660Y-57222080D01*
G75*
G02*
X74999660Y-57147080I0J75000D01*
G01*
X74999660Y-56997080D01*
G75*
G02*
X75074660Y-56922080I75000J0D01*
G01*
X76399660Y-56922080D01*
G75*
G02*
X76474660Y-56997080I0J-75000D01*
G01*
G37*
G36*
G01*
X76474660Y-57497080D02*
X76474660Y-57647080D01*
G75*
G02*
X76399660Y-57722080I-75000J0D01*
G01*
X75074660Y-57722080D01*
G75*
G02*
X74999660Y-57647080I0J75000D01*
G01*
X74999660Y-57497080D01*
G75*
G02*
X75074660Y-57422080I75000J0D01*
G01*
X76399660Y-57422080D01*
G75*
G02*
X76474660Y-57497080I0J-75000D01*
G01*
G37*
G36*
G01*
X76474660Y-57997080D02*
X76474660Y-58147080D01*
G75*
G02*
X76399660Y-58222080I-75000J0D01*
G01*
X75074660Y-58222080D01*
G75*
G02*
X74999660Y-58147080I0J75000D01*
G01*
X74999660Y-57997080D01*
G75*
G02*
X75074660Y-57922080I75000J0D01*
G01*
X76399660Y-57922080D01*
G75*
G02*
X76474660Y-57997080I0J-75000D01*
G01*
G37*
G36*
G01*
X76474660Y-58497080D02*
X76474660Y-58647080D01*
G75*
G02*
X76399660Y-58722080I-75000J0D01*
G01*
X75074660Y-58722080D01*
G75*
G02*
X74999660Y-58647080I0J75000D01*
G01*
X74999660Y-58497080D01*
G75*
G02*
X75074660Y-58422080I75000J0D01*
G01*
X76399660Y-58422080D01*
G75*
G02*
X76474660Y-58497080I0J-75000D01*
G01*
G37*
G36*
G01*
X76474660Y-58997080D02*
X76474660Y-59147080D01*
G75*
G02*
X76399660Y-59222080I-75000J0D01*
G01*
X75074660Y-59222080D01*
G75*
G02*
X74999660Y-59147080I0J75000D01*
G01*
X74999660Y-58997080D01*
G75*
G02*
X75074660Y-58922080I75000J0D01*
G01*
X76399660Y-58922080D01*
G75*
G02*
X76474660Y-58997080I0J-75000D01*
G01*
G37*
G36*
G01*
X76474660Y-59497080D02*
X76474660Y-59647080D01*
G75*
G02*
X76399660Y-59722080I-75000J0D01*
G01*
X75074660Y-59722080D01*
G75*
G02*
X74999660Y-59647080I0J75000D01*
G01*
X74999660Y-59497080D01*
G75*
G02*
X75074660Y-59422080I75000J0D01*
G01*
X76399660Y-59422080D01*
G75*
G02*
X76474660Y-59497080I0J-75000D01*
G01*
G37*
G36*
G01*
X76474660Y-59997080D02*
X76474660Y-60147080D01*
G75*
G02*
X76399660Y-60222080I-75000J0D01*
G01*
X75074660Y-60222080D01*
G75*
G02*
X74999660Y-60147080I0J75000D01*
G01*
X74999660Y-59997080D01*
G75*
G02*
X75074660Y-59922080I75000J0D01*
G01*
X76399660Y-59922080D01*
G75*
G02*
X76474660Y-59997080I0J-75000D01*
G01*
G37*
G36*
G01*
X76474660Y-60497080D02*
X76474660Y-60647080D01*
G75*
G02*
X76399660Y-60722080I-75000J0D01*
G01*
X75074660Y-60722080D01*
G75*
G02*
X74999660Y-60647080I0J75000D01*
G01*
X74999660Y-60497080D01*
G75*
G02*
X75074660Y-60422080I75000J0D01*
G01*
X76399660Y-60422080D01*
G75*
G02*
X76474660Y-60497080I0J-75000D01*
G01*
G37*
G36*
G01*
X76474660Y-60997080D02*
X76474660Y-61147080D01*
G75*
G02*
X76399660Y-61222080I-75000J0D01*
G01*
X75074660Y-61222080D01*
G75*
G02*
X74999660Y-61147080I0J75000D01*
G01*
X74999660Y-60997080D01*
G75*
G02*
X75074660Y-60922080I75000J0D01*
G01*
X76399660Y-60922080D01*
G75*
G02*
X76474660Y-60997080I0J-75000D01*
G01*
G37*
G36*
G01*
X76474660Y-61497080D02*
X76474660Y-61647080D01*
G75*
G02*
X76399660Y-61722080I-75000J0D01*
G01*
X75074660Y-61722080D01*
G75*
G02*
X74999660Y-61647080I0J75000D01*
G01*
X74999660Y-61497080D01*
G75*
G02*
X75074660Y-61422080I75000J0D01*
G01*
X76399660Y-61422080D01*
G75*
G02*
X76474660Y-61497080I0J-75000D01*
G01*
G37*
G36*
G01*
X76474660Y-61997080D02*
X76474660Y-62147080D01*
G75*
G02*
X76399660Y-62222080I-75000J0D01*
G01*
X75074660Y-62222080D01*
G75*
G02*
X74999660Y-62147080I0J75000D01*
G01*
X74999660Y-61997080D01*
G75*
G02*
X75074660Y-61922080I75000J0D01*
G01*
X76399660Y-61922080D01*
G75*
G02*
X76474660Y-61997080I0J-75000D01*
G01*
G37*
G36*
G01*
X76474660Y-62497080D02*
X76474660Y-62647080D01*
G75*
G02*
X76399660Y-62722080I-75000J0D01*
G01*
X75074660Y-62722080D01*
G75*
G02*
X74999660Y-62647080I0J75000D01*
G01*
X74999660Y-62497080D01*
G75*
G02*
X75074660Y-62422080I75000J0D01*
G01*
X76399660Y-62422080D01*
G75*
G02*
X76474660Y-62497080I0J-75000D01*
G01*
G37*
%TD*%
%TO.C,U1*%
G36*
G01*
X85887660Y-79484080D02*
X85887660Y-79784080D01*
G75*
G02*
X85737660Y-79934080I-150000J0D01*
G01*
X84087660Y-79934080D01*
G75*
G02*
X83937660Y-79784080I0J150000D01*
G01*
X83937660Y-79484080D01*
G75*
G02*
X84087660Y-79334080I150000J0D01*
G01*
X85737660Y-79334080D01*
G75*
G02*
X85887660Y-79484080I0J-150000D01*
G01*
G37*
G36*
G01*
X85887660Y-78214080D02*
X85887660Y-78514080D01*
G75*
G02*
X85737660Y-78664080I-150000J0D01*
G01*
X84087660Y-78664080D01*
G75*
G02*
X83937660Y-78514080I0J150000D01*
G01*
X83937660Y-78214080D01*
G75*
G02*
X84087660Y-78064080I150000J0D01*
G01*
X85737660Y-78064080D01*
G75*
G02*
X85887660Y-78214080I0J-150000D01*
G01*
G37*
G36*
G01*
X85887660Y-76944080D02*
X85887660Y-77244080D01*
G75*
G02*
X85737660Y-77394080I-150000J0D01*
G01*
X84087660Y-77394080D01*
G75*
G02*
X83937660Y-77244080I0J150000D01*
G01*
X83937660Y-76944080D01*
G75*
G02*
X84087660Y-76794080I150000J0D01*
G01*
X85737660Y-76794080D01*
G75*
G02*
X85887660Y-76944080I0J-150000D01*
G01*
G37*
G36*
G01*
X85887660Y-75674080D02*
X85887660Y-75974080D01*
G75*
G02*
X85737660Y-76124080I-150000J0D01*
G01*
X84087660Y-76124080D01*
G75*
G02*
X83937660Y-75974080I0J150000D01*
G01*
X83937660Y-75674080D01*
G75*
G02*
X84087660Y-75524080I150000J0D01*
G01*
X85737660Y-75524080D01*
G75*
G02*
X85887660Y-75674080I0J-150000D01*
G01*
G37*
G36*
G01*
X85887660Y-74404080D02*
X85887660Y-74704080D01*
G75*
G02*
X85737660Y-74854080I-150000J0D01*
G01*
X84087660Y-74854080D01*
G75*
G02*
X83937660Y-74704080I0J150000D01*
G01*
X83937660Y-74404080D01*
G75*
G02*
X84087660Y-74254080I150000J0D01*
G01*
X85737660Y-74254080D01*
G75*
G02*
X85887660Y-74404080I0J-150000D01*
G01*
G37*
G36*
G01*
X85887660Y-73134080D02*
X85887660Y-73434080D01*
G75*
G02*
X85737660Y-73584080I-150000J0D01*
G01*
X84087660Y-73584080D01*
G75*
G02*
X83937660Y-73434080I0J150000D01*
G01*
X83937660Y-73134080D01*
G75*
G02*
X84087660Y-72984080I150000J0D01*
G01*
X85737660Y-72984080D01*
G75*
G02*
X85887660Y-73134080I0J-150000D01*
G01*
G37*
G36*
G01*
X85887660Y-71864080D02*
X85887660Y-72164080D01*
G75*
G02*
X85737660Y-72314080I-150000J0D01*
G01*
X84087660Y-72314080D01*
G75*
G02*
X83937660Y-72164080I0J150000D01*
G01*
X83937660Y-71864080D01*
G75*
G02*
X84087660Y-71714080I150000J0D01*
G01*
X85737660Y-71714080D01*
G75*
G02*
X85887660Y-71864080I0J-150000D01*
G01*
G37*
G36*
G01*
X85887660Y-70594080D02*
X85887660Y-70894080D01*
G75*
G02*
X85737660Y-71044080I-150000J0D01*
G01*
X84087660Y-71044080D01*
G75*
G02*
X83937660Y-70894080I0J150000D01*
G01*
X83937660Y-70594080D01*
G75*
G02*
X84087660Y-70444080I150000J0D01*
G01*
X85737660Y-70444080D01*
G75*
G02*
X85887660Y-70594080I0J-150000D01*
G01*
G37*
G36*
G01*
X90837660Y-70594080D02*
X90837660Y-70894080D01*
G75*
G02*
X90687660Y-71044080I-150000J0D01*
G01*
X89037660Y-71044080D01*
G75*
G02*
X88887660Y-70894080I0J150000D01*
G01*
X88887660Y-70594080D01*
G75*
G02*
X89037660Y-70444080I150000J0D01*
G01*
X90687660Y-70444080D01*
G75*
G02*
X90837660Y-70594080I0J-150000D01*
G01*
G37*
G36*
G01*
X90837660Y-71864080D02*
X90837660Y-72164080D01*
G75*
G02*
X90687660Y-72314080I-150000J0D01*
G01*
X89037660Y-72314080D01*
G75*
G02*
X88887660Y-72164080I0J150000D01*
G01*
X88887660Y-71864080D01*
G75*
G02*
X89037660Y-71714080I150000J0D01*
G01*
X90687660Y-71714080D01*
G75*
G02*
X90837660Y-71864080I0J-150000D01*
G01*
G37*
G36*
G01*
X90837660Y-73134080D02*
X90837660Y-73434080D01*
G75*
G02*
X90687660Y-73584080I-150000J0D01*
G01*
X89037660Y-73584080D01*
G75*
G02*
X88887660Y-73434080I0J150000D01*
G01*
X88887660Y-73134080D01*
G75*
G02*
X89037660Y-72984080I150000J0D01*
G01*
X90687660Y-72984080D01*
G75*
G02*
X90837660Y-73134080I0J-150000D01*
G01*
G37*
G36*
G01*
X90837660Y-74404080D02*
X90837660Y-74704080D01*
G75*
G02*
X90687660Y-74854080I-150000J0D01*
G01*
X89037660Y-74854080D01*
G75*
G02*
X88887660Y-74704080I0J150000D01*
G01*
X88887660Y-74404080D01*
G75*
G02*
X89037660Y-74254080I150000J0D01*
G01*
X90687660Y-74254080D01*
G75*
G02*
X90837660Y-74404080I0J-150000D01*
G01*
G37*
G36*
G01*
X90837660Y-75674080D02*
X90837660Y-75974080D01*
G75*
G02*
X90687660Y-76124080I-150000J0D01*
G01*
X89037660Y-76124080D01*
G75*
G02*
X88887660Y-75974080I0J150000D01*
G01*
X88887660Y-75674080D01*
G75*
G02*
X89037660Y-75524080I150000J0D01*
G01*
X90687660Y-75524080D01*
G75*
G02*
X90837660Y-75674080I0J-150000D01*
G01*
G37*
G36*
G01*
X90837660Y-76944080D02*
X90837660Y-77244080D01*
G75*
G02*
X90687660Y-77394080I-150000J0D01*
G01*
X89037660Y-77394080D01*
G75*
G02*
X88887660Y-77244080I0J150000D01*
G01*
X88887660Y-76944080D01*
G75*
G02*
X89037660Y-76794080I150000J0D01*
G01*
X90687660Y-76794080D01*
G75*
G02*
X90837660Y-76944080I0J-150000D01*
G01*
G37*
G36*
G01*
X90837660Y-78214080D02*
X90837660Y-78514080D01*
G75*
G02*
X90687660Y-78664080I-150000J0D01*
G01*
X89037660Y-78664080D01*
G75*
G02*
X88887660Y-78514080I0J150000D01*
G01*
X88887660Y-78214080D01*
G75*
G02*
X89037660Y-78064080I150000J0D01*
G01*
X90687660Y-78064080D01*
G75*
G02*
X90837660Y-78214080I0J-150000D01*
G01*
G37*
G36*
G01*
X90837660Y-79484080D02*
X90837660Y-79784080D01*
G75*
G02*
X90687660Y-79934080I-150000J0D01*
G01*
X89037660Y-79934080D01*
G75*
G02*
X88887660Y-79784080I0J150000D01*
G01*
X88887660Y-79484080D01*
G75*
G02*
X89037660Y-79334080I150000J0D01*
G01*
X90687660Y-79334080D01*
G75*
G02*
X90837660Y-79484080I0J-150000D01*
G01*
G37*
%TD*%
%TO.C,R9*%
G36*
G01*
X97757160Y-36084830D02*
X97757160Y-35172330D01*
G75*
G02*
X98000910Y-34928580I243750J0D01*
G01*
X98488410Y-34928580D01*
G75*
G02*
X98732160Y-35172330I0J-243750D01*
G01*
X98732160Y-36084830D01*
G75*
G02*
X98488410Y-36328580I-243750J0D01*
G01*
X98000910Y-36328580D01*
G75*
G02*
X97757160Y-36084830I0J243750D01*
G01*
G37*
G36*
G01*
X95882160Y-36084830D02*
X95882160Y-35172330D01*
G75*
G02*
X96125910Y-34928580I243750J0D01*
G01*
X96613410Y-34928580D01*
G75*
G02*
X96857160Y-35172330I0J-243750D01*
G01*
X96857160Y-36084830D01*
G75*
G02*
X96613410Y-36328580I-243750J0D01*
G01*
X96125910Y-36328580D01*
G75*
G02*
X95882160Y-36084830I0J243750D01*
G01*
G37*
%TD*%
%TO.C,R8*%
G36*
G01*
X86424160Y-40783830D02*
X86424160Y-39871330D01*
G75*
G02*
X86667910Y-39627580I243750J0D01*
G01*
X87155410Y-39627580D01*
G75*
G02*
X87399160Y-39871330I0J-243750D01*
G01*
X87399160Y-40783830D01*
G75*
G02*
X87155410Y-41027580I-243750J0D01*
G01*
X86667910Y-41027580D01*
G75*
G02*
X86424160Y-40783830I0J243750D01*
G01*
G37*
G36*
G01*
X84549160Y-40783830D02*
X84549160Y-39871330D01*
G75*
G02*
X84792910Y-39627580I243750J0D01*
G01*
X85280410Y-39627580D01*
G75*
G02*
X85524160Y-39871330I0J-243750D01*
G01*
X85524160Y-40783830D01*
G75*
G02*
X85280410Y-41027580I-243750J0D01*
G01*
X84792910Y-41027580D01*
G75*
G02*
X84549160Y-40783830I0J243750D01*
G01*
G37*
%TD*%
%TO.C,R7*%
G36*
G01*
X95637030Y-62212640D02*
X96549530Y-62212640D01*
G75*
G02*
X96793280Y-62456390I0J-243750D01*
G01*
X96793280Y-62943890D01*
G75*
G02*
X96549530Y-63187640I-243750J0D01*
G01*
X95637030Y-63187640D01*
G75*
G02*
X95393280Y-62943890I0J243750D01*
G01*
X95393280Y-62456390D01*
G75*
G02*
X95637030Y-62212640I243750J0D01*
G01*
G37*
G36*
G01*
X95637030Y-60337640D02*
X96549530Y-60337640D01*
G75*
G02*
X96793280Y-60581390I0J-243750D01*
G01*
X96793280Y-61068890D01*
G75*
G02*
X96549530Y-61312640I-243750J0D01*
G01*
X95637030Y-61312640D01*
G75*
G02*
X95393280Y-61068890I0J243750D01*
G01*
X95393280Y-60581390D01*
G75*
G02*
X95637030Y-60337640I243750J0D01*
G01*
G37*
%TD*%
%TO.C,R4*%
G36*
G01*
X92200410Y-80831080D02*
X93112910Y-80831080D01*
G75*
G02*
X93356660Y-81074830I0J-243750D01*
G01*
X93356660Y-81562330D01*
G75*
G02*
X93112910Y-81806080I-243750J0D01*
G01*
X92200410Y-81806080D01*
G75*
G02*
X91956660Y-81562330I0J243750D01*
G01*
X91956660Y-81074830D01*
G75*
G02*
X92200410Y-80831080I243750J0D01*
G01*
G37*
G36*
G01*
X92200410Y-78956080D02*
X93112910Y-78956080D01*
G75*
G02*
X93356660Y-79199830I0J-243750D01*
G01*
X93356660Y-79687330D01*
G75*
G02*
X93112910Y-79931080I-243750J0D01*
G01*
X92200410Y-79931080D01*
G75*
G02*
X91956660Y-79687330I0J243750D01*
G01*
X91956660Y-79199830D01*
G75*
G02*
X92200410Y-78956080I243750J0D01*
G01*
G37*
%TD*%
%TO.C,R3*%
G36*
G01*
X94359410Y-80831080D02*
X95271910Y-80831080D01*
G75*
G02*
X95515660Y-81074830I0J-243750D01*
G01*
X95515660Y-81562330D01*
G75*
G02*
X95271910Y-81806080I-243750J0D01*
G01*
X94359410Y-81806080D01*
G75*
G02*
X94115660Y-81562330I0J243750D01*
G01*
X94115660Y-81074830D01*
G75*
G02*
X94359410Y-80831080I243750J0D01*
G01*
G37*
G36*
G01*
X94359410Y-78956080D02*
X95271910Y-78956080D01*
G75*
G02*
X95515660Y-79199830I0J-243750D01*
G01*
X95515660Y-79687330D01*
G75*
G02*
X95271910Y-79931080I-243750J0D01*
G01*
X94359410Y-79931080D01*
G75*
G02*
X94115660Y-79687330I0J243750D01*
G01*
X94115660Y-79199830D01*
G75*
G02*
X94359410Y-78956080I243750J0D01*
G01*
G37*
%TD*%
%TO.C,D10*%
G36*
G01*
X94507370Y-61312640D02*
X93594870Y-61312640D01*
G75*
G02*
X93351120Y-61068890I0J243750D01*
G01*
X93351120Y-60581390D01*
G75*
G02*
X93594870Y-60337640I243750J0D01*
G01*
X94507370Y-60337640D01*
G75*
G02*
X94751120Y-60581390I0J-243750D01*
G01*
X94751120Y-61068890D01*
G75*
G02*
X94507370Y-61312640I-243750J0D01*
G01*
G37*
G36*
G01*
X94507370Y-63187640D02*
X93594870Y-63187640D01*
G75*
G02*
X93351120Y-62943890I0J243750D01*
G01*
X93351120Y-62456390D01*
G75*
G02*
X93594870Y-62212640I243750J0D01*
G01*
X94507370Y-62212640D01*
G75*
G02*
X94751120Y-62456390I0J-243750D01*
G01*
X94751120Y-62943890D01*
G75*
G02*
X94507370Y-63187640I-243750J0D01*
G01*
G37*
%TD*%
%TO.C,D2*%
G36*
G01*
X92200410Y-77275080D02*
X93112910Y-77275080D01*
G75*
G02*
X93356660Y-77518830I0J-243750D01*
G01*
X93356660Y-78006330D01*
G75*
G02*
X93112910Y-78250080I-243750J0D01*
G01*
X92200410Y-78250080D01*
G75*
G02*
X91956660Y-78006330I0J243750D01*
G01*
X91956660Y-77518830D01*
G75*
G02*
X92200410Y-77275080I243750J0D01*
G01*
G37*
G36*
G01*
X92200410Y-75400080D02*
X93112910Y-75400080D01*
G75*
G02*
X93356660Y-75643830I0J-243750D01*
G01*
X93356660Y-76131330D01*
G75*
G02*
X93112910Y-76375080I-243750J0D01*
G01*
X92200410Y-76375080D01*
G75*
G02*
X91956660Y-76131330I0J243750D01*
G01*
X91956660Y-75643830D01*
G75*
G02*
X92200410Y-75400080I243750J0D01*
G01*
G37*
%TD*%
%TO.C,D1*%
G36*
G01*
X94359410Y-77275080D02*
X95271910Y-77275080D01*
G75*
G02*
X95515660Y-77518830I0J-243750D01*
G01*
X95515660Y-78006330D01*
G75*
G02*
X95271910Y-78250080I-243750J0D01*
G01*
X94359410Y-78250080D01*
G75*
G02*
X94115660Y-78006330I0J243750D01*
G01*
X94115660Y-77518830D01*
G75*
G02*
X94359410Y-77275080I243750J0D01*
G01*
G37*
G36*
G01*
X94359410Y-75400080D02*
X95271910Y-75400080D01*
G75*
G02*
X95515660Y-75643830I0J-243750D01*
G01*
X95515660Y-76131330D01*
G75*
G02*
X95271910Y-76375080I-243750J0D01*
G01*
X94359410Y-76375080D01*
G75*
G02*
X94115660Y-76131330I0J243750D01*
G01*
X94115660Y-75643830D01*
G75*
G02*
X94359410Y-75400080I243750J0D01*
G01*
G37*
%TD*%
%TO.C,C46*%
G36*
G01*
X97746160Y-30981330D02*
X97746160Y-31893830D01*
G75*
G02*
X97502410Y-32137580I-243750J0D01*
G01*
X97014910Y-32137580D01*
G75*
G02*
X96771160Y-31893830I0J243750D01*
G01*
X96771160Y-30981330D01*
G75*
G02*
X97014910Y-30737580I243750J0D01*
G01*
X97502410Y-30737580D01*
G75*
G02*
X97746160Y-30981330I0J-243750D01*
G01*
G37*
G36*
G01*
X99621160Y-30981330D02*
X99621160Y-31893830D01*
G75*
G02*
X99377410Y-32137580I-243750J0D01*
G01*
X98889910Y-32137580D01*
G75*
G02*
X98646160Y-31893830I0J243750D01*
G01*
X98646160Y-30981330D01*
G75*
G02*
X98889910Y-30737580I243750J0D01*
G01*
X99377410Y-30737580D01*
G75*
G02*
X99621160Y-30981330I0J-243750D01*
G01*
G37*
%TD*%
%TO.C,C45*%
G36*
G01*
X97746160Y-33013330D02*
X97746160Y-33925830D01*
G75*
G02*
X97502410Y-34169580I-243750J0D01*
G01*
X97014910Y-34169580D01*
G75*
G02*
X96771160Y-33925830I0J243750D01*
G01*
X96771160Y-33013330D01*
G75*
G02*
X97014910Y-32769580I243750J0D01*
G01*
X97502410Y-32769580D01*
G75*
G02*
X97746160Y-33013330I0J-243750D01*
G01*
G37*
G36*
G01*
X99621160Y-33013330D02*
X99621160Y-33925830D01*
G75*
G02*
X99377410Y-34169580I-243750J0D01*
G01*
X98889910Y-34169580D01*
G75*
G02*
X98646160Y-33925830I0J243750D01*
G01*
X98646160Y-33013330D01*
G75*
G02*
X98889910Y-32769580I243750J0D01*
G01*
X99377410Y-32769580D01*
G75*
G02*
X99621160Y-33013330I0J-243750D01*
G01*
G37*
%TD*%
%TO.C,C44*%
G36*
G01*
X97684910Y-27764080D02*
X96772410Y-27764080D01*
G75*
G02*
X96528660Y-27520330I0J243750D01*
G01*
X96528660Y-27032830D01*
G75*
G02*
X96772410Y-26789080I243750J0D01*
G01*
X97684910Y-26789080D01*
G75*
G02*
X97928660Y-27032830I0J-243750D01*
G01*
X97928660Y-27520330D01*
G75*
G02*
X97684910Y-27764080I-243750J0D01*
G01*
G37*
G36*
G01*
X97684910Y-29639080D02*
X96772410Y-29639080D01*
G75*
G02*
X96528660Y-29395330I0J243750D01*
G01*
X96528660Y-28907830D01*
G75*
G02*
X96772410Y-28664080I243750J0D01*
G01*
X97684910Y-28664080D01*
G75*
G02*
X97928660Y-28907830I0J-243750D01*
G01*
X97928660Y-29395330D01*
G75*
G02*
X97684910Y-29639080I-243750J0D01*
G01*
G37*
%TD*%
%TO.C,C42*%
G36*
G01*
X88921910Y-45417080D02*
X88009410Y-45417080D01*
G75*
G02*
X87765660Y-45173330I0J243750D01*
G01*
X87765660Y-44685830D01*
G75*
G02*
X88009410Y-44442080I243750J0D01*
G01*
X88921910Y-44442080D01*
G75*
G02*
X89165660Y-44685830I0J-243750D01*
G01*
X89165660Y-45173330D01*
G75*
G02*
X88921910Y-45417080I-243750J0D01*
G01*
G37*
G36*
G01*
X88921910Y-47292080D02*
X88009410Y-47292080D01*
G75*
G02*
X87765660Y-47048330I0J243750D01*
G01*
X87765660Y-46560830D01*
G75*
G02*
X88009410Y-46317080I243750J0D01*
G01*
X88921910Y-46317080D01*
G75*
G02*
X89165660Y-46560830I0J-243750D01*
G01*
X89165660Y-47048330D01*
G75*
G02*
X88921910Y-47292080I-243750J0D01*
G01*
G37*
%TD*%
%TO.C,C41*%
G36*
G01*
X67393160Y-46475330D02*
X67393160Y-47387830D01*
G75*
G02*
X67149410Y-47631580I-243750J0D01*
G01*
X66661910Y-47631580D01*
G75*
G02*
X66418160Y-47387830I0J243750D01*
G01*
X66418160Y-46475330D01*
G75*
G02*
X66661910Y-46231580I243750J0D01*
G01*
X67149410Y-46231580D01*
G75*
G02*
X67393160Y-46475330I0J-243750D01*
G01*
G37*
G36*
G01*
X69268160Y-46475330D02*
X69268160Y-47387830D01*
G75*
G02*
X69024410Y-47631580I-243750J0D01*
G01*
X68536910Y-47631580D01*
G75*
G02*
X68293160Y-47387830I0J243750D01*
G01*
X68293160Y-46475330D01*
G75*
G02*
X68536910Y-46231580I243750J0D01*
G01*
X69024410Y-46231580D01*
G75*
G02*
X69268160Y-46475330I0J-243750D01*
G01*
G37*
%TD*%
%TO.C,C40*%
G36*
G01*
X67393160Y-50539330D02*
X67393160Y-51451830D01*
G75*
G02*
X67149410Y-51695580I-243750J0D01*
G01*
X66661910Y-51695580D01*
G75*
G02*
X66418160Y-51451830I0J243750D01*
G01*
X66418160Y-50539330D01*
G75*
G02*
X66661910Y-50295580I243750J0D01*
G01*
X67149410Y-50295580D01*
G75*
G02*
X67393160Y-50539330I0J-243750D01*
G01*
G37*
G36*
G01*
X69268160Y-50539330D02*
X69268160Y-51451830D01*
G75*
G02*
X69024410Y-51695580I-243750J0D01*
G01*
X68536910Y-51695580D01*
G75*
G02*
X68293160Y-51451830I0J243750D01*
G01*
X68293160Y-50539330D01*
G75*
G02*
X68536910Y-50295580I243750J0D01*
G01*
X69024410Y-50295580D01*
G75*
G02*
X69268160Y-50539330I0J-243750D01*
G01*
G37*
%TD*%
%TO.C,C38*%
G36*
G01*
X86889910Y-45417080D02*
X85977410Y-45417080D01*
G75*
G02*
X85733660Y-45173330I0J243750D01*
G01*
X85733660Y-44685830D01*
G75*
G02*
X85977410Y-44442080I243750J0D01*
G01*
X86889910Y-44442080D01*
G75*
G02*
X87133660Y-44685830I0J-243750D01*
G01*
X87133660Y-45173330D01*
G75*
G02*
X86889910Y-45417080I-243750J0D01*
G01*
G37*
G36*
G01*
X86889910Y-47292080D02*
X85977410Y-47292080D01*
G75*
G02*
X85733660Y-47048330I0J243750D01*
G01*
X85733660Y-46560830D01*
G75*
G02*
X85977410Y-46317080I243750J0D01*
G01*
X86889910Y-46317080D01*
G75*
G02*
X87133660Y-46560830I0J-243750D01*
G01*
X87133660Y-47048330D01*
G75*
G02*
X86889910Y-47292080I-243750J0D01*
G01*
G37*
%TD*%
%TO.C,C37*%
G36*
G01*
X100518910Y-32571080D02*
X101431410Y-32571080D01*
G75*
G02*
X101675160Y-32814830I0J-243750D01*
G01*
X101675160Y-33302330D01*
G75*
G02*
X101431410Y-33546080I-243750J0D01*
G01*
X100518910Y-33546080D01*
G75*
G02*
X100275160Y-33302330I0J243750D01*
G01*
X100275160Y-32814830D01*
G75*
G02*
X100518910Y-32571080I243750J0D01*
G01*
G37*
G36*
G01*
X100518910Y-30696080D02*
X101431410Y-30696080D01*
G75*
G02*
X101675160Y-30939830I0J-243750D01*
G01*
X101675160Y-31427330D01*
G75*
G02*
X101431410Y-31671080I-243750J0D01*
G01*
X100518910Y-31671080D01*
G75*
G02*
X100275160Y-31427330I0J243750D01*
G01*
X100275160Y-30939830D01*
G75*
G02*
X100518910Y-30696080I243750J0D01*
G01*
G37*
%TD*%
%TO.C,C32*%
G36*
G01*
X96857160Y-37204330D02*
X96857160Y-38116830D01*
G75*
G02*
X96613410Y-38360580I-243750J0D01*
G01*
X96125910Y-38360580D01*
G75*
G02*
X95882160Y-38116830I0J243750D01*
G01*
X95882160Y-37204330D01*
G75*
G02*
X96125910Y-36960580I243750J0D01*
G01*
X96613410Y-36960580D01*
G75*
G02*
X96857160Y-37204330I0J-243750D01*
G01*
G37*
G36*
G01*
X98732160Y-37204330D02*
X98732160Y-38116830D01*
G75*
G02*
X98488410Y-38360580I-243750J0D01*
G01*
X98000910Y-38360580D01*
G75*
G02*
X97757160Y-38116830I0J243750D01*
G01*
X97757160Y-37204330D01*
G75*
G02*
X98000910Y-36960580I243750J0D01*
G01*
X98488410Y-36960580D01*
G75*
G02*
X98732160Y-37204330I0J-243750D01*
G01*
G37*
%TD*%
%TO.C,C29*%
G36*
G01*
X87567160Y-49038830D02*
X87567160Y-48126330D01*
G75*
G02*
X87810910Y-47882580I243750J0D01*
G01*
X88298410Y-47882580D01*
G75*
G02*
X88542160Y-48126330I0J-243750D01*
G01*
X88542160Y-49038830D01*
G75*
G02*
X88298410Y-49282580I-243750J0D01*
G01*
X87810910Y-49282580D01*
G75*
G02*
X87567160Y-49038830I0J243750D01*
G01*
G37*
G36*
G01*
X85692160Y-49038830D02*
X85692160Y-48126330D01*
G75*
G02*
X85935910Y-47882580I243750J0D01*
G01*
X86423410Y-47882580D01*
G75*
G02*
X86667160Y-48126330I0J-243750D01*
G01*
X86667160Y-49038830D01*
G75*
G02*
X86423410Y-49282580I-243750J0D01*
G01*
X85935910Y-49282580D01*
G75*
G02*
X85692160Y-49038830I0J243750D01*
G01*
G37*
%TD*%
%TO.C,C27*%
G36*
G01*
X82674400Y-52119850D02*
X82674400Y-51207350D01*
G75*
G02*
X82918150Y-50963600I243750J0D01*
G01*
X83405650Y-50963600D01*
G75*
G02*
X83649400Y-51207350I0J-243750D01*
G01*
X83649400Y-52119850D01*
G75*
G02*
X83405650Y-52363600I-243750J0D01*
G01*
X82918150Y-52363600D01*
G75*
G02*
X82674400Y-52119850I0J243750D01*
G01*
G37*
G36*
G01*
X84549400Y-52119850D02*
X84549400Y-51207350D01*
G75*
G02*
X84793150Y-50963600I243750J0D01*
G01*
X85280650Y-50963600D01*
G75*
G02*
X85524400Y-51207350I0J-243750D01*
G01*
X85524400Y-52119850D01*
G75*
G02*
X85280650Y-52363600I-243750J0D01*
G01*
X84793150Y-52363600D01*
G75*
G02*
X84549400Y-52119850I0J243750D01*
G01*
G37*
%TD*%
%TO.C,C26*%
G36*
G01*
X96857160Y-39236330D02*
X96857160Y-40148830D01*
G75*
G02*
X96613410Y-40392580I-243750J0D01*
G01*
X96125910Y-40392580D01*
G75*
G02*
X95882160Y-40148830I0J243750D01*
G01*
X95882160Y-39236330D01*
G75*
G02*
X96125910Y-38992580I243750J0D01*
G01*
X96613410Y-38992580D01*
G75*
G02*
X96857160Y-39236330I0J-243750D01*
G01*
G37*
G36*
G01*
X98732160Y-39236330D02*
X98732160Y-40148830D01*
G75*
G02*
X98488410Y-40392580I-243750J0D01*
G01*
X98000910Y-40392580D01*
G75*
G02*
X97757160Y-40148830I0J243750D01*
G01*
X97757160Y-39236330D01*
G75*
G02*
X98000910Y-38992580I243750J0D01*
G01*
X98488410Y-38992580D01*
G75*
G02*
X98732160Y-39236330I0J-243750D01*
G01*
G37*
%TD*%
%TO.C,C23*%
G36*
G01*
X85524160Y-41903330D02*
X85524160Y-42815830D01*
G75*
G02*
X85280410Y-43059580I-243750J0D01*
G01*
X84792910Y-43059580D01*
G75*
G02*
X84549160Y-42815830I0J243750D01*
G01*
X84549160Y-41903330D01*
G75*
G02*
X84792910Y-41659580I243750J0D01*
G01*
X85280410Y-41659580D01*
G75*
G02*
X85524160Y-41903330I0J-243750D01*
G01*
G37*
G36*
G01*
X87399160Y-41903330D02*
X87399160Y-42815830D01*
G75*
G02*
X87155410Y-43059580I-243750J0D01*
G01*
X86667910Y-43059580D01*
G75*
G02*
X86424160Y-42815830I0J243750D01*
G01*
X86424160Y-41903330D01*
G75*
G02*
X86667910Y-41659580I243750J0D01*
G01*
X87155410Y-41659580D01*
G75*
G02*
X87399160Y-41903330I0J-243750D01*
G01*
G37*
%TD*%
%TO.C,C22*%
G36*
G01*
X101346660Y-40085330D02*
X101346660Y-39172830D01*
G75*
G02*
X101590410Y-38929080I243750J0D01*
G01*
X102077910Y-38929080D01*
G75*
G02*
X102321660Y-39172830I0J-243750D01*
G01*
X102321660Y-40085330D01*
G75*
G02*
X102077910Y-40329080I-243750J0D01*
G01*
X101590410Y-40329080D01*
G75*
G02*
X101346660Y-40085330I0J243750D01*
G01*
G37*
G36*
G01*
X99471660Y-40085330D02*
X99471660Y-39172830D01*
G75*
G02*
X99715410Y-38929080I243750J0D01*
G01*
X100202910Y-38929080D01*
G75*
G02*
X100446660Y-39172830I0J-243750D01*
G01*
X100446660Y-40085330D01*
G75*
G02*
X100202910Y-40329080I-243750J0D01*
G01*
X99715410Y-40329080D01*
G75*
G02*
X99471660Y-40085330I0J243750D01*
G01*
G37*
%TD*%
%TO.C,C21*%
G36*
G01*
X100848340Y-42107170D02*
X100848340Y-41194670D01*
G75*
G02*
X101092090Y-40950920I243750J0D01*
G01*
X101579590Y-40950920D01*
G75*
G02*
X101823340Y-41194670I0J-243750D01*
G01*
X101823340Y-42107170D01*
G75*
G02*
X101579590Y-42350920I-243750J0D01*
G01*
X101092090Y-42350920D01*
G75*
G02*
X100848340Y-42107170I0J243750D01*
G01*
G37*
G36*
G01*
X98973340Y-42107170D02*
X98973340Y-41194670D01*
G75*
G02*
X99217090Y-40950920I243750J0D01*
G01*
X99704590Y-40950920D01*
G75*
G02*
X99948340Y-41194670I0J-243750D01*
G01*
X99948340Y-42107170D01*
G75*
G02*
X99704590Y-42350920I-243750J0D01*
G01*
X99217090Y-42350920D01*
G75*
G02*
X98973340Y-42107170I0J243750D01*
G01*
G37*
%TD*%
%TO.C,C19*%
G36*
G01*
X67834190Y-44579960D02*
X68746690Y-44579960D01*
G75*
G02*
X68990440Y-44823710I0J-243750D01*
G01*
X68990440Y-45311210D01*
G75*
G02*
X68746690Y-45554960I-243750J0D01*
G01*
X67834190Y-45554960D01*
G75*
G02*
X67590440Y-45311210I0J243750D01*
G01*
X67590440Y-44823710D01*
G75*
G02*
X67834190Y-44579960I243750J0D01*
G01*
G37*
G36*
G01*
X67834190Y-42704960D02*
X68746690Y-42704960D01*
G75*
G02*
X68990440Y-42948710I0J-243750D01*
G01*
X68990440Y-43436210D01*
G75*
G02*
X68746690Y-43679960I-243750J0D01*
G01*
X67834190Y-43679960D01*
G75*
G02*
X67590440Y-43436210I0J243750D01*
G01*
X67590440Y-42948710D01*
G75*
G02*
X67834190Y-42704960I243750J0D01*
G01*
G37*
%TD*%
%TO.C,C18*%
G36*
G01*
X65852990Y-44579960D02*
X66765490Y-44579960D01*
G75*
G02*
X67009240Y-44823710I0J-243750D01*
G01*
X67009240Y-45311210D01*
G75*
G02*
X66765490Y-45554960I-243750J0D01*
G01*
X65852990Y-45554960D01*
G75*
G02*
X65609240Y-45311210I0J243750D01*
G01*
X65609240Y-44823710D01*
G75*
G02*
X65852990Y-44579960I243750J0D01*
G01*
G37*
G36*
G01*
X65852990Y-42704960D02*
X66765490Y-42704960D01*
G75*
G02*
X67009240Y-42948710I0J-243750D01*
G01*
X67009240Y-43436210D01*
G75*
G02*
X66765490Y-43679960I-243750J0D01*
G01*
X65852990Y-43679960D01*
G75*
G02*
X65609240Y-43436210I0J243750D01*
G01*
X65609240Y-42948710D01*
G75*
G02*
X65852990Y-42704960I243750J0D01*
G01*
G37*
%TD*%
%TO.C,C16*%
G36*
G01*
X95553850Y-54292080D02*
X94641350Y-54292080D01*
G75*
G02*
X94397600Y-54048330I0J243750D01*
G01*
X94397600Y-53560830D01*
G75*
G02*
X94641350Y-53317080I243750J0D01*
G01*
X95553850Y-53317080D01*
G75*
G02*
X95797600Y-53560830I0J-243750D01*
G01*
X95797600Y-54048330D01*
G75*
G02*
X95553850Y-54292080I-243750J0D01*
G01*
G37*
G36*
G01*
X95553850Y-56167080D02*
X94641350Y-56167080D01*
G75*
G02*
X94397600Y-55923330I0J243750D01*
G01*
X94397600Y-55435830D01*
G75*
G02*
X94641350Y-55192080I243750J0D01*
G01*
X95553850Y-55192080D01*
G75*
G02*
X95797600Y-55435830I0J-243750D01*
G01*
X95797600Y-55923330D01*
G75*
G02*
X95553850Y-56167080I-243750J0D01*
G01*
G37*
%TD*%
%TO.C,C14*%
G36*
G01*
X77549160Y-64977330D02*
X77549160Y-64064830D01*
G75*
G02*
X77792910Y-63821080I243750J0D01*
G01*
X78280410Y-63821080D01*
G75*
G02*
X78524160Y-64064830I0J-243750D01*
G01*
X78524160Y-64977330D01*
G75*
G02*
X78280410Y-65221080I-243750J0D01*
G01*
X77792910Y-65221080D01*
G75*
G02*
X77549160Y-64977330I0J243750D01*
G01*
G37*
G36*
G01*
X75674160Y-64977330D02*
X75674160Y-64064830D01*
G75*
G02*
X75917910Y-63821080I243750J0D01*
G01*
X76405410Y-63821080D01*
G75*
G02*
X76649160Y-64064830I0J-243750D01*
G01*
X76649160Y-64977330D01*
G75*
G02*
X76405410Y-65221080I-243750J0D01*
G01*
X75917910Y-65221080D01*
G75*
G02*
X75674160Y-64977330I0J243750D01*
G01*
G37*
%TD*%
%TO.C,C13*%
G36*
G01*
X65600160Y-63620330D02*
X65600160Y-64532830D01*
G75*
G02*
X65356410Y-64776580I-243750J0D01*
G01*
X64868910Y-64776580D01*
G75*
G02*
X64625160Y-64532830I0J243750D01*
G01*
X64625160Y-63620330D01*
G75*
G02*
X64868910Y-63376580I243750J0D01*
G01*
X65356410Y-63376580D01*
G75*
G02*
X65600160Y-63620330I0J-243750D01*
G01*
G37*
G36*
G01*
X67475160Y-63620330D02*
X67475160Y-64532830D01*
G75*
G02*
X67231410Y-64776580I-243750J0D01*
G01*
X66743910Y-64776580D01*
G75*
G02*
X66500160Y-64532830I0J243750D01*
G01*
X66500160Y-63620330D01*
G75*
G02*
X66743910Y-63376580I243750J0D01*
G01*
X67231410Y-63376580D01*
G75*
G02*
X67475160Y-63620330I0J-243750D01*
G01*
G37*
%TD*%
%TO.C,C12*%
G36*
G01*
X78293140Y-56072090D02*
X78293140Y-55159590D01*
G75*
G02*
X78536890Y-54915840I243750J0D01*
G01*
X79024390Y-54915840D01*
G75*
G02*
X79268140Y-55159590I0J-243750D01*
G01*
X79268140Y-56072090D01*
G75*
G02*
X79024390Y-56315840I-243750J0D01*
G01*
X78536890Y-56315840D01*
G75*
G02*
X78293140Y-56072090I0J243750D01*
G01*
G37*
G36*
G01*
X76418140Y-56072090D02*
X76418140Y-55159590D01*
G75*
G02*
X76661890Y-54915840I243750J0D01*
G01*
X77149390Y-54915840D01*
G75*
G02*
X77393140Y-55159590I0J-243750D01*
G01*
X77393140Y-56072090D01*
G75*
G02*
X77149390Y-56315840I-243750J0D01*
G01*
X76661890Y-56315840D01*
G75*
G02*
X76418140Y-56072090I0J243750D01*
G01*
G37*
%TD*%
%TO.C,C11*%
G36*
G01*
X64948750Y-56230700D02*
X65861250Y-56230700D01*
G75*
G02*
X66105000Y-56474450I0J-243750D01*
G01*
X66105000Y-56961950D01*
G75*
G02*
X65861250Y-57205700I-243750J0D01*
G01*
X64948750Y-57205700D01*
G75*
G02*
X64705000Y-56961950I0J243750D01*
G01*
X64705000Y-56474450D01*
G75*
G02*
X64948750Y-56230700I243750J0D01*
G01*
G37*
G36*
G01*
X64948750Y-54355700D02*
X65861250Y-54355700D01*
G75*
G02*
X66105000Y-54599450I0J-243750D01*
G01*
X66105000Y-55086950D01*
G75*
G02*
X65861250Y-55330700I-243750J0D01*
G01*
X64948750Y-55330700D01*
G75*
G02*
X64705000Y-55086950I0J243750D01*
G01*
X64705000Y-54599450D01*
G75*
G02*
X64948750Y-54355700I243750J0D01*
G01*
G37*
%TD*%
%TO.C,C9*%
G36*
G01*
X84794410Y-61625300D02*
X83881910Y-61625300D01*
G75*
G02*
X83638160Y-61381550I0J243750D01*
G01*
X83638160Y-60894050D01*
G75*
G02*
X83881910Y-60650300I243750J0D01*
G01*
X84794410Y-60650300D01*
G75*
G02*
X85038160Y-60894050I0J-243750D01*
G01*
X85038160Y-61381550D01*
G75*
G02*
X84794410Y-61625300I-243750J0D01*
G01*
G37*
G36*
G01*
X84794410Y-63500300D02*
X83881910Y-63500300D01*
G75*
G02*
X83638160Y-63256550I0J243750D01*
G01*
X83638160Y-62769050D01*
G75*
G02*
X83881910Y-62525300I243750J0D01*
G01*
X84794410Y-62525300D01*
G75*
G02*
X85038160Y-62769050I0J-243750D01*
G01*
X85038160Y-63256550D01*
G75*
G02*
X84794410Y-63500300I-243750J0D01*
G01*
G37*
%TD*%
%TO.C,C7*%
G36*
G01*
X83935250Y-66861080D02*
X84847750Y-66861080D01*
G75*
G02*
X85091500Y-67104830I0J-243750D01*
G01*
X85091500Y-67592330D01*
G75*
G02*
X84847750Y-67836080I-243750J0D01*
G01*
X83935250Y-67836080D01*
G75*
G02*
X83691500Y-67592330I0J243750D01*
G01*
X83691500Y-67104830D01*
G75*
G02*
X83935250Y-66861080I243750J0D01*
G01*
G37*
G36*
G01*
X83935250Y-64986080D02*
X84847750Y-64986080D01*
G75*
G02*
X85091500Y-65229830I0J-243750D01*
G01*
X85091500Y-65717330D01*
G75*
G02*
X84847750Y-65961080I-243750J0D01*
G01*
X83935250Y-65961080D01*
G75*
G02*
X83691500Y-65717330I0J243750D01*
G01*
X83691500Y-65229830D01*
G75*
G02*
X83935250Y-64986080I243750J0D01*
G01*
G37*
%TD*%
%TO.C,C5*%
G36*
G01*
X93790160Y-74438830D02*
X93790160Y-73526330D01*
G75*
G02*
X94033910Y-73282580I243750J0D01*
G01*
X94521410Y-73282580D01*
G75*
G02*
X94765160Y-73526330I0J-243750D01*
G01*
X94765160Y-74438830D01*
G75*
G02*
X94521410Y-74682580I-243750J0D01*
G01*
X94033910Y-74682580D01*
G75*
G02*
X93790160Y-74438830I0J243750D01*
G01*
G37*
G36*
G01*
X91915160Y-74438830D02*
X91915160Y-73526330D01*
G75*
G02*
X92158910Y-73282580I243750J0D01*
G01*
X92646410Y-73282580D01*
G75*
G02*
X92890160Y-73526330I0J-243750D01*
G01*
X92890160Y-74438830D01*
G75*
G02*
X92646410Y-74682580I-243750J0D01*
G01*
X92158910Y-74682580D01*
G75*
G02*
X91915160Y-74438830I0J243750D01*
G01*
G37*
%TD*%
%TO.C,C4*%
G36*
G01*
X95883410Y-67955580D02*
X96795910Y-67955580D01*
G75*
G02*
X97039660Y-68199330I0J-243750D01*
G01*
X97039660Y-68686830D01*
G75*
G02*
X96795910Y-68930580I-243750J0D01*
G01*
X95883410Y-68930580D01*
G75*
G02*
X95639660Y-68686830I0J243750D01*
G01*
X95639660Y-68199330D01*
G75*
G02*
X95883410Y-67955580I243750J0D01*
G01*
G37*
G36*
G01*
X95883410Y-66080580D02*
X96795910Y-66080580D01*
G75*
G02*
X97039660Y-66324330I0J-243750D01*
G01*
X97039660Y-66811830D01*
G75*
G02*
X96795910Y-67055580I-243750J0D01*
G01*
X95883410Y-67055580D01*
G75*
G02*
X95639660Y-66811830I0J243750D01*
G01*
X95639660Y-66324330D01*
G75*
G02*
X95883410Y-66080580I243750J0D01*
G01*
G37*
%TD*%
%TO.C,C3*%
G36*
G01*
X81755160Y-56658830D02*
X81755160Y-55746330D01*
G75*
G02*
X81998910Y-55502580I243750J0D01*
G01*
X82486410Y-55502580D01*
G75*
G02*
X82730160Y-55746330I0J-243750D01*
G01*
X82730160Y-56658830D01*
G75*
G02*
X82486410Y-56902580I-243750J0D01*
G01*
X81998910Y-56902580D01*
G75*
G02*
X81755160Y-56658830I0J243750D01*
G01*
G37*
G36*
G01*
X79880160Y-56658830D02*
X79880160Y-55746330D01*
G75*
G02*
X80123910Y-55502580I243750J0D01*
G01*
X80611410Y-55502580D01*
G75*
G02*
X80855160Y-55746330I0J-243750D01*
G01*
X80855160Y-56658830D01*
G75*
G02*
X80611410Y-56902580I-243750J0D01*
G01*
X80123910Y-56902580D01*
G75*
G02*
X79880160Y-56658830I0J243750D01*
G01*
G37*
%TD*%
%TO.C,C2*%
G36*
G01*
X96795910Y-70499580D02*
X95883410Y-70499580D01*
G75*
G02*
X95639660Y-70255830I0J243750D01*
G01*
X95639660Y-69768330D01*
G75*
G02*
X95883410Y-69524580I243750J0D01*
G01*
X96795910Y-69524580D01*
G75*
G02*
X97039660Y-69768330I0J-243750D01*
G01*
X97039660Y-70255830D01*
G75*
G02*
X96795910Y-70499580I-243750J0D01*
G01*
G37*
G36*
G01*
X96795910Y-72374580D02*
X95883410Y-72374580D01*
G75*
G02*
X95639660Y-72130830I0J243750D01*
G01*
X95639660Y-71643330D01*
G75*
G02*
X95883410Y-71399580I243750J0D01*
G01*
X96795910Y-71399580D01*
G75*
G02*
X97039660Y-71643330I0J-243750D01*
G01*
X97039660Y-72130830D01*
G75*
G02*
X96795910Y-72374580I-243750J0D01*
G01*
G37*
%TD*%
M02*
