M48
; DRILL file {KiCad 5.1.7-a382d34a8~88~ubuntu20.04.1} date Mon Jan 11 19:53:56 2021
; FORMAT={-:-/ absolute / inch / decimal}
; #@! TF.CreationDate,2021-01-11T19:53:56+01:00
; #@! TF.GenerationSoftware,Kicad,Pcbnew,5.1.7-a382d34a8~88~ubuntu20.04.1
; #@! TF.FileFunction,Plated,1,2,PTH
FMAT,2
INCH
T1C0.0157
T2C0.0236
T3C0.0276
T4C0.0394
%
G90
G05
T1
X2.5229Y-2.5202
X2.5279Y-2.7477
X2.5288Y-2.3092
X2.529Y-2.267
X2.5304Y-3.0402
X2.5529Y-1.4127
X2.584Y-2.395
X2.5923Y-1.4127
X2.5939Y-2.2971
X2.6316Y-1.4127
X2.6329Y-2.7227
X2.6729Y-1.4127
X2.6814Y-2.5894
X2.7079Y-1.6327
X2.7695Y-2.5779
X2.774Y-2.2622
X2.7929Y-1.4127
X2.8039Y-1.6183
X2.8064Y-2.5841
X2.8183Y-2.0886
X2.8323Y-1.4127
X2.8393Y-2.6019
X2.8598Y-2.124
X2.8679Y-1.7227
X2.8679Y-1.9327
X2.8716Y-1.4127
X2.8829Y-1.9827
X2.8854Y-2.383
X2.8879Y-1.7677
X2.892Y-2.5913
X2.895Y-2.73
X2.8964Y-2.116
X2.905Y-2.2484
X2.911Y-1.4127
X2.9181Y-2.6709
X2.9181Y-2.6182
X2.9194Y-2.3252
X2.9419Y-2.0894
X2.9802Y-2.2168
X2.9929Y-1.4127
X2.9976Y-2.1808
X3.0234Y-2.1175
X3.0309Y-2.498
X3.0323Y-1.4127
X3.0429Y-1.9877
X3.0429Y-2.7552
X3.0716Y-1.4127
X3.082Y-2.0966
X3.111Y-1.4127
X3.1124Y-3.002
X3.1175Y-3.11
X3.1274Y-2.5234
X3.1442Y-2.165
X3.1629Y-2.3802
X3.1829Y-1.6477
X3.1874Y-2.1542
X3.2006Y-1.8404
X3.2029Y-1.4177
X3.2029Y-1.7427
X3.2029Y-1.7977
X3.211Y-2.0005
X3.2429Y-1.4127
X3.2668Y-2.4268
X3.2823Y-1.4127
X3.2829Y-1.6277
X3.3086Y-2.0774
X3.3154Y-2.7027
X3.3177Y-1.9612
X3.3216Y-1.4127
X3.3472Y-2.3576
X3.3579Y-1.5327
X3.3879Y-1.4177
X3.399Y-2.034
X3.4152Y-2.3518
X3.425Y-1.945
X3.43Y-1.4158
X3.4674Y-3.0407
X3.4706Y-1.4155
X3.475Y-1.5748
X3.4829Y-2.7152
X3.5229Y-2.6877
X3.5379Y-3.1877
X3.5479Y-1.3977
X3.5579Y-1.2327
X3.58Y-1.965
X3.5954Y-2.9127
X3.5979Y-2.4252
X3.6182Y-2.229
X3.6611Y-1.2749
X3.7262Y-1.9646
X3.7729Y-2.9412
X3.8054Y-1.6227
X3.8064Y-2.322
X3.8529Y-2.6952
X3.8679Y-1.0327
X3.9075Y-1.3775
X3.9448Y-1.3518
X3.9504Y-2.9977
X4.0029Y-2.7852
X4.0154Y-1.1177
X4.0204Y-3.0002
X4.0854Y-3.0802
X4.0872Y-1.4918
X4.1529Y-2.8852
X4.1692Y-1.9214
X4.1904Y-1.0802
T3
X4.0418Y-2.3654
X4.0418Y-2.4654
X4.0418Y-2.5654
X4.0418Y-2.6654
T4
X2.4654Y-2.0702
X2.4654Y-2.1702
X2.4654Y-2.2702
X2.4654Y-2.3702
X4.1529Y-2.0643
X4.1529Y-2.1627
X3.2004Y-2.6177
X3.2004Y-2.7177
X3.2004Y-2.8177
X3.2004Y-2.9177
X2.5129Y-1.0827
X2.5129Y-1.1827
X2.6129Y-1.0827
X2.6129Y-1.1827
X2.7129Y-1.0827
X2.7129Y-1.1827
X2.8129Y-1.0827
X2.8129Y-1.1827
X2.9129Y-1.0827
X2.9129Y-1.1827
X3.0129Y-1.0827
X3.0129Y-1.1827
X3.1129Y-1.0827
X3.1129Y-1.1827
X3.2129Y-1.0827
X3.2129Y-1.1827
X3.3129Y-1.0827
X3.3129Y-1.1827
X3.4129Y-1.0827
X3.4129Y-1.1827
X3.5129Y-1.0827
X3.5129Y-1.1827
X3.6129Y-1.0827
X3.6129Y-1.1827
X3.7129Y-1.0827
X3.7129Y-1.1827
T2
G00X3.8217Y-2.9521
M15
G01X3.8217Y-2.9954
M16
G05
G00X3.8217Y-3.1265
M15
G01X3.8217Y-3.1501
M16
G05
G00X4.1619Y-2.9521
M15
G01X4.1619Y-2.9954
M16
G05
G00X4.1619Y-3.1265
M15
G01X4.1619Y-3.1501
M16
G05
T0
M30
