%TF.GenerationSoftware,KiCad,Pcbnew,5.1.7-a382d34a8~88~ubuntu20.04.1*%
%TF.CreationDate,2021-01-11T19:53:58+01:00*%
%TF.ProjectId,BioElectricalSensor,42696f45-6c65-4637-9472-6963616c5365,rev?*%
%TF.SameCoordinates,Original*%
%TF.FileFunction,Legend,Bot*%
%TF.FilePolarity,Positive*%
%FSLAX46Y46*%
G04 Gerber Fmt 4.6, Leading zero omitted, Abs format (unit mm)*
G04 Created by KiCad (PCBNEW 5.1.7-a382d34a8~88~ubuntu20.04.1) date 2021-01-11 19:53:58*
%MOMM*%
%LPD*%
G01*
G04 APERTURE LIST*
%ADD10C,0.200000*%
%ADD11C,0.250000*%
%ADD12C,0.150000*%
%ADD13C,0.400000*%
%ADD14C,0.010000*%
%ADD15C,0.120000*%
G04 APERTURE END LIST*
D10*
X105560785Y-60737523D02*
X104894119Y-60737523D01*
X105941738Y-60975619D02*
X105227452Y-61213714D01*
X105227452Y-60594666D01*
X105275071Y-60213714D02*
X105275071Y-59451809D01*
X104894119Y-58451809D02*
X104894119Y-59023238D01*
X104894119Y-58737523D02*
X105894119Y-58737523D01*
X105751261Y-58832761D01*
X105656023Y-58928000D01*
X105608404Y-59023238D01*
X105798880Y-58070857D02*
X105846500Y-58023238D01*
X105894119Y-57928000D01*
X105894119Y-57689904D01*
X105846500Y-57594666D01*
X105798880Y-57547047D01*
X105703642Y-57499428D01*
X105608404Y-57499428D01*
X105465547Y-57547047D01*
X104894119Y-58118476D01*
X104894119Y-57499428D01*
X105894119Y-57213714D02*
X104894119Y-56880380D01*
X105894119Y-56547047D01*
D11*
X102862071Y-55228952D02*
X102862071Y-54467047D01*
X102481119Y-54848000D02*
X103243023Y-54848000D01*
X102862071Y-53228952D02*
X102862071Y-52467047D01*
D12*
X105709476Y-46109380D02*
X106042809Y-45633190D01*
X106280904Y-46109380D02*
X106280904Y-45109380D01*
X105899952Y-45109380D01*
X105804714Y-45157000D01*
X105757095Y-45204619D01*
X105709476Y-45299857D01*
X105709476Y-45442714D01*
X105757095Y-45537952D01*
X105804714Y-45585571D01*
X105899952Y-45633190D01*
X106280904Y-45633190D01*
X104899952Y-46061761D02*
X104995190Y-46109380D01*
X105185666Y-46109380D01*
X105280904Y-46061761D01*
X105328523Y-45966523D01*
X105328523Y-45585571D01*
X105280904Y-45490333D01*
X105185666Y-45442714D01*
X104995190Y-45442714D01*
X104899952Y-45490333D01*
X104852333Y-45585571D01*
X104852333Y-45680809D01*
X105328523Y-45776047D01*
X103995190Y-46109380D02*
X103995190Y-45585571D01*
X104042809Y-45490333D01*
X104138047Y-45442714D01*
X104328523Y-45442714D01*
X104423761Y-45490333D01*
X103995190Y-46061761D02*
X104090428Y-46109380D01*
X104328523Y-46109380D01*
X104423761Y-46061761D01*
X104471380Y-45966523D01*
X104471380Y-45871285D01*
X104423761Y-45776047D01*
X104328523Y-45728428D01*
X104090428Y-45728428D01*
X103995190Y-45680809D01*
X103090428Y-46109380D02*
X103090428Y-45109380D01*
X103090428Y-46061761D02*
X103185666Y-46109380D01*
X103376142Y-46109380D01*
X103471380Y-46061761D01*
X103519000Y-46014142D01*
X103566619Y-45918904D01*
X103566619Y-45633190D01*
X103519000Y-45537952D01*
X103471380Y-45490333D01*
X103376142Y-45442714D01*
X103185666Y-45442714D01*
X103090428Y-45490333D01*
X101899952Y-46061761D02*
X101804714Y-46109380D01*
X101614238Y-46109380D01*
X101519000Y-46061761D01*
X101471380Y-45966523D01*
X101471380Y-45918904D01*
X101519000Y-45823666D01*
X101614238Y-45776047D01*
X101757095Y-45776047D01*
X101852333Y-45728428D01*
X101899952Y-45633190D01*
X101899952Y-45585571D01*
X101852333Y-45490333D01*
X101757095Y-45442714D01*
X101614238Y-45442714D01*
X101519000Y-45490333D01*
X100614238Y-46109380D02*
X100614238Y-45585571D01*
X100661857Y-45490333D01*
X100757095Y-45442714D01*
X100947571Y-45442714D01*
X101042809Y-45490333D01*
X100614238Y-46061761D02*
X100709476Y-46109380D01*
X100947571Y-46109380D01*
X101042809Y-46061761D01*
X101090428Y-45966523D01*
X101090428Y-45871285D01*
X101042809Y-45776047D01*
X100947571Y-45728428D01*
X100709476Y-45728428D01*
X100614238Y-45680809D01*
X100280904Y-45442714D02*
X99899952Y-45442714D01*
X100138047Y-46109380D02*
X100138047Y-45252238D01*
X100090428Y-45157000D01*
X99995190Y-45109380D01*
X99899952Y-45109380D01*
X99185666Y-46061761D02*
X99280904Y-46109380D01*
X99471380Y-46109380D01*
X99566619Y-46061761D01*
X99614238Y-45966523D01*
X99614238Y-45585571D01*
X99566619Y-45490333D01*
X99471380Y-45442714D01*
X99280904Y-45442714D01*
X99185666Y-45490333D01*
X99138047Y-45585571D01*
X99138047Y-45680809D01*
X99614238Y-45776047D01*
X98852333Y-45442714D02*
X98471380Y-45442714D01*
X98709476Y-45109380D02*
X98709476Y-45966523D01*
X98661857Y-46061761D01*
X98566619Y-46109380D01*
X98471380Y-46109380D01*
X98233285Y-45442714D02*
X97995190Y-46109380D01*
X97757095Y-45442714D02*
X97995190Y-46109380D01*
X98090428Y-46347476D01*
X98138047Y-46395095D01*
X98233285Y-46442714D01*
X106280904Y-47759380D02*
X106280904Y-47092714D01*
X106280904Y-46759380D02*
X106328523Y-46807000D01*
X106280904Y-46854619D01*
X106233285Y-46807000D01*
X106280904Y-46759380D01*
X106280904Y-46854619D01*
X105804714Y-47092714D02*
X105804714Y-47759380D01*
X105804714Y-47187952D02*
X105757095Y-47140333D01*
X105661857Y-47092714D01*
X105519000Y-47092714D01*
X105423761Y-47140333D01*
X105376142Y-47235571D01*
X105376142Y-47759380D01*
X104947571Y-47711761D02*
X104852333Y-47759380D01*
X104661857Y-47759380D01*
X104566619Y-47711761D01*
X104519000Y-47616523D01*
X104519000Y-47568904D01*
X104566619Y-47473666D01*
X104661857Y-47426047D01*
X104804714Y-47426047D01*
X104899952Y-47378428D01*
X104947571Y-47283190D01*
X104947571Y-47235571D01*
X104899952Y-47140333D01*
X104804714Y-47092714D01*
X104661857Y-47092714D01*
X104566619Y-47140333D01*
X104233285Y-47092714D02*
X103852333Y-47092714D01*
X104090428Y-46759380D02*
X104090428Y-47616523D01*
X104042809Y-47711761D01*
X103947571Y-47759380D01*
X103852333Y-47759380D01*
X103519000Y-47759380D02*
X103519000Y-47092714D01*
X103519000Y-47283190D02*
X103471380Y-47187952D01*
X103423761Y-47140333D01*
X103328523Y-47092714D01*
X103233285Y-47092714D01*
X102471380Y-47092714D02*
X102471380Y-47759380D01*
X102899952Y-47092714D02*
X102899952Y-47616523D01*
X102852333Y-47711761D01*
X102757095Y-47759380D01*
X102614238Y-47759380D01*
X102519000Y-47711761D01*
X102471380Y-47664142D01*
X101566619Y-47711761D02*
X101661857Y-47759380D01*
X101852333Y-47759380D01*
X101947571Y-47711761D01*
X101995190Y-47664142D01*
X102042809Y-47568904D01*
X102042809Y-47283190D01*
X101995190Y-47187952D01*
X101947571Y-47140333D01*
X101852333Y-47092714D01*
X101661857Y-47092714D01*
X101566619Y-47140333D01*
X101280904Y-47092714D02*
X100899952Y-47092714D01*
X101138047Y-46759380D02*
X101138047Y-47616523D01*
X101090428Y-47711761D01*
X100995190Y-47759380D01*
X100899952Y-47759380D01*
X100566619Y-47759380D02*
X100566619Y-47092714D01*
X100566619Y-46759380D02*
X100614238Y-46807000D01*
X100566619Y-46854619D01*
X100519000Y-46807000D01*
X100566619Y-46759380D01*
X100566619Y-46854619D01*
X99947571Y-47759380D02*
X100042809Y-47711761D01*
X100090428Y-47664142D01*
X100138047Y-47568904D01*
X100138047Y-47283190D01*
X100090428Y-47187952D01*
X100042809Y-47140333D01*
X99947571Y-47092714D01*
X99804714Y-47092714D01*
X99709476Y-47140333D01*
X99661857Y-47187952D01*
X99614238Y-47283190D01*
X99614238Y-47568904D01*
X99661857Y-47664142D01*
X99709476Y-47711761D01*
X99804714Y-47759380D01*
X99947571Y-47759380D01*
X99185666Y-47092714D02*
X99185666Y-47759380D01*
X99185666Y-47187952D02*
X99138047Y-47140333D01*
X99042809Y-47092714D01*
X98899952Y-47092714D01*
X98804714Y-47140333D01*
X98757095Y-47235571D01*
X98757095Y-47759380D01*
X98328523Y-47711761D02*
X98233285Y-47759380D01*
X98042809Y-47759380D01*
X97947571Y-47711761D01*
X97899952Y-47616523D01*
X97899952Y-47568904D01*
X97947571Y-47473666D01*
X98042809Y-47426047D01*
X98185666Y-47426047D01*
X98280904Y-47378428D01*
X98328523Y-47283190D01*
X98328523Y-47235571D01*
X98280904Y-47140333D01*
X98185666Y-47092714D01*
X98042809Y-47092714D01*
X97947571Y-47140333D01*
X96852333Y-47092714D02*
X96471380Y-47092714D01*
X96709476Y-47759380D02*
X96709476Y-46902238D01*
X96661857Y-46807000D01*
X96566619Y-46759380D01*
X96471380Y-46759380D01*
X96138047Y-47759380D02*
X96138047Y-47092714D01*
X96138047Y-46759380D02*
X96185666Y-46807000D01*
X96138047Y-46854619D01*
X96090428Y-46807000D01*
X96138047Y-46759380D01*
X96138047Y-46854619D01*
X95661857Y-47759380D02*
X95661857Y-47092714D01*
X95661857Y-47283190D02*
X95614238Y-47187952D01*
X95566619Y-47140333D01*
X95471380Y-47092714D01*
X95376142Y-47092714D01*
X95090428Y-47711761D02*
X94995190Y-47759380D01*
X94804714Y-47759380D01*
X94709476Y-47711761D01*
X94661857Y-47616523D01*
X94661857Y-47568904D01*
X94709476Y-47473666D01*
X94804714Y-47426047D01*
X94947571Y-47426047D01*
X95042809Y-47378428D01*
X95090428Y-47283190D01*
X95090428Y-47235571D01*
X95042809Y-47140333D01*
X94947571Y-47092714D01*
X94804714Y-47092714D01*
X94709476Y-47140333D01*
X94376142Y-47092714D02*
X93995190Y-47092714D01*
X94233285Y-46759380D02*
X94233285Y-47616523D01*
X94185666Y-47711761D01*
X94090428Y-47759380D01*
X93995190Y-47759380D01*
X93661857Y-47664142D02*
X93614238Y-47711761D01*
X93661857Y-47759380D01*
X93709476Y-47711761D01*
X93661857Y-47664142D01*
X93661857Y-47759380D01*
X93661857Y-47378428D02*
X93709476Y-46807000D01*
X93661857Y-46759380D01*
X93614238Y-46807000D01*
X93661857Y-47378428D01*
X93661857Y-46759380D01*
D13*
X106583904Y-42275261D02*
X106107714Y-44275261D01*
X105726761Y-42846690D01*
X105345809Y-44275261D01*
X104869619Y-42275261D01*
X104202952Y-43703833D02*
X103250571Y-43703833D01*
X104393428Y-44275261D02*
X103726761Y-42275261D01*
X103060095Y-44275261D01*
X101250571Y-44275261D02*
X101917238Y-43322880D01*
X102393428Y-44275261D02*
X102393428Y-42275261D01*
X101631523Y-42275261D01*
X101441047Y-42370500D01*
X101345809Y-42465738D01*
X101250571Y-42656214D01*
X101250571Y-42941928D01*
X101345809Y-43132404D01*
X101441047Y-43227642D01*
X101631523Y-43322880D01*
X102393428Y-43322880D01*
X100393428Y-44275261D02*
X100393428Y-42275261D01*
X99250571Y-44275261D01*
X99250571Y-42275261D01*
X98298190Y-44275261D02*
X98298190Y-42275261D01*
X97345809Y-44275261D02*
X97345809Y-42275261D01*
X96202952Y-44275261D01*
X96202952Y-42275261D01*
X94202952Y-42370500D02*
X94393428Y-42275261D01*
X94679142Y-42275261D01*
X94964857Y-42370500D01*
X95155333Y-42560976D01*
X95250571Y-42751452D01*
X95345809Y-43132404D01*
X95345809Y-43418119D01*
X95250571Y-43799071D01*
X95155333Y-43989547D01*
X94964857Y-44180023D01*
X94679142Y-44275261D01*
X94488666Y-44275261D01*
X94202952Y-44180023D01*
X94107714Y-44084785D01*
X94107714Y-43418119D01*
X94488666Y-43418119D01*
X93250571Y-44084785D02*
X93155333Y-44180023D01*
X93250571Y-44275261D01*
X93345809Y-44180023D01*
X93250571Y-44084785D01*
X93250571Y-44275261D01*
X93250571Y-43513357D02*
X93345809Y-42370500D01*
X93250571Y-42275261D01*
X93155333Y-42370500D01*
X93250571Y-43513357D01*
X93250571Y-42275261D01*
D12*
X79267000Y-75221523D02*
X79305095Y-75297714D01*
X79305095Y-75412000D01*
X79267000Y-75526285D01*
X79190809Y-75602476D01*
X79114619Y-75640571D01*
X78962238Y-75678666D01*
X78847952Y-75678666D01*
X78695571Y-75640571D01*
X78619380Y-75602476D01*
X78543190Y-75526285D01*
X78505095Y-75412000D01*
X78505095Y-75335809D01*
X78543190Y-75221523D01*
X78581285Y-75183428D01*
X78847952Y-75183428D01*
X78847952Y-75335809D01*
X79038428Y-74840571D02*
X78505095Y-74840571D01*
X78962238Y-74840571D02*
X79000333Y-74802476D01*
X79038428Y-74726285D01*
X79038428Y-74612000D01*
X79000333Y-74535809D01*
X78924142Y-74497714D01*
X78505095Y-74497714D01*
X78505095Y-73773904D02*
X79305095Y-73773904D01*
X78543190Y-73773904D02*
X78505095Y-73850095D01*
X78505095Y-74002476D01*
X78543190Y-74078666D01*
X78581285Y-74116761D01*
X78657476Y-74154857D01*
X78886047Y-74154857D01*
X78962238Y-74116761D01*
X79000333Y-74078666D01*
X79038428Y-74002476D01*
X79038428Y-73850095D01*
X79000333Y-73773904D01*
X78543190Y-72821523D02*
X78505095Y-72707238D01*
X78505095Y-72516761D01*
X78543190Y-72440571D01*
X78581285Y-72402476D01*
X78657476Y-72364380D01*
X78733666Y-72364380D01*
X78809857Y-72402476D01*
X78847952Y-72440571D01*
X78886047Y-72516761D01*
X78924142Y-72669142D01*
X78962238Y-72745333D01*
X79000333Y-72783428D01*
X79076523Y-72821523D01*
X79152714Y-72821523D01*
X79228904Y-72783428D01*
X79267000Y-72745333D01*
X79305095Y-72669142D01*
X79305095Y-72478666D01*
X79267000Y-72364380D01*
X78581285Y-71564380D02*
X78543190Y-71602476D01*
X78505095Y-71716761D01*
X78505095Y-71792952D01*
X78543190Y-71907238D01*
X78619380Y-71983428D01*
X78695571Y-72021523D01*
X78847952Y-72059619D01*
X78962238Y-72059619D01*
X79114619Y-72021523D01*
X79190809Y-71983428D01*
X79267000Y-71907238D01*
X79305095Y-71792952D01*
X79305095Y-71716761D01*
X79267000Y-71602476D01*
X79228904Y-71564380D01*
X78505095Y-70840571D02*
X78505095Y-71221523D01*
X79305095Y-71221523D01*
X78543190Y-70002476D02*
X78505095Y-69888190D01*
X78505095Y-69697714D01*
X78543190Y-69621523D01*
X78581285Y-69583428D01*
X78657476Y-69545333D01*
X78733666Y-69545333D01*
X78809857Y-69583428D01*
X78847952Y-69621523D01*
X78886047Y-69697714D01*
X78924142Y-69850095D01*
X78962238Y-69926285D01*
X79000333Y-69964380D01*
X79076523Y-70002476D01*
X79152714Y-70002476D01*
X79228904Y-69964380D01*
X79267000Y-69926285D01*
X79305095Y-69850095D01*
X79305095Y-69659619D01*
X79267000Y-69545333D01*
X78505095Y-69202476D02*
X79305095Y-69202476D01*
X79305095Y-69012000D01*
X79267000Y-68897714D01*
X79190809Y-68821523D01*
X79114619Y-68783428D01*
X78962238Y-68745333D01*
X78847952Y-68745333D01*
X78695571Y-68783428D01*
X78619380Y-68821523D01*
X78543190Y-68897714D01*
X78505095Y-69012000D01*
X78505095Y-69202476D01*
X78733666Y-68440571D02*
X78733666Y-68059619D01*
X78505095Y-68516761D02*
X79305095Y-68250095D01*
X78505095Y-67983428D01*
X79305095Y-67183428D02*
X79305095Y-66688190D01*
X79000333Y-66954857D01*
X79000333Y-66840571D01*
X78962238Y-66764380D01*
X78924142Y-66726285D01*
X78847952Y-66688190D01*
X78657476Y-66688190D01*
X78581285Y-66726285D01*
X78543190Y-66764380D01*
X78505095Y-66840571D01*
X78505095Y-67069142D01*
X78543190Y-67145333D01*
X78581285Y-67183428D01*
X78581285Y-66345333D02*
X78543190Y-66307238D01*
X78505095Y-66345333D01*
X78543190Y-66383428D01*
X78581285Y-66345333D01*
X78505095Y-66345333D01*
X79305095Y-66040571D02*
X79305095Y-65545333D01*
X79000333Y-65812000D01*
X79000333Y-65697714D01*
X78962238Y-65621523D01*
X78924142Y-65583428D01*
X78847952Y-65545333D01*
X78657476Y-65545333D01*
X78581285Y-65583428D01*
X78543190Y-65621523D01*
X78505095Y-65697714D01*
X78505095Y-65926285D01*
X78543190Y-66002476D01*
X78581285Y-66040571D01*
X65589095Y-60870523D02*
X65589095Y-60375285D01*
X65284333Y-60641952D01*
X65284333Y-60527666D01*
X65246238Y-60451476D01*
X65208142Y-60413380D01*
X65131952Y-60375285D01*
X64941476Y-60375285D01*
X64865285Y-60413380D01*
X64827190Y-60451476D01*
X64789095Y-60527666D01*
X64789095Y-60756238D01*
X64827190Y-60832428D01*
X64865285Y-60870523D01*
X64865285Y-60032428D02*
X64827190Y-59994333D01*
X64789095Y-60032428D01*
X64827190Y-60070523D01*
X64865285Y-60032428D01*
X64789095Y-60032428D01*
X65589095Y-59727666D02*
X65589095Y-59232428D01*
X65284333Y-59499095D01*
X65284333Y-59384809D01*
X65246238Y-59308619D01*
X65208142Y-59270523D01*
X65131952Y-59232428D01*
X64941476Y-59232428D01*
X64865285Y-59270523D01*
X64827190Y-59308619D01*
X64789095Y-59384809D01*
X64789095Y-59613380D01*
X64827190Y-59689571D01*
X64865285Y-59727666D01*
X64789095Y-58280047D02*
X65589095Y-58280047D01*
X65589095Y-57746714D02*
X65589095Y-57594333D01*
X65551000Y-57518142D01*
X65474809Y-57441952D01*
X65322428Y-57403857D01*
X65055761Y-57403857D01*
X64903380Y-57441952D01*
X64827190Y-57518142D01*
X64789095Y-57594333D01*
X64789095Y-57746714D01*
X64827190Y-57822904D01*
X64903380Y-57899095D01*
X65055761Y-57937190D01*
X65322428Y-57937190D01*
X65474809Y-57899095D01*
X65551000Y-57822904D01*
X65589095Y-57746714D01*
X64865285Y-55994333D02*
X64827190Y-56032428D01*
X64789095Y-56146714D01*
X64789095Y-56222904D01*
X64827190Y-56337190D01*
X64903380Y-56413380D01*
X64979571Y-56451476D01*
X65131952Y-56489571D01*
X65246238Y-56489571D01*
X65398619Y-56451476D01*
X65474809Y-56413380D01*
X65551000Y-56337190D01*
X65589095Y-56222904D01*
X65589095Y-56146714D01*
X65551000Y-56032428D01*
X65512904Y-55994333D01*
X64789095Y-55270523D02*
X64789095Y-55651476D01*
X65589095Y-55651476D01*
X64789095Y-55003857D02*
X65589095Y-55003857D01*
X64789095Y-54546714D02*
X65246238Y-54889571D01*
X65589095Y-54546714D02*
X65131952Y-55003857D01*
X65551000Y-53175285D02*
X65589095Y-53251476D01*
X65589095Y-53365761D01*
X65551000Y-53480047D01*
X65474809Y-53556238D01*
X65398619Y-53594333D01*
X65246238Y-53632428D01*
X65131952Y-53632428D01*
X64979571Y-53594333D01*
X64903380Y-53556238D01*
X64827190Y-53480047D01*
X64789095Y-53365761D01*
X64789095Y-53289571D01*
X64827190Y-53175285D01*
X64865285Y-53137190D01*
X65131952Y-53137190D01*
X65131952Y-53289571D01*
X65322428Y-52794333D02*
X64789095Y-52794333D01*
X65246238Y-52794333D02*
X65284333Y-52756238D01*
X65322428Y-52680047D01*
X65322428Y-52565761D01*
X65284333Y-52489571D01*
X65208142Y-52451476D01*
X64789095Y-52451476D01*
X64789095Y-51727666D02*
X65589095Y-51727666D01*
X64827190Y-51727666D02*
X64789095Y-51803857D01*
X64789095Y-51956238D01*
X64827190Y-52032428D01*
X64865285Y-52070523D01*
X64941476Y-52108619D01*
X65170047Y-52108619D01*
X65246238Y-52070523D01*
X65284333Y-52032428D01*
X65322428Y-51956238D01*
X65322428Y-51803857D01*
X65284333Y-51727666D01*
D14*
%TO.C,LOGO2*%
G36*
X104154698Y-39223220D02*
G01*
X104154742Y-39521423D01*
X104329732Y-39658192D01*
X104504721Y-39794961D01*
X104505534Y-40044077D01*
X104506194Y-40159642D01*
X104510833Y-40244219D01*
X104524733Y-40302638D01*
X104553178Y-40339730D01*
X104601451Y-40360327D01*
X104674836Y-40369259D01*
X104778617Y-40371358D01*
X104863461Y-40371346D01*
X104981319Y-40370442D01*
X105066455Y-40367332D01*
X105125188Y-40361421D01*
X105163841Y-40352112D01*
X105185845Y-40340930D01*
X105203682Y-40326182D01*
X105215830Y-40306701D01*
X105223375Y-40275411D01*
X105227405Y-40225237D01*
X105229006Y-40149104D01*
X105229270Y-40058244D01*
X105229270Y-39805974D01*
X105415393Y-39656273D01*
X105601516Y-39506571D01*
X105596123Y-39220920D01*
X105590731Y-38935269D01*
X104872693Y-38930144D01*
X104154654Y-38925018D01*
X104154698Y-39223220D01*
G37*
X104154698Y-39223220D02*
X104154742Y-39521423D01*
X104329732Y-39658192D01*
X104504721Y-39794961D01*
X104505534Y-40044077D01*
X104506194Y-40159642D01*
X104510833Y-40244219D01*
X104524733Y-40302638D01*
X104553178Y-40339730D01*
X104601451Y-40360327D01*
X104674836Y-40369259D01*
X104778617Y-40371358D01*
X104863461Y-40371346D01*
X104981319Y-40370442D01*
X105066455Y-40367332D01*
X105125188Y-40361421D01*
X105163841Y-40352112D01*
X105185845Y-40340930D01*
X105203682Y-40326182D01*
X105215830Y-40306701D01*
X105223375Y-40275411D01*
X105227405Y-40225237D01*
X105229006Y-40149104D01*
X105229270Y-40058244D01*
X105229270Y-39805974D01*
X105415393Y-39656273D01*
X105601516Y-39506571D01*
X105596123Y-39220920D01*
X105590731Y-38935269D01*
X104872693Y-38930144D01*
X104154654Y-38925018D01*
X104154698Y-39223220D01*
G36*
X102357928Y-39223461D02*
G01*
X102358741Y-39521423D01*
X102533731Y-39658192D01*
X102708720Y-39794961D01*
X102708764Y-40031672D01*
X102709478Y-40134171D01*
X102712328Y-40205642D01*
X102718444Y-40254120D01*
X102728958Y-40287642D01*
X102744998Y-40314243D01*
X102749303Y-40319865D01*
X102789798Y-40371346D01*
X103370280Y-40371346D01*
X103410775Y-40319865D01*
X103428159Y-40293703D01*
X103439772Y-40262359D01*
X103446743Y-40217795D01*
X103450203Y-40151976D01*
X103451283Y-40056867D01*
X103451314Y-40031672D01*
X103451357Y-39794961D01*
X103801337Y-39521423D01*
X103802149Y-39223461D01*
X103802962Y-38925500D01*
X102357116Y-38925500D01*
X102357928Y-39223461D01*
G37*
X102357928Y-39223461D02*
X102358741Y-39521423D01*
X102533731Y-39658192D01*
X102708720Y-39794961D01*
X102708764Y-40031672D01*
X102709478Y-40134171D01*
X102712328Y-40205642D01*
X102718444Y-40254120D01*
X102728958Y-40287642D01*
X102744998Y-40314243D01*
X102749303Y-40319865D01*
X102789798Y-40371346D01*
X103370280Y-40371346D01*
X103410775Y-40319865D01*
X103428159Y-40293703D01*
X103439772Y-40262359D01*
X103446743Y-40217795D01*
X103450203Y-40151976D01*
X103451283Y-40056867D01*
X103451314Y-40031672D01*
X103451357Y-39794961D01*
X103801337Y-39521423D01*
X103802149Y-39223461D01*
X103802962Y-38925500D01*
X102357116Y-38925500D01*
X102357928Y-39223461D01*
G36*
X101287385Y-38930144D02*
G01*
X100569346Y-38935269D01*
X100558562Y-39506571D01*
X100744685Y-39656273D01*
X100930808Y-39805974D01*
X100930808Y-40058244D01*
X100930980Y-40168224D01*
X100934981Y-40248903D01*
X100948045Y-40304812D01*
X100975402Y-40340482D01*
X101022282Y-40360445D01*
X101093918Y-40369232D01*
X101195540Y-40371374D01*
X101292270Y-40371346D01*
X101409300Y-40370413D01*
X101493658Y-40367210D01*
X101551710Y-40361127D01*
X101589824Y-40351555D01*
X101610307Y-40340930D01*
X101628137Y-40326189D01*
X101640283Y-40306718D01*
X101647829Y-40275444D01*
X101651862Y-40225297D01*
X101653466Y-40149205D01*
X101653731Y-40058039D01*
X101653731Y-39805563D01*
X101829577Y-39664763D01*
X102005423Y-39523962D01*
X102005423Y-38925018D01*
X101287385Y-38930144D01*
G37*
X101287385Y-38930144D02*
X100569346Y-38935269D01*
X100558562Y-39506571D01*
X100744685Y-39656273D01*
X100930808Y-39805974D01*
X100930808Y-40058244D01*
X100930980Y-40168224D01*
X100934981Y-40248903D01*
X100948045Y-40304812D01*
X100975402Y-40340482D01*
X101022282Y-40360445D01*
X101093918Y-40369232D01*
X101195540Y-40371374D01*
X101292270Y-40371346D01*
X101409300Y-40370413D01*
X101493658Y-40367210D01*
X101551710Y-40361127D01*
X101589824Y-40351555D01*
X101610307Y-40340930D01*
X101628137Y-40326189D01*
X101640283Y-40306718D01*
X101647829Y-40275444D01*
X101651862Y-40225297D01*
X101653466Y-40149205D01*
X101653731Y-40058039D01*
X101653731Y-39805563D01*
X101829577Y-39664763D01*
X102005423Y-39523962D01*
X102005423Y-38925018D01*
X101287385Y-38930144D01*
G36*
X98782390Y-39223220D02*
G01*
X98783202Y-39521423D01*
X99133182Y-39794961D01*
X99133226Y-40044077D01*
X99133454Y-40158115D01*
X99137552Y-40242043D01*
X99150703Y-40300469D01*
X99178094Y-40338003D01*
X99224910Y-40359253D01*
X99296336Y-40368826D01*
X99397559Y-40371333D01*
X99501472Y-40371346D01*
X99614475Y-40370981D01*
X99695051Y-40369332D01*
X99749849Y-40365562D01*
X99785517Y-40358840D01*
X99808702Y-40348329D01*
X99826053Y-40333197D01*
X99828741Y-40330281D01*
X99844663Y-40307527D01*
X99855860Y-40275553D01*
X99863427Y-40227071D01*
X99868456Y-40154791D01*
X99872043Y-40051422D01*
X99872351Y-40039614D01*
X99878741Y-39790012D01*
X100228459Y-39509992D01*
X100223056Y-39222630D01*
X100217654Y-38935269D01*
X99499616Y-38930144D01*
X98781577Y-38925018D01*
X98782390Y-39223220D01*
G37*
X98782390Y-39223220D02*
X98783202Y-39521423D01*
X99133182Y-39794961D01*
X99133226Y-40044077D01*
X99133454Y-40158115D01*
X99137552Y-40242043D01*
X99150703Y-40300469D01*
X99178094Y-40338003D01*
X99224910Y-40359253D01*
X99296336Y-40368826D01*
X99397559Y-40371333D01*
X99501472Y-40371346D01*
X99614475Y-40370981D01*
X99695051Y-40369332D01*
X99749849Y-40365562D01*
X99785517Y-40358840D01*
X99808702Y-40348329D01*
X99826053Y-40333197D01*
X99828741Y-40330281D01*
X99844663Y-40307527D01*
X99855860Y-40275553D01*
X99863427Y-40227071D01*
X99868456Y-40154791D01*
X99872043Y-40051422D01*
X99872351Y-40039614D01*
X99878741Y-39790012D01*
X100228459Y-39509992D01*
X100223056Y-39222630D01*
X100217654Y-38935269D01*
X99499616Y-38930144D01*
X98781577Y-38925018D01*
X98782390Y-39223220D01*
G36*
X97711846Y-38930144D02*
G01*
X96993808Y-38935269D01*
X96983006Y-39509579D01*
X97169138Y-39659287D01*
X97355270Y-39808996D01*
X97355270Y-40059755D01*
X97355424Y-40168646D01*
X97359353Y-40248697D01*
X97372257Y-40304336D01*
X97399334Y-40339993D01*
X97445786Y-40360098D01*
X97516811Y-40369078D01*
X97617609Y-40371362D01*
X97721079Y-40371346D01*
X97832278Y-40370886D01*
X97911250Y-40368947D01*
X97964841Y-40364687D01*
X97999894Y-40357265D01*
X98023255Y-40345840D01*
X98039116Y-40332269D01*
X98055462Y-40312155D01*
X98066581Y-40285508D01*
X98073491Y-40244972D01*
X98077211Y-40183194D01*
X98078757Y-40092818D01*
X98079005Y-40044077D01*
X98079818Y-39794961D01*
X98254807Y-39658192D01*
X98429797Y-39521423D01*
X98429841Y-39223220D01*
X98429885Y-38925018D01*
X97711846Y-38930144D01*
G37*
X97711846Y-38930144D02*
X96993808Y-38935269D01*
X96983006Y-39509579D01*
X97169138Y-39659287D01*
X97355270Y-39808996D01*
X97355270Y-40059755D01*
X97355424Y-40168646D01*
X97359353Y-40248697D01*
X97372257Y-40304336D01*
X97399334Y-40339993D01*
X97445786Y-40360098D01*
X97516811Y-40369078D01*
X97617609Y-40371362D01*
X97721079Y-40371346D01*
X97832278Y-40370886D01*
X97911250Y-40368947D01*
X97964841Y-40364687D01*
X97999894Y-40357265D01*
X98023255Y-40345840D01*
X98039116Y-40332269D01*
X98055462Y-40312155D01*
X98066581Y-40285508D01*
X98073491Y-40244972D01*
X98077211Y-40183194D01*
X98078757Y-40092818D01*
X98079005Y-40044077D01*
X98079818Y-39794961D01*
X98254807Y-39658192D01*
X98429797Y-39521423D01*
X98429841Y-39223220D01*
X98429885Y-38925018D01*
X97711846Y-38930144D01*
G36*
X100894349Y-32124734D02*
G01*
X100533803Y-32124962D01*
X100177766Y-32125336D01*
X99828420Y-32125856D01*
X99487942Y-32126520D01*
X99158513Y-32127331D01*
X98842311Y-32128287D01*
X98541516Y-32129388D01*
X98258308Y-32130635D01*
X97994865Y-32132028D01*
X97753368Y-32133565D01*
X97535995Y-32135249D01*
X97344926Y-32137078D01*
X97182339Y-32139052D01*
X97050416Y-32141172D01*
X96951334Y-32143438D01*
X96887273Y-32145849D01*
X96861841Y-32148041D01*
X96707727Y-32197983D01*
X96568534Y-32280327D01*
X96450280Y-32389993D01*
X96358979Y-32521899D01*
X96321548Y-32604435D01*
X96280112Y-32715185D01*
X96285268Y-35395381D01*
X96290423Y-38075577D01*
X96341719Y-38183038D01*
X96431571Y-38328033D01*
X96548318Y-38445508D01*
X96688975Y-38533124D01*
X96850555Y-38588543D01*
X96862885Y-38591222D01*
X96895142Y-38593879D01*
X96964210Y-38596359D01*
X97067920Y-38598663D01*
X97204103Y-38600792D01*
X97370591Y-38602747D01*
X97565215Y-38604531D01*
X97785806Y-38606144D01*
X98030195Y-38607588D01*
X98296214Y-38608865D01*
X98581693Y-38609976D01*
X98884463Y-38610922D01*
X99202357Y-38611705D01*
X99533205Y-38612326D01*
X99874838Y-38612787D01*
X100225088Y-38613089D01*
X100581786Y-38613233D01*
X100942762Y-38613222D01*
X101305849Y-38613056D01*
X101668877Y-38612737D01*
X102029678Y-38612266D01*
X102386082Y-38611645D01*
X102735921Y-38610876D01*
X103077026Y-38609959D01*
X103407229Y-38608896D01*
X103724360Y-38607689D01*
X104026251Y-38606339D01*
X104310733Y-38604847D01*
X104575637Y-38603215D01*
X104818794Y-38601445D01*
X105038035Y-38599537D01*
X105231193Y-38597494D01*
X105396097Y-38595316D01*
X105530579Y-38593006D01*
X105632471Y-38590564D01*
X105699603Y-38587992D01*
X105729701Y-38585317D01*
X105882725Y-38529131D01*
X106019223Y-38441345D01*
X106133311Y-38327114D01*
X106219108Y-38191593D01*
X106243181Y-38135289D01*
X106248999Y-38119395D01*
X106254241Y-38103062D01*
X106258938Y-38084273D01*
X106263118Y-38061014D01*
X106266813Y-38031269D01*
X106270053Y-37993023D01*
X106272866Y-37944260D01*
X106275284Y-37882964D01*
X106277336Y-37807121D01*
X106279052Y-37714715D01*
X106280462Y-37603731D01*
X106281597Y-37472153D01*
X106282486Y-37317965D01*
X106283159Y-37139152D01*
X106283646Y-36933699D01*
X106283978Y-36699591D01*
X106284184Y-36434811D01*
X106284294Y-36137345D01*
X106284338Y-35805177D01*
X106284346Y-35436291D01*
X106284346Y-35369500D01*
X106284343Y-35079610D01*
X105424654Y-35079610D01*
X105424654Y-35678928D01*
X105181778Y-35685406D01*
X105063931Y-35690272D01*
X104977180Y-35699624D01*
X104913570Y-35716478D01*
X104865148Y-35743852D01*
X104823961Y-35784761D01*
X104786796Y-35835217D01*
X104764491Y-35874623D01*
X104746263Y-35923602D01*
X104731745Y-35986092D01*
X104720567Y-36066030D01*
X104712361Y-36167353D01*
X104706760Y-36293998D01*
X104703394Y-36449903D01*
X104701895Y-36639004D01*
X104701731Y-36744501D01*
X104701278Y-36930690D01*
X104699784Y-37082670D01*
X104697051Y-37205297D01*
X104692877Y-37303432D01*
X104687062Y-37381930D01*
X104679407Y-37445651D01*
X104670862Y-37493976D01*
X104621372Y-37668803D01*
X104550160Y-37813672D01*
X104455141Y-37930309D01*
X104334231Y-38020436D01*
X104185344Y-38085775D01*
X104006398Y-38128050D01*
X103885783Y-38142879D01*
X103807097Y-38148194D01*
X103700358Y-38153045D01*
X103576592Y-38157052D01*
X103446821Y-38159834D01*
X103368231Y-38160775D01*
X103021423Y-38163500D01*
X103021423Y-37557807D01*
X103329154Y-37557341D01*
X103488538Y-37555315D01*
X103614183Y-37548689D01*
X103711315Y-37535837D01*
X103785159Y-37515133D01*
X103840940Y-37484947D01*
X103883884Y-37443654D01*
X103919216Y-37389627D01*
X103929220Y-37370476D01*
X103939909Y-37346392D01*
X103948616Y-37318181D01*
X103955659Y-37281397D01*
X103961359Y-37231597D01*
X103966034Y-37164334D01*
X103970004Y-37075164D01*
X103973588Y-36959643D01*
X103976606Y-36834086D01*
X102116509Y-36834086D01*
X102067269Y-37084984D01*
X102018030Y-37335881D01*
X101914333Y-37319620D01*
X101843183Y-37305267D01*
X101753691Y-37282825D01*
X101664445Y-37256980D01*
X101658915Y-37255237D01*
X101480956Y-37185257D01*
X101319134Y-37091360D01*
X101163910Y-36967578D01*
X101096407Y-36903269D01*
X100950732Y-36735595D01*
X100841508Y-36557973D01*
X100767426Y-36367020D01*
X100727178Y-36159352D01*
X100719456Y-35931585D01*
X100719565Y-35928471D01*
X100730411Y-35782160D01*
X100753136Y-35665495D01*
X100790513Y-35570123D01*
X100845312Y-35487688D01*
X100878078Y-35450826D01*
X100982480Y-35368744D01*
X101105311Y-35315884D01*
X101238805Y-35292473D01*
X101375191Y-35298738D01*
X101506702Y-35334907D01*
X101625569Y-35401208D01*
X101658682Y-35427956D01*
X101746440Y-35520758D01*
X101802843Y-35620954D01*
X101831875Y-35737875D01*
X101838077Y-35848192D01*
X101835329Y-35937641D01*
X101825749Y-36003691D01*
X101806167Y-36061847D01*
X101785619Y-36104602D01*
X101718976Y-36204425D01*
X101633231Y-36290471D01*
X101536971Y-36356485D01*
X101438787Y-36396215D01*
X101373041Y-36405038D01*
X101345366Y-36417130D01*
X101348307Y-36453297D01*
X101381828Y-36513380D01*
X101404616Y-36545173D01*
X101484467Y-36623815D01*
X101595629Y-36692784D01*
X101730793Y-36748363D01*
X101878423Y-36786062D01*
X101957354Y-36800944D01*
X102025438Y-36814191D01*
X102070222Y-36823371D01*
X102075620Y-36824582D01*
X102116509Y-36834086D01*
X103976606Y-36834086D01*
X103977106Y-36813326D01*
X103980330Y-36659038D01*
X103984322Y-36475871D01*
X103988360Y-36327278D01*
X103992728Y-36208754D01*
X103997712Y-36115796D01*
X104003595Y-36043902D01*
X104010661Y-35988568D01*
X104019194Y-35945291D01*
X104027189Y-35916577D01*
X104074763Y-35787951D01*
X104128669Y-35687504D01*
X104194936Y-35604338D01*
X104206442Y-35592552D01*
X104263513Y-35545656D01*
X104338208Y-35497787D01*
X104418922Y-35455001D01*
X104494050Y-35423354D01*
X104551989Y-35408904D01*
X104558924Y-35408592D01*
X104601262Y-35403364D01*
X104608085Y-35389505D01*
X104581286Y-35369684D01*
X104522759Y-35346573D01*
X104512731Y-35343409D01*
X104357421Y-35277739D01*
X104229313Y-35184361D01*
X104127560Y-35062421D01*
X104051311Y-34911066D01*
X104034101Y-34862328D01*
X104022476Y-34823590D01*
X104013026Y-34783248D01*
X104005410Y-34736468D01*
X103999285Y-34678419D01*
X103994307Y-34604269D01*
X103990134Y-34509186D01*
X103986424Y-34388338D01*
X103982834Y-34236892D01*
X103979997Y-34099500D01*
X103976937Y-33955453D01*
X101832937Y-33955453D01*
X101804349Y-34099224D01*
X101744404Y-34225048D01*
X101655187Y-34329319D01*
X101538781Y-34408433D01*
X101454960Y-34442914D01*
X101356270Y-34461425D01*
X101240351Y-34462661D01*
X101124508Y-34447635D01*
X101027193Y-34417871D01*
X100903644Y-34344539D01*
X100805976Y-34247277D01*
X100753712Y-34162770D01*
X100726363Y-34078611D01*
X100710597Y-33973212D01*
X100706844Y-33860850D01*
X100715533Y-33755798D01*
X100737093Y-33672330D01*
X100738844Y-33668233D01*
X100810638Y-33551456D01*
X100909551Y-33457545D01*
X101029183Y-33389270D01*
X101163139Y-33349402D01*
X101305021Y-33340712D01*
X101441466Y-33363899D01*
X101577456Y-33421499D01*
X101687435Y-33506120D01*
X101768608Y-33614630D01*
X101818179Y-33743895D01*
X101828086Y-33797341D01*
X101832937Y-33955453D01*
X103976937Y-33955453D01*
X103976017Y-33912203D01*
X103971862Y-33759729D01*
X103966901Y-33637825D01*
X103960503Y-33542239D01*
X103952037Y-33468719D01*
X103940872Y-33413013D01*
X103926377Y-33370868D01*
X103907920Y-33338033D01*
X103884871Y-33310256D01*
X103859211Y-33285642D01*
X103818172Y-33255899D01*
X103765928Y-33233615D01*
X103696887Y-33217878D01*
X103605461Y-33207777D01*
X103486058Y-33202401D01*
X103338923Y-33200839D01*
X103021423Y-33200730D01*
X103021423Y-33197004D01*
X99524039Y-33197004D01*
X99167462Y-33204167D01*
X99034083Y-33207453D01*
X98933737Y-33211603D01*
X98860382Y-33217213D01*
X98807974Y-33224876D01*
X98770471Y-33235189D01*
X98747569Y-33245514D01*
X98701504Y-33275275D01*
X98663796Y-33312615D01*
X98633650Y-33361429D01*
X98610271Y-33425610D01*
X98592865Y-33509053D01*
X98580638Y-33615652D01*
X98572795Y-33749300D01*
X98568540Y-33913891D01*
X98567081Y-34113320D01*
X98567061Y-34130104D01*
X98566174Y-34316407D01*
X98563425Y-34469040D01*
X98558189Y-34593392D01*
X98549842Y-34694848D01*
X98537761Y-34778798D01*
X98521320Y-34850629D01*
X98499895Y-34915728D01*
X98472863Y-34979483D01*
X98467270Y-34991409D01*
X98387470Y-35115696D01*
X98278910Y-35219605D01*
X98149104Y-35297281D01*
X98019577Y-35340082D01*
X97960219Y-35354843D01*
X97938101Y-35368207D01*
X97953492Y-35383251D01*
X98006665Y-35403053D01*
X98025654Y-35409033D01*
X98187301Y-35475466D01*
X98318856Y-35565975D01*
X98422014Y-35681909D01*
X98470296Y-35762884D01*
X98497510Y-35822797D01*
X98519267Y-35887756D01*
X98536132Y-35962760D01*
X98548666Y-36052813D01*
X98557432Y-36162914D01*
X98562994Y-36298066D01*
X98565912Y-36463269D01*
X98566722Y-36619961D01*
X98568098Y-36823289D01*
X98572109Y-36991447D01*
X98579535Y-37128298D01*
X98591161Y-37237704D01*
X98607769Y-37323530D01*
X98630140Y-37389637D01*
X98659059Y-37439889D01*
X98695307Y-37478148D01*
X98739668Y-37508278D01*
X98747569Y-37512602D01*
X98778212Y-37525342D01*
X98819893Y-37535040D01*
X98878590Y-37542288D01*
X98960279Y-37547679D01*
X99070937Y-37551805D01*
X99167462Y-37554227D01*
X99524039Y-37562092D01*
X99524039Y-38163500D01*
X99206539Y-38162996D01*
X99079488Y-38161544D01*
X98947754Y-38157903D01*
X98824389Y-38152567D01*
X98722443Y-38146032D01*
X98694045Y-38143535D01*
X98513562Y-38118587D01*
X98364340Y-38080653D01*
X98240008Y-38027279D01*
X98134198Y-37956010D01*
X98080491Y-37907201D01*
X98030915Y-37855105D01*
X97989290Y-37803806D01*
X97954855Y-37749366D01*
X97926845Y-37687849D01*
X97904499Y-37615317D01*
X97887054Y-37527833D01*
X97873747Y-37421459D01*
X97863815Y-37292259D01*
X97856495Y-37136294D01*
X97851024Y-36949628D01*
X97846639Y-36728324D01*
X97846121Y-36697517D01*
X97833962Y-35964226D01*
X97784587Y-35867132D01*
X97741157Y-35796731D01*
X97688950Y-35745872D01*
X97621387Y-35711809D01*
X97531890Y-35691797D01*
X97413881Y-35683088D01*
X97341360Y-35682115D01*
X97120808Y-35682115D01*
X97120808Y-35076423D01*
X97341360Y-35076423D01*
X97476578Y-35072380D01*
X97579897Y-35058434D01*
X97657833Y-35031861D01*
X97716898Y-34989936D01*
X97763608Y-34929935D01*
X97785116Y-34890807D01*
X97797606Y-34865206D01*
X97807829Y-34840541D01*
X97816085Y-34812671D01*
X97822678Y-34777453D01*
X97827908Y-34730746D01*
X97832079Y-34668408D01*
X97835492Y-34586297D01*
X97838449Y-34480271D01*
X97841252Y-34346188D01*
X97844203Y-34179906D01*
X97846376Y-34050654D01*
X97850121Y-33843282D01*
X97854114Y-33670662D01*
X97858837Y-33528464D01*
X97864773Y-33412365D01*
X97872403Y-33318037D01*
X97882211Y-33241154D01*
X97894677Y-33177390D01*
X97910285Y-33122420D01*
X97929516Y-33071915D01*
X97952853Y-33021552D01*
X97963437Y-33000494D01*
X98029537Y-32903213D01*
X98121630Y-32811217D01*
X98227213Y-32736504D01*
X98252997Y-32722566D01*
X98322707Y-32690053D01*
X98393175Y-32664176D01*
X98470279Y-32644047D01*
X98559902Y-32628778D01*
X98667924Y-32617480D01*
X98800224Y-32609267D01*
X98962685Y-32603250D01*
X99060000Y-32600718D01*
X99524039Y-32589845D01*
X99524039Y-33197004D01*
X103021423Y-33197004D01*
X103021423Y-32589609D01*
X103495231Y-32600817D01*
X103677510Y-32606119D01*
X103826410Y-32613080D01*
X103947622Y-32622537D01*
X104046834Y-32635328D01*
X104129736Y-32652290D01*
X104202018Y-32674260D01*
X104269370Y-32702076D01*
X104306452Y-32720211D01*
X104424354Y-32801637D01*
X104525505Y-32914080D01*
X104606114Y-33051691D01*
X104662391Y-33208622D01*
X104681183Y-33298423D01*
X104686267Y-33349852D01*
X104690912Y-33434325D01*
X104694952Y-33545809D01*
X104698218Y-33678272D01*
X104700542Y-33825682D01*
X104701755Y-33982005D01*
X104701889Y-34040884D01*
X104702661Y-34248407D01*
X104705143Y-34420872D01*
X104710078Y-34562288D01*
X104718212Y-34676662D01*
X104730289Y-34768001D01*
X104747054Y-34840314D01*
X104769252Y-34897607D01*
X104797627Y-34943889D01*
X104832924Y-34983168D01*
X104875888Y-35019450D01*
X104885024Y-35026369D01*
X104913257Y-35043809D01*
X104948371Y-35055936D01*
X104998292Y-35063999D01*
X105070949Y-35069247D01*
X105174268Y-35072929D01*
X105181778Y-35073132D01*
X105424654Y-35079610D01*
X106284343Y-35079610D01*
X106284341Y-34994144D01*
X106284305Y-34655850D01*
X106284209Y-34352602D01*
X106284021Y-34082385D01*
X106283713Y-33843183D01*
X106283255Y-33632981D01*
X106282615Y-33449763D01*
X106281765Y-33291514D01*
X106280675Y-33156218D01*
X106279314Y-33041860D01*
X106277652Y-32946425D01*
X106275659Y-32867897D01*
X106273306Y-32804261D01*
X106270562Y-32753501D01*
X106267398Y-32713602D01*
X106263783Y-32682549D01*
X106259687Y-32658325D01*
X106255081Y-32638916D01*
X106249934Y-32622306D01*
X106244216Y-32606479D01*
X106243181Y-32603710D01*
X106169983Y-32461972D01*
X106066386Y-32339389D01*
X105938467Y-32241086D01*
X105792297Y-32172188D01*
X105703160Y-32148041D01*
X105670993Y-32145505D01*
X105601930Y-32143114D01*
X105498148Y-32140869D01*
X105361828Y-32138769D01*
X105195149Y-32136815D01*
X105000290Y-32135006D01*
X104779430Y-32133343D01*
X104534749Y-32131825D01*
X104268426Y-32130453D01*
X103982640Y-32129226D01*
X103679571Y-32128145D01*
X103361399Y-32127209D01*
X103030302Y-32126419D01*
X102688460Y-32125775D01*
X102338052Y-32125275D01*
X101981258Y-32124922D01*
X101620256Y-32124714D01*
X101257227Y-32124651D01*
X100894349Y-32124734D01*
G37*
X100894349Y-32124734D02*
X100533803Y-32124962D01*
X100177766Y-32125336D01*
X99828420Y-32125856D01*
X99487942Y-32126520D01*
X99158513Y-32127331D01*
X98842311Y-32128287D01*
X98541516Y-32129388D01*
X98258308Y-32130635D01*
X97994865Y-32132028D01*
X97753368Y-32133565D01*
X97535995Y-32135249D01*
X97344926Y-32137078D01*
X97182339Y-32139052D01*
X97050416Y-32141172D01*
X96951334Y-32143438D01*
X96887273Y-32145849D01*
X96861841Y-32148041D01*
X96707727Y-32197983D01*
X96568534Y-32280327D01*
X96450280Y-32389993D01*
X96358979Y-32521899D01*
X96321548Y-32604435D01*
X96280112Y-32715185D01*
X96285268Y-35395381D01*
X96290423Y-38075577D01*
X96341719Y-38183038D01*
X96431571Y-38328033D01*
X96548318Y-38445508D01*
X96688975Y-38533124D01*
X96850555Y-38588543D01*
X96862885Y-38591222D01*
X96895142Y-38593879D01*
X96964210Y-38596359D01*
X97067920Y-38598663D01*
X97204103Y-38600792D01*
X97370591Y-38602747D01*
X97565215Y-38604531D01*
X97785806Y-38606144D01*
X98030195Y-38607588D01*
X98296214Y-38608865D01*
X98581693Y-38609976D01*
X98884463Y-38610922D01*
X99202357Y-38611705D01*
X99533205Y-38612326D01*
X99874838Y-38612787D01*
X100225088Y-38613089D01*
X100581786Y-38613233D01*
X100942762Y-38613222D01*
X101305849Y-38613056D01*
X101668877Y-38612737D01*
X102029678Y-38612266D01*
X102386082Y-38611645D01*
X102735921Y-38610876D01*
X103077026Y-38609959D01*
X103407229Y-38608896D01*
X103724360Y-38607689D01*
X104026251Y-38606339D01*
X104310733Y-38604847D01*
X104575637Y-38603215D01*
X104818794Y-38601445D01*
X105038035Y-38599537D01*
X105231193Y-38597494D01*
X105396097Y-38595316D01*
X105530579Y-38593006D01*
X105632471Y-38590564D01*
X105699603Y-38587992D01*
X105729701Y-38585317D01*
X105882725Y-38529131D01*
X106019223Y-38441345D01*
X106133311Y-38327114D01*
X106219108Y-38191593D01*
X106243181Y-38135289D01*
X106248999Y-38119395D01*
X106254241Y-38103062D01*
X106258938Y-38084273D01*
X106263118Y-38061014D01*
X106266813Y-38031269D01*
X106270053Y-37993023D01*
X106272866Y-37944260D01*
X106275284Y-37882964D01*
X106277336Y-37807121D01*
X106279052Y-37714715D01*
X106280462Y-37603731D01*
X106281597Y-37472153D01*
X106282486Y-37317965D01*
X106283159Y-37139152D01*
X106283646Y-36933699D01*
X106283978Y-36699591D01*
X106284184Y-36434811D01*
X106284294Y-36137345D01*
X106284338Y-35805177D01*
X106284346Y-35436291D01*
X106284346Y-35369500D01*
X106284343Y-35079610D01*
X105424654Y-35079610D01*
X105424654Y-35678928D01*
X105181778Y-35685406D01*
X105063931Y-35690272D01*
X104977180Y-35699624D01*
X104913570Y-35716478D01*
X104865148Y-35743852D01*
X104823961Y-35784761D01*
X104786796Y-35835217D01*
X104764491Y-35874623D01*
X104746263Y-35923602D01*
X104731745Y-35986092D01*
X104720567Y-36066030D01*
X104712361Y-36167353D01*
X104706760Y-36293998D01*
X104703394Y-36449903D01*
X104701895Y-36639004D01*
X104701731Y-36744501D01*
X104701278Y-36930690D01*
X104699784Y-37082670D01*
X104697051Y-37205297D01*
X104692877Y-37303432D01*
X104687062Y-37381930D01*
X104679407Y-37445651D01*
X104670862Y-37493976D01*
X104621372Y-37668803D01*
X104550160Y-37813672D01*
X104455141Y-37930309D01*
X104334231Y-38020436D01*
X104185344Y-38085775D01*
X104006398Y-38128050D01*
X103885783Y-38142879D01*
X103807097Y-38148194D01*
X103700358Y-38153045D01*
X103576592Y-38157052D01*
X103446821Y-38159834D01*
X103368231Y-38160775D01*
X103021423Y-38163500D01*
X103021423Y-37557807D01*
X103329154Y-37557341D01*
X103488538Y-37555315D01*
X103614183Y-37548689D01*
X103711315Y-37535837D01*
X103785159Y-37515133D01*
X103840940Y-37484947D01*
X103883884Y-37443654D01*
X103919216Y-37389627D01*
X103929220Y-37370476D01*
X103939909Y-37346392D01*
X103948616Y-37318181D01*
X103955659Y-37281397D01*
X103961359Y-37231597D01*
X103966034Y-37164334D01*
X103970004Y-37075164D01*
X103973588Y-36959643D01*
X103976606Y-36834086D01*
X102116509Y-36834086D01*
X102067269Y-37084984D01*
X102018030Y-37335881D01*
X101914333Y-37319620D01*
X101843183Y-37305267D01*
X101753691Y-37282825D01*
X101664445Y-37256980D01*
X101658915Y-37255237D01*
X101480956Y-37185257D01*
X101319134Y-37091360D01*
X101163910Y-36967578D01*
X101096407Y-36903269D01*
X100950732Y-36735595D01*
X100841508Y-36557973D01*
X100767426Y-36367020D01*
X100727178Y-36159352D01*
X100719456Y-35931585D01*
X100719565Y-35928471D01*
X100730411Y-35782160D01*
X100753136Y-35665495D01*
X100790513Y-35570123D01*
X100845312Y-35487688D01*
X100878078Y-35450826D01*
X100982480Y-35368744D01*
X101105311Y-35315884D01*
X101238805Y-35292473D01*
X101375191Y-35298738D01*
X101506702Y-35334907D01*
X101625569Y-35401208D01*
X101658682Y-35427956D01*
X101746440Y-35520758D01*
X101802843Y-35620954D01*
X101831875Y-35737875D01*
X101838077Y-35848192D01*
X101835329Y-35937641D01*
X101825749Y-36003691D01*
X101806167Y-36061847D01*
X101785619Y-36104602D01*
X101718976Y-36204425D01*
X101633231Y-36290471D01*
X101536971Y-36356485D01*
X101438787Y-36396215D01*
X101373041Y-36405038D01*
X101345366Y-36417130D01*
X101348307Y-36453297D01*
X101381828Y-36513380D01*
X101404616Y-36545173D01*
X101484467Y-36623815D01*
X101595629Y-36692784D01*
X101730793Y-36748363D01*
X101878423Y-36786062D01*
X101957354Y-36800944D01*
X102025438Y-36814191D01*
X102070222Y-36823371D01*
X102075620Y-36824582D01*
X102116509Y-36834086D01*
X103976606Y-36834086D01*
X103977106Y-36813326D01*
X103980330Y-36659038D01*
X103984322Y-36475871D01*
X103988360Y-36327278D01*
X103992728Y-36208754D01*
X103997712Y-36115796D01*
X104003595Y-36043902D01*
X104010661Y-35988568D01*
X104019194Y-35945291D01*
X104027189Y-35916577D01*
X104074763Y-35787951D01*
X104128669Y-35687504D01*
X104194936Y-35604338D01*
X104206442Y-35592552D01*
X104263513Y-35545656D01*
X104338208Y-35497787D01*
X104418922Y-35455001D01*
X104494050Y-35423354D01*
X104551989Y-35408904D01*
X104558924Y-35408592D01*
X104601262Y-35403364D01*
X104608085Y-35389505D01*
X104581286Y-35369684D01*
X104522759Y-35346573D01*
X104512731Y-35343409D01*
X104357421Y-35277739D01*
X104229313Y-35184361D01*
X104127560Y-35062421D01*
X104051311Y-34911066D01*
X104034101Y-34862328D01*
X104022476Y-34823590D01*
X104013026Y-34783248D01*
X104005410Y-34736468D01*
X103999285Y-34678419D01*
X103994307Y-34604269D01*
X103990134Y-34509186D01*
X103986424Y-34388338D01*
X103982834Y-34236892D01*
X103979997Y-34099500D01*
X103976937Y-33955453D01*
X101832937Y-33955453D01*
X101804349Y-34099224D01*
X101744404Y-34225048D01*
X101655187Y-34329319D01*
X101538781Y-34408433D01*
X101454960Y-34442914D01*
X101356270Y-34461425D01*
X101240351Y-34462661D01*
X101124508Y-34447635D01*
X101027193Y-34417871D01*
X100903644Y-34344539D01*
X100805976Y-34247277D01*
X100753712Y-34162770D01*
X100726363Y-34078611D01*
X100710597Y-33973212D01*
X100706844Y-33860850D01*
X100715533Y-33755798D01*
X100737093Y-33672330D01*
X100738844Y-33668233D01*
X100810638Y-33551456D01*
X100909551Y-33457545D01*
X101029183Y-33389270D01*
X101163139Y-33349402D01*
X101305021Y-33340712D01*
X101441466Y-33363899D01*
X101577456Y-33421499D01*
X101687435Y-33506120D01*
X101768608Y-33614630D01*
X101818179Y-33743895D01*
X101828086Y-33797341D01*
X101832937Y-33955453D01*
X103976937Y-33955453D01*
X103976017Y-33912203D01*
X103971862Y-33759729D01*
X103966901Y-33637825D01*
X103960503Y-33542239D01*
X103952037Y-33468719D01*
X103940872Y-33413013D01*
X103926377Y-33370868D01*
X103907920Y-33338033D01*
X103884871Y-33310256D01*
X103859211Y-33285642D01*
X103818172Y-33255899D01*
X103765928Y-33233615D01*
X103696887Y-33217878D01*
X103605461Y-33207777D01*
X103486058Y-33202401D01*
X103338923Y-33200839D01*
X103021423Y-33200730D01*
X103021423Y-33197004D01*
X99524039Y-33197004D01*
X99167462Y-33204167D01*
X99034083Y-33207453D01*
X98933737Y-33211603D01*
X98860382Y-33217213D01*
X98807974Y-33224876D01*
X98770471Y-33235189D01*
X98747569Y-33245514D01*
X98701504Y-33275275D01*
X98663796Y-33312615D01*
X98633650Y-33361429D01*
X98610271Y-33425610D01*
X98592865Y-33509053D01*
X98580638Y-33615652D01*
X98572795Y-33749300D01*
X98568540Y-33913891D01*
X98567081Y-34113320D01*
X98567061Y-34130104D01*
X98566174Y-34316407D01*
X98563425Y-34469040D01*
X98558189Y-34593392D01*
X98549842Y-34694848D01*
X98537761Y-34778798D01*
X98521320Y-34850629D01*
X98499895Y-34915728D01*
X98472863Y-34979483D01*
X98467270Y-34991409D01*
X98387470Y-35115696D01*
X98278910Y-35219605D01*
X98149104Y-35297281D01*
X98019577Y-35340082D01*
X97960219Y-35354843D01*
X97938101Y-35368207D01*
X97953492Y-35383251D01*
X98006665Y-35403053D01*
X98025654Y-35409033D01*
X98187301Y-35475466D01*
X98318856Y-35565975D01*
X98422014Y-35681909D01*
X98470296Y-35762884D01*
X98497510Y-35822797D01*
X98519267Y-35887756D01*
X98536132Y-35962760D01*
X98548666Y-36052813D01*
X98557432Y-36162914D01*
X98562994Y-36298066D01*
X98565912Y-36463269D01*
X98566722Y-36619961D01*
X98568098Y-36823289D01*
X98572109Y-36991447D01*
X98579535Y-37128298D01*
X98591161Y-37237704D01*
X98607769Y-37323530D01*
X98630140Y-37389637D01*
X98659059Y-37439889D01*
X98695307Y-37478148D01*
X98739668Y-37508278D01*
X98747569Y-37512602D01*
X98778212Y-37525342D01*
X98819893Y-37535040D01*
X98878590Y-37542288D01*
X98960279Y-37547679D01*
X99070937Y-37551805D01*
X99167462Y-37554227D01*
X99524039Y-37562092D01*
X99524039Y-38163500D01*
X99206539Y-38162996D01*
X99079488Y-38161544D01*
X98947754Y-38157903D01*
X98824389Y-38152567D01*
X98722443Y-38146032D01*
X98694045Y-38143535D01*
X98513562Y-38118587D01*
X98364340Y-38080653D01*
X98240008Y-38027279D01*
X98134198Y-37956010D01*
X98080491Y-37907201D01*
X98030915Y-37855105D01*
X97989290Y-37803806D01*
X97954855Y-37749366D01*
X97926845Y-37687849D01*
X97904499Y-37615317D01*
X97887054Y-37527833D01*
X97873747Y-37421459D01*
X97863815Y-37292259D01*
X97856495Y-37136294D01*
X97851024Y-36949628D01*
X97846639Y-36728324D01*
X97846121Y-36697517D01*
X97833962Y-35964226D01*
X97784587Y-35867132D01*
X97741157Y-35796731D01*
X97688950Y-35745872D01*
X97621387Y-35711809D01*
X97531890Y-35691797D01*
X97413881Y-35683088D01*
X97341360Y-35682115D01*
X97120808Y-35682115D01*
X97120808Y-35076423D01*
X97341360Y-35076423D01*
X97476578Y-35072380D01*
X97579897Y-35058434D01*
X97657833Y-35031861D01*
X97716898Y-34989936D01*
X97763608Y-34929935D01*
X97785116Y-34890807D01*
X97797606Y-34865206D01*
X97807829Y-34840541D01*
X97816085Y-34812671D01*
X97822678Y-34777453D01*
X97827908Y-34730746D01*
X97832079Y-34668408D01*
X97835492Y-34586297D01*
X97838449Y-34480271D01*
X97841252Y-34346188D01*
X97844203Y-34179906D01*
X97846376Y-34050654D01*
X97850121Y-33843282D01*
X97854114Y-33670662D01*
X97858837Y-33528464D01*
X97864773Y-33412365D01*
X97872403Y-33318037D01*
X97882211Y-33241154D01*
X97894677Y-33177390D01*
X97910285Y-33122420D01*
X97929516Y-33071915D01*
X97952853Y-33021552D01*
X97963437Y-33000494D01*
X98029537Y-32903213D01*
X98121630Y-32811217D01*
X98227213Y-32736504D01*
X98252997Y-32722566D01*
X98322707Y-32690053D01*
X98393175Y-32664176D01*
X98470279Y-32644047D01*
X98559902Y-32628778D01*
X98667924Y-32617480D01*
X98800224Y-32609267D01*
X98962685Y-32603250D01*
X99060000Y-32600718D01*
X99524039Y-32589845D01*
X99524039Y-33197004D01*
X103021423Y-33197004D01*
X103021423Y-32589609D01*
X103495231Y-32600817D01*
X103677510Y-32606119D01*
X103826410Y-32613080D01*
X103947622Y-32622537D01*
X104046834Y-32635328D01*
X104129736Y-32652290D01*
X104202018Y-32674260D01*
X104269370Y-32702076D01*
X104306452Y-32720211D01*
X104424354Y-32801637D01*
X104525505Y-32914080D01*
X104606114Y-33051691D01*
X104662391Y-33208622D01*
X104681183Y-33298423D01*
X104686267Y-33349852D01*
X104690912Y-33434325D01*
X104694952Y-33545809D01*
X104698218Y-33678272D01*
X104700542Y-33825682D01*
X104701755Y-33982005D01*
X104701889Y-34040884D01*
X104702661Y-34248407D01*
X104705143Y-34420872D01*
X104710078Y-34562288D01*
X104718212Y-34676662D01*
X104730289Y-34768001D01*
X104747054Y-34840314D01*
X104769252Y-34897607D01*
X104797627Y-34943889D01*
X104832924Y-34983168D01*
X104875888Y-35019450D01*
X104885024Y-35026369D01*
X104913257Y-35043809D01*
X104948371Y-35055936D01*
X104998292Y-35063999D01*
X105070949Y-35069247D01*
X105174268Y-35072929D01*
X105181778Y-35073132D01*
X105424654Y-35079610D01*
X106284343Y-35079610D01*
X106284341Y-34994144D01*
X106284305Y-34655850D01*
X106284209Y-34352602D01*
X106284021Y-34082385D01*
X106283713Y-33843183D01*
X106283255Y-33632981D01*
X106282615Y-33449763D01*
X106281765Y-33291514D01*
X106280675Y-33156218D01*
X106279314Y-33041860D01*
X106277652Y-32946425D01*
X106275659Y-32867897D01*
X106273306Y-32804261D01*
X106270562Y-32753501D01*
X106267398Y-32713602D01*
X106263783Y-32682549D01*
X106259687Y-32658325D01*
X106255081Y-32638916D01*
X106249934Y-32622306D01*
X106244216Y-32606479D01*
X106243181Y-32603710D01*
X106169983Y-32461972D01*
X106066386Y-32339389D01*
X105938467Y-32241086D01*
X105792297Y-32172188D01*
X105703160Y-32148041D01*
X105670993Y-32145505D01*
X105601930Y-32143114D01*
X105498148Y-32140869D01*
X105361828Y-32138769D01*
X105195149Y-32136815D01*
X105000290Y-32135006D01*
X104779430Y-32133343D01*
X104534749Y-32131825D01*
X104268426Y-32130453D01*
X103982640Y-32129226D01*
X103679571Y-32128145D01*
X103361399Y-32127209D01*
X103030302Y-32126419D01*
X102688460Y-32125775D01*
X102338052Y-32125275D01*
X101981258Y-32124922D01*
X101620256Y-32124714D01*
X101257227Y-32124651D01*
X100894349Y-32124734D01*
G36*
X104851616Y-30367654D02*
G01*
X104724051Y-30367861D01*
X104630320Y-30371601D01*
X104565198Y-30383551D01*
X104523459Y-30408389D01*
X104499878Y-30450793D01*
X104489229Y-30515440D01*
X104486285Y-30607007D01*
X104485995Y-30694923D01*
X104485183Y-30944038D01*
X104310193Y-31080807D01*
X104135204Y-31217577D01*
X104135160Y-31515538D01*
X104135116Y-31813500D01*
X104845013Y-31813500D01*
X105007861Y-31813153D01*
X105158264Y-31812167D01*
X105291774Y-31810620D01*
X105403946Y-31808595D01*
X105490333Y-31806170D01*
X105546489Y-31803425D01*
X105567936Y-31800474D01*
X105572594Y-31777245D01*
X105576515Y-31722295D01*
X105579372Y-31642975D01*
X105580838Y-31546639D01*
X105580962Y-31508019D01*
X105580962Y-31228590D01*
X105395346Y-31079296D01*
X105209731Y-30930003D01*
X105209731Y-30681164D01*
X105209685Y-30570573D01*
X105206046Y-30489572D01*
X105193564Y-30433566D01*
X105166991Y-30397959D01*
X105121076Y-30378154D01*
X105050569Y-30369556D01*
X104950221Y-30367571D01*
X104851616Y-30367654D01*
G37*
X104851616Y-30367654D02*
X104724051Y-30367861D01*
X104630320Y-30371601D01*
X104565198Y-30383551D01*
X104523459Y-30408389D01*
X104499878Y-30450793D01*
X104489229Y-30515440D01*
X104486285Y-30607007D01*
X104485995Y-30694923D01*
X104485183Y-30944038D01*
X104310193Y-31080807D01*
X104135204Y-31217577D01*
X104135160Y-31515538D01*
X104135116Y-31813500D01*
X104845013Y-31813500D01*
X105007861Y-31813153D01*
X105158264Y-31812167D01*
X105291774Y-31810620D01*
X105403946Y-31808595D01*
X105490333Y-31806170D01*
X105546489Y-31803425D01*
X105567936Y-31800474D01*
X105572594Y-31777245D01*
X105576515Y-31722295D01*
X105579372Y-31642975D01*
X105580838Y-31546639D01*
X105580962Y-31508019D01*
X105580962Y-31228590D01*
X105395346Y-31079296D01*
X105209731Y-30930003D01*
X105209731Y-30681164D01*
X105209685Y-30570573D01*
X105206046Y-30489572D01*
X105193564Y-30433566D01*
X105166991Y-30397959D01*
X105121076Y-30378154D01*
X105050569Y-30369556D01*
X104950221Y-30367571D01*
X104851616Y-30367654D01*
G36*
X102936425Y-30367837D02*
G01*
X102843038Y-30371574D01*
X102778026Y-30383642D01*
X102736048Y-30408817D01*
X102711762Y-30451878D01*
X102699827Y-30517602D01*
X102694901Y-30610766D01*
X102692649Y-30699386D01*
X102686260Y-30948988D01*
X102511401Y-31088997D01*
X102336542Y-31229007D01*
X102341944Y-31516369D01*
X102347346Y-31803730D01*
X103065385Y-31808856D01*
X103783423Y-31813981D01*
X103782611Y-31515779D01*
X103781798Y-31217577D01*
X103606809Y-31080807D01*
X103431819Y-30944038D01*
X103431775Y-30694923D01*
X103431546Y-30580885D01*
X103427449Y-30496957D01*
X103414298Y-30438530D01*
X103386907Y-30400996D01*
X103340091Y-30379747D01*
X103268664Y-30370173D01*
X103167442Y-30367667D01*
X103063529Y-30367654D01*
X102936425Y-30367837D01*
G37*
X102936425Y-30367837D02*
X102843038Y-30371574D01*
X102778026Y-30383642D01*
X102736048Y-30408817D01*
X102711762Y-30451878D01*
X102699827Y-30517602D01*
X102694901Y-30610766D01*
X102692649Y-30699386D01*
X102686260Y-30948988D01*
X102511401Y-31088997D01*
X102336542Y-31229007D01*
X102341944Y-31516369D01*
X102347346Y-31803730D01*
X103065385Y-31808856D01*
X103783423Y-31813981D01*
X103782611Y-31515779D01*
X103781798Y-31217577D01*
X103606809Y-31080807D01*
X103431819Y-30944038D01*
X103431775Y-30694923D01*
X103431546Y-30580885D01*
X103427449Y-30496957D01*
X103414298Y-30438530D01*
X103386907Y-30400996D01*
X103340091Y-30379747D01*
X103268664Y-30370173D01*
X103167442Y-30367667D01*
X103063529Y-30367654D01*
X102936425Y-30367837D01*
G36*
X101272731Y-30367654D02*
G01*
X101145764Y-30367801D01*
X101052624Y-30371266D01*
X100988080Y-30382584D01*
X100946900Y-30406288D01*
X100923853Y-30446912D01*
X100913709Y-30508991D01*
X100911237Y-30597059D01*
X100911270Y-30680960D01*
X100911270Y-30933436D01*
X100735423Y-31074237D01*
X100559577Y-31215037D01*
X100559577Y-31813500D01*
X101269475Y-31813500D01*
X101432323Y-31813153D01*
X101582726Y-31812167D01*
X101716236Y-31810620D01*
X101828408Y-31808595D01*
X101914795Y-31806170D01*
X101970951Y-31803425D01*
X101992398Y-31800474D01*
X101997067Y-31777236D01*
X102000995Y-31722298D01*
X102003852Y-31643035D01*
X102005307Y-31546824D01*
X102005423Y-31509530D01*
X102005423Y-31231611D01*
X101634193Y-30933025D01*
X101634193Y-30680755D01*
X101634021Y-30570775D01*
X101630019Y-30490096D01*
X101616956Y-30434188D01*
X101589599Y-30398517D01*
X101542719Y-30378555D01*
X101471083Y-30369768D01*
X101369461Y-30367626D01*
X101272731Y-30367654D01*
G37*
X101272731Y-30367654D02*
X101145764Y-30367801D01*
X101052624Y-30371266D01*
X100988080Y-30382584D01*
X100946900Y-30406288D01*
X100923853Y-30446912D01*
X100913709Y-30508991D01*
X100911237Y-30597059D01*
X100911270Y-30680960D01*
X100911270Y-30933436D01*
X100735423Y-31074237D01*
X100559577Y-31215037D01*
X100559577Y-31813500D01*
X101269475Y-31813500D01*
X101432323Y-31813153D01*
X101582726Y-31812167D01*
X101716236Y-31810620D01*
X101828408Y-31808595D01*
X101914795Y-31806170D01*
X101970951Y-31803425D01*
X101992398Y-31800474D01*
X101997067Y-31777236D01*
X102000995Y-31722298D01*
X102003852Y-31643035D01*
X102005307Y-31546824D01*
X102005423Y-31509530D01*
X102005423Y-31231611D01*
X101634193Y-30933025D01*
X101634193Y-30680755D01*
X101634021Y-30570775D01*
X101630019Y-30490096D01*
X101616956Y-30434188D01*
X101589599Y-30398517D01*
X101542719Y-30378555D01*
X101471083Y-30369768D01*
X101369461Y-30367626D01*
X101272731Y-30367654D01*
G36*
X99154226Y-30419135D02*
G01*
X99136842Y-30445296D01*
X99125229Y-30476641D01*
X99118258Y-30521204D01*
X99114797Y-30587023D01*
X99113717Y-30682132D01*
X99113687Y-30707327D01*
X99113643Y-30944038D01*
X98938654Y-31080807D01*
X98763664Y-31217577D01*
X98762851Y-31515538D01*
X98762039Y-31813500D01*
X100207885Y-31813500D01*
X100207072Y-31515538D01*
X100206260Y-31217577D01*
X100031270Y-31080807D01*
X99856281Y-30944038D01*
X99856237Y-30707327D01*
X99855523Y-30604828D01*
X99852673Y-30533358D01*
X99846556Y-30484880D01*
X99836043Y-30451358D01*
X99820002Y-30424757D01*
X99815698Y-30419135D01*
X99775203Y-30367654D01*
X99194721Y-30367654D01*
X99154226Y-30419135D01*
G37*
X99154226Y-30419135D02*
X99136842Y-30445296D01*
X99125229Y-30476641D01*
X99118258Y-30521204D01*
X99114797Y-30587023D01*
X99113717Y-30682132D01*
X99113687Y-30707327D01*
X99113643Y-30944038D01*
X98938654Y-31080807D01*
X98763664Y-31217577D01*
X98762851Y-31515538D01*
X98762039Y-31813500D01*
X100207885Y-31813500D01*
X100207072Y-31515538D01*
X100206260Y-31217577D01*
X100031270Y-31080807D01*
X99856281Y-30944038D01*
X99856237Y-30707327D01*
X99855523Y-30604828D01*
X99852673Y-30533358D01*
X99846556Y-30484880D01*
X99836043Y-30451358D01*
X99820002Y-30424757D01*
X99815698Y-30419135D01*
X99775203Y-30367654D01*
X99194721Y-30367654D01*
X99154226Y-30419135D01*
G36*
X97701540Y-30367654D02*
G01*
X97573700Y-30367777D01*
X97479718Y-30371116D01*
X97414395Y-30382118D01*
X97372532Y-30405235D01*
X97348929Y-30444917D01*
X97338387Y-30505614D01*
X97335708Y-30591775D01*
X97335731Y-30680755D01*
X97335731Y-30933025D01*
X97149608Y-31082727D01*
X96963485Y-31232428D01*
X96968877Y-31518079D01*
X96974270Y-31803730D01*
X97692308Y-31808856D01*
X98410346Y-31813981D01*
X98410303Y-31515779D01*
X98410259Y-31217577D01*
X98235269Y-31080807D01*
X98060279Y-30944038D01*
X98059467Y-30694923D01*
X98058806Y-30579357D01*
X98054168Y-30494781D01*
X98040268Y-30436362D01*
X98011823Y-30399269D01*
X97963550Y-30378672D01*
X97890164Y-30369740D01*
X97786383Y-30367642D01*
X97701540Y-30367654D01*
G37*
X97701540Y-30367654D02*
X97573700Y-30367777D01*
X97479718Y-30371116D01*
X97414395Y-30382118D01*
X97372532Y-30405235D01*
X97348929Y-30444917D01*
X97338387Y-30505614D01*
X97335708Y-30591775D01*
X97335731Y-30680755D01*
X97335731Y-30933025D01*
X97149608Y-31082727D01*
X96963485Y-31232428D01*
X96968877Y-31518079D01*
X96974270Y-31803730D01*
X97692308Y-31808856D01*
X98410346Y-31813981D01*
X98410303Y-31515779D01*
X98410259Y-31217577D01*
X98235269Y-31080807D01*
X98060279Y-30944038D01*
X98059467Y-30694923D01*
X98058806Y-30579357D01*
X98054168Y-30494781D01*
X98040268Y-30436362D01*
X98011823Y-30399269D01*
X97963550Y-30378672D01*
X97890164Y-30369740D01*
X97786383Y-30367642D01*
X97701540Y-30367654D01*
D12*
%TO.C,U17*%
X62727660Y-89513080D02*
X75427660Y-89513080D01*
X75427660Y-62513080D02*
X75427660Y-89513080D01*
X62727660Y-62513080D02*
X75427660Y-62513080D01*
X62727660Y-89513080D02*
X62727660Y-62513080D01*
X62727660Y-83913080D02*
X75427660Y-83913080D01*
D15*
%TO.C,C33*%
X74920582Y-50435580D02*
X75437738Y-50435580D01*
X74920582Y-49015580D02*
X75437738Y-49015580D01*
%TO.C,CN3*%
X79153660Y-38171580D02*
X79153660Y-37171580D01*
X75793660Y-38171580D02*
X75793660Y-37171580D01*
%TO.C,CN2*%
X84487660Y-38171580D02*
X84487660Y-37171580D01*
X81127660Y-38171580D02*
X81127660Y-37171580D01*
%TO.C,U12*%
X74187660Y-31539580D02*
X75987660Y-31539580D01*
X75987660Y-34759580D02*
X73537660Y-34759580D01*
%TO.C,U7*%
X84347660Y-31539580D02*
X86147660Y-31539580D01*
X86147660Y-34759580D02*
X83697660Y-34759580D01*
%TO.C,U14*%
X89427660Y-31539580D02*
X91227660Y-31539580D01*
X91227660Y-34759580D02*
X88777660Y-34759580D01*
%TO.C,U16*%
X64367660Y-31539580D02*
X66167660Y-31539580D01*
X66167660Y-34759580D02*
X63717660Y-34759580D01*
%TO.C,U13*%
X69234660Y-31539580D02*
X71034660Y-31539580D01*
X71034660Y-34759580D02*
X68584660Y-34759580D01*
%TO.C,U9*%
X79267660Y-31539580D02*
X81067660Y-31539580D01*
X81067660Y-34759580D02*
X78617660Y-34759580D01*
%TO.C,C47*%
X81554582Y-41164580D02*
X82071738Y-41164580D01*
X81554582Y-39744580D02*
X82071738Y-39744580D01*
%TO.C,U3*%
X102319660Y-79844580D02*
X100519660Y-79844580D01*
X100519660Y-76624580D02*
X102969660Y-76624580D01*
%TO.C,CN5*%
X68104660Y-38171580D02*
X68104660Y-37171580D01*
X64744660Y-38171580D02*
X64744660Y-37171580D01*
%TO.C,CN4*%
X74073660Y-38171580D02*
X74073660Y-37171580D01*
X70713660Y-38171580D02*
X70713660Y-37171580D01*
%TO.C,CN1*%
X89313660Y-38171580D02*
X89313660Y-37171580D01*
X85953660Y-38171580D02*
X85953660Y-37171580D01*
%TO.C,C36*%
X75182660Y-46721502D02*
X75182660Y-47238658D01*
X76602660Y-46721502D02*
X76602660Y-47238658D01*
%TO.C,C35*%
X79373660Y-44562502D02*
X79373660Y-45079658D01*
X80793660Y-44562502D02*
X80793660Y-45079658D01*
%TO.C,C34*%
X73150660Y-46721502D02*
X73150660Y-47238658D01*
X74570660Y-46721502D02*
X74570660Y-47238658D01*
%TO.C,C31*%
X74039660Y-42911502D02*
X74039660Y-43428658D01*
X75459660Y-42911502D02*
X75459660Y-43428658D01*
%TO.C,C30*%
X79754660Y-48275502D02*
X79754660Y-48792658D01*
X81174660Y-48275502D02*
X81174660Y-48792658D01*
%TO.C,C28*%
X77722660Y-48275502D02*
X77722660Y-48792658D01*
X79142660Y-48275502D02*
X79142660Y-48792658D01*
%TO.C,U17*%
D12*
X70008595Y-59713880D02*
X70008595Y-60523404D01*
X69960976Y-60618642D01*
X69913357Y-60666261D01*
X69818119Y-60713880D01*
X69627642Y-60713880D01*
X69532404Y-60666261D01*
X69484785Y-60618642D01*
X69437166Y-60523404D01*
X69437166Y-59713880D01*
X68437166Y-60713880D02*
X69008595Y-60713880D01*
X68722880Y-60713880D02*
X68722880Y-59713880D01*
X68818119Y-59856738D01*
X68913357Y-59951976D01*
X69008595Y-59999595D01*
X68103833Y-59713880D02*
X67437166Y-59713880D01*
X67865738Y-60713880D01*
%TO.C,C33*%
X75822017Y-51732722D02*
X75869636Y-51780341D01*
X76012493Y-51827960D01*
X76107731Y-51827960D01*
X76250588Y-51780341D01*
X76345826Y-51685103D01*
X76393445Y-51589865D01*
X76441064Y-51399389D01*
X76441064Y-51256532D01*
X76393445Y-51066056D01*
X76345826Y-50970818D01*
X76250588Y-50875580D01*
X76107731Y-50827960D01*
X76012493Y-50827960D01*
X75869636Y-50875580D01*
X75822017Y-50923199D01*
X75488683Y-50827960D02*
X74869636Y-50827960D01*
X75202969Y-51208913D01*
X75060112Y-51208913D01*
X74964874Y-51256532D01*
X74917255Y-51304151D01*
X74869636Y-51399389D01*
X74869636Y-51637484D01*
X74917255Y-51732722D01*
X74964874Y-51780341D01*
X75060112Y-51827960D01*
X75345826Y-51827960D01*
X75441064Y-51780341D01*
X75488683Y-51732722D01*
X74536302Y-50827960D02*
X73917255Y-50827960D01*
X74250588Y-51208913D01*
X74107731Y-51208913D01*
X74012493Y-51256532D01*
X73964874Y-51304151D01*
X73917255Y-51399389D01*
X73917255Y-51637484D01*
X73964874Y-51732722D01*
X74012493Y-51780341D01*
X74107731Y-51827960D01*
X74393445Y-51827960D01*
X74488683Y-51780341D01*
X74536302Y-51732722D01*
%TO.C,CN3*%
X75360802Y-36981103D02*
X75408421Y-36933484D01*
X75456040Y-36790627D01*
X75456040Y-36695389D01*
X75408421Y-36552532D01*
X75313183Y-36457294D01*
X75217945Y-36409675D01*
X75027469Y-36362056D01*
X74884612Y-36362056D01*
X74694136Y-36409675D01*
X74598898Y-36457294D01*
X74503660Y-36552532D01*
X74456040Y-36695389D01*
X74456040Y-36790627D01*
X74503660Y-36933484D01*
X74551279Y-36981103D01*
X75456040Y-37409675D02*
X74456040Y-37409675D01*
X75456040Y-37981103D01*
X74456040Y-37981103D01*
X74456040Y-38362056D02*
X74456040Y-38981103D01*
X74836993Y-38647770D01*
X74836993Y-38790627D01*
X74884612Y-38885865D01*
X74932231Y-38933484D01*
X75027469Y-38981103D01*
X75265564Y-38981103D01*
X75360802Y-38933484D01*
X75408421Y-38885865D01*
X75456040Y-38790627D01*
X75456040Y-38504913D01*
X75408421Y-38409675D01*
X75360802Y-38362056D01*
%TO.C,CN2*%
X80567802Y-36981103D02*
X80615421Y-36933484D01*
X80663040Y-36790627D01*
X80663040Y-36695389D01*
X80615421Y-36552532D01*
X80520183Y-36457294D01*
X80424945Y-36409675D01*
X80234469Y-36362056D01*
X80091612Y-36362056D01*
X79901136Y-36409675D01*
X79805898Y-36457294D01*
X79710660Y-36552532D01*
X79663040Y-36695389D01*
X79663040Y-36790627D01*
X79710660Y-36933484D01*
X79758279Y-36981103D01*
X80663040Y-37409675D02*
X79663040Y-37409675D01*
X80663040Y-37981103D01*
X79663040Y-37981103D01*
X79758279Y-38409675D02*
X79710660Y-38457294D01*
X79663040Y-38552532D01*
X79663040Y-38790627D01*
X79710660Y-38885865D01*
X79758279Y-38933484D01*
X79853517Y-38981103D01*
X79948755Y-38981103D01*
X80091612Y-38933484D01*
X80663040Y-38362056D01*
X80663040Y-38981103D01*
%TO.C,U12*%
X72106540Y-31913984D02*
X72916064Y-31913984D01*
X73011302Y-31961603D01*
X73058921Y-32009222D01*
X73106540Y-32104460D01*
X73106540Y-32294937D01*
X73058921Y-32390175D01*
X73011302Y-32437794D01*
X72916064Y-32485413D01*
X72106540Y-32485413D01*
X73106540Y-33485413D02*
X73106540Y-32913984D01*
X73106540Y-33199699D02*
X72106540Y-33199699D01*
X72249398Y-33104460D01*
X72344636Y-33009222D01*
X72392255Y-32913984D01*
X72201779Y-33866365D02*
X72154160Y-33913984D01*
X72106540Y-34009222D01*
X72106540Y-34247318D01*
X72154160Y-34342556D01*
X72201779Y-34390175D01*
X72297017Y-34437794D01*
X72392255Y-34437794D01*
X72535112Y-34390175D01*
X73106540Y-33818746D01*
X73106540Y-34437794D01*
%TO.C,U7*%
X82266540Y-32390175D02*
X83076064Y-32390175D01*
X83171302Y-32437794D01*
X83218921Y-32485413D01*
X83266540Y-32580651D01*
X83266540Y-32771127D01*
X83218921Y-32866365D01*
X83171302Y-32913984D01*
X83076064Y-32961603D01*
X82266540Y-32961603D01*
X82266540Y-33342556D02*
X82266540Y-34009222D01*
X83266540Y-33580651D01*
%TO.C,U14*%
X87283040Y-31913984D02*
X88092564Y-31913984D01*
X88187802Y-31961603D01*
X88235421Y-32009222D01*
X88283040Y-32104460D01*
X88283040Y-32294937D01*
X88235421Y-32390175D01*
X88187802Y-32437794D01*
X88092564Y-32485413D01*
X87283040Y-32485413D01*
X88283040Y-33485413D02*
X88283040Y-32913984D01*
X88283040Y-33199699D02*
X87283040Y-33199699D01*
X87425898Y-33104460D01*
X87521136Y-33009222D01*
X87568755Y-32913984D01*
X87616374Y-34342556D02*
X88283040Y-34342556D01*
X87235421Y-34104460D02*
X87949707Y-33866365D01*
X87949707Y-34485413D01*
%TO.C,U16*%
X62073540Y-31913984D02*
X62883064Y-31913984D01*
X62978302Y-31961603D01*
X63025921Y-32009222D01*
X63073540Y-32104460D01*
X63073540Y-32294937D01*
X63025921Y-32390175D01*
X62978302Y-32437794D01*
X62883064Y-32485413D01*
X62073540Y-32485413D01*
X63073540Y-33485413D02*
X63073540Y-32913984D01*
X63073540Y-33199699D02*
X62073540Y-33199699D01*
X62216398Y-33104460D01*
X62311636Y-33009222D01*
X62359255Y-32913984D01*
X62073540Y-34342556D02*
X62073540Y-34152080D01*
X62121160Y-34056841D01*
X62168779Y-34009222D01*
X62311636Y-33913984D01*
X62502112Y-33866365D01*
X62883064Y-33866365D01*
X62978302Y-33913984D01*
X63025921Y-33961603D01*
X63073540Y-34056841D01*
X63073540Y-34247318D01*
X63025921Y-34342556D01*
X62978302Y-34390175D01*
X62883064Y-34437794D01*
X62644969Y-34437794D01*
X62549731Y-34390175D01*
X62502112Y-34342556D01*
X62454493Y-34247318D01*
X62454493Y-34056841D01*
X62502112Y-33961603D01*
X62549731Y-33913984D01*
X62644969Y-33866365D01*
%TO.C,U13*%
X67153540Y-31786984D02*
X67963064Y-31786984D01*
X68058302Y-31834603D01*
X68105921Y-31882222D01*
X68153540Y-31977460D01*
X68153540Y-32167937D01*
X68105921Y-32263175D01*
X68058302Y-32310794D01*
X67963064Y-32358413D01*
X67153540Y-32358413D01*
X68153540Y-33358413D02*
X68153540Y-32786984D01*
X68153540Y-33072699D02*
X67153540Y-33072699D01*
X67296398Y-32977460D01*
X67391636Y-32882222D01*
X67439255Y-32786984D01*
X67153540Y-33691746D02*
X67153540Y-34310794D01*
X67534493Y-33977460D01*
X67534493Y-34120318D01*
X67582112Y-34215556D01*
X67629731Y-34263175D01*
X67724969Y-34310794D01*
X67963064Y-34310794D01*
X68058302Y-34263175D01*
X68105921Y-34215556D01*
X68153540Y-34120318D01*
X68153540Y-33834603D01*
X68105921Y-33739365D01*
X68058302Y-33691746D01*
%TO.C,U9*%
X77123040Y-32390175D02*
X77932564Y-32390175D01*
X78027802Y-32437794D01*
X78075421Y-32485413D01*
X78123040Y-32580651D01*
X78123040Y-32771127D01*
X78075421Y-32866365D01*
X78027802Y-32913984D01*
X77932564Y-32961603D01*
X77123040Y-32961603D01*
X78123040Y-33485413D02*
X78123040Y-33675889D01*
X78075421Y-33771127D01*
X78027802Y-33818746D01*
X77884945Y-33913984D01*
X77694469Y-33961603D01*
X77313517Y-33961603D01*
X77218279Y-33913984D01*
X77170660Y-33866365D01*
X77123040Y-33771127D01*
X77123040Y-33580651D01*
X77170660Y-33485413D01*
X77218279Y-33437794D01*
X77313517Y-33390175D01*
X77551612Y-33390175D01*
X77646850Y-33437794D01*
X77694469Y-33485413D01*
X77742088Y-33580651D01*
X77742088Y-33771127D01*
X77694469Y-33866365D01*
X77646850Y-33913984D01*
X77551612Y-33961603D01*
%TO.C,C47*%
X83764357Y-42902142D02*
X83811976Y-42949761D01*
X83954833Y-42997380D01*
X84050071Y-42997380D01*
X84192928Y-42949761D01*
X84288166Y-42854523D01*
X84335785Y-42759285D01*
X84383404Y-42568809D01*
X84383404Y-42425952D01*
X84335785Y-42235476D01*
X84288166Y-42140238D01*
X84192928Y-42045000D01*
X84050071Y-41997380D01*
X83954833Y-41997380D01*
X83811976Y-42045000D01*
X83764357Y-42092619D01*
X82907214Y-42330714D02*
X82907214Y-42997380D01*
X83145309Y-41949761D02*
X83383404Y-42664047D01*
X82764357Y-42664047D01*
X82478642Y-41997380D02*
X81811976Y-41997380D01*
X82240547Y-42997380D01*
%TO.C,U3*%
X99451064Y-76673460D02*
X99451064Y-77482984D01*
X99403445Y-77578222D01*
X99355826Y-77625841D01*
X99260588Y-77673460D01*
X99070112Y-77673460D01*
X98974874Y-77625841D01*
X98927255Y-77578222D01*
X98879636Y-77482984D01*
X98879636Y-76673460D01*
X98498683Y-76673460D02*
X97879636Y-76673460D01*
X98212969Y-77054413D01*
X98070112Y-77054413D01*
X97974874Y-77102032D01*
X97927255Y-77149651D01*
X97879636Y-77244889D01*
X97879636Y-77482984D01*
X97927255Y-77578222D01*
X97974874Y-77625841D01*
X98070112Y-77673460D01*
X98355826Y-77673460D01*
X98451064Y-77625841D01*
X98498683Y-77578222D01*
%TO.C,CN5*%
X63981802Y-36981103D02*
X64029421Y-36933484D01*
X64077040Y-36790627D01*
X64077040Y-36695389D01*
X64029421Y-36552532D01*
X63934183Y-36457294D01*
X63838945Y-36409675D01*
X63648469Y-36362056D01*
X63505612Y-36362056D01*
X63315136Y-36409675D01*
X63219898Y-36457294D01*
X63124660Y-36552532D01*
X63077040Y-36695389D01*
X63077040Y-36790627D01*
X63124660Y-36933484D01*
X63172279Y-36981103D01*
X64077040Y-37409675D02*
X63077040Y-37409675D01*
X64077040Y-37981103D01*
X63077040Y-37981103D01*
X63077040Y-38933484D02*
X63077040Y-38457294D01*
X63553231Y-38409675D01*
X63505612Y-38457294D01*
X63457993Y-38552532D01*
X63457993Y-38790627D01*
X63505612Y-38885865D01*
X63553231Y-38933484D01*
X63648469Y-38981103D01*
X63886564Y-38981103D01*
X63981802Y-38933484D01*
X64029421Y-38885865D01*
X64077040Y-38790627D01*
X64077040Y-38552532D01*
X64029421Y-38457294D01*
X63981802Y-38409675D01*
%TO.C,CN4*%
X69950802Y-36981103D02*
X69998421Y-36933484D01*
X70046040Y-36790627D01*
X70046040Y-36695389D01*
X69998421Y-36552532D01*
X69903183Y-36457294D01*
X69807945Y-36409675D01*
X69617469Y-36362056D01*
X69474612Y-36362056D01*
X69284136Y-36409675D01*
X69188898Y-36457294D01*
X69093660Y-36552532D01*
X69046040Y-36695389D01*
X69046040Y-36790627D01*
X69093660Y-36933484D01*
X69141279Y-36981103D01*
X70046040Y-37409675D02*
X69046040Y-37409675D01*
X70046040Y-37981103D01*
X69046040Y-37981103D01*
X69379374Y-38885865D02*
X70046040Y-38885865D01*
X68998421Y-38647770D02*
X69712707Y-38409675D01*
X69712707Y-39028722D01*
%TO.C,CN1*%
X85584302Y-36589103D02*
X85631921Y-36541484D01*
X85679540Y-36398627D01*
X85679540Y-36303389D01*
X85631921Y-36160532D01*
X85536683Y-36065294D01*
X85441445Y-36017675D01*
X85250969Y-35970056D01*
X85108112Y-35970056D01*
X84917636Y-36017675D01*
X84822398Y-36065294D01*
X84727160Y-36160532D01*
X84679540Y-36303389D01*
X84679540Y-36398627D01*
X84727160Y-36541484D01*
X84774779Y-36589103D01*
X85679540Y-37017675D02*
X84679540Y-37017675D01*
X85679540Y-37589103D01*
X84679540Y-37589103D01*
X85679540Y-38589103D02*
X85679540Y-38017675D01*
X85679540Y-38303389D02*
X84679540Y-38303389D01*
X84822398Y-38208151D01*
X84917636Y-38112913D01*
X84965255Y-38017675D01*
%TO.C,C36*%
X76948302Y-43177222D02*
X76995921Y-43129603D01*
X77043540Y-42986746D01*
X77043540Y-42891508D01*
X76995921Y-42748651D01*
X76900683Y-42653413D01*
X76805445Y-42605794D01*
X76614969Y-42558175D01*
X76472112Y-42558175D01*
X76281636Y-42605794D01*
X76186398Y-42653413D01*
X76091160Y-42748651D01*
X76043540Y-42891508D01*
X76043540Y-42986746D01*
X76091160Y-43129603D01*
X76138779Y-43177222D01*
X76043540Y-43510556D02*
X76043540Y-44129603D01*
X76424493Y-43796270D01*
X76424493Y-43939127D01*
X76472112Y-44034365D01*
X76519731Y-44081984D01*
X76614969Y-44129603D01*
X76853064Y-44129603D01*
X76948302Y-44081984D01*
X76995921Y-44034365D01*
X77043540Y-43939127D01*
X77043540Y-43653413D01*
X76995921Y-43558175D01*
X76948302Y-43510556D01*
X76043540Y-44986746D02*
X76043540Y-44796270D01*
X76091160Y-44701032D01*
X76138779Y-44653413D01*
X76281636Y-44558175D01*
X76472112Y-44510556D01*
X76853064Y-44510556D01*
X76948302Y-44558175D01*
X76995921Y-44605794D01*
X77043540Y-44701032D01*
X77043540Y-44891508D01*
X76995921Y-44986746D01*
X76948302Y-45034365D01*
X76853064Y-45081984D01*
X76614969Y-45081984D01*
X76519731Y-45034365D01*
X76472112Y-44986746D01*
X76424493Y-44891508D01*
X76424493Y-44701032D01*
X76472112Y-44605794D01*
X76519731Y-44558175D01*
X76614969Y-44510556D01*
%TO.C,C35*%
X78790802Y-44178222D02*
X78838421Y-44130603D01*
X78886040Y-43987746D01*
X78886040Y-43892508D01*
X78838421Y-43749651D01*
X78743183Y-43654413D01*
X78647945Y-43606794D01*
X78457469Y-43559175D01*
X78314612Y-43559175D01*
X78124136Y-43606794D01*
X78028898Y-43654413D01*
X77933660Y-43749651D01*
X77886040Y-43892508D01*
X77886040Y-43987746D01*
X77933660Y-44130603D01*
X77981279Y-44178222D01*
X77886040Y-44511556D02*
X77886040Y-45130603D01*
X78266993Y-44797270D01*
X78266993Y-44940127D01*
X78314612Y-45035365D01*
X78362231Y-45082984D01*
X78457469Y-45130603D01*
X78695564Y-45130603D01*
X78790802Y-45082984D01*
X78838421Y-45035365D01*
X78886040Y-44940127D01*
X78886040Y-44654413D01*
X78838421Y-44559175D01*
X78790802Y-44511556D01*
X77886040Y-46035365D02*
X77886040Y-45559175D01*
X78362231Y-45511556D01*
X78314612Y-45559175D01*
X78266993Y-45654413D01*
X78266993Y-45892508D01*
X78314612Y-45987746D01*
X78362231Y-46035365D01*
X78457469Y-46082984D01*
X78695564Y-46082984D01*
X78790802Y-46035365D01*
X78838421Y-45987746D01*
X78886040Y-45892508D01*
X78886040Y-45654413D01*
X78838421Y-45559175D01*
X78790802Y-45511556D01*
%TO.C,C34*%
X72567802Y-46337222D02*
X72615421Y-46289603D01*
X72663040Y-46146746D01*
X72663040Y-46051508D01*
X72615421Y-45908651D01*
X72520183Y-45813413D01*
X72424945Y-45765794D01*
X72234469Y-45718175D01*
X72091612Y-45718175D01*
X71901136Y-45765794D01*
X71805898Y-45813413D01*
X71710660Y-45908651D01*
X71663040Y-46051508D01*
X71663040Y-46146746D01*
X71710660Y-46289603D01*
X71758279Y-46337222D01*
X71663040Y-46670556D02*
X71663040Y-47289603D01*
X72043993Y-46956270D01*
X72043993Y-47099127D01*
X72091612Y-47194365D01*
X72139231Y-47241984D01*
X72234469Y-47289603D01*
X72472564Y-47289603D01*
X72567802Y-47241984D01*
X72615421Y-47194365D01*
X72663040Y-47099127D01*
X72663040Y-46813413D01*
X72615421Y-46718175D01*
X72567802Y-46670556D01*
X71996374Y-48146746D02*
X72663040Y-48146746D01*
X71615421Y-47908651D02*
X72329707Y-47670556D01*
X72329707Y-48289603D01*
%TO.C,C31*%
X73519302Y-41208722D02*
X73566921Y-41161103D01*
X73614540Y-41018246D01*
X73614540Y-40923008D01*
X73566921Y-40780151D01*
X73471683Y-40684913D01*
X73376445Y-40637294D01*
X73185969Y-40589675D01*
X73043112Y-40589675D01*
X72852636Y-40637294D01*
X72757398Y-40684913D01*
X72662160Y-40780151D01*
X72614540Y-40923008D01*
X72614540Y-41018246D01*
X72662160Y-41161103D01*
X72709779Y-41208722D01*
X72614540Y-41542056D02*
X72614540Y-42161103D01*
X72995493Y-41827770D01*
X72995493Y-41970627D01*
X73043112Y-42065865D01*
X73090731Y-42113484D01*
X73185969Y-42161103D01*
X73424064Y-42161103D01*
X73519302Y-42113484D01*
X73566921Y-42065865D01*
X73614540Y-41970627D01*
X73614540Y-41684913D01*
X73566921Y-41589675D01*
X73519302Y-41542056D01*
X73614540Y-43113484D02*
X73614540Y-42542056D01*
X73614540Y-42827770D02*
X72614540Y-42827770D01*
X72757398Y-42732532D01*
X72852636Y-42637294D01*
X72900255Y-42542056D01*
%TO.C,C30*%
X82980802Y-47876222D02*
X83028421Y-47828603D01*
X83076040Y-47685746D01*
X83076040Y-47590508D01*
X83028421Y-47447651D01*
X82933183Y-47352413D01*
X82837945Y-47304794D01*
X82647469Y-47257175D01*
X82504612Y-47257175D01*
X82314136Y-47304794D01*
X82218898Y-47352413D01*
X82123660Y-47447651D01*
X82076040Y-47590508D01*
X82076040Y-47685746D01*
X82123660Y-47828603D01*
X82171279Y-47876222D01*
X82076040Y-48209556D02*
X82076040Y-48828603D01*
X82456993Y-48495270D01*
X82456993Y-48638127D01*
X82504612Y-48733365D01*
X82552231Y-48780984D01*
X82647469Y-48828603D01*
X82885564Y-48828603D01*
X82980802Y-48780984D01*
X83028421Y-48733365D01*
X83076040Y-48638127D01*
X83076040Y-48352413D01*
X83028421Y-48257175D01*
X82980802Y-48209556D01*
X82076040Y-49447651D02*
X82076040Y-49542889D01*
X82123660Y-49638127D01*
X82171279Y-49685746D01*
X82266517Y-49733365D01*
X82456993Y-49780984D01*
X82695088Y-49780984D01*
X82885564Y-49733365D01*
X82980802Y-49685746D01*
X83028421Y-49638127D01*
X83076040Y-49542889D01*
X83076040Y-49447651D01*
X83028421Y-49352413D01*
X82980802Y-49304794D01*
X82885564Y-49257175D01*
X82695088Y-49209556D01*
X82456993Y-49209556D01*
X82266517Y-49257175D01*
X82171279Y-49304794D01*
X82123660Y-49352413D01*
X82076040Y-49447651D01*
%TO.C,C28*%
X78853302Y-51051222D02*
X78900921Y-51003603D01*
X78948540Y-50860746D01*
X78948540Y-50765508D01*
X78900921Y-50622651D01*
X78805683Y-50527413D01*
X78710445Y-50479794D01*
X78519969Y-50432175D01*
X78377112Y-50432175D01*
X78186636Y-50479794D01*
X78091398Y-50527413D01*
X77996160Y-50622651D01*
X77948540Y-50765508D01*
X77948540Y-50860746D01*
X77996160Y-51003603D01*
X78043779Y-51051222D01*
X78043779Y-51432175D02*
X77996160Y-51479794D01*
X77948540Y-51575032D01*
X77948540Y-51813127D01*
X77996160Y-51908365D01*
X78043779Y-51955984D01*
X78139017Y-52003603D01*
X78234255Y-52003603D01*
X78377112Y-51955984D01*
X78948540Y-51384556D01*
X78948540Y-52003603D01*
X78377112Y-52575032D02*
X78329493Y-52479794D01*
X78281874Y-52432175D01*
X78186636Y-52384556D01*
X78139017Y-52384556D01*
X78043779Y-52432175D01*
X77996160Y-52479794D01*
X77948540Y-52575032D01*
X77948540Y-52765508D01*
X77996160Y-52860746D01*
X78043779Y-52908365D01*
X78139017Y-52955984D01*
X78186636Y-52955984D01*
X78281874Y-52908365D01*
X78329493Y-52860746D01*
X78377112Y-52765508D01*
X78377112Y-52575032D01*
X78424731Y-52479794D01*
X78472350Y-52432175D01*
X78567588Y-52384556D01*
X78758064Y-52384556D01*
X78853302Y-52432175D01*
X78900921Y-52479794D01*
X78948540Y-52575032D01*
X78948540Y-52765508D01*
X78900921Y-52860746D01*
X78853302Y-52908365D01*
X78758064Y-52955984D01*
X78567588Y-52955984D01*
X78472350Y-52908365D01*
X78424731Y-52860746D01*
X78377112Y-52765508D01*
%TD*%
M02*
