%TF.GenerationSoftware,KiCad,Pcbnew,5.1.7-a382d34a8~88~ubuntu20.04.1*%
%TF.CreationDate,2021-01-11T19:53:58+01:00*%
%TF.ProjectId,BioElectricalSensor,42696f45-6c65-4637-9472-6963616c5365,rev?*%
%TF.SameCoordinates,Original*%
%TF.FileFunction,Soldermask,Bot*%
%TF.FilePolarity,Negative*%
%FSLAX46Y46*%
G04 Gerber Fmt 4.6, Leading zero omitted, Abs format (unit mm)*
G04 Created by KiCad (PCBNEW 5.1.7-a382d34a8~88~ubuntu20.04.1) date 2021-01-11 19:53:58*
%MOMM*%
%LPD*%
G01*
G04 APERTURE LIST*
%ADD10C,1.100000*%
%ADD11O,2.100000X1.800000*%
%ADD12O,1.800000X1.800000*%
%ADD13O,1.100000X2.200000*%
%ADD14C,0.750000*%
%ADD15O,1.100000X1.700000*%
%ADD16O,2.100000X1.600000*%
G04 APERTURE END LIST*
D10*
%TO.C,J5*%
X65164160Y-78439080D03*
X73164160Y-78439080D03*
%TD*%
D11*
%TO.C,BT1*%
X105483660Y-52432580D03*
G36*
G01*
X106268955Y-55832580D02*
X104698365Y-55832580D01*
G75*
G02*
X104433660Y-55567875I0J264705D01*
G01*
X104433660Y-54297285D01*
G75*
G02*
X104698365Y-54032580I264705J0D01*
G01*
X106268955Y-54032580D01*
G75*
G02*
X106533660Y-54297285I0J-264705D01*
G01*
X106533660Y-55567875D01*
G75*
G02*
X106268955Y-55832580I-264705J0D01*
G01*
G37*
%TD*%
%TO.C,U17*%
G36*
G01*
X61927660Y-82513080D02*
X61927660Y-81513080D01*
G75*
G02*
X61977660Y-81463080I50000J0D01*
G01*
X63477660Y-81463080D01*
G75*
G02*
X63527660Y-81513080I0J-50000D01*
G01*
X63527660Y-82513080D01*
G75*
G02*
X63477660Y-82563080I-50000J0D01*
G01*
X61977660Y-82563080D01*
G75*
G02*
X61927660Y-82513080I0J50000D01*
G01*
G37*
G36*
G01*
X61927660Y-81013080D02*
X61927660Y-80013080D01*
G75*
G02*
X61977660Y-79963080I50000J0D01*
G01*
X63477660Y-79963080D01*
G75*
G02*
X63527660Y-80013080I0J-50000D01*
G01*
X63527660Y-81013080D01*
G75*
G02*
X63477660Y-81063080I-50000J0D01*
G01*
X61977660Y-81063080D01*
G75*
G02*
X61927660Y-81013080I0J50000D01*
G01*
G37*
G36*
G01*
X61927660Y-79513080D02*
X61927660Y-78513080D01*
G75*
G02*
X61977660Y-78463080I50000J0D01*
G01*
X63477660Y-78463080D01*
G75*
G02*
X63527660Y-78513080I0J-50000D01*
G01*
X63527660Y-79513080D01*
G75*
G02*
X63477660Y-79563080I-50000J0D01*
G01*
X61977660Y-79563080D01*
G75*
G02*
X61927660Y-79513080I0J50000D01*
G01*
G37*
G36*
G01*
X61927660Y-78013080D02*
X61927660Y-77013080D01*
G75*
G02*
X61977660Y-76963080I50000J0D01*
G01*
X63477660Y-76963080D01*
G75*
G02*
X63527660Y-77013080I0J-50000D01*
G01*
X63527660Y-78013080D01*
G75*
G02*
X63477660Y-78063080I-50000J0D01*
G01*
X61977660Y-78063080D01*
G75*
G02*
X61927660Y-78013080I0J50000D01*
G01*
G37*
G36*
G01*
X61927660Y-76513080D02*
X61927660Y-75513080D01*
G75*
G02*
X61977660Y-75463080I50000J0D01*
G01*
X63477660Y-75463080D01*
G75*
G02*
X63527660Y-75513080I0J-50000D01*
G01*
X63527660Y-76513080D01*
G75*
G02*
X63477660Y-76563080I-50000J0D01*
G01*
X61977660Y-76563080D01*
G75*
G02*
X61927660Y-76513080I0J50000D01*
G01*
G37*
G36*
G01*
X61927660Y-75013080D02*
X61927660Y-74013080D01*
G75*
G02*
X61977660Y-73963080I50000J0D01*
G01*
X63477660Y-73963080D01*
G75*
G02*
X63527660Y-74013080I0J-50000D01*
G01*
X63527660Y-75013080D01*
G75*
G02*
X63477660Y-75063080I-50000J0D01*
G01*
X61977660Y-75063080D01*
G75*
G02*
X61927660Y-75013080I0J50000D01*
G01*
G37*
G36*
G01*
X61927660Y-73513080D02*
X61927660Y-72513080D01*
G75*
G02*
X61977660Y-72463080I50000J0D01*
G01*
X63477660Y-72463080D01*
G75*
G02*
X63527660Y-72513080I0J-50000D01*
G01*
X63527660Y-73513080D01*
G75*
G02*
X63477660Y-73563080I-50000J0D01*
G01*
X61977660Y-73563080D01*
G75*
G02*
X61927660Y-73513080I0J50000D01*
G01*
G37*
G36*
G01*
X61927660Y-72013080D02*
X61927660Y-71013080D01*
G75*
G02*
X61977660Y-70963080I50000J0D01*
G01*
X63477660Y-70963080D01*
G75*
G02*
X63527660Y-71013080I0J-50000D01*
G01*
X63527660Y-72013080D01*
G75*
G02*
X63477660Y-72063080I-50000J0D01*
G01*
X61977660Y-72063080D01*
G75*
G02*
X61927660Y-72013080I0J50000D01*
G01*
G37*
G36*
G01*
X61927660Y-70513080D02*
X61927660Y-69513080D01*
G75*
G02*
X61977660Y-69463080I50000J0D01*
G01*
X63477660Y-69463080D01*
G75*
G02*
X63527660Y-69513080I0J-50000D01*
G01*
X63527660Y-70513080D01*
G75*
G02*
X63477660Y-70563080I-50000J0D01*
G01*
X61977660Y-70563080D01*
G75*
G02*
X61927660Y-70513080I0J50000D01*
G01*
G37*
G36*
G01*
X61927660Y-69013080D02*
X61927660Y-68013080D01*
G75*
G02*
X61977660Y-67963080I50000J0D01*
G01*
X63477660Y-67963080D01*
G75*
G02*
X63527660Y-68013080I0J-50000D01*
G01*
X63527660Y-69013080D01*
G75*
G02*
X63477660Y-69063080I-50000J0D01*
G01*
X61977660Y-69063080D01*
G75*
G02*
X61927660Y-69013080I0J50000D01*
G01*
G37*
G36*
G01*
X61927660Y-67513080D02*
X61927660Y-66513080D01*
G75*
G02*
X61977660Y-66463080I50000J0D01*
G01*
X63477660Y-66463080D01*
G75*
G02*
X63527660Y-66513080I0J-50000D01*
G01*
X63527660Y-67513080D01*
G75*
G02*
X63477660Y-67563080I-50000J0D01*
G01*
X61977660Y-67563080D01*
G75*
G02*
X61927660Y-67513080I0J50000D01*
G01*
G37*
G36*
G01*
X61927660Y-66013080D02*
X61927660Y-65013080D01*
G75*
G02*
X61977660Y-64963080I50000J0D01*
G01*
X63477660Y-64963080D01*
G75*
G02*
X63527660Y-65013080I0J-50000D01*
G01*
X63527660Y-66013080D01*
G75*
G02*
X63477660Y-66063080I-50000J0D01*
G01*
X61977660Y-66063080D01*
G75*
G02*
X61927660Y-66013080I0J50000D01*
G01*
G37*
G36*
G01*
X61927660Y-64513080D02*
X61927660Y-63513080D01*
G75*
G02*
X61977660Y-63463080I50000J0D01*
G01*
X63477660Y-63463080D01*
G75*
G02*
X63527660Y-63513080I0J-50000D01*
G01*
X63527660Y-64513080D01*
G75*
G02*
X63477660Y-64563080I-50000J0D01*
G01*
X61977660Y-64563080D01*
G75*
G02*
X61927660Y-64513080I0J50000D01*
G01*
G37*
G36*
G01*
X74627660Y-64513080D02*
X74627660Y-63513080D01*
G75*
G02*
X74677660Y-63463080I50000J0D01*
G01*
X76177660Y-63463080D01*
G75*
G02*
X76227660Y-63513080I0J-50000D01*
G01*
X76227660Y-64513080D01*
G75*
G02*
X76177660Y-64563080I-50000J0D01*
G01*
X74677660Y-64563080D01*
G75*
G02*
X74627660Y-64513080I0J50000D01*
G01*
G37*
G36*
G01*
X74627660Y-66013080D02*
X74627660Y-65013080D01*
G75*
G02*
X74677660Y-64963080I50000J0D01*
G01*
X76177660Y-64963080D01*
G75*
G02*
X76227660Y-65013080I0J-50000D01*
G01*
X76227660Y-66013080D01*
G75*
G02*
X76177660Y-66063080I-50000J0D01*
G01*
X74677660Y-66063080D01*
G75*
G02*
X74627660Y-66013080I0J50000D01*
G01*
G37*
G36*
G01*
X74627660Y-67513080D02*
X74627660Y-66513080D01*
G75*
G02*
X74677660Y-66463080I50000J0D01*
G01*
X76177660Y-66463080D01*
G75*
G02*
X76227660Y-66513080I0J-50000D01*
G01*
X76227660Y-67513080D01*
G75*
G02*
X76177660Y-67563080I-50000J0D01*
G01*
X74677660Y-67563080D01*
G75*
G02*
X74627660Y-67513080I0J50000D01*
G01*
G37*
G36*
G01*
X74627660Y-69013080D02*
X74627660Y-68013080D01*
G75*
G02*
X74677660Y-67963080I50000J0D01*
G01*
X76177660Y-67963080D01*
G75*
G02*
X76227660Y-68013080I0J-50000D01*
G01*
X76227660Y-69013080D01*
G75*
G02*
X76177660Y-69063080I-50000J0D01*
G01*
X74677660Y-69063080D01*
G75*
G02*
X74627660Y-69013080I0J50000D01*
G01*
G37*
G36*
G01*
X74627660Y-70513080D02*
X74627660Y-69513080D01*
G75*
G02*
X74677660Y-69463080I50000J0D01*
G01*
X76177660Y-69463080D01*
G75*
G02*
X76227660Y-69513080I0J-50000D01*
G01*
X76227660Y-70513080D01*
G75*
G02*
X76177660Y-70563080I-50000J0D01*
G01*
X74677660Y-70563080D01*
G75*
G02*
X74627660Y-70513080I0J50000D01*
G01*
G37*
G36*
G01*
X74627660Y-72013080D02*
X74627660Y-71013080D01*
G75*
G02*
X74677660Y-70963080I50000J0D01*
G01*
X76177660Y-70963080D01*
G75*
G02*
X76227660Y-71013080I0J-50000D01*
G01*
X76227660Y-72013080D01*
G75*
G02*
X76177660Y-72063080I-50000J0D01*
G01*
X74677660Y-72063080D01*
G75*
G02*
X74627660Y-72013080I0J50000D01*
G01*
G37*
G36*
G01*
X74627660Y-73513080D02*
X74627660Y-72513080D01*
G75*
G02*
X74677660Y-72463080I50000J0D01*
G01*
X76177660Y-72463080D01*
G75*
G02*
X76227660Y-72513080I0J-50000D01*
G01*
X76227660Y-73513080D01*
G75*
G02*
X76177660Y-73563080I-50000J0D01*
G01*
X74677660Y-73563080D01*
G75*
G02*
X74627660Y-73513080I0J50000D01*
G01*
G37*
G36*
G01*
X74627660Y-75013080D02*
X74627660Y-74013080D01*
G75*
G02*
X74677660Y-73963080I50000J0D01*
G01*
X76177660Y-73963080D01*
G75*
G02*
X76227660Y-74013080I0J-50000D01*
G01*
X76227660Y-75013080D01*
G75*
G02*
X76177660Y-75063080I-50000J0D01*
G01*
X74677660Y-75063080D01*
G75*
G02*
X74627660Y-75013080I0J50000D01*
G01*
G37*
G36*
G01*
X74627660Y-76513080D02*
X74627660Y-75513080D01*
G75*
G02*
X74677660Y-75463080I50000J0D01*
G01*
X76177660Y-75463080D01*
G75*
G02*
X76227660Y-75513080I0J-50000D01*
G01*
X76227660Y-76513080D01*
G75*
G02*
X76177660Y-76563080I-50000J0D01*
G01*
X74677660Y-76563080D01*
G75*
G02*
X74627660Y-76513080I0J50000D01*
G01*
G37*
G36*
G01*
X74627660Y-78013080D02*
X74627660Y-77013080D01*
G75*
G02*
X74677660Y-76963080I50000J0D01*
G01*
X76177660Y-76963080D01*
G75*
G02*
X76227660Y-77013080I0J-50000D01*
G01*
X76227660Y-78013080D01*
G75*
G02*
X76177660Y-78063080I-50000J0D01*
G01*
X74677660Y-78063080D01*
G75*
G02*
X74627660Y-78013080I0J50000D01*
G01*
G37*
G36*
G01*
X74627660Y-79513080D02*
X74627660Y-78513080D01*
G75*
G02*
X74677660Y-78463080I50000J0D01*
G01*
X76177660Y-78463080D01*
G75*
G02*
X76227660Y-78513080I0J-50000D01*
G01*
X76227660Y-79513080D01*
G75*
G02*
X76177660Y-79563080I-50000J0D01*
G01*
X74677660Y-79563080D01*
G75*
G02*
X74627660Y-79513080I0J50000D01*
G01*
G37*
G36*
G01*
X74627660Y-81013080D02*
X74627660Y-80013080D01*
G75*
G02*
X74677660Y-79963080I50000J0D01*
G01*
X76177660Y-79963080D01*
G75*
G02*
X76227660Y-80013080I0J-50000D01*
G01*
X76227660Y-81013080D01*
G75*
G02*
X76177660Y-81063080I-50000J0D01*
G01*
X74677660Y-81063080D01*
G75*
G02*
X74627660Y-81013080I0J50000D01*
G01*
G37*
G36*
G01*
X74627660Y-82513080D02*
X74627660Y-81513080D01*
G75*
G02*
X74677660Y-81463080I50000J0D01*
G01*
X76177660Y-81463080D01*
G75*
G02*
X76227660Y-81513080I0J-50000D01*
G01*
X76227660Y-82513080D01*
G75*
G02*
X76177660Y-82563080I-50000J0D01*
G01*
X74677660Y-82563080D01*
G75*
G02*
X74627660Y-82513080I0J50000D01*
G01*
G37*
G36*
G01*
X63277660Y-62963080D02*
X63277660Y-61463080D01*
G75*
G02*
X63327660Y-61413080I50000J0D01*
G01*
X64327660Y-61413080D01*
G75*
G02*
X64377660Y-61463080I0J-50000D01*
G01*
X64377660Y-62963080D01*
G75*
G02*
X64327660Y-63013080I-50000J0D01*
G01*
X63327660Y-63013080D01*
G75*
G02*
X63277660Y-62963080I0J50000D01*
G01*
G37*
G36*
G01*
X64777660Y-62963080D02*
X64777660Y-61463080D01*
G75*
G02*
X64827660Y-61413080I50000J0D01*
G01*
X65827660Y-61413080D01*
G75*
G02*
X65877660Y-61463080I0J-50000D01*
G01*
X65877660Y-62963080D01*
G75*
G02*
X65827660Y-63013080I-50000J0D01*
G01*
X64827660Y-63013080D01*
G75*
G02*
X64777660Y-62963080I0J50000D01*
G01*
G37*
G36*
G01*
X66277660Y-62963080D02*
X66277660Y-61463080D01*
G75*
G02*
X66327660Y-61413080I50000J0D01*
G01*
X67327660Y-61413080D01*
G75*
G02*
X67377660Y-61463080I0J-50000D01*
G01*
X67377660Y-62963080D01*
G75*
G02*
X67327660Y-63013080I-50000J0D01*
G01*
X66327660Y-63013080D01*
G75*
G02*
X66277660Y-62963080I0J50000D01*
G01*
G37*
G36*
G01*
X67777660Y-62963080D02*
X67777660Y-61463080D01*
G75*
G02*
X67827660Y-61413080I50000J0D01*
G01*
X68827660Y-61413080D01*
G75*
G02*
X68877660Y-61463080I0J-50000D01*
G01*
X68877660Y-62963080D01*
G75*
G02*
X68827660Y-63013080I-50000J0D01*
G01*
X67827660Y-63013080D01*
G75*
G02*
X67777660Y-62963080I0J50000D01*
G01*
G37*
G36*
G01*
X69277660Y-62963080D02*
X69277660Y-61463080D01*
G75*
G02*
X69327660Y-61413080I50000J0D01*
G01*
X70327660Y-61413080D01*
G75*
G02*
X70377660Y-61463080I0J-50000D01*
G01*
X70377660Y-62963080D01*
G75*
G02*
X70327660Y-63013080I-50000J0D01*
G01*
X69327660Y-63013080D01*
G75*
G02*
X69277660Y-62963080I0J50000D01*
G01*
G37*
G36*
G01*
X70777660Y-62963080D02*
X70777660Y-61463080D01*
G75*
G02*
X70827660Y-61413080I50000J0D01*
G01*
X71827660Y-61413080D01*
G75*
G02*
X71877660Y-61463080I0J-50000D01*
G01*
X71877660Y-62963080D01*
G75*
G02*
X71827660Y-63013080I-50000J0D01*
G01*
X70827660Y-63013080D01*
G75*
G02*
X70777660Y-62963080I0J50000D01*
G01*
G37*
G36*
G01*
X72277660Y-62963080D02*
X72277660Y-61463080D01*
G75*
G02*
X72327660Y-61413080I50000J0D01*
G01*
X73327660Y-61413080D01*
G75*
G02*
X73377660Y-61463080I0J-50000D01*
G01*
X73377660Y-62963080D01*
G75*
G02*
X73327660Y-63013080I-50000J0D01*
G01*
X72327660Y-63013080D01*
G75*
G02*
X72277660Y-62963080I0J50000D01*
G01*
G37*
G36*
G01*
X73777660Y-62963080D02*
X73777660Y-61463080D01*
G75*
G02*
X73827660Y-61413080I50000J0D01*
G01*
X74827660Y-61413080D01*
G75*
G02*
X74877660Y-61463080I0J-50000D01*
G01*
X74877660Y-62963080D01*
G75*
G02*
X74827660Y-63013080I-50000J0D01*
G01*
X73827660Y-63013080D01*
G75*
G02*
X73777660Y-62963080I0J50000D01*
G01*
G37*
%TD*%
D12*
%TO.C,J2*%
X81290160Y-74109580D03*
X81290160Y-71569580D03*
X81290160Y-69029580D03*
G36*
G01*
X80390160Y-67339580D02*
X80390160Y-65639580D01*
G75*
G02*
X80440160Y-65589580I50000J0D01*
G01*
X82140160Y-65589580D01*
G75*
G02*
X82190160Y-65639580I0J-50000D01*
G01*
X82190160Y-67339580D01*
G75*
G02*
X82140160Y-67389580I-50000J0D01*
G01*
X80440160Y-67389580D01*
G75*
G02*
X80390160Y-67339580I0J50000D01*
G01*
G37*
%TD*%
%TO.C,C33*%
G36*
G01*
X75579160Y-50206830D02*
X75579160Y-49244330D01*
G75*
G02*
X75847910Y-48975580I268750J0D01*
G01*
X76385410Y-48975580D01*
G75*
G02*
X76654160Y-49244330I0J-268750D01*
G01*
X76654160Y-50206830D01*
G75*
G02*
X76385410Y-50475580I-268750J0D01*
G01*
X75847910Y-50475580D01*
G75*
G02*
X75579160Y-50206830I0J268750D01*
G01*
G37*
G36*
G01*
X73704160Y-50206830D02*
X73704160Y-49244330D01*
G75*
G02*
X73972910Y-48975580I268750J0D01*
G01*
X74510410Y-48975580D01*
G75*
G02*
X74779160Y-49244330I0J-268750D01*
G01*
X74779160Y-50206830D01*
G75*
G02*
X74510410Y-50475580I-268750J0D01*
G01*
X73972910Y-50475580D01*
G75*
G02*
X73704160Y-50206830I0J268750D01*
G01*
G37*
%TD*%
D13*
%TO.C,P1*%
X105711660Y-75532580D03*
X97071660Y-75532580D03*
D14*
X98501660Y-76062580D03*
D15*
X97071660Y-79712580D03*
D14*
X104281660Y-76062580D03*
D15*
X105711660Y-79712580D03*
%TD*%
%TO.C,CN3*%
G36*
G01*
X78423660Y-38121580D02*
X78923660Y-38121580D01*
G75*
G02*
X78973660Y-38171580I0J-50000D01*
G01*
X78973660Y-38971580D01*
G75*
G02*
X78923660Y-39021580I-50000J0D01*
G01*
X78423660Y-39021580D01*
G75*
G02*
X78373660Y-38971580I0J50000D01*
G01*
X78373660Y-38171580D01*
G75*
G02*
X78423660Y-38121580I50000J0D01*
G01*
G37*
G36*
G01*
X77673660Y-38121580D02*
X78073660Y-38121580D01*
G75*
G02*
X78123660Y-38171580I0J-50000D01*
G01*
X78123660Y-38971580D01*
G75*
G02*
X78073660Y-39021580I-50000J0D01*
G01*
X77673660Y-39021580D01*
G75*
G02*
X77623660Y-38971580I0J50000D01*
G01*
X77623660Y-38171580D01*
G75*
G02*
X77673660Y-38121580I50000J0D01*
G01*
G37*
G36*
G01*
X76023660Y-38121580D02*
X76523660Y-38121580D01*
G75*
G02*
X76573660Y-38171580I0J-50000D01*
G01*
X76573660Y-38971580D01*
G75*
G02*
X76523660Y-39021580I-50000J0D01*
G01*
X76023660Y-39021580D01*
G75*
G02*
X75973660Y-38971580I0J50000D01*
G01*
X75973660Y-38171580D01*
G75*
G02*
X76023660Y-38121580I50000J0D01*
G01*
G37*
G36*
G01*
X76873660Y-38121580D02*
X77273660Y-38121580D01*
G75*
G02*
X77323660Y-38171580I0J-50000D01*
G01*
X77323660Y-38971580D01*
G75*
G02*
X77273660Y-39021580I-50000J0D01*
G01*
X76873660Y-39021580D01*
G75*
G02*
X76823660Y-38971580I0J50000D01*
G01*
X76823660Y-38171580D01*
G75*
G02*
X76873660Y-38121580I50000J0D01*
G01*
G37*
G36*
G01*
X78423660Y-36321580D02*
X78923660Y-36321580D01*
G75*
G02*
X78973660Y-36371580I0J-50000D01*
G01*
X78973660Y-37171580D01*
G75*
G02*
X78923660Y-37221580I-50000J0D01*
G01*
X78423660Y-37221580D01*
G75*
G02*
X78373660Y-37171580I0J50000D01*
G01*
X78373660Y-36371580D01*
G75*
G02*
X78423660Y-36321580I50000J0D01*
G01*
G37*
G36*
G01*
X76873660Y-36321580D02*
X77273660Y-36321580D01*
G75*
G02*
X77323660Y-36371580I0J-50000D01*
G01*
X77323660Y-37171580D01*
G75*
G02*
X77273660Y-37221580I-50000J0D01*
G01*
X76873660Y-37221580D01*
G75*
G02*
X76823660Y-37171580I0J50000D01*
G01*
X76823660Y-36371580D01*
G75*
G02*
X76873660Y-36321580I50000J0D01*
G01*
G37*
G36*
G01*
X77673660Y-36321580D02*
X78073660Y-36321580D01*
G75*
G02*
X78123660Y-36371580I0J-50000D01*
G01*
X78123660Y-37171580D01*
G75*
G02*
X78073660Y-37221580I-50000J0D01*
G01*
X77673660Y-37221580D01*
G75*
G02*
X77623660Y-37171580I0J50000D01*
G01*
X77623660Y-36371580D01*
G75*
G02*
X77673660Y-36321580I50000J0D01*
G01*
G37*
G36*
G01*
X76023660Y-36321580D02*
X76523660Y-36321580D01*
G75*
G02*
X76573660Y-36371580I0J-50000D01*
G01*
X76573660Y-37171580D01*
G75*
G02*
X76523660Y-37221580I-50000J0D01*
G01*
X76023660Y-37221580D01*
G75*
G02*
X75973660Y-37171580I0J50000D01*
G01*
X75973660Y-36371580D01*
G75*
G02*
X76023660Y-36321580I50000J0D01*
G01*
G37*
%TD*%
%TO.C,CN2*%
G36*
G01*
X83757660Y-38121580D02*
X84257660Y-38121580D01*
G75*
G02*
X84307660Y-38171580I0J-50000D01*
G01*
X84307660Y-38971580D01*
G75*
G02*
X84257660Y-39021580I-50000J0D01*
G01*
X83757660Y-39021580D01*
G75*
G02*
X83707660Y-38971580I0J50000D01*
G01*
X83707660Y-38171580D01*
G75*
G02*
X83757660Y-38121580I50000J0D01*
G01*
G37*
G36*
G01*
X83007660Y-38121580D02*
X83407660Y-38121580D01*
G75*
G02*
X83457660Y-38171580I0J-50000D01*
G01*
X83457660Y-38971580D01*
G75*
G02*
X83407660Y-39021580I-50000J0D01*
G01*
X83007660Y-39021580D01*
G75*
G02*
X82957660Y-38971580I0J50000D01*
G01*
X82957660Y-38171580D01*
G75*
G02*
X83007660Y-38121580I50000J0D01*
G01*
G37*
G36*
G01*
X81357660Y-38121580D02*
X81857660Y-38121580D01*
G75*
G02*
X81907660Y-38171580I0J-50000D01*
G01*
X81907660Y-38971580D01*
G75*
G02*
X81857660Y-39021580I-50000J0D01*
G01*
X81357660Y-39021580D01*
G75*
G02*
X81307660Y-38971580I0J50000D01*
G01*
X81307660Y-38171580D01*
G75*
G02*
X81357660Y-38121580I50000J0D01*
G01*
G37*
G36*
G01*
X82207660Y-38121580D02*
X82607660Y-38121580D01*
G75*
G02*
X82657660Y-38171580I0J-50000D01*
G01*
X82657660Y-38971580D01*
G75*
G02*
X82607660Y-39021580I-50000J0D01*
G01*
X82207660Y-39021580D01*
G75*
G02*
X82157660Y-38971580I0J50000D01*
G01*
X82157660Y-38171580D01*
G75*
G02*
X82207660Y-38121580I50000J0D01*
G01*
G37*
G36*
G01*
X83757660Y-36321580D02*
X84257660Y-36321580D01*
G75*
G02*
X84307660Y-36371580I0J-50000D01*
G01*
X84307660Y-37171580D01*
G75*
G02*
X84257660Y-37221580I-50000J0D01*
G01*
X83757660Y-37221580D01*
G75*
G02*
X83707660Y-37171580I0J50000D01*
G01*
X83707660Y-36371580D01*
G75*
G02*
X83757660Y-36321580I50000J0D01*
G01*
G37*
G36*
G01*
X82207660Y-36321580D02*
X82607660Y-36321580D01*
G75*
G02*
X82657660Y-36371580I0J-50000D01*
G01*
X82657660Y-37171580D01*
G75*
G02*
X82607660Y-37221580I-50000J0D01*
G01*
X82207660Y-37221580D01*
G75*
G02*
X82157660Y-37171580I0J50000D01*
G01*
X82157660Y-36371580D01*
G75*
G02*
X82207660Y-36321580I50000J0D01*
G01*
G37*
G36*
G01*
X83007660Y-36321580D02*
X83407660Y-36321580D01*
G75*
G02*
X83457660Y-36371580I0J-50000D01*
G01*
X83457660Y-37171580D01*
G75*
G02*
X83407660Y-37221580I-50000J0D01*
G01*
X83007660Y-37221580D01*
G75*
G02*
X82957660Y-37171580I0J50000D01*
G01*
X82957660Y-36371580D01*
G75*
G02*
X83007660Y-36321580I50000J0D01*
G01*
G37*
G36*
G01*
X81357660Y-36321580D02*
X81857660Y-36321580D01*
G75*
G02*
X81907660Y-36371580I0J-50000D01*
G01*
X81907660Y-37171580D01*
G75*
G02*
X81857660Y-37221580I-50000J0D01*
G01*
X81357660Y-37221580D01*
G75*
G02*
X81307660Y-37171580I0J50000D01*
G01*
X81307660Y-36371580D01*
G75*
G02*
X81357660Y-36321580I50000J0D01*
G01*
G37*
%TD*%
%TO.C,U12*%
G36*
G01*
X75607660Y-33474580D02*
X75607660Y-32824580D01*
G75*
G02*
X75657660Y-32774580I50000J0D01*
G01*
X76717660Y-32774580D01*
G75*
G02*
X76767660Y-32824580I0J-50000D01*
G01*
X76767660Y-33474580D01*
G75*
G02*
X76717660Y-33524580I-50000J0D01*
G01*
X75657660Y-33524580D01*
G75*
G02*
X75607660Y-33474580I0J50000D01*
G01*
G37*
G36*
G01*
X75607660Y-34424580D02*
X75607660Y-33774580D01*
G75*
G02*
X75657660Y-33724580I50000J0D01*
G01*
X76717660Y-33724580D01*
G75*
G02*
X76767660Y-33774580I0J-50000D01*
G01*
X76767660Y-34424580D01*
G75*
G02*
X76717660Y-34474580I-50000J0D01*
G01*
X75657660Y-34474580D01*
G75*
G02*
X75607660Y-34424580I0J50000D01*
G01*
G37*
G36*
G01*
X75607660Y-32524580D02*
X75607660Y-31874580D01*
G75*
G02*
X75657660Y-31824580I50000J0D01*
G01*
X76717660Y-31824580D01*
G75*
G02*
X76767660Y-31874580I0J-50000D01*
G01*
X76767660Y-32524580D01*
G75*
G02*
X76717660Y-32574580I-50000J0D01*
G01*
X75657660Y-32574580D01*
G75*
G02*
X75607660Y-32524580I0J50000D01*
G01*
G37*
G36*
G01*
X73407660Y-32524580D02*
X73407660Y-31874580D01*
G75*
G02*
X73457660Y-31824580I50000J0D01*
G01*
X74517660Y-31824580D01*
G75*
G02*
X74567660Y-31874580I0J-50000D01*
G01*
X74567660Y-32524580D01*
G75*
G02*
X74517660Y-32574580I-50000J0D01*
G01*
X73457660Y-32574580D01*
G75*
G02*
X73407660Y-32524580I0J50000D01*
G01*
G37*
G36*
G01*
X73407660Y-33474580D02*
X73407660Y-32824580D01*
G75*
G02*
X73457660Y-32774580I50000J0D01*
G01*
X74517660Y-32774580D01*
G75*
G02*
X74567660Y-32824580I0J-50000D01*
G01*
X74567660Y-33474580D01*
G75*
G02*
X74517660Y-33524580I-50000J0D01*
G01*
X73457660Y-33524580D01*
G75*
G02*
X73407660Y-33474580I0J50000D01*
G01*
G37*
G36*
G01*
X73407660Y-34424580D02*
X73407660Y-33774580D01*
G75*
G02*
X73457660Y-33724580I50000J0D01*
G01*
X74517660Y-33724580D01*
G75*
G02*
X74567660Y-33774580I0J-50000D01*
G01*
X74567660Y-34424580D01*
G75*
G02*
X74517660Y-34474580I-50000J0D01*
G01*
X73457660Y-34474580D01*
G75*
G02*
X73407660Y-34424580I0J50000D01*
G01*
G37*
%TD*%
%TO.C,U7*%
G36*
G01*
X85767660Y-33474580D02*
X85767660Y-32824580D01*
G75*
G02*
X85817660Y-32774580I50000J0D01*
G01*
X86877660Y-32774580D01*
G75*
G02*
X86927660Y-32824580I0J-50000D01*
G01*
X86927660Y-33474580D01*
G75*
G02*
X86877660Y-33524580I-50000J0D01*
G01*
X85817660Y-33524580D01*
G75*
G02*
X85767660Y-33474580I0J50000D01*
G01*
G37*
G36*
G01*
X85767660Y-34424580D02*
X85767660Y-33774580D01*
G75*
G02*
X85817660Y-33724580I50000J0D01*
G01*
X86877660Y-33724580D01*
G75*
G02*
X86927660Y-33774580I0J-50000D01*
G01*
X86927660Y-34424580D01*
G75*
G02*
X86877660Y-34474580I-50000J0D01*
G01*
X85817660Y-34474580D01*
G75*
G02*
X85767660Y-34424580I0J50000D01*
G01*
G37*
G36*
G01*
X85767660Y-32524580D02*
X85767660Y-31874580D01*
G75*
G02*
X85817660Y-31824580I50000J0D01*
G01*
X86877660Y-31824580D01*
G75*
G02*
X86927660Y-31874580I0J-50000D01*
G01*
X86927660Y-32524580D01*
G75*
G02*
X86877660Y-32574580I-50000J0D01*
G01*
X85817660Y-32574580D01*
G75*
G02*
X85767660Y-32524580I0J50000D01*
G01*
G37*
G36*
G01*
X83567660Y-32524580D02*
X83567660Y-31874580D01*
G75*
G02*
X83617660Y-31824580I50000J0D01*
G01*
X84677660Y-31824580D01*
G75*
G02*
X84727660Y-31874580I0J-50000D01*
G01*
X84727660Y-32524580D01*
G75*
G02*
X84677660Y-32574580I-50000J0D01*
G01*
X83617660Y-32574580D01*
G75*
G02*
X83567660Y-32524580I0J50000D01*
G01*
G37*
G36*
G01*
X83567660Y-33474580D02*
X83567660Y-32824580D01*
G75*
G02*
X83617660Y-32774580I50000J0D01*
G01*
X84677660Y-32774580D01*
G75*
G02*
X84727660Y-32824580I0J-50000D01*
G01*
X84727660Y-33474580D01*
G75*
G02*
X84677660Y-33524580I-50000J0D01*
G01*
X83617660Y-33524580D01*
G75*
G02*
X83567660Y-33474580I0J50000D01*
G01*
G37*
G36*
G01*
X83567660Y-34424580D02*
X83567660Y-33774580D01*
G75*
G02*
X83617660Y-33724580I50000J0D01*
G01*
X84677660Y-33724580D01*
G75*
G02*
X84727660Y-33774580I0J-50000D01*
G01*
X84727660Y-34424580D01*
G75*
G02*
X84677660Y-34474580I-50000J0D01*
G01*
X83617660Y-34474580D01*
G75*
G02*
X83567660Y-34424580I0J50000D01*
G01*
G37*
%TD*%
%TO.C,U14*%
G36*
G01*
X90847660Y-33474580D02*
X90847660Y-32824580D01*
G75*
G02*
X90897660Y-32774580I50000J0D01*
G01*
X91957660Y-32774580D01*
G75*
G02*
X92007660Y-32824580I0J-50000D01*
G01*
X92007660Y-33474580D01*
G75*
G02*
X91957660Y-33524580I-50000J0D01*
G01*
X90897660Y-33524580D01*
G75*
G02*
X90847660Y-33474580I0J50000D01*
G01*
G37*
G36*
G01*
X90847660Y-34424580D02*
X90847660Y-33774580D01*
G75*
G02*
X90897660Y-33724580I50000J0D01*
G01*
X91957660Y-33724580D01*
G75*
G02*
X92007660Y-33774580I0J-50000D01*
G01*
X92007660Y-34424580D01*
G75*
G02*
X91957660Y-34474580I-50000J0D01*
G01*
X90897660Y-34474580D01*
G75*
G02*
X90847660Y-34424580I0J50000D01*
G01*
G37*
G36*
G01*
X90847660Y-32524580D02*
X90847660Y-31874580D01*
G75*
G02*
X90897660Y-31824580I50000J0D01*
G01*
X91957660Y-31824580D01*
G75*
G02*
X92007660Y-31874580I0J-50000D01*
G01*
X92007660Y-32524580D01*
G75*
G02*
X91957660Y-32574580I-50000J0D01*
G01*
X90897660Y-32574580D01*
G75*
G02*
X90847660Y-32524580I0J50000D01*
G01*
G37*
G36*
G01*
X88647660Y-32524580D02*
X88647660Y-31874580D01*
G75*
G02*
X88697660Y-31824580I50000J0D01*
G01*
X89757660Y-31824580D01*
G75*
G02*
X89807660Y-31874580I0J-50000D01*
G01*
X89807660Y-32524580D01*
G75*
G02*
X89757660Y-32574580I-50000J0D01*
G01*
X88697660Y-32574580D01*
G75*
G02*
X88647660Y-32524580I0J50000D01*
G01*
G37*
G36*
G01*
X88647660Y-33474580D02*
X88647660Y-32824580D01*
G75*
G02*
X88697660Y-32774580I50000J0D01*
G01*
X89757660Y-32774580D01*
G75*
G02*
X89807660Y-32824580I0J-50000D01*
G01*
X89807660Y-33474580D01*
G75*
G02*
X89757660Y-33524580I-50000J0D01*
G01*
X88697660Y-33524580D01*
G75*
G02*
X88647660Y-33474580I0J50000D01*
G01*
G37*
G36*
G01*
X88647660Y-34424580D02*
X88647660Y-33774580D01*
G75*
G02*
X88697660Y-33724580I50000J0D01*
G01*
X89757660Y-33724580D01*
G75*
G02*
X89807660Y-33774580I0J-50000D01*
G01*
X89807660Y-34424580D01*
G75*
G02*
X89757660Y-34474580I-50000J0D01*
G01*
X88697660Y-34474580D01*
G75*
G02*
X88647660Y-34424580I0J50000D01*
G01*
G37*
%TD*%
%TO.C,U16*%
G36*
G01*
X65787660Y-33474580D02*
X65787660Y-32824580D01*
G75*
G02*
X65837660Y-32774580I50000J0D01*
G01*
X66897660Y-32774580D01*
G75*
G02*
X66947660Y-32824580I0J-50000D01*
G01*
X66947660Y-33474580D01*
G75*
G02*
X66897660Y-33524580I-50000J0D01*
G01*
X65837660Y-33524580D01*
G75*
G02*
X65787660Y-33474580I0J50000D01*
G01*
G37*
G36*
G01*
X65787660Y-34424580D02*
X65787660Y-33774580D01*
G75*
G02*
X65837660Y-33724580I50000J0D01*
G01*
X66897660Y-33724580D01*
G75*
G02*
X66947660Y-33774580I0J-50000D01*
G01*
X66947660Y-34424580D01*
G75*
G02*
X66897660Y-34474580I-50000J0D01*
G01*
X65837660Y-34474580D01*
G75*
G02*
X65787660Y-34424580I0J50000D01*
G01*
G37*
G36*
G01*
X65787660Y-32524580D02*
X65787660Y-31874580D01*
G75*
G02*
X65837660Y-31824580I50000J0D01*
G01*
X66897660Y-31824580D01*
G75*
G02*
X66947660Y-31874580I0J-50000D01*
G01*
X66947660Y-32524580D01*
G75*
G02*
X66897660Y-32574580I-50000J0D01*
G01*
X65837660Y-32574580D01*
G75*
G02*
X65787660Y-32524580I0J50000D01*
G01*
G37*
G36*
G01*
X63587660Y-32524580D02*
X63587660Y-31874580D01*
G75*
G02*
X63637660Y-31824580I50000J0D01*
G01*
X64697660Y-31824580D01*
G75*
G02*
X64747660Y-31874580I0J-50000D01*
G01*
X64747660Y-32524580D01*
G75*
G02*
X64697660Y-32574580I-50000J0D01*
G01*
X63637660Y-32574580D01*
G75*
G02*
X63587660Y-32524580I0J50000D01*
G01*
G37*
G36*
G01*
X63587660Y-33474580D02*
X63587660Y-32824580D01*
G75*
G02*
X63637660Y-32774580I50000J0D01*
G01*
X64697660Y-32774580D01*
G75*
G02*
X64747660Y-32824580I0J-50000D01*
G01*
X64747660Y-33474580D01*
G75*
G02*
X64697660Y-33524580I-50000J0D01*
G01*
X63637660Y-33524580D01*
G75*
G02*
X63587660Y-33474580I0J50000D01*
G01*
G37*
G36*
G01*
X63587660Y-34424580D02*
X63587660Y-33774580D01*
G75*
G02*
X63637660Y-33724580I50000J0D01*
G01*
X64697660Y-33724580D01*
G75*
G02*
X64747660Y-33774580I0J-50000D01*
G01*
X64747660Y-34424580D01*
G75*
G02*
X64697660Y-34474580I-50000J0D01*
G01*
X63637660Y-34474580D01*
G75*
G02*
X63587660Y-34424580I0J50000D01*
G01*
G37*
%TD*%
%TO.C,U13*%
G36*
G01*
X70654660Y-33474580D02*
X70654660Y-32824580D01*
G75*
G02*
X70704660Y-32774580I50000J0D01*
G01*
X71764660Y-32774580D01*
G75*
G02*
X71814660Y-32824580I0J-50000D01*
G01*
X71814660Y-33474580D01*
G75*
G02*
X71764660Y-33524580I-50000J0D01*
G01*
X70704660Y-33524580D01*
G75*
G02*
X70654660Y-33474580I0J50000D01*
G01*
G37*
G36*
G01*
X70654660Y-34424580D02*
X70654660Y-33774580D01*
G75*
G02*
X70704660Y-33724580I50000J0D01*
G01*
X71764660Y-33724580D01*
G75*
G02*
X71814660Y-33774580I0J-50000D01*
G01*
X71814660Y-34424580D01*
G75*
G02*
X71764660Y-34474580I-50000J0D01*
G01*
X70704660Y-34474580D01*
G75*
G02*
X70654660Y-34424580I0J50000D01*
G01*
G37*
G36*
G01*
X70654660Y-32524580D02*
X70654660Y-31874580D01*
G75*
G02*
X70704660Y-31824580I50000J0D01*
G01*
X71764660Y-31824580D01*
G75*
G02*
X71814660Y-31874580I0J-50000D01*
G01*
X71814660Y-32524580D01*
G75*
G02*
X71764660Y-32574580I-50000J0D01*
G01*
X70704660Y-32574580D01*
G75*
G02*
X70654660Y-32524580I0J50000D01*
G01*
G37*
G36*
G01*
X68454660Y-32524580D02*
X68454660Y-31874580D01*
G75*
G02*
X68504660Y-31824580I50000J0D01*
G01*
X69564660Y-31824580D01*
G75*
G02*
X69614660Y-31874580I0J-50000D01*
G01*
X69614660Y-32524580D01*
G75*
G02*
X69564660Y-32574580I-50000J0D01*
G01*
X68504660Y-32574580D01*
G75*
G02*
X68454660Y-32524580I0J50000D01*
G01*
G37*
G36*
G01*
X68454660Y-33474580D02*
X68454660Y-32824580D01*
G75*
G02*
X68504660Y-32774580I50000J0D01*
G01*
X69564660Y-32774580D01*
G75*
G02*
X69614660Y-32824580I0J-50000D01*
G01*
X69614660Y-33474580D01*
G75*
G02*
X69564660Y-33524580I-50000J0D01*
G01*
X68504660Y-33524580D01*
G75*
G02*
X68454660Y-33474580I0J50000D01*
G01*
G37*
G36*
G01*
X68454660Y-34424580D02*
X68454660Y-33774580D01*
G75*
G02*
X68504660Y-33724580I50000J0D01*
G01*
X69564660Y-33724580D01*
G75*
G02*
X69614660Y-33774580I0J-50000D01*
G01*
X69614660Y-34424580D01*
G75*
G02*
X69564660Y-34474580I-50000J0D01*
G01*
X68504660Y-34474580D01*
G75*
G02*
X68454660Y-34424580I0J50000D01*
G01*
G37*
%TD*%
%TO.C,U9*%
G36*
G01*
X80687660Y-33474580D02*
X80687660Y-32824580D01*
G75*
G02*
X80737660Y-32774580I50000J0D01*
G01*
X81797660Y-32774580D01*
G75*
G02*
X81847660Y-32824580I0J-50000D01*
G01*
X81847660Y-33474580D01*
G75*
G02*
X81797660Y-33524580I-50000J0D01*
G01*
X80737660Y-33524580D01*
G75*
G02*
X80687660Y-33474580I0J50000D01*
G01*
G37*
G36*
G01*
X80687660Y-34424580D02*
X80687660Y-33774580D01*
G75*
G02*
X80737660Y-33724580I50000J0D01*
G01*
X81797660Y-33724580D01*
G75*
G02*
X81847660Y-33774580I0J-50000D01*
G01*
X81847660Y-34424580D01*
G75*
G02*
X81797660Y-34474580I-50000J0D01*
G01*
X80737660Y-34474580D01*
G75*
G02*
X80687660Y-34424580I0J50000D01*
G01*
G37*
G36*
G01*
X80687660Y-32524580D02*
X80687660Y-31874580D01*
G75*
G02*
X80737660Y-31824580I50000J0D01*
G01*
X81797660Y-31824580D01*
G75*
G02*
X81847660Y-31874580I0J-50000D01*
G01*
X81847660Y-32524580D01*
G75*
G02*
X81797660Y-32574580I-50000J0D01*
G01*
X80737660Y-32574580D01*
G75*
G02*
X80687660Y-32524580I0J50000D01*
G01*
G37*
G36*
G01*
X78487660Y-32524580D02*
X78487660Y-31874580D01*
G75*
G02*
X78537660Y-31824580I50000J0D01*
G01*
X79597660Y-31824580D01*
G75*
G02*
X79647660Y-31874580I0J-50000D01*
G01*
X79647660Y-32524580D01*
G75*
G02*
X79597660Y-32574580I-50000J0D01*
G01*
X78537660Y-32574580D01*
G75*
G02*
X78487660Y-32524580I0J50000D01*
G01*
G37*
G36*
G01*
X78487660Y-33474580D02*
X78487660Y-32824580D01*
G75*
G02*
X78537660Y-32774580I50000J0D01*
G01*
X79597660Y-32774580D01*
G75*
G02*
X79647660Y-32824580I0J-50000D01*
G01*
X79647660Y-33474580D01*
G75*
G02*
X79597660Y-33524580I-50000J0D01*
G01*
X78537660Y-33524580D01*
G75*
G02*
X78487660Y-33474580I0J50000D01*
G01*
G37*
G36*
G01*
X78487660Y-34424580D02*
X78487660Y-33774580D01*
G75*
G02*
X78537660Y-33724580I50000J0D01*
G01*
X79597660Y-33724580D01*
G75*
G02*
X79647660Y-33774580I0J-50000D01*
G01*
X79647660Y-34424580D01*
G75*
G02*
X79597660Y-34474580I-50000J0D01*
G01*
X78537660Y-34474580D01*
G75*
G02*
X78487660Y-34424580I0J50000D01*
G01*
G37*
%TD*%
%TO.C,C47*%
G36*
G01*
X82213160Y-40935830D02*
X82213160Y-39973330D01*
G75*
G02*
X82481910Y-39704580I268750J0D01*
G01*
X83019410Y-39704580D01*
G75*
G02*
X83288160Y-39973330I0J-268750D01*
G01*
X83288160Y-40935830D01*
G75*
G02*
X83019410Y-41204580I-268750J0D01*
G01*
X82481910Y-41204580D01*
G75*
G02*
X82213160Y-40935830I0J268750D01*
G01*
G37*
G36*
G01*
X80338160Y-40935830D02*
X80338160Y-39973330D01*
G75*
G02*
X80606910Y-39704580I268750J0D01*
G01*
X81144410Y-39704580D01*
G75*
G02*
X81413160Y-39973330I0J-268750D01*
G01*
X81413160Y-40935830D01*
G75*
G02*
X81144410Y-41204580I-268750J0D01*
G01*
X80606910Y-41204580D01*
G75*
G02*
X80338160Y-40935830I0J268750D01*
G01*
G37*
%TD*%
%TO.C,U4*%
G36*
G01*
X103661720Y-68501160D02*
X101661720Y-68501160D01*
G75*
G02*
X101611720Y-68451160I0J50000D01*
G01*
X101611720Y-66951160D01*
G75*
G02*
X101661720Y-66901160I50000J0D01*
G01*
X103661720Y-66901160D01*
G75*
G02*
X103711720Y-66951160I0J-50000D01*
G01*
X103711720Y-68451160D01*
G75*
G02*
X103661720Y-68501160I-50000J0D01*
G01*
G37*
D16*
X102661720Y-65161160D03*
X102661720Y-62621160D03*
X102661720Y-60081160D03*
%TD*%
%TO.C,U3*%
G36*
G01*
X100899660Y-77909580D02*
X100899660Y-78559580D01*
G75*
G02*
X100849660Y-78609580I-50000J0D01*
G01*
X99789660Y-78609580D01*
G75*
G02*
X99739660Y-78559580I0J50000D01*
G01*
X99739660Y-77909580D01*
G75*
G02*
X99789660Y-77859580I50000J0D01*
G01*
X100849660Y-77859580D01*
G75*
G02*
X100899660Y-77909580I0J-50000D01*
G01*
G37*
G36*
G01*
X100899660Y-76959580D02*
X100899660Y-77609580D01*
G75*
G02*
X100849660Y-77659580I-50000J0D01*
G01*
X99789660Y-77659580D01*
G75*
G02*
X99739660Y-77609580I0J50000D01*
G01*
X99739660Y-76959580D01*
G75*
G02*
X99789660Y-76909580I50000J0D01*
G01*
X100849660Y-76909580D01*
G75*
G02*
X100899660Y-76959580I0J-50000D01*
G01*
G37*
G36*
G01*
X100899660Y-78859580D02*
X100899660Y-79509580D01*
G75*
G02*
X100849660Y-79559580I-50000J0D01*
G01*
X99789660Y-79559580D01*
G75*
G02*
X99739660Y-79509580I0J50000D01*
G01*
X99739660Y-78859580D01*
G75*
G02*
X99789660Y-78809580I50000J0D01*
G01*
X100849660Y-78809580D01*
G75*
G02*
X100899660Y-78859580I0J-50000D01*
G01*
G37*
G36*
G01*
X103099660Y-78859580D02*
X103099660Y-79509580D01*
G75*
G02*
X103049660Y-79559580I-50000J0D01*
G01*
X101989660Y-79559580D01*
G75*
G02*
X101939660Y-79509580I0J50000D01*
G01*
X101939660Y-78859580D01*
G75*
G02*
X101989660Y-78809580I50000J0D01*
G01*
X103049660Y-78809580D01*
G75*
G02*
X103099660Y-78859580I0J-50000D01*
G01*
G37*
G36*
G01*
X103099660Y-77909580D02*
X103099660Y-78559580D01*
G75*
G02*
X103049660Y-78609580I-50000J0D01*
G01*
X101989660Y-78609580D01*
G75*
G02*
X101939660Y-78559580I0J50000D01*
G01*
X101939660Y-77909580D01*
G75*
G02*
X101989660Y-77859580I50000J0D01*
G01*
X103049660Y-77859580D01*
G75*
G02*
X103099660Y-77909580I0J-50000D01*
G01*
G37*
G36*
G01*
X103099660Y-76959580D02*
X103099660Y-77609580D01*
G75*
G02*
X103049660Y-77659580I-50000J0D01*
G01*
X101989660Y-77659580D01*
G75*
G02*
X101939660Y-77609580I0J50000D01*
G01*
X101939660Y-76959580D01*
G75*
G02*
X101989660Y-76909580I50000J0D01*
G01*
X103049660Y-76909580D01*
G75*
G02*
X103099660Y-76959580I0J-50000D01*
G01*
G37*
%TD*%
D12*
%TO.C,J6*%
X94307660Y-27500580D03*
X94307660Y-30040580D03*
X91767660Y-27500580D03*
X91767660Y-30040580D03*
X89227660Y-27500580D03*
X89227660Y-30040580D03*
X86687660Y-27500580D03*
X86687660Y-30040580D03*
X84147660Y-27500580D03*
X84147660Y-30040580D03*
X81607660Y-27500580D03*
X81607660Y-30040580D03*
X79067660Y-27500580D03*
X79067660Y-30040580D03*
X76527660Y-27500580D03*
X76527660Y-30040580D03*
X73987660Y-27500580D03*
X73987660Y-30040580D03*
X71447660Y-27500580D03*
X71447660Y-30040580D03*
X68907660Y-27500580D03*
X68907660Y-30040580D03*
X66367660Y-27500580D03*
X66367660Y-30040580D03*
X63827660Y-27500580D03*
G36*
G01*
X64677660Y-30940580D02*
X62977660Y-30940580D01*
G75*
G02*
X62927660Y-30890580I0J50000D01*
G01*
X62927660Y-29190580D01*
G75*
G02*
X62977660Y-29140580I50000J0D01*
G01*
X64677660Y-29140580D01*
G75*
G02*
X64727660Y-29190580I0J-50000D01*
G01*
X64727660Y-30890580D01*
G75*
G02*
X64677660Y-30940580I-50000J0D01*
G01*
G37*
%TD*%
%TO.C,J3*%
X62621160Y-52583080D03*
X62621160Y-55123080D03*
X62621160Y-57663080D03*
G36*
G01*
X63521160Y-59353080D02*
X63521160Y-61053080D01*
G75*
G02*
X63471160Y-61103080I-50000J0D01*
G01*
X61771160Y-61103080D01*
G75*
G02*
X61721160Y-61053080I0J50000D01*
G01*
X61721160Y-59353080D01*
G75*
G02*
X61771160Y-59303080I50000J0D01*
G01*
X63471160Y-59303080D01*
G75*
G02*
X63521160Y-59353080I0J-50000D01*
G01*
G37*
%TD*%
%TO.C,CN5*%
G36*
G01*
X67374660Y-38121580D02*
X67874660Y-38121580D01*
G75*
G02*
X67924660Y-38171580I0J-50000D01*
G01*
X67924660Y-38971580D01*
G75*
G02*
X67874660Y-39021580I-50000J0D01*
G01*
X67374660Y-39021580D01*
G75*
G02*
X67324660Y-38971580I0J50000D01*
G01*
X67324660Y-38171580D01*
G75*
G02*
X67374660Y-38121580I50000J0D01*
G01*
G37*
G36*
G01*
X66624660Y-38121580D02*
X67024660Y-38121580D01*
G75*
G02*
X67074660Y-38171580I0J-50000D01*
G01*
X67074660Y-38971580D01*
G75*
G02*
X67024660Y-39021580I-50000J0D01*
G01*
X66624660Y-39021580D01*
G75*
G02*
X66574660Y-38971580I0J50000D01*
G01*
X66574660Y-38171580D01*
G75*
G02*
X66624660Y-38121580I50000J0D01*
G01*
G37*
G36*
G01*
X64974660Y-38121580D02*
X65474660Y-38121580D01*
G75*
G02*
X65524660Y-38171580I0J-50000D01*
G01*
X65524660Y-38971580D01*
G75*
G02*
X65474660Y-39021580I-50000J0D01*
G01*
X64974660Y-39021580D01*
G75*
G02*
X64924660Y-38971580I0J50000D01*
G01*
X64924660Y-38171580D01*
G75*
G02*
X64974660Y-38121580I50000J0D01*
G01*
G37*
G36*
G01*
X65824660Y-38121580D02*
X66224660Y-38121580D01*
G75*
G02*
X66274660Y-38171580I0J-50000D01*
G01*
X66274660Y-38971580D01*
G75*
G02*
X66224660Y-39021580I-50000J0D01*
G01*
X65824660Y-39021580D01*
G75*
G02*
X65774660Y-38971580I0J50000D01*
G01*
X65774660Y-38171580D01*
G75*
G02*
X65824660Y-38121580I50000J0D01*
G01*
G37*
G36*
G01*
X67374660Y-36321580D02*
X67874660Y-36321580D01*
G75*
G02*
X67924660Y-36371580I0J-50000D01*
G01*
X67924660Y-37171580D01*
G75*
G02*
X67874660Y-37221580I-50000J0D01*
G01*
X67374660Y-37221580D01*
G75*
G02*
X67324660Y-37171580I0J50000D01*
G01*
X67324660Y-36371580D01*
G75*
G02*
X67374660Y-36321580I50000J0D01*
G01*
G37*
G36*
G01*
X65824660Y-36321580D02*
X66224660Y-36321580D01*
G75*
G02*
X66274660Y-36371580I0J-50000D01*
G01*
X66274660Y-37171580D01*
G75*
G02*
X66224660Y-37221580I-50000J0D01*
G01*
X65824660Y-37221580D01*
G75*
G02*
X65774660Y-37171580I0J50000D01*
G01*
X65774660Y-36371580D01*
G75*
G02*
X65824660Y-36321580I50000J0D01*
G01*
G37*
G36*
G01*
X66624660Y-36321580D02*
X67024660Y-36321580D01*
G75*
G02*
X67074660Y-36371580I0J-50000D01*
G01*
X67074660Y-37171580D01*
G75*
G02*
X67024660Y-37221580I-50000J0D01*
G01*
X66624660Y-37221580D01*
G75*
G02*
X66574660Y-37171580I0J50000D01*
G01*
X66574660Y-36371580D01*
G75*
G02*
X66624660Y-36321580I50000J0D01*
G01*
G37*
G36*
G01*
X64974660Y-36321580D02*
X65474660Y-36321580D01*
G75*
G02*
X65524660Y-36371580I0J-50000D01*
G01*
X65524660Y-37171580D01*
G75*
G02*
X65474660Y-37221580I-50000J0D01*
G01*
X64974660Y-37221580D01*
G75*
G02*
X64924660Y-37171580I0J50000D01*
G01*
X64924660Y-36371580D01*
G75*
G02*
X64974660Y-36321580I50000J0D01*
G01*
G37*
%TD*%
%TO.C,CN4*%
G36*
G01*
X73343660Y-38121580D02*
X73843660Y-38121580D01*
G75*
G02*
X73893660Y-38171580I0J-50000D01*
G01*
X73893660Y-38971580D01*
G75*
G02*
X73843660Y-39021580I-50000J0D01*
G01*
X73343660Y-39021580D01*
G75*
G02*
X73293660Y-38971580I0J50000D01*
G01*
X73293660Y-38171580D01*
G75*
G02*
X73343660Y-38121580I50000J0D01*
G01*
G37*
G36*
G01*
X72593660Y-38121580D02*
X72993660Y-38121580D01*
G75*
G02*
X73043660Y-38171580I0J-50000D01*
G01*
X73043660Y-38971580D01*
G75*
G02*
X72993660Y-39021580I-50000J0D01*
G01*
X72593660Y-39021580D01*
G75*
G02*
X72543660Y-38971580I0J50000D01*
G01*
X72543660Y-38171580D01*
G75*
G02*
X72593660Y-38121580I50000J0D01*
G01*
G37*
G36*
G01*
X70943660Y-38121580D02*
X71443660Y-38121580D01*
G75*
G02*
X71493660Y-38171580I0J-50000D01*
G01*
X71493660Y-38971580D01*
G75*
G02*
X71443660Y-39021580I-50000J0D01*
G01*
X70943660Y-39021580D01*
G75*
G02*
X70893660Y-38971580I0J50000D01*
G01*
X70893660Y-38171580D01*
G75*
G02*
X70943660Y-38121580I50000J0D01*
G01*
G37*
G36*
G01*
X71793660Y-38121580D02*
X72193660Y-38121580D01*
G75*
G02*
X72243660Y-38171580I0J-50000D01*
G01*
X72243660Y-38971580D01*
G75*
G02*
X72193660Y-39021580I-50000J0D01*
G01*
X71793660Y-39021580D01*
G75*
G02*
X71743660Y-38971580I0J50000D01*
G01*
X71743660Y-38171580D01*
G75*
G02*
X71793660Y-38121580I50000J0D01*
G01*
G37*
G36*
G01*
X73343660Y-36321580D02*
X73843660Y-36321580D01*
G75*
G02*
X73893660Y-36371580I0J-50000D01*
G01*
X73893660Y-37171580D01*
G75*
G02*
X73843660Y-37221580I-50000J0D01*
G01*
X73343660Y-37221580D01*
G75*
G02*
X73293660Y-37171580I0J50000D01*
G01*
X73293660Y-36371580D01*
G75*
G02*
X73343660Y-36321580I50000J0D01*
G01*
G37*
G36*
G01*
X71793660Y-36321580D02*
X72193660Y-36321580D01*
G75*
G02*
X72243660Y-36371580I0J-50000D01*
G01*
X72243660Y-37171580D01*
G75*
G02*
X72193660Y-37221580I-50000J0D01*
G01*
X71793660Y-37221580D01*
G75*
G02*
X71743660Y-37171580I0J50000D01*
G01*
X71743660Y-36371580D01*
G75*
G02*
X71793660Y-36321580I50000J0D01*
G01*
G37*
G36*
G01*
X72593660Y-36321580D02*
X72993660Y-36321580D01*
G75*
G02*
X73043660Y-36371580I0J-50000D01*
G01*
X73043660Y-37171580D01*
G75*
G02*
X72993660Y-37221580I-50000J0D01*
G01*
X72593660Y-37221580D01*
G75*
G02*
X72543660Y-37171580I0J50000D01*
G01*
X72543660Y-36371580D01*
G75*
G02*
X72593660Y-36321580I50000J0D01*
G01*
G37*
G36*
G01*
X70943660Y-36321580D02*
X71443660Y-36321580D01*
G75*
G02*
X71493660Y-36371580I0J-50000D01*
G01*
X71493660Y-37171580D01*
G75*
G02*
X71443660Y-37221580I-50000J0D01*
G01*
X70943660Y-37221580D01*
G75*
G02*
X70893660Y-37171580I0J50000D01*
G01*
X70893660Y-36371580D01*
G75*
G02*
X70943660Y-36321580I50000J0D01*
G01*
G37*
%TD*%
%TO.C,CN1*%
G36*
G01*
X88583660Y-38121580D02*
X89083660Y-38121580D01*
G75*
G02*
X89133660Y-38171580I0J-50000D01*
G01*
X89133660Y-38971580D01*
G75*
G02*
X89083660Y-39021580I-50000J0D01*
G01*
X88583660Y-39021580D01*
G75*
G02*
X88533660Y-38971580I0J50000D01*
G01*
X88533660Y-38171580D01*
G75*
G02*
X88583660Y-38121580I50000J0D01*
G01*
G37*
G36*
G01*
X87833660Y-38121580D02*
X88233660Y-38121580D01*
G75*
G02*
X88283660Y-38171580I0J-50000D01*
G01*
X88283660Y-38971580D01*
G75*
G02*
X88233660Y-39021580I-50000J0D01*
G01*
X87833660Y-39021580D01*
G75*
G02*
X87783660Y-38971580I0J50000D01*
G01*
X87783660Y-38171580D01*
G75*
G02*
X87833660Y-38121580I50000J0D01*
G01*
G37*
G36*
G01*
X86183660Y-38121580D02*
X86683660Y-38121580D01*
G75*
G02*
X86733660Y-38171580I0J-50000D01*
G01*
X86733660Y-38971580D01*
G75*
G02*
X86683660Y-39021580I-50000J0D01*
G01*
X86183660Y-39021580D01*
G75*
G02*
X86133660Y-38971580I0J50000D01*
G01*
X86133660Y-38171580D01*
G75*
G02*
X86183660Y-38121580I50000J0D01*
G01*
G37*
G36*
G01*
X87033660Y-38121580D02*
X87433660Y-38121580D01*
G75*
G02*
X87483660Y-38171580I0J-50000D01*
G01*
X87483660Y-38971580D01*
G75*
G02*
X87433660Y-39021580I-50000J0D01*
G01*
X87033660Y-39021580D01*
G75*
G02*
X86983660Y-38971580I0J50000D01*
G01*
X86983660Y-38171580D01*
G75*
G02*
X87033660Y-38121580I50000J0D01*
G01*
G37*
G36*
G01*
X88583660Y-36321580D02*
X89083660Y-36321580D01*
G75*
G02*
X89133660Y-36371580I0J-50000D01*
G01*
X89133660Y-37171580D01*
G75*
G02*
X89083660Y-37221580I-50000J0D01*
G01*
X88583660Y-37221580D01*
G75*
G02*
X88533660Y-37171580I0J50000D01*
G01*
X88533660Y-36371580D01*
G75*
G02*
X88583660Y-36321580I50000J0D01*
G01*
G37*
G36*
G01*
X87033660Y-36321580D02*
X87433660Y-36321580D01*
G75*
G02*
X87483660Y-36371580I0J-50000D01*
G01*
X87483660Y-37171580D01*
G75*
G02*
X87433660Y-37221580I-50000J0D01*
G01*
X87033660Y-37221580D01*
G75*
G02*
X86983660Y-37171580I0J50000D01*
G01*
X86983660Y-36371580D01*
G75*
G02*
X87033660Y-36321580I50000J0D01*
G01*
G37*
G36*
G01*
X87833660Y-36321580D02*
X88233660Y-36321580D01*
G75*
G02*
X88283660Y-36371580I0J-50000D01*
G01*
X88283660Y-37171580D01*
G75*
G02*
X88233660Y-37221580I-50000J0D01*
G01*
X87833660Y-37221580D01*
G75*
G02*
X87783660Y-37171580I0J50000D01*
G01*
X87783660Y-36371580D01*
G75*
G02*
X87833660Y-36321580I50000J0D01*
G01*
G37*
G36*
G01*
X86183660Y-36321580D02*
X86683660Y-36321580D01*
G75*
G02*
X86733660Y-36371580I0J-50000D01*
G01*
X86733660Y-37171580D01*
G75*
G02*
X86683660Y-37221580I-50000J0D01*
G01*
X86183660Y-37221580D01*
G75*
G02*
X86133660Y-37171580I0J50000D01*
G01*
X86133660Y-36371580D01*
G75*
G02*
X86183660Y-36321580I50000J0D01*
G01*
G37*
%TD*%
%TO.C,C36*%
G36*
G01*
X75411410Y-47380080D02*
X76373910Y-47380080D01*
G75*
G02*
X76642660Y-47648830I0J-268750D01*
G01*
X76642660Y-48186330D01*
G75*
G02*
X76373910Y-48455080I-268750J0D01*
G01*
X75411410Y-48455080D01*
G75*
G02*
X75142660Y-48186330I0J268750D01*
G01*
X75142660Y-47648830D01*
G75*
G02*
X75411410Y-47380080I268750J0D01*
G01*
G37*
G36*
G01*
X75411410Y-45505080D02*
X76373910Y-45505080D01*
G75*
G02*
X76642660Y-45773830I0J-268750D01*
G01*
X76642660Y-46311330D01*
G75*
G02*
X76373910Y-46580080I-268750J0D01*
G01*
X75411410Y-46580080D01*
G75*
G02*
X75142660Y-46311330I0J268750D01*
G01*
X75142660Y-45773830D01*
G75*
G02*
X75411410Y-45505080I268750J0D01*
G01*
G37*
%TD*%
%TO.C,C35*%
G36*
G01*
X79602410Y-45221080D02*
X80564910Y-45221080D01*
G75*
G02*
X80833660Y-45489830I0J-268750D01*
G01*
X80833660Y-46027330D01*
G75*
G02*
X80564910Y-46296080I-268750J0D01*
G01*
X79602410Y-46296080D01*
G75*
G02*
X79333660Y-46027330I0J268750D01*
G01*
X79333660Y-45489830D01*
G75*
G02*
X79602410Y-45221080I268750J0D01*
G01*
G37*
G36*
G01*
X79602410Y-43346080D02*
X80564910Y-43346080D01*
G75*
G02*
X80833660Y-43614830I0J-268750D01*
G01*
X80833660Y-44152330D01*
G75*
G02*
X80564910Y-44421080I-268750J0D01*
G01*
X79602410Y-44421080D01*
G75*
G02*
X79333660Y-44152330I0J268750D01*
G01*
X79333660Y-43614830D01*
G75*
G02*
X79602410Y-43346080I268750J0D01*
G01*
G37*
%TD*%
%TO.C,C34*%
G36*
G01*
X73379410Y-47380080D02*
X74341910Y-47380080D01*
G75*
G02*
X74610660Y-47648830I0J-268750D01*
G01*
X74610660Y-48186330D01*
G75*
G02*
X74341910Y-48455080I-268750J0D01*
G01*
X73379410Y-48455080D01*
G75*
G02*
X73110660Y-48186330I0J268750D01*
G01*
X73110660Y-47648830D01*
G75*
G02*
X73379410Y-47380080I268750J0D01*
G01*
G37*
G36*
G01*
X73379410Y-45505080D02*
X74341910Y-45505080D01*
G75*
G02*
X74610660Y-45773830I0J-268750D01*
G01*
X74610660Y-46311330D01*
G75*
G02*
X74341910Y-46580080I-268750J0D01*
G01*
X73379410Y-46580080D01*
G75*
G02*
X73110660Y-46311330I0J268750D01*
G01*
X73110660Y-45773830D01*
G75*
G02*
X73379410Y-45505080I268750J0D01*
G01*
G37*
%TD*%
%TO.C,C31*%
G36*
G01*
X74268410Y-43570080D02*
X75230910Y-43570080D01*
G75*
G02*
X75499660Y-43838830I0J-268750D01*
G01*
X75499660Y-44376330D01*
G75*
G02*
X75230910Y-44645080I-268750J0D01*
G01*
X74268410Y-44645080D01*
G75*
G02*
X73999660Y-44376330I0J268750D01*
G01*
X73999660Y-43838830D01*
G75*
G02*
X74268410Y-43570080I268750J0D01*
G01*
G37*
G36*
G01*
X74268410Y-41695080D02*
X75230910Y-41695080D01*
G75*
G02*
X75499660Y-41963830I0J-268750D01*
G01*
X75499660Y-42501330D01*
G75*
G02*
X75230910Y-42770080I-268750J0D01*
G01*
X74268410Y-42770080D01*
G75*
G02*
X73999660Y-42501330I0J268750D01*
G01*
X73999660Y-41963830D01*
G75*
G02*
X74268410Y-41695080I268750J0D01*
G01*
G37*
%TD*%
%TO.C,C30*%
G36*
G01*
X79983410Y-48934080D02*
X80945910Y-48934080D01*
G75*
G02*
X81214660Y-49202830I0J-268750D01*
G01*
X81214660Y-49740330D01*
G75*
G02*
X80945910Y-50009080I-268750J0D01*
G01*
X79983410Y-50009080D01*
G75*
G02*
X79714660Y-49740330I0J268750D01*
G01*
X79714660Y-49202830D01*
G75*
G02*
X79983410Y-48934080I268750J0D01*
G01*
G37*
G36*
G01*
X79983410Y-47059080D02*
X80945910Y-47059080D01*
G75*
G02*
X81214660Y-47327830I0J-268750D01*
G01*
X81214660Y-47865330D01*
G75*
G02*
X80945910Y-48134080I-268750J0D01*
G01*
X79983410Y-48134080D01*
G75*
G02*
X79714660Y-47865330I0J268750D01*
G01*
X79714660Y-47327830D01*
G75*
G02*
X79983410Y-47059080I268750J0D01*
G01*
G37*
%TD*%
%TO.C,C28*%
G36*
G01*
X77951410Y-48934080D02*
X78913910Y-48934080D01*
G75*
G02*
X79182660Y-49202830I0J-268750D01*
G01*
X79182660Y-49740330D01*
G75*
G02*
X78913910Y-50009080I-268750J0D01*
G01*
X77951410Y-50009080D01*
G75*
G02*
X77682660Y-49740330I0J268750D01*
G01*
X77682660Y-49202830D01*
G75*
G02*
X77951410Y-48934080I268750J0D01*
G01*
G37*
G36*
G01*
X77951410Y-47059080D02*
X78913910Y-47059080D01*
G75*
G02*
X79182660Y-47327830I0J-268750D01*
G01*
X79182660Y-47865330D01*
G75*
G02*
X78913910Y-48134080I-268750J0D01*
G01*
X77951410Y-48134080D01*
G75*
G02*
X77682660Y-47865330I0J268750D01*
G01*
X77682660Y-47327830D01*
G75*
G02*
X77951410Y-47059080I268750J0D01*
G01*
G37*
%TD*%
M02*
